<?xml version="1.0" encoding="UTF-8" standalone="no"?>
<!-- Created with Inkscape (http://www.inkscape.org/) -->

<svg
   xmlns:dc="http://purl.org/dc/elements/1.1/"
   xmlns:cc="http://creativecommons.org/ns#"
   xmlns:rdf="http://www.w3.org/1999/02/22-rdf-syntax-ns#"
   xmlns:svg="http://www.w3.org/2000/svg"
   xmlns="http://www.w3.org/2000/svg"
   xmlns:sodipodi="http://sodipodi.sourceforge.net/DTD/sodipodi-0.dtd"
   xmlns:inkscape="http://www.inkscape.org/namespaces/inkscape"
   version="1.0"
   width="834.08563"
   height="734.98938"
   id="svg2"
   sodipodi:version="0.32"
   inkscape:version="0.47 r22583"
   sodipodi:docname="ZZ.svg"
   inkscape:output_extension="org.inkscape.output.svg.inkscape">
  <metadata
     id="metadata12">
    <rdf:RDF>
      <cc:Work
         rdf:about="">
        <dc:format>image/svg+xml</dc:format>
        <dc:type
           rdf:resource="http://purl.org/dc/dcmitype/StillImage" />
      </cc:Work>
    </rdf:RDF>
  </metadata>
  <sodipodi:namedview
     inkscape:window-height="885"
     inkscape:window-width="1280"
     inkscape:pageshadow="2"
     inkscape:pageopacity="0.0"
     guidetolerance="10.0"
     gridtolerance="10.0"
     objecttolerance="10.0"
     borderopacity="1.0"
     bordercolor="#666666"
     pagecolor="#ffffff"
     id="base"
     inkscape:zoom="0.31112698"
     inkscape:cx="136.98263"
     inkscape:cy="318.76587"
     inkscape:window-x="-189"
     inkscape:window-y="44"
     inkscape:current-layer="svg2"
     width="200px"
     height="200px"
     showgrid="false"
     inkscape:showpageshadow="false"
     inkscape:window-maximized="0" />
  <defs
     id="defs4">
    <inkscape:perspective
       sodipodi:type="inkscape:persp3d"
       inkscape:vp_x="0 : 450 : 1"
       inkscape:vp_y="0 : 1000 : 0"
       inkscape:vp_z="900 : 450 : 1"
       inkscape:persp3d-origin="450 : 300 : 1"
       id="perspective10" />
  </defs>
  <path
     sodipodi:nodetypes="cscssssssc"
     id="path3084"
     d="M 454.97828,22.43 C 447.54398,9.5545 432.99948,1.5 417.04268,1.5 c -16.2469,0 -30.7968,8.495 -38.3717,21.6152 L 8.0043801,665.1866 c -7.9552,13.7802 -9.1331,31.1377 -0.6229,45.8778 8.1234999,14.0703 22.7545999,22.425 37.9044999,22.425 l 743.51342,0 c 15.1499,0 29.781,-8.3548 37.9045,-22.425 8.5102,-14.74 7.333,-32.098 -0.623,-45.8778 L 454.97828,22.43 z"
     style="fill:#ffffff;fill-opacity:1;fill-rule:nonzero;stroke:#000000;stroke-width:3;stroke-linecap:round;stroke-linejoin:round;stroke-miterlimit:2;stroke-opacity:1;stroke-dasharray:none;stroke-dashoffset:0" />
  <path
     style="fill:#d40000;fill-opacity:1;fill-rule:nonzero;stroke:none"
     d="m 417.05288,16.5053 c 10.9092,0 20.385,5.5528 24.9376,13.4375 l 371.09372,642.75 c 5.549,9.6109 6.2861,21.0698 0.625,30.875 -5.5096,9.5428 -15.2711,14.9062 -24.9063,14.9063 l -743.53122,0 c -9.6352,0 -19.3966,-5.3633 -24.9062,-14.9063 -5.6611,-9.8052 -4.924,-21.2631 0.625,-30.875 L 391.64668,30.6303 c 4.8181,-8.3452 14.3881,-14.125 25.4062,-14.125 z"
     id="path3092" />
  <path
     style="fill:#ffffff;fill-opacity:1;fill-rule:nonzero;stroke:none"
     d="m 417.02168,146.6928 283.93752,491.7813 -567.84372,0 283.9062,-491.7813 z"
     id="path3102" />
  <path
     id="path1886"
     style="fill:#000000;fill-opacity:1;fill-rule:evenodd;stroke:none"
     d="m 288.65761,442.67115 c -0.68905,0.17224 -1.37809,0.34452 -2.06713,0.51676 -1.97725,0.49432 -2.91035,2.72 -3.61748,4.13427 -0.9455,1.891 -2.29093,3.03153 -3.10069,4.65103 -0.84394,1.6879 -1.14124,4.56496 -1.55035,6.20139 -0.59699,2.38799 -0.0494,5.36535 -0.51678,7.23495 -0.29976,1.19904 -2.48829,3.42626 -3.10069,4.65103 -0.89297,1.78595 -1.88955,3.77908 -2.58391,5.16783 -1.05288,2.10574 -1.07687,3.66077 -2.58391,5.16779 -1.28881,1.28883 -1.95318,3.90641 -2.58391,5.16784 -0.90048,1.80095 -0.51678,4.80212 -0.51678,7.23494 0,2.487 1.66168,3.93155 3.10069,4.65104 2.33453,1.16726 3.85747,1.79036 5.16782,3.10071 1.15499,1.155 3.90338,1.6218 5.6846,2.06712 2.03316,0.50829 3.62943,1.81472 5.16782,2.58391 2.61045,1.30522 5.38797,-0.73691 6.20139,-1.55036 1.94135,-1.94133 3.15047,-2.68346 4.13425,-4.65103 0.69862,-1.39722 2.68483,-3.2016 3.61748,-4.13423 0.99103,-0.99106 4.48545,-1.46757 5.6846,-2.06716 1.80095,-0.90048 4.80213,-0.51675 7.23495,-0.51675 3.05526,0 3.76096,1.69382 5.16782,3.10067 1.60042,1.60044 2.71123,2.32176 3.61748,4.13427 0.93456,1.86911 1.61675,3.75026 2.58391,5.68459 8.93483,15.59808 10.35107,34.66012 26.87266,44.96005 1.13242,1.13239 3.9505,1.6336 5.68461,2.06711 2.30744,0.57686 4.36722,1.60858 6.20138,2.06716 2.50285,0.62569 4.78206,0.51676 7.23495,0.51676 0.54707,2.94641 1.8063,5.5556 3.10069,8.2685 1.19592,7.46729 1.42744,14.62391 4.13426,21.70485 0.65745,2.62983 0.84975,3.91578 1.55035,6.71819 0.68481,2.73926 1.03305,4.64898 1.55034,6.71814 0.62292,2.49167 1.45512,3.75335 2.06713,6.20139 0.70813,2.83256 -0.58839,4.9375 -1.03356,6.71819 -0.62984,2.51932 -2.2755,4.03419 -3.1007,5.68459 -0.49077,0.98156 -3.25831,2.74152 -4.13425,3.61748 -2.54637,2.54638 -0.15357,3.0623 2.06712,3.61747 2.66617,0.66652 5.44294,0.5168 8.26852,0.5168 2.75617,0 5.51234,0 8.26851,0 3.31936,0 3.61748,-0.91929 3.61748,-4.13427 0,-3.30019 -0.50711,-4.1246 -2.06713,-5.68459 -1.97567,-1.9757 -2.4768,-1.7646 -1.03356,-4.65103 1.14197,-2.28398 1.92876,-2.54726 2.5839,-5.16784 0.007,-0.0284 -2.41199,-4.82402 -2.5839,-5.16783 -0.81983,-1.63964 -1.15438,-5.13426 -1.55035,-6.71815 -0.59761,-2.39049 -1.03357,-4.1663 -1.03357,-7.23494 0,-2.98315 0.87101,-4.00082 1.55035,-6.71819 1.16748,-7.44914 3.47491,-14.70653 4.13426,-22.22165 0,-2.59734 0.46733,-4.45322 1.03356,-6.71814 0.69463,-2.77855 -0.41033,-4.49523 2.06713,-3.87584 28.07081,9.20957 59.55118,0.80665 84.75226,-12.66117 1.77227,-0.44307 -0.15001,0.43359 0.51676,3.10067 0.42731,1.70917 2.66962,3.18638 3.61748,4.13427 1.62588,1.62585 3.0623,2.02871 4.65107,3.61748 1.57888,1.57888 2.80341,2.2866 4.13423,3.61747 0.10702,0.10697 -1.55036,4.65971 -1.55036,6.20139 0,2.80537 3.04267,2.06712 5.68464,2.06712 2.04196,0 3.22178,-2.70503 4.13423,-3.61748 2.0644,-2.0644 -0.22796,-3.67448 4.13427,-2.58391 0.40295,0.10075 2.08055,4.14094 3.10068,4.65103 4.11988,2.05994 3.61747,-1.00095 3.61747,-4.13423 0,-3.66636 -1.05687,-2.04385 1.55036,-4.65108 1.84537,-1.84537 3.57422,1.46387 4.13427,2.58392 4.03936,8.01056 11.56327,10.95914 19.63773,13.43634 2.2693,0.56734 2.06711,2.91246 2.06711,5.68459 -0.45057,6.93238 1.88366,12.96553 4.65104,19.12096 0.98397,1.96791 2.09893,3.22792 2.58391,5.16779 0.17028,0.6812 -3.27913,3.79593 -3.61747,4.13428 -0.99094,0.99093 -1.69979,4.94988 -2.06712,5.68459 -0.83479,1.66959 -0.59437,4.96135 -1.0336,6.71819 -0.63549,2.54196 -2.08188,3.10805 -4.13423,4.13423 -2.441,1.22052 -3.05876,1.46649 -4.13427,3.61747 -1.1847,2.36939 0.51609,3.61731 2.58391,4.13428 2.25354,0.56338 5.41514,0 7.75175,0 2.82901,0 4.99271,0.5168 7.75171,0.5168 2.95512,0 3.10071,-2.18423 3.10071,-5.16784 0,-2.64055 0.0312,-5.29256 0.51676,-7.23494 0.47964,-1.91857 2.05469,-3.60505 3.10071,-4.65103 1.45177,-1.45177 1.03356,-4.39376 1.03356,-6.71819 0,-2.58392 0,-5.16784 0,-7.75171 0,-2.58392 0,-5.16783 0,-7.75175 0,-2.58391 0,-5.16783 0,-7.75174 0,-2.58392 0,-5.16779 0,-7.75171 0,-1.32791 3.33097,-3.21586 4.13428,-3.61747 1.95639,-0.97822 2.06711,-3.19376 2.06711,-5.68464 0,-2.98423 -0.60967,-4.31998 -1.55036,-6.20134 -0.83408,-1.66818 -0.51675,-4.80009 -0.51675,-7.23499 0,-2.58388 0,-5.16779 0,-7.75171 0,-2.53987 -0.0703,-5.44875 -0.5168,-7.23495 -0.49945,-1.99776 -1.51662,-4.06679 -2.58392,-6.20139 -0.91912,-1.83828 -1.05604,-4.22414 -1.55036,-6.20139 -0.55237,-2.20957 -0.92333,-3.69333 -1.55031,-6.20139 -0.69759,-2.79031 -0.3879,-4.65211 -1.0336,-7.23494 -0.62352,-2.49413 -0.99215,-3.96871 -1.55032,-6.20139 -0.50854,-2.03413 -1.02609,-4.62105 -1.55036,-6.71815 -0.63123,-2.5249 -1.25371,-3.83763 -2.58391,-5.16783 -1.67351,-7.50682 -2.9842,-15.48815 -2.58392,-23.2552 0,-2.65144 -0.52681,-4.69111 -1.03356,-6.71815 -0.56747,-2.26992 -0.51675,-4.45114 -0.51675,-7.23495 0,-2.17555 -0.95591,-5.01252 -1.55036,-6.20139 -1.06901,-2.13801 -2.26818,-2.78497 -3.61748,-4.13427 -1.57805,-1.57805 -3.55266,-2.05094 -5.68459,-2.58392 -1.99567,-0.49891 -3.70438,-1.57204 -5.68463,-2.06711 -1.91468,-0.47869 -4.6155,-0.51676 -7.23495,-0.51676 -9.61551,-0.79426 -18.27562,3.23262 -27.38943,5.68459 -13.72722,3.69312 -28.5333,4.30121 -42.89293,4.65103 -20.37631,0 -36.41168,-2.76166 -53.22854,-8.78531 -21.13982,7.58473 -43.1981,8.46027 -65.63133,9.30211 -3.40333,0 -4.25831,-0.57881 -6.20138,-1.55036 -1.26395,-0.63199 -2.60087,-3.65138 -3.10069,-4.65103 -1.10863,-2.21725 1.12752,-3.40607 2.58391,-4.13427 2.17921,-1.08961 2.52331,-2.34149 3.10069,-4.65104 0.55433,-2.21733 0.51678,-4.71967 0.51678,-7.23494 0,-3.66932 -3.32911,-1.17773 -4.65104,-0.5168 -2.31167,1.15583 -2.78614,1.9885 -5.16782,2.58391 -1.42328,0.35582 -2.79036,3.40975 -3.10069,4.65104 -0.24334,0.97337 -3.35397,2.83722 -4.13426,3.61747 -1.54074,1.54076 -4.08749,-1.53864 -6.20138,-2.06712 -2.3238,-0.58094 -3.73979,-1.03356 -6.71817,-1.03356 -2.46862,0 -5.54837,-0.0951 -7.23495,-0.51679 -1.11855,-0.27963 -1.62729,-4.80493 -2.06713,-5.68459 -1.03103,-2.06207 -2.71082,-3.13242 -4.65103,-3.61748 -2.31033,-0.57756 -3.20264,-3.20969 -4.13426,0.5168 -0.55434,2.21734 -0.51678,4.71968 -0.51678,7.23495 0,3.39023 -0.0434,4.60766 1.55034,6.20139 1.32722,1.3272 1.53195,3.54386 2.06713,5.68459 0.54974,2.19894 -0.005,2.57053 1.03357,5.16783 z m 253.74001,55.81247 c 0.0568,0.22745 -4.26923,4.88144 -6.71819,6.71814 -1.61229,1.20922 1.90517,4.84388 2.58391,6.20139 2.64268,3.87959 4.50853,8.07367 6.20139,12.40278 0.4165,1.66601 2.68985,3.2066 3.61748,4.13423 0.71564,0.71565 -0.0307,-3.74046 -0.5168,-5.68459 -3.04208,-6.20831 -3.08854,-12.90761 -3.61748,-19.63772 0,-1.17777 -1.30501,-2.90759 -1.55031,-4.13423 z"
     sodipodi:nodetypes="csssssssssssssssssssssccsscccssssssssssssssssccsccsssssssssssccccsssssssssssssssssssssssssssssccsssssscscccssssssssssssssssssccsccsccc" />
</svg>
