<?xml version="1.0" encoding="UTF-8" standalone="no"?>
<!-- Created with Inkscape (http://www.inkscape.org/) -->

<svg
   xmlns:dc="http://purl.org/dc/elements/1.1/"
   xmlns:cc="http://creativecommons.org/ns#"
   xmlns:rdf="http://www.w3.org/1999/02/22-rdf-syntax-ns#"
   xmlns:svg="http://www.w3.org/2000/svg"
   xmlns="http://www.w3.org/2000/svg"
   xmlns:sodipodi="http://sodipodi.sourceforge.net/DTD/sodipodi-0.dtd"
   xmlns:inkscape="http://www.inkscape.org/namespaces/inkscape"
   version="1.0"
   width="834.08563"
   height="734.98938"
   id="svg2"
   sodipodi:version="0.32"
   inkscape:version="0.47 r22583"
   sodipodi:docname="ZZ.svg"
   inkscape:output_extension="org.inkscape.output.svg.inkscape">
  <metadata
     id="metadata12">
    <rdf:RDF>
      <cc:Work
         rdf:about="">
        <dc:format>image/svg+xml</dc:format>
        <dc:type
           rdf:resource="http://purl.org/dc/dcmitype/StillImage" />
      </cc:Work>
    </rdf:RDF>
  </metadata>
  <sodipodi:namedview
     inkscape:window-height="1004"
     inkscape:window-width="1280"
     inkscape:pageshadow="2"
     inkscape:pageopacity="0.0"
     guidetolerance="10.0"
     gridtolerance="10.0"
     objecttolerance="10.0"
     borderopacity="1.0"
     bordercolor="#666666"
     pagecolor="#ffffff"
     id="base"
     inkscape:zoom="0.62225396"
     inkscape:cx="525.80414"
     inkscape:cy="293.96586"
     inkscape:window-x="-8"
     inkscape:window-y="-8"
     inkscape:current-layer="svg2"
     width="200px"
     height="200px"
     showgrid="false"
     inkscape:showpageshadow="false"
     inkscape:window-maximized="1" />
  <defs
     id="defs4">
    <inkscape:perspective
       id="perspective3452"
       inkscape:persp3d-origin="100 : 66.666667 : 1"
       inkscape:vp_z="200 : 100 : 1"
       inkscape:vp_y="0 : 1000 : 0"
       inkscape:vp_x="0 : 100 : 1"
       sodipodi:type="inkscape:persp3d" />
  </defs>
  <path
     sodipodi:nodetypes="cscssssssc"
     id="path3084"
     d="M 454.97828,22.43 C 447.54398,9.5545 432.99948,1.5 417.04268,1.5 c -16.2469,0 -30.7968,8.495 -38.3717,21.6152 L 8.0043801,665.1866 c -7.9552,13.7802 -9.1331,31.1377 -0.6229,45.8778 8.1234999,14.0703 22.7545999,22.425 37.9044999,22.425 l 743.51342,0 c 15.1499,0 29.781,-8.3548 37.9045,-22.425 8.5102,-14.74 7.333,-32.098 -0.623,-45.8778 L 454.97828,22.43 z"
     style="fill:#ffffff;fill-opacity:1;fill-rule:nonzero;stroke:#000000;stroke-width:3;stroke-linecap:round;stroke-linejoin:round;stroke-miterlimit:2;stroke-opacity:1;stroke-dasharray:none;stroke-dashoffset:0" />
  <path
     style="fill:#d40000;fill-opacity:1;fill-rule:nonzero;stroke:none"
     d="m 417.05288,16.5053 c 10.9092,0 20.385,5.5528 24.9376,13.4375 l 371.09372,642.75 c 5.549,9.6109 6.2861,21.0698 0.625,30.875 -5.5096,9.5428 -15.2711,14.9062 -24.9063,14.9063 l -743.53122,0 c -9.6352,0 -19.3966,-5.3633 -24.9062,-14.9063 -5.6611,-9.8052 -4.924,-21.2631 0.625,-30.875 L 391.64668,30.6303 c 4.8181,-8.3452 14.3881,-14.125 25.4062,-14.125 z"
     id="path3092" />
  <path
     style="fill:#ffffff;fill-opacity:1;fill-rule:nonzero;stroke:none"
     d="m 417.02168,146.6928 283.93752,491.7813 -567.84372,0 283.9062,-491.7813 z"
     id="path3102" />
  <path
     style="fill:#000000;fill-opacity:1;fill-rule:evenodd;stroke:none"
     d="m 368.45985,339.31485 c 6.23666,-6.49246 10.98216,-13.83557 16.27863,-21.05887 -1.57168,-6.15925 -1.63308,-15.56989 5.16782,-18.73334 0.90774,0.17034 -2.46758,5.97601 -2.32552,8.78529 0.52755,2.1102 2.47171,5.55541 6.58897,2.19633 4.63629,-2.93163 9.34079,-6.10314 14.21151,-7.49335 1.14401,-6.72584 5.87788,-11.96184 11.24001,-15.37426 -1.40623,5.83333 -5.13683,10.24026 -3.61748,17.44139 3.64496,1.82677 4.46557,4.85882 5.29699,7.36414 -17.16528,-6.63455 -35.32915,7.39908 -35.39954,23.90117 -0.0319,7.47821 12.95711,4.25406 20.67128,1.67954 1.97489,-0.49373 -0.70642,3.16113 -1.42115,3.87586 -1.66866,1.66865 -3.04051,3.04051 -4.65104,4.65104 -1.39543,1.39543 -4.10871,2.18994 -5.6846,2.58391 -2.73882,0.6847 -3.25139,1.24895 -2.06713,3.61747 1.05621,2.11242 2.49144,2.21403 3.10069,4.65104 9.61702,43.0712 24.90275,83.19858 79.06762,90.43682 8.3138,2.05527 12.32642,0.61368 20.67128,0 15.44248,6.53857 30.62226,15.78107 39.79224,30.49018 5.62166,6.59395 0.60572,10.65633 -5.16783,12.40273 -0.72432,0.72432 2.96359,7.09787 3.10068,7.23495 0.8958,0.89577 0.5168,5.68475 0.5168,7.23495 -0.96863,8.88022 2.84035,13.00423 8.78526,18.60416 1.36936,1.82577 3.77019,2.69843 5.68463,4.13423 2.10327,1.57751 4.38412,2.1921 6.20138,3.10071 2.98094,1.49047 4.13423,0.14943 4.13423,4.65103 0,3.0671 -0.66614,5.60394 0,8.26851 0.74059,2.96234 0.78421,5.20398 1.55036,8.2685 0.68871,2.75486 0.95057,4.31906 1.55036,6.71819 0.3381,1.35243 3.82028,4.06016 4.65103,5.16779 3.67924,11.04671 10.32774,18.98313 17.05381,27.90622 1.43967,1.43972 2.33652,3.12278 3.10067,4.65107 1.05257,2.10507 4.16914,3.10939 6.20139,3.61747 3.60717,0.90178 -0.30641,-0.0526 3.61747,-1.0336 2.34562,-0.58636 -0.0696,4.88938 0.5168,7.23495 1.48234,4.12439 4.20279,7.29396 7.23494,10.33566 1.69628,1.69628 2.63129,3.2903 3.10068,5.16783 0.75205,3.00809 -6.20139,0 -9.30206,0 -3.1697,0 -4.6258,-0.3813 -7.23495,-1.03356 -1.8764,-0.46913 -4.06525,-1.25747 -5.68463,-2.06715 -0.742,-0.37101 -2.63642,-4.75613 -3.10067,-5.68459 -1.33321,-2.66637 -2.45981,-3.88605 -3.61747,-6.20139 -15.34172,-9.6367 -18.45111,-31.21171 -29.45659,-43.40967 -1.48884,-1.48889 -2.31454,-4.1123 -3.10067,-5.68459 -0.78754,-1.57513 -2.63867,-3.86278 -3.61747,-5.16783 -1.52325,-2.031 -2.00598,-3.88968 -2.58392,-6.20139 -0.61981,-2.47915 -2.85837,-2.39412 -5.68458,-3.10071 -2.62054,-0.65509 -5.85133,-3.09651 -7.23495,-4.13423 -14.02979,-7.27382 -28.34896,-11.88264 -35.14117,-29.45658 -0.78721,-3.14872 -0.53277,-3.88384 -3.10071,-5.16783 -2.63384,-1.3169 -5.16129,-2.06387 -7.23495,-3.10068 -3.04541,-1.5227 -5.97927,-1.6977 -8.7853,-3.10067 -2.47953,-1.23979 -4.52333,-1.74491 -6.20135,-2.58392 -2.34432,-1.17214 -1.96448,-2.58391 -5.16783,-2.58391 -2.58391,0 -5.16783,0 -7.75174,0 -3.27296,0 -6.54591,0 -9.81886,0 -3.73396,0 -6.63779,-0.5168 -10.33562,-0.5168 -2.75465,0 -6.71477,-0.38672 -9.3021,-1.03356 -2.82376,-0.70593 -5.54976,-1.00657 -8.26849,-1.55036 -2.66575,-0.53314 -4.30505,-1.37732 -6.71817,-2.58387 -1.83585,-0.91795 -3.67844,-1.43642 -6.20138,-2.06716 -2.32832,-0.58206 -4.62539,-1.03355 -7.23495,-1.03355 -2.82589,0 -4.24008,-0.51676 -7.23495,-0.51676 -2.60394,0 -6.32917,-0.41955 -8.78529,-1.0336 -2.25351,-0.56334 -5.41512,0 -7.75173,0 -2.79962,0 -4.94944,0.0546 -7.23494,-0.51676 -2.01237,-0.50308 2.6675,3.18429 4.13425,4.65103 1.82039,1.82039 3.99406,2.77221 5.6846,3.61747 2.29639,1.14821 4.32612,2.63188 6.20139,3.10068 2.45721,0.6143 4.12195,2.31938 5.6846,3.10071 2.43874,1.21935 4.63704,2.57691 6.71816,3.61747 2.44476,1.2224 2.82877,2.44796 5.16782,3.61748 2.3366,1.1683 5.41985,2.19314 7.23495,3.10067 2.20352,1.10179 2.55141,2.45396 3.10069,4.65103 0.4691,1.8764 1.25745,4.06529 2.06712,5.68463 0.919,1.83799 1.03357,5.41097 1.03357,7.23495 0,4.85709 -0.14932,3.58014 -4.13426,2.58391 -1.17486,-0.29372 -3.75257,-2.71904 -4.65103,-3.61747 -1.78048,-1.78048 -4.12318,-2.57287 -5.68461,-4.13427 -1.56218,-1.56221 -3.61203,-2.83957 -5.16781,-3.61748 -22.70932,-9.49886 -40.72608,-27.0909 -62.53061,-37.72508 -1.70958,-0.42739 -3.70297,-2.15261 -4.65104,-3.10067 -1.80242,-1.80242 -1.933,-2.56423 -2.58391,-5.16783 -0.84331,-3.37326 0.79537,-4.41286 2.06713,-5.68459 1.63596,-1.63598 2.9174,-2.02133 5.16782,-2.58392 2.73333,-0.68332 5.76728,-0.5168 8.78529,-0.5168 11.89399,-0.89201 23.84537,1.12072 35.65795,0.5168 2.95872,0 4.97202,-0.16048 6.71817,-1.03355 2.17858,-1.08932 0.47505,-5.33474 0,-7.23495 -5.93446,-8.03016 -3.91128,-14.87271 -2.06713,-22.22164 0,-2.0654 1.55034,-3.36157 1.55034,-6.20138 0,-1.58352 -1.644,-3.99211 -2.06712,-5.68459 -0.40398,-1.61592 -1.85206,-4.73769 -2.58392,-6.20139 -3.55271,-9.03836 -3.10069,-18.35181 -3.10069,-27.90622 0,-2.58392 0,-5.16783 0,-7.75175 0,-3.11898 -1.9396,-3.03691 -4.13425,-4.13423 -10.84434,-3.98355 -21.50128,-8.18523 -32.04048,-12.91956 -2.04015,-1.02007 -3.6314,-1.5782 -4.65104,-3.61747 -1.27388,-2.54777 2.29901,-3.84935 3.10069,-4.65104 12.27088,-1.1605 24.98053,-3.41811 34.10761,-12.91954 z"
     id="path3460"
     sodipodi:nodetypes="cccccccccscsssscccccsccssssssccsssccsssssccssssccssssssssssssssssssssssssssssssccssssccsccssccsccscs" />
</svg>
