<?xml version="1.0" encoding="UTF-8" standalone="no"?>
<!-- Created with Inkscape (http://www.inkscape.org/) -->

<svg
   xmlns:dc="http://purl.org/dc/elements/1.1/"
   xmlns:cc="http://creativecommons.org/ns#"
   xmlns:rdf="http://www.w3.org/1999/02/22-rdf-syntax-ns#"
   xmlns:svg="http://www.w3.org/2000/svg"
   xmlns="http://www.w3.org/2000/svg"
   xmlns:sodipodi="http://sodipodi.sourceforge.net/DTD/sodipodi-0.dtd"
   xmlns:inkscape="http://www.inkscape.org/namespaces/inkscape"
   version="1.0"
   width="199.99997"
   height="175.87384"
   id="svg2"
   sodipodi:version="0.32"
   inkscape:version="0.47 r22583"
   sodipodi:docname="ZZ.svg"
   inkscape:output_extension="org.inkscape.output.svg.inkscape"
   sodipodi:modified="true">
  <metadata
     id="metadata12">
    <rdf:RDF>
      <cc:Work
         rdf:about="">
        <dc:format>image/svg+xml</dc:format>
        <dc:type
           rdf:resource="http://purl.org/dc/dcmitype/StillImage" />
      </cc:Work>
    </rdf:RDF>
  </metadata>
  <sodipodi:namedview
     inkscape:window-height="1003"
     inkscape:window-width="1279"
     inkscape:pageshadow="2"
     inkscape:pageopacity="0.0"
     guidetolerance="10.0"
     gridtolerance="10.0"
     objecttolerance="10.0"
     borderopacity="1.0"
     bordercolor="#666666"
     pagecolor="#ffffff"
     id="base"
     inkscape:zoom="2.8531759"
     inkscape:cx="98.576802"
     inkscape:cy="79.79718"
     inkscape:window-x="-3"
     inkscape:window-y="-4"
     inkscape:current-layer="svg2"
     width="200px"
     height="200px"
     showgrid="false"
     inkscape:window-maximized="0" />
  <defs
     id="defs4">
    <inkscape:perspective
       sodipodi:type="inkscape:persp3d"
       inkscape:vp_x="0 : 100 : 1"
       inkscape:vp_y="0 : 1000 : 0"
       inkscape:vp_z="200 : 100 : 1"
       inkscape:persp3d-origin="100 : 66.666667 : 1"
       id="perspective10" />
  </defs>
  <g
     id="g7259"
     transform="matrix(-1,0,0,1,199.99998,-12.063078)">
    <path
       id="path1902"
       d="m 9.9600258,187.43692 c -3.3797385,0 -6.5027442,-1.80309 -8.1926166,-4.73002 -1.68986644,-2.92694 -1.68986644,-6.53307 0,-9.46002 L 91.807376,17.29308 c 1.689875,-2.926936 4.812879,-4.730002 8.19262,-4.730002 3.379734,0 6.502744,1.803066 8.192614,4.730002 l 90.03997,155.9538 c 1.68987,2.92695 1.68987,6.53308 0,9.46002 -1.68987,2.92693 -4.81288,4.73002 -8.19261,4.73002 l -180.0799442,0 z"
       style="fill:#ffffff;fill-rule:evenodd;stroke:#000000;stroke-width:1;stroke-miterlimit:4;stroke-dasharray:none" />
    <path
       id="path4558"
       d="m 100,15.0625 c -2.490587,0 -4.78595,1.311841 -6.03125,3.46875 L 3.9375,174.5 c -1.2452932,2.15692 -1.2452877,4.81185 0,6.96875 1.2452964,2.15691 3.5406779,3.46875 6.03125,3.46875 l 180.0625,0 c 2.49056,0 4.78596,-1.31185 6.03125,-3.46875 1.24529,-2.15691 1.2453,-4.81184 0,-6.96875 L 106.03125,18.53125 C 104.78596,16.374345 102.49058,15.0625 100,15.0625 z m 0,33 67.46875,116.875 -134.9375,0 L 100,48.0625 z"
       style="fill:#d40000;fill-opacity:1;fill-rule:evenodd;stroke:none" />
  </g>
  <path
     style="fill:#000000;fill-opacity:1;fill-rule:evenodd;stroke:none"
     d="m 107.62498,70.061922 c -2.66376,0 -4.84375,2.179989 -4.84375,4.84375 0,2.663763 2.17999,4.843753 4.84375,4.84375 2.66376,0 4.84375,-2.179983 4.84375,-4.84375 0,-2.663765 -2.17999,-4.843749 -4.84375,-4.84375 z m 5.0625,10.625 c -0.74519,0.03174 -1.46995,0.319008 -2,0.84375 l -18.281244,18 c -1.184105,1.164198 -1.19545,3.065898 -0.03125,4.249998 0.370778,0.37712 0.809697,0.61288 1.28125,0.75 l -7.4375,0 c -0.586591,0 -1.124895,0.0948 -1.5625,0.34375 -0.437606,0.24898 -0.747902,0.66812 -0.90625,1.09375 -0.316696,0.85126 -0.126075,1.68598 0.125,2.46875 0.413894,1.29039 0.972367,2.08584 1.21875,2.46875 l -12.25,21.15625 c -0.131321,-0.0269 -0.267016,-0.0312 -0.40625,-0.0312 -1.113873,0 -2.031251,0.88614 -2.03125,2 0,1.11388 0.917377,2.03125 2.03125,2.03125 1.113872,0 2,-0.91736 2,-2.03125 0,-0.31838 -0.08725,-0.60712 -0.21875,-0.875 l 8.46875,-14.625 16.53125,13.375 c -0.221722,0.40802 -0.339201,0.86991 -0.3125,1.34375 l 0.15625,2.71875 c 0.07778,1.41905 1.267624,2.4987 2.687494,2.4375 l 22.71875,-1.125 0.3125,0 c 1.42052,-0.008 2.58388,-1.17324 2.59375,-2.59375 0.008,-1.10089 -0.68525,-2.02789 -1.65625,-2.40625 l -10.46875,-17.3438 2.15625,-3.65625 c 0.27665,0.0327 0.54129,0.0647 0.8125,0.0625 1.10268,-0.009 2.16618,-0.6004 2.75,-1.34375 0.14595,-0.18584 0.25975,-0.40277 0.3125,-0.65625 0.0528,-0.25348 0.0207,-0.57401 -0.15625,-0.8125 -0.35389,-0.47698 -0.94264,-0.5625 -1.71875,-0.5625 -2.2876,0 -4.40892,0.32399 -6.625,0.875 -0.23773,0.0716 -0.39916,0.28306 -0.40625,0.53125 -0.007,0.24819 0.14175,0.4774 0.375,0.5625 0.94407,0.32398 1.9129,0.68813 2.875,0.96875 l -2.15625,3.625 -10.75,0 -0.78125,-1.71875 15.15625,-6.375 c 1.20656,-0.50084 1.92476,-1.7297 1.8125,-3.03125 l -1.75,-19.312498 c -0.0879,-1.030563 -0.70426,-1.935044 -1.625,-2.40625 l -1.375,-0.6875 c -0.45665,-0.23259 -0.95668,-0.332436 -1.46875,-0.3125 z m -5.84375,14.09375 2.53125,6.687498 -12.624994,7.03125 c -0.509103,0.21775 -0.902153,0.58854 -1.21875,1.03125 -0.144999,0.20276 -0.314644,0.38852 -0.40625,0.625 -0.291629,0.75279 -0.240938,1.60907 0.09375,2.34375 l 0.9375,2.03125 -11.15625,0 1.8125,-3.125 c 0.161469,-0.28377 0.149383,-0.63428 -0.03125,-0.90625 0,0 -0.889713,-1.37306 -1.28125,-2.59375 -0.195769,-0.61035 -0.19702,-1.15017 -0.125,-1.34375 0.03601,-0.0968 0.05823,-0.13173 0.15625,-0.1875 0.09802,-0.0558 0.308959,-0.125 0.6875,-0.125 l 7.84375,0 c 0.330281,0.0375 0.666821,-0.12484 0.84375,-0.40625 0.176925,-0.2814 0.176928,-0.62485 0,-0.90625 -0.08098,-0.1288 -0.211804,-0.21008 -0.34375,-0.28125 0.711674,-0.0194 1.407915,-0.2889 1.96875,-0.8125 0.0395,-0.0234 0.0865,-0.0372 0.125,-0.0625 0.192483,-0.1265 0.369003,-0.2655 0.53125,-0.4375 l 9.656244,-8.562498 z m -22.843744,21.468748 12.9375,0 6.124994,13.25 c 0.69654,1.50251 2.49747,2.16527 4,1.46875 1.5025,-0.69654 2.13402,-2.49748 1.4375,-4 l -0.1875,-0.40625 5.90625,-9.9375 9.3125,15.375 -14.84375,-1.03125 c -0.3413,0.36884 -0.73688,0.68286 -1.21875,0.90625 -1.74269,0.80786 -3.80576,0.21263 -4.90625,-1.28125 l -0.875,-0.0937 c -0.096,-0.005 -0.18524,-0.005 -0.28125,0 -0.31466,0.0127 -0.62515,0.0949 -0.90625,0.21875 l -16.937494,-13.68755 0.4375,-0.78125 z m 19.531244,0 8.90625,0 -5,8.4375 -3.90625,-8.4375 z m -31.093744,3.375 c -7.956231,0 -14.406251,6.45001 -14.40625,14.40625 0,7.95624 6.450016,14.43751 14.40625,14.4375 7.956237,1e-5 14.40625,-6.48127 14.40625,-14.4375 -2e-6,-4.14988 -1.752634,-7.86931 -4.5625,-10.5 l -1.3125,1.875 c 2.212817,2.19424 3.5625,5.23365 3.5625,8.59375 6e-6,6.68324 -5.410511,12.125 -12.09375,12.125 -6.683239,0 -12.125,-5.44176 -12.125,-12.125 -3e-6,-6.68326 5.44176,-12.09375 12.125,-12.09375 1.373557,0 2.706474,0.23419 3.9375,0.65625 l 0.96875,-2.0625 c -1.530079,-0.5537 -3.18587,-0.875 -4.90625,-0.875 z m 53.156244,0 c -1.72038,0 -3.37617,0.3213 -4.90625,0.875 l 1.125,2 c 1.1908,-0.39191 2.45981,-0.59375 3.78125,-0.59375 6.68324,0 12.09375,5.41051 12.09375,12.09375 1e-5,6.68324 -5.41051,12.125 -12.09375,12.125 -4.95522,0 -9.22053,-2.984 -11.09375,-7.25 l -2.4375,0.21875 c 2.04483,5.47348 7.34745,9.37501 13.53125,9.375 7.95624,1e-5 14.40625,-6.48127 14.40625,-14.4375 0,-7.95624 -6.45001,-14.40625 -14.40625,-14.40625 z m -9.5,3.5625 c -2.0386,1.78633 -3.56092,4.14045 -4.34375,6.8125 l 2.34375,0.21875 c 0.64832,-1.98197 1.78237,-3.74206 3.28125,-5.125 l -1.28125,-1.90625 z"
     id="path5602" />
</svg>
