<?xml version="1.0" encoding="UTF-8" standalone="no"?>
<svg
   xmlns:dc="http://purl.org/dc/elements/1.1/"
   xmlns:cc="http://creativecommons.org/ns#"
   xmlns:rdf="http://www.w3.org/1999/02/22-rdf-syntax-ns#"
   xmlns:svg="http://www.w3.org/2000/svg"
   xmlns="http://www.w3.org/2000/svg"
   version="1.0"
   width="834.08563"
   height="734.98938"
   id="svg2">
  <metadata
     id="metadata12">
    <rdf:RDF>
      <cc:Work
         rdf:about="">
        <dc:format>image/svg+xml</dc:format>
        <dc:type
           rdf:resource="http://purl.org/dc/dcmitype/StillImage" />
        <dc:title></dc:title>
      </cc:Work>
    </rdf:RDF>
  </metadata>
  <defs
     id="defs4" />
  <path
     id="path3084"
     d="M 454.97828,22.43 C 447.54398,9.5545 432.99948,1.5 417.04268,1.5 c -16.2469,0 -30.7968,8.495 -38.3717,21.6152 L 8.0043801,665.1866 c -7.9552,13.7802 -9.1331,31.1377 -0.6229,45.8778 8.1234999,14.0703 22.7545999,22.425 37.9044999,22.425 l 743.51342,0 c 15.1499,0 29.781,-8.3548 37.9045,-22.425 8.5102,-14.74 7.333,-32.098 -0.623,-45.8778 L 454.97828,22.43 z"
     style="fill:#ffffff;fill-opacity:1;fill-rule:nonzero;stroke:#000000;stroke-width:3;stroke-linecap:round;stroke-linejoin:round;stroke-miterlimit:2;stroke-opacity:1;stroke-dasharray:none;stroke-dashoffset:0" />
  <path
     style="fill:#d40000;fill-opacity:1;fill-rule:nonzero;stroke:none"
     d="m 417.05288,16.5053 c 10.9092,0 20.385,5.5528 24.9376,13.4375 l 371.09372,642.75 c 5.549,9.6109 6.2861,21.0698 0.625,30.875 -5.5096,9.5428 -15.2711,14.9062 -24.9063,14.9063 l -743.53122,0 c -9.6352,0 -19.3966,-5.3633 -24.9062,-14.9063 -5.6611,-9.8052 -4.924,-21.2631 0.625,-30.875 L 391.64668,30.6303 c 4.8181,-8.3452 14.3881,-14.125 25.4062,-14.125 z"
     id="path3092" />
  <path
     style="fill:#ffffff;fill-opacity:1;fill-rule:nonzero;stroke:none"
     d="m 417.02168,146.6928 283.93752,491.7813 -567.84372,0 283.9062,-491.7813 z"
     id="path3102" />
  <g
     id="g2813"
     transform="matrix(4.17043,0,0,4.17043,0.4906611,-48.78838)">
    <path
       style="fill:#000000;fill-opacity:1;fill-rule:evenodd;stroke:none"
       d="m 78.810407,131.84634 7.568674,0 -2.97398,25.89839 -12.277469,0 7.682775,-25.89839 z"
       id="path2803" />
    <path
       style="fill:#000000;fill-opacity:1;fill-rule:evenodd;stroke:none"
       d="m 112.88723,131.84634 8.43609,0 7.80669,25.89839 -11.90572,0 -4.33706,-25.89839 z"
       id="path2809" />
    <path
       id="rect2800"
       d="m 96.902105,131.84634 6.949095,0 1.98265,25.89839 -11.162228,0 2.230483,-25.89839 z"
       style="fill:#000000;fill-opacity:1;fill-rule:evenodd;stroke:none" />
    <path
       id="path2807"
       d="m 63.073109,131.84634 9.42741,0 -10.408925,25.89839 -13.020963,0 14.002478,-25.89839 z"
       style="fill:#000000;fill-opacity:1;fill-rule:evenodd;stroke:none" />
    <path
       id="path2811"
       d="m 127.6332,131.84634 9.42742,0 13.63073,25.89839 -12.40138,0 -10.65677,-25.89839 z"
       style="fill:#000000;fill-opacity:1;fill-rule:evenodd;stroke:none" />
  </g>
  <g
     id="g864"
     transform="matrix(3.3729944,0,0,3.3729944,82.062221,59.240071)"
     style="fill:#000000;fill-opacity:1;stroke:#ffffff;stroke-width:1.0673;stroke-linejoin:round;stroke-miterlimit:4;stroke-dasharray:none;stroke-opacity:1;paint-order:markers fill stroke">
    <path
       id="path13005"
       style="fill:#000000;fill-opacity:1;fill-rule:evenodd;stroke:#ffffff;stroke-width:1.0673;stroke-linejoin:round;stroke-miterlimit:4;stroke-dasharray:none;stroke-opacity:1;paint-order:markers fill stroke"
       d="M 74.996237,145.16038 94.463491,105.42848 92.55251,98.760664 81.739661,111.05831 c -3.423265,3.02458 -8.585663,-2.16532 -5.196769,-5.55421 L 95.72831,83.472822 c 2.124074,-1.477908 3.058943,-2.014086 5.18989,-3.134552 2.41279,-1.113599 2.92147,-0.934863 5.1899,1.120466 l 17.16446,17.301928 c 0.61178,0.653039 0.82487,0.508679 1.07922,1.986596 v 8.61316 c 0,3.74635 -7.10089,3.71198 -7.14212,-0.0756 l 0.10997,-6.05602 -6.34472,-6.124761 -2.52277,7.245231 c 5.36862,14.27736 9.73362,27.21428 15.06788,41.49852 2.41965,6.73655 -5.83606,10.02233 -9.15622,3.492 l -13.37685,-35.54562 c -5.98041,12.22204 -11.31466,23.79103 -17.336309,35.97868 -3.423265,6.31036 -11.933315,1.44354 -8.654404,-4.61247" />
    <path
       id="path13013"
       style="fill:#000000;fill-opacity:1;fill-rule:evenodd;stroke:#ffffff;stroke-width:1.0673;stroke-linejoin:round;stroke-miterlimit:4;stroke-dasharray:none;stroke-opacity:1;paint-order:markers fill stroke"
       d="m 96.340095,65.33913 c 3.567623,0 6.454715,2.921462 6.454715,6.489087 0,3.567619 -2.887092,6.48908 -6.454715,6.48908 -3.567623,0 -6.489086,-2.921461 -6.489086,-6.48908 0,-3.567625 2.921463,-6.489087 6.489086,-6.489087" />
  </g>
</svg>
