<?xml version="1.0" encoding="UTF-8" standalone="no"?>
<!-- Created with Inkscape (http://www.inkscape.org/) -->

<svg
   xmlns:dc="http://purl.org/dc/elements/1.1/"
   xmlns:cc="http://creativecommons.org/ns#"
   xmlns:rdf="http://www.w3.org/1999/02/22-rdf-syntax-ns#"
   xmlns:svg="http://www.w3.org/2000/svg"
   xmlns="http://www.w3.org/2000/svg"
   xmlns:sodipodi="http://sodipodi.sourceforge.net/DTD/sodipodi-0.dtd"
   xmlns:inkscape="http://www.inkscape.org/namespaces/inkscape"
   version="1.0"
   width="834.08563"
   height="734.98938"
   id="svg2"
   sodipodi:version="0.32"
   inkscape:version="0.47 r22583"
   sodipodi:docname="ZZ.svg"
   inkscape:output_extension="org.inkscape.output.svg.inkscape">
  <metadata
     id="metadata12">
    <rdf:RDF>
      <cc:Work
         rdf:about="">
        <dc:format>image/svg+xml</dc:format>
        <dc:type
           rdf:resource="http://purl.org/dc/dcmitype/StillImage" />
        <dc:title />
      </cc:Work>
    </rdf:RDF>
  </metadata>
  <sodipodi:namedview
     inkscape:window-height="1003"
     inkscape:window-width="1280"
     inkscape:pageshadow="2"
     inkscape:pageopacity="0.0"
     guidetolerance="10.0"
     gridtolerance="10.0"
     objecttolerance="10.0"
     borderopacity="1.0"
     bordercolor="#666666"
     pagecolor="#ffffff"
     id="base"
     inkscape:zoom="0.29777052"
     inkscape:cx="744.63698"
     inkscape:cy="783.3695"
     inkscape:window-x="-4"
     inkscape:window-y="-4"
     inkscape:current-layer="svg2"
     width="200px"
     height="200px"
     showgrid="false"
     inkscape:showpageshadow="false"
     showguides="true"
     inkscape:guide-bbox="true"
     inkscape:window-maximized="0" />
  <defs
     id="defs4">
    <inkscape:perspective
       sodipodi:type="inkscape:persp3d"
       inkscape:vp_x="0 : 450 : 1"
       inkscape:vp_y="0 : 1000 : 0"
       inkscape:vp_z="900 : 450 : 1"
       inkscape:persp3d-origin="450 : 300 : 1"
       id="perspective10" />
  </defs>
  <path
     sodipodi:nodetypes="cscssssssc"
     id="path3084"
     d="M 454.97828,22.43 C 447.54398,9.5545 432.99948,1.5 417.04268,1.5 c -16.2469,0 -30.7968,8.495 -38.3717,21.6152 L 8.0043801,665.1866 c -7.9552,13.7802 -9.1331,31.1377 -0.6229,45.8778 8.1234999,14.0703 22.7545999,22.425 37.9044999,22.425 l 743.51342,0 c 15.1499,0 29.781,-8.3548 37.9045,-22.425 8.5102,-14.74 7.333,-32.098 -0.623,-45.8778 L 454.97828,22.43 z"
     style="fill:#ffffff;fill-opacity:1;fill-rule:nonzero;stroke:#000000;stroke-width:3;stroke-linecap:round;stroke-linejoin:round;stroke-miterlimit:2;stroke-opacity:1;stroke-dasharray:none;stroke-dashoffset:0" />
  <path
     style="fill:#d40000;fill-opacity:1;fill-rule:nonzero;stroke:none"
     d="m 417.05288,16.5053 c 10.9092,0 20.385,5.5528 24.9376,13.4375 l 371.09372,642.75 c 5.549,9.6109 6.2861,21.0698 0.625,30.875 -5.5096,9.5428 -15.2711,14.9062 -24.9063,14.9063 l -743.53122,0 c -9.6352,0 -19.3966,-5.3633 -24.9062,-14.9063 -5.6611,-9.8052 -4.924,-21.2631 0.625,-30.875 L 391.64668,30.6303 c 4.8181,-8.3452 14.3881,-14.125 25.4062,-14.125 z"
     id="path3092" />
  <path
     style="fill:#ffffff;fill-opacity:1;fill-rule:nonzero;stroke:none"
     d="m 417.02168,146.6928 283.93752,491.7813 -567.84372,0 283.9062,-491.7813 z"
     id="path3102" />
  <path
     style="fill:#000000;fill-opacity:1;fill-rule:evenodd;stroke:none"
     d="m 384.65695,460.28596 -1.04476,0.65298 -45.83917,29.38409 -100.55886,0 c -5.7378,0 -10.31707,4.70985 -10.31707,10.44767 l 0,5.09324 38.26461,0 0,44.40261 348.69111,0 0,-9.6641 -3.7873,-34.73851 0,-0.13039 0,-4.96264 c 0,-5.73782 -4.57924,-10.44767 -10.31706,-10.44767 l -246.56511,0 33.82434,-21.67893 22.07072,0 0,-8.35814 -23.24607,0 -1.17537,0 z m -115.31619,45.57798 64.38379,0 0,40.22354 -64.38379,0 0,-40.22354 z m 68.56286,0 64.51439,0 0,40.22354 -64.51439,0 0,-40.22354 z m 68.69346,0 64.38379,0 0,40.22354 -64.38379,0 0,-40.22354 z m 68.56285,0 64.3838,0 0,40.22354 -64.3838,0 0,-40.22354 z m 68.56286,0 62.16366,0 3.65668,40.22354 -65.82034,0 0,-40.22354 z m -321.78834,7.96635 -13.32078,36.43626 46.23095,0 0,-34.34672 0,-2.08954 -2.08953,0 -30.82065,0 z m 2.87311,4.17907 25.85799,0 0,28.07812 -36.17507,0 10.31707,-28.07812 z m -16.58568,40.74593 0,27.42514 60.07412,4.04847 c 0.4024,8.40741 7.29739,15.14913 15.80211,15.14913 6.85907,0 12.66824,-4.35313 14.88793,-10.44767 l 21.54833,0 c 2.21705,6.09956 8.02526,10.44767 14.88793,10.44767 8.28347,0 15.07246,-6.39498 15.80211,-14.49615 l 127.46162,0 c 0.71678,8.10113 7.38805,14.49615 15.67151,14.49615 6.85906,0 12.66826,-4.35313 14.88793,-10.44767 l 21.54833,0 c 2.21704,6.09956 8.02528,10.44767 14.88794,10.44767 8.28554,0 15.07536,-6.3921 15.8021,-14.49615 l 39.70116,0 c 8.09143,0 12.53717,-5.00468 12.53721,-11.88423 l 0,-20.24236 -405.50033,0 z"
     id="rect1932" />
</svg>
