<?xml version="1.0" encoding="UTF-8" standalone="no"?>
<!-- Created with Inkscape (http://www.inkscape.org/) -->

<svg
   xmlns:dc="http://purl.org/dc/elements/1.1/"
   xmlns:cc="http://creativecommons.org/ns#"
   xmlns:rdf="http://www.w3.org/1999/02/22-rdf-syntax-ns#"
   xmlns:svg="http://www.w3.org/2000/svg"
   xmlns="http://www.w3.org/2000/svg"
   xmlns:sodipodi="http://sodipodi.sourceforge.net/DTD/sodipodi-0.dtd"
   xmlns:inkscape="http://www.inkscape.org/namespaces/inkscape"
   version="1.0"
   width="834.08563"
   height="734.98938"
   id="svg2"
   sodipodi:version="0.32"
   inkscape:version="0.47 r22583"
   sodipodi:docname="ZZ.svg"
   inkscape:output_extension="org.inkscape.output.svg.inkscape">
  <metadata
     id="metadata12">
    <rdf:RDF>
      <cc:Work
         rdf:about="">
        <dc:format>image/svg+xml</dc:format>
        <dc:type
           rdf:resource="http://purl.org/dc/dcmitype/StillImage" />
      </cc:Work>
    </rdf:RDF>
  </metadata>
  <sodipodi:namedview
     inkscape:window-height="1003"
     inkscape:window-width="1280"
     inkscape:pageshadow="2"
     inkscape:pageopacity="0.0"
     guidetolerance="10.0"
     gridtolerance="10.0"
     objecttolerance="10.0"
     borderopacity="1.0"
     bordercolor="#666666"
     pagecolor="#ffffff"
     id="base"
     inkscape:zoom="0.31112698"
     inkscape:cx="7.0500181"
     inkscape:cy="150.04863"
     inkscape:window-x="-4"
     inkscape:window-y="-4"
     inkscape:current-layer="svg2"
     width="200px"
     height="200px"
     showgrid="false"
     inkscape:showpageshadow="false"
     inkscape:window-maximized="0" />
  <defs
     id="defs4">
    <inkscape:perspective
       sodipodi:type="inkscape:persp3d"
       inkscape:vp_x="0 : 450 : 1"
       inkscape:vp_y="0 : 1000 : 0"
       inkscape:vp_z="900 : 450 : 1"
       inkscape:persp3d-origin="450 : 300 : 1"
       id="perspective18" />
  </defs>
  <path
     sodipodi:nodetypes="cscssssssc"
     id="path3084"
     d="M 454.97828,22.43 C 447.54398,9.5545 432.99948,1.5 417.04268,1.5 c -16.2469,0 -30.7968,8.495 -38.3717,21.6152 L 8.0043801,665.1866 c -7.9552,13.7802 -9.1331,31.1377 -0.6229,45.8778 8.1234999,14.0703 22.7545999,22.425 37.9044999,22.425 l 743.51342,0 c 15.1499,0 29.781,-8.3548 37.9045,-22.425 8.5102,-14.74 7.333,-32.098 -0.623,-45.8778 L 454.97828,22.43 z"
     style="fill:#ffffff;fill-opacity:1;fill-rule:nonzero;stroke:#000000;stroke-width:3;stroke-linecap:round;stroke-linejoin:round;stroke-miterlimit:2;stroke-opacity:1;stroke-dasharray:none;stroke-dashoffset:0" />
  <path
     style="fill:#d40000;fill-opacity:1;fill-rule:nonzero;stroke:none"
     d="m 417.05288,16.5053 c 10.9092,0 20.385,5.5528 24.9376,13.4375 l 371.09372,642.75 c 5.549,9.6109 6.2861,21.0698 0.625,30.875 -5.5096,9.5428 -15.2711,14.9062 -24.9063,14.9063 l -743.53122,0 c -9.6352,0 -19.3966,-5.3633 -24.9062,-14.9063 -5.6611,-9.8052 -4.924,-21.2631 0.625,-30.875 L 391.64668,30.6303 c 4.8181,-8.3452 14.3881,-14.125 25.4062,-14.125 z"
     id="path3092" />
  <path
     style="fill:#ffffff;fill-opacity:1;fill-rule:nonzero;stroke:none"
     d="m 417.02168,146.6928 283.93752,491.7813 -567.84372,0 283.9062,-491.7813 z"
     id="path3102" />
  <path
     style="fill:#000000"
     d="m -402.43533,503.24107 c 0,0 0,0 0,0 z"
     id="path2835" />
  <path
     style="fill:#000000"
     d="m -405.40408,503.30357 0,0 z"
     id="path2833" />
  <g
     id="g2457"
     transform="translate(1038.0045,-82.5053)">
    <path
       id="path2440"
       d="m -702.29051,477.08571 c -12.9722,0 -23.45867,10.61679 -23.45867,23.589 0,12.97221 10.48648,23.45867 23.45867,23.45867 12.97221,0 23.58899,-10.48646 23.589,-23.45867 0,-12.97221 -10.61679,-23.589 -23.589,-23.589 z"
       style="fill:#000000;fill-opacity:1;fill-rule:evenodd;stroke:none" />
    <path
       id="path1888"
       d="m -672.83684,518.52937 c -8.15054,-0.56155 -16.14319,5.46614 -20.20052,12.51129 l -31.53889,53.82462 c -2.44722,4.17468 -1.04684,9.54278 3.12783,11.98999 4.17466,2.44721 9.54276,1.04686 11.98998,-3.12783 l 17.98499,-28.41105 18.37596,23.19802 -6.5163,19.02759 c -0.31342,2.70515 0.17576,5.17788 1.30326,7.42857 l -2.86717,8.86217 c -0.44316,1.29805 -0.62045,2.67208 -0.52131,4.0401 l 5.73435,63.59907 c 0.15242,3.76736 2.34,7.09032 5.73434,8.73184 3.39433,1.64157 7.50859,1.30743 10.5564,-0.91228 3.04782,-2.21967 4.56091,-5.90984 4.0401,-9.64412 l -5.47369,-61.2532 0.91229,-3.77945 c 3.94783,-0.50742 7.45226,-2.5888 9.25314,-7.03761 l 1.95489,-5.73434 3.64913,3.64913 c 2.45632,2.49838 5.6714,3.24843 8.99249,2.86717 l 11.72933,12.51129 c 3.1141,3.77895 8.47121,4.81756 12.77193,2.47619 l 34.53638,-18.50628 c 3.42438,-1.60541 5.67821,-4.95439 5.86467,-8.73184 0.1865,-3.77745 -1.70279,-7.31823 -4.95239,-9.25314 -3.24964,-1.93487 -7.32428,-1.96403 -10.5564,0 l -27.75943,14.5965 -5.604,-5.47369 c 1.57309,-4.08256 1.11038,-8.4379 -2.86717,-11.98998 l -16.03009,-16.5514 -5.47369,-28.67171 29.32332,10.94738 c 4.49856,1.79942 9.66923,-0.3235 11.46868,-4.82206 1.79942,-4.4986 -0.45382,-9.66927 -4.95238,-11.46869 L -669.31804,519.181 c -1.15844,-0.36587 -2.35444,-0.57139 -3.5188,-0.65163 z"
       style="fill:#000000;fill-opacity:1;fill-rule:evenodd;stroke:none" />
    <path
       id="path1886"
       d="m -538.86178,543.55195 c -1.01049,0.17282 -1.98166,0.52598 -2.86717,1.04261 l -34.92735,18.89726 -8.86217,-9.90477 c -3.16698,-3.52689 -8.59342,-3.81861 -12.12031,-0.65163 -3.52689,3.16698 -3.81861,8.59342 -0.65163,12.12031 l 13.42357,14.85716 c 2.63601,2.94474 6.94673,3.69909 10.42608,1.82457 l 16.42107,-8.86217 5.21304,15.89977 -9.77445,30.75692 5.08271,1.56391 -7.16792,24.89226 c -0.32467,1.14312 -0.41338,2.34032 -0.26066,3.5188 l 5.21304,41.57398 c 0.12366,3.29915 2.08359,6.30907 5.08271,7.68923 2.99913,1.38017 6.53661,0.87913 9.12282,-1.17293 2.58621,-2.05206 3.79013,-5.36718 3.12782,-8.60151 l -4.95238,-39.87974 7.94988,-27.36846 3.5188,-0.26065 13.81455,19.15792 c 2.2605,3.09896 6.27446,4.36656 9.90478,3.12782 l 35.31833,-11.59901 c 3.25398,-0.73141 5.86367,-3.27433 6.64662,-6.5163 0.783,-3.24196 -0.43601,-6.59591 -2.99749,-8.73184 -2.56152,-2.13592 -6.07436,-2.6561 -9.12282,-1.30326 l -29.32334,9.64413 -2.86717,-4.04011 6.5163,-3.5188 -15.89977,-29.32334 7.55891,-19.41857 4.30075,1.56391 6.25565,12.90227 c 1.22823,2.90917 4.023,4.92787 7.16793,5.21304 3.14488,0.28522 6.08803,-1.26902 7.81955,-3.90978 1.73148,-2.64076 1.90631,-5.96138 0.39098,-8.73184 l -7.81956,-16.03009 c -0.95219,-1.98391 -2.63262,-3.52435 -4.69173,-4.30076 l -31.79953,-11.59901 c -1.32512,-0.51805 -2.75858,-0.69721 -4.17044,-0.5213 z"
       style="fill:#000000;fill-opacity:1;fill-rule:evenodd;stroke:none" />
    <path
       id="path2444"
       d="m -751.03242,582.78006 -23.32834,38.31583 53.04266,31.92986 22.93737,-37.92485 -52.65169,-32.32084 z"
       style="fill:#000000;fill-opacity:1;fill-rule:evenodd;stroke:none" />
    <path
       id="path1898"
       d="m -480.08477,589.29636 -26.84715,8.73184 1.04261,19.93987 38.31583,-11.33836 -12.51129,-17.33335 z"
       style="fill:#000000;fill-opacity:1;fill-rule:evenodd;stroke:none" />
    <path
       id="path1894"
       d="m -538.89793,496.50428 c -11.97081,0 -21.76444,9.79363 -21.76444,21.76444 0,11.9708 9.79363,21.6341 21.76444,21.6341 6.61659,0 12.44227,-3.01267 16.42107,-7.68923 l 7.0376,4.43109 -8.60151,4.69173 10.94738,6.64662 0.26065,-9.77444 10.29575,6.38597 c 0.7395,0.68257 1.82056,0.80714 2.73684,0.39098 0.91629,-0.41617 1.46099,-1.33988 1.43359,-2.34587 -0.0275,-1.00599 -0.62632,-1.84992 -1.56391,-2.21554 l -10.5564,-6.5163 8.86216,-4.82206 -10.81705,-6.77695 -0.26066,10.16542 -7.0376,-4.30075 c 1.56049,-2.9937 2.4762,-6.29723 2.4762,-9.90477 0,-11.97081 -9.66331,-21.76444 -21.63411,-21.76444 z"
       style="fill:#000000;fill-opacity:1;fill-rule:evenodd;stroke:none" />
  </g>
</svg>
