<?xml version="1.0" encoding="UTF-8" standalone="no"?>
<!-- Created with Inkscape (http://www.inkscape.org/) -->

<svg
   xmlns:dc="http://purl.org/dc/elements/1.1/"
   xmlns:cc="http://creativecommons.org/ns#"
   xmlns:rdf="http://www.w3.org/1999/02/22-rdf-syntax-ns#"
   xmlns:svg="http://www.w3.org/2000/svg"
   xmlns="http://www.w3.org/2000/svg"
   xmlns:sodipodi="http://sodipodi.sourceforge.net/DTD/sodipodi-0.dtd"
   xmlns:inkscape="http://www.inkscape.org/namespaces/inkscape"
   width="199.99998"
   height="199.99998"
   id="svg2160"
   sodipodi:version="0.32"
   inkscape:version="0.47 r22583"
   version="1.0"
   sodipodi:docname="Italian_traffic_signs_-_Coda.svg"
   inkscape:output_extension="org.inkscape.output.svg.inkscape"
   sodipodi:modified="true">
  <defs
     id="defs2162">
    <inkscape:perspective
       sodipodi:type="inkscape:persp3d"
       inkscape:vp_x="0 : 99.999992 : 1"
       inkscape:vp_y="0 : 1000 : 0"
       inkscape:vp_z="199.99998 : 99.999992 : 1"
       inkscape:persp3d-origin="99.999992 : 66.666662 : 1"
       id="perspective78" />
  </defs>
  <sodipodi:namedview
     id="base"
     pagecolor="#ffffff"
     bordercolor="#666666"
     borderopacity="1.0"
     inkscape:pageopacity="0.0"
     inkscape:pageshadow="2"
     inkscape:zoom="1.8157504"
     inkscape:cx="143.68622"
     inkscape:cy="93.457205"
     inkscape:document-units="px"
     inkscape:current-layer="layer1"
     inkscape:window-width="1600"
     inkscape:window-height="838"
     inkscape:window-x="-8"
     inkscape:window-y="-8"
     showgrid="false"
     inkscape:window-maximized="1" />
  <metadata
     id="metadata2165">
    <rdf:RDF>
      <cc:Work
         rdf:about="">
        <dc:format>image/svg+xml</dc:format>
        <dc:type
           rdf:resource="http://purl.org/dc/dcmitype/StillImage" />
        <dc:title></dc:title>
        <dc:date>2007-04-04</dc:date>
        <dc:creator>
          <cc:Agent>
            <dc:title>Samuele Manfrin</dc:title>
          </cc:Agent>
        </dc:creator>
        <dc:language>IT</dc:language>
        <dc:description>Italian traffic signs. Segnali stradali italiani.
Indica la possibilità di incontrare traffico in lento movimento o fermo in colonna.
</dc:description>
        <dc:contributor>
          <cc:Agent>
            <dc:title>F_l_a_n_k_e_r (commons.wikimedia.com)</dc:title>
          </cc:Agent>
        </dc:contributor>
        <cc:license
           rdf:resource="http://web.resource.org/cc/PublicDomain" />
      </cc:Work>
      <cc:License
         rdf:about="http://web.resource.org/cc/PublicDomain">
        <cc:permits
           rdf:resource="http://web.resource.org/cc/Reproduction" />
        <cc:permits
           rdf:resource="http://web.resource.org/cc/Distribution" />
        <cc:permits
           rdf:resource="http://web.resource.org/cc/DerivativeWorks" />
      </cc:License>
    </rdf:RDF>
  </metadata>
  <g
     inkscape:label="Livello 1"
     inkscape:groupmode="layer"
     id="layer1"
     transform="translate(-276.72793,-315.15691)">
    <g
       id="g3857">
      <rect
         y="315.15689"
         x="276.72794"
         height="200"
         width="200"
         id="rect2227"
         style="fill:#ffffff;fill-opacity:1;stroke:none;stroke-width:0.80000001;stroke-miterlimit:4;stroke-dasharray:none;stroke-opacity:1" />
      <rect
         ry="14.291672"
         rx="14.291667"
         y="318.17767"
         x="279.74875"
         height="193.95839"
         width="193.95833"
         id="rectCornice"
         style="fill:none;stroke:#000000;stroke-width:2.04166722" />
      <g
         transform="matrix(0.56665011,0,0,0.56139258,237.3746,-16.381846)"
         id="g4431">
        <path
           d="m 323.49237,631.14844 c -2.00106,0.45929 -3.93625,1.65643 -4.57304,2.68837 l -5.81114,13.11566 5.61217,-0.80652 3.42333,-8.41465 c 0.72781,-1.90514 2.71788,-2.70704 4.90086,-2.88834 10.52909,-0.73982 21.07414,-0.72299 31.60308,-0.0114 2.18297,0.18159 4.13603,0.98945 4.86355,2.89467 l 3.44984,8.44152 5.60167,0.81996 -5.8246,-13.16593 c -0.72755,-1.17946 -3.09486,-2.53454 -5.38177,-2.80686 -6.5991,-0.56662 -12.96725,-0.8137 -19.12547,-0.80308 -6.15821,0.0106 -12.13344,0.27297 -17.90128,0.79473 -0.28587,0.034 -0.55132,0.0762 -0.8372,0.14184 z m -4.93422,16.68581 c -2.62559,0.47806 -5.24941,1.05368 -7.85593,1.69214 -0.60797,-3e-5 -1.13131,1.14585 -1.13144,2.53848 l -0.005,0.72287 12.82284,-0.006 c 0.4074,5e-5 0.72841,0.31056 0.72839,0.67087 l -0.0969,5.14319 c 1e-5,0.24951 -0.36282,0.45504 -0.76752,0.45504 l -12.66337,-0.0206 c 0,0 -0.0844,-0.64248 0.008,0.0348 0.18432,1.35445 0.4908,2.52162 1.09873,2.52162 l 64.62353,0.0259 c 0.60797,9e-5 1.0914,-1.1391 1.09154,-2.53174 l 0.0321,-0.0416 -12.40868,0.008 c -0.40475,0 -0.68198,-0.21269 -0.68198,-0.46212 l -0.0304,-5.15771 c 3e-5,-0.36033 0.3613,-0.63573 0.76872,-0.63572 l 12.32895,0.005 -0.003,-0.75765 c 1.2e-4,-1.39266 -0.49076,-2.52162 -1.09874,-2.52165 -11.11868,-2.52671 -22.09328,-3.81005 -32.86857,-3.81789 -8.08151,-0.006 -16.01449,0.7004 -23.89127,2.1346 z m 14.71261,4.58353 c 0.13791,-0.0518 0.27773,-0.0743 0.43854,-0.0743 l 17.83239,0.0113 c 0.6432,4e-5 1.18009,0.448 1.18005,1.02761 l -0.004,4.26095 c -5e-5,0.57959 -0.53423,1.02992 -1.17743,1.02984 l -17.82461,0.0236 c -0.64322,-9e-5 -1.14801,-0.48952 -1.14795,-1.0692 l 0.004,-4.26088 c 7e-5,-0.43471 0.28536,-0.7935 0.69904,-0.94882 z m -24.54834,10.15275 c -0.41234,0.12856 -0.69782,0.42259 -0.69786,0.76811 l 0.0247,2.34262 c -3e-5,0.46072 0.49236,0.78399 1.12589,0.78399 l 67.35529,0.0325 c 0.63348,0 1.14405,-0.34691 1.14413,-0.80764 l 0.0152,-2.34934 c 6e-5,-0.46072 -0.50789,-0.85354 -1.14135,-0.85363 l -67.38742,0.009 c -0.15837,-8e-5 -0.30109,0.0314 -0.43854,0.0743 z m 2.02255,5.00075 0.0103,5.81099 c -8e-5,1.11869 0.98306,1.99903 2.26493,1.99911 l 7.8609,0.004 c 1.28185,9e-5 2.32265,-0.89954 2.32273,-2.01822 l -0.003,-5.77627 -12.45629,-0.0195 z m 51.46626,0.0168 -0.0373,5.78298 c -10e-5,1.11869 1.02293,1.99222 2.3048,1.9923 l 7.8609,0.004 c 1.28181,9e-5 2.33038,-0.86471 2.33046,-1.9834 l -0.0103,-5.81108 -12.44857,0.0153 z"
           style="fill:#000000;fill-opacity:1;fill-rule:evenodd;stroke:none"
           id="path4433"
           sodipodi:nodetypes="ccccccccccccscccccccccccscccccccccccsccccccccccccccccccccccccccccccccccc" />
        <rect
           style="fill:#e30000;fill-opacity:1;stroke:none"
           id="rect4435"
           width="7.6159782"
           height="15.437793"
           x="-659.52185"
           y="361.75894"
           rx="3.8079891"
           ry="0.25458804"
           transform="matrix(0,-1,1,0,0,0)" />
        <rect
           style="fill:#e30000;fill-opacity:1;stroke:none"
           id="rect4437"
           width="7.6159782"
           height="15.437793"
           x="-659.52185"
           y="308.75589"
           rx="3.8079891"
           ry="0.25458804"
           transform="matrix(0,-1,1,0,0,0)" />
      </g>
      <g
         transform="matrix(0.58410832,0,0,0.57868871,176.45662,-28.063393)"
         id="g4439">
        <path
           d="m 323.49237,631.14844 c -2.00106,0.45929 -3.93625,1.65643 -4.57304,2.68837 l -5.81114,13.11566 5.61217,-0.80652 3.42333,-8.41465 c 0.72781,-1.90514 2.71788,-2.70704 4.90086,-2.88834 10.52909,-0.73982 21.07414,-0.72299 31.60308,-0.0114 2.18297,0.18159 4.13603,0.98945 4.86355,2.89467 l 3.44984,8.44152 5.60167,0.81996 -5.8246,-13.16593 c -0.72755,-1.17946 -3.09486,-2.53454 -5.38177,-2.80686 -6.5991,-0.56662 -12.96725,-0.8137 -19.12547,-0.80308 -6.15821,0.0106 -12.13344,0.27297 -17.90128,0.79473 -0.28587,0.034 -0.55132,0.0762 -0.8372,0.14184 z m -4.93422,16.68581 c -2.62559,0.47806 -5.24941,1.05368 -7.85593,1.69214 -0.60797,-3e-5 -1.13131,1.14585 -1.13144,2.53848 l -0.005,0.72287 12.82284,-0.006 c 0.4074,5e-5 0.72841,0.31056 0.72839,0.67087 l -0.0969,5.14319 c 1e-5,0.24951 -0.36282,0.45504 -0.76752,0.45504 l -12.66337,-0.0206 c 0,0 -0.0844,-0.64248 0.008,0.0348 0.18432,1.35445 0.4908,2.52162 1.09873,2.52162 l 64.62353,0.0259 c 0.60797,9e-5 1.0914,-1.1391 1.09154,-2.53174 l 0.0321,-0.0416 -12.40868,0.008 c -0.40475,0 -0.68198,-0.21269 -0.68198,-0.46212 l -0.0304,-5.15771 c 3e-5,-0.36033 0.3613,-0.63573 0.76872,-0.63572 l 12.32895,0.005 -0.003,-0.75765 c 1.2e-4,-1.39266 -0.49076,-2.52162 -1.09874,-2.52165 -11.11868,-2.52671 -22.09328,-3.81005 -32.86857,-3.81789 -8.08151,-0.006 -16.01449,0.7004 -23.89127,2.1346 z m 14.71261,4.58353 c 0.13791,-0.0518 0.27773,-0.0743 0.43854,-0.0743 l 17.83239,0.0113 c 0.6432,4e-5 1.18009,0.448 1.18005,1.02761 l -0.004,4.26095 c -5e-5,0.57959 -0.53423,1.02992 -1.17743,1.02984 l -17.82461,0.0236 c -0.64322,-9e-5 -1.14801,-0.48952 -1.14795,-1.0692 l 0.004,-4.26088 c 7e-5,-0.43471 0.28536,-0.7935 0.69904,-0.94882 z m -24.54834,10.15275 c -0.41234,0.12856 -0.69782,0.42259 -0.69786,0.76811 l 0.0247,2.34262 c -3e-5,0.46072 0.49236,0.78399 1.12589,0.78399 l 67.35529,0.0325 c 0.63348,0 1.14405,-0.34691 1.14413,-0.80764 l 0.0152,-2.34934 c 6e-5,-0.46072 -0.50789,-0.85354 -1.14135,-0.85363 l -67.38742,0.009 c -0.15837,-8e-5 -0.30109,0.0314 -0.43854,0.0743 z m 2.02255,5.00075 0.0103,5.81099 c -8e-5,1.11869 0.98306,1.99903 2.26493,1.99911 l 7.8609,0.004 c 1.28185,9e-5 2.32265,-0.89954 2.32273,-2.01822 l -0.003,-5.77627 -12.45629,-0.0195 z m 51.46626,0.0168 -0.0373,5.78298 c -10e-5,1.11869 1.02293,1.99222 2.3048,1.9923 l 7.8609,0.004 c 1.28181,9e-5 2.33038,-0.86471 2.33046,-1.9834 l -0.0103,-5.81108 -12.44857,0.0153 z"
           style="fill:#000000;fill-opacity:1;fill-rule:evenodd;stroke:none"
           id="path4441"
           sodipodi:nodetypes="ccccccccccccscccccccccccscccccccccccsccccccccccccccccccccccccccccccccccc" />
        <rect
           style="fill:#e30000;fill-opacity:1;stroke:none"
           id="rect4443"
           width="7.6159782"
           height="15.437793"
           x="-659.52185"
           y="361.75894"
           rx="3.8079891"
           ry="0.25458804"
           transform="matrix(0,-1,1,0,0,0)" />
        <rect
           style="fill:#e30000;fill-opacity:1;stroke:none"
           id="rect4445"
           width="7.6159782"
           height="15.437793"
           x="-659.52185"
           y="308.75589"
           rx="3.8079891"
           ry="0.25458804"
           transform="matrix(0,-1,1,0,0,0)" />
      </g>
      <g
         transform="matrix(0.78960756,0,0,0.7896078,175.28946,-33.486107)"
         id="g5595">
        <path
           sodipodi:type="arc"
           style="fill:#ffffff;fill-opacity:1;stroke:none"
           id="path5597"
           sodipodi:cx="310.41989"
           sodipodi:cy="498.25565"
           sodipodi:rx="19.622213"
           sodipodi:ry="9.6343298"
           d="m 291.39342,500.61162 c -2.65009,-5.15935 3.72004,-10.39663 14.22806,-11.6978 10.50803,-1.30117 21.17479,1.8265 23.82488,6.98585 0.73144,1.424 0.79016,2.91126 0.17168,4.34812 l -19.19815,-1.99214 z"
           transform="matrix(1,0,0,1.1768915,1.0246187e-8,-85.106747)"
           sodipodi:start="2.8945479"
           sodipodi:end="6.491463" />
        <path
           d="m 295.77628,490.11669 c -1.50441,0.34209 -2.9593,1.23376 -3.43805,2.00238 l -4.36886,9.76897 4.21928,-0.60072 2.57368,-6.2675 c 0.54718,-1.41901 2.04333,-2.01629 3.68451,-2.15133 7.91586,-0.55104 15.84371,-0.53851 23.75946,-0.008 1.64117,0.13525 3.1095,0.73697 3.65645,2.15604 l 2.59362,6.28752 4.21138,0.61073 -4.37898,-9.80641 c -0.54698,-0.8785 -2.32674,-1.88781 -4.04606,-2.09064 -4.96126,-0.42204 -9.74888,-0.60607 -14.37868,-0.59816 -4.6298,0.008 -9.12202,0.20332 -13.45833,0.59194 -0.21492,0.0253 -0.41449,0.0568 -0.62942,0.10565 z m -3.70958,12.42813 c -1.97394,0.35607 -3.94655,0.78481 -5.90616,1.26036 -0.45707,-2e-5 -0.85053,0.85347 -0.85062,1.89074 l -0.003,0.53842 9.64032,-0.005 c 0.30628,4e-5 0.54762,0.23132 0.54761,0.49969 l -0.0729,3.83081 c 1e-5,0.18584 -0.27277,0.33893 -0.57702,0.33893 l -9.52043,-0.0153 c 0,0 -0.0635,-0.47854 0.006,0.0259 0.13857,1.00884 0.36899,1.87818 0.82603,1.87818 l 48.5845,0.0193 c 0.45708,7e-5 0.82053,-0.84844 0.82063,-1.88572 l 0.0242,-0.0309 -9.32895,0.006 c -0.30429,0 -0.51271,-0.15842 -0.51271,-0.3442 l -0.0229,-3.84163 c 2e-5,-0.26839 0.27163,-0.47351 0.57793,-0.47351 l 9.26901,0.004 -0.002,-0.56433 c 9e-5,-1.03729 -0.36896,-1.87818 -0.82604,-1.8782 -8.35912,-1.88198 -16.60991,-2.83785 -24.71086,-2.84369 -6.07575,-0.004 -12.03983,0.52168 -17.96165,1.58992 z m 11.06106,3.41396 c 0.10368,-0.0386 0.2088,-0.0554 0.32969,-0.0554 l 13.40654,0.008 c 0.48356,3e-5 0.8872,0.33369 0.88717,0.7654 l -0.003,3.17369 c -4e-5,0.4317 -0.40164,0.76712 -0.88521,0.76706 l -13.40068,0.0176 c -0.48358,-7e-5 -0.86309,-0.36461 -0.86304,-0.79638 l 0.003,-3.17364 c 5e-5,-0.32378 0.21454,-0.59102 0.52555,-0.70671 z m -18.45565,7.5621 c -0.31,0.0957 -0.52462,0.31476 -0.52465,0.57211 l 0.0186,1.74486 c -2e-5,0.34316 0.37016,0.58394 0.84645,0.58394 l 50.63826,0.0242 c 0.47626,0 0.86011,-0.25839 0.86017,-0.60156 l 0.0114,-1.74986 c 5e-5,-0.34316 -0.38183,-0.63575 -0.85807,-0.63581 l -50.66242,0.007 c -0.11906,-6e-5 -0.22636,0.0234 -0.3297,0.0553 z m 1.52057,3.72472 0.008,4.32821 c -6e-5,0.83324 0.73907,1.48894 1.70279,1.489 l 5.90989,0.003 c 0.9637,7e-5 1.74619,-0.67001 1.74625,-1.50324 l -0.002,-4.30235 -9.36474,-0.0145 z m 38.69276,0.0125 -0.0281,4.30735 c -7e-5,0.83324 0.76905,1.48387 1.73277,1.48393 l 5.90989,0.003 c 0.96368,6e-5 1.752,-0.64407 1.75206,-1.4773 l -0.008,-4.32828 -9.35894,0.0114 z"
           style="fill:#000000;fill-opacity:1;fill-rule:evenodd;stroke:none"
           id="path5599"
           sodipodi:nodetypes="ccccccccccccscccccccccccscccccccccccsccccccccccccccccccccccccccccccccccc" />
        <rect
           style="fill:#e30000;fill-opacity:1;stroke:none"
           id="rect5601"
           width="5.6726265"
           height="11.606259"
           x="-511.25012"
           y="324.54541"
           rx="2.8363132"
           ry="0.19140138"
           transform="matrix(0,-1,1,0,0,0)" />
        <rect
           style="fill:#e30000;fill-opacity:1;stroke:none"
           id="rect5603"
           width="5.6726265"
           height="11.606259"
           x="-511.25012"
           y="284.69727"
           rx="2.8363132"
           ry="0.19140138"
           transform="matrix(0,-1,1,0,0,0)" />
      </g>
      <g
         transform="matrix(0.78960756,0,0,0.7896078,118.07666,-33.486107)"
         id="g5605">
        <path
           sodipodi:type="arc"
           style="fill:#ffffff;fill-opacity:1;stroke:none"
           id="path5607"
           sodipodi:cx="310.41989"
           sodipodi:cy="498.25565"
           sodipodi:rx="19.622213"
           sodipodi:ry="9.6343298"
           d="m 291.39342,500.61162 c -2.65009,-5.15935 3.72004,-10.39663 14.22806,-11.6978 10.50803,-1.30117 21.17479,1.8265 23.82488,6.98585 0.73144,1.424 0.79016,2.91126 0.17168,4.34812 l -19.19815,-1.99214 z"
           transform="matrix(1,0,0,1.1768915,1.0246187e-8,-85.106747)"
           sodipodi:start="2.8945479"
           sodipodi:end="6.491463" />
        <path
           d="m 295.77628,490.11669 c -1.50441,0.34209 -2.9593,1.23376 -3.43805,2.00238 l -4.36886,9.76897 4.21928,-0.60072 2.57368,-6.2675 c 0.54718,-1.41901 2.04333,-2.01629 3.68451,-2.15133 7.91586,-0.55104 15.84371,-0.53851 23.75946,-0.008 1.64117,0.13525 3.1095,0.73697 3.65645,2.15604 l 2.59362,6.28752 4.21138,0.61073 -4.37898,-9.80641 c -0.54698,-0.8785 -2.32674,-1.88781 -4.04606,-2.09064 -4.96126,-0.42204 -9.74888,-0.60607 -14.37868,-0.59816 -4.6298,0.008 -9.12202,0.20332 -13.45833,0.59194 -0.21492,0.0253 -0.41449,0.0568 -0.62942,0.10565 z m -3.70958,12.42813 c -1.97394,0.35607 -3.94655,0.78481 -5.90616,1.26036 -0.45707,-2e-5 -0.85053,0.85347 -0.85062,1.89074 l -0.003,0.53842 9.64032,-0.005 c 0.30628,4e-5 0.54762,0.23132 0.54761,0.49969 l -0.0729,3.83081 c 1e-5,0.18584 -0.27277,0.33893 -0.57702,0.33893 l -9.52043,-0.0153 c 0,0 -0.0635,-0.47854 0.006,0.0259 0.13857,1.00884 0.36899,1.87818 0.82603,1.87818 l 48.5845,0.0193 c 0.45708,7e-5 0.82053,-0.84844 0.82063,-1.88572 l 0.0242,-0.0309 -9.32895,0.006 c -0.30429,0 -0.51271,-0.15842 -0.51271,-0.3442 l -0.0229,-3.84163 c 2e-5,-0.26839 0.27163,-0.47351 0.57793,-0.47351 l 9.26901,0.004 -0.002,-0.56433 c 9e-5,-1.03729 -0.36896,-1.87818 -0.82604,-1.8782 -8.35912,-1.88198 -16.60991,-2.83785 -24.71086,-2.84369 -6.07575,-0.004 -12.03983,0.52168 -17.96165,1.58992 z m 11.06106,3.41396 c 0.10368,-0.0386 0.2088,-0.0554 0.32969,-0.0554 l 13.40654,0.008 c 0.48356,3e-5 0.8872,0.33369 0.88717,0.7654 l -0.003,3.17369 c -4e-5,0.4317 -0.40164,0.76712 -0.88521,0.76706 l -13.40068,0.0176 c -0.48358,-7e-5 -0.86309,-0.36461 -0.86304,-0.79638 l 0.003,-3.17364 c 5e-5,-0.32378 0.21454,-0.59102 0.52555,-0.70671 z m -18.45565,7.5621 c -0.31,0.0957 -0.52462,0.31476 -0.52465,0.57211 l 0.0186,1.74486 c -2e-5,0.34316 0.37016,0.58394 0.84645,0.58394 l 50.63826,0.0242 c 0.47626,0 0.86011,-0.25839 0.86017,-0.60156 l 0.0114,-1.74986 c 5e-5,-0.34316 -0.38183,-0.63575 -0.85807,-0.63581 l -50.66242,0.007 c -0.11906,-6e-5 -0.22636,0.0234 -0.3297,0.0553 z m 1.52057,3.72472 0.008,4.32821 c -6e-5,0.83324 0.73907,1.48894 1.70279,1.489 l 5.90989,0.003 c 0.9637,7e-5 1.74619,-0.67001 1.74625,-1.50324 l -0.002,-4.30235 -9.36474,-0.0145 z m 38.69276,0.0125 -0.0281,4.30735 c -7e-5,0.83324 0.76905,1.48387 1.73277,1.48393 l 5.90989,0.003 c 0.96368,6e-5 1.752,-0.64407 1.75206,-1.4773 l -0.008,-4.32828 -9.35894,0.0114 z"
           style="fill:#000000;fill-opacity:1;fill-rule:evenodd;stroke:none"
           id="path5609"
           sodipodi:nodetypes="ccccccccccccscccccccccccscccccccccccsccccccccccccccccccccccccccccccccccc" />
        <rect
           style="fill:#e30000;fill-opacity:1;stroke:none"
           id="rect5611"
           width="5.6726265"
           height="11.606259"
           x="-511.25012"
           y="324.54541"
           rx="2.8363132"
           ry="0.19140138"
           transform="matrix(0,-1,1,0,0,0)" />
        <rect
           style="fill:#e30000;fill-opacity:1;stroke:none"
           id="rect5613"
           width="5.6726265"
           height="11.606259"
           x="-511.25012"
           y="284.69727"
           rx="2.8363132"
           ry="0.19140138"
           transform="matrix(0,-1,1,0,0,0)" />
      </g>
      <g
         transform="matrix(0.82549888,0,0,0.82549914,93.487641,-31.730565)"
         id="g5615">
        <path
           sodipodi:type="arc"
           style="fill:#ffffff;fill-opacity:1;stroke:none"
           id="path5617"
           sodipodi:cx="310.41989"
           sodipodi:cy="498.25565"
           sodipodi:rx="19.622213"
           sodipodi:ry="9.6343298"
           d="m 291.39342,500.61162 c -2.65009,-5.15935 3.72004,-10.39663 14.22806,-11.6978 10.50803,-1.30117 21.17479,1.8265 23.82488,6.98585 0.73144,1.424 0.79016,2.91126 0.17168,4.34812 l -19.19815,-1.99214 z"
           transform="matrix(1,0,0,1.1768915,1.0246187e-8,-85.106747)"
           sodipodi:start="2.8945479"
           sodipodi:end="6.491463" />
        <path
           d="m 295.77628,490.11669 c -1.50441,0.34209 -2.9593,1.23376 -3.43805,2.00238 l -4.36886,9.76897 4.21928,-0.60072 2.57368,-6.2675 c 0.54718,-1.41901 2.04333,-2.01629 3.68451,-2.15133 7.91586,-0.55104 15.84371,-0.53851 23.75946,-0.008 1.64117,0.13525 3.1095,0.73697 3.65645,2.15604 l 2.59362,6.28752 4.21138,0.61073 -4.37898,-9.80641 c -0.54698,-0.8785 -2.32674,-1.88781 -4.04606,-2.09064 -4.96126,-0.42204 -9.74888,-0.60607 -14.37868,-0.59816 -4.6298,0.008 -9.12202,0.20332 -13.45833,0.59194 -0.21492,0.0253 -0.41449,0.0568 -0.62942,0.10565 z m -3.70958,12.42813 c -1.97394,0.35607 -3.94655,0.78481 -5.90616,1.26036 -0.45707,-2e-5 -0.85053,0.85347 -0.85062,1.89074 l -0.003,0.53842 9.64032,-0.005 c 0.30628,4e-5 0.54762,0.23132 0.54761,0.49969 l -0.0729,3.83081 c 1e-5,0.18584 -0.27277,0.33893 -0.57702,0.33893 l -9.52043,-0.0153 c 0,0 -0.0635,-0.47854 0.006,0.0259 0.13857,1.00884 0.36899,1.87818 0.82603,1.87818 l 48.5845,0.0193 c 0.45708,7e-5 0.82053,-0.84844 0.82063,-1.88572 l 0.0242,-0.0309 -9.32895,0.006 c -0.30429,0 -0.51271,-0.15842 -0.51271,-0.3442 l -0.0229,-3.84163 c 2e-5,-0.26839 0.27163,-0.47351 0.57793,-0.47351 l 9.26901,0.004 -0.002,-0.56433 c 9e-5,-1.03729 -0.36896,-1.87818 -0.82604,-1.8782 -8.35912,-1.88198 -16.60991,-2.83785 -24.71086,-2.84369 -6.07575,-0.004 -12.03983,0.52168 -17.96165,1.58992 z m 11.06106,3.41396 c 0.10368,-0.0386 0.2088,-0.0554 0.32969,-0.0554 l 13.40654,0.008 c 0.48356,3e-5 0.8872,0.33369 0.88717,0.7654 l -0.003,3.17369 c -4e-5,0.4317 -0.40164,0.76712 -0.88521,0.76706 l -13.40068,0.0176 c -0.48358,-7e-5 -0.86309,-0.36461 -0.86304,-0.79638 l 0.003,-3.17364 c 5e-5,-0.32378 0.21454,-0.59102 0.52555,-0.70671 z m -18.45565,7.5621 c -0.31,0.0957 -0.52462,0.31476 -0.52465,0.57211 l 0.0186,1.74486 c -2e-5,0.34316 0.37016,0.58394 0.84645,0.58394 l 50.63826,0.0242 c 0.47626,0 0.86011,-0.25839 0.86017,-0.60156 l 0.0114,-1.74986 c 5e-5,-0.34316 -0.38183,-0.63575 -0.85807,-0.63581 l -50.66242,0.007 c -0.11906,-6e-5 -0.22636,0.0234 -0.3297,0.0553 z m 1.52057,3.72472 0.008,4.32821 c -6e-5,0.83324 0.73907,1.48894 1.70279,1.489 l 5.90989,0.003 c 0.9637,7e-5 1.74619,-0.67001 1.74625,-1.50324 l -0.002,-4.30235 -9.36474,-0.0145 z m 38.69276,0.0125 -0.0281,4.30735 c -7e-5,0.83324 0.76905,1.48387 1.73277,1.48393 l 5.90989,0.003 c 0.96368,6e-5 1.752,-0.64407 1.75206,-1.4773 l -0.008,-4.32828 -9.35894,0.0114 z"
           style="fill:#000000;fill-opacity:1;fill-rule:evenodd;stroke:none"
           id="path5619"
           sodipodi:nodetypes="ccccccccccccscccccccccccscccccccccccsccccccccccccccccccccccccccccccccccc" />
        <rect
           style="fill:#e30000;fill-opacity:1;stroke:none"
           id="rect5621"
           width="5.6726265"
           height="11.606259"
           x="-511.25012"
           y="324.54541"
           rx="2.8363132"
           ry="0.19140138"
           transform="matrix(0,-1,1,0,0,0)" />
        <rect
           style="fill:#e30000;fill-opacity:1;stroke:none"
           id="rect5623"
           width="5.6726265"
           height="11.606259"
           x="-511.25012"
           y="284.69727"
           rx="2.8363132"
           ry="0.19140138"
           transform="matrix(0,-1,1,0,0,0)" />
      </g>
      <g
         transform="matrix(1.2076289,0,0,1.2076293,-42.545228,-203.46519)"
         id="g5695">
        <path
           sodipodi:type="arc"
           style="fill:#ffffff;fill-opacity:1;stroke:none"
           id="path5697"
           sodipodi:cx="310.41989"
           sodipodi:cy="498.25565"
           sodipodi:rx="19.622213"
           sodipodi:ry="9.6343298"
           d="m 291.39342,500.61162 c -2.65009,-5.15935 3.72004,-10.39663 14.22806,-11.6978 10.50803,-1.30117 21.17479,1.8265 23.82488,6.98585 0.73144,1.424 0.79016,2.91126 0.17168,4.34812 l -19.19815,-1.99214 z"
           transform="matrix(1,0,0,1.1768915,1.0246187e-8,-85.106747)"
           sodipodi:start="2.8945479"
           sodipodi:end="6.491463" />
        <path
           d="m 295.77628,490.11669 c -1.50441,0.34209 -2.9593,1.23376 -3.43805,2.00238 l -4.36886,9.76897 4.21928,-0.60072 2.57368,-6.2675 c 0.54718,-1.41901 2.04333,-2.01629 3.68451,-2.15133 7.91586,-0.55104 15.84371,-0.53851 23.75946,-0.008 1.64117,0.13525 3.1095,0.73697 3.65645,2.15604 l 2.59362,6.28752 4.21138,0.61073 -4.37898,-9.80641 c -0.54698,-0.8785 -2.32674,-1.88781 -4.04606,-2.09064 -4.96126,-0.42204 -9.74888,-0.60607 -14.37868,-0.59816 -4.6298,0.008 -9.12202,0.20332 -13.45833,0.59194 -0.21492,0.0253 -0.41449,0.0568 -0.62942,0.10565 z m -3.70958,12.42813 c -1.97394,0.35607 -3.94655,0.78481 -5.90616,1.26036 -0.45707,-2e-5 -0.85053,0.85347 -0.85062,1.89074 l -0.003,0.53842 9.64032,-0.005 c 0.30628,4e-5 0.54762,0.23132 0.54761,0.49969 l -0.0729,3.83081 c 1e-5,0.18584 -0.27277,0.33893 -0.57702,0.33893 l -9.52043,-0.0153 c 0,0 -0.0635,-0.47854 0.006,0.0259 0.13857,1.00884 0.36899,1.87818 0.82603,1.87818 l 48.5845,0.0193 c 0.45708,7e-5 0.82053,-0.84844 0.82063,-1.88572 l 0.0242,-0.0309 -9.32895,0.006 c -0.30429,0 -0.51271,-0.15842 -0.51271,-0.3442 l -0.0229,-3.84163 c 2e-5,-0.26839 0.27163,-0.47351 0.57793,-0.47351 l 9.26901,0.004 -0.002,-0.56433 c 9e-5,-1.03729 -0.36896,-1.87818 -0.82604,-1.8782 -8.35912,-1.88198 -16.60991,-2.83785 -24.71086,-2.84369 -6.07575,-0.004 -12.03983,0.52168 -17.96165,1.58992 z m 11.06106,3.41396 c 0.10368,-0.0386 0.2088,-0.0554 0.32969,-0.0554 l 13.40654,0.008 c 0.48356,3e-5 0.8872,0.33369 0.88717,0.7654 l -0.003,3.17369 c -4e-5,0.4317 -0.40164,0.76712 -0.88521,0.76706 l -13.40068,0.0176 c -0.48358,-7e-5 -0.86309,-0.36461 -0.86304,-0.79638 l 0.003,-3.17364 c 5e-5,-0.32378 0.21454,-0.59102 0.52555,-0.70671 z m -18.45565,7.5621 c -0.31,0.0957 -0.52462,0.31476 -0.52465,0.57211 l 0.0186,1.74486 c -2e-5,0.34316 0.37016,0.58394 0.84645,0.58394 l 50.63826,0.0242 c 0.47626,0 0.86011,-0.25839 0.86017,-0.60156 l 0.0114,-1.74986 c 5e-5,-0.34316 -0.38183,-0.63575 -0.85807,-0.63581 l -50.66242,0.007 c -0.11906,-6e-5 -0.22636,0.0234 -0.3297,0.0553 z m 1.52057,3.72472 0.008,4.32821 c -6e-5,0.83324 0.73907,1.48894 1.70279,1.489 l 5.90989,0.003 c 0.9637,7e-5 1.74619,-0.67001 1.74625,-1.50324 l -0.002,-4.30235 -9.36474,-0.0145 z m 38.69276,0.0125 -0.0281,4.30735 c -7e-5,0.83324 0.76905,1.48387 1.73277,1.48393 l 5.90989,0.003 c 0.96368,6e-5 1.752,-0.64407 1.75206,-1.4773 l -0.008,-4.32828 -9.35894,0.0114 z"
           style="fill:#000000;fill-opacity:1;fill-rule:evenodd;stroke:none"
           id="path5699"
           sodipodi:nodetypes="ccccccccccccscccccccccccscccccccccccsccccccccccccccccccccccccccccccccccc" />
        <rect
           style="fill:#e30000;fill-opacity:1;stroke:none"
           id="rect5701"
           width="5.6726265"
           height="11.606259"
           x="-511.25012"
           y="324.54541"
           rx="2.8363132"
           ry="0.19140138"
           transform="matrix(0,-1,1,0,0,0)" />
        <rect
           style="fill:#e30000;fill-opacity:1;stroke:none"
           id="rect5703"
           width="5.6726265"
           height="11.606259"
           x="-511.25012"
           y="284.69727"
           rx="2.8363132"
           ry="0.19140138"
           transform="matrix(0,-1,1,0,0,0)" />
      </g>
      <g
         transform="matrix(0.82549888,0,0,0.82549914,145.57694,-31.730565)"
         id="g5705">
        <path
           sodipodi:type="arc"
           style="fill:#ffffff;fill-opacity:1;stroke:none"
           id="path5707"
           sodipodi:cx="310.41989"
           sodipodi:cy="498.25565"
           sodipodi:rx="19.622213"
           sodipodi:ry="9.6343298"
           d="m 291.39342,500.61162 c -2.65009,-5.15935 3.72004,-10.39663 14.22806,-11.6978 10.50803,-1.30117 21.17479,1.8265 23.82488,6.98585 0.73144,1.424 0.79016,2.91126 0.17168,4.34812 l -19.19815,-1.99214 z"
           transform="matrix(1,0,0,1.1768915,1.0246187e-8,-85.106747)"
           sodipodi:start="2.8945479"
           sodipodi:end="6.491463" />
        <path
           d="m 295.77628,490.11669 c -1.50441,0.34209 -2.9593,1.23376 -3.43805,2.00238 l -4.36886,9.76897 4.21928,-0.60072 2.57368,-6.2675 c 0.54718,-1.41901 2.04333,-2.01629 3.68451,-2.15133 7.91586,-0.55104 15.84371,-0.53851 23.75946,-0.008 1.64117,0.13525 3.1095,0.73697 3.65645,2.15604 l 2.59362,6.28752 4.21138,0.61073 -4.37898,-9.80641 c -0.54698,-0.8785 -2.32674,-1.88781 -4.04606,-2.09064 -4.96126,-0.42204 -9.74888,-0.60607 -14.37868,-0.59816 -4.6298,0.008 -9.12202,0.20332 -13.45833,0.59194 -0.21492,0.0253 -0.41449,0.0568 -0.62942,0.10565 z m -3.70958,12.42813 c -1.97394,0.35607 -3.94655,0.78481 -5.90616,1.26036 -0.45707,-2e-5 -0.85053,0.85347 -0.85062,1.89074 l -0.003,0.53842 9.64032,-0.005 c 0.30628,4e-5 0.54762,0.23132 0.54761,0.49969 l -0.0729,3.83081 c 1e-5,0.18584 -0.27277,0.33893 -0.57702,0.33893 l -9.52043,-0.0153 c 0,0 -0.0635,-0.47854 0.006,0.0259 0.13857,1.00884 0.36899,1.87818 0.82603,1.87818 l 48.5845,0.0193 c 0.45708,7e-5 0.82053,-0.84844 0.82063,-1.88572 l 0.0242,-0.0309 -9.32895,0.006 c -0.30429,0 -0.51271,-0.15842 -0.51271,-0.3442 l -0.0229,-3.84163 c 2e-5,-0.26839 0.27163,-0.47351 0.57793,-0.47351 l 9.26901,0.004 -0.002,-0.56433 c 9e-5,-1.03729 -0.36896,-1.87818 -0.82604,-1.8782 -8.35912,-1.88198 -16.60991,-2.83785 -24.71086,-2.84369 -6.07575,-0.004 -12.03983,0.52168 -17.96165,1.58992 z m 11.06106,3.41396 c 0.10368,-0.0386 0.2088,-0.0554 0.32969,-0.0554 l 13.40654,0.008 c 0.48356,3e-5 0.8872,0.33369 0.88717,0.7654 l -0.003,3.17369 c -4e-5,0.4317 -0.40164,0.76712 -0.88521,0.76706 l -13.40068,0.0176 c -0.48358,-7e-5 -0.86309,-0.36461 -0.86304,-0.79638 l 0.003,-3.17364 c 5e-5,-0.32378 0.21454,-0.59102 0.52555,-0.70671 z m -18.45565,7.5621 c -0.31,0.0957 -0.52462,0.31476 -0.52465,0.57211 l 0.0186,1.74486 c -2e-5,0.34316 0.37016,0.58394 0.84645,0.58394 l 50.63826,0.0242 c 0.47626,0 0.86011,-0.25839 0.86017,-0.60156 l 0.0114,-1.74986 c 5e-5,-0.34316 -0.38183,-0.63575 -0.85807,-0.63581 l -50.66242,0.007 c -0.11906,-6e-5 -0.22636,0.0234 -0.3297,0.0553 z m 1.52057,3.72472 0.008,4.32821 c -6e-5,0.83324 0.73907,1.48894 1.70279,1.489 l 5.90989,0.003 c 0.9637,7e-5 1.74619,-0.67001 1.74625,-1.50324 l -0.002,-4.30235 -9.36474,-0.0145 z m 38.69276,0.0125 -0.0281,4.30735 c -7e-5,0.83324 0.76905,1.48387 1.73277,1.48393 l 5.90989,0.003 c 0.96368,6e-5 1.752,-0.64407 1.75206,-1.4773 l -0.008,-4.32828 -9.35894,0.0114 z"
           style="fill:#000000;fill-opacity:1;fill-rule:evenodd;stroke:none"
           id="path5709"
           sodipodi:nodetypes="ccccccccccccscccccccccccscccccccccccsccccccccccccccccccccccccccccccccccc" />
        <rect
           style="fill:#e30000;fill-opacity:1;stroke:none"
           id="rect5711"
           width="5.6726265"
           height="11.606259"
           x="-511.25012"
           y="324.54541"
           rx="2.8363132"
           ry="0.19140138"
           transform="matrix(0,-1,1,0,0,0)" />
        <rect
           style="fill:#e30000;fill-opacity:1;stroke:none"
           id="rect5713"
           width="5.6726265"
           height="11.606259"
           x="-511.25012"
           y="284.69727"
           rx="2.8363132"
           ry="0.19140138"
           transform="matrix(0,-1,1,0,0,0)" />
      </g>
      <g
         transform="matrix(1.2076289,0,0,1.2076293,25.768568,-203.46519)"
         id="g5715">
        <path
           sodipodi:type="arc"
           style="fill:#ffffff;fill-opacity:1;stroke:none"
           id="path5717"
           sodipodi:cx="310.41989"
           sodipodi:cy="498.25565"
           sodipodi:rx="19.622213"
           sodipodi:ry="9.6343298"
           d="m 291.39342,500.61162 c -2.65009,-5.15935 3.72004,-10.39663 14.22806,-11.6978 10.50803,-1.30117 21.17479,1.8265 23.82488,6.98585 0.73144,1.424 0.79016,2.91126 0.17168,4.34812 l -19.19815,-1.99214 z"
           transform="matrix(1,0,0,1.1768915,1.0246187e-8,-85.106747)"
           sodipodi:start="2.8945479"
           sodipodi:end="6.491463" />
        <path
           d="m 295.77628,490.11669 c -1.50441,0.34209 -2.9593,1.23376 -3.43805,2.00238 l -4.36886,9.76897 4.21928,-0.60072 2.57368,-6.2675 c 0.54718,-1.41901 2.04333,-2.01629 3.68451,-2.15133 7.91586,-0.55104 15.84371,-0.53851 23.75946,-0.008 1.64117,0.13525 3.1095,0.73697 3.65645,2.15604 l 2.59362,6.28752 4.21138,0.61073 -4.37898,-9.80641 c -0.54698,-0.8785 -2.32674,-1.88781 -4.04606,-2.09064 -4.96126,-0.42204 -9.74888,-0.60607 -14.37868,-0.59816 -4.6298,0.008 -9.12202,0.20332 -13.45833,0.59194 -0.21492,0.0253 -0.41449,0.0568 -0.62942,0.10565 z m -3.70958,12.42813 c -1.97394,0.35607 -3.94655,0.78481 -5.90616,1.26036 -0.45707,-2e-5 -0.85053,0.85347 -0.85062,1.89074 l -0.003,0.53842 9.64032,-0.005 c 0.30628,4e-5 0.54762,0.23132 0.54761,0.49969 l -0.0729,3.83081 c 1e-5,0.18584 -0.27277,0.33893 -0.57702,0.33893 l -9.52043,-0.0153 c 0,0 -0.0635,-0.47854 0.006,0.0259 0.13857,1.00884 0.36899,1.87818 0.82603,1.87818 l 48.5845,0.0193 c 0.45708,7e-5 0.82053,-0.84844 0.82063,-1.88572 l 0.0242,-0.0309 -9.32895,0.006 c -0.30429,0 -0.51271,-0.15842 -0.51271,-0.3442 l -0.0229,-3.84163 c 2e-5,-0.26839 0.27163,-0.47351 0.57793,-0.47351 l 9.26901,0.004 -0.002,-0.56433 c 9e-5,-1.03729 -0.36896,-1.87818 -0.82604,-1.8782 -8.35912,-1.88198 -16.60991,-2.83785 -24.71086,-2.84369 -6.07575,-0.004 -12.03983,0.52168 -17.96165,1.58992 z m 11.06106,3.41396 c 0.10368,-0.0386 0.2088,-0.0554 0.32969,-0.0554 l 13.40654,0.008 c 0.48356,3e-5 0.8872,0.33369 0.88717,0.7654 l -0.003,3.17369 c -4e-5,0.4317 -0.40164,0.76712 -0.88521,0.76706 l -13.40068,0.0176 c -0.48358,-7e-5 -0.86309,-0.36461 -0.86304,-0.79638 l 0.003,-3.17364 c 5e-5,-0.32378 0.21454,-0.59102 0.52555,-0.70671 z m -18.45565,7.5621 c -0.31,0.0957 -0.52462,0.31476 -0.52465,0.57211 l 0.0186,1.74486 c -2e-5,0.34316 0.37016,0.58394 0.84645,0.58394 l 50.63826,0.0242 c 0.47626,0 0.86011,-0.25839 0.86017,-0.60156 l 0.0114,-1.74986 c 5e-5,-0.34316 -0.38183,-0.63575 -0.85807,-0.63581 l -50.66242,0.007 c -0.11906,-6e-5 -0.22636,0.0234 -0.3297,0.0553 z m 1.52057,3.72472 0.008,4.32821 c -6e-5,0.83324 0.73907,1.48894 1.70279,1.489 l 5.90989,0.003 c 0.9637,7e-5 1.74619,-0.67001 1.74625,-1.50324 l -0.002,-4.30235 -9.36474,-0.0145 z m 38.69276,0.0125 -0.0281,4.30735 c -7e-5,0.83324 0.76905,1.48387 1.73277,1.48393 l 5.90989,0.003 c 0.96368,6e-5 1.752,-0.64407 1.75206,-1.4773 l -0.008,-4.32828 -9.35894,0.0114 z"
           style="fill:#000000;fill-opacity:1;fill-rule:evenodd;stroke:none"
           id="path5719"
           sodipodi:nodetypes="ccccccccccccscccccccccccscccccccccccsccccccccccccccccccccccccccccccccccc" />
        <rect
           style="fill:#e30000;fill-opacity:1;stroke:none"
           id="rect5721"
           width="5.6726265"
           height="11.606259"
           x="-511.25012"
           y="324.54541"
           rx="2.8363132"
           ry="0.19140138"
           transform="matrix(0,-1,1,0,0,0)" />
        <rect
           style="fill:#e30000;fill-opacity:1;stroke:none"
           id="rect5723"
           width="5.6726265"
           height="11.606259"
           x="-511.25012"
           y="284.69727"
           rx="2.8363132"
           ry="0.19140138"
           transform="matrix(0,-1,1,0,0,0)" />
      </g>
      <g
         id="g2981"
         transform="translate(-4.2032667,-67.800516)">
        <g
           id="g2983">
          <rect
             transform="matrix(0,-1,1,0,0,0)"
             ry="0.23114184"
             rx="3.425215"
             y="305.85495"
             x="-481.89249"
             height="14.016054"
             width="6.85043"
             id="rect2985"
             style="fill:#e30000;fill-opacity:1;stroke:none" />
        </g>
        <path
           style="fill:none;stroke:#000000;stroke-width:1px;stroke-linecap:butt;stroke-linejoin:miter;stroke-opacity:1"
           d="m 44.225674,163.63259 -15.35106,-0.18274"
           id="path2987"
           transform="translate(276.72793,315.15691)"
           sodipodi:nodetypes="cc" />
      </g>
      <g
         transform="matrix(1.2076289,0,0,1.2076293,-57.915842,-179.55535)"
         id="g5725">
        <path
           sodipodi:type="arc"
           style="fill:#ffffff;fill-opacity:1;stroke:none"
           id="path5727"
           sodipodi:cx="310.41989"
           sodipodi:cy="498.25565"
           sodipodi:rx="19.622213"
           sodipodi:ry="9.6343298"
           d="m 291.39342,500.61162 c -2.65009,-5.15935 3.72004,-10.39663 14.22806,-11.6978 10.50803,-1.30117 21.17479,1.8265 23.82488,6.98585 0.73144,1.424 0.79016,2.91126 0.17168,4.34812 l -19.19815,-1.99214 z"
           transform="matrix(1,0,0,1.1768915,1.0246187e-8,-85.106747)"
           sodipodi:start="2.8945479"
           sodipodi:end="6.491463" />
        <path
           d="m 295.77628,490.11669 c -1.50441,0.34209 -2.9593,1.23376 -3.43805,2.00238 l -4.36886,9.76897 4.21928,-0.60072 2.57368,-6.2675 c 0.54718,-1.41901 2.04333,-2.01629 3.68451,-2.15133 7.91586,-0.55104 15.84371,-0.53851 23.75946,-0.008 1.64117,0.13525 3.1095,0.73697 3.65645,2.15604 l 2.59362,6.28752 4.21138,0.61073 -4.37898,-9.80641 c -0.54698,-0.8785 -2.32674,-1.88781 -4.04606,-2.09064 -4.96126,-0.42204 -9.74888,-0.60607 -14.37868,-0.59816 -4.6298,0.008 -9.12202,0.20332 -13.45833,0.59194 -0.21492,0.0253 -0.41449,0.0568 -0.62942,0.10565 z m -3.70958,12.42813 c -1.97394,0.35607 -3.94655,0.78481 -5.90616,1.26036 -0.45707,-2e-5 -0.85053,0.85347 -0.85062,1.89074 l -0.003,0.53842 9.64032,-0.005 c 0.30628,4e-5 0.54762,0.23132 0.54761,0.49969 l -0.0729,3.83081 c 1e-5,0.18584 -0.27277,0.33893 -0.57702,0.33893 l -9.52043,-0.0153 c 0,0 -0.0635,-0.47854 0.006,0.0259 0.13857,1.00884 0.36899,1.87818 0.82603,1.87818 l 48.5845,0.0193 c 0.45708,7e-5 0.82053,-0.84844 0.82063,-1.88572 l 0.0242,-0.0309 -9.32895,0.006 c -0.30429,0 -0.51271,-0.15842 -0.51271,-0.3442 l -0.0229,-3.84163 c 2e-5,-0.26839 0.27163,-0.47351 0.57793,-0.47351 l 9.26901,0.004 -0.002,-0.56433 c 9e-5,-1.03729 -0.36896,-1.87818 -0.82604,-1.8782 -8.35912,-1.88198 -16.60991,-2.83785 -24.71086,-2.84369 -6.07575,-0.004 -12.03983,0.52168 -17.96165,1.58992 z m 11.06106,3.41396 c 0.10368,-0.0386 0.2088,-0.0554 0.32969,-0.0554 l 13.40654,0.008 c 0.48356,3e-5 0.8872,0.33369 0.88717,0.7654 l -0.003,3.17369 c -4e-5,0.4317 -0.40164,0.76712 -0.88521,0.76706 l -13.40068,0.0176 c -0.48358,-7e-5 -0.86309,-0.36461 -0.86304,-0.79638 l 0.003,-3.17364 c 5e-5,-0.32378 0.21454,-0.59102 0.52555,-0.70671 z m -18.45565,7.5621 c -0.31,0.0957 -0.52462,0.31476 -0.52465,0.57211 l 0.0186,1.74486 c -2e-5,0.34316 0.37016,0.58394 0.84645,0.58394 l 50.63826,0.0242 c 0.47626,0 0.86011,-0.25839 0.86017,-0.60156 l 0.0114,-1.74986 c 5e-5,-0.34316 -0.38183,-0.63575 -0.85807,-0.63581 l -50.66242,0.007 c -0.11906,-6e-5 -0.22636,0.0234 -0.3297,0.0553 z m 1.52057,3.72472 0.008,4.32821 c -6e-5,0.83324 0.73907,1.48894 1.70279,1.489 l 5.90989,0.003 c 0.9637,7e-5 1.74619,-0.67001 1.74625,-1.50324 l -0.002,-4.30235 -9.36474,-0.0145 z m 38.69276,0.0125 -0.0281,4.30735 c -7e-5,0.83324 0.76905,1.48387 1.73277,1.48393 l 5.90989,0.003 c 0.96368,6e-5 1.752,-0.64407 1.75206,-1.4773 l -0.008,-4.32828 -9.35894,0.0114 z"
           style="fill:#000000;fill-opacity:1;fill-rule:evenodd;stroke:none"
           id="path5729"
           sodipodi:nodetypes="ccccccccccccscccccccccccscccccccccccsccccccccccccccccccccccccccccccccccc" />
        <rect
           style="fill:#e30000;fill-opacity:1;stroke:none"
           id="rect5731"
           width="5.6726265"
           height="11.606259"
           x="-511.25012"
           y="324.54541"
           rx="2.8363132"
           ry="0.19140138"
           transform="matrix(0,-1,1,0,0,0)" />
        <rect
           style="fill:#e30000;fill-opacity:1;stroke:none"
           id="rect5733"
           width="5.6726265"
           height="11.606259"
           x="-511.25012"
           y="284.69727"
           rx="2.8363132"
           ry="0.19140138"
           transform="matrix(0,-1,1,0,0,0)" />
      </g>
      <g
         transform="translate(63.962752,-68.166017)"
         id="g3045">
        <rect
           transform="matrix(0,-1,1,0,0,0)"
           ry="0.23114184"
           rx="3.425215"
           y="353.97672"
           x="-481.89249"
           height="14.016054"
           width="6.85043"
           id="rect3047"
           style="fill:#e30000;fill-opacity:1;stroke:none" />
        <path
           style="fill:none;stroke:#000000;stroke-width:1px;stroke-linecap:butt;stroke-linejoin:miter;stroke-opacity:1"
           d="m 367.8571,478.60675 -15.35106,-0.18274"
           id="path3049"
           sodipodi:nodetypes="cc" />
      </g>
      <g
         transform="matrix(1.2076289,0,0,1.2076293,33.453876,-179.55535)"
         id="g5735">
        <path
           sodipodi:type="arc"
           style="fill:#ffffff;fill-opacity:1;stroke:none"
           id="path5737"
           sodipodi:cx="310.41989"
           sodipodi:cy="498.25565"
           sodipodi:rx="19.622213"
           sodipodi:ry="9.6343298"
           d="m 291.39342,500.61162 c -2.65009,-5.15935 3.72004,-10.39663 14.22806,-11.6978 10.50803,-1.30117 21.17479,1.8265 23.82488,6.98585 0.73144,1.424 0.79016,2.91126 0.17168,4.34812 l -19.19815,-1.99214 z"
           transform="matrix(1,0,0,1.1768915,1.0246187e-8,-85.106747)"
           sodipodi:start="2.8945479"
           sodipodi:end="6.491463" />
        <path
           d="m 295.77628,490.11669 c -1.50441,0.34209 -2.9593,1.23376 -3.43805,2.00238 l -4.36886,9.76897 4.21928,-0.60072 2.57368,-6.2675 c 0.54718,-1.41901 2.04333,-2.01629 3.68451,-2.15133 7.91586,-0.55104 15.84371,-0.53851 23.75946,-0.008 1.64117,0.13525 3.1095,0.73697 3.65645,2.15604 l 2.59362,6.28752 4.21138,0.61073 -4.37898,-9.80641 c -0.54698,-0.8785 -2.32674,-1.88781 -4.04606,-2.09064 -4.96126,-0.42204 -9.74888,-0.60607 -14.37868,-0.59816 -4.6298,0.008 -9.12202,0.20332 -13.45833,0.59194 -0.21492,0.0253 -0.41449,0.0568 -0.62942,0.10565 z m -3.70958,12.42813 c -1.97394,0.35607 -3.94655,0.78481 -5.90616,1.26036 -0.45707,-2e-5 -0.85053,0.85347 -0.85062,1.89074 l -0.003,0.53842 9.64032,-0.005 c 0.30628,4e-5 0.54762,0.23132 0.54761,0.49969 l -0.0729,3.83081 c 1e-5,0.18584 -0.27277,0.33893 -0.57702,0.33893 l -9.52043,-0.0153 c 0,0 -0.0635,-0.47854 0.006,0.0259 0.13857,1.00884 0.36899,1.87818 0.82603,1.87818 l 48.5845,0.0193 c 0.45708,7e-5 0.82053,-0.84844 0.82063,-1.88572 l 0.0242,-0.0309 -9.32895,0.006 c -0.30429,0 -0.51271,-0.15842 -0.51271,-0.3442 l -0.0229,-3.84163 c 2e-5,-0.26839 0.27163,-0.47351 0.57793,-0.47351 l 9.26901,0.004 -0.002,-0.56433 c 9e-5,-1.03729 -0.36896,-1.87818 -0.82604,-1.8782 -8.35912,-1.88198 -16.60991,-2.83785 -24.71086,-2.84369 -6.07575,-0.004 -12.03983,0.52168 -17.96165,1.58992 z m 11.06106,3.41396 c 0.10368,-0.0386 0.2088,-0.0554 0.32969,-0.0554 l 13.40654,0.008 c 0.48356,3e-5 0.8872,0.33369 0.88717,0.7654 l -0.003,3.17369 c -4e-5,0.4317 -0.40164,0.76712 -0.88521,0.76706 l -13.40068,0.0176 c -0.48358,-7e-5 -0.86309,-0.36461 -0.86304,-0.79638 l 0.003,-3.17364 c 5e-5,-0.32378 0.21454,-0.59102 0.52555,-0.70671 z m -18.45565,7.5621 c -0.31,0.0957 -0.52462,0.31476 -0.52465,0.57211 l 0.0186,1.74486 c -2e-5,0.34316 0.37016,0.58394 0.84645,0.58394 l 50.63826,0.0242 c 0.47626,0 0.86011,-0.25839 0.86017,-0.60156 l 0.0114,-1.74986 c 5e-5,-0.34316 -0.38183,-0.63575 -0.85807,-0.63581 l -50.66242,0.007 c -0.11906,-6e-5 -0.22636,0.0234 -0.3297,0.0553 z m 1.52057,3.72472 0.008,4.32821 c -6e-5,0.83324 0.73907,1.48894 1.70279,1.489 l 5.90989,0.003 c 0.9637,7e-5 1.74619,-0.67001 1.74625,-1.50324 l -0.002,-4.30235 -9.36474,-0.0145 z m 38.69276,0.0125 -0.0281,4.30735 c -7e-5,0.83324 0.76905,1.48387 1.73277,1.48393 l 5.90989,0.003 c 0.96368,6e-5 1.752,-0.64407 1.75206,-1.4773 l -0.008,-4.32828 -9.35894,0.0114 z"
           style="fill:#000000;fill-opacity:1;fill-rule:evenodd;stroke:none"
           id="path5739"
           sodipodi:nodetypes="ccccccccccccscccccccccccscccccccccccsccccccccccccccccccccccccccccccccccc" />
        <rect
           style="fill:#e30000;fill-opacity:1;stroke:none"
           id="rect5741"
           width="5.6726265"
           height="11.606259"
           x="-511.25012"
           y="324.54541"
           rx="2.8363132"
           ry="0.19140138"
           transform="matrix(0,-1,1,0,0,0)" />
        <rect
           style="fill:#e30000;fill-opacity:1;stroke:none"
           id="rect5743"
           width="5.6726265"
           height="11.606259"
           x="-511.25012"
           y="284.69727"
           rx="2.8363132"
           ry="0.19140138"
           transform="matrix(0,-1,1,0,0,0)" />
      </g>
      <g
         transform="translate(-19.737077,-44.042923)"
         id="g2993">
        <rect
           transform="matrix(0,-1,1,0,0,0)"
           ry="0.23114184"
           rx="3.425215"
           y="353.97672"
           x="-481.89249"
           height="14.016054"
           width="6.85043"
           id="rect2995"
           style="fill:#e30000;fill-opacity:1;stroke:none" />
        <path
           style="fill:none;stroke:#000000;stroke-width:1px;stroke-linecap:butt;stroke-linejoin:miter;stroke-opacity:1"
           d="m 367.8571,478.60675 -15.35106,-0.18274"
           id="path2997"
           sodipodi:nodetypes="cc" />
      </g>
      <g
         transform="matrix(1.2076289,0,0,1.2076293,-46.814848,-154.66551)"
         id="g5745">
        <path
           sodipodi:type="arc"
           style="fill:#ffffff;fill-opacity:1;stroke:none"
           id="path5747"
           sodipodi:cx="310.41989"
           sodipodi:cy="498.25565"
           sodipodi:rx="19.622213"
           sodipodi:ry="9.6343298"
           d="m 291.39342,500.61162 c -2.65009,-5.15935 3.72004,-10.39663 14.22806,-11.6978 10.50803,-1.30117 21.17479,1.8265 23.82488,6.98585 0.73144,1.424 0.79016,2.91126 0.17168,4.34812 l -19.19815,-1.99214 z"
           transform="matrix(1,0,0,1.1768915,1.0246187e-8,-85.106747)"
           sodipodi:start="2.8945479"
           sodipodi:end="6.491463" />
        <path
           d="m 295.77628,490.11669 c -1.50441,0.34209 -2.9593,1.23376 -3.43805,2.00238 l -4.36886,9.76897 4.21928,-0.60072 2.57368,-6.2675 c 0.54718,-1.41901 2.04333,-2.01629 3.68451,-2.15133 7.91586,-0.55104 15.84371,-0.53851 23.75946,-0.008 1.64117,0.13525 3.1095,0.73697 3.65645,2.15604 l 2.59362,6.28752 4.21138,0.61073 -4.37898,-9.80641 c -0.54698,-0.8785 -2.32674,-1.88781 -4.04606,-2.09064 -4.96126,-0.42204 -9.74888,-0.60607 -14.37868,-0.59816 -4.6298,0.008 -9.12202,0.20332 -13.45833,0.59194 -0.21492,0.0253 -0.41449,0.0568 -0.62942,0.10565 z m -3.70958,12.42813 c -1.97394,0.35607 -3.94655,0.78481 -5.90616,1.26036 -0.45707,-2e-5 -0.85053,0.85347 -0.85062,1.89074 l -0.003,0.53842 9.64032,-0.005 c 0.30628,4e-5 0.54762,0.23132 0.54761,0.49969 l -0.0729,3.83081 c 1e-5,0.18584 -0.27277,0.33893 -0.57702,0.33893 l -9.52043,-0.0153 c 0,0 -0.0635,-0.47854 0.006,0.0259 0.13857,1.00884 0.36899,1.87818 0.82603,1.87818 l 48.5845,0.0193 c 0.45708,7e-5 0.82053,-0.84844 0.82063,-1.88572 l 0.0242,-0.0309 -9.32895,0.006 c -0.30429,0 -0.51271,-0.15842 -0.51271,-0.3442 l -0.0229,-3.84163 c 2e-5,-0.26839 0.27163,-0.47351 0.57793,-0.47351 l 9.26901,0.004 -0.002,-0.56433 c 9e-5,-1.03729 -0.36896,-1.87818 -0.82604,-1.8782 -8.35912,-1.88198 -16.60991,-2.83785 -24.71086,-2.84369 -6.07575,-0.004 -12.03983,0.52168 -17.96165,1.58992 z m 11.06106,3.41396 c 0.10368,-0.0386 0.2088,-0.0554 0.32969,-0.0554 l 13.40654,0.008 c 0.48356,3e-5 0.8872,0.33369 0.88717,0.7654 l -0.003,3.17369 c -4e-5,0.4317 -0.40164,0.76712 -0.88521,0.76706 l -13.40068,0.0176 c -0.48358,-7e-5 -0.86309,-0.36461 -0.86304,-0.79638 l 0.003,-3.17364 c 5e-5,-0.32378 0.21454,-0.59102 0.52555,-0.70671 z m -18.45565,7.5621 c -0.31,0.0957 -0.52462,0.31476 -0.52465,0.57211 l 0.0186,1.74486 c -2e-5,0.34316 0.37016,0.58394 0.84645,0.58394 l 50.63826,0.0242 c 0.47626,0 0.86011,-0.25839 0.86017,-0.60156 l 0.0114,-1.74986 c 5e-5,-0.34316 -0.38183,-0.63575 -0.85807,-0.63581 l -50.66242,0.007 c -0.11906,-6e-5 -0.22636,0.0234 -0.3297,0.0553 z m 1.52057,3.72472 0.008,4.32821 c -6e-5,0.83324 0.73907,1.48894 1.70279,1.489 l 5.90989,0.003 c 0.9637,7e-5 1.74619,-0.67001 1.74625,-1.50324 l -0.002,-4.30235 -9.36474,-0.0145 z m 38.69276,0.0125 -0.0281,4.30735 c -7e-5,0.83324 0.76905,1.48387 1.73277,1.48393 l 5.90989,0.003 c 0.96368,6e-5 1.752,-0.64407 1.75206,-1.4773 l -0.008,-4.32828 -9.35894,0.0114 z"
           style="fill:#000000;fill-opacity:1;fill-rule:evenodd;stroke:none"
           id="path5749"
           sodipodi:nodetypes="ccccccccccccscccccccccccscccccccccccsccccccccccccccccccccccccccccccccccc" />
        <rect
           style="fill:#e30000;fill-opacity:1;stroke:none"
           id="rect5751"
           width="5.6726265"
           height="11.606259"
           x="-511.25012"
           y="324.54541"
           rx="2.8363132"
           ry="0.19140138"
           transform="matrix(0,-1,1,0,0,0)" />
        <rect
           style="fill:#e30000;fill-opacity:1;stroke:none"
           id="rect5753"
           width="5.6726265"
           height="11.606259"
           x="-511.25012"
           y="284.69727"
           rx="2.8363132"
           ry="0.19140138"
           transform="matrix(0,-1,1,0,0,0)" />
      </g>
      <g
         id="g3051"
         transform="translate(71.272781,-44.408424)">
        <rect
           style="fill:#e30000;fill-opacity:1;stroke:none"
           id="rect3053"
           width="6.85043"
           height="14.016054"
           x="-481.89249"
           y="353.97672"
           rx="3.425215"
           ry="0.23114184"
           transform="matrix(0,-1,1,0,0,0)" />
        <path
           sodipodi:nodetypes="cc"
           id="path3055"
           d="m 367.8571,478.60675 -15.35106,-0.18274"
           style="fill:none;stroke:#000000;stroke-width:1px;stroke-linecap:butt;stroke-linejoin:miter;stroke-opacity:1" />
      </g>
      <g
         transform="matrix(1.2076289,0,0,1.2076293,47.844482,-155.51943)"
         id="g5755">
        <path
           sodipodi:type="arc"
           style="fill:#ffffff;fill-opacity:1;stroke:none"
           id="path5757"
           sodipodi:cx="310.41989"
           sodipodi:cy="498.25565"
           sodipodi:rx="19.622213"
           sodipodi:ry="9.6343298"
           d="m 291.39342,500.61162 c -2.65009,-5.15935 3.72004,-10.39663 14.22806,-11.6978 10.50803,-1.30117 21.17479,1.8265 23.82488,6.98585 0.73144,1.424 0.79016,2.91126 0.17168,4.34812 l -19.19815,-1.99214 z"
           transform="matrix(1,0,0,1.1768915,1.0246187e-8,-85.106747)"
           sodipodi:start="2.8945479"
           sodipodi:end="6.491463" />
        <path
           d="m 295.77628,490.11669 c -1.50441,0.34209 -2.9593,1.23376 -3.43805,2.00238 l -4.36886,9.76897 4.21928,-0.60072 2.57368,-6.2675 c 0.54718,-1.41901 2.04333,-2.01629 3.68451,-2.15133 7.91586,-0.55104 15.84371,-0.53851 23.75946,-0.008 1.64117,0.13525 3.1095,0.73697 3.65645,2.15604 l 2.59362,6.28752 4.21138,0.61073 -4.37898,-9.80641 c -0.54698,-0.8785 -2.32674,-1.88781 -4.04606,-2.09064 -4.96126,-0.42204 -9.74888,-0.60607 -14.37868,-0.59816 -4.6298,0.008 -9.12202,0.20332 -13.45833,0.59194 -0.21492,0.0253 -0.41449,0.0568 -0.62942,0.10565 z m -3.70958,12.42813 c -1.97394,0.35607 -3.94655,0.78481 -5.90616,1.26036 -0.45707,-2e-5 -0.85053,0.85347 -0.85062,1.89074 l -0.003,0.53842 9.64032,-0.005 c 0.30628,4e-5 0.54762,0.23132 0.54761,0.49969 l -0.0729,3.83081 c 1e-5,0.18584 -0.27277,0.33893 -0.57702,0.33893 l -9.52043,-0.0153 c 0,0 -0.0635,-0.47854 0.006,0.0259 0.13857,1.00884 0.36899,1.87818 0.82603,1.87818 l 48.5845,0.0193 c 0.45708,7e-5 0.82053,-0.84844 0.82063,-1.88572 l 0.0242,-0.0309 -9.32895,0.006 c -0.30429,0 -0.51271,-0.15842 -0.51271,-0.3442 l -0.0229,-3.84163 c 2e-5,-0.26839 0.27163,-0.47351 0.57793,-0.47351 l 9.26901,0.004 -0.002,-0.56433 c 9e-5,-1.03729 -0.36896,-1.87818 -0.82604,-1.8782 -8.35912,-1.88198 -16.60991,-2.83785 -24.71086,-2.84369 -6.07575,-0.004 -12.03983,0.52168 -17.96165,1.58992 z m 11.06106,3.41396 c 0.10368,-0.0386 0.2088,-0.0554 0.32969,-0.0554 l 13.40654,0.008 c 0.48356,3e-5 0.8872,0.33369 0.88717,0.7654 l -0.003,3.17369 c -4e-5,0.4317 -0.40164,0.76712 -0.88521,0.76706 l -13.40068,0.0176 c -0.48358,-7e-5 -0.86309,-0.36461 -0.86304,-0.79638 l 0.003,-3.17364 c 5e-5,-0.32378 0.21454,-0.59102 0.52555,-0.70671 z m -18.45565,7.5621 c -0.31,0.0957 -0.52462,0.31476 -0.52465,0.57211 l 0.0186,1.74486 c -2e-5,0.34316 0.37016,0.58394 0.84645,0.58394 l 50.63826,0.0242 c 0.47626,0 0.86011,-0.25839 0.86017,-0.60156 l 0.0114,-1.74986 c 5e-5,-0.34316 -0.38183,-0.63575 -0.85807,-0.63581 l -50.66242,0.007 c -0.11906,-6e-5 -0.22636,0.0234 -0.3297,0.0553 z m 1.52057,3.72472 0.008,4.32821 c -6e-5,0.83324 0.73907,1.48894 1.70279,1.489 l 5.90989,0.003 c 0.9637,7e-5 1.74619,-0.67001 1.74625,-1.50324 l -0.002,-4.30235 -9.36474,-0.0145 z m 38.69276,0.0125 -0.0281,4.30735 c -7e-5,0.83324 0.76905,1.48387 1.73277,1.48393 l 5.90989,0.003 c 0.96368,6e-5 1.752,-0.64407 1.75206,-1.4773 l -0.008,-4.32828 -9.35894,0.0114 z"
           style="fill:#000000;fill-opacity:1;fill-rule:evenodd;stroke:none"
           id="path5759"
           sodipodi:nodetypes="ccccccccccccscccccccccccscccccccccccsccccccccccccccccccccccccccccccccccc" />
        <rect
           style="fill:#e30000;fill-opacity:1;stroke:none"
           id="rect5761"
           width="5.6726265"
           height="11.606259"
           x="-511.25012"
           y="324.54541"
           rx="2.8363132"
           ry="0.19140138"
           transform="matrix(0,-1,1,0,0,0)" />
        <rect
           style="fill:#e30000;fill-opacity:1;stroke:none"
           id="rect5763"
           width="5.6726265"
           height="11.606259"
           x="-511.25012"
           y="284.69727"
           rx="2.8363132"
           ry="0.19140138"
           transform="matrix(0,-1,1,0,0,0)" />
      </g>
      <path
         sodipodi:end="6.491463"
         sodipodi:start="2.8945479"
         transform="matrix(1.2076289,0,0,1.4212487,-37.953703,-238.28555)"
         d="m 291.39342,500.61162 a 19.622213,9.6343298 0 1 1 38.22462,-0.36383 l -19.19815,-1.99214 z"
         sodipodi:ry="9.6343298"
         sodipodi:rx="19.622213"
         sodipodi:cy="498.25565"
         sodipodi:cx="310.41989"
         id="path5777"
         style="fill:#ffffff;fill-opacity:1;stroke:none"
         sodipodi:type="arc" />
      <path
         sodipodi:nodetypes="ccccccccccccscccccccccccscccccccccccsccccccccccccccccccccccccccccccccccc"
         id="path5779"
         style="fill:#000000;fill-opacity:1;fill-rule:evenodd;stroke:none"
         d="m 319.23428,456.37113 c -1.81677,0.41311 -3.57374,1.48992 -4.15189,2.41813 l -5.27596,11.79729 5.09532,-0.72544 3.10806,-7.56882 c 0.66079,-1.71364 2.46758,-2.43493 4.44952,-2.59801 9.55942,-0.66545 19.13332,-0.65032 28.69261,-0.01 1.98192,0.16333 3.75512,0.88999 4.41563,2.6037 l 3.13213,7.59299 5.08579,0.73753 -5.28819,-11.8425 c -0.66055,-1.06091 -2.80984,-2.27978 -4.88614,-2.52472 -5.99136,-0.50967 -11.77303,-0.73191 -17.36411,-0.72236 -5.59108,0.01 -11.01601,0.24554 -16.25266,0.71485 -0.25955,0.0306 -0.50055,0.0686 -0.76011,0.12758 z m -4.4798,15.00857 c -2.38378,0.43 -4.76596,0.94776 -7.13244,1.52205 -0.55198,-3e-5 -1.02713,1.03067 -1.02724,2.28331 l -0.004,0.65021 11.64193,-0.006 c 0.36987,5e-5 0.66132,0.27935 0.66131,0.60344 l -0.088,4.6262 c 1e-5,0.22443 -0.3294,0.4093 -0.69682,0.4093 l -11.49715,-0.0185 c 0,0 -0.0767,-0.5779 0.007,0.0313 0.16735,1.21831 0.44561,2.26815 0.99754,2.26815 l 58.67205,0.0233 c 0.55198,8e-5 0.99089,-1.0246 0.99102,-2.27725 l 0.0292,-0.0373 -11.26591,0.007 c -0.36747,0 -0.61916,-0.19132 -0.61916,-0.41567 l -0.0277,-4.63926 c 3e-5,-0.32412 0.32803,-0.57183 0.69793,-0.57183 l 11.19352,0.005 -0.002,-0.6815 c 10e-5,-1.25266 -0.44557,-2.26815 -0.99755,-2.26817 -10.09472,-2.27273 -20.05861,-3.42707 -29.84155,-3.43412 -7.33725,-0.005 -14.53965,0.62999 -21.69101,1.92003 z m 13.35766,4.1228 c 0.12521,-0.0466 0.25215,-0.0669 0.39814,-0.0669 l 16.19013,0.01 c 0.58396,3e-5 1.07141,0.40297 1.07137,0.92432 l -0.004,3.83264 c -5e-5,0.52133 -0.48503,0.92639 -1.06901,0.92632 l -16.18305,0.0213 c -0.58398,-8e-5 -1.04229,-0.44031 -1.04223,-0.96173 l 0.004,-3.83258 c 6e-5,-0.391 0.25908,-0.71373 0.63466,-0.85344 z m -22.28758,9.13221 c -0.37436,0.11557 -0.63354,0.38011 -0.63358,0.6909 l 0.0225,2.10714 c -2e-5,0.41441 0.44702,0.70518 1.0222,0.70518 l 61.15223,0.0292 c 0.57514,0 1.03869,-0.31204 1.03876,-0.72646 l 0.0138,-2.11318 c 6e-5,-0.41441 -0.46111,-0.76775 -1.03623,-0.76783 l -61.1814,0.008 c -0.14378,-8e-5 -0.27336,0.0283 -0.39816,0.0668 z m 1.83629,4.49808 0.01,5.22688 c -7e-5,1.00624 0.89252,1.79808 2.05634,1.79816 l 7.13695,0.004 c 1.16379,8e-5 2.10875,-0.80913 2.10882,-1.81536 l -0.002,-5.19564 -11.30913,-0.0175 z m 46.72649,0.0151 -0.0339,5.20168 c -9e-5,1.00624 0.92873,1.79196 2.09254,1.79204 l 7.13696,0.004 c 1.16376,7e-5 2.11576,-0.7778 2.11583,-1.78403 l -0.01,-5.22696 -11.30212,0.0138 z" />
      <g
         transform="matrix(1.2076289,0,0,1.2076293,58.056672,-134.12222)"
         id="g5795">
        <path
           sodipodi:type="arc"
           style="fill:#ffffff;fill-opacity:1;stroke:none"
           id="path5797"
           sodipodi:cx="310.41989"
           sodipodi:cy="498.25565"
           sodipodi:rx="19.622213"
           sodipodi:ry="9.6343298"
           d="m 291.39342,500.61162 c -2.65009,-5.15935 3.72004,-10.39663 14.22806,-11.6978 10.50803,-1.30117 21.17479,1.8265 23.82488,6.98585 0.73144,1.424 0.79016,2.91126 0.17168,4.34812 l -19.19815,-1.99214 z"
           transform="matrix(1,0,0,1.1768915,1.0246187e-8,-85.106747)"
           sodipodi:start="2.8945479"
           sodipodi:end="6.491463" />
        <path
           d="m 295.77628,490.11669 c -1.50441,0.34209 -2.9593,1.23376 -3.43805,2.00238 l -4.36886,9.76897 4.21928,-0.60072 2.57368,-6.2675 c 0.54718,-1.41901 2.04333,-2.01629 3.68451,-2.15133 7.91586,-0.55104 15.84371,-0.53851 23.75946,-0.008 1.64117,0.13525 3.1095,0.73697 3.65645,2.15604 l 2.59362,6.28752 4.21138,0.61073 -4.37898,-9.80641 c -0.54698,-0.8785 -2.32674,-1.88781 -4.04606,-2.09064 -4.96126,-0.42204 -9.74888,-0.60607 -14.37868,-0.59816 -4.6298,0.008 -9.12202,0.20332 -13.45833,0.59194 -0.21492,0.0253 -0.41449,0.0568 -0.62942,0.10565 z m -3.70958,12.42813 c -1.97394,0.35607 -3.94655,0.78481 -5.90616,1.26036 -0.45707,-2e-5 -0.85053,0.85347 -0.85062,1.89074 l -0.003,0.53842 9.64032,-0.005 c 0.30628,4e-5 0.54762,0.23132 0.54761,0.49969 l -0.0729,3.83081 c 1e-5,0.18584 -0.27277,0.33893 -0.57702,0.33893 l -9.52043,-0.0153 c 0,0 -0.0635,-0.47854 0.006,0.0259 0.13857,1.00884 0.36899,1.87818 0.82603,1.87818 l 48.5845,0.0193 c 0.45708,7e-5 0.82053,-0.84844 0.82063,-1.88572 l 0.0242,-0.0309 -9.32895,0.006 c -0.30429,0 -0.51271,-0.15842 -0.51271,-0.3442 l -0.0229,-3.84163 c 2e-5,-0.26839 0.27163,-0.47351 0.57793,-0.47351 l 9.26901,0.004 -0.002,-0.56433 c 9e-5,-1.03729 -0.36896,-1.87818 -0.82604,-1.8782 -8.35912,-1.88198 -16.60991,-2.83785 -24.71086,-2.84369 -6.07575,-0.004 -12.03983,0.52168 -17.96165,1.58992 z m 11.06106,3.41396 c 0.10368,-0.0386 0.2088,-0.0554 0.32969,-0.0554 l 13.40654,0.008 c 0.48356,3e-5 0.8872,0.33369 0.88717,0.7654 l -0.003,3.17369 c -4e-5,0.4317 -0.40164,0.76712 -0.88521,0.76706 l -13.40068,0.0176 c -0.48358,-7e-5 -0.86309,-0.36461 -0.86304,-0.79638 l 0.003,-3.17364 c 5e-5,-0.32378 0.21454,-0.59102 0.52555,-0.70671 z m -18.45565,7.5621 c -0.31,0.0957 -0.52462,0.31476 -0.52465,0.57211 l 0.0186,1.74486 c -2e-5,0.34316 0.37016,0.58394 0.84645,0.58394 l 50.63826,0.0242 c 0.47626,0 0.86011,-0.25839 0.86017,-0.60156 l 0.0114,-1.74986 c 5e-5,-0.34316 -0.38183,-0.63575 -0.85807,-0.63581 l -50.66242,0.007 c -0.11906,-6e-5 -0.22636,0.0234 -0.3297,0.0553 z m 1.52057,3.72472 0.008,4.32821 c -6e-5,0.83324 0.73907,1.48894 1.70279,1.489 l 5.90989,0.003 c 0.9637,7e-5 1.74619,-0.67001 1.74625,-1.50324 l -0.002,-4.30235 -9.36474,-0.0145 z m 38.69276,0.0125 -0.0281,4.30735 c -7e-5,0.83324 0.76905,1.48387 1.73277,1.48393 l 5.90989,0.003 c 0.96368,6e-5 1.752,-0.64407 1.75206,-1.4773 l -0.008,-4.32828 -9.35894,0.0114 z"
           style="fill:#000000;fill-opacity:1;fill-rule:evenodd;stroke:none"
           id="path5799"
           sodipodi:nodetypes="ccccccccccccscccccccccccscccccccccccsccccccccccccccccccccccccccccccccccc" />
        <rect
           style="fill:#e30000;fill-opacity:1;stroke:none"
           id="rect5801"
           width="5.6726265"
           height="11.606259"
           x="-511.25012"
           y="324.54541"
           rx="2.8363132"
           ry="0.19140138"
           transform="matrix(0,-1,1,0,0,0)" />
        <rect
           style="fill:#e30000;fill-opacity:1;stroke:none"
           id="rect5803"
           width="5.6726265"
           height="11.606259"
           x="-511.25012"
           y="284.69727"
           rx="2.8363132"
           ry="0.19140138"
           transform="matrix(0,-1,1,0,0,0)" />
      </g>
      <g
         id="g2968">
        <g
           id="g2961">
          <rect
             transform="matrix(0,-1,1,0,0,0)"
             ry="0.23114184"
             rx="3.425215"
             y="305.85495"
             x="-481.89249"
             height="14.016054"
             width="6.85043"
             id="rect5783"
             style="fill:#e30000;fill-opacity:1;stroke:none" />
        </g>
        <path
           style="fill:none;stroke:#000000;stroke-width:1px;stroke-linecap:butt;stroke-linejoin:miter;stroke-opacity:1"
           d="m 44.225674,163.63259 -15.35106,-0.18274"
           id="path2953"
           transform="translate(276.72793,315.15691)"
           sodipodi:nodetypes="cc" />
      </g>
      <g
         id="g2989">
        <rect
           style="fill:#e30000;fill-opacity:1;stroke:none"
           id="rect5781"
           width="6.85043"
           height="14.016054"
           x="-481.89249"
           y="353.97672"
           rx="3.425215"
           ry="0.23114184"
           transform="matrix(0,-1,1,0,0,0)" />
        <path
           sodipodi:nodetypes="cc"
           id="path2955"
           d="m 367.8571,478.60675 -15.35106,-0.18274"
           style="fill:none;stroke:#000000;stroke-width:1px;stroke-linecap:butt;stroke-linejoin:miter;stroke-opacity:1" />
      </g>
      <g
         transform="translate(-8.406533,-19.188825)"
         id="g2973">
        <g
           id="g2975">
          <rect
             style="fill:#e30000;fill-opacity:1;stroke:none"
             id="rect2977"
             width="6.85043"
             height="14.016054"
             x="-481.89249"
             y="305.85495"
             rx="3.425215"
             ry="0.23114184"
             transform="matrix(0,-1,1,0,0,0)" />
        </g>
        <path
           sodipodi:nodetypes="cc"
           transform="translate(276.72793,315.15691)"
           id="path2979"
           d="m 44.225674,163.63259 -15.35106,-0.18274"
           style="fill:none;stroke:#000000;stroke-width:1px;stroke-linecap:butt;stroke-linejoin:miter;stroke-opacity:1" />
      </g>
      <g
         id="g2999"
         transform="translate(-4.5687675,-68.348768)">
        <rect
           style="fill:#e30000;fill-opacity:1;stroke:none"
           id="rect3001"
           width="6.85043"
           height="14.016054"
           x="-481.89249"
           y="353.97672"
           rx="3.425215"
           ry="0.23114184"
           transform="matrix(0,-1,1,0,0,0)" />
        <path
           sodipodi:nodetypes="cc"
           id="path3003"
           d="m 367.8571,478.60675 -15.35106,-0.18274"
           style="fill:none;stroke:#000000;stroke-width:1px;stroke-linecap:butt;stroke-linejoin:miter;stroke-opacity:1" />
      </g>
      <g
         transform="translate(-19.919828,-44.042923)"
         id="g3005">
        <g
           id="g3007">
          <rect
             style="fill:#e30000;fill-opacity:1;stroke:none"
             id="rect3009"
             width="6.85043"
             height="14.016054"
             x="-481.89249"
             y="305.85495"
             rx="3.425215"
             ry="0.23114184"
             transform="matrix(0,-1,1,0,0,0)" />
        </g>
        <path
           sodipodi:nodetypes="cc"
           transform="translate(276.72793,315.15691)"
           id="path3011"
           d="m 44.225674,163.63259 -15.35106,-0.18274"
           style="fill:none;stroke:#000000;stroke-width:1px;stroke-linecap:butt;stroke-linejoin:miter;stroke-opacity:1" />
      </g>
      <g
         id="g3013"
         transform="translate(96.492379,1.0965042)">
        <g
           id="g3015">
          <rect
             transform="matrix(0,-1,1,0,0,0)"
             ry="0.23114184"
             rx="3.425215"
             y="305.85495"
             x="-481.89249"
             height="14.016054"
             width="6.85043"
             id="rect3017"
             style="fill:#e30000;fill-opacity:1;stroke:none" />
        </g>
        <path
           style="fill:none;stroke:#000000;stroke-width:1px;stroke-linecap:butt;stroke-linejoin:miter;stroke-opacity:1"
           d="m 44.225674,163.63259 -15.35106,-0.18274"
           id="path3019"
           transform="translate(276.72793,315.15691)"
           sodipodi:nodetypes="cc" />
      </g>
      <g
         transform="translate(86.258339,-19.919828)"
         id="g3021">
        <g
           id="g3023">
          <rect
             style="fill:#e30000;fill-opacity:1;stroke:none"
             id="rect3025"
             width="6.85043"
             height="14.016054"
             x="-481.89249"
             y="305.85495"
             rx="3.425215"
             ry="0.23114184"
             transform="matrix(0,-1,1,0,0,0)" />
        </g>
        <path
           sodipodi:nodetypes="cc"
           transform="translate(276.72793,315.15691)"
           id="path3027"
           d="m 44.225674,163.63259 -15.35106,-0.18274"
           style="fill:none;stroke:#000000;stroke-width:1px;stroke-linecap:butt;stroke-linejoin:miter;stroke-opacity:1" />
      </g>
      <g
         id="g3029"
         transform="translate(71.821032,-43.860172)">
        <g
           id="g3031">
          <rect
             transform="matrix(0,-1,1,0,0,0)"
             ry="0.23114184"
             rx="3.425215"
             y="305.85495"
             x="-481.89249"
             height="14.016054"
             width="6.85043"
             id="rect3033"
             style="fill:#e30000;fill-opacity:1;stroke:none" />
        </g>
        <path
           style="fill:none;stroke:#000000;stroke-width:1px;stroke-linecap:butt;stroke-linejoin:miter;stroke-opacity:1"
           d="m 44.225674,163.63259 -15.35106,-0.18274"
           id="path3035"
           transform="translate(276.72793,315.15691)"
           sodipodi:nodetypes="cc" />
      </g>
      <g
         transform="translate(63.962751,-67.983267)"
         id="g3037">
        <g
           id="g3039">
          <rect
             style="fill:#e30000;fill-opacity:1;stroke:none"
             id="rect3041"
             width="6.85043"
             height="14.016054"
             x="-481.89249"
             y="305.85495"
             rx="3.425215"
             ry="0.23114184"
             transform="matrix(0,-1,1,0,0,0)" />
        </g>
        <path
           sodipodi:nodetypes="cc"
           transform="translate(276.72793,315.15691)"
           id="path3043"
           d="m 44.225674,163.63259 -15.35106,-0.18274"
           style="fill:none;stroke:#000000;stroke-width:1px;stroke-linecap:butt;stroke-linejoin:miter;stroke-opacity:1" />
      </g>
      <g
         transform="translate(96.126877,1.279255)"
         id="g3057">
        <rect
           transform="matrix(0,-1,1,0,0,0)"
           ry="0.23114184"
           rx="3.425215"
           y="353.97672"
           x="-481.89249"
           height="14.016054"
           width="6.85043"
           id="rect3059"
           style="fill:#e30000;fill-opacity:1;stroke:none" />
        <path
           style="fill:none;stroke:#000000;stroke-width:1px;stroke-linecap:butt;stroke-linejoin:miter;stroke-opacity:1"
           d="m 367.8571,478.60675 -15.35106,-0.18274"
           id="path3061"
           sodipodi:nodetypes="cc" />
      </g>
      <path
         id="path3063"
         d="m 360.87267,388.04779 c 9.95992,0 10.14267,0.0914 10.14267,0.0914"
         style="fill:none;stroke:#000000;stroke-width:0.7;stroke-linecap:butt;stroke-linejoin:miter;stroke-opacity:1;stroke-miterlimit:4;stroke-dasharray:none" />
      <path
         style="fill:none;stroke:#000000;stroke-width:0.69999999;stroke-linecap:butt;stroke-linejoin:miter;stroke-miterlimit:4;stroke-opacity:1;stroke-dasharray:none"
         d="m 342.95891,367.99217 c 9.95992,0 10.14267,0.0914 10.14267,0.0914"
         id="path3837" />
      <path
         id="path3839"
         d="m 373.33441,367.99217 c 9.95992,0 10.14267,0.0914 10.14267,0.0914"
         style="fill:none;stroke:#000000;stroke-width:0.69999999;stroke-linecap:butt;stroke-linejoin:miter;stroke-miterlimit:4;stroke-opacity:1;stroke-dasharray:none" />
      <path
         style="fill:none;stroke:#000000;stroke-width:0.69999999;stroke-linecap:butt;stroke-linejoin:miter;stroke-miterlimit:4;stroke-opacity:1;stroke-dasharray:none"
         d="m 356.88101,351.53877 c 9.95992,0 10.14267,0.0914 10.14267,0.0914"
         id="path3841" />
      <path
         id="path3843"
         d="m 386.67237,351.53877 c 9.95992,0 10.14267,0.0914 10.14267,0.0914"
         style="fill:none;stroke:#000000;stroke-width:0.69999999;stroke-linecap:butt;stroke-linejoin:miter;stroke-miterlimit:4;stroke-opacity:1;stroke-dasharray:none" />
      <path
         style="fill:none;stroke:#000000;stroke-width:0.69999999;stroke-linecap:butt;stroke-linejoin:miter;stroke-miterlimit:4;stroke-opacity:1;stroke-dasharray:none"
         d="m 400.10769,367.99217 c 9.95992,0 10.14267,0.0914 10.14267,0.0914"
         id="path3845" />
      <path
         id="path3847"
         d="m 380.73357,387.85308 c 9.95992,0 10.14267,0.0914 10.14267,0.0914"
         style="fill:none;stroke:#000000;stroke-width:0.69999999;stroke-linecap:butt;stroke-linejoin:miter;stroke-miterlimit:4;stroke-opacity:1;stroke-dasharray:none" />
      <path
         id="path3849"
         d="m 413.05622,388.04779 c 9.95992,0 10.14267,0.0914 10.14267,0.0914"
         style="fill:none;stroke:#000000;stroke-width:0.69999999;stroke-linecap:butt;stroke-linejoin:miter;stroke-miterlimit:4;stroke-opacity:1;stroke-dasharray:none" />
      <path
         style="fill:none;stroke:#000000;stroke-width:0.69999999;stroke-linecap:butt;stroke-linejoin:miter;stroke-miterlimit:4;stroke-opacity:1;stroke-dasharray:none"
         d="m 430.67791,367.99217 c 9.95992,0 10.14267,0.0914 10.14267,0.0914"
         id="path3851" />
      <path
         id="path3853"
         d="m 412.37472,351.73349 c 9.95992,0 10.14267,0.0914 10.14267,0.0914"
         style="fill:none;stroke:#000000;stroke-width:0.69999999;stroke-linecap:butt;stroke-linejoin:miter;stroke-miterlimit:4;stroke-opacity:1;stroke-dasharray:none" />
      <path
         style="fill:none;stroke:#000000;stroke-width:0.69999999;stroke-linecap:butt;stroke-linejoin:miter;stroke-miterlimit:4;stroke-opacity:1;stroke-dasharray:none"
         d="m 440.99779,351.83085 c 9.95992,0 10.14267,0.0914 10.14267,0.0914"
         id="path3855" />
    </g>
  </g>
</svg>
