<?xml version="1.0" encoding="UTF-8" standalone="no"?>
<!-- Created with Inkscape (http://www.inkscape.org/) -->

<svg
   xmlns:dc="http://purl.org/dc/elements/1.1/"
   xmlns:cc="http://creativecommons.org/ns#"
   xmlns:rdf="http://www.w3.org/1999/02/22-rdf-syntax-ns#"
   xmlns:svg="http://www.w3.org/2000/svg"
   xmlns="http://www.w3.org/2000/svg"
   xmlns:xlink="http://www.w3.org/1999/xlink"
   xmlns:sodipodi="http://sodipodi.sourceforge.net/DTD/sodipodi-0.dtd"
   xmlns:inkscape="http://www.inkscape.org/namespaces/inkscape"
   version="1.0"
   width="597"
   height="597"
   id="svg2"
   sodipodi:version="0.32"
   inkscape:version="0.47 r22583"
   sodipodi:docname="ZZ.svg"
   inkscape:output_extension="org.inkscape.output.svg.inkscape">
  <metadata
     id="metadata12">
    <rdf:RDF>
      <cc:Work
         rdf:about="">
        <dc:format>image/svg+xml</dc:format>
        <dc:type
           rdf:resource="http://purl.org/dc/dcmitype/StillImage" />
        <dc:title />
      </cc:Work>
    </rdf:RDF>
  </metadata>
  <sodipodi:namedview
     inkscape:window-height="1004"
     inkscape:window-width="1280"
     inkscape:pageshadow="2"
     inkscape:pageopacity="0.0"
     guidetolerance="10.0"
     gridtolerance="10.0"
     objecttolerance="10.0"
     borderopacity="1.0"
     bordercolor="#666666"
     pagecolor="#ffffff"
     id="base"
     inkscape:zoom="0.56002858"
     inkscape:cx="286.23691"
     inkscape:cy="-175.67565"
     inkscape:window-x="-8"
     inkscape:window-y="-8"
     inkscape:current-layer="svg2"
     width="200px"
     height="200px"
     showgrid="false"
     inkscape:showpageshadow="false"
     inkscape:window-maximized="1" />
  <defs
     id="defs4">
    <inkscape:perspective
       sodipodi:type="inkscape:persp3d"
       inkscape:vp_x="0 : 300 : 1"
       inkscape:vp_y="0 : 1000 : 0"
       inkscape:vp_z="600 : 300 : 1"
       inkscape:persp3d-origin="300 : 200 : 1"
       id="perspective44" />
    <g
       id="star">
      <g
         id="cone">
        <path
           id="triangle"
           d="M 0,0 V 1 H 0.5 z"
           transform="matrix(0.95105652,0.30901699,-0.30901699,0.95105652,0,-1)" />
        <use
           xlink:href="#triangle"
           transform="scale(-1,1)"
           id="use1948"
           x="0"
           y="0"
           width="1000"
           height="1000" />
      </g>
      <use
         xlink:href="#cone"
         transform="matrix(0.30901699,0.95105652,-0.95105652,0.30901699,0,0)"
         id="use1950"
         x="0"
         y="0"
         width="1000"
         height="1000" />
      <use
         xlink:href="#cone"
         transform="matrix(-0.80901699,0.58778525,-0.58778525,-0.80901699,0,0)"
         id="use1952"
         x="0"
         y="0"
         width="1000"
         height="1000" />
      <use
         xlink:href="#cone"
         transform="matrix(-0.80901699,-0.58778525,0.58778525,-0.80901699,0,0)"
         id="use1954"
         x="0"
         y="0"
         width="1000"
         height="1000" />
      <use
         xlink:href="#cone"
         transform="matrix(0.30901699,-0.95105652,0.95105652,0.30901699,0,0)"
         id="use1956"
         x="0"
         y="0"
         width="1000"
         height="1000" />
    </g>
    <g
       id="star-9">
      <g
         id="cone-4">
        <path
           id="triangle-8"
           d="M 0,0 V 1 H 0.5 z"
           transform="matrix(0.95105652,0.30901699,-0.30901699,0.95105652,0,-1)" />
        <use
           xlink:href="#triangle-8"
           transform="scale(-1,1)"
           id="use1948-8"
           x="0"
           y="0"
           width="600"
           height="600" />
      </g>
      <use
         xlink:href="#cone-4"
         transform="matrix(0.30901699,0.95105652,-0.95105652,0.30901699,0,0)"
         id="use1950-2"
         x="0"
         y="0"
         width="600"
         height="600" />
      <use
         xlink:href="#cone-4"
         transform="matrix(-0.80901699,0.58778525,-0.58778525,-0.80901699,0,0)"
         id="use1952-4"
         x="0"
         y="0"
         width="600"
         height="600" />
      <use
         xlink:href="#cone-4"
         transform="matrix(-0.80901699,-0.58778525,0.58778525,-0.80901699,0,0)"
         id="use1954-5"
         x="0"
         y="0"
         width="600"
         height="600" />
      <use
         xlink:href="#cone-4"
         transform="matrix(0.30901699,-0.95105652,0.95105652,0.30901699,0,0)"
         id="use1956-5"
         x="0"
         y="0"
         width="600"
         height="600" />
    </g>
  </defs>
  <rect
     style="fill:#003399;fill-opacity:1;fill-rule:nonzero;stroke:none"
     id="rect2380"
     width="597"
     height="597"
     x="0"
     y="0"
     rx="0"
     ry="0" />
  <path
     style="fill:#ffffff;fill-opacity:1;fill-rule:nonzero;stroke:none"
     d="m 46.486603,6.5040588 c -22.07351,0 -40.0000002,17.9264902 -40.0000002,40.0000002 l 0,504.000001 c 0,22.07351 17.9264902,40 40.0000002,40 l 503.999997,0 c 22.07351,0 40.00003,-17.92648 40,-40 l 0,-504.000001 c 0,-22.07351 -17.92646,-40.0000002 -40,-40.0000002 l -503.999997,0 z m 0,10.0000002 503.999997,0 c 16.70652,0 30,13.29351 30,30 l 0,504.000001 c 3e-5,16.70648 -13.29351,30 -30,30 l -503.999997,0 c -16.70649,0 -30,-13.29351 -30,-30 l 0,-504.000001 c 0,-16.70649 13.29351,-30 30,-30 z"
     id="rect2969" />
  <g
     style="fill:#ffcc00"
     id="g1960"
     transform="matrix(36.36318,0,0,36.36318,298.5,301.97237)">
    <use
       height="200"
       width="200"
       x="0"
       xlink:href="#star"
       y="-6"
       id="use1962" />
    <g
       id="rtl">
      <use
         height="200"
         width="200"
         y="0"
         x="0"
         xlink:href="#star"
         transform="matrix(0.309017,0.951057,-0.951057,0.309017,-3,5.196152)"
         id="use1965" />
      <use
         height="200"
         width="200"
         y="0"
         x="0"
         xlink:href="#star"
         transform="matrix(0.309017,0.951057,-0.951057,0.309017,-5.196152,3)"
         id="use1967" />
      <use
         height="200"
         width="200"
         y="0"
         xlink:href="#star"
         x="6"
         id="use1969" />
      <use
         height="200"
         width="200"
         y="0"
         x="0"
         xlink:href="#star"
         transform="matrix(-0.809017,0.587785,-0.587785,-0.809017,-5.196152,-3)"
         id="use1971" />
      <use
         height="200"
         width="200"
         y="0"
         x="0"
         xlink:href="#star"
         transform="matrix(-0.809017,-0.587785,0.587785,-0.809017,-3,-5.196152)"
         id="use1973" />
    </g>
    <use
       height="200"
       width="200"
       x="0"
       xlink:href="#star"
       y="6"
       id="use1975" />
    <use
       height="200"
       width="200"
       y="0"
       x="0"
       xlink:href="#rtl"
       transform="scale(-1,1)"
       id="use1977" />
  </g>
  <g
     id="g4042"
     transform="matrix(0.84690058,0,0,1,-514.43892,29.61563)"
     style="fill:#ffffff">
    <path
       style="fill:#ffffff;fill-opacity:1;fill-rule:evenodd;stroke:none"
       d="m 802.88147,248.80342 -8.1325,7.39007 c -2.6408,-2.46667 -8.3804,-4.83186 -13.274,-4.83186 -6.4536,0 -8.5439,3.52947 -8.5439,6.02701 0,5.00185 6.8191,5.05288 14.7075,6.46486 9.2057,1.64778 15.1592,6.53999 15.1592,15.27519 0,12.52501 -11.3659,17.88976 -23.238,17.88976 -11.9713,0 -20.1162,-6.31753 -23.7662,-10.03701 l 8.7806,-7.24938 c 2.4913,2.81163 8.3076,6.71064 15.6105,6.71064 6.6462,0 9.8185,-2.96654 9.8185,-6.34567 0,-3.04021 -1.6065,-4.19213 -4.5406,-5.15105 -3.584,-1.17133 -8.9035,-1.84453 -12.6376,-2.69835 -5.4132,-1.23778 -12.4469,-4.05883 -12.4469,-14.23907 0,-10.4491 9.927,-17.25827 21.5446,-17.25827 11.6024,0 18.6449,6.0597 20.9588,8.05313 z"
       id="path4024"
       sodipodi:nodetypes="ccsssssccssssssc" />
    <path
       id="path4026"
       d="m 809.18507,241.79631 0,54.17612 11.4277,0 24.0195,0 0,-10.36965 -24.0195,0 0,-43.80647 -11.4277,0 z"
       style="fill:#ffffff;fill-opacity:1;fill-rule:nonzero;stroke:none" />
    <path
       id="path4028"
       d="m 875.70313,240.63237 c -16.3786,0 -26.03,12.6569 -26.0299,28.252 0,15.5951 10.858,28.252 26.0299,28.252 15.0112,0 26.0299,-12.6569 26.0299,-28.252 0,-15.5951 -9.812,-28.252 -26.0299,-28.252 z m 0,10.58127 c 9.2831,0 14.1789,7.91649 14.1789,17.67073 0,9.75424 -5.5932,17.67073 -14.1789,17.67073 -8.5054,0 -14.1789,-7.91649 -14.1789,-17.67073 0,-9.75424 4.8958,-17.67073 14.1789,-17.67073 z"
       style="fill:#ffffff;fill-opacity:1;fill-rule:nonzero;stroke:none" />
    <path
       id="path4030"
       d="m 906.77401,241.79631 14.4567,54.17612 15.3362,0 16.487,-54.17612 -12.4595,0 -11.5733,39.85832 -10.1117,-39.85832 -12.1354,0 z"
       style="fill:#ffffff;fill-opacity:1;fill-rule:evenodd;stroke:none" />
    <path
       sodipodi:nodetypes="ccccccccccccc"
       id="path4032"
       d="m 959.3575,241.79631 0,54.17612 37.66933,0 0,-9.9464 -26.87643,0 0,-12.06927 22.22063,0 0,-9.9464 -22.22063,0 0,-11.8444 25.18343,0 0,-10.36965 -35.97633,0 z"
       style="fill:#ffffff;fill-opacity:1;fill-rule:nonzero;stroke:none" />
    <path
       id="path4034"
       d="m 1003.3305,241.79631 0,54.17612 11.4278,0 0,-37.86113 25.9505,37.86113 2.3742,0 6.8977,0 4.5301,0 0,-54.17612 -11.4278,0 0,38.55552 -25.3818,-38.55552 -2.9429,0 -3.0818,0 -8.346,0 z"
       style="fill:#ffffff;fill-opacity:1;fill-rule:nonzero;stroke:none" />
    <rect
       y="241.79631"
       x="1060.8143"
       height="54.176121"
       width="11.427775"
       id="rect4036"
       style="fill:#ffffff;fill-opacity:1;fill-rule:nonzero;stroke:none" />
    <path
       sodipodi:nodetypes="ccczcczcc"
       id="path4038"
       d="m 1094.1333,241.55614 12.1093,0 0,40.0913 c 0,3.3681 -0.1355,9.40106 -7.1412,12.78169 -6.9728,3.3647 -18.4259,1.05087 -20.5557,0.42613 l 1.1454,-10.00705 c 1.6754,0.22718 6.3777,1.27997 9.9976,0.54466 3.6142,-0.73417 4.4446,-3.9982 4.4446,-6.30115 l 0,-37.53558 z"
       style="fill:#ffffff;fill-opacity:1;fill-rule:nonzero;stroke:none" />
    <path
       id="path4040"
       d="m 1130.6071,241.79631 -18.0609,54.17612 12.552,0 2.6916,-9.12635 20.6136,0 3.0091,9.12635 12.5917,0 -19.1257,-54.17612 -14.2714,0 z m 6.9175,12.07588 7.5986,23.02749 -14.3971,0 6.7985,-23.02749 z"
       style="fill:#ffffff;fill-opacity:1;fill-rule:evenodd;stroke:none" />
  </g>
</svg>
