<?xml version="1.0" encoding="UTF-8" standalone="no"?>
<!-- Created with Inkscape (http://www.inkscape.org/) -->

<svg
   xmlns:dc="http://purl.org/dc/elements/1.1/"
   xmlns:cc="http://creativecommons.org/ns#"
   xmlns:rdf="http://www.w3.org/1999/02/22-rdf-syntax-ns#"
   xmlns:svg="http://www.w3.org/2000/svg"
   xmlns="http://www.w3.org/2000/svg"
   xmlns:sodipodi="http://sodipodi.sourceforge.net/DTD/sodipodi-0.dtd"
   xmlns:inkscape="http://www.inkscape.org/namespaces/inkscape"
   width="199.99992"
   height="387.64276"
   id="svg3644"
   version="1.1"
   inkscape:version="0.47 r22583"
   sodipodi:docname="croce s.andrea.svg">
  <defs
     id="defs3646">
    <inkscape:perspective
       sodipodi:type="inkscape:persp3d"
       inkscape:vp_x="0 : 526.18109 : 1"
       inkscape:vp_y="0 : 1000 : 0"
       inkscape:vp_z="744.09448 : 526.18109 : 1"
       inkscape:persp3d-origin="372.04724 : 350.78739 : 1"
       id="perspective3652" />
    <inkscape:perspective
       id="perspective3663"
       inkscape:persp3d-origin="157.5475 : 66.666667 : 1"
       inkscape:vp_z="315.095 : 100 : 1"
       inkscape:vp_y="0 : 1000 : 0"
       inkscape:vp_x="0 : 100 : 1"
       sodipodi:type="inkscape:persp3d" />
    <inkscape:perspective
       id="perspective3679"
       inkscape:persp3d-origin="0.5 : 0.33333333 : 1"
       inkscape:vp_z="1 : 0.5 : 1"
       inkscape:vp_y="0 : 1000 : 0"
       inkscape:vp_x="0 : 0.5 : 1"
       sodipodi:type="inkscape:persp3d" />
    <inkscape:perspective
       id="perspective3846"
       inkscape:persp3d-origin="417.043 : 244.99634 : 1"
       inkscape:vp_z="834.086 : 367.49451 : 1"
       inkscape:vp_y="0 : 1000 : 0"
       inkscape:vp_x="0 : 367.49451 : 1"
       sodipodi:type="inkscape:persp3d" />
  </defs>
  <sodipodi:namedview
     id="base"
     pagecolor="#ffffff"
     bordercolor="#666666"
     borderopacity="1.0"
     inkscape:pageopacity="0.0"
     inkscape:pageshadow="2"
     inkscape:zoom="0.83535156"
     inkscape:cx="144.28358"
     inkscape:cy="84.007491"
     inkscape:document-units="px"
     inkscape:current-layer="layer1"
     showgrid="false"
     inkscape:window-width="1600"
     inkscape:window-height="838"
     inkscape:window-x="-8"
     inkscape:window-y="-8"
     inkscape:window-maximized="1" />
  <metadata
     id="metadata3649">
    <rdf:RDF>
      <cc:Work
         rdf:about="">
        <dc:format>image/svg+xml</dc:format>
        <dc:type
           rdf:resource="http://purl.org/dc/dcmitype/StillImage" />
        <dc:title></dc:title>
      </cc:Work>
    </rdf:RDF>
  </metadata>
  <g
     inkscape:label="Livello 1"
     inkscape:groupmode="layer"
     id="layer1"
     transform="translate(-230.71642,-228.72692)">
    <g
       id="g3863"
       transform="matrix(0,1,-1,0,753.26467,91.831905)">
      <path
         sodipodi:nodetypes="cccccccccccccccccccccccccccccccccccccccccc"
         d="m 177.74877,323.57282 -39.78984,8.70817 10.60804,32.3035 123.74686,57.97968 -123.74686,57.97999 -10.64747,32.39949 39.82927,8.58011 152.96777,-71.618 152.96815,71.618 39.82858,-8.58011 -10.64678,-32.39949 -123.74723,-57.97999 123.74723,-57.97968 10.60766,-32.3035 -39.78946,-8.70817 -152.96815,71.65027 -152.96777,-71.65027 z m -0.55209,3.29758 152.57342,71.45823 0.94644,0.44821 0.94644,-0.44821 152.57317,-71.45823 34.62444,7.58763 -9.26751,28.10944 -125.24513,58.65206 -2.83931,1.34464 2.83931,1.34516 125.24513,58.65205 9.26751,28.17347 -34.62444,7.52283 -152.57317,-71.45817 -0.94644,-0.44771 -0.94644,0.44771 -152.57342,71.45817 -34.62387,-7.52283 9.26719,-28.17347 125.24513,-58.65205 2.83931,-1.34516 -2.83931,-1.34464 -125.24513,-58.65206 -9.26719,-28.10944 34.62387,-7.58763 z"
         style="fill:#3cffff;fill-opacity:1;fill-rule:nonzero;stroke:#000000;stroke-width:2.04898;stroke-miterlimit:4;stroke-opacity:1;stroke-dasharray:none"
         id="path4546" />
      <path
         sodipodi:nodetypes="cccccccccccccccccccccccccccccccccccccccccc"
         d="m 177.74877,323.57282 -39.78984,8.70817 10.60804,32.3035 123.74686,57.97968 -123.74686,57.97999 -10.64747,32.39949 39.82927,8.58011 152.96777,-71.618 152.96815,71.618 39.82858,-8.58011 -10.64678,-32.39949 -123.74723,-57.97999 123.74723,-57.97968 10.60766,-32.3035 -39.78946,-8.70817 -152.96815,71.65027 -152.96777,-71.65027 z m -0.55209,3.29758 152.57342,71.45823 0.94644,0.44821 0.94644,-0.44821 152.57317,-71.45823 34.62444,7.58763 -9.26751,28.10944 -125.24513,58.65206 -2.83931,1.34464 2.83931,1.34516 125.24513,58.65205 9.26751,28.17347 -34.62444,7.52283 -152.57317,-71.45817 -0.94644,-0.44771 -0.94644,0.44771 -152.57342,71.45817 -34.62387,-7.52283 9.26719,-28.17347 125.24513,-58.65205 2.83931,-1.34516 -2.83931,-1.34464 -125.24513,-58.65206 -9.26719,-28.10944 34.62387,-7.58763 z"
         style="fill:#ffffff;fill-opacity:1;fill-rule:nonzero;stroke:none"
         id="path3655" />
      <path
         d="m 483.93833,519.89072 -153.21927,-71.76962 -153.22431,71.76962 -37.24053,-8.04942 9.95539,-30.28904 125.94296,-58.98809 -125.94296,-58.98829 -9.92357,-30.20791 37.20871,-8.13025 153.22431,71.77024 153.21927,-71.77024 37.20885,8.13025 -9.92371,30.20791 -125.94422,58.98829 125.94422,58.98809 9.95525,30.28904 -37.24039,8.04942 z"
         style="fill:#d40000;fill-opacity:1;fill-rule:nonzero;stroke:none"
         id="path2652" />
      <path
         d="m 489.13995,361.13759 -13.64005,-19.16728 -144.78084,67.81581 -144.78664,-67.81581 -13.6403,19.16728 131.14181,61.42658 -131.14181,61.42637 13.6403,19.16718 144.78664,-67.81509 144.78084,67.81509 13.64005,-19.16718 -131.14079,-61.42637 131.14079,-61.42658"
         style="fill:#ffffff;fill-rule:nonzero;stroke:none"
         id="path197" />
    </g>
  </g>
</svg>
