<?xml version="1.0" encoding="UTF-8" standalone="no"?>
<!-- Created with Inkscape (http://www.inkscape.org/) -->

<svg
   xmlns:dc="http://purl.org/dc/elements/1.1/"
   xmlns:cc="http://creativecommons.org/ns#"
   xmlns:rdf="http://www.w3.org/1999/02/22-rdf-syntax-ns#"
   xmlns:svg="http://www.w3.org/2000/svg"
   xmlns="http://www.w3.org/2000/svg"
   xmlns:sodipodi="http://sodipodi.sourceforge.net/DTD/sodipodi-0.dtd"
   xmlns:inkscape="http://www.inkscape.org/namespaces/inkscape"
   width="760"
   height="500"
   id="svg28436"
   version="1.1"
   inkscape:version="0.47 r22583"
   sodipodi:docname="Italian traffic signs - preavviso informazioni turistico alberghiere.svg">
  <defs
     id="defs28438">
    <inkscape:perspective
       sodipodi:type="inkscape:persp3d"
       inkscape:vp_x="0 : 526.18109 : 1"
       inkscape:vp_y="0 : 1000 : 0"
       inkscape:vp_z="744.09448 : 526.18109 : 1"
       inkscape:persp3d-origin="372.04724 : 350.78739 : 1"
       id="perspective28444" />
    <inkscape:perspective
       id="perspective28364"
       inkscape:persp3d-origin="0.5 : 0.33333333 : 1"
       inkscape:vp_z="1 : 0.5 : 1"
       inkscape:vp_y="0 : 1000 : 0"
       inkscape:vp_x="0 : 0.5 : 1"
       sodipodi:type="inkscape:persp3d" />
    <inkscape:perspective
       id="perspective31562"
       inkscape:persp3d-origin="0.5 : 0.33333333 : 1"
       inkscape:vp_z="1 : 0.5 : 1"
       inkscape:vp_y="0 : 1000 : 0"
       inkscape:vp_x="0 : 0.5 : 1"
       sodipodi:type="inkscape:persp3d" />
    <inkscape:perspective
       id="perspective35225"
       inkscape:persp3d-origin="0.5 : 0.33333333 : 1"
       inkscape:vp_z="1 : 0.5 : 1"
       inkscape:vp_y="0 : 1000 : 0"
       inkscape:vp_x="0 : 0.5 : 1"
       sodipodi:type="inkscape:persp3d" />
    <inkscape:perspective
       id="perspective35370"
       inkscape:persp3d-origin="0.5 : 0.33333333 : 1"
       inkscape:vp_z="1 : 0.5 : 1"
       inkscape:vp_y="0 : 1000 : 0"
       inkscape:vp_x="0 : 0.5 : 1"
       sodipodi:type="inkscape:persp3d" />
    <inkscape:perspective
       id="perspective35527"
       inkscape:persp3d-origin="0.5 : 0.33333333 : 1"
       inkscape:vp_z="1 : 0.5 : 1"
       inkscape:vp_y="0 : 1000 : 0"
       inkscape:vp_x="0 : 0.5 : 1"
       sodipodi:type="inkscape:persp3d" />
    <inkscape:perspective
       id="perspective36724"
       inkscape:persp3d-origin="0.5 : 0.33333333 : 1"
       inkscape:vp_z="1 : 0.5 : 1"
       inkscape:vp_y="0 : 1000 : 0"
       inkscape:vp_x="0 : 0.5 : 1"
       sodipodi:type="inkscape:persp3d" />
    <inkscape:path-effect
       effect="spiro"
       is_visible="true"
       id="path-effect3618" />
    <inkscape:path-effect
       effect="spiro"
       is_visible="true"
       id="path-effect3757" />
    <inkscape:path-effect
       effect="spiro"
       is_visible="true"
       id="path-effect3761" />
    <inkscape:path-effect
       effect="spiro"
       is_visible="true"
       id="path-effect3761-4" />
    <inkscape:path-effect
       effect="spiro"
       is_visible="true"
       id="path-effect3757-9" />
    <inkscape:path-effect
       effect="spiro"
       is_visible="true"
       id="path-effect3852" />
    <inkscape:perspective
       id="perspective36824"
       inkscape:persp3d-origin="0.5 : 0.33333333 : 1"
       inkscape:vp_z="1 : 0.5 : 1"
       inkscape:vp_y="0 : 1000 : 0"
       inkscape:vp_x="0 : 0.5 : 1"
       sodipodi:type="inkscape:persp3d" />
  </defs>
  <sodipodi:namedview
     id="base"
     pagecolor="#ffffff"
     bordercolor="#666666"
     borderopacity="1.0"
     inkscape:pageopacity="0.0"
     inkscape:pageshadow="2"
     inkscape:zoom="0.83535156"
     inkscape:cx="651.20212"
     inkscape:cy="190.99676"
     inkscape:document-units="px"
     inkscape:current-layer="text28723"
     showgrid="false"
     inkscape:window-width="1600"
     inkscape:window-height="838"
     inkscape:window-x="-8"
     inkscape:window-y="-8"
     inkscape:window-maximized="1" />
  <metadata
     id="metadata28441">
    <rdf:RDF>
      <cc:Work
         rdf:about="">
        <dc:format>image/svg+xml</dc:format>
        <dc:type
           rdf:resource="http://purl.org/dc/dcmitype/StillImage" />
        <dc:title></dc:title>
      </cc:Work>
    </rdf:RDF>
  </metadata>
  <g
     inkscape:label="Livello 1"
     inkscape:groupmode="layer"
     id="layer1"
     transform="translate(850.04983,111.73065)">
    <g
       style="font-size:45.64504242px;font-style:normal;font-variant:normal;font-weight:normal;font-stretch:normal;text-align:start;line-height:100%;writing-mode:lr-tb;text-anchor:start;fill:#000000;fill-opacity:1;stroke:none;font-family:Transport Heavy;-inkscape-font-specification:'Transport Heavy,'"
       id="text28723"
       transform="translate(3.5913023,0)">
      <rect
         style="fill:#ffffff;fill-opacity:1;stroke:#ffffff;stroke-width:0;stroke-linecap:butt;stroke-linejoin:round;stroke-miterlimit:4;stroke-opacity:1;stroke-dasharray:none;stroke-dashoffset:0"
         id="rect35215"
         width="788.83508"
         height="529.90436"
         x="-869.63354"
         y="-125.84505"
         rx="0"
         ry="0" />
      <g
         id="g36991"
         transform="translate(2.3942015,-2.3942015)">
        <path
           id="path24051"
           style="font-size:45.64504242px;font-style:normal;font-variant:normal;font-weight:normal;font-stretch:normal;text-align:start;line-height:100%;writing-mode:lr-tb;text-anchor:start;fill:#ffffff;fill-opacity:1;fill-rule:nonzero;stroke:none;font-family:Transport Heavy;-inkscape-font-specification:'Transport Heavy,'"
           d="m -853.53988,65.652893 757.58264,0 0,151.416707 -757.58264,0 0,-151.416707 z" />
        <path
           id="path24053"
           style="font-size:45.64504242px;font-style:normal;font-variant:normal;font-weight:normal;font-stretch:normal;text-align:start;line-height:100%;writing-mode:lr-tb;text-anchor:start;fill:none;stroke:#000000;stroke-width:0.20250002;stroke-linecap:butt;stroke-linejoin:miter;stroke-miterlimit:3.86400008;stroke-opacity:1;stroke-dasharray:none;font-family:Transport Heavy;-inkscape-font-specification:'Transport Heavy,'"
           d="m -853.53988,65.652893 757.58264,0 0,151.416717 -757.58264,0 0,-151.416717 z" />
        <path
           id="path24055"
           style="font-size:45.64504242px;font-style:normal;font-variant:normal;font-weight:normal;font-stretch:normal;text-align:start;line-height:100%;writing-mode:lr-tb;text-anchor:start;fill:#000000;fill-opacity:1;fill-rule:nonzero;stroke:none;font-family:Transport Heavy;-inkscape-font-specification:'Transport Heavy,'"
           d="m -853.53988,205.02378 757.58264,0 0,12.04582 -757.58264,0 0,-12.04582 z" />
        <path
           id="path24057"
           style="font-size:45.64504242px;font-style:normal;font-variant:normal;font-weight:normal;font-stretch:normal;text-align:start;line-height:100%;writing-mode:lr-tb;text-anchor:start;fill:#d9dadb;fill-opacity:1;fill-rule:nonzero;stroke:none;font-family:Transport Heavy;-inkscape-font-specification:'Transport Heavy,'"
           d="m -574.51324,104.60702 454.46971,0 0,60.64859 -454.46971,0 0,-60.64859 z" />
        <g
           transform="matrix(4.9919783,0,0,-4.9941198,-800.54555,144.3732)"
           id="g24059"
           style="font-size:45.64504242px;font-style:normal;font-variant:normal;font-weight:normal;font-stretch:normal;text-align:start;line-height:100%;writing-mode:lr-tb;text-anchor:start;fill:#000000;fill-opacity:1;stroke:none;font-family:Transport Heavy;-inkscape-font-specification:'Transport Heavy,'">
          <path
             id="path24061"
             style="fill:#000000;fill-opacity:1;fill-rule:nonzero;stroke:none"
             d="m 0,0 14.879,0 0,3.619 -14.879,0 9.087,9.088 -5.146,0 L -6.917,1.77 3.941,-9.168 l 5.146,0 L 0,0 z" />
        </g>
        <path
           id="path24063"
           style="font-size:45.64504242px;font-style:normal;font-variant:normal;font-weight:normal;font-stretch:normal;text-align:start;line-height:100%;writing-mode:lr-tb;text-anchor:start;fill:#ffffff;fill-opacity:1;fill-rule:nonzero;stroke:#000000;stroke-width:0.20250002;stroke-linecap:butt;stroke-linejoin:miter;stroke-miterlimit:3.86400008;stroke-opacity:1;stroke-dasharray:none;font-family:Transport Heavy;-inkscape-font-specification:'Transport Heavy,'"
           d="m -853.53988,-105.04612 757.58264,0 0,151.821243 -757.58264,0 0,-151.821243 z" />
        <path
           id="path24065"
           style="font-size:45.64504242px;font-style:normal;font-variant:normal;font-weight:normal;font-stretch:normal;text-align:start;line-height:100%;writing-mode:lr-tb;text-anchor:start;fill:#d9dadb;fill-opacity:1;fill-rule:nonzero;stroke:none;font-family:Transport Heavy;-inkscape-font-specification:'Transport Heavy,'"
           d="m -574.51324,-65.282947 454.46971,0 0,60.6485905 -454.46971,0 0,-60.6485905 z" />
        <path
           id="path24067"
           style="font-size:45.64504242px;font-style:normal;font-variant:normal;font-weight:normal;font-stretch:normal;text-align:start;line-height:100%;writing-mode:lr-tb;text-anchor:start;fill:#000000;fill-opacity:1;fill-rule:nonzero;stroke:none;font-family:Transport Heavy;-inkscape-font-specification:'Transport Heavy,'"
           d="m -853.53988,34.319783 757.58264,0 0,12.45034 -757.58264,0 0,-12.45034 z" />
        <g
           transform="matrix(4.9919783,0,0,-4.9941198,-790.10833,-54.440697)"
           id="g24069"
           style="font-size:45.64504242px;font-style:normal;font-variant:normal;font-weight:normal;font-stretch:normal;text-align:start;line-height:100%;writing-mode:lr-tb;text-anchor:start;fill:#000000;fill-opacity:1;stroke:none;font-family:Transport Heavy;-inkscape-font-specification:'Transport Heavy,'">
          <path
             id="path24071"
             style="fill:#000000;fill-opacity:1;fill-rule:nonzero;stroke:none"
             d="m 0,0 0,-14.878 3.7,0 0,14.878 9.088,-9.088 0,5.147 L 1.85,6.997 -9.088,-3.941 l 0,-5.147 L 0,0 z" />
        </g>
        <path
           id="path24073"
           style="font-size:45.64504242px;font-style:normal;font-variant:normal;font-weight:normal;font-stretch:normal;text-align:start;line-height:100%;writing-mode:lr-tb;text-anchor:start;fill:#ffffff;fill-opacity:1;fill-rule:nonzero;stroke:#000000;stroke-width:0.20250002;stroke-linecap:butt;stroke-linejoin:miter;stroke-miterlimit:3.86400008;stroke-opacity:1;stroke-dasharray:none;font-family:Transport Heavy;-inkscape-font-specification:'Transport Heavy,'"
           d="m -853.53988,236.75143 757.58264,0 0,151.41668 -757.58264,0 0,-151.41668 z" />
        <path
           id="path24075"
           style="font-size:45.64504242px;font-style:normal;font-variant:normal;font-weight:normal;font-stretch:normal;text-align:start;line-height:100%;writing-mode:lr-tb;text-anchor:start;fill:#000000;fill-opacity:1;fill-rule:nonzero;stroke:none;font-family:Transport Heavy;-inkscape-font-specification:'Transport Heavy,'"
           d="m -853.53988,376.12232 757.58264,0 0,12.05077 -757.58264,0 0,-12.05077 z" />
        <path
           id="path24077"
           style="font-size:45.64504242px;font-style:normal;font-variant:normal;font-weight:normal;font-stretch:normal;text-align:start;line-height:100%;writing-mode:lr-tb;text-anchor:start;fill:#d9dadb;fill-opacity:1;fill-rule:nonzero;stroke:none;font-family:Transport Heavy;-inkscape-font-specification:'Transport Heavy,'"
           d="m -829.45358,275.71055 454.46971,0 0,60.64859 -454.46971,0 0,-60.64859 z" />
        <g
           transform="matrix(4.9919783,0,0,-4.9941198,-148.95407,315.47322)"
           id="g24079"
           style="font-size:45.64504242px;font-style:normal;font-variant:normal;font-weight:normal;font-stretch:normal;text-align:start;line-height:100%;writing-mode:lr-tb;text-anchor:start;fill:#000000;fill-opacity:1;stroke:none;font-family:Transport Heavy;-inkscape-font-specification:'Transport Heavy,'">
          <path
             id="path24081"
             style="fill:#000000;fill-opacity:1;fill-rule:nonzero;stroke:none"
             d="m 0,0 -14.878,0 0,3.619 14.878,0 -9.088,9.088 5.147,0 L 6.997,1.85 -3.941,-9.088 l -5.147,0 L 0,0 z" />
        </g>
        <g
           transform="matrix(4.9919783,0,0,-4.9941198,-689.7391,18.256213)"
           id="g24083"
           style="font-size:45.64504242px;font-style:normal;font-variant:normal;font-weight:normal;font-stretch:normal;text-align:start;line-height:100%;writing-mode:lr-tb;text-anchor:start;fill:#8f5545;fill-opacity:1;stroke:none;font-family:Transport Heavy;-inkscape-font-specification:'Transport Heavy,'">
          <path
             id="path24085"
             style="fill:#8f5545;fill-opacity:1;fill-rule:nonzero;stroke:none"
             d="M 0,0 -0.241,0 C -0.644,0 -1.046,0.16 -1.448,0.402 -1.77,0.643 -2.091,0.965 -2.252,1.367 -2.413,1.688 -2.493,1.93 -2.493,2.252 l 0,0.241 0,16.406 0,0.161 c 0,0.402 0.161,0.884 0.402,1.207 0.241,0.321 0.643,0.643 0.965,0.884 0.321,0.081 0.644,0.161 0.885,0.241 l 0.241,0 16.326,0 0.241,0 c 0.402,-0.08 0.885,-0.241 1.206,-0.482 0.403,-0.242 0.644,-0.563 0.805,-0.966 0.161,-0.321 0.241,-0.562 0.241,-0.884 l 0,-0.161 0,-16.406 0,-0.241 C 18.819,1.85 18.658,1.447 18.417,1.046 18.176,0.724 17.854,0.402 17.452,0.241 17.13,0.08 16.889,0 16.567,0 L 16.326,0 0,0 z" />
        </g>
        <g
           transform="matrix(4.9919783,0,0,-4.9941198,-682.91357,7.4119435)"
           id="g24087"
           style="font-size:45.64504242px;font-style:normal;font-variant:normal;font-weight:normal;font-stretch:normal;text-align:start;line-height:100%;writing-mode:lr-tb;text-anchor:start;fill:#000000;fill-opacity:1;stroke:none;font-family:Transport Heavy;-inkscape-font-specification:'Transport Heavy,'">
          <path
             id="path24089"
             style="fill:#ffffff;fill-opacity:1;fill-rule:nonzero;stroke:none"
             d="m 0,0 13.592,0 0.16,0 0.081,0 0.08,0.08 0.08,0 0.081,0 0.08,0 0.081,0.081 0.08,0 0.081,0.08 0.08,0 0.081,0.081 0.08,0.08 0.08,0.08 0.081,0 0.08,0.081 0,0.08 0.08,0.081 0,0.08 0.081,0 0,0.08 0.081,0.081 0,0.081 0.08,0.08 0,0.08 0,0.081 0.08,0.08 0,0.08 0,0.081 0,0.08 0,0.08 0,13.592 0,0.161 0,0.08 0,0.081 -0.08,0.081 0,0.08 0,0.08 -0.08,0.081 0,0.08 0,0.081 -0.081,0 0,0.08 -0.081,0.08 -0.08,0.081 0,0.08 -0.08,0.081 -0.081,0.08 -0.08,0 -0.08,0.08 0,0.081 -0.081,0 -0.08,0 -0.081,0.081 -0.08,0 -0.081,0.08 -0.08,0 -0.081,0.08 -0.08,0 -0.08,0 -0.081,0 -0.16,0 -13.592,0 -0.081,0 -0.08,0 -0.08,0 -0.081,0 -0.08,0 0,-0.08 -0.081,0 -0.079,0 -0.081,-0.08 -0.081,0 -0.08,-0.081 -0.081,0 -0.08,-0.081 -0.081,-0.08 -0.08,0 -0.08,-0.08 0,-0.081 -0.081,-0.08 -0.08,-0.081 -0.081,-0.08 0,-0.08 -0.08,-0.081 0,-0.08 0,-0.081 -0.081,0 0,-0.08 0,-0.08 0,-0.081 -0.08,-0.081 0,-0.08 0,-0.161 0,-13.592 0,-0.08 0,-0.08 0,-0.081 0.08,-0.08 0,-0.08 0,-0.081 0.081,-0.08 0,-0.08 0,-0.081 0.08,0 0,-0.081 0,-0.08 0.081,0 0,-0.08 0.08,-0.081 0.081,-0.08 0,-0.081 0.08,0 0.08,-0.08 0.081,-0.08 0.08,0 0,-0.081 0.081,0 0.08,-0.08 0.081,0 0.081,-0.081 0.079,0 0.081,0 0.08,0 0.081,-0.08 0.08,0 0.08,0 L 0,0 z" />
        </g>
        <g
           transform="matrix(4.9919783,0,0,-4.9941198,-642.36621,-8.2516165)"
           id="g24091"
           style="font-size:45.64504242px;font-style:normal;font-variant:normal;font-weight:normal;font-stretch:normal;text-align:start;line-height:100%;writing-mode:lr-tb;text-anchor:start;fill:#000000;fill-opacity:1;stroke:none;font-family:Transport Heavy;-inkscape-font-specification:'Transport Heavy,'">
          <path
             id="path24093"
             style="fill:#000000;fill-opacity:1;fill-rule:nonzero;stroke:none"
             d="m 0,0 0.724,0.241 0,1.528 4.182,1.207 0,-1.529 0.724,0.242 0,3.458 -0.081,0.081 c 0,0.08 0,0.16 -0.08,0.241 l -0.161,0 c 0,0.081 -0.08,0.081 -0.08,0.081 L 5.067,5.55 0.724,4.263 0.643,4.182 C 0.482,4.182 0.322,4.021 0.241,3.86 0.161,3.78 0.081,3.7 0.081,3.619 0.081,3.539 0,3.458 0,3.297 L 0,3.217 0,0 z" />
        </g>
        <g
           transform="matrix(4.9919783,0,0,-4.9941198,-670.06769,-43.596477)"
           id="g24095"
           style="font-size:45.64504242px;font-style:normal;font-variant:normal;font-weight:normal;font-stretch:normal;text-align:start;line-height:100%;writing-mode:lr-tb;text-anchor:start;fill:#000000;fill-opacity:1;stroke:none;font-family:Transport Heavy;-inkscape-font-specification:'Transport Heavy,'">
          <path
             id="path24097"
             style="fill:#000000;fill-opacity:1;fill-rule:nonzero;stroke:none"
             d="m 0,0 0.081,0 0.08,0 0.08,0 0.081,0 3.86,1.126 0.081,0 0,0.08 -0.081,0 -1.287,0.724 -0.08,0 -0.08,0 -0.081,0 -0.08,0 -3.78,-1.126 -0.081,0 0,-0.08 0,-0.081 L 0,0 z" />
        </g>
        <g
           transform="matrix(4.9919783,0,0,-4.9941198,-676.89125,-34.358867)"
           id="g24099"
           style="font-size:45.64504242px;font-style:normal;font-variant:normal;font-weight:normal;font-stretch:normal;text-align:start;line-height:100%;writing-mode:lr-tb;text-anchor:start;fill:#000000;fill-opacity:1;stroke:none;font-family:Transport Heavy;-inkscape-font-specification:'Transport Heavy,'">
          <path
             id="path24101"
             style="fill:#000000;fill-opacity:1;fill-rule:nonzero;stroke:none"
             d="m 0,0 6.353,-3.217 0,1.689 0,0.161 c 0,0.161 0.081,0.402 0.243,0.562 0.079,0 0.159,0.081 0.24,0.162 0.08,0.08 0.161,0.08 0.241,0.16 l 0.161,0 3.297,0.965 L 6.514,2.574 1.608,1.126 0,2.011 0,0 z" />
        </g>
        <g
           transform="matrix(4.9919783,0,0,-4.9941198,-683.31592,-29.940077)"
           id="g24103"
           style="font-size:45.64504242px;font-style:normal;font-variant:normal;font-weight:normal;font-stretch:normal;text-align:start;line-height:100%;writing-mode:lr-tb;text-anchor:start;fill:#000000;fill-opacity:1;stroke:none;font-family:Transport Heavy;-inkscape-font-specification:'Transport Heavy,'">
          <path
             id="path24105"
             style="fill:#000000;fill-opacity:1;fill-rule:nonzero;stroke:none"
             d="m 0,0 0.724,0.241 0,3.7 4.825,1.447 0,0.644 -0.08,0.08 -0.081,0.161 -0.08,0.081 -0.161,0.08 -0.08,0 L 4.986,6.354 0.804,5.147 0.724,5.067 C 0.563,5.067 0.402,4.906 0.241,4.745 0.161,4.664 0.161,4.664 0.081,4.584 0.081,4.423 0,4.343 0,4.263 L 0,4.101 0,0 z" />
        </g>
        <g
           transform="matrix(4.9919783,0,0,-4.9941198,-689.7391,188.15066)"
           id="g24107"
           style="font-size:45.64504242px;font-style:normal;font-variant:normal;font-weight:normal;font-stretch:normal;text-align:start;line-height:100%;writing-mode:lr-tb;text-anchor:start;fill:#8f5545;fill-opacity:1;stroke:none;font-family:Transport Heavy;-inkscape-font-specification:'Transport Heavy,'">
          <path
             id="path24109"
             style="fill:#8f5545;fill-opacity:1;fill-rule:nonzero;stroke:none"
             d="M 0,0 -0.241,0 C -0.644,0 -1.046,0.16 -1.448,0.402 -1.77,0.643 -2.091,0.965 -2.252,1.367 -2.413,1.688 -2.493,1.93 -2.493,2.252 l 0,0.241 0,16.406 0,0.161 c 0,0.402 0.161,0.884 0.402,1.206 0.241,0.322 0.643,0.644 0.965,0.885 0.321,0.081 0.644,0.161 0.885,0.241 l 0.241,0 16.326,0 0.241,0 c 0.402,-0.08 0.885,-0.241 1.206,-0.482 0.403,-0.242 0.644,-0.563 0.805,-0.966 0.161,-0.321 0.241,-0.562 0.241,-0.884 l 0,-0.161 0,-16.406 0,-0.241 C 18.819,1.85 18.658,1.447 18.417,1.046 18.176,0.724 17.854,0.402 17.452,0.241 17.13,0.08 16.889,0 16.567,0 L 16.326,0 0,0 z" />
        </g>
        <g
           transform="matrix(4.9919783,0,0,-4.9941198,-682.91357,177.30642)"
           id="g24111"
           style="font-size:45.64504242px;font-style:normal;font-variant:normal;font-weight:normal;font-stretch:normal;text-align:start;line-height:100%;writing-mode:lr-tb;text-anchor:start;fill:#000000;fill-opacity:1;stroke:none;font-family:Transport Heavy;-inkscape-font-specification:'Transport Heavy,'">
          <path
             id="path24113"
             style="fill:#ffffff;fill-opacity:1;fill-rule:nonzero;stroke:none"
             d="m 0,0 13.592,0 0.16,0 0.081,0 0.08,0.08 0.08,0 0.081,0 0.08,0 0.081,0.08 0.08,0 0.081,0.081 0.08,0 0.081,0.081 0.08,0.08 0.08,0.08 0.081,0 0.08,0.081 0,0.08 0.08,0.081 0,0.08 0.081,0 0,0.08 0.081,0.081 0,0.081 0.08,0.08 0,0.08 0,0.081 0.08,0.08 0,0.08 0,0.081 0,0.08 0,0.08 0,13.592 0,0.161 0,0.08 0,0.081 -0.08,0.08 0,0.081 0,0.08 -0.08,0.08 0,0.081 0,0.081 -0.081,0 0,0.08 -0.081,0.08 -0.08,0.081 0,0.08 -0.08,0.08 -0.081,0.081 -0.08,0 -0.08,0.08 0,0.08 -0.081,0 -0.08,0 -0.081,0.082 -0.08,0 -0.081,0.08 -0.08,0 -0.081,0.08 -0.08,0 -0.08,0 -0.081,0 -0.16,0 -13.592,0 -0.081,0 -0.08,0 -0.08,0 -0.081,0 -0.08,0 0,-0.08 -0.081,0 -0.079,0 -0.081,-0.08 -0.081,0 -0.08,-0.082 -0.081,0 -0.08,-0.08 -0.081,-0.08 -0.08,0 -0.08,-0.081 0,-0.08 -0.081,-0.08 -0.08,-0.081 -0.081,-0.08 0,-0.08 -0.08,-0.081 0,-0.081 0,-0.08 -0.081,0 0,-0.08 0,-0.081 0,-0.08 -0.08,-0.081 0,-0.08 0,-0.161 0,-13.592 0,-0.08 0,-0.08 0,-0.081 0.08,-0.08 0,-0.08 0,-0.081 0.081,-0.08 0,-0.08 0,-0.081 0.08,0 0,-0.081 0,-0.08 0.081,0 0,-0.08 0.08,-0.081 0.081,-0.08 0,-0.081 0.08,0 0.08,-0.08 0.081,-0.08 0.08,0 0,-0.081 0.081,0 0.08,-0.081 0.081,0 0.081,-0.08 0.079,0 0.081,0 0.08,0 0.081,-0.08 0.08,0 0.08,0 L 0,0 z" />
        </g>
        <g
           transform="matrix(4.9919783,0,0,-4.9941198,-642.36621,161.64538)"
           id="g24115"
           style="font-size:45.64504242px;font-style:normal;font-variant:normal;font-weight:normal;font-stretch:normal;text-align:start;line-height:100%;writing-mode:lr-tb;text-anchor:start;fill:#000000;fill-opacity:1;stroke:none;font-family:Transport Heavy;-inkscape-font-specification:'Transport Heavy,'">
          <path
             id="path24117"
             style="fill:#000000;fill-opacity:1;fill-rule:nonzero;stroke:none"
             d="m 0,0 0.724,0.241 0,1.529 4.182,1.206 0,-1.528 0.724,0.241 0,3.458 -0.081,0.081 c 0,0.08 0,0.161 -0.08,0.241 l -0.161,0 c 0,0.08 -0.08,0.08 -0.08,0.08 l -0.161,0 L 0.724,4.263 0.643,4.182 C 0.482,4.182 0.322,4.022 0.241,3.861 0.161,3.781 0.081,3.7 0.081,3.619 0.081,3.539 0,3.458 0,3.298 L 0,3.217 0,0 z" />
        </g>
        <g
           transform="matrix(4.9919783,0,0,-4.9941198,-670.06769,126.29796)"
           id="g24119"
           style="font-size:45.64504242px;font-style:normal;font-variant:normal;font-weight:normal;font-stretch:normal;text-align:start;line-height:100%;writing-mode:lr-tb;text-anchor:start;fill:#000000;fill-opacity:1;stroke:none;font-family:Transport Heavy;-inkscape-font-specification:'Transport Heavy,'">
          <path
             id="path24121"
             style="fill:#000000;fill-opacity:1;fill-rule:nonzero;stroke:none"
             d="m 0,0 0.081,0 0.08,0 0.08,0 0.081,0 3.86,1.126 0.081,0 0,0.08 -0.081,0 -1.287,0.724 -0.08,0 -0.08,0 -0.081,0 -0.08,0 -3.78,-1.126 -0.081,0 0,-0.08 0,-0.081 L 0,0 z" />
        </g>
        <g
           transform="matrix(4.9919783,0,0,-4.9941198,-676.89125,135.53561)"
           id="g24123"
           style="font-size:45.64504242px;font-style:normal;font-variant:normal;font-weight:normal;font-stretch:normal;text-align:start;line-height:100%;writing-mode:lr-tb;text-anchor:start;fill:#000000;fill-opacity:1;stroke:none;font-family:Transport Heavy;-inkscape-font-specification:'Transport Heavy,'">
          <path
             id="path24125"
             style="fill:#000000;fill-opacity:1;fill-rule:nonzero;stroke:none"
             d="m 0,0 6.353,-3.217 0,1.689 0,0.161 c 0,0.161 0.081,0.402 0.243,0.562 0.079,0 0.159,0.081 0.24,0.162 0.08,0.08 0.161,0.08 0.241,0.16 l 0.161,0 3.297,0.965 L 6.514,2.574 1.608,1.126 0,2.011 0,0 z" />
        </g>
        <g
           transform="matrix(4.9919783,0,0,-4.9941198,-683.31592,139.9544)"
           id="g24127"
           style="font-size:45.64504242px;font-style:normal;font-variant:normal;font-weight:normal;font-stretch:normal;text-align:start;line-height:100%;writing-mode:lr-tb;text-anchor:start;fill:#000000;fill-opacity:1;stroke:none;font-family:Transport Heavy;-inkscape-font-specification:'Transport Heavy,'">
          <path
             id="path24129"
             style="fill:#000000;fill-opacity:1;fill-rule:nonzero;stroke:none"
             d="m 0,0 0.724,0.241 0,3.7 4.825,1.447 0,0.644 -0.08,0.08 -0.081,0.161 -0.08,0.081 -0.161,0.08 -0.08,0 L 4.986,6.354 0.804,5.147 0.724,5.067 C 0.563,5.067 0.402,4.905 0.241,4.745 0.161,4.664 0.161,4.664 0.081,4.584 0.081,4.423 0,4.343 0,4.263 L 0,4.101 0,0 z" />
        </g>
        <g
           transform="matrix(4.9919783,0,0,-4.9941198,-341.66041,359.25319)"
           id="g24131"
           style="font-size:45.64504242px;font-style:normal;font-variant:normal;font-weight:normal;font-stretch:normal;text-align:start;line-height:100%;writing-mode:lr-tb;text-anchor:start;fill:#8f5545;fill-opacity:1;stroke:none;font-family:Transport Heavy;-inkscape-font-specification:'Transport Heavy,'">
          <path
             id="path24133"
             style="fill:#8f5545;fill-opacity:1;fill-rule:nonzero;stroke:none"
             d="m 0,0 -0.161,0 c -0.402,0 -0.885,0.161 -1.206,0.483 -0.403,0.241 -0.644,0.563 -0.805,0.965 -0.16,0.241 -0.241,0.563 -0.241,0.885 l 0,0.16 0,16.407 0,0.161 c 0,0.482 0.161,0.884 0.402,1.206 0.241,0.402 0.563,0.643 0.965,0.885 0.322,0.08 0.563,0.16 0.885,0.241 l 0.161,0 16.406,0 0.242,0 c 0.402,-0.081 0.804,-0.241 1.206,-0.483 0.321,-0.241 0.643,-0.562 0.804,-0.965 0.161,-0.241 0.241,-0.563 0.241,-0.884 l 0,-0.161 0,-16.407 0,-0.16 C 18.899,1.85 18.738,1.448 18.497,1.046 18.256,0.724 17.854,0.402 17.532,0.241 17.21,0.081 16.889,0 16.648,0 L 16.406,0 0,0 z" />
        </g>
        <g
           transform="matrix(4.9919783,0,0,-4.9941198,-334.43454,348.00595)"
           id="g24135"
           style="font-size:45.64504242px;font-style:normal;font-variant:normal;font-weight:normal;font-stretch:normal;text-align:start;line-height:100%;writing-mode:lr-tb;text-anchor:start;fill:#000000;fill-opacity:1;stroke:none;font-family:Transport Heavy;-inkscape-font-specification:'Transport Heavy,'">
          <path
             id="path24137"
             style="fill:#ffffff;fill-opacity:1;fill-rule:nonzero;stroke:none"
             d="m 0,0 13.511,0 0.161,0 0.08,0 0.081,0 0.08,0 0.081,0 0.08,0.081 0.081,0 0.08,0.08 0.08,0 0.081,0 0.08,0.08 0.081,0.081 0.08,0 0.081,0.08 0,0.081 0.08,0.08 0.08,0 0.081,0.08 0,0.081 0.08,0.081 0,0.08 0.081,0.08 0,0.081 0,0.08 0.08,0.08 0,0.081 0,0.08 0,0.08 0,0.082 0.08,0.16 0,13.511 -0.08,0.161 0,0.081 0,0.08 0,0.08 0,0.081 -0.08,0.08 0,0.081 0,0.08 -0.081,0.08 0,0.081 -0.08,0.08 0,0.081 -0.081,0.08 -0.08,0.08 -0.08,0 0,0.081 -0.081,0.081 -0.08,0 -0.081,0.08 -0.08,0.08 -0.081,0 -0.08,0 -0.08,0.081 -0.081,0 -0.08,0.08 -0.081,0 -0.08,0 -0.081,0 -0.08,0 -0.161,0 -13.511,0 -0.161,0 -0.08,0 -0.081,0 -0.08,0 -0.08,0 0,-0.08 -0.081,0 -0.08,0 -0.081,-0.081 -0.08,0 -0.081,-0.08 -0.08,0 0,-0.08 -0.081,0 -0.08,-0.081 -0.08,-0.081 -0.081,0 0,-0.08 -0.08,-0.08 -0.08,-0.081 0,-0.08 -0.081,-0.081 0,-0.08 0,-0.08 -0.08,0 0,-0.081 0,-0.08 -0.081,-0.081 0,-0.08 0,-0.08 0,-0.081 0,-0.161 0,-13.511 0,-0.16 0,-0.082 0,-0.08 0,-0.08 0.081,-0.081 0,-0.08 0,-0.08 0.08,0 0,-0.081 0,-0.08 0.081,-0.08 0,-0.081 0.08,-0.081 0.08,-0.08 0.081,-0.08 0.08,-0.081 0.08,-0.08 0.081,0 0,-0.081 0.08,0 0.081,-0.08 0.08,0 0.081,-0.08 0.08,0 0.081,0 0,-0.081 0.08,0 0.08,0 0.081,0 0.08,0 L 0,0 z" />
        </g>
        <g
           transform="matrix(4.9919783,0,0,-4.9941198,-293.88518,332.7434)"
           id="g24139"
           style="font-size:45.64504242px;font-style:normal;font-variant:normal;font-weight:normal;font-stretch:normal;text-align:start;line-height:100%;writing-mode:lr-tb;text-anchor:start;fill:#000000;fill-opacity:1;stroke:none;font-family:Transport Heavy;-inkscape-font-specification:'Transport Heavy,'">
          <path
             id="path24141"
             style="fill:#000000;fill-opacity:1;fill-rule:nonzero;stroke:none"
             d="m 0,0 0.723,0.241 0,1.529 4.102,1.206 0,-1.448 0.724,0.161 0,3.458 0,0.161 c 0,0.08 -0.08,0.161 -0.161,0.161 0,0 0,0.08 -0.08,0.08 l -0.161,0 -0.08,0 -0.081,0 -4.263,-1.287 -0.08,0 C 0.482,4.182 0.322,4.021 0.161,3.86 0.161,3.86 0.08,3.78 0,3.619 L 0,3.378 0,3.217 0,0 z" />
        </g>
        <g
           transform="matrix(4.9919783,0,0,-4.9941198,-321.58668,297.39802)"
           id="g24143"
           style="font-size:45.64504242px;font-style:normal;font-variant:normal;font-weight:normal;font-stretch:normal;text-align:start;line-height:100%;writing-mode:lr-tb;text-anchor:start;fill:#000000;fill-opacity:1;stroke:none;font-family:Transport Heavy;-inkscape-font-specification:'Transport Heavy,'">
          <path
             id="path24145"
             style="fill:#000000;fill-opacity:1;fill-rule:nonzero;stroke:none"
             d="m 0,0 0.08,0 0.081,0 0.08,0 0.081,0 3.86,1.126 0,0.08 0,0.081 -1.367,0.643 -0.08,0 -0.081,0.081 -0.081,0 -0.08,-0.081 -3.78,-1.045 0,-0.081 -0.08,0 0,-0.08 0.08,0 L 0,0 z" />
        </g>
        <g
           transform="matrix(4.9919783,0,0,-4.9941198,-328.41223,306.63614)"
           id="g24147"
           style="font-size:45.64504242px;font-style:normal;font-variant:normal;font-weight:normal;font-stretch:normal;text-align:start;line-height:100%;writing-mode:lr-tb;text-anchor:start;fill:#000000;fill-opacity:1;stroke:none;font-family:Transport Heavy;-inkscape-font-specification:'Transport Heavy,'">
          <path
             id="path24149"
             style="fill:#000000;fill-opacity:1;fill-rule:nonzero;stroke:none"
             d="m 0,0 6.273,-3.217 0,1.769 0,0.081 c 0.08,0.161 0.161,0.402 0.321,0.563 0,0.08 0.081,0.16 0.161,0.16 0.081,0.081 0.161,0.162 0.322,0.162 l 0.081,0.08 3.377,0.884 L 6.514,2.574 1.608,1.126 0,2.01 0,0 z" />
        </g>
        <g
           transform="matrix(4.9919783,0,0,-4.9941198,-334.8369,311.05242)"
           id="g24151"
           style="font-size:45.64504242px;font-style:normal;font-variant:normal;font-weight:normal;font-stretch:normal;text-align:start;line-height:100%;writing-mode:lr-tb;text-anchor:start;fill:#000000;fill-opacity:1;stroke:none;font-family:Transport Heavy;-inkscape-font-specification:'Transport Heavy,'">
          <path
             id="path24153"
             style="fill:#000000;fill-opacity:1;fill-rule:nonzero;stroke:none"
             d="m 0,0 0.724,0.241 0,3.699 4.745,1.448 0,0.643 0,0.08 0,0.081 -0.08,0.081 -0.161,0.08 -0.161,0.081 -0.08,0 -4.183,-1.287 -0.16,0 C 0.483,5.066 0.322,4.905 0.241,4.825 0.161,4.745 0.081,4.664 0.081,4.584 0,4.503 0,4.342 0,4.262 L 0,4.182 0,0 z" />
        </g>
      </g>
    </g>
  </g>
</svg>
