<?xml version="1.0" encoding="UTF-8" standalone="no"?>
<!-- Created with Inkscape (http://www.inkscape.org/) -->

<svg
   xmlns:dc="http://purl.org/dc/elements/1.1/"
   xmlns:cc="http://creativecommons.org/ns#"
   xmlns:rdf="http://www.w3.org/1999/02/22-rdf-syntax-ns#"
   xmlns:svg="http://www.w3.org/2000/svg"
   xmlns="http://www.w3.org/2000/svg"
   xmlns:sodipodi="http://sodipodi.sourceforge.net/DTD/sodipodi-0.dtd"
   xmlns:inkscape="http://www.inkscape.org/namespaces/inkscape"
   version="1.0"
   width="834.08563"
   height="734.98938"
   id="svg2"
   sodipodi:version="0.32"
   inkscape:version="0.47 r22583"
   sodipodi:docname="ZZ.svg"
   inkscape:output_extension="org.inkscape.output.svg.inkscape">
  <metadata
     id="metadata12">
    <rdf:RDF>
      <cc:Work
         rdf:about="">
        <dc:format>image/svg+xml</dc:format>
        <dc:type
           rdf:resource="http://purl.org/dc/dcmitype/StillImage" />
        <dc:title />
      </cc:Work>
    </rdf:RDF>
  </metadata>
  <sodipodi:namedview
     inkscape:window-height="1004"
     inkscape:window-width="1280"
     inkscape:pageshadow="2"
     inkscape:pageopacity="0.0"
     guidetolerance="10.0"
     gridtolerance="10.0"
     objecttolerance="10.0"
     borderopacity="1.0"
     bordercolor="#666666"
     pagecolor="#ffffff"
     id="base"
     inkscape:zoom="0.21055556"
     inkscape:cx="1258.5553"
     inkscape:cy="607.73349"
     inkscape:window-x="-8"
     inkscape:window-y="-8"
     inkscape:current-layer="svg2"
     width="200px"
     height="200px"
     showgrid="false"
     inkscape:showpageshadow="false"
     inkscape:window-maximized="1" />
  <defs
     id="defs4">
    <inkscape:perspective
       sodipodi:type="inkscape:persp3d"
       inkscape:vp_x="0 : 450 : 1"
       inkscape:vp_y="0 : 1000 : 0"
       inkscape:vp_z="900 : 450 : 1"
       inkscape:persp3d-origin="450 : 300 : 1"
       id="perspective17" />
  </defs>
  <path
     sodipodi:nodetypes="cscssssssc"
     id="path3084"
     d="M 454.97828,22.43 C 447.54398,9.5545 432.99948,1.5 417.04268,1.5 c -16.2469,0 -30.7968,8.495 -38.3717,21.6152 L 8.0043801,665.1866 c -7.9552,13.7802 -9.1331,31.1377 -0.6229,45.8778 8.1234999,14.0703 22.7545999,22.425 37.9044999,22.425 l 743.51342,0 c 15.1499,0 29.781,-8.3548 37.9045,-22.425 8.5102,-14.74 7.333,-32.098 -0.623,-45.8778 L 454.97828,22.43 z"
     style="fill:#ffffff;fill-opacity:1;fill-rule:nonzero;stroke:#000000;stroke-width:3;stroke-linecap:round;stroke-linejoin:round;stroke-miterlimit:2;stroke-opacity:1;stroke-dasharray:none;stroke-dashoffset:0" />
  <path
     style="fill:#d40000;fill-opacity:1;fill-rule:nonzero;stroke:none"
     d="m 417.05288,16.5053 c 10.9092,0 20.385,5.5528 24.9376,13.4375 l 371.09372,642.75 c 5.549,9.6109 6.2861,21.0698 0.625,30.875 -5.5096,9.5428 -15.2711,14.9062 -24.9063,14.9063 l -743.53122,0 c -9.6352,0 -19.3966,-5.3633 -24.9062,-14.9063 -5.6611,-9.8052 -4.924,-21.2631 0.625,-30.875 L 391.64668,30.6303 c 4.8181,-8.3452 14.3881,-14.125 25.4062,-14.125 z"
     id="path3092" />
  <path
     style="fill:#ffffff;fill-opacity:1;fill-rule:nonzero;stroke:none"
     d="m 417.053,146.6928 -283.93752,491.7813 567.84372,0 L 417.053,146.6928 z"
     id="path3102" />
  <g
     id="g5634"
     transform="matrix(4.17043,0,0,4.17043,-913.98876,-48.694607)" />
  <path
     style="fill:#000000"
     d="m -2816.5588,889.49385 c 0,0 0,0 0,0 z"
     id="path2427" />
  <path
     style="fill:#000000"
     d="m -2819.5276,889.55635 0,0 z"
     id="path2429" />
  <path
     style="fill:#000000;fill-opacity:1;fill-rule:evenodd;stroke:none"
     d="m 274.86739,409.69151 -126.80863,219.53174 537.66341,0 -410.85478,-219.53174 z"
     id="path1884" />
  <g
     id="g4636"
     transform="matrix(4.1790358,-0.01692719,0.01692719,4.1790358,3.4267361,-48.785884)">
    <path
       style="font-size:36.22456741px;font-style:normal;font-weight:normal;fill:#000000;fill-opacity:1;stroke:none;font-family:Bitstream Vera Sans"
       d="m 80.888971,114.78349 -4.79575,-2.59807 7.283724,-13.463965 -4.038085,-2.18429 1.690391,-3.125015 c 0.617269,0.333916 1.228543,0.617469 1.833823,0.85066 0.605254,0.233221 1.145198,0.361829 1.619833,0.385827 0.561735,0.02683 1.046822,-0.07094 1.455248,-0.293319 0.408398,-0.222344 0.768879,-0.581451 1.081441,-1.077322 l 4.25671,2.30255 -10.387335,19.202944 z"
       id="path4608"
       sodipodi:nodetypes="cccccsssccc" />
    <path
       style="font-size:36.22456741px;font-style:normal;font-weight:normal;fill:#000000;fill-opacity:1;stroke:none;font-family:Bitstream Vera Sans"
       d="m 114.76852,113.60462 c 0.72809,-1.34601 1.68585,-2.30738 2.87329,-2.88411 1.18742,-0.57669 2.42414,-0.51723 3.71017,0.17838 1.18312,0.64001 1.93423,1.59209 2.25334,2.85625 0.31908,1.2642 0.0357,2.71505 -0.85,4.35257 -0.86262,1.59466 -1.91918,2.61064 -3.16971,3.04792 -1.25056,0.4373 -2.45024,0.34524 -3.59907,-0.27621 -1.14028,-0.61678 -1.86022,-1.55478 -2.15985,-2.81398 -0.29963,-1.25918 0.0143,-2.74612 0.94183,-4.46082 l 0,0 z m 5.78517,-1.07629 c -0.57443,-0.31069 -1.18688,-0.32061 -1.83736,-0.0297 -0.65052,0.2909 -1.33518,1.10078 -2.05398,2.42965 -0.65391,1.20886 -0.92129,2.16412 -0.80213,2.86578 0.11913,0.70167 0.46162,1.20553 1.02748,1.5116 0.58299,0.31537 1.19973,0.3276 1.85024,0.0367 0.65048,-0.29089 1.33282,-1.09648 2.04702,-2.4168 0.65852,-1.21741 0.92821,-2.17696 0.80908,-2.87863 -0.11915,-0.70166 -0.46594,-1.20784 -1.04035,-1.51858 l 0,0 z m -9.87209,18.28123 21.06138,-14.28994 1.87759,1.01563 -21.02281,14.31081 -1.91616,-1.0365 z m 10.92195,-0.70802 c 0.73273,-1.3546 1.69165,-2.31812 2.87677,-2.89054 1.1851,-0.57241 2.42495,-0.5085 3.71956,0.19178 1.18311,0.63998 1.93422,1.59206 2.25335,2.85625 0.31906,1.26417 0.0357,2.71503 -0.85002,4.35256 -0.86262,1.59465 -1.91918,2.61062 -3.16969,3.04793 -1.25057,0.43728 -2.45455,0.34289 -3.61194,-0.28317 -1.14029,-0.61681 -1.85908,-1.55694 -2.15637,-2.82042 -0.29732,-1.26348 0.0155,-2.74828 0.93834,-4.45439 l 0,0 z m 5.79805,-1.06932 c -0.58302,-0.31536 -1.19977,-0.32759 -1.85024,-0.0367 -0.65052,0.29088 -1.33518,1.10077 -2.05397,2.42965 -0.64928,1.20028 -0.9155,2.15339 -0.79866,2.85934 0.11682,0.70595 0.45814,1.21196 1.02401,1.51805 0.59155,0.31998 1.21258,0.33454 1.86309,0.0437 0.65048,-0.29089 1.33283,-1.09649 2.04702,-2.41679 0.65852,-1.21743 0.92822,-2.17698 0.80909,-2.87863 -0.11917,-0.70167 -0.46595,-1.20786 -1.04034,-1.51857 l 0,0 z"
       id="path4612"
       sodipodi:nodetypes="cssssssscccsssssssccccccccssssssscccssssssscc" />
    <path
       id="path4629"
       d="m 104.62615,101.81548 c -1.40451,-0.76341 -2.72353,-1.20239 -3.96216,-1.33206 -1.238659,-0.12964 -2.397956,0.0438 -3.48786,0.53854 -1.094593,0.50338 -2.12722,1.30446 -3.084044,2.37083 -0.956847,1.06639 -1.892551,2.41812 -2.795618,4.07952 -0.875142,1.61003 -1.519041,3.12878 -1.913728,4.52845 -0.394699,1.39968 -0.489792,2.6937 -0.312249,3.87745 0.168978,1.17908 0.630921,2.25305 1.408726,3.23054 0.777791,0.97749 1.889478,1.84864 3.319666,2.62603 1.455866,0.79134 2.808776,1.25429 4.032632,1.37036 1.22383,0.11605 2.355595,-0.0779 3.440885,-0.56408 1.05881,-0.47843 2.07808,-1.27012 3.06055,-2.38359 0.98241,-1.11349 1.92046,-2.4695 2.79562,-4.07952 0.87512,-1.61003 1.51555,-3.12241 1.90096,-4.50497 0.38536,-1.38254 0.49193,-2.6621 0.32296,-3.84118 -0.16826,-1.20086 -0.63763,-2.28156 -1.39595,-3.25403 -0.75837,-0.97245 -1.86597,-1.86628 -3.33039,-2.66229 z m -1.9152,3.52345 c 1.40662,0.76461 2.1546,1.81332 2.2258,3.12693 0.0711,1.31362 -0.54001,3.12079 -1.80144,5.44153 -1.24745,2.29493 -2.43323,3.76491 -3.597382,4.43489 -1.16419,0.66997 -2.45287,0.64467 -3.836612,-0.10747 -1.383784,-0.75216 -2.105851,-1.81982 -2.176769,-3.16114 -0.07093,-1.34132 0.514317,-3.12956 1.752411,-5.40731 1.270779,-2.33792 2.481836,-3.82717 3.622918,-4.48188 1.141044,-0.65468 2.404414,-0.61012 3.811074,0.15445 z"
       style="font-size:12px;font-style:normal;font-weight:normal;fill:#000000;fill-opacity:1;stroke:none;font-family:Bitstream Vera Sans" />
  </g>
</svg>
