<?xml version="1.0" encoding="UTF-8" standalone="no"?>
<!-- Created with Inkscape (http://www.inkscape.org/) -->

<svg
   xmlns:dc="http://purl.org/dc/elements/1.1/"
   xmlns:cc="http://creativecommons.org/ns#"
   xmlns:rdf="http://www.w3.org/1999/02/22-rdf-syntax-ns#"
   xmlns:svg="http://www.w3.org/2000/svg"
   xmlns="http://www.w3.org/2000/svg"
   xmlns:sodipodi="http://sodipodi.sourceforge.net/DTD/sodipodi-0.dtd"
   xmlns:inkscape="http://www.inkscape.org/namespaces/inkscape"
   version="1.0"
   width="600"
   height="600.1004"
   id="svg2"
   sodipodi:version="0.32"
   inkscape:version="0.47 r22583"
   sodipodi:docname="Italian_traffic_signs_-_distanziamento_minimo_obbligatorio.svg"
   inkscape:output_extension="org.inkscape.output.svg.inkscape">
  <metadata
     id="metadata12">
    <rdf:RDF>
      <cc:Work
         rdf:about="">
        <dc:format>image/svg+xml</dc:format>
        <dc:type
           rdf:resource="http://purl.org/dc/dcmitype/StillImage" />
      </cc:Work>
    </rdf:RDF>
  </metadata>
  <sodipodi:namedview
     inkscape:window-height="1003"
     inkscape:window-width="1280"
     inkscape:pageshadow="2"
     inkscape:pageopacity="0.0"
     guidetolerance="10.0"
     gridtolerance="10.0"
     objecttolerance="10.0"
     borderopacity="1.0"
     bordercolor="#666666"
     pagecolor="#ffffff"
     id="base"
     inkscape:zoom="0.44"
     inkscape:cx="105.63493"
     inkscape:cy="518.39831"
     inkscape:window-x="0"
     inkscape:window-y="0"
     inkscape:current-layer="svg2"
     width="200px"
     height="200px"
     showgrid="false"
     inkscape:showpageshadow="false"
     inkscape:window-maximized="0" />
  <defs
     id="defs4" />
  <g
     id="g1882"
     transform="matrix(2.9999992,0,0,2.9999992,-776.09446,52.58811)" />
  <g
     id="g2461"
     transform="matrix(2.9999992,0,0,2.9999992,-471.70576,24.59093)" />
  <path
     d="m 600.00001,300.05022 c 0.0277,165.70502 -134.29498,300.05021 -300,300.05021 C 134.29497,600.10043 -0.02772571,465.75524 4.2927282e-6,300.05022 -0.02772571,134.34518 134.29497,0 300.00001,0 c 165.70502,0 300.02773,134.34518 300,300.05022 l 0,0 z"
     style="fill:#000000;fill-opacity:1;fill-rule:evenodd;stroke:none"
     id="path1873" />
  <path
     d="m 596.99995,300.05021 c 0,164.02853 -132.97139,296.99993 -296.99993,296.99993 -164.02854,0 -296.9999357,-132.9714 -296.9999357,-296.99993 0,-164.02854 132.9713957,-296.99994 296.9999357,-296.99994 164.02854,0 296.99993,132.9714 296.99993,296.99994 l 0,0 z"
     style="fill:#ffffff;fill-opacity:1;fill-rule:evenodd;stroke:none"
     id="path1875" />
  <path
     id="path1882"
     style="fill:#d40000;fill-opacity:1;fill-rule:evenodd;stroke:none"
     d="m 300.00001,9.05028 c -160.71485,0 -290.9999157,130.28507 -290.9999157,290.99992 0,160.71485 130.2850757,290.99989 290.9999157,290.99992 160.71485,0 290.99989,-130.28507 290.99992,-290.99992 0,-160.71486 -130.28507,-290.99992 -290.99992,-290.99992 z m 0,74.99998 c 119.23194,0 215.99994,96.76797 215.99994,215.99994 0,119.23197 -96.768,215.99994 -215.99994,215.99994 -119.23193,0 -215.999936,-96.76797 -215.999936,-215.99994 -1e-5,-119.23198 96.767996,-215.99994 215.999936,-215.99994 z" />
  <path
     style="fill:#000000;fill-opacity:1;fill-rule:evenodd;stroke:none"
     d="m 465.84372,197.30023 -59.71874,62.81248 51.56249,0 24.28124,-47.81249 8.8125,0 c -2.36934,-5.13976 -4.9251,-10.09404 -7.6875,-14.99999 l -17.24999,0 z m -352.49991,6.5625 c -1.7565,3.3982 -3.39557,6.80944 -4.96875,10.31249 l 48.56249,45.65624 16.03124,0 -59.62498,-55.96873 z m -20.156236,60.28123 c -2.01691,11.67942 -3.1875,23.6535 -3.1875,35.90624 0,1.25997 0.0716,2.49528 0.0937,3.75 l 90.562466,0 c 3.18569,-0.76158 6.51955,-1.21875 9.9375,-1.21875 3.41795,0 6.75181,0.4572 9.9375,1.21875 l 84.56247,0 0,-28.40624 -115.12497,-11.25 -76.781216,0 z m 228.468676,0 -9.93749,37.40624 0.46875,2.25 108.28122,0 c 3.20349,-0.77064 6.49863,-1.21875 9.9375,-1.21875 3.41795,0 6.75179,0.4572 9.93749,1.21875 l 69.56248,0 c 0.0221,-1.25472 0.0937,-2.49003 0.0937,-3.75 0,-12.25274 -1.1706,-24.22682 -3.1875,-35.90624 l -185.1562,0 z M 190.59379,310.3627 c -19.2096,0 -34.78125,15.66539 -34.78124,34.87499 0,19.20959 15.57164,34.78124 34.78124,34.78124 19.2096,0 34.78124,-15.57165 34.78124,-34.78124 0,-19.2096 -15.57164,-34.87499 -34.78124,-34.87499 z m 239.81244,0 c -19.2096,0 -34.78125,15.66539 -34.78125,34.87499 0,19.20959 15.57165,34.78124 34.78125,34.78124 19.20959,0 34.78124,-15.57165 34.78124,-34.78124 0,-19.2096 -15.57165,-34.87499 -34.78124,-34.87499 z m -339.937406,3.09375 c 0.84247,13.32632 2.97054,26.36741 6.18749,38.90624 l 52.031236,0 c -0.39804,-2.33775 -0.65625,-4.76817 -0.65625,-7.21875 0,-12.62235 5.51728,-23.88624 14.25,-31.68749 l -71.812476,0 z m 128.437456,0 c 8.73272,7.80125 14.25,19.15889 14.25,31.78124 0,1.43748 -0.0482,2.81775 -0.1875,4.21875 l 33.74999,-2.34375 16.40624,-33.65624 -64.21873,0 z m 95.43748,0 7.49999,33.65624 66.65624,5.25 c -0.39804,-2.33775 -0.65625,-4.76817 -0.65625,-7.21875 0,-12.62235 5.51727,-23.88624 14.24999,-31.68749 l -87.74997,0 z m 144.46871,0 c 8.71497,7.80041 14.24999,19.17362 14.24999,31.78124 0,2.45058 -0.35196,4.78725 -0.75,7.125 l 31.03125,0 c 3.21695,-12.53883 5.34503,-25.57992 6.18749,-38.90624 l -50.71873,0 z m -268.21868,16.03124 c 8.66151,0 15.65624,7.08849 15.65624,15.75 0,8.66151 -6.99472,15.65624 -15.65624,15.65624 -8.66152,0 -15.65625,-6.99473 -15.65625,-15.65624 10e-6,-8.66154 6.99473,-15.75 15.65625,-15.75 z m 239.81244,0 c 8.6615,0 15.65624,7.08849 15.65624,15.75 0,8.66151 -6.99474,15.65624 -15.65624,15.65624 -8.66151,0 -15.65625,-6.99473 -15.65625,-15.65624 0,-8.66154 6.99474,-15.75 15.65625,-15.75 z"
     id="path1909"
     sodipodi:nodetypes="cccccccccccccsccscccccccccsccscccsssccsssccccscccscccccccscccscccccsssccsssc" />
  <g
     id="g2665"
     transform="translate(-149.99999,-149.94979)">
    <path
       style="fill:#000000;fill-opacity:1;fill-rule:nonzero;stroke:none"
       d="m 497.0225,322.12676 c -6.86569,0 -11.48084,4.18897 -11.48084,4.18897 l -0.5393,-3.73829 -10.61646,0 0,43.02727 11.15576,0 0,-22.45929 c 0,-5.14705 1.94271,-10.62384 8.7547,-10.62384 6.78028,0 7.80902,6.11727 7.80902,10.21012 l 0,22.87301 11.16318,0 0,-22.88779 c 0,-4.1358 2.14673,-10.18796 8.86551,-10.18796 6.45946,0 7.63912,5.23918 7.63912,8.45179 l 0,24.62396 11.15576,0 c 0,-9.18072 0,-18.36146 0,-27.54218 0,-9.9644 -7.0707,-15.93574 -16.14263,-15.93577 -7.45397,0 -12.40268,4.68579 -14.36949,6.494 -2.98469,-3.16584 -6.56035,-6.49397 -13.39433,-6.494 z"
       id="rect10784"
       sodipodi:nodetypes="cccccccsccccsccccscs" />
    <path
       style="fill:#000000;fill-opacity:1;fill-rule:evenodd;stroke:none"
       d="m 354.71906,304.84211 0,11.61271 29.73799,0 -20.95979,49.14989 13.19082,0 21.11641,-49.32195 0,-11.44065 -43.08543,0 z"
       id="path1929"
       sodipodi:nodetypes="cccccccc" />
    <path
       style="fill:#000000;fill-opacity:1;fill-rule:nonzero;stroke:none"
       d="m 428.90615,303.49598 c -17.56334,-2e-5 -25.70261,14.20883 -25.70258,31.72374 0,17.51487 8.72531,31.73113 25.70258,31.73113 17.06712,0 25.70995,-14.21626 25.70997,-31.73113 0,-17.51489 -8.23653,-31.72374 -25.70997,-31.72374 z m 0,11.76895 c 10.40224,0 12.98796,8.93976 12.98796,19.95479 3e-5,11.01501 -2.61256,19.95477 -12.98796,19.95477 -10.46531,0 -12.98798,-8.93973 -12.98798,-19.95477 0,-11.01504 2.49584,-19.95479 12.98798,-19.95479 z"
       id="path3703" />
  </g>
</svg>
