<?xml version="1.0" encoding="UTF-8" standalone="no"?>
<!-- Created with Inkscape (http://www.inkscape.org/) -->

<svg
   xmlns:dc="http://purl.org/dc/elements/1.1/"
   xmlns:cc="http://creativecommons.org/ns#"
   xmlns:rdf="http://www.w3.org/1999/02/22-rdf-syntax-ns#"
   xmlns:svg="http://www.w3.org/2000/svg"
   xmlns="http://www.w3.org/2000/svg"
   xmlns:sodipodi="http://sodipodi.sourceforge.net/DTD/sodipodi-0.dtd"
   xmlns:inkscape="http://www.inkscape.org/namespaces/inkscape"
   version="1.0"
   width="600"
   height="600"
   id="svg2"
   sodipodi:version="0.32"
   inkscape:version="0.47 r22583"
   sodipodi:docname="Italian_traffic_signs_-_divieto_di_transito_a_tutti_gli_autoveicoli.svg"
   inkscape:output_extension="org.inkscape.output.svg.inkscape">
  <metadata
     id="metadata12">
    <rdf:RDF>
      <cc:Work
         rdf:about="">
        <dc:format>image/svg+xml</dc:format>
        <dc:type
           rdf:resource="http://purl.org/dc/dcmitype/StillImage" />
        <dc:title />
      </cc:Work>
    </rdf:RDF>
  </metadata>
  <sodipodi:namedview
     inkscape:window-height="1003"
     inkscape:window-width="1280"
     inkscape:pageshadow="2"
     inkscape:pageopacity="0.0"
     guidetolerance="10.0"
     gridtolerance="10.0"
     objecttolerance="10.0"
     borderopacity="1.0"
     bordercolor="#666666"
     pagecolor="#ffffff"
     id="base"
     inkscape:zoom="0.42111111"
     inkscape:cx="86.470366"
     inkscape:cy="183.84281"
     inkscape:window-x="-4"
     inkscape:window-y="-4"
     inkscape:current-layer="svg2"
     width="200px"
     height="200px"
     showgrid="false"
     inkscape:showpageshadow="false"
     inkscape:window-maximized="0" />
  <defs
     id="defs4" />
  <path
     sodipodi:type="arc"
     style="fill:#ffffff;fill-opacity:1;fill-rule:nonzero;stroke:#000000;stroke-width:2.60216475;stroke-linecap:round;stroke-linejoin:round;stroke-miterlimit:2;stroke-opacity:1;stroke-dasharray:none;stroke-dashoffset:0"
     id="path2367"
     sodipodi:cx="-319.62656"
     sodipodi:cy="-458.85416"
     sodipodi:rx="258.91537"
     sodipodi:ry="258.91537"
     d="m -60.711182,-458.85416 a 258.91537,258.91537 0 1 1 -517.830748,0 258.91537,258.91537 0 1 1 517.830748,0 z"
     transform="matrix(1.1528863,0,0,1.1528863,668.49307,829.00666)" />
  <path
     transform="matrix(1.1200571,0,0,1.1200571,657.99998,813.94285)"
     d="m -60.711182,-458.85416 a 258.91537,258.91537 0 1 1 -517.830748,0 258.91537,258.91537 0 1 1 517.830748,0 z"
     sodipodi:ry="258.91537"
     sodipodi:rx="258.91537"
     sodipodi:cy="-458.85416"
     sodipodi:cx="-319.62656"
     id="path2954"
     style="fill:#d40000;fill-opacity:1;fill-rule:nonzero;stroke:none"
     sodipodi:type="arc" />
  <path
     sodipodi:type="arc"
     style="fill:#ffffff;fill-opacity:1;fill-rule:nonzero;stroke:none"
     id="path2956"
     sodipodi:cx="-319.62656"
     sodipodi:cy="-458.85416"
     sodipodi:rx="258.91537"
     sodipodi:ry="258.91537"
     d="m -60.711182,-458.85416 a 258.91537,258.91537 0 1 1 -517.830748,0 258.91537,258.91537 0 1 1 517.830748,0 z"
     transform="matrix(0.8303871,0,0,0.8303871,565.41376,681.02656)" />
  <path
     style="fill:#000000;fill-opacity:1;fill-rule:evenodd;stroke:none"
     d="m 222.18751,206.71874 c -12.02631,0.98767 -19.57214,8.38351 -23.71874,18.75 l -19.3125,49.21874 15.5625,-1.03125 16.96874,-43.12499 c 1.55499,-3.62827 5.70551,-7.16916 10.5,-7.6875 44.76701,-5.89367 104.59647,-6.21939 155.71871,0 4.79448,0.51834 8.85126,4.05923 10.40625,7.6875 l 16.96874,43.12499 15.5625,1.03125 -19.3125,-49.21874 c -4.14663,-10.36649 -11.71925,-17.54927 -23.62499,-18.75 -44.85164,-4.52341 -105.92629,-4.08921 -155.71871,0 z m 77.81248,62.99999 c -35.39855,0.16437 -70.71852,3.32294 -105.84372,7.59375 -14.66471,2.05228 -24.29214,5.23537 -29.53124,13.78124 -10.19916,16.63671 -4.29703,43.21874 20.53124,43.21874 l 101.34372,0 27,0 101.34372,0 c 24.82826,0 30.7304,-26.58203 20.53124,-43.21874 -5.2391,-8.54587 -14.86652,-10.60396 -29.53124,-12.65625 -35.1515,-3.84883 -70.43662,-8.88316 -105.84372,-8.71874 z m -108.65622,19.03124 c 10.15941,0 18.37499,8.2156 18.37499,18.375 0,10.15937 -8.21558,18.46877 -18.37499,18.46874 -10.15938,0 -18.46874,-8.30937 -18.46875,-18.46874 0,-10.15939 8.30937,-18.37505 18.46875,-18.375 z m 217.40619,0 c 10.15938,-5e-5 18.375,8.21561 18.375,18.375 -3e-5,10.15937 -8.21562,18.46874 -18.375,18.46874 -10.15941,3e-5 -18.46874,-8.30937 -18.46874,-18.46874 0,-10.1594 8.30933,-18.375 18.46874,-18.375 z m -244.12493,49.78124 c -2.58435,0 -4.6875,2.0094 -4.6875,4.59375 l 0,6.1875 c 0,2.58435 2.10315,4.78124 4.6875,4.78124 l 8.99999,0 0,28.96875 c 0,3.96486 3.25384,7.21874 7.21875,7.21874 l 27.46874,0 c 3.96491,0 7.21875,-3.25382 7.21875,-7.21874 l 0,-28.96875 59.62499,0 49.78123,0 59.62499,0 0,28.96875 c 0,3.96492 3.16011,7.21874 7.125,7.21874 l 27.46874,0 c 3.96492,0 7.21875,-3.25388 7.21875,-7.21874 l 0,-28.96875 8.99999,0 c 2.58432,0 4.6875,-2.19689 4.6875,-4.78124 l 0,-6.1875 c 0,-2.58435 -2.10315,-4.59375 -4.6875,-4.59375 l -119.53121,0 -31.6875,0 -119.53121,0 z"
     id="path2001"
     sodipodi:nodetypes="cccccccccccssccsccccscccsssccssscccccccccccccccccccccccccc" />
</svg>
