<?xml version="1.0" encoding="UTF-8" standalone="no"?>
<!-- Created with Inkscape (http://www.inkscape.org/) -->
<svg
   xmlns:dc="http://purl.org/dc/elements/1.1/"
   xmlns:cc="http://web.resource.org/cc/"
   xmlns:rdf="http://www.w3.org/1999/02/22-rdf-syntax-ns#"
   xmlns:svg="http://www.w3.org/2000/svg"
   xmlns="http://www.w3.org/2000/svg"
   xmlns:sodipodi="http://sodipodi.sourceforge.net/DTD/sodipodi-0.dtd"
   xmlns:inkscape="http://www.inkscape.org/namespaces/inkscape"
   version="1.0"
   width="200"
   height="200"
   id="svg2"
   sodipodi:version="0.32"
   inkscape:version="0.44.1"
   sodipodi:docname="Italian traffic signs - divieto di transito alle biciclette.svg"
   sodipodi:docbase="C:\Documents and Settings\Flanker\Desktop\Temporanei\Segnali">
  <metadata
     id="metadata9">
    <rdf:RDF>
      <cc:Work
         rdf:about="">
        <dc:format>image/svg+xml</dc:format>
        <dc:type
           rdf:resource="http://purl.org/dc/dcmitype/StillImage" />
      </cc:Work>
    </rdf:RDF>
  </metadata>
  <sodipodi:namedview
     inkscape:window-height="1003"
     inkscape:window-width="1280"
     inkscape:pageshadow="2"
     inkscape:pageopacity="0.0"
     guidetolerance="10.0"
     gridtolerance="10.0"
     objecttolerance="10.0"
     borderopacity="1.0"
     bordercolor="#666666"
     pagecolor="#ffffff"
     id="base"
     inkscape:zoom="4.035"
     inkscape:cx="100"
     inkscape:cy="100"
     inkscape:window-x="-4"
     inkscape:window-y="-4"
     inkscape:current-layer="svg2" />
  <defs
     id="defs5" />
  <path
     d="M 200.00003,100 C 200.00927,155.22577 155.23503,200 99.999998,200 C 44.764971,200 -0.0092736868,155.22577 -2.9055205e-005,100 C -0.0092736868,44.774233 44.764971,7.700001e-008 99.999998,7.700001e-008 C 155.23503,7.700001e-008 200.00927,44.774233 200.00003,100 L 200.00003,100 z "
     style="fill:black;fill-opacity:1;fill-rule:evenodd;stroke:none;stroke-width:6.5;stroke-linecap:butt;stroke-linejoin:round;stroke-miterlimit:4;stroke-dasharray:none"
     id="path1873" />
  <path
     d="M 55.172415 -13.793103 A 26.5252 26.5252 0 1 1  2.122015,-13.793103 A 26.5252 26.5252 0 1 1  55.172415 -13.793103 z"
     transform="matrix(3.7323,0,0,3.7323,-6.92,151.48)"
     style="fill:white;fill-opacity:1;fill-rule:evenodd;stroke:none;stroke-width:6.5;stroke-linecap:butt;stroke-linejoin:round;stroke-miterlimit:4;stroke-dasharray:none"
     id="path1875" />
  <path
     d="M -125.19894 -42.440319 A 12.997348 12.732096 0 1 1  -151.19364,-42.440319 A 12.997348 12.732096 0 1 1  -125.19894 -42.440319 z"
     transform="matrix(7.463061,0,0,7.618542,1131.367,423.3334)"
     style="fill:#d40000;fill-opacity:1;fill-rule:evenodd;stroke:none;stroke-width:6.5;stroke-linecap:butt;stroke-linejoin:round;stroke-miterlimit:4;stroke-dasharray:none"
     id="path1877" />
  <path
     sodipodi:type="arc"
     style="fill:white;fill-opacity:1;fill-rule:evenodd;stroke:none;stroke-width:6.5;stroke-linecap:butt;stroke-linejoin:round;stroke-miterlimit:4;stroke-dasharray:none"
     id="path1874"
     sodipodi:cx="76.92308"
     sodipodi:cy="89.655174"
     sodipodi:rx="40.318302"
     sodipodi:ry="34.482758"
     d="M 117.24138 89.655174 A 40.318302 34.482758 0 1 1  36.604778,89.655174 A 40.318302 34.482758 0 1 1  117.24138 89.655174 z"
     transform="matrix(1.785789,0,0,2.088,-37.36839,-87.2)" />
  <path
     style="fill:black;fill-opacity:1;fill-rule:evenodd;stroke:none;stroke-width:0.5;stroke-linecap:round;stroke-linejoin:round;stroke-miterlimit:4;stroke-dasharray:none;stroke-opacity:1"
     d="M 80.78125 70.25 C 79.900188 70.249999 79.126037 70.438531 78.46875 70.8125 C 77.811465 71.186466 77.30034 71.766953 77.0625 72.40625 C 76.586824 73.684847 76.872883 74.980518 77.25 76.15625 C 77.872245 78.096205 78.755943 79.301596 79.125 79.875 L 70.15625 95.3125 C 67.133551 93.719915 63.682606 92.812501 60.03125 92.8125 C 48.026794 92.8125 38.281251 102.55804 38.28125 114.5625 C 38.28125 126.56696 48.026795 136.31249 60.03125 136.3125 C 72.035706 136.3125 81.781251 126.56695 81.78125 114.5625 C 81.78125 107.15746 78.06559 100.61617 72.40625 96.6875 L 75.46875 91.375 L 100.34375 111.40625 C 100.00946 112.01966 99.834896 112.72579 99.875 113.4375 L 100.0625 117.46875 C 100.17933 119.60018 102.02359 121.24817 104.15625 121.15625 L 119.03125 120.40625 C 121.58723 129.57536 129.98909 136.31249 139.96875 136.3125 C 151.97322 136.3125 161.71875 126.56695 161.71875 114.5625 C 161.71876 102.55804 151.97321 92.812502 139.96875 92.8125 C 136.39242 92.8125 133.00864 93.686789 130.03125 95.21875 L 124.375 85.90625 L 127.65625 80.375 C 128.07365 80.422197 128.46764 80.472054 128.875 80.46875 C 130.53124 80.455291 132.09185 79.585269 132.96875 78.46875 C 133.18797 78.189618 133.42077 77.911973 133.5 77.53125 C 133.5792 77.150528 133.48452 76.670715 133.21875 76.3125 C 132.6872 75.596073 131.85323 75.406248 130.6875 75.40625 C 127.2515 75.40625 124.04732 75.891132 120.71875 76.71875 C 120.31666 76.78328 120.05384 77.124647 120.03125 77.53125 C 120.00866 77.937851 120.23252 78.297581 120.625 78.40625 C 122.04198 78.892525 123.4812 79.465841 124.9375 79.875 L 121.71875 85.3125 L 78.9375 85.3125 L 81.71875 80.5625 C 81.961278 80.136278 81.927564 79.627253 81.65625 79.21875 C 81.656247 79.218753 80.338095 77.177243 79.75 75.34375 C 79.455955 74.427002 79.391825 73.634515 79.5 73.34375 C 79.554089 73.198368 79.60278 73.146261 79.75 73.0625 C 79.897222 72.978735 80.21268 72.875 80.78125 72.875 L 92.59375 72.875 C 93.319591 72.874997 93.90625 72.288344 93.90625 71.5625 C 93.906249 70.836659 93.319595 70.25 92.59375 70.25 L 80.78125 70.25 z M 77.5 87.90625 L 120.15625 87.90625 L 107.3125 109.53125 L 104.0625 109.28125 C 103.91828 109.27323 103.73795 109.27323 103.59375 109.28125 C 103.1229 109.30019 102.69526 109.43679 102.28125 109.625 L 76.78125 89.0625 L 77.5 87.90625 z M 122.875 88.40625 L 127.78125 96.53125 C 123.12903 99.683265 119.75852 104.60571 118.625 110.3125 L 110.15625 109.71875 L 122.875 88.40625 z M 60.03125 96.34375 C 63.048824 96.34375 65.898885 97.074024 68.40625 98.375 L 60.6875 111.65625 C 60.490258 111.61586 60.302875 111.5625 60.09375 111.5625 C 58.420709 111.5625 57.0625 112.92071 57.0625 114.59375 C 57.062501 116.26681 58.420708 117.65625 60.09375 117.65625 C 61.766794 117.65625 63.125 116.26681 63.125 114.59375 C 63.124999 114.10089 63.021519 113.66149 62.8125 113.25 L 70.625 99.75 C 75.241851 103.05645 78.25 108.45611 78.25 114.5625 C 78.250002 124.61752 70.086268 132.78125 60.03125 132.78125 C 49.976233 132.78125 41.8125 124.61752 41.8125 114.5625 C 41.8125 104.50748 49.976232 96.34375 60.03125 96.34375 z M 139.96875 96.34375 C 150.02378 96.34375 158.1875 104.50748 158.1875 114.5625 C 158.18751 124.61752 150.02377 132.78125 139.96875 132.78125 C 131.90318 132.78125 125.0506 127.51828 122.65625 120.25 L 138.21875 119.46875 L 138.75 119.46875 C 140.88363 119.45729 142.64142 117.72737 142.65625 115.59375 C 142.66772 113.94021 141.61637 112.53678 140.15625 111.96875 L 131.84375 98.25 C 134.28981 97.028331 137.05087 96.34375 139.96875 96.34375 z M 129.625 99.59375 L 136.875 111.5625 L 122.1875 110.5625 C 123.20788 106.037 125.92801 102.15202 129.625 99.59375 z "
     id="path2053" />
</svg>
