<?xml version="1.0" encoding="UTF-8" standalone="no"?>
<!-- Created with Inkscape (http://www.inkscape.org/) -->
<svg
   xmlns:dc="http://purl.org/dc/elements/1.1/"
   xmlns:cc="http://web.resource.org/cc/"
   xmlns:rdf="http://www.w3.org/1999/02/22-rdf-syntax-ns#"
   xmlns:svg="http://www.w3.org/2000/svg"
   xmlns="http://www.w3.org/2000/svg"
   xmlns:sodipodi="http://sodipodi.sourceforge.net/DTD/sodipodi-0.dtd"
   xmlns:inkscape="http://www.inkscape.org/namespaces/inkscape"
   version="1.0"
   width="200"
   height="200"
   id="svg2"
   sodipodi:version="0.32"
   inkscape:version="0.44.1"
   sodipodi:docname="Italian traffic signs - divieto di sorpazzo.svg"
   sodipodi:docbase="C:\Documents and Settings\Flanker\Desktop\Temporanei\Segnali">
  <metadata
     id="metadata9">
    <rdf:RDF>
      <cc:Work
         rdf:about="">
        <dc:format>image/svg+xml</dc:format>
        <dc:type
           rdf:resource="http://purl.org/dc/dcmitype/StillImage" />
      </cc:Work>
    </rdf:RDF>
  </metadata>
  <sodipodi:namedview
     inkscape:window-height="1003"
     inkscape:window-width="1280"
     inkscape:pageshadow="2"
     inkscape:pageopacity="0.0"
     guidetolerance="10.0"
     gridtolerance="10.0"
     objecttolerance="10.0"
     borderopacity="1.0"
     bordercolor="#666666"
     pagecolor="#ffffff"
     id="base"
     inkscape:zoom="4.035"
     inkscape:cx="100"
     inkscape:cy="100"
     inkscape:window-x="-4"
     inkscape:window-y="-4"
     inkscape:current-layer="svg2" />
  <defs
     id="defs5" />
  <path
     d="M 177.18833 110.61008 A 85.676392 85.676392 0 1 1  5.8355484,110.61008 A 85.676392 85.676392 0 1 1  177.18833 110.61008 z"
     transform="matrix(1.167183,0,0,1.167183,-6.811181,-29.1022)"
     style="fill:black;fill-opacity:1;fill-rule:evenodd;stroke:none;stroke-width:6.5;stroke-linecap:butt;stroke-linejoin:round;stroke-miterlimit:4;stroke-dasharray:none"
     id="path1873" />
  <path
     d="M 55.172415 -13.793103 A 26.5252 26.5252 0 1 1  2.122015,-13.793103 A 26.5252 26.5252 0 1 1  55.172415 -13.793103 z"
     transform="matrix(3.7323,0,0,3.7323,-6.92,151.48)"
     style="fill:white;fill-opacity:1;fill-rule:evenodd;stroke:none;stroke-width:6.5;stroke-linecap:butt;stroke-linejoin:round;stroke-miterlimit:4;stroke-dasharray:none"
     id="path1875" />
  <path
     d="M -125.19894 -42.440319 A 12.997348 12.732096 0 1 1  -151.19364,-42.440319 A 12.997348 12.732096 0 1 1  -125.19894 -42.440319 z"
     transform="matrix(7.463061,0,0,7.618542,1131.367,423.3334)"
     style="fill:#d40000;fill-opacity:1;fill-rule:evenodd;stroke:none;stroke-width:6.5;stroke-linecap:butt;stroke-linejoin:round;stroke-miterlimit:4;stroke-dasharray:none"
     id="path1877" />
  <path
     sodipodi:type="arc"
     style="fill:white;fill-opacity:1;fill-rule:evenodd;stroke:none;stroke-width:6.5;stroke-linecap:butt;stroke-linejoin:round;stroke-miterlimit:4;stroke-dasharray:none"
     id="path1874"
     sodipodi:cx="76.92308"
     sodipodi:cy="89.655174"
     sodipodi:rx="40.318302"
     sodipodi:ry="34.482758"
     d="M 117.24138 89.655174 A 40.318302 34.482758 0 1 1  36.604778,89.655174 A 40.318302 34.482758 0 1 1  117.24138 89.655174 z"
     transform="matrix(1.785789,0,0,2.088,-37.36839,-87.2)" />
  <g
     id="g1925"
     transform="translate(0.213238,0)">
    <path
       d="M 118.60564,77.245764 C 116.84969,77.707567 115.15154,78.911248 114.59276,79.948815 L 109.49342,93.136071 L 114.41816,92.325162 L 117.42216,83.864565 C 118.06082,81.949029 119.80712,81.142747 121.72271,80.960458 C 130.96209,80.216599 140.21546,80.233523 149.45471,80.949033 C 151.37029,81.131611 153.08411,81.943875 153.72251,83.8595 L 156.74978,92.347098 L 161.66531,93.171537 L 156.55416,79.933725 C 155.91573,78.74784 153.8384,77.385355 151.83161,77.11155 C 146.04083,76.541835 140.45272,76.293412 135.04883,76.304088 C 129.64494,76.314764 124.40163,76.57855 119.34028,77.103139 C 119.08944,77.137331 118.8565,77.179789 118.60564,77.245764 z M 114.27581,94.022667 C 111.97183,94.503336 109.66941,95.082109 107.38216,95.724046 C 106.84867,95.724011 106.38943,96.876142 106.38932,98.276375 L 106.38523,99.0032 L 117.6374,98.996723 C 117.99489,98.996769 118.27658,99.308978 118.27656,99.671266 L 118.26362,100.72652 C 118.2636,101.0888 117.98837,101.39389 117.63086,101.39388 L 106.4137,101.39356 L 106.41499,103.64399 L 117.52722,103.66467 C 117.88234,103.66474 118.19563,103.86492 118.19561,104.11573 L 118.1915,104.84257 C 118.19151,105.09339 117.87313,105.30007 117.518,105.30004 L 106.40577,105.27933 L 106.41256,105.31432 C 106.41245,106.71457 106.84325,107.84971 107.37672,107.84973 L 164.08446,107.87582 C 164.61796,107.87586 165.04218,106.73052 165.0423,105.33027 L 165.07049,105.2885 L 154.18175,105.29701 C 153.82658,105.29701 153.58331,105.08317 153.58331,104.83237 L 153.58742,104.10556 C 153.58746,103.85475 153.83584,103.66166 154.19096,103.66167 L 165.04473,103.65994 L 165.07162,101.36774 L 154.21787,101.36947 C 153.86036,101.36944 153.58547,101.0922 153.58548,100.72991 L 153.55664,99.646469 C 153.55666,99.284171 153.87367,99.007272 154.23119,99.007295 L 165.04996,99.012357 L 165.04725,98.250558 C 165.04736,96.850302 164.61661,95.715174 164.0831,95.715151 C 154.32635,93.174646 144.69604,91.884293 135.24062,91.876425 C 128.14902,91.870529 121.18776,92.580641 114.27581,94.022667 z M 127.18627,98.631219 C 127.30728,98.57915 127.42998,98.556491 127.57109,98.556503 L 143.21917,98.567826 C 143.78359,98.567861 144.25472,99.018265 144.25468,99.601033 L 144.25149,103.88521 C 144.25145,104.46798 143.7827,104.92076 143.21828,104.92073 L 127.57702,104.94438 C 127.01259,104.94434 126.56964,104.45218 126.56968,103.8694 L 126.57285,99.585219 C 126.57291,99.148145 126.82325,98.787389 127.18627,98.631219 z M 105.64487,108.83938 C 105.28304,108.96869 105.03253,109.26426 105.03249,109.6117 L 105.05416,111.96708 C 105.05413,112.43031 105.48621,112.75537 106.04213,112.75541 L 165.14703,112.78802 C 165.70292,112.78805 166.15095,112.43919 166.15102,111.97597 L 166.16433,109.61382 C 166.16437,109.15058 165.71865,108.75556 165.16278,108.75552 L 106.02969,108.76468 C 105.89072,108.76467 105.76549,108.79627 105.64487,108.83938 z M 107.41967,113.86741 L 107.42868,119.71018 C 107.42861,120.83499 108.29132,121.72012 109.41617,121.72021 L 116.31419,121.72414 C 117.43902,121.72424 118.35233,120.81967 118.35241,119.69486 L 118.35019,113.88709 L 107.41967,113.86741 z M 152.5818,113.88435 L 152.54904,119.69892 C 152.54896,120.82373 153.44668,121.70206 154.57152,121.70215 L 161.46953,121.70609 C 162.59433,121.70616 163.51447,120.83662 163.51454,119.7118 L 163.50554,113.86904 L 152.5818,113.88435 z "
       style="fill:black;fill-opacity:1;fill-rule:evenodd;stroke:none;stroke-width:1px;stroke-linecap:butt;stroke-linejoin:miter;stroke-opacity:1"
       id="path1904" />
    <path
       id="path1923"
       style="fill:#d40000;fill-opacity:1;fill-rule:evenodd;stroke:none;stroke-width:1px;stroke-linecap:butt;stroke-linejoin:miter;stroke-opacity:1"
       d="M 46.982344,77.245764 C 45.226394,77.707567 43.528244,78.911248 42.969464,79.948815 L 37.870124,93.136071 L 42.794864,92.325162 L 45.798864,83.864565 C 46.437524,81.949029 48.183824,81.142747 50.099414,80.960458 C 59.338794,80.216599 68.592164,80.233523 77.831414,80.949033 C 79.746994,81.131611 81.460814,81.943875 82.099214,83.8595 L 85.126484,92.347098 L 90.042014,93.171537 L 84.930864,79.933725 C 84.292434,78.74784 82.215104,77.385355 80.208314,77.11155 C 74.417534,76.541835 68.829424,76.293412 63.425534,76.304088 C 58.021644,76.314764 52.778334,76.57855 47.716984,77.103139 C 47.466144,77.137331 47.233204,77.179789 46.982344,77.245764 z M 42.652514,94.022667 C 40.348534,94.503336 38.046114,95.082109 35.758864,95.724046 C 35.225374,95.724011 34.766134,96.876142 34.766024,98.276375 L 34.761934,99.0032 L 46.014104,98.996723 C 46.371594,98.996769 46.653284,99.308978 46.653264,99.671266 L 46.640324,100.72652 C 46.640304,101.0888 46.365074,101.39389 46.007564,101.39388 L 34.790404,101.39356 L 34.791694,103.64399 L 45.903924,103.66467 C 46.259044,103.66474 46.572334,103.86492 46.572314,104.11573 L 46.568204,104.84257 C 46.568214,105.09339 46.249834,105.30007 45.894704,105.30004 L 34.782474,105.27933 L 34.789264,105.31432 C 34.789154,106.71457 35.219954,107.84971 35.753424,107.84973 L 92.461164,107.87582 C 92.994664,107.87586 93.418884,106.73052 93.419004,105.33027 L 93.447194,105.2885 L 82.558454,105.29701 C 82.203284,105.29701 81.960014,105.08317 81.960014,104.83237 L 81.964124,104.10556 C 81.964164,103.85475 82.212544,103.66166 82.567664,103.66167 L 93.421434,103.65994 L 93.448324,101.36774 L 82.594574,101.36947 C 82.237064,101.36944 81.962174,101.0922 81.962184,100.72991 L 81.933344,99.646469 C 81.933364,99.284171 82.250374,99.007272 82.607894,99.007295 L 93.426664,99.012357 L 93.423954,98.250558 C 93.424064,96.850302 92.993314,95.715174 92.459804,95.715151 C 82.703054,93.174646 73.072744,91.884293 63.617324,91.876425 C 56.525724,91.870529 49.564464,92.580641 42.652514,94.022667 z M 55.562974,98.631219 C 55.683984,98.57915 55.806684,98.556491 55.947794,98.556503 L 71.595874,98.567826 C 72.160294,98.567861 72.631424,99.018265 72.631384,99.601033 L 72.628194,103.88521 C 72.628154,104.46798 72.159404,104.92076 71.594984,104.92073 L 55.953724,104.94438 C 55.389294,104.94434 54.946344,104.45218 54.946384,103.8694 L 54.949554,99.585219 C 54.949614,99.148145 55.199954,98.787389 55.562974,98.631219 z M 34.021574,108.83938 C 33.659744,108.96869 33.409234,109.26426 33.409194,109.6117 L 33.430864,111.96708 C 33.430834,112.43031 33.862914,112.75537 34.418834,112.75541 L 93.523734,112.78802 C 94.079624,112.78805 94.527654,112.43919 94.527724,111.97597 L 94.541034,109.61382 C 94.541074,109.15058 94.095354,108.75556 93.539484,108.75552 L 34.406394,108.76468 C 34.267424,108.76467 34.142194,108.79627 34.021574,108.83938 z M 35.796374,113.86741 L 35.805384,119.71018 C 35.805314,120.83499 36.668024,121.72012 37.792874,121.72021 L 44.690894,121.72414 C 45.815724,121.72424 46.729034,120.81967 46.729114,119.69486 L 46.726894,113.88709 L 35.796374,113.86741 z M 80.958504,113.88435 L 80.925744,119.69892 C 80.925664,120.82373 81.823384,121.70206 82.948224,121.70215 L 89.846234,121.70609 C 90.971034,121.70616 91.891174,120.83662 91.891244,119.7118 L 91.882244,113.86904 L 80.958504,113.88435 z " />
  </g>
</svg>
