<?xml version="1.0" encoding="UTF-8" standalone="no"?>
<!-- Created with Inkscape (http://www.inkscape.org/) -->

<svg
   xmlns:dc="http://purl.org/dc/elements/1.1/"
   xmlns:cc="http://creativecommons.org/ns#"
   xmlns:rdf="http://www.w3.org/1999/02/22-rdf-syntax-ns#"
   xmlns:svg="http://www.w3.org/2000/svg"
   xmlns="http://www.w3.org/2000/svg"
   xmlns:sodipodi="http://sodipodi.sourceforge.net/DTD/sodipodi-0.dtd"
   xmlns:inkscape="http://www.inkscape.org/namespaces/inkscape"
   version="1.0"
   width="600"
   height="600"
   id="svg2"
   sodipodi:version="0.32"
   inkscape:version="0.47 r22583"
   sodipodi:docname="a.svg"
   inkscape:output_extension="org.inkscape.output.svg.inkscape">
  <metadata
     id="metadata12">
    <rdf:RDF>
      <cc:Work
         rdf:about="">
        <dc:format>image/svg+xml</dc:format>
        <dc:type
           rdf:resource="http://purl.org/dc/dcmitype/StillImage" />
        <dc:title></dc:title>
      </cc:Work>
    </rdf:RDF>
  </metadata>
  <sodipodi:namedview
     inkscape:window-height="1003"
     inkscape:window-width="1280"
     inkscape:pageshadow="2"
     inkscape:pageopacity="0.0"
     guidetolerance="10.0"
     gridtolerance="10.0"
     objecttolerance="10.0"
     borderopacity="1.0"
     bordercolor="#666666"
     pagecolor="#ffffff"
     id="base"
     inkscape:zoom="0.31112698"
     inkscape:cx="-391.92069"
     inkscape:cy="238.51857"
     inkscape:window-x="-4"
     inkscape:window-y="-4"
     inkscape:current-layer="svg2"
     width="200px"
     height="200px"
     showgrid="false"
     inkscape:showpageshadow="false"
     inkscape:window-maximized="1" />
  <defs
     id="defs4" />
  <path
     sodipodi:type="arc"
     style="fill:#ffffff;fill-opacity:1;fill-rule:nonzero;stroke:#000000;stroke-width:2.60216475;stroke-linecap:round;stroke-linejoin:round;stroke-miterlimit:2;stroke-opacity:1;stroke-dasharray:none;stroke-dashoffset:0"
     id="path2367"
     sodipodi:cx="-319.62656"
     sodipodi:cy="-458.85416"
     sodipodi:rx="258.91537"
     sodipodi:ry="258.91537"
     d="m -60.711182,-458.85416 a 258.91537,258.91537 0 1 1 -517.830748,0 258.91537,258.91537 0 1 1 517.830748,0 z"
     transform="matrix(1.1528863,0,0,1.1528863,668.49307,829.00666)" />
  <path
     transform="matrix(1.1200571,0,0,1.1200571,657.99998,813.94285)"
     d="m -60.711182,-458.85416 a 258.91537,258.91537 0 1 1 -517.830748,0 258.91537,258.91537 0 1 1 517.830748,0 z"
     sodipodi:ry="258.91537"
     sodipodi:rx="258.91537"
     sodipodi:cy="-458.85416"
     sodipodi:cx="-319.62656"
     id="path2954"
     style="fill:#d40000;fill-opacity:1;fill-rule:nonzero;stroke:none"
     sodipodi:type="arc" />
  <path
     sodipodi:type="arc"
     style="fill:#ffffff;fill-opacity:1;fill-rule:nonzero;stroke:none"
     id="path2956"
     sodipodi:cx="-319.62656"
     sodipodi:cy="-458.85416"
     sodipodi:rx="258.91537"
     sodipodi:ry="258.91537"
     d="m -60.711182,-458.85416 a 258.91537,258.91537 0 1 1 -517.830748,0 258.91537,258.91537 0 1 1 517.830748,0 z"
     transform="matrix(0.8303871,0,0,0.8303871,565.41376,681.02656)" />
  <path
     style="fill:#d40000;fill-opacity:1;fill-rule:evenodd;stroke:none"
     d="m 211.94905,195.20157 c -28.35005,-0.0627 -56.70009,1.57973 -85.05013,5.15222 l 0,143.41633 170.10026,0 0,-143.41633 c -28.35006,-3.32168 -56.7001,-5.08952 -85.05013,-5.15222 z m -85.05013,154.72044 0,17.91746 170.10026,0 0,-17.91746 -170.10026,0 z m 8.22817,23.99246 0,33.45101 c 0,6.64863 16.61015,6.23202 16.61016,0 l 0,-33.45101 -16.61016,0 z m 23.60795,0 0,33.45101 c 0,6.64863 16.61015,6.23202 16.61015,0 l 0,-13.9956 28.14498,0 c 1.33103,3.57432 4.80719,6.075 8.84337,6.075 4.03472,0 7.43439,-2.50275 8.76647,-6.075 l 28.14498,0 0,13.9956 c 0,6.23202 16.61015,6.64863 16.61015,0 l 0,-33.45101 -16.61015,0 0,12.91902 -28.14498,0 c -1.33208,-3.57228 -4.73175,-6.15195 -8.76647,-6.15192 -4.03619,0 -7.51234,2.57757 -8.84337,6.15192 l -28.14498,0 0,-12.91902 -16.61015,0 z m 114.11789,0 0,33.45101 c 0,6.23202 16.61016,6.64863 16.61016,0 l 0,-33.45101 -16.61016,0 z"
     id="path2778" />
  <path
     id="path1904"
     style="fill:#000000;fill-opacity:1;fill-rule:evenodd;stroke:none"
     d="m 354.76685,301.5271 c -4.36911,1.14903 -8.5944,4.14399 -9.98475,6.72564 l -12.68802,32.81219 12.25359,-2.01771 7.47447,-21.05142 c 1.5891,-4.76618 5.9342,-6.77234 10.70051,-7.22591 22.98918,-1.85085 46.01318,-1.80873 69.00202,-0.027 4.76628,0.45429 9.03057,2.47536 10.61904,7.24175 l 7.53237,21.11862 12.23067,2.05134 -12.71742,-32.93795 c -1.58853,-2.95071 -6.75729,-6.3408 -11.75052,-7.02207 -14.40845,-1.41755 -28.31264,-2.03567 -41.75846,-2.0091 -13.44581,0.0267 -26.49209,0.68291 -39.08558,1.98819 -0.62415,0.0852 -1.20375,0.1908 -1.82792,0.35487 z m -10.77336,41.74382 c -5.7327,1.19598 -11.46153,2.63607 -17.15259,4.23333 -1.32744,-9e-5 -2.47011,2.86662 -2.47038,6.35063 l -0.009,1.80846 27.99735,-0.015 c 0.8895,1.2e-4 1.59039,0.77694 1.59036,1.67835 l -0.0321,2.62569 c -3e-5,0.90141 -0.68487,1.66053 -1.5744,1.6605 l -27.91026,-7.8e-4 0.003,5.59944 27.64917,0.0516 c 0.88359,1.8e-4 1.66311,0.49827 1.66308,1.12233 l -0.009,1.80849 c 3e-5,0.62409 -0.79218,1.13835 -1.6758,1.13829 l -27.64914,-0.0516 0.018,0.087 c -2.7e-4,3.48405 1.07163,6.30849 2.39898,6.30855 l 141.09869,0.0648 c 1.32744,1.2e-4 2.38296,-2.8497 2.38326,-6.33375 l 0.0702,-0.1038 -27.09305,0.021 c -0.88374,0 -1.48905,-0.53205 -1.48905,-1.15611 l 0.009,-1.80843 c 1.2e-4,-0.62406 0.61812,-1.10448 1.50171,-1.10445 l 27.00608,-0.003 0.0669,-5.70339 -27.00602,0.003 c -0.88953,-9e-5 -1.5735,-0.68991 -1.5735,-1.59135 l -0.0717,-2.6958 c 6e-5,-0.90144 0.78885,-1.59042 1.67841,-1.59039 l 26.91896,0.012 -0.006,-1.89546 c 2.7e-4,-3.48407 -1.07151,-6.30848 -2.39898,-6.30854 -24.27647,-6.32121 -48.23836,-9.53184 -71.76508,-9.55143 -17.64512,-0.015 -34.96595,1.75224 -52.16407,5.34024 z m 32.12345,11.46686 c 0.30111,-0.1296 0.60639,-0.186 0.95751,-0.186 l 38.93513,0.027 c 1.40436,9e-5 2.57661,1.12077 2.57652,2.57082 l -0.009,10.65978 c -9e-5,1.45002 -1.16643,2.57661 -2.57079,2.57655 l -38.91815,0.0588 c -1.40442,-9e-5 -2.50656,-1.22466 -2.50644,-2.67471 l 0.009,-10.65981 c 1.5e-4,-1.08753 0.62304,-1.98513 1.52628,-2.37372 z m -53.59874,25.39968 c -0.9003,0.32175 -1.52361,1.05717 -1.5237,1.92168 l 0.054,5.86059 c -6e-5,1.1526 1.07502,1.9614 2.45826,1.96149 l 147.0632,0.0813 c 1.38315,9e-5 2.49792,-0.86796 2.4981,-2.02053 l 0.033,-5.87742 c 1.2e-4,-1.15263 -1.10892,-2.13552 -2.49201,-2.13561 l -147.13337,0.024 c -0.34578,-3e-5 -0.65739,0.0786 -0.95751,0.186 z m 4.41603,12.51062 0.021,14.53782 c -1.8e-4,2.79873 2.14641,5.00109 4.94523,5.0013 l 17.16345,0.009 c 2.79879,2.4e-4 5.07126,-2.25048 5.07144,-5.04921 l -0.006,-14.45073 -27.19701,-0.0489 z m 112.37118,0.042 -0.0816,14.46765 c -2.1e-4,2.79873 2.23347,4.98417 5.03229,4.98438 l 17.16345,0.009 c 2.7987,1.8e-4 5.08815,-2.16339 5.08833,-4.96215 l -0.021,-14.53779 -27.18015,0.0381 z" />
</svg>
