<?xml version="1.0" encoding="UTF-8" standalone="no"?>
<!-- Created with Inkscape (http://www.inkscape.org/) -->

<svg
   xmlns:dc="http://purl.org/dc/elements/1.1/"
   xmlns:cc="http://creativecommons.org/ns#"
   xmlns:rdf="http://www.w3.org/1999/02/22-rdf-syntax-ns#"
   xmlns:svg="http://www.w3.org/2000/svg"
   xmlns="http://www.w3.org/2000/svg"
   xmlns:sodipodi="http://sodipodi.sourceforge.net/DTD/sodipodi-0.dtd"
   xmlns:inkscape="http://www.inkscape.org/namespaces/inkscape"
   version="1.0"
   width="199.99997"
   height="175.87384"
   id="svg2"
   sodipodi:version="0.32"
   inkscape:version="0.47 r22583"
   sodipodi:docname="ZZ.svg">
  <metadata
     id="metadata12">
    <rdf:RDF>
      <cc:Work
         rdf:about="">
        <dc:format>image/svg+xml</dc:format>
        <dc:type
           rdf:resource="http://purl.org/dc/dcmitype/StillImage" />
      </cc:Work>
    </rdf:RDF>
  </metadata>
  <sodipodi:namedview
     inkscape:window-height="1003"
     inkscape:window-width="1280"
     inkscape:pageshadow="2"
     inkscape:pageopacity="0.0"
     guidetolerance="10.0"
     gridtolerance="10.0"
     objecttolerance="10.0"
     borderopacity="1.0"
     bordercolor="#666666"
     pagecolor="#ffffff"
     id="base"
     inkscape:zoom="2.0175"
     inkscape:cx="229.90631"
     inkscape:cy="22.290745"
     inkscape:window-x="-4"
     inkscape:window-y="-4"
     inkscape:current-layer="svg2"
     width="200px"
     height="200px"
     showgrid="false"
     inkscape:window-maximized="0" />
  <defs
     id="defs4">
    <inkscape:perspective
       sodipodi:type="inkscape:persp3d"
       inkscape:vp_x="0 : 100 : 1"
       inkscape:vp_y="0 : 1000 : 0"
       inkscape:vp_z="200 : 100 : 1"
       inkscape:persp3d-origin="100 : 66.666667 : 1"
       id="perspective11" />
  </defs>
  <g
     id="g7259"
     transform="translate(-9.36925e-6,-12.063078)">
    <path
       id="path1902"
       d="m 9.9600258,187.43692 c -3.3797385,0 -6.5027442,-1.80309 -8.1926166,-4.73002 -1.68986644,-2.92694 -1.68986644,-6.53307 0,-9.46002 L 91.807376,17.29308 c 1.689875,-2.926936 4.812879,-4.730002 8.19262,-4.730002 3.379734,0 6.502744,1.803066 8.192614,4.730002 l 90.03997,155.9538 c 1.68987,2.92695 1.68987,6.53308 0,9.46002 -1.68987,2.92693 -4.81288,4.73002 -8.19261,4.73002 l -180.0799442,0 z"
       style="fill:#ffffff;fill-rule:evenodd;stroke:#000000;stroke-width:1;stroke-miterlimit:4;stroke-dasharray:none" />
    <path
       id="path4558"
       d="m 100,15.0625 c -2.490587,0 -4.78595,1.311841 -6.03125,3.46875 L 3.9375,174.5 c -1.2452932,2.15692 -1.2452877,4.81185 0,6.96875 1.2452964,2.15691 3.5406779,3.46875 6.03125,3.46875 l 180.0625,0 c 2.49056,0 4.78596,-1.31185 6.03125,-3.46875 1.24529,-2.15691 1.2453,-4.81184 0,-6.96875 L 106.03125,18.53125 C 104.78596,16.374345 102.49058,15.0625 100,15.0625 z m 0,33 67.46875,116.875 -134.9375,0 L 100,48.0625 z"
       style="fill:#d40000;fill-opacity:1;fill-rule:evenodd;stroke:none" />
  </g>
  <path
     style="fill:#000000;fill-opacity:1;fill-rule:evenodd;stroke:none"
     d="m 113.71658,86.128215 c 0,0 -10.05761,17.906395 -10.90408,19.527455 -0.82094,1.57218 0.28608,2.20374 1.375,1.9375 1.94598,-0.47578 6.6875,-1.0625 6.6875,-1.0625 l 0,33.6875 8.34375,0 0,-33.6875 c 0,0 4.74152,0.58672 6.6875,1.0625 1.08892,0.26624 2.16469,-0.36532 1.34375,-1.9375 -0.84647,-1.62106 -10.90408,-19.527455 -10.90408,-19.527455 -0.89256,-1.657016 -1.71768,-1.661346 -2.62934,0 z"
     id="path1881"
     sodipodi:nodetypes="cssccccsscc" />
  <path
     sodipodi:nodetypes="cssccccsscc"
     id="path2776"
     d="m 83.2333,138.97378 c 0,0 -10.05761,-17.90639 -10.90408,-19.52745 -0.82094,-1.57218 0.28608,-2.20374 1.375,-1.9375 1.94598,0.47578 6.6875,1.0625 6.6875,1.0625 l 0,-33.687501 8.34375,0 0,33.687501 c 0,0 4.74152,-0.58672 6.6875,-1.0625 1.08892,-0.26624 2.16469,0.36532 1.34375,1.9375 -0.84647,1.62106 -10.90408,19.52745 -10.90408,19.52745 -0.89256,1.65702 -1.71768,1.66135 -2.62934,0 z"
     style="fill:#000000;fill-opacity:1;fill-rule:evenodd;stroke:none" />
</svg>
