<?xml version="1.0" encoding="UTF-8" standalone="no"?>
<!-- Created with Inkscape (http://www.inkscape.org/) -->

<svg
   xmlns:dc="http://purl.org/dc/elements/1.1/"
   xmlns:cc="http://creativecommons.org/ns#"
   xmlns:rdf="http://www.w3.org/1999/02/22-rdf-syntax-ns#"
   xmlns:svg="http://www.w3.org/2000/svg"
   xmlns="http://www.w3.org/2000/svg"
   xmlns:sodipodi="http://sodipodi.sourceforge.net/DTD/sodipodi-0.dtd"
   xmlns:inkscape="http://www.inkscape.org/namespaces/inkscape"
   width="282.56247"
   height="388.84784"
   id="svg3644"
   version="1.1"
   inkscape:version="0.48.2 r9819"
   sodipodi:docname="AJAX1.svg">
  <defs
     id="defs3646">
    <inkscape:perspective
       sodipodi:type="inkscape:persp3d"
       inkscape:vp_x="0 : 526.18109 : 1"
       inkscape:vp_y="0 : 1000 : 0"
       inkscape:vp_z="744.09448 : 526.18109 : 1"
       inkscape:persp3d-origin="372.04724 : 350.78739 : 1"
       id="perspective3652" />
    <inkscape:perspective
       id="perspective3663"
       inkscape:persp3d-origin="157.5475 : 66.666667 : 1"
       inkscape:vp_z="315.095 : 100 : 1"
       inkscape:vp_y="0 : 1000 : 0"
       inkscape:vp_x="0 : 100 : 1"
       sodipodi:type="inkscape:persp3d" />
    <inkscape:perspective
       id="perspective3679"
       inkscape:persp3d-origin="0.5 : 0.33333333 : 1"
       inkscape:vp_z="1 : 0.5 : 1"
       inkscape:vp_y="0 : 1000 : 0"
       inkscape:vp_x="0 : 0.5 : 1"
       sodipodi:type="inkscape:persp3d" />
    <inkscape:perspective
       id="perspective3846"
       inkscape:persp3d-origin="417.043 : 244.99634 : 1"
       inkscape:vp_z="834.086 : 367.49451 : 1"
       inkscape:vp_y="0 : 1000 : 0"
       inkscape:vp_x="0 : 367.49451 : 1"
       sodipodi:type="inkscape:persp3d" />
    <inkscape:perspective
       sodipodi:type="inkscape:persp3d"
       inkscape:vp_x="0 : 100.00002 : 1"
       inkscape:vp_y="0 : 1000 : 0"
       inkscape:vp_z="315.09531 : 100.00002 : 1"
       inkscape:persp3d-origin="157.54765 : 66.666682 : 1"
       id="perspective11" />
    <inkscape:perspective
       sodipodi:type="inkscape:persp3d"
       inkscape:vp_x="0 : 0.5 : 1"
       inkscape:vp_y="0 : 1000 : 0"
       inkscape:vp_z="1 : 0.5 : 1"
       inkscape:persp3d-origin="0.5 : 0.33333333 : 1"
       id="perspective2825" />
    <inkscape:perspective
       sodipodi:type="inkscape:persp3d"
       inkscape:vp_x="0 : 0.5 : 1"
       inkscape:vp_y="0 : 1000 : 0"
       inkscape:vp_z="1 : 0.5 : 1"
       inkscape:persp3d-origin="0.5 : 0.33333333 : 1"
       id="perspective2839" />
  </defs>
  <sodipodi:namedview
     id="base"
     pagecolor="#ffffff"
     bordercolor="#666666"
     borderopacity="1.0"
     inkscape:pageopacity="0.0"
     inkscape:pageshadow="2"
     inkscape:zoom="1.1813655"
     inkscape:cx="397.20782"
     inkscape:cy="219.89601"
     inkscape:document-units="px"
     inkscape:current-layer="layer1"
     showgrid="false"
     inkscape:window-width="1280"
     inkscape:window-height="1004"
     inkscape:window-x="-8"
     inkscape:window-y="-8"
     inkscape:window-maximized="1" />
  <metadata
     id="metadata3649">
    <rdf:RDF>
      <cc:Work
         rdf:about="">
        <dc:format>image/svg+xml</dc:format>
        <dc:type
           rdf:resource="http://purl.org/dc/dcmitype/StillImage" />
        <dc:title />
      </cc:Work>
    </rdf:RDF>
  </metadata>
  <g
     inkscape:label="Livello 1"
     inkscape:groupmode="layer"
     id="layer1"
     transform="translate(384.51426,-277.95269)">
    <g
       id="g4679"
       transform="matrix(0,1,1,0,-715.60962,715.60962)">
      <path
         sodipodi:nodetypes="cccccccccccccccccccccccccccccccccccccccccc"
         d="m -350.3517,332.39536 -29.71222,6.25288 7.92133,23.19547 92.40534,41.6322 -92.40515,41.63228 -7.95073,23.2644 29.74162,6.16092 114.22572,-51.42539 114.22572,51.42539 29.741619,-6.16092 -7.950729,-23.2644 -92.40609,-41.63228 92.40562,-41.6322 7.921045,-23.19547 -29.711935,-6.25288 -114.22572,51.44834 -114.22544,-51.44834 z m -0.41226,2.36782 113.93078,51.31041 0.70673,0.32184 0.70673,-0.32184 113.93078,-51.31041 25.854595,5.44828 -6.920085,20.18394 -93.52414,42.115 -2.12019,0.96551 2.12019,0.96552 93.52414,42.115 6.920085,20.22991 -25.854595,5.40231 -113.93078,-51.31041 -0.70673,-0.32184 -0.70673,0.32184 -113.93078,51.31041 -25.8546,-5.40231 6.92008,-20.22991 93.52414,-42.115 2.1202,-0.96552 -2.1202,-0.96551 -93.52414,-42.115 -6.92012,-20.18394 25.85464,-5.44828 z"
         style="fill:#3cffff;fill-opacity:1;fill-rule:nonzero;stroke:#000000;stroke-width:2.5999999;stroke-miterlimit:4;stroke-opacity:1;stroke-dasharray:none"
         id="path2847"
         inkscape:connector-curvature="0" />
      <path
         sodipodi:nodetypes="cccccccccccccccccccccccccccccccccccccccccc"
         d="m -350.3517,332.39536 -29.71222,6.25288 7.92133,23.19547 92.40534,41.6322 -92.40515,41.63228 -7.95073,23.2644 29.74162,6.16092 114.22572,-51.42539 114.22572,51.42539 29.741619,-6.16092 -7.950729,-23.2644 -92.40609,-41.63228 92.40562,-41.6322 7.921045,-23.19547 -29.711935,-6.25288 -114.22572,51.44834 -114.22544,-51.44834 z m -0.41226,2.36782 113.93078,51.31041 0.70673,0.32184 0.70673,-0.32184 113.93078,-51.31041 25.854595,5.44828 -6.920085,20.18394 -93.52414,42.115 -2.12019,0.96551 2.12019,0.96552 93.52414,42.115 6.920085,20.22991 -25.854595,5.40231 -113.93078,-51.31041 -0.70673,-0.32184 -0.70673,0.32184 -113.93078,51.31041 -25.8546,-5.40231 6.92008,-20.22991 93.52414,-42.115 2.1202,-0.96552 -2.1202,-0.96551 -93.52414,-42.115 -6.92012,-20.18394 25.85464,-5.44828 z"
         style="fill:#ffffff;fill-opacity:1;fill-rule:nonzero;stroke:none"
         id="path2849"
         inkscape:connector-curvature="0" />
      <path
         d="m -121.71114,473.36106 -114.41324,-51.53404 -114.41701,51.53404 -27.80857,-5.77987 7.43397,-21.74899 94.04524,-42.35629 -94.04524,-42.35643 -7.41021,-21.69073 27.78481,-5.83791 114.41701,51.53448 114.41324,-51.53448 27.784729,5.8379 -7.410189,21.6908 -94.04552,42.35651 94.04552,42.3565 7.433945,21.74907 -27.808475,5.77962 z"
         style="fill:#d40000;fill-opacity:1;fill-rule:nonzero;stroke:none"
         id="path2851"
         inkscape:connector-curvature="0" />
      <path
         d="m -117.82694,359.36868 -10.18542,-13.76304 -108.11202,48.69502 -108.11635,-48.69502 -10.18561,13.76304 97.92736,44.10723 -97.92736,44.1071 10.18561,13.76296 108.11635,-48.6945 108.11202,48.6945 10.18542,-13.76296 -97.92661,-44.1071 97.92661,-44.10723"
         style="fill:#ffffff;fill-rule:nonzero;stroke:none"
         id="path2853"
         inkscape:connector-curvature="0" />
      <path
         sodipodi:nodetypes="cccccccccccccccccccccccccccccccccccccccccc"
         d="m -396.69854,414.26215 -39.91915,8.72774 10.64252,32.37611 124.149,58.11001 -124.14875,58.11011 -10.68201,32.47233 39.95864,8.59939 153.46527,-71.77929 153.465267,71.77929 39.958649,-8.59939 -10.682016,-32.47233 -124.15002,-58.11011 124.149387,-58.11001 10.642136,-32.37611 -39.918769,-8.72774 -153.465264,71.81132 -153.46489,-71.81132 z m -0.55388,3.30499 153.069,71.6188 0.94951,0.44922 0.94952,-0.44922 153.069,-71.6188 34.73633,7.60468 -9.297309,28.17263 -125.652151,58.78389 -2.84853,1.34767 2.84853,1.34767 125.652151,58.78389 9.297309,28.2368 -34.73633,7.54051 -153.069,-71.6188 -0.94952,-0.44922 -0.94951,0.44922 -153.069,71.6188 -34.73633,-7.54051 9.29731,-28.2368 125.65215,-58.78389 2.84853,-1.34767 -2.84853,-1.34767 -125.65215,-58.78389 -9.29738,-28.17263 34.7364,-7.60468 z"
         style="fill:#3cffff;fill-opacity:1;fill-rule:nonzero;stroke:#000000;stroke-width:2;stroke-miterlimit:4;stroke-opacity:1;stroke-dasharray:none"
         id="path4546-9"
         inkscape:connector-curvature="0" />
      <path
         sodipodi:nodetypes="cccccccccccccccccccccccccccccccccccccccccc"
         d="m -396.69854,414.26215 -39.91915,8.72774 10.64252,32.37611 124.149,58.11001 -124.14875,58.11011 -10.68201,32.47233 39.95864,8.59939 153.46527,-71.77929 153.465267,71.77929 39.958649,-8.59939 -10.682016,-32.47233 -124.15002,-58.11011 124.149387,-58.11001 10.642136,-32.37611 -39.918769,-8.72774 -153.465264,71.81132 -153.46489,-71.81132 z m -0.55388,3.30499 153.069,71.6188 0.94951,0.44922 0.94952,-0.44922 153.069,-71.6188 34.73633,7.60468 -9.297309,28.17263 -125.652151,58.78389 -2.84853,1.34767 2.84853,1.34767 125.652151,58.78389 9.297309,28.2368 -34.73633,7.54051 -153.069,-71.6188 -0.94952,-0.44922 -0.94951,0.44922 -153.069,71.6188 -34.73633,-7.54051 9.29731,-28.2368 125.65215,-58.78389 2.84853,-1.34767 -2.84853,-1.34767 -125.65215,-58.78389 -9.29738,-28.17263 34.7364,-7.60468 z"
         style="fill:#ffffff;fill-opacity:1;fill-rule:nonzero;stroke:none"
         id="path3655-4"
         inkscape:connector-curvature="0" />
      <path
         d="m -89.513917,611.02134 -153.717203,-71.93095 -153.72227,71.93095 -37.36155,-8.06752 9.98774,-30.35713 126.35226,-59.12068 -126.35226,-59.12089 -9.95581,-30.27581 37.32962,-8.14852 153.72227,71.93156 153.717203,-71.93156 37.329512,8.1485 -9.95579,30.27592 -126.352635,59.12098 126.352635,59.12099 9.987706,30.35724 -37.361415,8.06716 z"
         style="fill:#d40000;fill-opacity:1;fill-rule:nonzero;stroke:none"
         id="path2652-8"
         inkscape:connector-curvature="0" />
      <path
         d="m -84.295397,451.91136 -13.684373,-19.21038 -145.25135,67.96825 -145.25717,-67.96825 -13.68463,19.21038 131.56799,61.56465 -131.56799,61.56445 13.68463,19.21027 145.25717,-67.96753 145.25135,67.96753 13.684373,-19.21027 -131.566973,-61.56445 131.566973,-61.56465"
         style="fill:#ffffff;fill-rule:nonzero;stroke:none"
         id="path197-8"
         inkscape:connector-curvature="0" />
    </g>
  </g>
</svg>
