<?xml version="1.0" encoding="UTF-8" standalone="no"?>
<!-- Created with Inkscape (http://www.inkscape.org/) -->

<svg
   xmlns:svg="http://www.w3.org/2000/svg"
   xmlns="http://www.w3.org/2000/svg"
   version="1.1"
   width="199.65237"
   height="292.86557"
   id="svg3759">
  <defs
     id="defs3763" />
  <g
     transform="translate(-44.290543,123.81329)"
     id="g4315">
    <rect
       width="199.65237"
       height="292.86557"
       x="44.290543"
       y="-123.81329"
       id="rect1875"
       style="fill:#00408b;fill-opacity:1;fill-rule:evenodd;stroke:none" />
    <rect
       width="145.66156"
       height="144.10634"
       ry="0"
       x="70.508347"
       y="-98.682205"
       id="rect3786"
       style="fill:#ffffff;fill-opacity:1;stroke:#ffffff;stroke-width:6.01038933;stroke-linecap:square;stroke-linejoin:miter;stroke-miterlimit:4;stroke-opacity:1;stroke-dasharray:none" />
    <rect
       width="191.58562"
       height="281.03259"
       rx="13.735556"
       ry="20.148376"
       x="48.323925"
       y="-117.89681"
       id="rect1907"
       style="fill:none;stroke:#ffffff;stroke-width:2.44250917;stroke-linecap:round;stroke-linejoin:round;stroke-miterlimit:4;stroke-opacity:1;stroke-dasharray:none" />
    <g
       transform="matrix(1.1151372,0,0,1.1151372,34.077528,-138.25992)"
       id="g2821">
      <path
         d="m 43.09375,98.5 0,13.21875 8.3125,0 c -0.0049,-0.12452 -0.03125,-0.24928 -0.03125,-0.375 0,-5.19004 4.216211,-9.40625 9.40625,-9.40625 5.19004,0 9.40625,4.21621 9.40625,9.40625 0,0.12572 -0.02635,0.25048 -0.03125,0.375 l 49.25,0 c -0.005,-0.12452 -0.0312,-0.24928 -0.0312,-0.375 0,-5.19004 4.21621,-9.40625 9.40625,-9.40625 5.19004,0 9.40625,4.21621 9.40625,9.40625 0,0.12572 -0.0264,0.25048 -0.0312,0.375 l 17.5,0 0,-13.21875 -112.5625,0 z"
         id="rect1889"
         style="fill:#000000;fill-opacity:1;fill-rule:evenodd;stroke:none" />
      <path
         d="m 45.34375,81.8125 -2.25,15.560632 12.434231,0 0,-15.560632 -1.34375,0 -8.840481,0 z m 11.440302,0 0,15.560632 98.872198,0 -4.46875,-15.560632 -92.778448,0 -1.625,0 z M 46.875,83.625 l 7.309231,0 0,11.966882 -8.652981,0 L 46.875,83.625 z m 11.534052,0 17.184698,0 0,11.966882 -17.184698,0 0,-11.966882 z m 18.684698,0 17.1875,0 0,11.966882 -17.1875,0 0,-11.966882 z m 18.6875,0 17.15625,0 0,11.966882 -17.15625,0 0,-11.966882 z m 18.65625,0 17.1875,0 0,11.966882 -17.1875,0 0,-11.966882 z m 18.6875,0 17.125,0 3,11.966882 -20.125,0 0,-11.966882 z"
         id="rect2782"
         style="fill:#000000;fill-opacity:1;fill-rule:evenodd;stroke:none" />
      <path
         d="m 60.78125,103.5 c -4.33076,0 -7.84375,3.51299 -7.84375,7.84375 0,4.33076 3.512989,7.84375 7.84375,7.84375 4.33076,0 7.84375,-3.51299 7.84375,-7.84375 0,-4.33076 -3.512992,-7.84375 -7.84375,-7.84375 z m 0,4.65625 c 1.752925,0 3.15625,1.43457 3.15625,3.1875 -10e-7,1.75292 -1.403324,3.15625 -3.15625,3.15625 -1.752928,0 -3.1875,-1.40332 -3.1875,-3.15625 10e-7,-1.75293 1.434574,-3.1875 3.1875,-3.1875 z"
         id="path3707"
         style="fill:#000000;fill-opacity:1;fill-rule:evenodd;stroke:none" />
      <path
         d="m 128.77627,103.5 c -4.33076,0 -7.84375,3.51299 -7.84375,7.84375 0,4.33076 3.51299,7.84375 7.84375,7.84375 4.33076,0 7.84375,-3.51299 7.84375,-7.84375 0,-4.33076 -3.51299,-7.84375 -7.84375,-7.84375 z m 0,4.65625 c 1.75292,0 3.15625,1.43457 3.15625,3.1875 0,1.75292 -1.40333,3.15625 -3.15625,3.15625 -1.75293,0 -3.1875,-1.40332 -3.1875,-3.15625 0,-1.75293 1.43457,-3.1875 3.1875,-3.1875 z"
         id="path3712"
         style="fill:#000000;fill-opacity:1;fill-rule:evenodd;stroke:none" />
    </g>
  </g>
</svg>
