<?xml version="1.0" encoding="UTF-8" standalone="no"?>
<!-- Created with Inkscape (http://www.inkscape.org/) -->
<svg
   xmlns:dc="http://purl.org/dc/elements/1.1/"
   xmlns:cc="http://web.resource.org/cc/"
   xmlns:rdf="http://www.w3.org/1999/02/22-rdf-syntax-ns#"
   xmlns:svg="http://www.w3.org/2000/svg"
   xmlns="http://www.w3.org/2000/svg"
   xmlns:sodipodi="http://sodipodi.sourceforge.net/DTD/sodipodi-0.dtd"
   xmlns:inkscape="http://www.inkscape.org/namespaces/inkscape"
   version="1.0"
   width="200"
   height="200"
   id="svg2"
   sodipodi:version="0.32"
   inkscape:version="0.44+devel"
   sodipodi:docname="Italian traffic signs - fine del divieto di sorpasso per veicoli oltre 3,5t.svg"
   sodipodi:docbase="C:\Documents and Settings\Flanker\Desktop\Temporanei\Segnali"
   inkscape:output_extension="org.inkscape.output.svg.inkscape"
   sodipodi:modified="true">
  <metadata
     id="metadata9">
    <rdf:RDF>
      <cc:Work
         rdf:about="">
        <dc:format>image/svg+xml</dc:format>
        <dc:type
           rdf:resource="http://purl.org/dc/dcmitype/StillImage" />
      </cc:Work>
    </rdf:RDF>
  </metadata>
  <sodipodi:namedview
     inkscape:window-height="993"
     inkscape:window-width="1270"
     inkscape:pageshadow="2"
     inkscape:pageopacity="0.0"
     guidetolerance="10.0"
     gridtolerance="10.0"
     objecttolerance="10.0"
     borderopacity="1.0"
     bordercolor="#666666"
     pagecolor="#ffffff"
     id="base"
     inkscape:zoom="7.93"
     inkscape:cx="72.270623"
     inkscape:cy="110.7966"
     inkscape:window-x="93"
     inkscape:window-y="3"
     inkscape:current-layer="svg2" />
  <defs
     id="defs5" />
  <path
     d="M 200,100 C 200.00924,155.22577 155.23501,200 100,200 C 44.764988,200 -0.0092436842,155.22577 9.4479491e-007,100 C -0.0092436842,44.774233 44.764988,3.8500019e-008 100,3.8500019e-008 C 155.23501,3.8500019e-008 200.00924,44.774233 200,100 L 200,100 z "
     style="fill:black;fill-opacity:1;fill-rule:evenodd;stroke:none;stroke-width:6.5;stroke-linecap:butt;stroke-linejoin:round;stroke-miterlimit:4;stroke-dasharray:none"
     id="path4671" />
  <path
     d="M 199,100 C 199,154.67619 154.6762,199.00001 100,199.00001 C 45.323806,199.00001 0.99999621,154.67619 0.99999658,100 C 0.99999621,45.323807 45.323806,0.99999771 100,0.99999771 C 154.6762,0.99999771 199,45.323807 199,100 L 199,100 z "
     style="fill:white;fill-opacity:1;fill-rule:evenodd;stroke:none;stroke-width:6.5;stroke-linecap:butt;stroke-linejoin:round;stroke-miterlimit:4;stroke-dasharray:none"
     id="path4673" />
  <path
     d="M 196.99967,100.00005 C 196.99967,153.57168 153.5713,197.00007 99.999658,197.00007 C 46.428015,197.00007 2.9996419,153.57168 2.9996419,100.00005 C 2.9996419,46.42841 46.428015,3.0000238 99.999658,3.0000238 C 153.5713,3.0000238 196.99967,46.42841 196.99967,100.00005 z "
     style="fill:black;fill-opacity:1;fill-rule:evenodd;stroke:none;stroke-width:6.5;stroke-linecap:butt;stroke-linejoin:round;stroke-miterlimit:4;stroke-dasharray:none"
     id="path4675" />
  <path
     sodipodi:type="arc"
     style="fill:white;fill-opacity:1;fill-rule:evenodd;stroke:none;stroke-width:6.5;stroke-linecap:butt;stroke-linejoin:round;stroke-miterlimit:4;stroke-dasharray:none"
     id="path4677"
     sodipodi:cx="76.92308"
     sodipodi:cy="89.655174"
     sodipodi:rx="40.318302"
     sodipodi:ry="34.482758"
     d="M 117.24138 89.655174 A 40.318302 34.482758 0 1 1  36.604778,89.655174 A 40.318302 34.482758 0 1 1  117.24138 89.655174 z"
     transform="matrix(2.381052,0,0,2.784,-83.15785,-149.6)" />
  <path
     style="fill:black;fill-opacity:1;fill-rule:evenodd;stroke:none;stroke-width:0.50000024;stroke-linecap:round;stroke-linejoin:round;stroke-miterlimit:4;stroke-opacity:1"
     d="M 99.1875,3 L 74.46875,193.59375 C 82.601955,195.80638 91.165889,197 100,197 C 100.16739,197 100.33281,197.00085 100.5,197 L 125.25,6.34375 C 117.19984,4.1795488 108.73354,3 100,3 C 99.727999,3 99.458974,2.9977652 99.1875,3 z "
     id="rect1925" />
  <path
     id="path4681"
     style="fill:#999;fill-opacity:1;fill-rule:evenodd;stroke:none;stroke-width:1px;stroke-linecap:butt;stroke-linejoin:miter;stroke-opacity:1"
     d="M 136.87287,94.49795 C 135.26668,94.92036 133.71337,96.02138 133.20225,96.97046 L 128.53782,109.033 L 133.04253,108.29125 L 135.79033,100.55224 C 136.37452,98.80008 137.97188,98.06256 139.72409,97.89582 C 148.17546,97.2154 156.63963,97.23088 165.09088,97.88537 C 166.84309,98.05238 168.41074,98.79536 168.99469,100.54761 L 171.76377,108.31132 L 176.26007,109.06544 L 171.58484,96.95666 C 171.00086,95.87191 169.1007,94.62563 167.26507,94.37518 C 161.96817,93.85405 156.85666,93.62682 151.91366,93.63658 C 146.97065,93.64635 142.17453,93.88764 137.54485,94.36748 C 137.31541,94.39876 137.10234,94.4376 136.87287,94.49795 z M 132.91232,109.84398 C 130.80485,110.28365 128.6988,110.81307 126.60662,111.40025 C 126.11863,111.40022 125.69856,112.45409 125.69846,113.7349 L 125.69472,114.39973 L 135.98721,114.39381 C 136.31422,114.39385 136.57188,114.67943 136.57186,115.01082 L 136.56003,115.97607 C 136.56001,116.30745 136.30825,116.58653 135.98123,116.58652 L 125.72076,116.58622 L 125.72194,118.64472 L 135.88643,118.66364 C 136.21126,118.6637 136.49783,118.84681 136.49781,119.07623 L 136.49406,119.74108 C 136.49407,119.9705 136.20284,120.15956 135.87799,120.15953 L 125.71351,120.14059 L 125.71972,120.1726 C 125.71961,121.45341 126.11367,122.49174 126.60165,122.49176 L 178.4729,122.51563 C 178.96089,122.51566 179.34893,121.468 179.34904,120.18718 L 179.37483,120.14898 L 169.41477,120.15676 C 169.08989,120.15676 168.86736,119.96116 168.86736,119.73174 L 168.87113,119.06692 C 168.87116,118.83751 169.09836,118.66089 169.4232,118.66089 L 179.35127,118.65931 L 179.37586,116.56261 L 169.44781,116.56419 C 169.12079,116.56416 168.86935,116.31057 168.86935,115.97918 L 168.84297,114.98814 C 168.84299,114.65674 169.13296,114.40346 169.45999,114.40348 L 179.35605,114.40811 L 179.35357,113.71128 C 179.35368,112.43045 178.95966,111.39214 178.47165,111.39212 C 169.54703,109.06829 160.73807,107.88798 152.08909,107.88079 C 145.60232,107.87539 139.23477,108.52494 132.91232,109.84398 z M 144.72168,114.05948 C 144.83237,114.01185 144.9446,113.99113 145.07368,113.99114 L 159.38717,114.00149 C 159.90345,114.00152 160.33439,114.41352 160.33435,114.94658 L 160.33144,118.86537 C 160.33141,119.39843 159.90263,119.8126 159.38635,119.81257 L 145.0791,119.8342 C 144.56281,119.83416 144.15763,119.38398 144.15767,118.85091 L 144.16057,114.93212 C 144.16063,114.53232 144.38962,114.20233 144.72168,114.05948 z M 125.01751,123.397 C 124.68653,123.51529 124.45739,123.78565 124.45735,124.10346 L 124.47718,126.25795 C 124.47715,126.68167 124.87237,126.97901 125.38088,126.97904 L 179.44484,127.00888 C 179.95331,127.0089 180.36314,126.6898 180.3632,126.26608 L 180.37537,124.1054 C 180.37541,123.68167 179.96771,123.32034 179.45925,123.3203 L 125.3695,123.32868 C 125.24238,123.32867 125.12783,123.35757 125.01751,123.397 z M 126.64093,127.99621 L 126.64918,133.34066 C 126.64911,134.36953 127.43825,135.17918 128.46715,135.17925 L 134.77686,135.18285 C 135.80576,135.18294 136.64117,134.35553 136.64124,133.32665 L 136.63921,128.01421 L 126.64093,127.99621 z M 167.95128,128.0117 L 167.9213,133.33036 C 167.92123,134.35924 168.74239,135.16265 169.7713,135.16274 L 176.08099,135.16634 C 177.10986,135.1664 177.95152,134.37103 177.95159,133.34214 L 177.94335,127.99769 L 167.95128,128.0117 z " />
  <path
     style="fill:#999;fill-opacity:1;fill-rule:evenodd;stroke:none;stroke-width:0.5;stroke-linecap:round;stroke-linejoin:round;stroke-miterlimit:4;stroke-opacity:1"
     d="M 46.437814,62.851027 C 36.987804,62.830127 27.537784,63.377604 18.087764,64.568435 L 18.087764,112.37389 L 74.787874,112.37389 L 74.787874,64.568435 C 65.337844,63.461209 55.887834,62.871928 46.437814,62.851027 z M 18.087764,114.42452 L 18.087764,120.39701 L 74.787874,120.39701 L 74.787874,114.42452 L 18.087764,114.42452 z M 20.830494,122.42201 L 20.830494,133.57235 C 20.830494,135.78856 26.367214,135.64969 26.367214,133.57235 L 26.367214,122.42201 L 20.830494,122.42201 z M 28.699814,122.42201 L 28.699814,133.57235 C 28.699814,135.78856 34.236534,135.64969 34.236534,133.57235 L 34.236534,128.90715 L 43.618194,128.90715 C 44.061864,130.09859 45.220584,130.93215 46.565984,130.93215 C 47.910884,130.93215 49.044114,130.0979 49.488144,128.90715 L 58.869804,128.90715 L 58.869804,133.57235 C 58.869804,135.64969 64.406524,135.78856 64.406524,133.57235 L 64.406524,122.42201 L 58.869804,122.42201 L 58.869804,126.72835 L 49.488144,126.72835 C 49.044114,125.53759 47.910884,124.6777 46.565984,124.67771 C 45.220584,124.67771 44.061864,125.5369 43.618194,126.72835 L 34.236534,126.72835 L 34.236534,122.42201 L 28.699814,122.42201 z M 66.739124,122.42201 L 66.739124,133.57235 C 66.739124,135.64969 72.275844,135.78856 72.275844,133.57235 L 72.275844,122.42201 L 66.739124,122.42201 z "
     id="path1893" />
</svg>
