<?xml version="1.0" encoding="UTF-8" standalone="no"?>
<svg
   xmlns:dc="http://purl.org/dc/elements/1.1/"
   xmlns:cc="http://creativecommons.org/ns#"
   xmlns:rdf="http://www.w3.org/1999/02/22-rdf-syntax-ns#"
   xmlns:svg="http://www.w3.org/2000/svg"
   xmlns="http://www.w3.org/2000/svg"
   width="607.65765"
   height="605.58344"
   id="svg2"
   version="1.1">
  <defs
     id="defs4" />
  <metadata
     id="metadata7">
    <rdf:RDF>
      <cc:Work
         rdf:about="">
        <dc:format>image/svg+xml</dc:format>
        <dc:type
           rdf:resource="http://purl.org/dc/dcmitype/StillImage" />
        <dc:title></dc:title>
      </cc:Work>
    </rdf:RDF>
  </metadata>
  <g
     id="layer1"
     transform="translate(974.95362,-501.92404)"
     style="paint-order:markers fill stroke">
    <text
       style="line-height:0%;paint-order:markers fill stroke"
       y="1708.6921"
       x="-648.13904"
       transform="scale(0.94465921,1.0585828)"
       id="text14277"><tspan
         style="font-variant:normal;font-weight:bold;font-size:22.7939px;line-height:1.25;font-family:Arial;-inkscape-font-specification:Arial-BoldMT;writing-mode:lr-tb;fill:#1f1a17;fill-opacity:1;fill-rule:nonzero;stroke:none;paint-order:markers fill stroke"
         x="-648.13904"
         id="tspan14279"
         y="1708.6921"> </tspan></text>
    <path
       d="m -974.8234,1107.3765 607.39824,0 0,-605.33715 -607.39824,0 0,605.33715 z"
       style="fill:#ffffff;fill-opacity:1;fill-rule:nonzero;stroke:none;paint-order:markers fill stroke"
       id="path32730" />
    <path
       d="m -974.8234,501.92404 607.39824,0 0,0.24558 -607.39824,0 0,-0.24558 z m 607.39824,0 c 0.0692,0 0.12917,0.0576 0.12917,0.1154 l -0.12917,0 0,-0.1154 z m -0.13025,0.1154 0.25943,0 0,605.33706 -0.25943,0 0,-605.33706 z m 0.25943,0 z m 0,605.33706 c 0,0.069 -0.0576,0.131 -0.12917,0.131 l 0,-0.131 0.12917,0 z m -0.12917,0.131 -607.39824,0 0,-0.2456 607.39824,0 0,0.2456 z m -607.39824,0 c -0.0692,0 -0.13023,-0.058 -0.13023,-0.131 l 0.13023,0 0,0.131 z m 0.12919,-0.131 -0.25942,0 0,-605.33706 0.25942,0 0,605.33706 z m -0.25942,0 z m 0,-605.33706 c 0,-0.0576 0.0576,-0.1154 0.13023,-0.1154 l 0,0.1154"
       style="fill:#1f1a17;fill-opacity:1;fill-rule:nonzero;stroke:none;paint-order:markers fill stroke"
       id="path32732" />
    <path
       d="m -899.28775,507.89079 457.69612,0 0,7.20577 -457.69612,0 0,-7.20577 z m 457.69612,0 c 18.765,0 35.64198,7.49448 47.83491,19.68742 l -5.10199,5.07317 c -10.86699,-10.86697 -25.94242,-17.55436 -42.73292,-17.55436 l 0,-7.20623 z m 42.73292,24.77501 0,-0.0123 2.55099,-2.5366 -2.55099,2.551 z m 5.10199,-5.10201 c 12.17852,12.17852 19.673,29.0555 19.673,47.83492 l -7.20621,0 c 0,-16.77609 -6.70181,-31.85152 -17.56878,-42.73291 l 5.10199,-5.10201 z m 12.46679,47.83492 7.20621,0 0,457.69619 -7.20621,0 0,-457.69619 z m 7.20621,0 z m 0,457.69619 c 0,18.7505 -7.49448,35.6418 -19.6874,47.8349 l -5.07319,-5.102 c 10.86699,-10.8671 17.55438,-25.9569 17.55438,-42.7329 l 7.20621,0 z m -24.77499,42.7472 0.0123,-0.017 2.53659,2.551 -2.55099,-2.5365 z m 5.10199,5.0588 c -12.19293,12.2074 -29.06991,19.7019 -47.83491,19.7019 l 0,-7.2063 c 16.7905,0 31.86593,-6.6873 42.73292,-17.5544 l 5.10199,5.0588 z m -47.83491,19.7019 -457.69612,0 0,-7.2059 457.69612,0 0,7.2059 z m -457.69612,0 c -18.76503,0 -35.642,-7.4945 -47.83491,-19.673 l 5.10199,-5.102 c 10.8814,10.8669 25.95682,17.5687 42.73292,17.5687 l 0,7.2063 z m -42.74732,-24.775 0.0123,0 -2.551,2.551 2.5366,-2.551 z m -5.07319,5.102 c -12.19294,-12.1931 -19.6874,-29.0844 -19.6874,-47.8349 l 7.20621,0 c 0,16.776 6.68738,31.8658 17.55438,42.7329 l -5.07319,5.102 z m -12.48119,-47.8349 -7.20621,0 0,-457.69619 7.20621,0 0,457.69619 z m -7.20621,0 z m 0,-457.69619 c 0,-18.77942 7.49446,-35.6564 19.673,-47.83492 l 5.10199,5.10201 c -10.8814,10.88139 -17.56878,25.95682 -17.56878,42.73291 l -7.20621,0 z m 19.673,-47.83492 c 12.19291,-12.17852 29.06988,-19.673 47.83491,-19.673 l 0,7.20623 c -16.7761,0 -31.85152,6.68739 -42.73292,17.56878"
       style="fill:#000000;fill-opacity:1;fill-rule:nonzero;stroke:none;paint-order:markers fill stroke"
       id="path32734" />
    <g
       id="g32736"
       transform="matrix(14.412449,0,0,-14.412449,-757.19543,642.33012)"
       style="fill:#000000;paint-order:markers fill stroke">
      <path
         d="m 0,0 1.449,0 0,-1.218 -2.964,0 0,1.218 1.43,2.101 -1.43,0 0,1.218 2.964,0 0,-1.218 -0.011,0.011"
         style="fill:#000000;fill-opacity:1;fill-rule:evenodd;stroke:none;paint-order:markers fill stroke"
         id="path32738" />
    </g>
    <g
       id="g32740"
       transform="matrix(14.412449,0,0,-14.412449,-700.6554,590.63266)"
       style="fill:#000000;paint-order:markers fill stroke">
      <path
         d="m 0,0 c 0.539,0 1.001,-0.238 1.383,-0.715 0.383,-0.477 0.574,-1.047 0.574,-1.71 0,-0.67 -0.191,-1.242 -0.574,-1.715 C 1.001,-4.613 0.539,-4.85 0,-4.85 c -0.539,0 -1.001,0.237 -1.383,0.71 -0.383,0.473 -0.574,1.045 -0.574,1.715 0,0.663 0.191,1.233 0.574,1.71 C -1.001,-0.238 -0.539,0 0,0 z m 0,-1.274 c -0.207,0 -0.384,-0.085 -0.532,-0.257 -0.147,-0.171 -0.221,-0.38 -0.221,-0.626 l 0,-0.547 c 0,-0.239 0.074,-0.444 0.221,-0.615 0.148,-0.171 0.325,-0.257 0.532,-0.257 0.201,0 0.375,0.086 0.522,0.257 0.148,0.171 0.221,0.376 0.221,0.615 l 0,0.547 c 0,0.246 -0.073,0.455 -0.221,0.626 C 0.375,-1.359 0.201,-1.274 0,-1.274"
         style="fill:#000000;fill-opacity:1;fill-rule:evenodd;stroke:none;paint-order:markers fill stroke"
         id="path32742" />
    </g>
    <g
       id="g32744"
       transform="matrix(14.412449,0,0,-14.412449,-609.22282,620.10613)"
       style="fill:#000000;paint-order:markers fill stroke">
      <path
         d="m 0,0 0,-2.805 -1.204,0 0,2.593 c 0,0.216 -0.063,0.387 -0.189,0.514 -0.125,0.126 -0.269,0.189 -0.433,0.189 -0.156,0 -0.288,-0.051 -0.395,-0.156 C -2.34,0.209 -2.399,0.041 -2.399,-0.168 l 0,-2.637 -1.214,0 0,4.492 1.054,0 0.103,-0.19 c 0.339,0.231 0.668,0.347 0.988,0.347 0.426,0 0.778,-0.179 1.054,-0.537 C -0.138,0.95 0,0.514 0,0"
         style="fill:#000000;fill-opacity:1;fill-rule:evenodd;stroke:none;paint-order:markers fill stroke"
         id="path32746" />
    </g>
    <g
       id="g32748"
       transform="matrix(14.412449,0,0,-14.412449,-588.49772,616.89215)"
       style="fill:#000000;paint-order:markers fill stroke">
      <path
         d="m 0,0 -0.555,1.017 c 0.433,0.492 1.007,0.737 1.722,0.737 0.458,0 0.834,-0.115 1.129,-0.346 C 2.628,1.147 2.795,0.793 2.795,0.346 l 0,-1.877 c 0,-0.194 0.062,-0.29 0.188,-0.29 l 0.235,0 L 2.813,-2.95 C 2.55,-2.972 2.34,-2.939 2.183,-2.849 2.171,-2.842 2.051,-2.749 1.826,-2.57 1.437,-2.86 1.063,-3.006 0.706,-3.006 c -0.389,0 -0.712,0.16 -0.969,0.481 -0.239,0.29 -0.358,0.633 -0.358,1.028 0,0.342 0.097,0.64 0.292,0.894 0.219,0.283 0.536,0.465 0.95,0.547 l 0.913,0.19 C 1.572,0.38 1.434,0.503 1.12,0.503 0.743,0.503 0.37,0.335 0,0 z M 1.562,-0.961 C 1.367,-1.02 1.201,-1.058 1.063,-1.073 0.75,-1.102 0.593,-1.214 0.593,-1.408 c 0,-0.089 0.044,-0.173 0.131,-0.251 0.088,-0.079 0.192,-0.118 0.311,-0.118 0.201,0 0.376,0.105 0.527,0.313"
         style="fill:#000000;fill-opacity:1;fill-rule:evenodd;stroke:none;paint-order:markers fill stroke"
         id="path32750" />
    </g>
    <path
       d="m -757.19543,642.11393 20.88363,0 0,0.44852 -20.88363,0 0,-0.44852 z m 20.88363,0 0.1868,0 0,0.21793 -0.1868,0 0,-0.21793 z m -0.18792,0.21561 0.37472,0 0,17.55298 -0.37472,0 0,-17.55298 z m 0.37472,0 z m -0.1868,17.55436 0.1868,0 0,0.23059 -0.1868,0 0,-0.23059 z m 0.1868,0 z m -0.1868,0.23059 -42.71848,0 0,-0.44734 42.71848,0 0,0.44734 z m -42.71848,0 -0.18679,0 0,-0.23059 0.18679,0 0,0.23059 z m 0.18795,-0.23059 -0.37474,0 0,-17.55286 0.37474,0 0,17.55286 z m -0.37474,0 z m 0,-17.55436 0.0462,-0.13025 0.14405,0.13025 -0.18792,0 z m 0.0462,-0.13025 20.60979,-30.28056 0.28827,0.27443 -20.60981,30.28055 -0.28825,-0.27442 z m 20.75392,-30.36704 0.38857,0 -0.24561,0.35974 -0.14403,-0.13025 0,-0.2306 z m 0,0.44622 -20.6098,0 0,-0.44622 20.6098,0 0,0.44622 z m -20.6098,0 -0.18677,0 0,-0.2156 0.18677,0 0,0.2156 z m 0.18795,-0.2156 -0.37472,0 0,-17.55438 0.37472,0 0,17.55438 z m -0.37472,0 z m 0.18677,-17.55438 -0.18677,0 0,-0.23059 0.18677,0 0,0.23059 z m -0.18677,0 z m 0.18677,-0.23059 42.71851,0 0,0.44737 -42.71851,0 0,-0.44737 z m 42.71851,0 0.18677,0 0,0.23059 -0.18677,0 0,-0.23059 z m -0.18795,0.23059 0.37472,0 0,17.55438 -0.37472,0 0,-17.55438 z m 0.37472,0 z m 0,17.55438 0,0.4612 -0.30207,-0.30326 0.11539,-0.15802 0.18678,0 z m -0.30207,0.15801 -0.1591,-0.15801 0.23062,-0.33207 0.15803,0.15909 -0.2306,0.33091 z m -0.18795,-0.46118 0.1154,-0.17289 0.14422,0.14422 -0.1154,0.17289 -0.14422,-0.14404 z m 0.28826,0.27326 -20.72512,30.43908 -0.28824,-0.2744 20.7251,-30.43911 0.28826,0.27328 z m -20.86922,30.52556 -0.38857,0 0.24558,-0.35974 0.14405,0.13024"
       style="fill:#000000;fill-opacity:1;fill-rule:nonzero;stroke:none;paint-order:markers fill stroke"
       id="path32752" />
    <g
       id="g32754"
       transform="matrix(14.412449,0,0,-14.412449,-700.6554,590.41648)"
       style="fill:#000000;paint-order:markers fill stroke">
      <path
         d="M 0,0 C 0.543,0 1.008,-0.24 1.393,-0.72 L 1.374,-0.741 C 0.994,-0.268 0.535,-0.031 0,-0.031 L 0,0 z M 1.393,-0.72 C 1.585,-0.96 1.73,-1.224 1.826,-1.51 L 1.802,-1.521 c -0.095,0.283 -0.238,0.543 -0.428,0.78 L 1.393,-0.72 z M 1.826,-1.51 C 1.921,-1.796 1.97,-2.107 1.97,-2.44 l -0.026,0 c 0,0.329 -0.047,0.636 -0.142,0.919 L 1.826,-1.51 z M 1.97,-2.44 c 0,-0.337 -0.049,-0.65 -0.144,-0.938 l -0.024,0.012 c 0.094,0.284 0.142,0.593 0.142,0.926 l 0.026,0 z M 1.826,-3.378 C 1.73,-3.665 1.585,-3.929 1.393,-4.166 l -0.019,0.021 c 0.19,0.235 0.333,0.495 0.428,0.779 L 1.826,-3.378 z M 1.393,-4.166 C 1.2,-4.404 0.987,-4.583 0.755,-4.702 l -0.01,0.028 c 0.229,0.118 0.439,0.294 0.629,0.529 L 1.393,-4.166 z M 0.755,-4.702 C 0.524,-4.821 0.271,-4.88 0,-4.88 l 0,0.03 c 0.268,0 0.517,0.059 0.745,0.176 l 0.01,-0.028 z M 0,-4.88 c -0.271,0 -0.524,0.059 -0.755,0.178 l 0.01,0.028 C -0.516,-4.791 -0.268,-4.85 0,-4.85 l 0,-0.03 z m -0.755,0.178 c -0.232,0.119 -0.445,0.298 -0.638,0.536 l 0.019,0.021 c 0.19,-0.235 0.4,-0.411 0.629,-0.529 l -0.01,-0.028 z m -0.638,0.536 c -0.192,0.237 -0.336,0.501 -0.433,0.788 l 0.024,0.012 c 0.095,-0.284 0.238,-0.544 0.428,-0.779 l -0.019,-0.021 z m -0.433,0.788 C -1.922,-3.09 -1.97,-2.777 -1.97,-2.44 l 0.026,0 c 0,-0.333 0.047,-0.642 0.142,-0.926 L -1.826,-3.378 z M -1.97,-2.44 c 0,0.667 0.193,1.241 0.577,1.72 l 0.019,-0.021 c -0.38,-0.474 -0.57,-1.04 -0.57,-1.699 l -0.026,0 z m 0.577,1.72 c 0.193,0.24 0.405,0.42 0.638,0.54 l 0.01,-0.028 c -0.229,-0.118 -0.439,-0.296 -0.629,-0.533 l -0.019,0.021 z m 0.638,0.54 C -0.523,-0.06 -0.271,0 0,0 l 0,-0.031 c -0.268,0 -0.517,-0.059 -0.745,-0.177 l -0.01,0.028 z M 0,-1.305 c -0.102,0 -0.196,-0.021 -0.283,-0.063 l -0.01,0.029 c 0.09,0.043 0.188,0.065 0.293,0.065 L 0,-1.305 z M -0.283,-1.368 C -0.37,-1.409 -0.45,-1.473 -0.523,-1.557 l -0.018,0.022 c 0.075,0.086 0.158,0.152 0.248,0.196 l 0.01,-0.029 z m -0.24,-0.189 c -0.072,-0.084 -0.127,-0.178 -0.163,-0.28 l -0.024,0.012 c 0.038,0.106 0.094,0.203 0.169,0.29 l 0.018,-0.022 z m -0.163,-0.28 C -0.722,-1.94 -0.74,-2.052 -0.74,-2.172 l -0.026,0 c 0,0.125 0.019,0.241 0.056,0.347 l 0.024,-0.012 z m -0.08,-0.335 0.02597,0 0,-0.54797 -0.02597,0 0,0.54797 z m 0.026,0 z m 0,-0.548 c 0,-0.233 0.073,-0.435 0.217,-0.603 l -0.018,-0.022 c -0.149,0.174 -0.225,0.383 -0.225,0.625 l 0.026,0 z m 0.217,-0.603 c 0.073,-0.085 0.153,-0.148 0.24,-0.19 l -0.01,-0.028 c -0.09,0.043 -0.173,0.109 -0.248,0.196 l 0.018,0.022 z m 0.24,-0.19 C -0.196,-3.555 -0.102,-3.576 0,-3.576 l 0,-0.031 c -0.105,0 -0.203,0.022 -0.293,0.066 l 0.01,0.028 z M 0,-3.576 c 0.099,0 0.191,0.021 0.276,0.063 l 0.01,-0.028 C 0.198,-3.585 0.102,-3.607 0,-3.607 l 0,0.031 z m 0.276,0.063 c 0.085,0.042 0.165,0.105 0.237,0.19 L 0.531,-3.345 C 0.456,-3.432 0.375,-3.498 0.286,-3.541 l -0.01,0.028 z m 0.237,0.19 0.009,-0.011 -0.009,0.011 z m 0,0 c 0.072,0.084 0.127,0.177 0.163,0.277 L 0.7,-3.058 C 0.663,-3.162 0.606,-3.258 0.531,-3.345 l -0.018,0.022 z m 0.163,0.277 c 0.036,0.1 0.054,0.21 0.054,0.326 l 0.026,0 c 0,-0.121 -0.019,-0.235 -0.056,-0.338 l -0.024,0.012 z m 0.08,0.326 -0.026001,0 0,0.54797 0.026001,0 0,-0.54797 z m -0.026,0 z m 0,0.548 c 0,0.241 -0.072,0.446 -0.217,0.615 l 0.018,0.022 c 0.15,-0.174 0.225,-0.387 0.225,-0.637 l -0.026,0 z m -0.217,0.615 c -0.072,0.084 -0.152,0.148 -0.237,0.189 l 0.01,0.029 c 0.089,-0.044 0.171,-0.11 0.245,-0.196 L 0.513,-1.557 z M 0.276,-1.368 C 0.191,-1.326 0.098,-1.305 0,-1.305 l 0,0.031 c 0.102,0 0.198,-0.022 0.286,-0.065"
         style="fill:#000000;fill-opacity:1;fill-rule:nonzero;stroke:none;paint-order:markers fill stroke"
         id="path32756" />
    </g>
    <path
       d="m -609.39577,620.10613 0.35973,0 0,40.4284 -0.35973,0 0,-40.4284 z m 0.35973,0 z m -0.18678,40.42691 0.18678,0 0,0.21447 -0.18678,0 0,-0.21447 z m 0.18678,0 z m -0.18678,0.21562 -17.3526,0 0,-0.43123 17.3526,0 0,0.43123 z m -17.3526,0 -0.18792,0 0,-0.21446 0.18792,0 0,0.21446 z m 0.1868,-0.21562 -0.37472,0 0,-37.37147 0.37472,0 0,37.37147 z m -0.37472,0 z m 0,-37.37147 c 0,-1.51331 -0.21678,-2.88251 -0.66298,-4.09314 l 0.34588,-0.17289 c 0.44622,1.23948 0.69182,2.68072 0.69182,4.2661 l -0.37472,0 z m -0.66298,-4.09314 c -0.4462,-1.21064 -1.1092,-2.26276 -1.98891,-3.14191 l 0.24442,-0.33206 c 0.9224,0.92239 1.6286,2.03215 2.08981,3.30043 l -0.34589,0.17289 z m -1.98891,-3.14191 c -0.86475,-0.89358 -1.83039,-1.55654 -2.85367,-2.01775 l 0.12917,-0.41738 c 1.05268,0.4612 2.04656,1.16741 2.96896,2.10421 l -0.24442,0.33207 z m -2.85367,-2.01775 c -1.02386,-0.43238 -2.11863,-0.66297 -3.25721,-0.66297 l 0,-0.44622 c 1.19623,0 2.33482,0.2456 3.38691,0.69181 l -0.12917,0.41738 z m -3.25721,-0.66297 c -1.10918,0 -2.14746,0.18792 -3.06986,0.54766 l -0.1154,-0.41736 c 0.98004,-0.37474 2.03216,-0.57652 3.18516,-0.57652 l 0,0.44622 z m -3.06986,0.54766 c -0.90741,0.35974 -1.75832,0.92241 -2.50777,1.65746 l -0.24442,-0.34593 c 0.77827,-0.76327 1.67183,-1.34034 2.63747,-1.72948 l 0.1154,0.41738 z m -2.75277,1.31153 0.12917,0.17289 -0.12917,-0.17289 z m 0.24442,0.33208 c -0.83591,0.87858 -1.47006,1.93128 -1.88802,3.11308 l -0.33205,-0.17289 c 0.43237,-1.23948 1.09534,-2.33482 1.97449,-3.27163 l 0.24443,0.33207 z m -1.88802,3.11308 c -0.40355,1.16742 -0.62032,2.50778 -0.62032,3.97784 l -0.37473,0 c 0,-1.54213 0.23061,-2.92573 0.663,-4.15078 l 0.33205,0.17289 z m -0.99505,3.97784 0.37473,0 0,38.00563 -0.37473,0 0,-38.00563 z m 0.37473,0 z m -0.18678,38.00563 0.18678,0 0,0.21446 -0.18678,0 0,-0.21446 z m 0.18678,0 z m -0.18678,0.2156 -17.49672,0 0,-0.43121 17.49672,0 0,0.43121 z m -17.49672,0 -0.18677,0 0,-0.21445 0.18677,0 0,0.21445 z m 0.18795,-0.2156 -0.37472,0 0,-64.74072 0.37472,0 0,64.74072 z m -0.37472,0 z m 0.18677,-64.74072 -0.18677,0 0,-0.2306 0.18677,0 0,0.2306 z m -0.18677,0 z m 0.18677,-0.2306 15.19073,0 0,0.44621 -15.19073,0 0,-0.44621 z m 15.19073,0 0.10367,0 0.0576,0.10367 -0.15803,0.13025 0,-0.23061 z m 0.15908,0.10367 1.48448,2.75278 -0.30324,0.2306 -1.49889,-2.73836 0.31707,-0.2456 z m 1.42684,3.05545 -0.15909,0.10367 -0.0807,-0.17289 0.14403,-0.1154 0.10368,0.18794 z m -0.18795,-0.37473 c 2.45011,-1.67184 4.87141,-2.94014 7.26388,-3.77606 l 0.10367,0.43238 c -2.34922,0.82092 -4.75612,2.07538 -7.17739,3.71841 l -0.1868,-0.37473 z m 7.26388,-3.77606 c 2.37805,-0.83592 4.74169,-1.25388 7.06209,-1.25388 l 0,0.44736 c -2.27717,0 -4.61198,0.41738 -6.96121,1.23947 l -0.10367,-0.43238 z m 7.06209,-1.25388 c 3.09867,0 5.93792,0.64798 8.48893,1.94567 l -0.14403,0.41739 c -2.52219,-1.2827 -5.3038,-1.91686 -8.34482,-1.91686 l 0,-0.44736 z m 8.48893,1.94567 c 2.55102,1.29712 4.82818,3.25721 6.84593,5.85145 l -0.27443,0.30325 c -1.96009,-2.551 -4.20843,-4.46786 -6.71619,-5.73615 l 0.14422,-0.41739 z m 6.84593,5.85145 c 1.98891,2.59425 3.50222,5.49115 4.51108,8.64749 l -0.34589,0.15908 c -0.98004,-3.1131 -2.47894,-5.95234 -4.43904,-8.50333 l 0.27441,-0.30325 z m 4.51108,8.64749 c 0.99505,3.17073 1.4989,6.61531 1.4989,10.34812 l -0.35974,0 c 0,-3.67518 -0.50385,-7.07651 -1.48447,-10.18959"
       style="fill:#000000;fill-opacity:1;fill-rule:nonzero;stroke:none;paint-order:markers fill stroke"
       id="path32758" />
    <g
       id="g32760"
       transform="matrix(14.412449,0,0,-14.412449,-588.65625,617.00744)"
       style="fill:#000000;paint-order:markers fill stroke">
      <path
         d="M 0,0 -0.555,1.017 -0.533,1.034 0.022,0.017 0,0 z m -0.555,1.017 -0.006,0.011 0.008,0.008 0.009,-0.011 -0.011,-0.008 z m 0.002,0.019 c 0.218,0.247 0.471,0.433 0.76,0.557 L 0.215,1.564 C -0.07,1.442 -0.321,1.258 -0.535,1.014 l -0.018,0.022 z m 0.76,0.557 c 0.287,0.123 0.612,0.185 0.97,0.185 l 0,-0.031 C 0.822,1.747 0.5,1.686 0.215,1.564 L 0.207,1.593 z m 0.97,0.185 c 0.23,0 0.44,-0.029 0.63,-0.087 L 1.8,1.661 C 1.614,1.718 1.405,1.747 1.177,1.747 l 0,0.031 z M 1.807,1.691 C 1.996,1.633 2.166,1.545 2.314,1.429 L 2.3,1.403 C 2.154,1.518 1.987,1.604 1.8,1.661 l 0.007,0.03 z M 2.314,1.429 C 2.482,1.297 2.608,1.141 2.692,0.963 L 2.669,0.948 C 2.588,1.122 2.464,1.275 2.3,1.403 L 2.314,1.429 z M 2.692,0.963 C 2.776,0.784 2.818,0.581 2.818,0.355 l -0.025,0 c 0,0.22 -0.042,0.418 -0.124,0.593 l 0.023,0.015 z m 0.101,-0.608 0.024994,0 0,-1.877 -0.024994,0 0,1.877 z m 0.025,0 z m 0,-1.877 c 0,-0.094 0.015,-0.163 0.045,-0.209 L 2.842,-1.75 c -0.033,0.051 -0.049,0.127 -0.049,0.228 l 0.025,0 z m 0.045,-0.209 c 0.028,-0.044 0.072,-0.067 0.131,-0.067 l 0,-0.03 c -0.067,0 -0.118,0.026 -0.152,0.078 l 0.021,0.019 z m 0.131,-0.067 0.23499,0 0,-0.029999 -0.23499,0 0,0.029999 z m 0.235,0 0.019,0 -0.007,-0.021 -0.012,0.006 0,0.015 z M 3.241,-1.819 2.836,-2.948 2.812,-2.936 3.217,-1.807 3.241,-1.819 z M 2.836,-2.948 2.833,-2.956 2.825,-2.957 2.824,-2.942 2.836,-2.948 z M 2.825,-2.957 C 2.694,-2.968 2.574,-2.965 2.468,-2.948 l 0.003,0.03 C 2.574,-2.935 2.692,-2.937 2.823,-2.926 L 2.825,-2.957 z M 2.468,-2.948 C 2.361,-2.932 2.267,-2.9 2.188,-2.855 l 0.011,0.028 c 0.078,-0.044 0.169,-0.075 0.272,-0.091 l -0.003,-0.03 z m -0.28,0.093 0.006,0.014 -0.006,-0.014 z m 0,0 c -0.007,0.004 -0.041,0.03 -0.1,0.076 l 0.014,0.026 C 2.161,-2.799 2.194,-2.825 2.199,-2.827 L 2.188,-2.855 z m -0.1,0.076 c -0.059,0.047 -0.146,0.115 -0.259,0.204 l 0.014,0.026 c 0.113,-0.089 0.2,-0.158 0.259,-0.204 L 2.088,-2.779 z M 1.83,-2.549 1.836,-2.543 1.843,-2.549 1.836,-2.562 1.83,-2.549 z M 1.843,-2.575 C 1.648,-2.72 1.456,-2.83 1.269,-2.903 l -0.008,0.029 c 0.184,0.072 0.375,0.181 0.569,0.325 L 1.843,-2.575 z M 1.269,-2.903 C 1.081,-2.976 0.896,-3.013 0.717,-3.013 l 0,0.031 c 0.177,0 0.359,0.036 0.544,0.108 l 0.008,-0.029 z m -0.552,-0.11 c -0.393,0 -0.719,0.162 -0.979,0.485 l 0.019,0.021 c 0.254,-0.317 0.574,-0.475 0.96,-0.475 l 0,-0.031 z m -0.96,0.507 0,-0.001 -0.009,-0.01 0.009,0.011 z m -0.019,-0.022 c -0.119,0.146 -0.21,0.307 -0.271,0.48 l 0.024,0.011 c 0.059,-0.169 0.148,-0.326 0.266,-0.469 l -0.019,-0.022 z m -0.271,0.48 c -0.06,0.173 -0.09,0.359 -0.09,0.559 l 0.026,0 c 0,-0.195 0.029,-0.378 0.088,-0.548 l -0.024,-0.011 z m -0.09,0.559 c 0,0.347 0.099,0.649 0.295,0.904 l 0.019,-0.02 c -0.192,-0.25 -0.288,-0.546 -0.288,-0.884 l -0.026,0 z m 0.295,0.904 0.009,-0.01 -0.009,0.01 z m 0,0 c 0.111,0.143 0.247,0.261 0.406,0.353 L 0.089,-0.26 c -0.157,-0.09 -0.29,-0.206 -0.398,-0.345 l -0.019,0.02 z m 0.406,0.353 c 0.159,0.091 0.344,0.158 0.552,0.199 l 0.004,-0.03 C 0.429,-0.103 0.247,-0.169 0.089,-0.26 l -0.011,0.028 z m 0.556,0.169 -0.002,0.015 0.002,-0.015 z m -0.004,0.03 0.912,0.19 0.005,-0.03 -0.913,-0.19 -0.004,0.03 z M 1.557,0.139 1.556,0.129 1.547,0.127 1.545,0.142 1.557,0.139 z M 1.532,0.145 C 1.55,0.262 1.526,0.349 1.462,0.407 L 1.477,0.431 C 1.55,0.366 1.577,0.269 1.557,0.139 L 1.532,0.145 z M 1.462,0.407 C 1.395,0.466 1.284,0.496 1.131,0.496 l 0,0.03 c 0.159,0 0.275,-0.032 0.346,-0.095 L 1.462,0.407 z M 1.131,0.496 C 0.944,0.496 0.757,0.454 0.573,0.371 L 0.564,0.4 c 0.188,0.084 0.377,0.126 0.567,0.126 l 0,-0.03 z M 0.573,0.371 C 0.388,0.288 0.203,0.162 0.019,-0.004 L 0.003,0.02 C 0.188,0.188 0.376,0.315 0.564,0.4 L 0.573,0.371 z M 0.019,-0.004 0.007,-0.014 0,0 0.011,0.008 0.019,-0.004 z M 1.576,-0.967 C 1.478,-0.997 1.387,-1.022 1.305,-1.04 L 1.3,-1.01 c 0.083,0.018 0.173,0.043 0.27,0.072 L 1.576,-0.967 z M 1.305,-1.04 C 1.221,-1.059 1.144,-1.073 1.075,-1.08 l -0.002,0.031 c 0.069,0.007 0.145,0.02 0.227,0.039 L 1.305,-1.04 z M 1.075,-1.08 C 0.92,-1.094 0.804,-1.129 0.728,-1.184 l -0.013,0.026 c 0.08,0.058 0.2,0.094 0.358,0.109 L 1.075,-1.08 z M 0.728,-1.184 C 0.654,-1.236 0.616,-1.309 0.616,-1.4 l -0.025,0 c 0,0.103 0.041,0.184 0.124,0.242 L 0.728,-1.184 z M 0.616,-1.4 c 0,-0.084 0.043,-0.164 0.127,-0.239 L 0.728,-1.663 C 0.637,-1.582 0.591,-1.494 0.591,-1.4 l 0.025,0 z M 0.743,-1.639 C 0.828,-1.715 0.93,-1.753 1.046,-1.753 l 0,-0.031 c -0.122,0 -0.228,0.041 -0.318,0.121 l 0.015,0.024 z m 0.303,-0.114 c 0.197,0 0.369,0.103 0.517,0.307 L 1.582,-1.465 C 1.429,-1.677 1.25,-1.784 1.046,-1.784 l 0,0.031 z m 0.539,0.297 -0.003,-0.009 -0.009,0.009 0.012,0 z m 0,0 -0.025024,0 0,0.50296 0.025024,0 0,-0.50296 z m -0.025,0 z m 0.01,0.518 0.015,0.005 0,-0.02 -0.012,0"
         style="fill:#000000;fill-opacity:1;fill-rule:nonzero;stroke:none;paint-order:markers fill stroke"
         id="path32762" />
    </g>
    <g
       id="g1117"
       transform="matrix(1.6008987,0,0,1.6008987,-833.0343,728.21427)"
       style="stroke-width:0.624649;paint-order:markers fill stroke">
      <path
         d="m 177.18833,110.61008 a 85.676392,85.676392 0 1 1 -171.3527816,0 85.676392,85.676392 0 1 1 171.3527816,0 z"
         transform="matrix(1.167183,0,0,1.167183,-6.811181,-29.1022)"
         style="fill:#000000;fill-opacity:1;fill-rule:evenodd;stroke:none;stroke-width:4.06022;stroke-linecap:butt;stroke-linejoin:round;stroke-miterlimit:4;stroke-dasharray:none;paint-order:markers fill stroke"
         id="path1873" />
      <path
         d="m 199,100.02321 a 99.000004,99.000004 0 0 1 -198.00000256,0 99.000004,99.000004 0 1 1 198.00000256,0 z"
         style="fill:#ffffff;fill-opacity:1;fill-rule:evenodd;stroke:none;stroke-width:0.624649;paint-order:markers fill stroke"
         id="path1875" />
      <path
         d="m 197.00001,100.03004 a 97.000016,97.000023 0 0 1 -194.0000227,0 97.000016,97.000023 0 1 1 194.0000227,0 z"
         style="fill:#d40000;fill-opacity:1;fill-rule:evenodd;stroke:none;stroke-width:0.624649;paint-order:markers fill stroke"
         id="path1877" />
      <ellipse
         style="fill:#ffffff;fill-opacity:1;fill-rule:evenodd;stroke:none;stroke-width:0.624649;paint-order:markers fill stroke"
         id="path1874"
         transform="matrix(1.785789,0,0,2.088,-37.368392,-87.199999)"
         cx="76.92308"
         cy="89.655174"
         rx="40.318302"
         ry="34.482758" />
      <g
         id="g1878"
         transform="translate(-5.8940026,-2.436756)"
         style="stroke-width:0.624649;paint-order:markers fill stroke">
        <g
           transform="matrix(3.610701,0,0,3.610701,-256.40532,-201.91307)"
           style="font-style:normal;font-variant:normal;font-weight:normal;font-stretch:normal;font-size:40px;line-height:125%;font-family:'Transport Narrow (Alfabeto Stre';-inkscape-font-specification:'Transport Narrow (Alfabeto Stre';text-align:center;letter-spacing:0px;word-spacing:0px;writing-mode:lr-tb;text-anchor:middle;fill:#000000;fill-opacity:1;stroke:none;stroke-width:0.624649;paint-order:markers fill stroke"
           id="flowRoot4383">
          <g
             transform="matrix(0.97068049,0,0,0.97068049,28.238974,7.4378716)"
             style="font-family:'Transport Narrow (Alfabeto Stre';-inkscape-font-specification:'Transport Narrow (Alfabeto Stre';fill:#000000;stroke-width:0.624649;paint-order:markers fill stroke"
             id="flowRoot4540">
            <path
               d="m 69.223639,78.744865 c 2.591134,1.354185 3.886705,3.216162 3.886718,5.585937 -1.3e-5,1.848971 -0.735689,3.411469 -2.207031,4.6875 -1.09376,0.989592 -2.428394,1.484383 -4.003906,1.484375 -1.510422,8e-6 -2.825525,-0.481762 -3.945313,-1.445312 -1.236981,-1.067698 -1.959636,-2.558582 -2.167968,-4.472656 l 4.511718,-1.054688 c 0.02604,1.757826 0.520828,2.636731 1.484375,2.636719 0.403639,1.2e-5 0.761711,-0.208321 1.074219,-0.625 0.325513,-0.403633 0.488273,-0.924466 0.488281,-1.5625 -8e-6,-1.835922 -1.334642,-2.675764 -4.003906,-2.519531 l -0.03906,-4.316407 c 2.13541,-0.325499 3.281242,-1.341123 3.4375,-3.046875 0.117179,-0.963516 -0.214852,-1.445287 -0.996094,-1.445312 -1.041673,2.5e-5 -1.64063,0.86591 -1.796875,2.597656 l -4.121094,-0.585937 c 0.156249,-2.161433 0.833332,-3.815077 2.03125,-4.960938 1.067704,-1.015595 2.337234,-1.523407 3.808594,-1.523437 1.302075,3e-5 2.447907,0.384144 3.4375,1.152343 1.445301,1.11982 2.167956,2.591173 2.167969,4.414063 -1.3e-5,2.096376 -1.015637,3.763041 -3.046875,5 z"
               id="path4684"
               style="stroke-width:0.624649;paint-order:markers fill stroke" />
            <path
               d="m 80.96875,74.369865 c 0.364576,-1.3281 0.826815,-1.992162 1.386719,-1.992188 0.559887,2.6e-5 1.028636,0.664088 1.40625,1.992188 0.351552,1.289085 0.527333,2.877625 0.527343,4.765625 -1e-5,1.861996 -0.175791,3.437516 -0.527343,4.726562 -0.377614,1.328138 -0.846363,1.9922 -1.40625,1.992188 -0.585946,1.2e-5 -1.048185,-0.651029 -1.386719,-1.953125 -0.377611,-1.34113 -0.566413,-2.903629 -0.566406,-4.6875 -7e-6,-1.809875 0.188795,-3.424457 0.566406,-4.84375 z m -3.535156,-2.792969 c -1.380211,2.500024 -1.806303,4.955795 -1.806302,7.442753 -10e-7,2.500017 0.426091,5.018199 1.806302,7.479122 1.367182,2.473968 3.037103,3.710946 5.009765,3.710938 1.972646,8e-6 3.668608,-1.23697 5.087891,-3.710938 1.302068,-2.343736 1.613666,-4.709708 1.613682,-7.248787 -1.6e-5,-2.539041 -0.311614,-5.147022 -1.613682,-7.673088 -1.315116,-2.48695 -2.985037,-3.730438 -5.009766,-3.730469 -2.024746,3.1e-5 -3.720708,1.243519 -5.08789,3.730469 z"
               id="path4686"
               style="stroke-width:0.624649;paint-order:markers fill stroke" />
          </g>
        </g>
      </g>
    </g>
  </g>
  <path
     d="M 42.807351,546.61713 H 157.34303 L 563.48856,227.81725 H 448.96827"
     style="fill:#d40000;fill-opacity:1;fill-rule:evenodd;stroke:none;stroke-width:14.3779"
     id="path32820" />
  <path
     style="fill:none;stroke:#ffffff;stroke-width:3.2;stroke-linecap:butt;stroke-linejoin:miter;stroke-opacity:1;stroke-miterlimit:4;stroke-dasharray:none"
     d="M 42.807351,546.61713 H 157.34303 L 563.48856,227.81725 H 448.96827 L 42.807351,546.61713"
     id="path1735" />
</svg>
