<?xml version="1.0" encoding="UTF-8" standalone="no"?>
<!-- Created with Inkscape (http://www.inkscape.org/) -->

<svg
   xmlns:dc="http://purl.org/dc/elements/1.1/"
   xmlns:cc="http://creativecommons.org/ns#"
   xmlns:rdf="http://www.w3.org/1999/02/22-rdf-syntax-ns#"
   xmlns:svg="http://www.w3.org/2000/svg"
   xmlns="http://www.w3.org/2000/svg"
   xmlns:sodipodi="http://sodipodi.sourceforge.net/DTD/sodipodi-0.dtd"
   xmlns:inkscape="http://www.inkscape.org/namespaces/inkscape"
   version="1.0"
   width="600"
   height="600"
   id="svg2"
   sodipodi:version="0.32"
   inkscape:version="0.47 r22583"
   sodipodi:docname="Italian_traffic_signs_-_fine_del_divieto_di_sorpasso.svg"
   inkscape:output_extension="org.inkscape.output.svg.inkscape">
  <metadata
     id="metadata12">
    <rdf:RDF>
      <cc:Work
         rdf:about="">
        <dc:format>image/svg+xml</dc:format>
        <dc:type
           rdf:resource="http://purl.org/dc/dcmitype/StillImage" />
      </cc:Work>
    </rdf:RDF>
  </metadata>
  <sodipodi:namedview
     inkscape:window-height="1003"
     inkscape:window-width="1280"
     inkscape:pageshadow="2"
     inkscape:pageopacity="0.0"
     guidetolerance="10.0"
     gridtolerance="10.0"
     objecttolerance="10.0"
     borderopacity="1.0"
     bordercolor="#666666"
     pagecolor="#ffffff"
     id="base"
     inkscape:zoom="0.44"
     inkscape:cx="362.58214"
     inkscape:cy="372.56714"
     inkscape:window-x="-4"
     inkscape:window-y="-4"
     inkscape:current-layer="svg2"
     width="200px"
     height="200px"
     showgrid="false"
     inkscape:showpageshadow="false"
     inkscape:window-maximized="0" />
  <defs
     id="defs4" />
  <path
     sodipodi:type="arc"
     style="fill:#ffffff;fill-opacity:1;fill-rule:nonzero;stroke:#000000;stroke-width:2.60216475;stroke-linecap:round;stroke-linejoin:round;stroke-miterlimit:2;stroke-opacity:1;stroke-dasharray:none;stroke-dashoffset:0"
     id="path2367"
     sodipodi:cx="-319.62656"
     sodipodi:cy="-458.85416"
     sodipodi:rx="258.91537"
     sodipodi:ry="258.91537"
     d="m -60.711182,-458.85416 a 258.91537,258.91537 0 1 1 -517.830748,0 258.91537,258.91537 0 1 1 517.830748,0 z"
     transform="matrix(1.1528863,0,0,1.1528863,668.49307,829.00666)" />
  <path
     transform="matrix(1.1142637,0,0,1.1142637,656.14826,811.28452)"
     d="m -60.711182,-458.85416 a 258.91537,258.91537 0 1 1 -517.830748,0 258.91537,258.91537 0 1 1 517.830748,0 z"
     sodipodi:ry="258.91537"
     sodipodi:rx="258.91537"
     sodipodi:cy="-458.85416"
     sodipodi:cx="-319.62656"
     id="path2954"
     style="fill:none;stroke:#000000;stroke-width:2.69236088;stroke-linecap:round;stroke-linejoin:round;stroke-miterlimit:2;stroke-opacity:1;stroke-dasharray:none;stroke-dashoffset:0"
     sodipodi:type="arc" />
  <g
     id="g1882"
     transform="matrix(2.9999992,0,0,2.9999992,-776.09448,52.537889)" />
  <g
     id="g2461"
     transform="matrix(2.9999992,0,0,2.9999992,-471.70578,24.540709)" />
  <path
     style="fill:#000000;fill-opacity:1;fill-rule:evenodd;stroke:none"
     d="m 299.99999,11.499989 c -0.78414,0 -1.56108,0.025 -2.34375,0.0312 L 224.12499,578.37499 c 24.18651,6.58555 49.61119,10.125 75.875,10.125 0.76323,0 1.51941,-0.0253 2.28125,-0.0312 l 73.5625,-566.843801 c -24.1778,-6.58043 -49.5905,-10.125 -75.84375,-10.125 z"
     id="rect1925" />
  <g
     id="g4593"
     transform="matrix(3,0,0,3,-0.35771356,-2.8525808)">
    <path
       d="m 136.9921,81.039237 c -1.60619,0.422416 -3.1595,1.523438 -3.67062,2.472513 l -4.66443,12.06254 4.50471,-0.741748 2.7478,-7.739009 c 0.58419,-1.752164 2.18155,-2.48968 3.93376,-2.656422 8.45137,-0.680417 16.91554,-0.664936 25.36679,-0.01045 1.75221,0.167006 3.31986,0.909993 3.90381,2.662239 l 2.76908,7.763707 4.4963,0.754125 -4.67523,-12.108785 c -0.58398,-1.084744 -2.48414,-2.331025 -4.31977,-2.581477 -5.2969,-0.521126 -10.40841,-0.748361 -15.35141,-0.738596 -4.94301,0.0098 -9.73913,0.251053 -14.36881,0.730901 -0.22944,0.03128 -0.44251,0.07011 -0.67198,0.130462 z m -3.96055,15.346033 c -2.10747,0.439674 -4.21352,0.969085 -6.3057,1.556272 -0.48799,-3.1e-5 -0.90806,1.053836 -0.90816,2.334648 l -0.004,0.66483 10.29249,-0.006 c 0.32701,4e-5 0.58467,0.28562 0.58465,0.61701 l -0.0118,0.96525 c -2e-5,0.33138 -0.25178,0.61046 -0.5788,0.61045 l -10.26047,-3e-4 0.001,2.0585 10.16449,0.0189 c 0.32483,6e-5 0.6114,0.18317 0.61138,0.41259 l -0.004,0.66485 c 1e-5,0.22942 -0.29122,0.41848 -0.61607,0.41845 l -10.16448,-0.0189 0.006,0.032 c -1.1e-4,1.28081 0.39395,2.31914 0.88193,2.31916 l 51.87125,0.0239 c 0.48799,3e-5 0.87603,-1.04763 0.87614,-2.32845 l 0.0258,-0.0382 -9.96006,0.008 c -0.32488,0 -0.54741,-0.1956 -0.54741,-0.42502 l 0.004,-0.66482 c 3e-5,-0.22941 0.22723,-0.40603 0.55207,-0.40603 l 9.92807,-0.002 0.0246,-2.0967 -9.92805,0.002 c -0.32702,-3e-5 -0.57846,-0.25362 -0.57846,-0.58501 l -0.0264,-0.99104 c 2e-5,-0.3314 0.28999,-0.58468 0.61702,-0.58466 l 9.89606,0.005 -0.002,-0.69683 c 1.1e-4,-1.280828 -0.39391,-2.319143 -0.88192,-2.319164 -8.92462,-2.32383 -17.73358,-3.504132 -26.38256,-3.511328 -6.48677,-0.0054 -12.85432,0.644154 -19.17677,1.963192 z m 11.80936,4.2155 c 0.11069,-0.0476 0.22292,-0.0683 0.352,-0.0683 l 14.31349,0.0103 c 0.51628,3e-5 0.94722,0.41203 0.94718,0.94509 l -0.003,3.91879 c -3e-5,0.53306 -0.42881,0.94723 -0.94509,0.9472 l -14.30725,0.0216 c -0.51629,-4e-5 -0.92147,-0.45022 -0.92143,-0.98329 l 0.003,-3.91879 c 6e-5,-0.3998 0.22905,-0.72979 0.56111,-0.87264 z m -19.70417,9.33752 c -0.33098,0.11829 -0.56012,0.38865 -0.56016,0.70646 l 0.0198,2.15449 c -3e-5,0.42372 0.39519,0.72106 0.9037,0.72109 l 54.06396,0.0298 c 0.50847,2e-5 0.9183,-0.31908 0.91836,-0.7428 l 0.0122,-2.16068 c 4e-5,-0.42373 -0.40766,-0.78506 -0.91612,-0.7851 l -54.08975,0.008 c -0.12712,-1e-5 -0.24167,0.0289 -0.35199,0.0683 z m 1.62342,4.59921 0.008,5.34445 c -7e-5,1.02887 0.78907,1.83852 1.81797,1.83859 l 6.30971,0.004 c 1.0289,9e-5 1.86431,-0.82732 1.86438,-1.8562 l -0.002,-5.31244 -9.99828,-0.018 z m 41.31035,0.0155 -0.03,5.31866 c -7e-5,1.02888 0.82109,1.83229 1.85,1.83238 l 6.30969,0.004 c 1.02887,6e-5 1.87053,-0.79531 1.8706,-1.8242 l -0.008,-5.34445 -9.99207,0.014 z"
       style="fill:#999999;fill-opacity:1;fill-rule:evenodd;stroke:none"
       id="path2971" />
    <path
       id="path3700"
       style="fill:#999999;fill-opacity:1;fill-rule:evenodd;stroke:none"
       d="m 32.159386,81.039237 c -1.60619,0.422416 -3.1595,1.523438 -3.67062,2.472513 l -4.66443,12.06254 4.50471,-0.741748 2.7478,-7.739009 c 0.58419,-1.752164 2.18155,-2.48968 3.93376,-2.656422 8.45137,-0.680417 16.91554,-0.664936 25.36679,-0.01045 1.75221,0.167006 3.31986,0.909993 3.90381,2.662239 l 2.76908,7.763707 4.4963,0.754125 -4.67523,-12.108785 c -0.58398,-1.084744 -2.48414,-2.331025 -4.31977,-2.581477 -5.2969,-0.521126 -10.40841,-0.748361 -15.35141,-0.738596 -4.94301,0.0098 -9.73913,0.251053 -14.36881,0.730901 -0.22944,0.03128 -0.44251,0.07011 -0.67198,0.130462 z m -3.96055,15.346033 c -2.10747,0.439674 -4.21352,0.969085 -6.3057,1.556272 -0.48799,-3.1e-5 -0.90806,1.053836 -0.90816,2.334648 l -0.0037,0.66483 10.29249,-0.006 c 0.32701,4e-5 0.58467,0.28562 0.58465,0.61701 l -0.01183,0.96525 c -2e-5,0.33138 -0.25178,0.61046 -0.5788,0.61045 l -10.26047,-3e-4 0.0012,2.0585 10.16449,0.0189 c 0.32483,6e-5 0.6114,0.18317 0.61138,0.41259 l -0.0038,0.66485 c 10e-6,0.22942 -0.29122,0.41848 -0.61607,0.41845 l -10.16448,-0.0189 0.0062,0.032 c -1.1e-4,1.28081 0.39395,2.31914 0.88193,2.31916 l 51.87125,0.0239 c 0.48799,3e-5 0.87603,-1.04763 0.87614,-2.32845 l 0.02579,-0.0382 -9.96006,0.008 c -0.32488,0 -0.54741,-0.1956 -0.54741,-0.42502 l 0.0038,-0.66482 c 3e-5,-0.22941 0.22723,-0.40603 0.55207,-0.40603 l 9.92807,-0.002 0.02459,-2.0967 -9.92805,0.002 c -0.32702,-3e-5 -0.57846,-0.25362 -0.57846,-0.58501 l -0.02638,-0.99104 c 2e-5,-0.3314 0.28999,-0.58468 0.61702,-0.58466 l 9.89606,0.005 -0.0025,-0.69683 c 1.1e-4,-1.280828 -0.39391,-2.319143 -0.88192,-2.319164 -8.92462,-2.32383 -17.73358,-3.504132 -26.38256,-3.511328 -6.48677,-0.0054 -12.85432,0.644154 -19.17677,1.963192 z m 11.80936,4.2155 c 0.11069,-0.0476 0.22292,-0.0683 0.352,-0.0683 l 14.31349,0.0103 c 0.51628,3e-5 0.94722,0.41203 0.94718,0.94509 l -0.0029,3.91879 c -3e-5,0.53306 -0.42881,0.94723 -0.94509,0.9472 l -14.30725,0.0216 c -0.51629,-4e-5 -0.92147,-0.45022 -0.92143,-0.98329 l 0.0029,-3.91879 c 6e-5,-0.3998 0.22905,-0.72979 0.56111,-0.87264 z m -19.70417,9.33752 c -0.33098,0.11829 -0.56012,0.38865 -0.56016,0.70646 l 0.01983,2.15449 c -3e-5,0.42372 0.39519,0.72106 0.9037,0.72109 l 54.06396,0.0298 c 0.50847,2e-5 0.9183,-0.31908 0.91836,-0.7428 l 0.01217,-2.16068 c 4e-5,-0.42373 -0.40766,-0.78506 -0.91612,-0.7851 l -54.08975,0.008 c -0.12712,-1e-5 -0.24167,0.0289 -0.35199,0.0683 z m 1.62342,4.59921 0.0083,5.34445 c -7e-5,1.02887 0.78907,1.83852 1.81797,1.83859 l 6.30971,0.004 c 1.0289,9e-5 1.86431,-0.82732 1.86438,-1.8562 l -0.002,-5.31244 -9.99828,-0.018 z m 41.31035,0.0155 -0.02998,5.31866 c -7e-5,1.02888 0.82109,1.83229 1.85,1.83238 l 6.30969,0.004 c 1.02887,6e-5 1.87053,-0.79531 1.8706,-1.8242 l -0.0082,-5.34445 -9.99207,0.014 z" />
  </g>
</svg>
