<?xml version="1.0" encoding="UTF-8" standalone="no"?>
<!-- Created with Inkscape (http://www.inkscape.org/) -->

<svg
   xmlns:dc="http://purl.org/dc/elements/1.1/"
   xmlns:cc="http://creativecommons.org/ns#"
   xmlns:rdf="http://www.w3.org/1999/02/22-rdf-syntax-ns#"
   xmlns:svg="http://www.w3.org/2000/svg"
   xmlns="http://www.w3.org/2000/svg"
   xmlns:sodipodi="http://sodipodi.sourceforge.net/DTD/sodipodi-0.dtd"
   xmlns:inkscape="http://www.inkscape.org/namespaces/inkscape"
   version="1.0"
   width="199.99997"
   height="175.87384"
   id="svg2"
   sodipodi:version="0.32"
   inkscape:version="0.47 r22583"
   sodipodi:docname="ZZ.svg">
  <metadata
     id="metadata12">
    <rdf:RDF>
      <cc:Work
         rdf:about="">
        <dc:format>image/svg+xml</dc:format>
        <dc:type
           rdf:resource="http://purl.org/dc/dcmitype/StillImage" />
      </cc:Work>
    </rdf:RDF>
  </metadata>
  <sodipodi:namedview
     inkscape:window-height="1003"
     inkscape:window-width="1280"
     inkscape:pageshadow="2"
     inkscape:pageopacity="0.0"
     guidetolerance="10.0"
     gridtolerance="10.0"
     objecttolerance="10.0"
     borderopacity="1.0"
     bordercolor="#666666"
     pagecolor="#ffffff"
     id="base"
     inkscape:zoom="2.8531759"
     inkscape:cx="156.20368"
     inkscape:cy="97.455654"
     inkscape:window-x="-4"
     inkscape:window-y="-4"
     inkscape:current-layer="svg2"
     width="200px"
     height="200px"
     showgrid="false"
     inkscape:window-maximized="0" />
  <defs
     id="defs4">
    <inkscape:perspective
       sodipodi:type="inkscape:persp3d"
       inkscape:vp_x="0 : 100 : 1"
       inkscape:vp_y="0 : 1000 : 0"
       inkscape:vp_z="200 : 100 : 1"
       inkscape:persp3d-origin="100 : 66.666667 : 1"
       id="perspective14" />
  </defs>
  <g
     id="g7259"
     transform="matrix(-1,0,0,1,199.99998,-12.063078)">
    <path
       id="path1902"
       d="m 9.9600258,187.43692 c -3.3797385,0 -6.5027442,-1.80309 -8.1926166,-4.73002 -1.68986644,-2.92694 -1.68986644,-6.53307 0,-9.46002 L 91.807376,17.29308 c 1.689875,-2.926936 4.812879,-4.730002 8.19262,-4.730002 3.379734,0 6.502744,1.803066 8.192614,4.730002 l 90.03997,155.9538 c 1.68987,2.92695 1.68987,6.53308 0,9.46002 -1.68987,2.92693 -4.81288,4.73002 -8.19261,4.73002 l -180.0799442,0 z"
       style="fill:#ffffff;fill-rule:evenodd;stroke:#000000;stroke-width:1;stroke-miterlimit:4;stroke-dasharray:none" />
    <path
       id="path4558"
       d="m 100,15.0625 c -2.490587,0 -4.78595,1.311841 -6.03125,3.46875 L 3.9375,174.5 c -1.2452932,2.15692 -1.2452877,4.81185 0,6.96875 1.2452964,2.15691 3.5406779,3.46875 6.03125,3.46875 l 180.0625,0 c 2.49056,0 4.78596,-1.31185 6.03125,-3.46875 1.24529,-2.15691 1.2453,-4.81184 0,-6.96875 L 106.03125,18.53125 C 104.78596,16.374345 102.49058,15.0625 100,15.0625 z m 0,33 67.46875,116.875 -134.9375,0 L 100,48.0625 z"
       style="fill:#d40000;fill-opacity:1;fill-rule:evenodd;stroke:none" />
  </g>
  <path
     style="fill:#000000;fill-opacity:1;fill-rule:evenodd;stroke:none"
     d="m 75.836415,94.256622 c 0,-2.03207 3.221811,-2.04782 3.221811,0 l 0,49.814128 -3.221811,0 0,-49.814128 z"
     id="rect8433"
     sodipodi:nodetypes="ccccc" />
  <path
     style="fill:#000000;fill-opacity:1;fill-rule:evenodd;stroke:none"
     d="m 98.218733,89.843172 -16.125,5.0625 -0.875,0.28125 0.21875,0.90625 4.21875,17.468748 1.9375,-0.46875 -4,-16.562498 15.21875,-4.78125 -0.59375,-1.90625 z"
     id="path8435" />
  <path
     style="fill:#000000;fill-opacity:1;fill-rule:evenodd;stroke:none"
     d="m 89.962807,115.19838 c 8.727298,-3.03375 13.817403,-9.59454 11.090453,-22.118948 l 11.71005,9.231718 c 4.4431,8.85247 -0.0663,17.37514 -9.4176,18.46344 l -13.382902,-5.57621 z"
     id="path8437"
     sodipodi:nodetypes="ccccc" />
  <path
     sodipodi:nodetypes="ccccc"
     id="path9328"
     d="m 114.86987,126.10296 c 7.36421,-1.54676 12.26845,-8.60321 9.66543,-14.43617 l 7.8067,6.07187 c 2.26537,6.02854 -1.23743,12.17928 -6.81537,12.82527 l -10.65676,-4.46097 z"
     style="fill:#000000;fill-opacity:1;fill-rule:evenodd;stroke:none" />
  <path
     style="fill:#000000;fill-opacity:1;fill-rule:evenodd;stroke:none"
     d="m 133.02353,133.72378 c 5.50547,-0.67935 8.05531,-5.38141 6.93928,-9.8513 l 5.76209,4.58489 c 2.01754,5.16113 -0.0602,8.3379 -5.01859,8.61214 l -7.68278,-3.34573 z"
     id="path9330"
     sodipodi:nodetypes="ccccc" />
</svg>
