<?xml version="1.0" encoding="UTF-8" standalone="no"?>
<!-- Created with Inkscape (http://www.inkscape.org/) -->

<svg
   xmlns:dc="http://purl.org/dc/elements/1.1/"
   xmlns:cc="http://creativecommons.org/ns#"
   xmlns:rdf="http://www.w3.org/1999/02/22-rdf-syntax-ns#"
   xmlns:svg="http://www.w3.org/2000/svg"
   xmlns="http://www.w3.org/2000/svg"
   xmlns:sodipodi="http://sodipodi.sourceforge.net/DTD/sodipodi-0.dtd"
   xmlns:inkscape="http://www.inkscape.org/namespaces/inkscape"
   id="svg2"
   version="1.1"
   inkscape:version="0.47 r22583"
   width="632.91913"
   height="397.47205"
   sodipodi:docname="Italian traffic signs - inizio regione.svg">
  <metadata
     id="metadata8">
    <rdf:RDF>
      <cc:Work
         rdf:about="">
        <dc:format>image/svg+xml</dc:format>
        <dc:type
           rdf:resource="http://purl.org/dc/dcmitype/StillImage" />
        <dc:title />
      </cc:Work>
    </rdf:RDF>
  </metadata>
  <defs
     id="defs6">
    <inkscape:perspective
       sodipodi:type="inkscape:persp3d"
       inkscape:vp_x="0 : 0.5 : 1"
       inkscape:vp_y="0 : 1000 : 0"
       inkscape:vp_z="1 : 0.5 : 1"
       inkscape:persp3d-origin="0.5 : 0.33333333 : 1"
       id="perspective10" />
    <inkscape:perspective
       id="perspective3674"
       inkscape:persp3d-origin="0.5 : 0.33333333 : 1"
       inkscape:vp_z="1 : 0.5 : 1"
       inkscape:vp_y="0 : 1000 : 0"
       inkscape:vp_x="0 : 0.5 : 1"
       sodipodi:type="inkscape:persp3d" />
    <inkscape:perspective
       id="perspective2826"
       inkscape:persp3d-origin="0.5 : 0.33333333 : 1"
       inkscape:vp_z="1 : 0.5 : 1"
       inkscape:vp_y="0 : 1000 : 0"
       inkscape:vp_x="0 : 0.5 : 1"
       sodipodi:type="inkscape:persp3d" />
  </defs>
  <sodipodi:namedview
     pagecolor="#ffffff"
     bordercolor="#666666"
     borderopacity="1"
     objecttolerance="10"
     gridtolerance="10"
     guidetolerance="10"
     inkscape:pageopacity="0"
     inkscape:pageshadow="2"
     inkscape:window-width="1600"
     inkscape:window-height="838"
     id="namedview4"
     showgrid="false"
     inkscape:zoom="1.3658099"
     inkscape:cx="8.2654441"
     inkscape:cy="140.31618"
     inkscape:window-x="-8"
     inkscape:window-y="-8"
     inkscape:window-maximized="1"
     inkscape:current-layer="svg2"
     showguides="true"
     inkscape:guide-bbox="true" />
  <path
     style="fill:#01418c;fill-opacity:1;stroke:#000000;stroke-width:0.68425362999999995;stroke-linecap:square;stroke-linejoin:miter;stroke-miterlimit:4;stroke-opacity:1;stroke-dashoffset:26.87999878000000100"
     d="m 0.34212682,0.34212682 632.23488318,0 0,198.78778318 -632.23488318,0 0,-198.78778318 z"
     id="rect2818" />
  <path
     style="fill:#01418c;fill-opacity:1;stroke:#ffffff;stroke-width:3.42126799000000000;stroke-linecap:square;stroke-linejoin:miter;stroke-miterlimit:4;stroke-opacity:1;stroke-dashoffset:26.87999878000000100"
     d="m 26.839081,9.3099889 577.746349,0 c 10.53914,0 19.02372,8.4846081 19.02372,19.0237561 l 0,142.804615 c 0,10.53911 -8.48458,19.02372 -19.02372,19.02372 l -577.746349,0 c -10.539144,0 -19.0237243,-8.48461 -19.0237243,-19.02372 l 0,-142.804615 c 0,-10.539148 8.4845803,-19.0237561 19.0237243,-19.0237561 z"
     id="rect3592" />
  <g
     style="font-size:88.82065582px;font-style:normal;font-variant:normal;font-weight:normal;font-stretch:normal;text-align:start;line-height:100%;writing-mode:lr-tb;text-anchor:start;fill:#ffffff;fill-opacity:1;stroke:none;font-family:Transport Heavy;-inkscape-font-specification:'Transport Heavy,'"
     id="text3647"
     transform="translate(4.4665112e-6,-3.5363489e-5)">
    <path
       d="m 68.801782,62.717183 1.387823,0 0.520433,0 0.520434,0 5.377813,0 1.214345,0 1.040867,0 1.214345,0 1.040867,0 0.867389,0 1.040867,0 0.693911,0 3.122602,0 1.908256,0 0.693911,0 0.693912,0 0.693911,0 0.693911,0 2.949124,0 0.520433,0 2.081734,0 0.520434,0 0.346956,0.173477 0.520433,0 1.214345,0.173478 0.520432,0.173478 2.42869,0.520434 c 10.84231,5.204405 15.41056,13.415681 13.70475,24.633853 -3.87439,13.271097 -12.72175,19.053677 -26.542109,17.347787 l -0.693911,0 -1.908257,0 -0.867389,0 -0.520433,0 -0.693912,0 -0.520433,0 -3.469557,0 0,23.24603 -2.255212,0 -0.693912,0 -3.122601,0 -0.693911,0 -0.693912,0 -0.693911,0 -2.949123,0 -0.520434,0 -2.081734,0 0,-0.52043 0,-0.69392 0,-0.52043 0,-0.69391 0,-3.1226 0,-1.38783 0,-1.38782 0,-0.52043 0,-3.46956 0,-0.69391 0,-0.86739 0,-0.69391 0,-0.86739 0,-2.25521 0,-0.69391 0,-2.94913 0,-0.52043 0,-2.08173 0,-0.69392 0,-0.86738 0,-2.25522 0,-0.69391 0,-2.949121 0,-0.520433 0,-2.081735 0,-1.214345 0,-1.387822 0,-1.387823 0,-1.387823 0,-0.520433 0,-0.520434 0,-5.377813 0,-1.214345 0,-1.040867 0,-1.214345 0,-1.040867 0,-0.867389 0,-1.040867 0,-0.693912 0,-3.122601 0,-1.908256 0,-0.693911 0,-0.693912 0,-0.693911 0,-0.693911 0,-2.949124 0,-0.520433 0,-2.081734 z m 12.316927,30.5321 0.693911,0 0.693911,0 0.693912,0 1.908256,0 1.908256,0 3.122602,0 0.520433,0 0.520434,0 0.693911,0 3.122601,0 0.693912,0 c 0.722784,-0.289084 1.358869,-0.462562 1.908256,-0.520434 4.828416,-2.862335 6.447546,-6.794496 4.857376,-11.796493 -1.06982,-2.486456 -2.746772,-4.221232 -5.030854,-5.204335 l -0.520434,0 c -1.792642,-0.52037 -3.411767,-0.693848 -4.857379,-0.520434 l -0.867389,0 -0.693912,0 -0.867389,0 -2.255212,0 -0.693911,0 -2.949124,0 -0.520433,0 -2.081734,0 z"
       id="path3729" />
    <path
       d="m 132.46815,63.064138 0.69391,0 3.1226,0 0.69391,0 0.69392,0 0.69391,0 2.94912,0 0.52043,0 2.08174,0 0,66.268532 -2.25521,0 -0.69392,0 -3.1226,0 -0.69391,0 -0.69391,0 -0.69391,0 -2.94912,0 -0.52044,0 -2.08173,0 0,-0.52043 0,-0.69391 0,-0.52043 0,-0.69392 0,-3.1226 0,-1.38782 0,-1.38782 0,-0.52044 0,-3.46955 0,-0.69391 0,-0.86739 0,-0.69391 0,-0.86739 0,-2.25522 0,-0.69391 0,-2.94912 0,-0.52043 0,-2.08174 0,-0.69391 0,-0.86739 0,-2.25521 0,-0.69391 0,-2.949125 0,-0.520434 0,-2.081734 0,-1.214345 0,-1.387823 0,-1.387822 0,-1.387823 0,-0.520434 0,-0.520433 0,-5.377813 0,-1.214345 0,-1.040867 0,-1.214345 0,-1.040867 0,-0.867389 0,-1.040867 0,-0.693912 0,-3.122601 0,-1.908256 0,-0.693912 0,-0.693911 0,-0.693911 0,-0.693912 0,-2.949123 0,-0.520434 0,-2.081734 z"
       id="path3731" />
    <path
       d="m 164.90851,62.89066 0.69391,0 2.94913,0 0.52043,0 2.08173,0 3.46956,0 0.69391,0 3.1226,0 0.52044,0 0.52043,0 5.37781,0 2.94913,0 1.38782,0 1.21435,0 0.69391,0 0.52043,0 3.46956,0 0.69391,0 0.52043,0 3.1226,0 2.25522,0 0.69391,0 2.94912,0 0.52043,0 2.08174,0 0,13.184316 -3.46956,0 -1.04087,0 -2.94912,0 -0.52043,0 -2.08174,0 -2.25521,0 -0.69391,0 -2.94912,0 -0.52044,0 -2.08173,0 -1.90826,0 -0.86739,0 -2.25521,0 -0.69391,0 -2.94912,0 -0.52044,0 -2.08173,0 0,13.357794 0.52043,0 3.46956,0 2.25521,0 0.69391,0 3.1226,0 0.69391,0 0.69392,0 0.69391,0 2.94912,0 1.38782,0 1.21435,0 0.86739,0 2.25521,0 0.69391,0 2.94912,0 0.52044,0 2.08173,0 0,12.31693 -2.42869,0 -0.52043,0 -0.86739,0 -0.52043,0 -0.69392,0 -0.52043,0 -3.46956,0 -2.25521,0 -1.21434,0 -2.42869,0 -0.52044,0 -3.1226,0 -2.25521,0 -0.69391,0 -2.94912,0 -0.52044,0 -2.08173,0 0,13.87822 c 0.23128,0.49155 0.63606,0.66503 1.21434,0.52044 l 1.38783,0 3.46955,0 1.04087,0 2.94912,0 0.52044,0 2.08173,0 2.25521,0 0.69391,0 2.94913,0 0.52043,0 2.08174,0 1.90825,0 0.86739,0 2.25521,0 0.69391,0 2.94913,0 0.52043,0 2.08174,0 0,13.18431 -0.52044,0 -0.69391,0 -2.94912,0 -0.52044,0 -2.08173,0 -3.46956,0 -1.38782,0 -1.38782,0 -1.38783,0 -1.38782,0 -3.46956,0 -0.52043,0 -0.52043,0 -5.37782,0 -1.21434,0 -1.04087,0 -1.21434,0 -1.04087,0 -0.86739,0 -1.04087,0 -0.69391,0 -3.1226,0 -1.90825,0 -0.69392,0 -0.69391,0 -0.69391,0 -0.69391,0 -2.94912,0 -0.52044,0 -2.08173,0 0,-0.69391 0,-3.1226 0,-1.38782 0,-1.38782 0,-0.52044 0,-0.69391 0,-3.1226 0,-0.52043 0,-3.46956 0,-1.38782 0,-0.69391 0,-3.12261 0,-0.52043 0,-0.52043 0,-5.37782 0,-1.21434 0,-0.52043 0,-0.69392 0,-3.122597 0,-2.428689 0,-0.520434 0,-0.867389 0,-0.520434 0,-0.693911 0,-0.520434 0,-3.469556 0,-2.949124 0,-0.520433 0,-2.081734 0,-2.255212 0,-0.693912 0,-2.949123 0,-0.520434 0,-2.081734 0,-1.908256 0,-0.867389 0,-2.255212 0,-0.693912 0,-2.949123 0,-0.520434 0,-2.081734 z"
       id="path3733" />
    <path
       d="m 229.26879,62.89066 0.52043,0 3.46956,0 0.69391,0 0.52043,0 3.12261,0 2.25521,0 0.69391,0 2.94912,0 0.52044,0 2.08173,0 0.69391,1.040867 0.34696,0.520434 0.34695,0.520433 0.69391,1.040868 c 0.89628,1.040938 1.53236,1.966152 1.90826,2.775645 0.26018,0.289199 0.43366,0.578329 0.52043,0.867389 l 0.52044,0.693912 0.69391,0.693911 0.34695,0.693911 0.52044,0.86739 0.34695,0.346955 0.17348,0.520434 c 0.60714,0.578324 1.06975,1.156583 1.38782,1.734778 l 0.34696,0.693912 0.69391,0.693911 0.52043,0.867389 0.17348,0.520434 c 0.60714,0.636145 1.06974,1.214404 1.38783,1.734778 l 0.17347,0.346956 c 0.40474,0.520491 0.69387,0.983099 0.86739,1.387823 l 0.34696,0.346955 0.69391,1.214345 0.34696,0.173478 0.17347,0.520434 c 0.72278,0.83853 1.24322,1.590266 1.5613,2.255212 l 0.52044,-0.173478 0.17347,-0.520434 2.77565,-3.816512 0.52043,-0.86739 1.73478,-2.602167 c 0.66495,-0.780589 1.12756,-1.4745 1.38783,-2.081734 l 0.52043,-0.693912 0.52043,-0.520433 0.52044,-1.040867 0.52043,-0.346956 0.34695,-0.693911 c 0.37582,-0.693845 0.7806,-1.214278 1.21435,-1.561301 l 0.34696,-0.867389 c 0.46255,-0.636017 0.86733,-1.098624 1.21434,-1.387823 l 0.17348,-0.520433 0.34695,-0.520434 0.34696,-0.346956 0.17348,-0.520433 c 0.40472,-0.375797 0.69385,-0.722752 0.86739,-1.040867 l 0.34695,-0.520434 1.5613,-2.42869 0.52044,0 3.46955,0 2.25522,0 0.69391,0 3.1226,0 0.69391,0 0.69391,0 0.69391,0 2.94913,0 0.52043,0 2.08173,0 0,66.26854 -2.94912,0 -0.69391,0 -0.86739,0 -2.25521,0 -0.69391,0 -2.94913,0 -0.52043,0 -2.08174,0 c -0.69397,-0.11565 -0.92527,-0.52043 -0.69391,-1.21435 l 0,-0.52043 0,-0.69391 0,-2.94913 0,-0.52043 0,-2.08173 0,-3.46956 0,-1.21435 0,-1.04086 0,-0.69391 0,-0.52044 0,-0.86739 0,-0.52043 0,-0.69391 0,-0.52044 0,-3.46955 0,-5.37782 0,-1.04086 0,-2.949126 0,-1.040867 0,-0.693911 0,-0.520434 0,-3.469557 0,-0.693911 0,-2.949124 0,-2.428689 0,-0.520434 0,-0.520433 0,-1.387823 c 0.0578,-1.069725 -6e-5,-1.994939 -0.17347,-2.775646 l -0.86739,1.040867 c -0.20246,0.404837 -0.43376,0.751793 -0.69392,1.040867 -0.60723,1.069834 -1.18549,1.937222 -1.73477,2.602168 l -0.69391,1.040867 -0.69392,1.040867 -0.69391,1.040867 -2.08173,2.949124 -1.5613,2.428689 -0.52044,0.693912 c -0.57831,0.838518 -1.09874,1.474603 -1.5613,1.908256 l -0.34695,0.693911 c -0.75179,1.243297 -1.4457,2.22634 -2.08174,2.94912 l -0.34695,0.69392 -0.52044,0.52043 -0.17347,0.52043 c -0.57831,0.83851 -1.09874,1.4746 -1.5613,1.90826 -0.37592,0.80959 -0.72288,1.44568 -1.04087,1.90825 -1.09874,1.56134 -2.02395,2.71785 -2.77565,3.46956 -0.46265,-0.75171 -0.86743,-1.32997 -1.21434,-1.73478 l -0.17348,-0.52043 -0.52043,-0.52043 -0.34696,-0.52044 -0.17348,-0.52043 -0.52043,-0.69391 -0.69391,-1.04087 c -0.20243,-0.11562 -0.31808,-0.23127 -0.34696,-0.34696 -0.40482,-0.63605 -0.8096,-1.15648 -1.21434,-1.5613 l -0.52044,-1.04086 -0.69391,-1.04087 c -0.1446,-0.11561 -0.20242,-0.23127 -0.17347,-0.34696 -0.60721,-0.578216 -1.06982,-1.156475 -1.38783,-1.734774 -0.8096,-1.098652 -1.38785,-2.023866 -1.73478,-2.775645 l -0.69391,-0.86739 -0.52043,-0.693911 -0.34696,-0.693911 c -0.6072,-0.607127 -1.06981,-1.243212 -1.38782,-1.908257 l -0.52043,-0.520433 -0.86739,-1.561301 -0.52044,-0.520433 c -0.46263,-0.751687 -0.86741,-1.329946 -1.21434,-1.734779 l -0.17348,-0.520433 -0.52043,-0.520434 -0.17348,-0.520433 c -0.1735,-0.144512 -0.28916,-0.31799 -0.34696,-0.520434 -0.20241,-0.115598 -0.31806,-0.23125 -0.34695,-0.346956 -0.14459,-0.115598 -0.20242,-0.231249 -0.17348,-0.346955 l -2.25521,-2.949124 0,47.532933 -0.17348,0 0.17348,0 -0.34696,0 0.17348,0 -0.34695,0 0.17347,0 -0.34695,0 0.17348,0 -0.34696,0 0.17348,0 -0.34696,0 0.17348,0 -0.34696,0 0.17348,0 -0.34695,0 0.17347,0 -0.34695,0 0.17348,0 -0.34696,0 0.17348,0 -0.34696,0 0.17348,0 -0.34695,0 0.17347,0 -0.34695,0 0.17348,0 -0.34696,0 0.17348,0 -0.34696,0 0.17348,0 -0.34696,0 0.17348,0 -0.34695,0 0.17347,0 -0.34695,0 0.17348,0 -0.34696,0 0.17348,0 -0.34696,0 0.17348,0 -0.34696,0 0.17348,0 -0.34695,0 0.17347,0 -0.34695,0 0.17348,0 -0.34696,0 0.17348,0 -0.34696,0 0.17348,0 -0.34695,0 0.17347,0 -0.34695,0 0.17348,0 -0.34696,0 0.17348,0 -0.34696,0 0.17348,0 -0.34696,0 0.17348,0 -0.34695,0 0.17347,0 -0.34695,0 0.17348,0 -0.34696,0 0.17348,0 -0.34696,0 0.17348,0 -0.34696,0 0.17348,0 -0.34695,0 0.17347,0 -0.34695,0 0.17348,0 -0.34696,0 0.17348,0 -0.34696,0 0.17348,0 -0.34695,0 0.17347,0 -0.34695,0 0.17348,0 -0.34696,0 0.17348,0 -0.34696,0 0.17348,0 -0.34696,0 0.17348,0 -0.34695,0 0.17347,0 -0.34695,0 0.17348,0 -0.34696,0 0.17348,0 -0.34696,0 0.17348,0 -0.34695,0 0.17347,0 -0.34695,0 0.17348,0 -0.34696,0 0.17348,0 -0.34696,0 0.17348,0 -0.34696,0 0.17348,0 -0.34695,0 0.17347,0 -0.34695,0 0.17348,0 -0.34696,0 0.17348,0 -0.34696,0 0.17348,0 -0.34696,0 0.17348,0 -0.34695,0 0.17347,0 -0.34695,0 0.17348,0 -0.34696,0 0.17348,0 -0.34696,0 0.17348,0 -0.34695,0 0.17347,0 -0.34695,0 0.17348,0 -0.34696,0 0.17348,0 -0.34696,0 0.17348,0 -0.34696,0 0.17348,0 -0.34695,0 0.17347,0 -0.34695,0 0.17348,0 -0.34696,0 0.17348,0 -0.34696,0 0.17348,0 -0.34696,0 0.17348,0 -0.34695,0 0.17347,0 -0.34695,0 0.17348,0 -0.34696,0 0.17348,0 -0.34696,0 0.17348,0 -0.34695,0 0.17347,0 -0.34695,0 0.17348,0 -0.17348,0 0,-0.52044 0,-0.69391 0,-0.52043 0,-0.69391 0,-3.1226 0,-1.38783 0,-1.38782 0,-0.52043 0,-3.46956 0,-0.69391 0,-0.86739 0,-0.69391 0,-0.86739 0,-2.25521 0,-0.69391 0,-2.94913 0,-0.52043 0,-2.08174 0,-0.69391 0,-0.86739 0,-2.25521 0,-0.69391 0,-2.949123 0,-0.520434 0,-2.081734 0,-1.214345 0,-1.387822 0,-1.387823 0,-1.387823 0,-0.520433 0,-0.520434 0,-5.377813 0,-1.214345 0,-1.040867 0,-1.214345 0,-1.040867 0,-0.867389 0,-1.040867 0,-0.693912 0,-3.122601 0,-1.908256 0,-0.693912 0,-0.693911 0,-0.693911 0,-0.693912 0,-2.949123 0,-0.520434 0,-2.081734 z"
       id="path3735" />
    <path
       d="m 340.98852,61.155882 c 19.63185,0.144642 30.85007,10.206347 33.6547,30.185145 1.24319,17.926073 -5.05984,30.185163 -18.90909,36.777303 -13.38674,4.85738 -24.77844,2.94913 -34.17513,-5.72477 -10.0039,-11.27603 -12.77954,-24.229031 -8.32694,-38.859036 4.85737,-13.907072 14.10951,-21.366612 27.75646,-22.378642 z m 0.34695,13.184316 c -11.1026,2.110709 -16.19128,10.206334 -15.26605,24.286898 0.43368,8.326964 3.8454,14.225214 10.23519,17.694744 l 0.52044,0 c 0.54931,0.31806 1.06975,0.49154 1.5613,0.52043 l 0.34695,0.17348 2.08174,0.52043 c 12.20123,-0.11563 18.56207,-6.36083 19.08256,-18.735606 1.06973,-15.90208 -5.11764,-24.05553 -18.56213,-24.460376 z"
       id="path3737" />
    <path
       d="m 391.29709,62.717183 2.42869,0 0.86739,0 0.69391,0 3.12261,0 0.69391,0 0.69391,0 0.69391,0 2.94912,0 0.52044,0 2.08173,0 0.69391,1.214344 0.69391,1.040867 0.69391,1.040868 0.69392,1.040867 0.69391,1.040867 0.52043,0.520433 0.17348,0.520434 c 0.14453,0.115721 0.20236,0.231373 0.17348,0.346955 0.83844,0.896371 1.4167,1.763759 1.73478,2.602168 0.83844,0.896368 1.4167,1.763756 1.73477,2.602168 l 0.69392,0.867389 0.69391,1.040867 c 0.318,0.520495 0.60713,0.925276 0.86739,1.214345 l 0.17347,0.520433 c 0.43366,0.462668 0.72279,0.925275 0.86739,1.387823 1.15648,1.301142 1.96605,2.515485 2.42869,3.643035 l 0.69391,1.040867 c 0.14453,0.115706 0.20235,0.231358 0.17348,0.346956 0.86735,0.983094 1.50343,1.850482 1.90826,2.602167 l 0.69391,1.040867 0.52043,1.040867 0.69391,1.040867 0.69392,0.693912 0.52043,0.867389 0.34695,0.867389 c 0.7517,0.751783 1.27213,1.503519 1.56131,2.255212 l 0.52043,0.693912 0.34695,0.693911 0.52044,0.520434 c 0.5493,0.809604 0.95408,1.503514 1.21434,2.081734 l 0.52044,0.520433 0.34695,0.520437 0.17348,0.52043 0.34696,0.17348 c 0.37581,0.83851 0.78059,1.4746 1.21434,1.90825 l 0.17348,0.52044 c 0.14451,0.11568 0.20234,0.23134 0.17348,0.34695 1.06972,1.18547 1.82146,2.28416 2.25521,3.29608 l 0.17348,-1.21434 0,-1.21435 0,-1.38782 0,-0.69391 0,-3.122603 0,-1.908256 0,-0.693911 0,-0.693912 0,-0.693911 0,-0.693911 0,-2.949124 0,-0.520433 0,-2.081734 0,-1.040867 0,-2.949124 0,-0.520433 0,-2.081734 0,-2.255212 0,-0.693912 0,-2.949123 0,-0.520434 0,-2.081734 0,-1.908256 0,-0.867389 0,-2.255212 0,-0.693911 0,-2.949124 0,-0.520433 0,-2.081734 2.25521,0 0.69391,0 3.1226,0 0.69391,0 0.69391,0 0.69391,0 2.94913,0 0.52043,0 2.08174,0 0,66.268537 -0.52044,0 -2.08173,0 -1.73478,0 -1.21435,0 -1.04086,0 -0.86739,0 -0.69391,0 -0.69391,0 -0.69392,0 -0.52043,0 -0.52043,0 -0.52044,0 -0.34695,0 0.34695,0 -0.34695,0 -1.38782,0 -0.52044,0 -2.25521,0 -0.17348,-0.34696 c -0.40483,-0.52042 -0.69396,-0.98303 -0.86739,-1.38782 -0.14461,-0.11564 -0.20244,-0.23129 -0.17347,-0.34696 -1.06984,-1.18541 -1.82157,-2.28411 -2.25522,-3.29607 -0.14461,-0.11564 -0.20244,-0.23129 -0.17347,-0.34696 l -0.69392,-1.04087 c -0.60722,-0.69389 -1.06982,-1.3878 -1.38782,-2.08173 l -0.86739,-1.04087 -0.69391,-1.21434 -0.69391,-1.21435 c -0.7807,-0.86736 -1.35895,-1.67693 -1.73478,-2.42869 l -0.34695,-0.34695 c -0.46266,-1.01193 -0.98309,-1.82149 -1.56131,-2.42869 l -0.17347,-0.34696 -0.34696,-0.52043 -1.5613,-2.42869 c -0.40482,-0.52041 -0.69395,-0.98301 -0.86739,-1.38783 -0.1446,-0.11562 -0.20243,-0.23127 -0.17348,-0.34695 l -0.34695,-0.17348 -0.69391,-1.21434 -0.17348,-0.34696 c -0.40482,-0.5204 -0.69395,-0.98301 -0.86739,-1.38782 -0.26025,-0.2891 -0.43373,-0.57823 -0.52043,-0.86739 l -0.69392,-0.69391 -0.69391,-1.04087 -0.34695,-0.867389 -0.34696,-0.173478 -0.69391,-1.214345 -1.5613,-2.255212 -0.34696,-0.693911 -0.34695,-0.693911 -0.52044,-0.520434 -0.34695,-0.520434 -0.17348,-0.520433 c -0.57829,-0.636039 -1.04089,-1.214298 -1.38782,-1.734778 l -0.34696,-0.693912 c -0.49155,-0.66495 -0.8385,-1.243209 -1.04086,-1.734778 -0.20242,-0.115603 -0.31807,-0.231254 -0.34696,-0.346956 l -0.34696,-0.346956 -0.17347,-0.346955 -0.69391,-1.214345 -1.56131,-2.255212 0,44.410329 -2.25521,0 -0.69391,0 -3.1226,0 -0.69391,0 -0.69391,0 -0.69391,0 -2.94913,0 -0.52043,0 -2.08174,0 0,-0.52043 0,-0.69392 0,-0.52043 0,-0.69391 0,-3.1226 0,-1.38783 0,-1.38782 0,-0.52043 0,-3.46956 0,-0.69391 0,-0.86739 0,-0.69391 0,-0.86739 0,-2.25521 0,-0.69391 0,-2.94913 0,-0.52043 0,-2.08173 0,-0.69392 0,-0.86738 0,-2.25522 0,-0.69391 0,-2.949121 0,-0.520433 0,-2.081735 0,-1.214345 0,-1.387822 0,-1.387823 0,-1.387823 0,-0.520433 0,-0.520434 0,-5.377813 0,-1.214345 0,-1.040867 0,-1.214345 0,-1.040867 0,-0.867389 0,-1.040867 0,-0.693912 0,-3.122601 0,-1.908256 0,-0.693911 0,-0.693912 0,-0.693911 0,-0.693911 0,-2.949124 0,-0.520433 0,-2.081734 z"
       id="path3739" />
    <path
       d="m 461.90258,62.717183 0.69391,0 0.52043,0 0.69391,0 3.1226,0 0.69391,0 3.12261,0 1.04086,0 1.21435,0 3.46955,0 1.38783,0 1.38782,0 1.38782,0 1.38783,0 3.46955,0 0.52044,0 0.52043,0 5.37781,0 1.21435,0 1.04086,0 1.21435,0 1.04087,0 0.86739,0 1.04086,0 0.69391,0 3.12261,0 1.90825,0 0.69391,0 0.69391,0 0.69392,0 0.69391,0 2.94912,0 0.52043,0 2.08174,0 0,13.184316 -1.04087,0 -0.52043,0 -3.46956,0 -2.25521,0 -0.69391,0 -3.1226,0 -0.69392,0 -0.69391,0 -0.69391,0 -2.94912,0 -0.52043,0 -2.08174,0 0,53.257701 -2.25521,0 -0.69391,0 -3.1226,0 -0.69391,0 -0.69392,0 -0.69391,0 -2.94912,0 -0.52043,0 -2.08174,0 0,-1.21435 0,-0.52043 0,-0.86739 0,-0.52043 0,-0.69392 0,-0.52043 0,-3.46956 0,-0.69391 0,-3.1226 0,-1.04087 0,-1.21434 0,-3.46956 0,-1.38782 0,-1.38782 0,-1.38783 0,-1.38782 0,-3.46956 0,-0.52043 0,-0.52043 0,-5.377816 0,-1.214345 0,-1.040867 0,-1.214345 0,-1.040867 0,-0.867389 0,-1.040867 0,-0.693911 0,-3.122602 0,-1.908256 0,-0.693911 0,-0.693912 0,-0.693911 0,-0.693911 0,-2.949124 0,-0.520433 0,-2.081734 -1.04087,0 -0.52043,0 -3.46956,0 -2.25521,0 -0.69391,0 -3.1226,0 -0.69391,0 -0.69391,0 -0.69391,0 -2.94913,0 -0.52043,0 -2.08174,0 0,-3.469557 0,-0.867389 0,-0.520434 0,-0.693911 0,-0.693912 0,-0.693911 0,-0.693911 0,-2.949124 0,-0.520433 0,-2.081734 z"
       id="path3741" />
    <path
       d="m 525.39545,62.89066 0.69391,0 2.94913,0 0.52043,0 2.08173,0 3.46956,0 0.69391,0 3.1226,0 0.52044,0 0.52043,0 5.37781,0 2.94913,0 1.38782,0 1.21434,0 0.69392,0 0.52043,0 3.46956,0 0.69391,0 0.52043,0 3.1226,0 2.25521,0 0.69392,0 2.94912,0 0.52043,0 2.08174,0 0,13.184316 -3.46956,0 -1.04087,0 -2.94912,0 -0.52043,0 -2.08174,0 -2.25521,0 -0.69391,0 -2.94913,0 -0.52043,0 -2.08173,0 -1.90826,0 -0.86739,0 -2.25521,0 -0.69391,0 -2.94913,0 -0.52043,0 -2.08173,0 0,13.357794 0.52043,0 3.46956,0 2.25521,0 0.69391,0 3.1226,0 0.69391,0 0.69391,0 0.69392,0 2.94912,0 1.38782,0 1.21435,0 0.86739,0 2.25521,0 0.69391,0 2.94912,0 0.52044,0 2.08173,0 0,12.31693 -2.42869,0 -0.52043,0 -0.86739,0 -0.52044,0 -0.69391,0 -0.52043,0 -3.46956,0 -2.25521,0 -1.21434,0 -2.42869,0 -0.52044,0 -3.1226,0 -2.25521,0 -0.69391,0 -2.94913,0 -0.52043,0 -2.08173,0 0,13.87822 c 0.23128,0.49155 0.63606,0.66503 1.21434,0.52044 l 1.38782,0 3.46956,0 1.04087,0 2.94912,0 0.52044,0 2.08173,0 2.25521,0 0.69391,0 2.94913,0 0.52043,0 2.08173,0 1.90826,0 0.86739,0 2.25521,0 0.69391,0 2.94913,0 0.52043,0 2.08173,0 0,13.18431 -0.52043,0 -0.69391,0 -2.94912,0 -0.52044,0 -2.08173,0 -3.46956,0 -1.38782,0 -1.38782,0 -1.38783,0 -1.38782,0 -3.46956,0 -0.52043,0 -0.52043,0 -5.37782,0 -1.21434,0 -1.04087,0 -1.21434,0 -1.04087,0 -0.86739,0 -1.04087,0 -0.69391,0 -3.1226,0 -1.90826,0 -0.69391,0 -0.69391,0 -0.69391,0 -0.69391,0 -2.94913,0 -0.52043,0 -2.08173,0 0,-0.69391 0,-3.1226 0,-1.38782 0,-1.38782 0,-0.52044 0,-0.69391 0,-3.1226 0,-0.52043 0,-3.46956 0,-1.38782 0,-0.69391 0,-3.12261 0,-0.52043 0,-0.52043 0,-5.37782 0,-1.21434 0,-0.52043 0,-0.69392 0,-3.122597 0,-2.428689 0,-0.520434 0,-0.867389 0,-0.520434 0,-0.693911 0,-0.520434 0,-3.469556 0,-2.949124 0,-0.520433 0,-2.081734 0,-2.255212 0,-0.693912 0,-2.949123 0,-0.520434 0,-2.081734 0,-1.908256 0,-0.867389 0,-2.255212 0,-0.693912 0,-2.949123 0,-0.520434 0,-2.081734 z"
       id="path3743" />
  </g>
  <path
     id="path3696"
     d="m 0.34212682,198.34212 632.23488318,0 0,198.78779 -632.23488318,0 0,-198.78779 z"
     style="fill:#01418c;fill-opacity:1;stroke:#000000;stroke-width:0.68425362999999995;stroke-linecap:square;stroke-linejoin:miter;stroke-miterlimit:4;stroke-opacity:1;stroke-dashoffset:26.87999878000000100" />
  <path
     id="path3698"
     d="m 26.839081,207.30998 577.746349,0 c 10.53914,0 19.02372,8.48461 19.02372,19.02376 l 0,142.80462 c 0,10.53911 -8.48458,19.02372 -19.02372,19.02372 l -577.746349,0 c -10.539144,0 -19.0237243,-8.48461 -19.0237243,-19.02372 l 0,-142.80462 c 0,-10.53915 8.4845803,-19.02376 19.0237243,-19.02376 z"
     style="fill:#01418c;fill-opacity:1;stroke:#ffffff;stroke-width:3.42126799000000000;stroke-linecap:square;stroke-linejoin:miter;stroke-miterlimit:4;stroke-opacity:1;stroke-dashoffset:26.87999878000000100" />
  <path
     style="fill:#ff0000;fill-opacity:1;stroke:none"
     d="M 9.5763038,364.74039 569.48087,209.04831 c 23.1978,0.84092 55.80623,-8.89788 52.51519,23.47737 L 53.133017,386.67321 C 19.21105,389.49495 8.3418786,385.12844 9.5763038,364.74039 z"
     id="path3722"
     sodipodi:nodetypes="ccccc" />
  <g
     style="font-size:88.82065582px;font-style:normal;font-variant:normal;font-weight:normal;font-stretch:normal;text-align:start;line-height:100%;writing-mode:lr-tb;text-anchor:start;fill:#ffffff;fill-opacity:1;stroke:none;font-family:Transport Heavy;-inkscape-font-specification:'Transport Heavy,'"
     id="text3700"
     transform="translate(4.4665112e-6,-3.5363489e-5)">
    <path
       d="m 29.495693,260.89066 0.693912,0 3.122601,0 0.693911,0 0.693912,0 0.693911,0 2.949123,0 0.520434,0 2.081734,0 0,53.08422 0.520433,0 0.520434,0 0.520433,0 2.255212,0 2.949124,0 0.520433,0 2.081734,0 2.255212,0 0.693912,0 2.949123,0 0.520434,0 2.081734,0 1.908256,0 0.867389,0 2.255212,0 0.693912,0 2.949123,0 0.520433,0 2.081735,0 0,13.18432 -1.214345,0 -1.040867,0 -1.214345,0 -3.469557,0 -1.387823,0 -1.387823,0 -1.387822,0 -1.387823,0 -3.469557,0 -0.520434,0 -0.520433,0 -5.377813,0 -1.214345,0 -1.040867,0 -1.214345,0 -1.040867,0 -0.867389,0 -1.040867,0 -0.693912,0 -3.122601,0 -1.908256,0 -0.693912,0 -0.693911,0 -0.693911,0 -0.693912,0 -2.949123,0 -0.520434,0 -2.081734,0 0,-0.52044 0,-0.69391 0,-0.52043 0,-0.69391 0,-3.1226 0,-1.38783 0,-1.38782 0,-0.52043 0,-3.46956 0,-0.69391 0,-0.86739 0,-0.69391 0,-0.86739 0,-2.25521 0,-0.69391 0,-2.94913 0,-0.52043 0,-2.08174 0,-0.69391 0,-0.86739 0,-2.25521 0,-0.69391 0,-2.94912 0,-0.52044 0,-2.08173 0,-1.21435 0,-1.38782 0,-1.38782 0,-1.38782 0,-0.52044 0,-0.52043 0,-5.37781 0,-1.21435 0,-1.04087 0,-1.21434 0,-1.04087 0,-0.86739 0,-1.04086 0,-0.69392 0,-3.1226 0,-1.90825 0,-0.69391 0,-0.69392 0,-0.69391 0,-0.69391 0,-2.94912 0,-0.52044 0,-2.08173 z"
       id="path3746" />
    <path
       d="m 107.38724,259.15588 c 19.63186,0.14464 30.85008,10.20635 33.65471,30.18515 1.24318,17.92607 -5.05984,30.18516 -18.90909,36.7773 -13.38674,4.85738 -24.778443,2.94913 -34.175134,-5.72477 -10.003895,-11.27603 -12.779538,-24.22903 -8.326937,-38.85904 4.857367,-13.90707 14.10951,-21.36661 27.756451,-22.37864 z m 0.34696,13.18432 c -11.102607,2.11071 -16.191285,10.20633 -15.266051,24.2869 0.433674,8.32696 3.845402,14.22521 10.235191,17.69474 l 0.52044,0 c 0.54931,0.31806 1.06974,0.49154 1.5613,0.52043 l 0.34695,0.17348 2.08174,0.52043 c 12.20122,-0.11563 18.56207,-6.36083 19.08256,-18.73561 1.06972,-15.90208 -5.11765,-24.05553 -18.56213,-24.46037 z"
       id="path3748" />
    <path
       d="m 157.69582,260.89066 0.52044,0 3.46955,0 0.69391,0 0.52044,0 3.1226,0 2.25521,0 0.69391,0 2.94912,0 0.52044,0 2.08173,0 0.69391,1.04087 0.34696,0.52043 0.34696,0.52043 0.69391,1.04087 c 0.89627,1.04094 1.53235,1.96615 1.90825,2.77565 0.26019,0.2892 0.43366,0.57833 0.52044,0.86739 l 0.52043,0.69391 0.69391,0.69391 0.34696,0.69391 0.52043,0.86739 0.34696,0.34696 0.17347,0.52043 c 0.60714,0.57832 1.06975,1.15658 1.38783,1.73478 l 0.34695,0.69391 0.69391,0.69391 0.52044,0.86739 0.17348,0.52043 c 0.60713,0.63615 1.06974,1.21441 1.38782,1.73478 l 0.17348,0.34696 c 0.40474,0.52049 0.69387,0.9831 0.86738,1.38782 l 0.34696,0.34696 0.69391,1.21434 0.34696,0.17348 0.17348,0.52043 c 0.72278,0.83853 1.24321,1.59027 1.5613,2.25521 l 0.52043,-0.17347 0.17348,-0.52044 2.77564,-3.81651 0.52044,-0.86739 1.73477,-2.60217 c 0.66495,-0.78059 1.12756,-1.4745 1.38783,-2.08173 l 0.52043,-0.69391 0.52043,-0.52044 0.52044,-1.04086 0.52043,-0.34696 0.34696,-0.69391 c 0.37581,-0.69385 0.78059,-1.21428 1.21434,-1.5613 l 0.34696,-0.86739 c 0.46255,-0.63602 0.86733,-1.09862 1.21434,-1.38782 l 0.17348,-0.52044 0.34696,-0.52043 0.34695,-0.34696 0.17348,-0.52043 c 0.40472,-0.3758 0.69385,-0.72275 0.86739,-1.04087 l 0.34695,-0.52043 1.56131,-2.42869 0.52043,0 3.46956,0 2.25521,0 0.69391,0 3.1226,0 0.69391,0 0.69391,0 0.69391,0 2.94913,0 0.52043,0 2.08174,0 0,66.26854 -2.94913,0 -0.69391,0 -0.86739,0 -2.25521,0 -0.69391,0 -2.94913,0 -0.52043,0 -2.08173,0 c -0.69398,-0.11565 -0.92528,-0.52043 -0.69391,-1.21435 l 0,-0.52043 0,-0.69391 0,-2.94913 0,-0.52043 0,-2.08173 0,-3.46956 0,-1.21435 0,-1.04086 0,-0.69391 0,-0.52044 0,-0.86739 0,-0.52043 0,-0.69391 0,-0.52044 0,-3.46955 0,-5.37782 0,-1.04086 0,-2.94913 0,-1.04086 0,-0.69391 0,-0.52044 0,-3.46955 0,-0.69392 0,-2.94912 0,-2.42869 0,-0.52043 0,-0.52044 0,-1.38782 c 0.0578,-1.06972 -7e-5,-1.99494 -0.17348,-2.77564 l -0.86739,1.04086 c -0.20245,0.40484 -0.43376,0.75179 -0.69391,1.04087 -0.60724,1.06983 -1.1855,1.93722 -1.73478,2.60217 l -0.69391,1.04086 -0.69391,1.04087 -0.69392,1.04087 -2.08173,2.94912 -1.5613,2.42869 -0.52043,0.69391 c -0.57832,0.83852 -1.09875,1.47461 -1.5613,1.90826 l -0.34696,0.69391 c -0.75179,1.2433 -1.4457,2.22634 -2.08173,2.94912 l -0.34696,0.69392 -0.52043,0.52043 -0.17348,0.52043 c -0.57831,0.83851 -1.09874,1.4746 -1.5613,1.90826 -0.37592,0.80959 -0.72287,1.44568 -1.04087,1.90825 -1.09874,1.56134 -2.02395,2.71785 -2.77564,3.46956 -0.46265,-0.75171 -0.86744,-1.32997 -1.21435,-1.73478 l -0.17348,-0.52043 -0.52043,-0.52043 -0.34696,-0.52044 -0.17347,-0.52043 -0.52044,-0.69391 -0.69391,-1.04087 c -0.20243,-0.11562 -0.31808,-0.23127 -0.34695,-0.34696 -0.40483,-0.63605 -0.80961,-1.15648 -1.21435,-1.5613 l -0.52043,-1.04086 -0.69391,-1.04087 c -0.14461,-0.11561 -0.20243,-0.23127 -0.17348,-0.34696 -0.60721,-0.57822 -1.06982,-1.15648 -1.38782,-1.73477 -0.8096,-1.09866 -1.38786,-2.02387 -1.73478,-2.77565 l -0.69391,-0.86739 -0.52044,-0.69391 -0.34695,-0.69391 c -0.60721,-0.60713 -1.06982,-1.24321 -1.38783,-1.90826 l -0.52043,-0.52043 -0.86739,-1.5613 -0.52043,-0.52044 c -0.46264,-0.75168 -0.86742,-1.32994 -1.21435,-1.73477 l -0.17348,-0.52044 -0.52043,-0.52043 -0.17348,-0.52043 c -0.1735,-0.14452 -0.28915,-0.31799 -0.34695,-0.52044 -0.20242,-0.1156 -0.31807,-0.23125 -0.34696,-0.34695 -0.14459,-0.1156 -0.20242,-0.23125 -0.17348,-0.34696 l -2.25521,-2.94912 0,47.53293 -0.17348,0 0.17348,0 -0.34695,0 0.17347,0 -0.34695,0 0.17348,0 -0.34696,0 0.17348,0 -0.34696,0 0.17348,0 -0.34696,0 0.17348,0 -0.34695,0 0.17347,0 -0.34695,0 0.17348,0 -0.34696,0 0.17348,0 -0.34696,0 0.17348,0 -0.34695,0 0.17347,0 -0.34695,0 0.17348,0 -0.34696,0 0.17348,0 -0.34696,0 0.17348,0 -0.34696,0 0.17348,0 -0.34695,0 0.17347,0 -0.34695,0 0.17348,0 -0.34696,0 0.17348,0 -0.34696,0 0.17348,0 -0.34695,0 0.17347,0 -0.34695,0 0.17348,0 -0.34696,0 0.17348,0 -0.34696,0 0.17348,0 -0.34696,0 0.17348,0 -0.34695,0 0.17347,0 -0.34695,0 0.17348,0 -0.34696,0 0.17348,0 -0.34696,0 0.17348,0 -0.34696,0 0.17348,0 -0.34695,0 0.17347,0 -0.34695,0 0.17348,0 -0.34696,0 0.17348,0 -0.34696,0 0.17348,0 -0.34695,0 0.17347,0 -0.34695,0 0.17348,0 -0.34696,0 0.17348,0 -0.34696,0 0.17348,0 -0.34696,0 0.17348,0 -0.34695,0 0.17347,0 -0.34695,0 0.17348,0 -0.34696,0 0.17348,0 -0.34696,0 0.17348,0 -0.34696,0 0.17348,0 -0.34695,0 0.17347,0 -0.34695,0 0.17348,0 -0.34696,0 0.17348,0 -0.34696,0 0.17348,0 -0.34695,0 0.17347,0 -0.34695,0 0.17348,0 -0.34696,0 0.17348,0 -0.34696,0 0.17348,0 -0.34696,0 0.17348,0 -0.34695,0 0.17347,0 -0.34695,0 0.17348,0 -0.34696,0 0.17348,0 -0.34696,0 0.17348,0 -0.34696,0 0.17348,0 -0.34695,0 0.17347,0 -0.34695,0 0.17348,0 -0.34696,0 0.17348,0 -0.34696,0 0.17348,0 -0.34695,0 0.17347,0 -0.34695,0 0.17348,0 -0.34696,0 0.17348,0 -0.34696,0 0.17348,0 -0.34696,0 0.17348,0 -0.34695,0 0.17347,0 -0.34695,0 0.17348,0 -0.34696,0 0.17348,0 -0.34696,0 0.17348,0 -0.34695,0 0.17347,0 -0.34695,0 0.17348,0 -0.34696,0 0.17348,0 -0.34696,0 0.17348,0 -0.34696,0 0.17348,0 -0.34695,0 0.17347,0 -0.34695,0 0.17348,0 -0.34696,0 0.17348,0 -0.17348,0 0,-0.52044 0,-0.69391 0,-0.52043 0,-0.69391 0,-3.1226 0,-1.38783 0,-1.38782 0,-0.52043 0,-3.46956 0,-0.69391 0,-0.86739 0,-0.69391 0,-0.86739 0,-2.25521 0,-0.69391 0,-2.94913 0,-0.52043 0,-2.08174 0,-0.69391 0,-0.86739 0,-2.25521 0,-0.69391 0,-2.94912 0,-0.52044 0,-2.08173 0,-1.21435 0,-1.38782 0,-1.38782 0,-1.38782 0,-0.52044 0,-0.52043 0,-5.37781 0,-1.21435 0,-1.04087 0,-1.21434 0,-1.04087 0,-0.86739 0,-1.04086 0,-0.69392 0,-3.1226 0,-1.90825 0,-0.69391 0,-0.69392 0,-0.69391 0,-0.69391 0,-2.94912 0,-0.52044 0,-2.08173 z"
       id="path3750" />
    <path
       d="m 247.21039,260.89066 0.52043,0 0.86739,0 0.52043,0 0.69391,0 0.52044,0 3.46955,0 1.21435,0 3.46955,0 1.21435,0 1.04087,0 0.86739,0 1.04086,0 0.69391,0 3.12261,0 1.90825,0 0.69391,0 0.69391,0 0.69392,0 0.69391,0 2.94912,0 1.38782,0 1.21435,0 0.52043,0.17348 0.52044,0 1.38782,0.17348 2.77564,0.69391 c 4.94407,2.16854 8.47145,5.40679 10.58215,9.71476 3.4695,8.21134 1.79255,14.74566 -5.03086,19.60299 4.91515,2.31308 7.9221,5.84046 9.02085,10.58215 1.96602,11.62304 -2.02397,19.60301 -11.96997,23.93994 l -0.52043,0 c -1.35896,0.6361 -2.63113,0.98305 -3.81651,1.04087 l -1.21435,0.34696 -0.52043,0 -4.33695,0.17347 -1.21434,0 -1.21435,0 -0.52043,0 -0.52044,0 -5.37781,0 -1.21434,0 -1.04087,0 -1.21435,0 -1.04086,0 -0.86739,0 -1.04087,0 -0.69391,0 -3.1226,0 -1.90826,0 -0.69391,0 -0.69391,0 -0.69391,0 -0.69391,0 -2.94913,0 -0.52043,0 -2.08173,0 0,-0.69391 0,-3.1226 0,-1.38782 0,-1.38782 0,-0.52044 0,-0.69391 0,-3.1226 0,-0.52043 0,-3.46956 0,-1.38782 0,-0.69391 0,-3.12261 0,-0.52043 0,-0.52043 0,-5.37782 0,-1.21434 0,-0.52043 0,-0.69392 0,-3.1226 0,-2.42869 0,-0.52043 0,-0.86739 0,-0.52043 0,-0.69391 0,-0.52044 0,-3.46955 0,-2.94913 0,-0.52043 0,-2.08174 0,-2.25521 0,-0.69391 0,-2.94912 0,-0.52044 0,-2.08173 0,-1.90826 0,-0.86739 0,-2.25521 0,-0.69391 0,-2.94912 0,-0.52044 0,-2.08173 z m 11.10258,26.71559 1.04086,0 0.86739,0 2.25522,0 0.69391,0 3.1226,0 2.42869,0 1.38782,0 0.52043,0 0.52044,0 0.52043,0 0.52043,0 2.08174,0 1.04087,-0.17348 c 3.81646,-1.93712 5.31994,-4.82841 4.51042,-8.67389 -0.66504,-1.67689 -1.64808,-3.00689 -2.94912,-3.98999 -0.60722,-0.17342 -1.12765,-0.40472 -1.5613,-0.69391 l -0.69392,-0.17348 -0.52043,0 -0.52043,0 c -0.54939,-0.11559 -1.012,-0.17342 -1.38783,-0.17348 l -0.86738,0 -2.94913,0 -0.69391,0 -0.86739,0 -2.25521,0 -0.69391,0 -2.94913,0 -0.52043,0 -2.08173,0 z m 0,26.71559 2.94912,0 0.86739,0 0.52043,0 0.52044,0 2.25521,0 1.73478,0 0.52043,0 0.52043,0 1.73478,0 2.94913,0 c 1.53234,2e-5 2.80451,-0.11563 3.81651,-0.34696 4.01886,-2.11062 5.75363,-5.23322 5.20433,-9.3678 -0.86743,-2.83344 -2.48656,-4.85735 -4.85738,-6.07173 -0.89634,-0.14452 -1.64808,-0.318 -2.25521,-0.52043 l -2.94912,0 -0.69391,0 -0.69391,0 -0.52044,0 -3.1226,0 -2.25521,0 -0.69391,0 -2.94913,0 -0.52043,0 -2.08173,0 z"
       id="path3752" />
    <path
       d="m 328.74497,260.89066 2.25521,0 5.37781,0 2.42869,0 0.52043,0 0.86739,0 0.52044,0 0.69391,0 0.52043,0 3.46956,0 0,0.52043 c 0.49148,1.04095 0.83843,1.96616 1.04087,2.77565 l 0.34695,1.21434 0.17348,0.69392 c 0.11561,0.17354 0.17343,0.34702 0.17348,0.52043 0.1156,0.17355 0.17343,0.34702 0.17347,0.52043 0.11561,0.17355 0.17344,0.34703 0.17348,0.52044 0.28909,0.46267 0.46256,0.92528 0.52044,1.38782 l 1.04086,2.77564 0,0.52044 c 0.5493,1.06984 0.89626,2.05288 1.04087,2.94912 0.5493,1.27223 0.89625,2.37092 1.04087,3.29608 0.17343,0.34701 0.28908,0.69397 0.34695,1.04087 l 0.34696,0.69391 c 0.17343,0.57831 0.3469,1.04092 0.52043,1.38782 l 0,0.52044 c 0.1156,0.17353 0.17343,0.347 0.17348,0.52043 0.28908,0.46266 0.46256,0.92527 0.52043,1.38782 l 1.04087,2.77565 0.17348,0.69391 0.17348,0.34695 0.34695,1.5613 0.34696,0.69392 0.34695,0.86739 0.17348,0.52043 0.17348,0.69391 0.34695,1.04087 c 0.17343,0.5783 0.34691,1.04091 0.52044,1.38782 l 0,0.52043 c 0.1156,0.17352 0.17342,0.347 0.17348,0.52044 0.28907,0.46264 0.46255,0.92525 0.52043,1.38782 l 1.04087,2.77565 0.17347,1.04086 0.52044,1.04087 0.34695,1.04087 0,0.52043 0.34696,0.52043 0.17348,0.69391 0.17347,0.86739 c 0.89625,2.05285 1.47451,3.78763 1.73478,5.20434 0.1156,0.1735 0.17342,0.34698 0.17348,0.52043 0.89624,2.05285 1.4745,3.78762 1.73478,5.20434 l 0.34696,0.52043 0.17347,0.69391 0.17348,0.69391 0.17348,0.52044 0.17348,0.69391 c 0.11559,0.17349 0.17341,0.34697 0.17347,0.52043 0.11559,0.1735 0.17342,0.34697 0.17348,0.52044 0.11559,0.17349 0.17342,0.34697 0.17348,0.52043 l 0.34696,0.52043 0,0.52044 c 0.11558,0.17349 0.17341,0.34697 0.17347,0.52043 0.28907,0.46262 0.46255,0.92523 0.52044,1.38782 0.3758,0.8674 0.60711,1.56131 0.69391,2.08174 l 0.34695,1.04086 -1.04086,0 -0.69391,0 -3.12261,0 -1.90825,0 -0.69391,0 -0.69391,0 -0.69392,0 -0.69391,0 -2.94912,0 -0.52043,0 -2.08174,0 -0.34695,-1.04086 0,-0.69391 -0.34696,-0.52044 0,-0.52043 c -0.347,-0.63607 -0.52048,-1.21433 -0.52043,-1.73478 l -0.34696,-0.52043 0,-0.52044 -0.17348,-0.69391 -0.52043,-1.21434 -1.21434,-4.33695 -3.12261,0 -3.46955,0 -1.21435,0 -1.04086,0 -0.86739,0 -1.04087,0 -0.69391,0 -3.1226,0 -1.90826,0 -0.69391,0 -0.69391,0 -0.69391,0 -0.69392,0 -2.94912,0 -0.52043,0 -2.08174,0 -0.17347,0.86739 -0.17348,0.86739 -0.34696,0.69391 c -0.14458,0.6361 -0.31806,1.21436 -0.52043,1.73478 l -0.17348,0.86739 -0.17348,0.34695 -0.52043,1.73478 -0.17348,0.69391 -0.17348,0.52044 c -0.20241,0.60718 -0.37588,1.06979 -0.52043,1.38782 l -0.52043,2.08173 -0.69391,0 -0.69392,0 -0.52043,0 -3.46956,0 -0.52043,0 -3.1226,0 -0.52043,0 -5.37782,0 0.34696,-1.38782 0.52043,-1.73478 0.17348,-0.52043 0.17348,-0.52043 0.17347,-0.52044 0.17348,-0.34695 0.86739,-2.77565 0.17348,-0.52043 0.17348,-0.52044 0.17348,-0.69391 0.34695,-0.69391 0.52043,-1.90825 0.17348,-0.52044 0.17348,-0.52043 0.17348,-0.52044 0.17348,-0.34695 c 0.34694,-1.32997 0.6939,-2.37084 1.04086,-3.1226 l 0.34696,-1.21435 0.17348,-0.34695 c 0.34694,-1.32997 0.6939,-2.37084 1.04086,-3.1226 0.14456,-0.57823 0.31804,-1.04084 0.52044,-1.38783 l 0.34695,-1.38782 0.52044,-1.21434 0.34695,-1.38783 0.17348,-0.34695 c 0.34694,-1.32996 0.6939,-2.37083 1.04087,-3.1226 l 0.34695,-1.38783 1.38783,-3.81651 0.34695,-1.21434 0.17348,-0.52044 0.17348,-0.52043 c 0.34694,-1.09865 0.69389,-2.02386 1.04086,-2.77565 l 0.34696,-1.04086 0.17348,-0.52044 0,-0.52043 0.17348,-0.52043 1.21434,-3.12261 0.17348,-1.04086 0.34695,-0.86739 0.34696,-0.69391 c 0.23128,-1.09864 0.52041,-2.02385 0.86739,-2.77565 l 0.17348,-0.86739 0.17347,-0.52043 0.17348,-0.34696 c 0.34694,-1.32993 0.69389,-2.3708 1.04087,-3.1226 l 0.17348,-0.69391 0.17347,-0.69391 c 0.31803,-0.66493 0.54933,-1.30102 0.69392,-1.90826 l 0.52043,-1.73478 0.17348,-0.52043 1.38782,-3.98999 z m 7.45954,15.26605 -0.52043,1.90826 -0.17348,0.34695 -0.86739,3.1226 -1.04087,2.94913 -0.17347,0.34695 -1.04087,3.81652 -0.17348,0.69391 -1.04086,2.94912 -0.34696,0.86739 c -0.11568,0.92526 -0.34698,1.73482 -0.69391,2.42869 -0.0868,0.66504 -0.26025,1.30112 -0.52044,1.90826 l -0.17347,0.69391 c -0.23133,0.69395 -0.46264,1.2722 -0.69391,1.73478 l -1.04087,3.81651 0.52043,0 0.69391,0 0.69391,0 0.69392,0 0.69391,0 2.94912,0 0.52043,0 2.08174,0 0.69391,0 1.90826,0 0.86739,0 0.52043,0 0.69391,0 0.52043,0 3.46956,0 -0.34696,-1.38783 -1.04086,-3.29607 -0.86739,-2.94913 c -0.43374,-1.09865 -0.72287,-2.02386 -0.86739,-2.77564 l -0.17348,-0.34696 c -0.23134,-0.83843 -0.46264,-1.53234 -0.69391,-2.08173 l -0.17348,-0.69391 -0.17348,-0.69392 -0.34695,-0.86738 -0.17348,-1.04087 -0.17348,-0.69391 -0.34695,-0.52044 -0.17348,-1.04086 -0.17348,-0.69392 c -0.17351,-0.3469 -0.28916,-0.69385 -0.34695,-1.04086 l -0.17348,-0.69391 c -0.43373,-0.86734 -0.72286,-1.6769 -0.86739,-2.42869 l -0.17348,-0.52044 -0.17348,-0.34695 -0.34695,-1.5613 -0.17348,-0.52044 -0.86739,-2.25521 z"
       id="path3754" />
    <path
       d="m 381.48223,260.71718 1.38782,0 3.46956,0 0.52043,0 0.52044,0 5.37781,0 1.21435,0 0.52043,0 2.25521,0 2.94912,0 0.69392,0 0.69391,0 3.1226,0 2.42869,0 0.52043,0 0.52044,0 0.52043,0 1.21434,0 0.69392,0 0.52043,0 0.52043,0 c 0.83844,0.14464 1.53235,0.20247 2.08174,0.17348 l 2.08173,0.34696 0.34696,0.17347 0.52043,0 0.34696,0.17348 2.60216,0.86739 c 5.31994,2.80463 8.84731,6.67897 10.58215,11.62302 3.41167,12.20132 -0.57832,20.93303 -11.96997,26.19515 l 0.34696,0.17348 c 0.54929,1.12764 1.06973,2.05285 1.5613,2.77564 l 0.52043,1.04087 c 0.23125,0.3759 0.40473,0.72286 0.52043,1.04087 l 0.69391,1.04087 c 0.69386,1.04089 1.2143,1.96611 1.56131,2.77564 0.69385,0.86742 1.15646,1.67698 1.38782,2.42869 0.72277,0.92524 1.2432,1.7348 1.5613,2.42869 0.40472,0.66502 0.69385,1.24328 0.86739,1.73478 l 0.34695,0.52043 0.34696,0.69391 0.52043,0.52044 1.21435,2.25521 c 0.37581,0.60719 0.66494,1.12762 0.86739,1.5613 l 0.34695,0.52043 0.17348,0.34696 0.34696,0.34695 0.17347,0.52044 c 1.06972,1.59022 1.82146,2.97805 2.25522,4.16347 l -1.21435,0 -2.42869,0 -0.52043,0 -3.1226,0 -2.25522,0 -0.69391,0 -2.94912,0 -0.52043,0 -2.08174,0 -0.17348,-0.34696 -0.34695,-0.34695 -0.17348,-0.34696 -1.21434,-2.08173 -0.17348,-0.52044 c -0.54939,-0.66498 -0.89635,-1.30107 -1.04087,-1.90825 -0.69395,-0.72281 -1.15656,-1.47455 -1.38782,-2.25522 -0.69396,-0.86737 -1.15656,-1.67693 -1.38782,-2.42869 l -0.52044,-0.69391 -0.52043,-1.04086 -0.34696,-0.69392 c -0.72286,-0.86736 -1.24329,-1.6191 -1.5613,-2.25521 -0.40482,-0.89627 -0.8096,-1.64801 -1.21434,-2.25521 l -0.17348,-0.52043 c -0.66504,-0.7228 -1.12764,-1.47454 -1.38782,-2.25522 l -0.34696,-0.52043 -0.17348,-0.52043 -0.34695,-0.17348 -0.52044,-1.21435 c -0.1446,-0.11562 -0.20242,-0.23127 -0.17347,-0.34695 -0.86743,-1.12757 -1.50351,-2.16844 -1.90826,-3.1226 l -0.69391,0 -1.90826,0 -0.86739,0 -0.52043,0 -0.69391,0 -0.52044,0 -3.46955,0 0,25.8482 -2.25521,0 -0.69392,0 -3.1226,0 -0.69391,0 -0.69391,0 -0.69391,0 -2.94912,0 -0.52044,0 -2.08173,0 0,-0.69391 0,-3.12261 0,-1.38782 0,-1.38782 0,-0.52044 0,-0.69391 0,-3.1226 0,-0.52043 0,-3.46956 0,-1.38782 0,-0.69391 0,-3.1226 0,-0.52044 0,-0.52043 0,-5.37781 0,-1.21435 0,-0.52043 0,-0.69391 0,-3.1226 0,-2.42869 0,-0.52044 0,-0.86739 0,-0.52043 0,-0.69391 0,-0.52044 0,-3.46955 0,-2.94913 0,-0.52043 0,-2.08173 0,-2.25522 0,-0.69391 0,-2.94912 0,-0.52043 0,-2.08174 0,-1.90825 0,-0.86739 0,-2.25522 0,-0.69391 0,-2.94912 0,-0.52043 0,-2.08174 z m 12.31693,28.10341 0.86739,0 1.21434,0 2.42869,0 0.52044,0 3.1226,0 2.25521,0 0.69391,0 2.94912,0 0.52044,0 2.08173,0 2.08173,-0.52043 c 3.4406,-2.13951 4.94408,-5.0308 4.51043,-8.67389 -0.83852,-2.60211 -2.342,-4.51036 -4.51043,-5.72477 l -0.52043,0 -0.34695,-0.17348 -2.25522,-0.52043 -0.86739,0 -2.42869,0 -0.86738,0 -0.69392,0 -3.1226,0 -0.69391,0 -0.69391,0 -0.69391,0 -2.94912,0 -0.52044,0 -2.08173,0 z"
       id="path3756" />
    <path
       d="m 450.69991,260.89066 0.86739,0 0.69391,0 0.86739,0 0.69391,0 0.86739,0 2.25521,0 0.69392,0 2.94912,0 0.52043,0 2.08174,0 0.69391,0 0.69391,0 2.25521,0 0.69391,0 0.69391,0 1.73478,0 1.90826,0 0.52043,0 1.90826,0 1.38782,0 0.86739,0 0.52043,0.17348 0.69392,0 0.69391,0 0.34695,0.17348 2.77565,0.34695 c 17.60794,5.81158 25.24096,18.5911 22.89907,38.33861 -3.52744,20.4704 -17.29,29.60689 -41.28772,27.40949 l -0.69392,0 -0.86738,0 -0.69392,0 -0.86738,0 -0.69392,0 -0.86739,0 -2.25521,0 -0.69391,0 -2.94912,0 -0.52044,0 -2.08173,0 0,-0.69391 0,-3.1226 0,-1.38782 0,-1.38782 0,-0.52044 0,-0.69391 0,-3.1226 0,-0.52043 0,-3.46956 0,-1.38782 0,-0.69391 0,-3.12261 0,-0.52043 0,-0.52043 0,-5.37782 0,-1.21434 0,-0.52043 0,-0.69392 0,-3.1226 0,-2.42869 0,-0.52043 0,-0.86739 0,-0.52043 0,-0.69391 0,-0.52044 0,-3.46955 0,-2.94913 0,-0.52043 0,-2.08174 0,-2.25521 0,-0.69391 0,-2.94912 0,-0.52044 0,-2.08173 0,-1.90826 0,-0.86739 0,-2.25521 0,-0.69391 0,-2.94912 0,-0.52044 0,-2.08173 z m 12.83736,52.91074 2.42869,0 0.52044,0 1.38782,0 0.52043,0 0.52044,0 2.25521,0 0.69391,0 0.52043,0 3.46956,0 1.21434,-0.17348 c 1.06974,-0.11562 1.99496,-0.34693 2.77565,-0.69391 l 1.04087,-0.17347 c 7.63297,-4.25018 11.0447,-10.90016 10.23519,-19.94996 -1.12766,-13.41556 -8.18242,-19.5451 -21.1643,-18.38865 l -0.52043,0 -0.52043,0 -5.37782,0 z"
       id="path3758" />
    <path
       d="m 522.51973,261.06414 0.69391,0 3.1226,0 0.69391,0 0.69391,0 0.69391,0 2.94913,0 0.52043,0 2.08173,0 0,66.26853 -2.25521,0 -0.69391,0 -3.1226,0 -0.69391,0 -0.69391,0 -0.69392,0 -2.94912,0 -0.52043,0 -2.08174,0 0,-0.52043 0,-0.69391 0,-0.52043 0,-0.69392 0,-3.1226 0,-1.38782 0,-1.38782 0,-0.52044 0,-3.46955 0,-0.69391 0,-0.86739 0,-0.69391 0,-0.86739 0,-2.25522 0,-0.69391 0,-2.94912 0,-0.52043 0,-2.08174 0,-0.69391 0,-0.86739 0,-2.25521 0,-0.69391 0,-2.94913 0,-0.52043 0,-2.08173 0,-1.21435 0,-1.38782 0,-1.38782 0,-1.38783 0,-0.52043 0,-0.52043 0,-5.37782 0,-1.21434 0,-1.04087 0,-1.21434 0,-1.04087 0,-0.86739 0,-1.04087 0,-0.69391 0,-3.1226 0,-1.90826 0,-0.69391 0,-0.69391 0,-0.69391 0,-0.69391 0,-2.94912 0,-0.52044 0,-2.08173 z"
       id="path3760" />
    <path
       d="m 569.87915,260.89066 2.25521,0 5.37782,0 2.42869,0 0.52043,0 0.86739,0 0.52043,0 0.69391,0 0.52044,0 3.46955,0 0,0.52043 c 0.49148,1.04095 0.83844,1.96616 1.04087,2.77565 l 0.34696,1.21434 0.17347,0.69392 c 0.11561,0.17354 0.17344,0.34702 0.17348,0.52043 0.11561,0.17355 0.17344,0.34702 0.17348,0.52043 0.11561,0.17355 0.17343,0.34703 0.17348,0.52044 0.28908,0.46267 0.46256,0.92528 0.52043,1.38782 l 1.04087,2.77564 0,0.52044 c 0.5493,1.06984 0.89625,2.05288 1.04087,2.94912 0.54929,1.27223 0.89625,2.37092 1.04086,3.29608 0.17343,0.34701 0.28908,0.69397 0.34696,1.04087 l 0.34695,0.69391 c 0.17343,0.57831 0.34691,1.04092 0.52044,1.38782 l 0,0.52044 c 0.1156,0.17353 0.17343,0.347 0.17348,0.52043 0.28908,0.46266 0.46255,0.92527 0.52043,1.38782 l 1.04087,2.77565 0.17347,0.69391 0.17348,0.34695 0.34696,1.5613 0.34695,0.69392 0.34696,0.86739 0.17348,0.52043 0.17347,0.69391 0.34696,1.04087 c 0.17342,0.5783 0.3469,1.04091 0.52043,1.38782 l 0,0.52043 c 0.1156,0.17352 0.17343,0.347 0.17348,0.52044 0.28908,0.46264 0.46255,0.92525 0.52044,1.38782 l 1.04086,2.77565 0.17348,1.04086 0.52043,1.04087 0.34696,1.04087 0,0.52043 0.34696,0.52043 0.17347,0.69391 0.17348,0.86739 c 0.89624,2.05285 1.4745,3.78763 1.73478,5.20434 0.11559,0.1735 0.17342,0.34698 0.17348,0.52043 0.89624,2.05285 1.4745,3.78762 1.73478,5.20434 l 0.34695,0.52043 0.17348,0.69391 0.17348,0.69391 0.17347,0.52044 0.17348,0.69391 c 0.11559,0.17349 0.17342,0.34697 0.17348,0.52043 0.11559,0.1735 0.17342,0.34697 0.17348,0.52044 0.11559,0.17349 0.17341,0.34697 0.17348,0.52043 l 0.34695,0.52043 0,0.52044 c 0.11559,0.17349 0.17342,0.34697 0.17348,0.52043 0.28907,0.46262 0.46254,0.92523 0.52043,1.38782 0.37581,0.8674 0.60711,1.56131 0.69391,2.08174 l 0.34696,1.04086 -1.04087,0 -0.69391,0 -3.1226,0 -1.90826,0 -0.69391,0 -0.69391,0 -0.69391,0 -0.69391,0 -2.94912,0 -0.52044,0 -2.08173,0 -0.34696,-1.04086 0,-0.69391 -0.34695,-0.52044 0,-0.52043 c -0.34701,-0.63607 -0.52049,-1.21433 -0.52044,-1.73478 l -0.34695,-0.52043 0,-0.52044 -0.17348,-0.69391 -0.52043,-1.21434 -1.21435,-4.33695 -3.1226,0 -3.46956,0 -1.21434,0 -1.04087,0 -0.86739,0 -1.04087,0 -0.69391,0 -3.1226,0 -1.90825,0 -0.69392,0 -0.69391,0 -0.69391,0 -0.69391,0 -2.94912,0 -0.52044,0 -2.08173,0 -0.17348,0.86739 -0.17348,0.86739 -0.34695,0.69391 c -0.14459,0.6361 -0.31806,1.21436 -0.52044,1.73478 l -0.17347,0.86739 -0.17348,0.34695 -0.52043,1.73478 -0.17348,0.69391 -0.17348,0.52044 c -0.20241,0.60718 -0.37589,1.06979 -0.52043,1.38782 l -0.52044,2.08173 -0.69391,0 -0.69391,0 -0.52043,0 -3.46956,0 -0.52043,0 -3.12261,0 -0.52043,0 -5.37781,0 0.34695,-1.38782 0.52044,-1.73478 0.17348,-0.52043 0.17347,-0.52043 0.17348,-0.52044 0.17348,-0.34695 0.86739,-2.77565 0.17348,-0.52043 0.17347,-0.52044 0.17348,-0.69391 0.34696,-0.69391 0.52043,-1.90825 0.17348,-0.52044 0.17348,-0.52043 0.17347,-0.52044 0.17348,-0.34695 c 0.34695,-1.32997 0.69391,-2.37084 1.04087,-3.1226 l 0.34695,-1.21435 0.17348,-0.34695 c 0.34695,-1.32997 0.6939,-2.37084 1.04087,-3.1226 0.14455,-0.57823 0.31803,-1.04084 0.52043,-1.38783 l 0.34696,-1.38782 0.52043,-1.21434 0.34696,-1.38783 0.17348,-0.34695 c 0.34694,-1.32996 0.69389,-2.37083 1.04086,-3.1226 l 0.34696,-1.38783 1.38782,-3.81651 0.34696,-1.21434 0.17347,-0.52044 0.17348,-0.52043 c 0.34694,-1.09865 0.6939,-2.02386 1.04087,-2.77565 l 0.34696,-1.04086 0.17347,-0.52044 0,-0.52043 0.17348,-0.52043 1.21435,-3.12261 0.17347,-1.04086 0.34696,-0.86739 0.34696,-0.69391 c 0.23128,-1.09864 0.52041,-2.02385 0.86738,-2.77565 l 0.17348,-0.86739 0.17348,-0.52043 0.17348,-0.34696 c 0.34693,-1.32993 0.69389,-2.3708 1.04087,-3.1226 l 0.17347,-0.69391 0.17348,-0.69391 c 0.31802,-0.66493 0.54932,-1.30102 0.69391,-1.90826 l 0.52044,-1.73478 0.17347,-0.52043 1.38783,-3.98999 z m 7.45955,15.26605 -0.52044,1.90826 -0.17347,0.34695 -0.86739,3.1226 -1.04087,2.94913 -0.17348,0.34695 -1.04086,3.81652 -0.17348,0.69391 -1.04087,2.94912 -0.34695,0.86739 c -0.11568,0.92526 -0.34699,1.73482 -0.69392,2.42869 -0.0868,0.66504 -0.26024,1.30112 -0.52043,1.90826 l -0.17348,0.69391 c -0.23133,0.69395 -0.46263,1.2722 -0.69391,1.73478 l -1.04087,3.81651 0.52044,0 0.69391,0 0.69391,0 0.69391,0 0.69391,0 2.94913,0 0.52043,0 2.08173,0 0.69392,0 1.90825,0 0.86739,0 0.52043,0 0.69392,0 0.52043,0 3.46956,0 -0.34696,-1.38783 -1.04087,-3.29607 -0.86739,-2.94913 c -0.43373,-1.09865 -0.72286,-2.02386 -0.86738,-2.77564 l -0.17348,-0.34696 c -0.23135,-0.83843 -0.46265,-1.53234 -0.69391,-2.08173 l -0.17348,-0.69391 -0.17348,-0.69392 -0.34696,-0.86738 -0.17347,-1.04087 -0.17348,-0.69391 -0.34696,-0.52044 -0.17347,-1.04086 -0.17348,-0.69392 c -0.17352,-0.3469 -0.28917,-0.69385 -0.34696,-1.04086 l -0.17348,-0.69391 c -0.43373,-0.86734 -0.72286,-1.6769 -0.86739,-2.42869 l -0.17347,-0.52044 -0.17348,-0.34695 -0.34696,-1.5613 -0.17347,-0.52044 -0.86739,-2.25521 z"
       id="path3762" />
  </g>
</svg>
