<?xml version="1.0" encoding="UTF-8" standalone="no"?>
<!-- Created with Inkscape (http://www.inkscape.org/) -->

<svg
   xmlns:dc="http://purl.org/dc/elements/1.1/"
   xmlns:cc="http://creativecommons.org/ns#"
   xmlns:rdf="http://www.w3.org/1999/02/22-rdf-syntax-ns#"
   xmlns:svg="http://www.w3.org/2000/svg"
   xmlns="http://www.w3.org/2000/svg"
   xmlns:sodipodi="http://sodipodi.sourceforge.net/DTD/sodipodi-0.dtd"
   xmlns:inkscape="http://www.inkscape.org/namespaces/inkscape"
   id="svg2"
   version="1.1"
   inkscape:version="0.47 r22583"
   width="632.91913"
   height="199.47205"
   sodipodi:docname="8096.png">
  <metadata
     id="metadata8">
    <rdf:RDF>
      <cc:Work
         rdf:about="">
        <dc:format>image/svg+xml</dc:format>
        <dc:type
           rdf:resource="http://purl.org/dc/dcmitype/StillImage" />
        <dc:title></dc:title>
      </cc:Work>
    </rdf:RDF>
  </metadata>
  <defs
     id="defs6">
    <inkscape:perspective
       sodipodi:type="inkscape:persp3d"
       inkscape:vp_x="0 : 0.5 : 1"
       inkscape:vp_y="0 : 1000 : 0"
       inkscape:vp_z="1 : 0.5 : 1"
       inkscape:persp3d-origin="0.5 : 0.33333333 : 1"
       id="perspective10" />
  </defs>
  <sodipodi:namedview
     pagecolor="#ffffff"
     bordercolor="#666666"
     borderopacity="1"
     objecttolerance="10"
     gridtolerance="10"
     guidetolerance="10"
     inkscape:pageopacity="0"
     inkscape:pageshadow="2"
     inkscape:window-width="1600"
     inkscape:window-height="838"
     id="namedview4"
     showgrid="false"
     inkscape:zoom="1.6185794"
     inkscape:cx="310.36701"
     inkscape:cy="88.188228"
     inkscape:window-x="-8"
     inkscape:window-y="-8"
     inkscape:window-maximized="1"
     inkscape:current-layer="svg2" />
  <g
     id="g3625"
     transform="matrix(3.4212681,0,0,3.4212681,-134.17594,-1409.3411)">
    <path
       id="rect2818"
       d="m 39.318188,412.03531 184.795482,0 0,58.10354 -184.795482,0 0,-58.10354 z"
       style="fill:#ffffff;fill-opacity:1;stroke:#000000;stroke-width:0.2;stroke-linecap:square;stroke-linejoin:miter;stroke-miterlimit:4;stroke-opacity:1;stroke-dashoffset:26.87999878" />
    <path
       id="rect3592"
       d="m 47.062964,414.65652 168.869066,0 c 3.08048,0 5.56043,2.47996 5.56043,5.56044 l 0,41.74026 c 0,3.08047 -2.47995,5.56043 -5.56043,5.56043 l -168.869066,0 c -3.080479,0 -5.560431,-2.47996 -5.560431,-5.56043 l 0,-41.74026 c 0,-3.08048 2.479952,-5.56044 5.560431,-5.56044 z"
       style="fill:#ffffff;fill-opacity:1;stroke:#000000;stroke-width:1;stroke-linecap:square;stroke-linejoin:miter;stroke-miterlimit:4;stroke-opacity:1;stroke-dashoffset:26.87999878" />
    <g
       id="text3594"
       style="font-size:24.47233391px;font-style:normal;font-variant:normal;font-weight:normal;font-stretch:normal;text-align:start;line-height:100%;writing-mode:lr-tb;text-anchor:start;fill:#000000;fill-opacity:1;stroke:none;font-family:Transport Heavy;-inkscape-font-specification:'Transport Heavy,'"
       transform="scale(1.0271574,0.97356062)">
      <path
         id="path3611"
         d="m 63.922296,442.49114 0.19119,0 0.143393,0 0.19119,0 0.860355,0 0.19119,0 0.860356,0 0.286785,0 0.334583,0 0.95595,0 0.38238,0 0.382381,0 0.38238,0 0.38238,0 0.955951,0 0.143392,0 0.143393,0 1.481723,0 0.334583,0 0.286785,0 0.334583,0 0.286785,0 0.238988,0 0.286785,0 0.19119,0 0.860355,0 0.525773,0 0.19119,0 0.19119,0 0.19119,0 0.191191,0 0.812557,0 0.143393,0 0.57357,0 0,3.63261 -0.286785,0 -0.143392,0 -0.955951,0 -0.621368,0 -0.19119,0 -0.860355,0 -0.19119,0 -0.191191,0 -0.19119,0 -0.812558,0 -0.143392,0 -0.573571,0 0,14.67384 -0.621367,0 -0.191191,0 -0.860355,0 -0.19119,0 -0.19119,0 -0.19119,0 -0.812558,0 -0.143393,0 -0.57357,0 0,-0.33458 0,-0.14339 0,-0.23899 0,-0.14339 0,-0.19119 0,-0.1434 0,-0.95595 0,-0.19119 0,-0.86035 0,-0.28679 0,-0.33458 0,-0.95595 0,-0.38238 0,-0.38238 0,-0.38238 0,-0.38238 0,-0.95595 0,-0.14339 0,-0.1434 0,-1.48172 0,-0.33458 0,-0.28679 0,-0.33458 0,-0.28679 0,-0.23898 0,-0.28679 0,-0.19119 0,-0.86035 0,-0.52578 0,-0.19119 0,-0.19119 0,-0.19119 0,-0.19119 0,-0.81256 0,-0.14339 0,-0.57357 -0.286785,0 -0.143393,0 -0.95595,0 -0.621368,0 -0.19119,0 -0.860356,0 -0.19119,0 -0.19119,0 -0.19119,0 -0.812558,0 -0.143393,0 -0.57357,0 0,-0.95595 0,-0.23899 0,-0.14339 0,-0.19119 0,-0.19119 0,-0.19119 0,-0.19119 0,-0.81256 0,-0.14339 0,-0.57357 z" />
      <path
         id="path3613"
         d="m 85.526778,442.53894 0.621368,0 1.481723,0 0.669165,0 0.143393,0 0.238988,0 0.143392,0 0.19119,0 0.143393,0 0.95595,0 0,0.14339 c 0.135415,0.2868 0.23101,0.54172 0.286786,0.76476 l 0.0956,0.33458 0.0478,0.19119 c 0.03185,0.0478 0.04779,0.0956 0.0478,0.1434 0.03185,0.0478 0.04779,0.0956 0.0478,0.14339 0.03185,0.0478 0.04779,0.0956 0.0478,0.14339 0.07965,0.12748 0.127447,0.25494 0.143392,0.38238 l 0.286786,0.76476 0,0.14339 c 0.151346,0.29477 0.24694,0.56562 0.286785,0.81256 0.151345,0.35053 0.24694,0.65325 0.286785,0.90815 0.04778,0.0956 0.07965,0.19121 0.09559,0.28679 l 0.0956,0.19119 c 0.04778,0.15934 0.09558,0.2868 0.143393,0.38238 l 0,0.14339 c 0.03185,0.0478 0.04778,0.0956 0.0478,0.1434 0.07965,0.12747 0.127446,0.25493 0.143393,0.38238 l 0.286785,0.76476 0.0478,0.19119 0.0478,0.0956 0.09559,0.43018 0.0956,0.19119 0.0956,0.23899 0.0478,0.14339 0.0478,0.19119 0.0956,0.28678 c 0.04778,0.15934 0.09558,0.2868 0.143393,0.38238 l 0,0.1434 c 0.03185,0.0478 0.04778,0.0956 0.0478,0.14339 0.07965,0.12747 0.127445,0.25493 0.143393,0.38238 l 0.286785,0.76476 0.0478,0.28679 0.143392,0.28678 0.0956,0.28679 0,0.14339 0.09559,0.14339 0.0478,0.19119 0.0478,0.23899 c 0.246938,0.56561 0.406263,1.04359 0.477976,1.43392 0.03185,0.0478 0.04778,0.0956 0.0478,0.1434 0.246937,0.56561 0.406262,1.04358 0.477975,1.43392 l 0.0956,0.1434 0.0478,0.19119 0.0478,0.19119 0.0478,0.14339 0.0478,0.19119 c 0.03185,0.0478 0.04778,0.0956 0.0478,0.14339 0.03185,0.0478 0.04778,0.0956 0.0478,0.14339 0.03185,0.0478 0.04778,0.0956 0.0478,0.1434 l 0.0956,0.14339 0,0.14339 c 0.03185,0.0478 0.04778,0.0956 0.0478,0.14339 0.07964,0.12747 0.127442,0.25493 0.143392,0.38238 0.103544,0.23899 0.167274,0.43018 0.19119,0.57357 l 0.0956,0.28679 -0.286785,0 -0.19119,0 -0.860355,0 -0.525773,0 -0.19119,0 -0.19119,0 -0.19119,0 -0.191191,0 -0.812558,0 -0.143392,0 -0.57357,0 -0.0956,-0.28679 0,-0.19119 -0.0956,-0.14339 0,-0.14339 c -0.09561,-0.17525 -0.143405,-0.33458 -0.143392,-0.47798 l -0.0956,-0.14339 0,-0.14339 -0.0478,-0.19119 -0.143392,-0.33458 -0.334583,-1.19494 -0.860355,0 -0.955951,0 -0.334583,0 -0.286785,0 -0.238987,0 -0.286786,0 -0.19119,0 -0.860355,0 -0.525773,0 -0.19119,0 -0.19119,0 -0.19119,0 -0.19119,0 -0.812558,0 -0.143393,0 -0.57357,0 -0.0478,0.23899 -0.0478,0.23898 -0.09559,0.19119 c -0.03984,0.17527 -0.08764,0.33459 -0.143393,0.47798 l -0.0478,0.23899 -0.0478,0.0956 -0.143393,0.47798 -0.0478,0.19119 -0.0478,0.14339 c -0.05577,0.16729 -0.103566,0.29475 -0.143392,0.38238 l -0.143393,0.57357 -0.19119,0 -0.19119,0 -0.143393,0 -0.95595,0 -0.143393,0 -0.860355,0 -0.143393,0 -1.481723,0 0.0956,-0.38238 0.143392,-0.47798 0.0478,-0.14339 0.0478,-0.14339 0.0478,-0.14339 0.0478,-0.0956 0.238987,-0.76476 0.0478,-0.14339 0.0478,-0.14339 0.0478,-0.19119 0.0956,-0.19119 0.143392,-0.52578 0.0478,-0.14339 0.0478,-0.14339 0.0478,-0.14339 0.0478,-0.0956 c 0.09559,-0.36644 0.191188,-0.65323 0.286786,-0.86036 l 0.09559,-0.33458 0.0478,-0.0956 c 0.09559,-0.36644 0.191188,-0.65323 0.286785,-0.86036 0.03983,-0.15932 0.08763,-0.28678 0.143393,-0.38238 l 0.0956,-0.38238 0.143393,-0.33458 0.0956,-0.38238 0.0478,-0.0956 c 0.09559,-0.36643 0.191187,-0.65322 0.286785,-0.86035 l 0.0956,-0.38238 0.382381,-1.05155 0.0956,-0.33458 0.0478,-0.14339 0.0478,-0.1434 c 0.09559,-0.3027 0.191185,-0.55762 0.286785,-0.76476 l 0.0956,-0.28678 0.0478,-0.14339 0,-0.1434 0.0478,-0.14339 0.334583,-0.86036 0.0478,-0.28678 0.0956,-0.23899 0.09559,-0.19119 c 0.06373,-0.3027 0.143387,-0.55762 0.238988,-0.76476 l 0.0478,-0.23899 0.0478,-0.14339 0.0478,-0.0956 c 0.09559,-0.36643 0.191184,-0.65322 0.286785,-0.86036 l 0.0478,-0.19119 0.0478,-0.19119 c 0.08762,-0.1832 0.151352,-0.35846 0.19119,-0.52577 l 0.143392,-0.47798 0.0478,-0.14339 0.38238,-1.09934 z m 2.055294,4.20618 -0.143393,0.52577 -0.0478,0.0956 -0.238987,0.86035 -0.286785,0.81256 -0.0478,0.0956 -0.286785,1.05154 -0.0478,0.19119 -0.286785,0.81256 -0.0956,0.23899 c -0.03187,0.25493 -0.0956,0.47798 -0.19119,0.66916 -0.02391,0.18324 -0.0717,0.35849 -0.143392,0.52577 l -0.0478,0.1912 c -0.06374,0.1912 -0.127467,0.35052 -0.19119,0.47797 l -0.286785,1.05155 0.143392,0 0.19119,0 0.191191,0 0.19119,0 0.19119,0 0.812558,0 0.143392,0 0.573571,0 0.19119,0 0.525773,0 0.238987,0 0.143393,0 0.19119,0 0.143392,0 0.955951,0 -0.0956,-0.38238 -0.286785,-0.90816 -0.238988,-0.81256 c -0.119505,-0.3027 -0.199167,-0.55762 -0.238988,-0.76476 l -0.0478,-0.0956 c -0.06374,-0.23101 -0.127471,-0.4222 -0.19119,-0.57357 l -0.0478,-0.19119 -0.0478,-0.19119 -0.09559,-0.23899 -0.0478,-0.28678 -0.0478,-0.19119 -0.0956,-0.1434 -0.0478,-0.28678 -0.0478,-0.19119 c -0.04781,-0.0956 -0.07967,-0.19118 -0.09559,-0.28679 l -0.0478,-0.19119 c -0.119504,-0.23897 -0.199166,-0.46202 -0.238988,-0.66916 l -0.0478,-0.1434 -0.0478,-0.0956 -0.0956,-0.43018 -0.0478,-0.14339 -0.238988,-0.62137 z" />
      <path
         id="path3615"
         d="m 100.05723,442.49114 0.38238,0 0.95595,0 0.14339,0 0.14339,0 1.48173,0 0.33458,0 0.14339,0 0.62137,0 0.81256,0 0.19119,0 0.19119,0 0.86035,0 0.66917,0 0.14339,0 0.14339,0 0.1434,0 0.33458,0 0.19119,0 0.14339,0 0.14339,0 c 0.23101,0.0399 0.4222,0.0558 0.57357,0.0478 l 0.57358,0.0956 0.0956,0.0478 0.14339,0 0.0956,0.0478 0.71696,0.23898 c 1.46578,0.77275 2.43766,1.84023 2.91565,3.20244 0.94,3.36177 -0.15934,5.76758 -3.29803,7.21743 l 0.0956,0.0478 c 0.15134,0.3107 0.29473,0.56562 0.43017,0.76476 l 0.1434,0.28679 c 0.0637,0.10357 0.11151,0.19916 0.14339,0.28678 l 0.19119,0.28679 c 0.19117,0.28679 0.33457,0.54171 0.43018,0.76476 0.19117,0.23899 0.31863,0.46205 0.38238,0.66916 0.19914,0.25493 0.34253,0.47799 0.43017,0.66917 0.11152,0.18323 0.19118,0.34255 0.23899,0.47798 l 0.0956,0.14339 0.0956,0.19119 0.14339,0.14339 0.33459,0.62137 c 0.10354,0.16729 0.1832,0.31069 0.23898,0.43018 l 0.0956,0.14339 0.0478,0.0956 0.0956,0.0956 0.0478,0.14339 c 0.29473,0.43815 0.50186,0.82053 0.62137,1.14714 l -0.33458,0 -0.66917,0 -0.14339,0 -0.86036,0 -0.62137,0 -0.19119,0 -0.81255,0 -0.1434,0 -0.57357,0 -0.0478,-0.0956 -0.0956,-0.0956 -0.0478,-0.0956 -0.33458,-0.57357 -0.0478,-0.1434 c -0.15137,-0.18322 -0.24696,-0.35847 -0.28678,-0.52577 -0.1912,-0.19915 -0.31866,-0.40627 -0.38238,-0.62137 -0.1912,-0.23898 -0.31866,-0.46203 -0.38238,-0.66916 l -0.1434,-0.19119 -0.14339,-0.28679 -0.0956,-0.19119 c -0.19917,-0.23898 -0.34256,-0.4461 -0.43018,-0.62137 -0.11154,-0.24694 -0.22307,-0.45406 -0.33458,-0.62136 l -0.0478,-0.1434 c -0.18324,-0.19914 -0.3107,-0.40627 -0.38238,-0.62136 l -0.0956,-0.1434 -0.0478,-0.14339 -0.0956,-0.0478 -0.14339,-0.33458 c -0.0398,-0.0319 -0.0558,-0.0637 -0.0478,-0.0956 -0.239,-0.31068 -0.41425,-0.59746 -0.52577,-0.86036 l -0.19119,0 -0.52577,0 -0.23899,0 -0.1434,0 -0.19119,0 -0.14339,0 -0.95595,0 0,7.12183 -0.62137,0 -0.19119,0 -0.86035,0 -0.19119,0 -0.19119,0 -0.19119,0 -0.81256,0 -0.14339,0 -0.573573,0 0,-0.19119 0,-0.86035 0,-0.38238 0,-0.38238 0,-0.1434 0,-0.19119 0,-0.86035 0,-0.14339 0,-0.95596 0,-0.38238 0,-0.19119 0,-0.86035 0,-0.14339 0,-0.1434 0,-1.48172 0,-0.33458 0,-0.14339 0,-0.19119 0,-0.86036 0,-0.66917 0,-0.14339 0,-0.23899 0,-0.14339 0,-0.19119 0,-0.14339 0,-0.95595 0,-0.81256 0,-0.14339 0,-0.57357 0,-0.62137 0,-0.19119 0,-0.81256 0,-0.14339 0,-0.57357 0,-0.52577 0,-0.23899 0,-0.62137 0,-0.19119 0,-0.81256 0,-0.14339 0,-0.57357 z m 3.39362,7.7432 0.23899,0 0.33458,0 0.66917,0 0.14339,0 0.86036,0 0.62136,0 0.19119,0 0.81256,0 0.14339,0 0.57357,0 0.57357,-0.14339 c 0.94798,-0.58949 1.36222,-1.38612 1.24274,-2.38988 -0.23103,-0.71695 -0.64528,-1.24272 -1.24274,-1.57732 l -0.14339,0 -0.0956,-0.0478 -0.62137,-0.14339 -0.23899,0 -0.66916,0 -0.23899,0 -0.19119,0 -0.86036,0 -0.19119,0 -0.19119,0 -0.19119,0 -0.81256,0 -0.14339,0 -0.57357,0 z" />
      <path
         id="path3617"
         d="m 123.09564,442.53894 0.62136,0 1.48173,0 0.66916,0 0.1434,0 0.23898,0 0.1434,0 0.19119,0 0.14339,0 0.95595,0 0,0.14339 c 0.13541,0.2868 0.23101,0.54172 0.28678,0.76476 l 0.0956,0.33458 0.0478,0.19119 c 0.0318,0.0478 0.0478,0.0956 0.0478,0.1434 0.0319,0.0478 0.0478,0.0956 0.0478,0.14339 0.0318,0.0478 0.0478,0.0956 0.0478,0.14339 0.0797,0.12748 0.12745,0.25494 0.14339,0.38238 l 0.28679,0.76476 0,0.14339 c 0.15134,0.29477 0.24694,0.56562 0.28678,0.81256 0.15135,0.35053 0.24694,0.65325 0.28679,0.90815 0.0478,0.0956 0.0797,0.19121 0.0956,0.28679 l 0.0956,0.19119 c 0.0478,0.15934 0.0956,0.2868 0.14339,0.38238 l 0,0.14339 c 0.0318,0.0478 0.0478,0.0956 0.0478,0.1434 0.0796,0.12747 0.12744,0.25493 0.14339,0.38238 l 0.28678,0.76476 0.0478,0.19119 0.0478,0.0956 0.0956,0.43018 0.0956,0.19119 0.0956,0.23899 0.0478,0.14339 0.0478,0.19119 0.0956,0.28678 c 0.0478,0.15934 0.0956,0.2868 0.14339,0.38238 l 0,0.1434 c 0.0318,0.0478 0.0478,0.0956 0.0478,0.14339 0.0796,0.12747 0.12744,0.25493 0.14339,0.38238 l 0.28678,0.76476 0.0478,0.28679 0.14339,0.28678 0.0956,0.28679 0,0.14339 0.0956,0.14339 0.0478,0.19119 0.0478,0.23899 c 0.24694,0.56561 0.40626,1.04359 0.47797,1.43392 0.0318,0.0478 0.0478,0.0956 0.0478,0.1434 0.24694,0.56561 0.40626,1.04358 0.47798,1.43392 l 0.0956,0.1434 0.0478,0.19119 0.0478,0.19119 0.0478,0.14339 0.0478,0.19119 c 0.0318,0.0478 0.0478,0.0956 0.0478,0.14339 0.0318,0.0478 0.0478,0.0956 0.0478,0.14339 0.0318,0.0478 0.0478,0.0956 0.0478,0.1434 l 0.0956,0.14339 0,0.14339 c 0.0318,0.0478 0.0478,0.0956 0.0478,0.14339 0.0796,0.12747 0.12744,0.25493 0.14339,0.38238 0.10354,0.23899 0.16727,0.43018 0.19119,0.57357 l 0.0956,0.28679 -0.28678,0 -0.19119,0 -0.86036,0 -0.52577,0 -0.19119,0 -0.19119,0 -0.19119,0 -0.19119,0 -0.81256,0 -0.14339,0 -0.57357,0 -0.0956,-0.28679 0,-0.19119 -0.0956,-0.14339 0,-0.14339 c -0.0956,-0.17525 -0.14341,-0.33458 -0.14339,-0.47798 l -0.0956,-0.14339 0,-0.14339 -0.0478,-0.19119 -0.14339,-0.33458 -0.33458,-1.19494 -0.86036,0 -0.95595,0 -0.33458,0 -0.28678,0 -0.23899,0 -0.28679,0 -0.19119,0 -0.86035,0 -0.52578,0 -0.19119,0 -0.19119,0 -0.19119,0 -0.19119,0 -0.81255,0 -0.1434,0 -0.57357,0 -0.0478,0.23899 -0.0478,0.23898 -0.0956,0.19119 c -0.0398,0.17527 -0.0876,0.33459 -0.14339,0.47798 l -0.0478,0.23899 -0.0478,0.0956 -0.1434,0.47798 -0.0478,0.19119 -0.0478,0.14339 c -0.0558,0.16729 -0.10357,0.29475 -0.1434,0.38238 l -0.14339,0.57357 -0.19119,0 -0.19119,0 -0.14339,0 -0.95595,0 -0.14339,0 -0.86036,0 -0.14339,0 -1.48173,0 0.0956,-0.38238 0.14339,-0.47798 0.0478,-0.14339 0.0478,-0.14339 0.0478,-0.14339 0.0478,-0.0956 0.23899,-0.76476 0.0478,-0.14339 0.0478,-0.14339 0.0478,-0.19119 0.0956,-0.19119 0.14339,-0.52578 0.0478,-0.14339 0.0478,-0.14339 0.0478,-0.14339 0.0478,-0.0956 c 0.0956,-0.36644 0.19119,-0.65323 0.28679,-0.86036 l 0.0956,-0.33458 0.0478,-0.0956 c 0.0956,-0.36644 0.19119,-0.65323 0.28678,-0.86036 0.0398,-0.15932 0.0876,-0.28678 0.1434,-0.38238 l 0.0956,-0.38238 0.14339,-0.33458 0.0956,-0.38238 0.0478,-0.0956 c 0.0956,-0.36643 0.19118,-0.65322 0.28678,-0.86035 l 0.0956,-0.38238 0.38238,-1.05155 0.0956,-0.33458 0.0478,-0.14339 0.0478,-0.1434 c 0.0956,-0.3027 0.19118,-0.55762 0.28678,-0.76476 l 0.0956,-0.28678 0.0478,-0.14339 0,-0.1434 0.0478,-0.14339 0.33458,-0.86036 0.0478,-0.28678 0.0956,-0.23899 0.0956,-0.19119 c 0.0637,-0.3027 0.14339,-0.55762 0.23899,-0.76476 l 0.0478,-0.23899 0.0478,-0.14339 0.0478,-0.0956 c 0.0956,-0.36643 0.19119,-0.65322 0.28679,-0.86036 l 0.0478,-0.19119 0.0478,-0.19119 c 0.0876,-0.1832 0.15136,-0.35846 0.19119,-0.52577 l 0.1434,-0.47798 0.0478,-0.14339 0.38238,-1.09934 z m 2.05529,4.20618 -0.14339,0.52577 -0.0478,0.0956 -0.23899,0.86035 -0.28678,0.81256 -0.0478,0.0956 -0.28679,1.05154 -0.0478,0.19119 -0.28679,0.81256 -0.0956,0.23899 c -0.0319,0.25493 -0.0956,0.47798 -0.19119,0.66916 -0.0239,0.18324 -0.0717,0.35849 -0.1434,0.52577 l -0.0478,0.1912 c -0.0637,0.1912 -0.12747,0.35052 -0.19119,0.47797 l -0.28679,1.05155 0.14339,0 0.19119,0 0.19119,0 0.19119,0 0.19119,0 0.81256,0 0.14339,0 0.57357,0 0.19119,0 0.52578,0 0.23899,0 0.14339,0 0.19119,0 0.14339,0 0.95595,0 -0.0956,-0.38238 -0.28679,-0.90816 -0.23899,-0.81256 c -0.1195,-0.3027 -0.19916,-0.55762 -0.23898,-0.76476 l -0.0478,-0.0956 c -0.0637,-0.23101 -0.12747,-0.4222 -0.19119,-0.57357 l -0.0478,-0.19119 -0.0478,-0.19119 -0.0956,-0.23899 -0.0478,-0.28678 -0.0478,-0.19119 -0.0956,-0.1434 -0.0478,-0.28678 -0.0478,-0.19119 c -0.0478,-0.0956 -0.0797,-0.19118 -0.0956,-0.28679 l -0.0478,-0.19119 c -0.1195,-0.23897 -0.19917,-0.46202 -0.23899,-0.66916 l -0.0478,-0.1434 -0.0478,-0.0956 -0.0956,-0.43018 -0.0478,-0.14339 -0.23898,-0.62137 z" />
      <path
         id="path3619"
         d="m 137.48269,442.49114 0.66917,0 0.23898,0 0.19119,0 0.86036,0 0.19119,0 0.19119,0 0.19119,0 0.81256,0 0.14339,0 0.57357,0 0.19119,0.33458 0.19119,0.28679 0.19119,0.28678 0.19119,0.28679 0.19119,0.28678 0.14339,0.1434 0.0478,0.14339 c 0.0398,0.0319 0.0558,0.0637 0.0478,0.0956 0.23101,0.24698 0.39034,0.48596 0.47797,0.71697 0.23102,0.24697 0.39034,0.48596 0.47798,0.71696 l 0.19119,0.23899 0.19119,0.28678 c 0.0876,0.14341 0.16728,0.25494 0.23899,0.33458 l 0.0478,0.1434 c 0.11949,0.12747 0.19915,0.25493 0.23899,0.38238 0.31864,0.35849 0.5417,0.69308 0.66917,1.00374 l 0.19119,0.28679 c 0.0398,0.0319 0.0558,0.0638 0.0478,0.0956 0.23898,0.27086 0.41424,0.50985 0.52578,0.71696 l 0.19119,0.28678 0.14339,0.28679 0.19119,0.28678 0.19119,0.19119 0.14339,0.23899 0.0956,0.23899 c 0.20711,0.20713 0.3505,0.41426 0.43018,0.62137 l 0.14339,0.19119 0.0956,0.19119 0.1434,0.14339 c 0.15134,0.22307 0.26287,0.41426 0.33458,0.57357 l 0.14339,0.14339 0.0956,0.1434 0.0478,0.14339 0.0956,0.0478 c 0.10355,0.23103 0.21507,0.40628 0.33458,0.52577 l 0.0478,0.14339 c 0.0398,0.0319 0.0558,0.0637 0.0478,0.0956 0.29473,0.32662 0.50186,0.62934 0.62136,0.90815 l 0.0478,-0.33458 0,-0.33459 0,-0.38238 0,-0.19119 0,-0.86035 0,-0.52578 0,-0.19119 0,-0.19119 0,-0.19119 0,-0.19119 0,-0.81255 0,-0.1434 0,-0.57357 0,-0.28678 0,-0.81256 0,-0.14339 0,-0.57357 0,-0.62137 0,-0.19119 0,-0.81256 0,-0.14339 0,-0.57357 0,-0.52577 0,-0.23899 0,-0.62137 0,-0.19119 0,-0.81256 0,-0.14339 0,-0.57357 0.62137,0 0.19119,0 0.86036,0 0.19119,0 0.19119,0 0.19119,0 0.81255,0 0.1434,0 0.57357,0 0,18.25865 -0.1434,0 -0.57357,0 -0.47797,0 -0.33458,0 -0.28679,0 -0.23899,0 -0.19119,0 -0.19119,0 -0.19119,0 -0.14339,0 -0.14339,0 -0.1434,0 -0.0956,0 0.0956,0 -0.0956,0 -0.38238,0 -0.14339,0 -0.62137,0 -0.0478,-0.0956 c -0.11154,-0.14339 -0.1912,-0.27085 -0.23899,-0.38238 -0.0398,-0.0319 -0.0558,-0.0637 -0.0478,-0.0956 -0.29477,-0.32661 -0.50189,-0.62933 -0.62137,-0.90815 -0.0399,-0.0319 -0.0558,-0.0637 -0.0478,-0.0956 l -0.19119,-0.28679 c -0.1673,-0.19118 -0.29476,-0.38237 -0.38238,-0.57357 l -0.23899,-0.28678 -0.19119,-0.33459 -0.19119,-0.33458 c -0.2151,-0.23898 -0.37442,-0.46204 -0.47797,-0.66917 l -0.0956,-0.0956 c -0.12747,-0.27881 -0.27086,-0.50187 -0.43018,-0.66917 l -0.0478,-0.0956 -0.0956,-0.14339 -0.43018,-0.66917 c -0.11153,-0.14338 -0.1912,-0.27084 -0.23898,-0.38238 -0.0399,-0.0319 -0.0558,-0.0637 -0.0478,-0.0956 l -0.0956,-0.0478 -0.19119,-0.33458 -0.0478,-0.0956 c -0.11154,-0.14338 -0.1912,-0.27084 -0.23899,-0.38238 -0.0717,-0.0797 -0.1195,-0.15931 -0.14339,-0.23899 l -0.19119,-0.19119 -0.19119,-0.28678 -0.0956,-0.23899 -0.0956,-0.0478 -0.19119,-0.33458 -0.43018,-0.62137 -0.0956,-0.19119 -0.0956,-0.19119 -0.14339,-0.14339 -0.0956,-0.14339 -0.0478,-0.1434 c -0.15933,-0.17524 -0.28679,-0.33457 -0.38238,-0.47797 l -0.0956,-0.19119 c -0.13544,-0.18321 -0.23103,-0.34254 -0.28679,-0.47798 -0.0558,-0.0318 -0.0876,-0.0637 -0.0956,-0.0956 l -0.0956,-0.0956 -0.0478,-0.0956 -0.19119,-0.33458 -0.43017,-0.62137 0,12.23616 -0.62137,0 -0.19119,0 -0.86036,0 -0.19119,0 -0.19119,0 -0.19119,0 -0.81255,0 -0.1434,0 -0.57357,0 0,-0.14339 0,-0.19119 0,-0.14339 0,-0.19119 0,-0.86036 0,-0.38238 0,-0.38238 0,-0.14339 0,-0.95595 0,-0.19119 0,-0.23899 0,-0.19119 0,-0.23899 0,-0.62136 0,-0.19119 0,-0.81256 0,-0.14339 0,-0.57357 0,-0.19119 0,-0.23899 0,-0.62137 0,-0.19119 0,-0.81256 0,-0.14339 0,-0.57357 0,-0.33458 0,-0.38238 0,-0.38238 0,-0.38238 0,-0.1434 0,-0.14339 0,-1.48172 0,-0.33459 0,-0.28678 0,-0.33458 0,-0.28679 0,-0.23899 0,-0.28678 0,-0.19119 0,-0.86036 0,-0.52577 0,-0.19119 0,-0.19119 0,-0.19119 0,-0.19119 0,-0.81256 0,-0.14339 0,-0.57357 z" />
      <path
         id="path3621"
         d="m 156.93628,442.49114 0.19119,0 0.14339,0 0.19119,0 0.86036,0 0.19119,0 0.86035,0 0.28679,0 0.33458,0 0.95595,0 0.38238,0 0.38238,0 0.38238,0 0.38238,0 0.95595,0 0.1434,0 0.14339,0 1.48172,0 0.33459,0 0.28678,0 0.33458,0 0.28679,0 0.23899,0 0.28678,0 0.19119,0 0.86036,0 0.52577,0 0.19119,0 0.19119,0 0.19119,0 0.19119,0 0.81256,0 0.14339,0 0.57357,0 0,3.63261 -0.28678,0 -0.1434,0 -0.95595,0 -0.62137,0 -0.19119,0 -0.86035,0 -0.19119,0 -0.19119,0 -0.19119,0 -0.81256,0 -0.14339,0 -0.57357,0 0,14.67384 -0.62137,0 -0.19119,0 -0.86036,0 -0.19119,0 -0.19119,0 -0.19119,0 -0.81255,0 -0.1434,0 -0.57357,0 0,-0.33458 0,-0.14339 0,-0.23899 0,-0.14339 0,-0.19119 0,-0.1434 0,-0.95595 0,-0.19119 0,-0.86035 0,-0.28679 0,-0.33458 0,-0.95595 0,-0.38238 0,-0.38238 0,-0.38238 0,-0.38238 0,-0.95595 0,-0.14339 0,-0.1434 0,-1.48172 0,-0.33458 0,-0.28679 0,-0.33458 0,-0.28679 0,-0.23898 0,-0.28679 0,-0.19119 0,-0.86035 0,-0.52578 0,-0.19119 0,-0.19119 0,-0.19119 0,-0.19119 0,-0.81256 0,-0.14339 0,-0.57357 -0.28678,0 -0.14339,0 -0.95595,0 -0.62137,0 -0.19119,0 -0.86036,0 -0.19119,0 -0.19119,0 -0.19119,0 -0.81256,0 -0.14339,0 -0.57357,0 0,-0.95595 0,-0.23899 0,-0.14339 0,-0.19119 0,-0.19119 0,-0.19119 0,-0.19119 0,-0.81256 0,-0.14339 0,-0.57357 z" />
      <path
         id="path3623"
         d="m 181.12183,442.06096 c 5.40907,0.0399 8.49998,2.81211 9.27272,8.31677 0.34253,4.93909 -1.39411,8.31678 -5.20993,10.13308 -3.68838,1.33833 -6.82709,0.81256 -9.41611,-1.57732 -2.75633,-3.10683 -3.52109,-6.67571 -2.29428,-10.70665 1.33832,-3.83175 3.88752,-5.88704 7.6476,-6.16588 z m 0.0956,3.63261 c -3.05905,0.58156 -4.46111,2.81211 -4.20619,6.69166 0.11949,2.29429 1.05951,3.9194 2.82006,4.87535 l 0.14339,0 c 0.15135,0.0876 0.29474,0.13543 0.43018,0.14339 l 0.0956,0.0478 0.57357,0.14339 c 3.36175,-0.0319 5.11432,-1.75257 5.25773,-5.16214 0.29474,-4.38142 -1.41004,-6.6279 -5.11433,-6.73945 z" />
    </g>
  </g>
</svg>
