<?xml version="1.0" encoding="UTF-8" standalone="no"?>
<!-- Created with Inkscape (http://www.inkscape.org/) -->

<svg
   xmlns:dc="http://purl.org/dc/elements/1.1/"
   xmlns:cc="http://creativecommons.org/ns#"
   xmlns:rdf="http://www.w3.org/1999/02/22-rdf-syntax-ns#"
   xmlns:svg="http://www.w3.org/2000/svg"
   xmlns="http://www.w3.org/2000/svg"
   xmlns:sodipodi="http://sodipodi.sourceforge.net/DTD/sodipodi-0.dtd"
   xmlns:inkscape="http://www.inkscape.org/namespaces/inkscape"
   id="svg2"
   version="1.1"
   inkscape:version="0.47 r22583"
   width="632.91913"
   height="397.47205"
   sodipodi:docname="Italian traffic signs - inizio provincia.svg">
  <metadata
     id="metadata8">
    <rdf:RDF>
      <cc:Work
         rdf:about="">
        <dc:format>image/svg+xml</dc:format>
        <dc:type
           rdf:resource="http://purl.org/dc/dcmitype/StillImage" />
        <dc:title />
      </cc:Work>
    </rdf:RDF>
  </metadata>
  <defs
     id="defs6">
    <inkscape:perspective
       sodipodi:type="inkscape:persp3d"
       inkscape:vp_x="0 : 0.5 : 1"
       inkscape:vp_y="0 : 1000 : 0"
       inkscape:vp_z="1 : 0.5 : 1"
       inkscape:persp3d-origin="0.5 : 0.33333333 : 1"
       id="perspective10" />
    <inkscape:perspective
       id="perspective3674"
       inkscape:persp3d-origin="0.5 : 0.33333333 : 1"
       inkscape:vp_z="1 : 0.5 : 1"
       inkscape:vp_y="0 : 1000 : 0"
       inkscape:vp_x="0 : 0.5 : 1"
       sodipodi:type="inkscape:persp3d" />
    <inkscape:perspective
       id="perspective2826"
       inkscape:persp3d-origin="0.5 : 0.33333333 : 1"
       inkscape:vp_z="1 : 0.5 : 1"
       inkscape:vp_y="0 : 1000 : 0"
       inkscape:vp_x="0 : 0.5 : 1"
       sodipodi:type="inkscape:persp3d" />
  </defs>
  <sodipodi:namedview
     pagecolor="#ffffff"
     bordercolor="#666666"
     borderopacity="1"
     objecttolerance="10"
     gridtolerance="10"
     guidetolerance="10"
     inkscape:pageopacity="0"
     inkscape:pageshadow="2"
     inkscape:window-width="1600"
     inkscape:window-height="838"
     id="namedview4"
     showgrid="false"
     inkscape:zoom="1.3658099"
     inkscape:cx="400.98191"
     inkscape:cy="190.85182"
     inkscape:window-x="-8"
     inkscape:window-y="-8"
     inkscape:window-maximized="1"
     inkscape:current-layer="svg2"
     showguides="true"
     inkscape:guide-bbox="true" />
  <path
     id="path3696"
     d="m 0.34212682,198.34212 632.23488318,0 0,198.78779 -632.23488318,0 0,-198.78779 z"
     style="fill:#00408c;fill-opacity:1;stroke:#000000;stroke-width:0.68425363;stroke-linecap:square;stroke-linejoin:miter;stroke-miterlimit:4;stroke-opacity:1;stroke-dashoffset:26.87999878" />
  <path
     id="path3698"
     d="m 26.839081,207.30998 577.746349,0 c 10.53914,0 19.02372,8.48461 19.02372,19.02376 l 0,142.80462 c 0,10.53911 -8.48458,19.02372 -19.02372,19.02372 l -577.746349,0 c -10.539144,0 -19.0237243,-8.48461 -19.0237243,-19.02372 l 0,-142.80462 c 0,-10.53915 8.4845803,-19.02376 19.0237243,-19.02376 z"
     style="fill:#00408c;fill-opacity:1;stroke:#ffffff;stroke-width:3.42126799;stroke-linecap:square;stroke-linejoin:miter;stroke-miterlimit:4;stroke-opacity:1;stroke-dashoffset:26.87999878" />
  <path
     style="fill:#00408c;fill-opacity:1;stroke:#000000;stroke-width:0.68425363;stroke-linecap:square;stroke-linejoin:miter;stroke-miterlimit:4;stroke-opacity:1;stroke-dashoffset:26.87999878"
     d="m 0.34212682,0.34212682 632.23488318,0 0,198.78778318 -632.23488318,0 0,-198.78778318 z"
     id="rect2818" />
  <path
     style="fill:#00408c;fill-opacity:1;stroke:#ffffff;stroke-width:3.42126799;stroke-linecap:square;stroke-linejoin:miter;stroke-miterlimit:4;stroke-opacity:1;stroke-dashoffset:26.87999878"
     d="m 26.839081,9.3099889 577.746349,0 c 10.53914,0 19.02372,8.4846081 19.02372,19.0237561 l 0,142.804615 c 0,10.53911 -8.48458,19.02372 -19.02372,19.02372 l -577.746349,0 c -10.539144,0 -19.0237243,-8.48461 -19.0237243,-19.02372 l 0,-142.804615 c 0,-10.539148 8.4845803,-19.0237561 19.0237243,-19.0237561 z"
     id="rect3592" />
  <g
     style="font-size:88.82065582px;font-style:normal;font-variant:normal;font-weight:normal;font-stretch:normal;text-align:start;line-height:100%;writing-mode:lr-tb;text-anchor:start;fill:#ffffff;fill-opacity:1;stroke:none;font-family:Transport Heavy;-inkscape-font-specification:'Transport Heavy,'"
     id="text3647"
     transform="translate(4.4665112e-6,-3.5363489e-5)">
    <path
       d="m 92.801782,62.717183 1.387823,0 0.520433,0 0.520434,0 5.377808,0 1.21435,0 1.04087,0 1.21434,0 1.04087,0 0.86739,0 1.04087,0 0.69391,0 3.1226,0 1.90825,0 0.69392,0 0.69391,0 0.69391,0 0.69391,0 2.94912,0 0.52044,0 2.08173,0 0.52043,0 0.34696,0.173477 0.52043,0 1.21435,0.173478 0.52043,0.173478 2.42869,0.520434 c 10.84231,5.204405 15.41056,13.415681 13.70475,24.633853 -3.87439,13.271097 -12.72175,19.053677 -26.54211,17.347787 l -0.69391,0 -1.90826,0 -0.86739,0 -0.52043,0 -0.69391,0 -0.52043,0 -3.46956,0 0,23.24603 -2.25521,0 -0.69391,0 -3.122606,0 -0.693911,0 -0.693912,0 -0.693911,0 -2.949123,0 -0.520434,0 -2.081734,0 0,-0.52043 0,-0.69392 0,-0.52043 0,-0.69391 0,-3.1226 0,-1.38783 0,-1.38782 0,-0.52043 0,-3.46956 0,-0.69391 0,-0.86739 0,-0.69391 0,-0.86739 0,-2.25521 0,-0.69391 0,-2.94913 0,-0.52043 0,-2.08173 0,-0.69392 0,-0.86738 0,-2.25522 0,-0.69391 0,-2.949121 0,-0.520433 0,-2.081735 0,-1.214345 0,-1.387822 0,-1.387823 0,-1.387823 0,-0.520433 0,-0.520434 0,-5.377813 0,-1.214345 0,-1.040867 0,-1.214345 0,-1.040867 0,-0.867389 0,-1.040867 0,-0.693912 0,-3.122601 0,-1.908256 0,-0.693911 0,-0.693912 0,-0.693911 0,-0.693911 0,-2.949124 0,-0.520433 0,-2.081734 z m 12.316928,30.5321 0.69391,0 0.69391,0 0.69391,0 1.90826,0 1.90826,0 3.1226,0 0.52043,0 0.52043,0 0.69392,0 3.1226,0 0.69391,0 c 0.72278,-0.289084 1.35887,-0.462562 1.90825,-0.520434 4.82842,-2.862335 6.44755,-6.794496 4.85738,-11.796493 -1.06982,-2.486456 -2.74677,-4.221232 -5.03085,-5.204335 l -0.52044,0 c -1.79264,-0.52037 -3.41177,-0.693848 -4.85738,-0.520434 l -0.86739,0 -0.69391,0 -0.86739,0 -2.25521,0 -0.69391,0 -2.94912,0 -0.52044,0 -2.08173,0 z"
       id="path3797" />
    <path
       d="m 179.02027,61.155882 c 19.63185,0.144642 30.85008,10.206347 33.6547,30.185145 1.24319,17.926073 -5.05983,30.185163 -18.90908,36.777303 -13.38675,4.85738 -24.77845,2.94913 -34.17514,-5.72477 -10.00389,-11.27603 -12.77954,-24.229031 -8.32693,-38.859036 4.85736,-13.907072 14.1095,-21.366612 27.75645,-22.378642 z m 0.34696,13.184316 c -11.10261,2.110709 -16.19129,10.206334 -15.26605,24.286898 0.43367,8.326964 3.8454,14.225214 10.23519,17.694744 l 0.52043,0 c 0.54932,0.31806 1.06975,0.49154 1.5613,0.52043 l 0.34696,0.17348 2.08173,0.52043 c 12.20123,-0.11563 18.56208,-6.36083 19.08257,-18.735606 1.06972,-15.90208 -5.11765,-24.05553 -18.56213,-24.460376 z"
       id="path3799" />
    <path
       d="m 220.82843,62.717183 0.69391,0 0.52044,0 0.69391,0 3.1226,0 0.69391,0 3.1226,0 1.04087,0 1.21435,0 3.46955,0 1.38782,0 1.38783,0 1.38782,0 1.38782,0 3.46956,0 0.52043,0 0.52044,0 5.37781,0 1.21435,0 1.04086,0 1.21435,0 1.04086,0 0.86739,0 1.04087,0 0.69391,0 3.1226,0 1.90826,0 0.69391,0 0.69391,0 0.69391,0 0.69391,0 2.94913,0 0.52043,0 2.08174,0 0,13.184316 -1.04087,0 -0.52043,0 -3.46956,0 -2.25521,0 -0.69392,0 -3.1226,0 -0.69391,0 -0.69391,0 -0.69391,0 -2.94912,0 -0.52044,0 -2.08173,0 0,53.257701 -2.25521,0 -0.69391,0 -3.12261,0 -0.69391,0 -0.69391,0 -0.69391,0 -2.94912,0 -0.52044,0 -2.08173,0 0,-1.21435 0,-0.52043 0,-0.86739 0,-0.52043 0,-0.69392 0,-0.52043 0,-3.46956 0,-0.69391 0,-3.1226 0,-1.04087 0,-1.21434 0,-3.46956 0,-1.38782 0,-1.38782 0,-1.38783 0,-1.38782 0,-3.46956 0,-0.52043 0,-0.52043 0,-5.377816 0,-1.214345 0,-1.040867 0,-1.214345 0,-1.040867 0,-0.867389 0,-1.040867 0,-0.693911 0,-3.122602 0,-1.908256 0,-0.693911 0,-0.693912 0,-0.693911 0,-0.693911 0,-2.949124 0,-0.520433 0,-2.081734 -1.04087,0 -0.52043,0 -3.46956,0 -2.25521,0 -0.69391,0 -3.1226,0 -0.69391,0 -0.69392,0 -0.69391,0 -2.94912,0 -0.52043,0 -2.08174,0 0,-3.469557 0,-0.867389 0,-0.520434 0,-0.693911 0,-0.693912 0,-0.693911 0,-0.693911 0,-2.949124 0,-0.520433 0,-2.081734 z"
       id="path3801" />
    <path
       d="m 284.32132,62.89066 0.69392,0 2.94912,0 0.52043,0 2.08174,0 3.46955,0 0.69391,0 3.12261,0 0.52043,0 0.52043,0 5.37782,0 2.94912,0 1.38782,0 1.21435,0 0.69391,0 0.52043,0 3.46956,0 0.69391,0 0.52043,0 3.1226,0 2.25522,0 0.69391,0 2.94912,0 0.52043,0 2.08174,0 0,13.184316 -3.46956,0 -1.04087,0 -2.94912,0 -0.52043,0 -2.08174,0 -2.25521,0 -0.69391,0 -2.94912,0 -0.52044,0 -2.08173,0 -1.90826,0 -0.86739,0 -2.25521,0 -0.69391,0 -2.94912,0 -0.52044,0 -2.08173,0 0,13.357794 0.52043,0 3.46956,0 2.25521,0 0.69391,0 3.1226,0 0.69392,0 0.69391,0 0.69391,0 2.94912,0 1.38782,0 1.21435,0 0.86739,0 2.25521,0 0.69391,0 2.94913,0 0.52043,0 2.08173,0 0,12.31693 -2.42869,0 -0.52043,0 -0.86739,0 -0.52043,0 -0.69391,0 -0.52044,0 -3.46955,0 -2.25522,0 -1.21434,0 -2.42869,0 -0.52043,0 -3.12261,0 -2.25521,0 -0.69391,0 -2.94912,0 -0.52044,0 -2.08173,0 0,13.87822 c 0.23128,0.49155 0.63606,0.66503 1.21434,0.52044 l 1.38783,0 3.46955,0 1.04087,0 2.94912,0 0.52044,0 2.08173,0 2.25521,0 0.69392,0 2.94912,0 0.52043,0 2.08174,0 1.90825,0 0.86739,0 2.25521,0 0.69392,0 2.94912,0 0.52043,0 2.08174,0 0,13.18431 -0.52044,0 -0.69391,0 -2.94912,0 -0.52044,0 -2.08173,0 -3.46956,0 -1.38782,0 -1.38782,0 -1.38782,0 -1.38783,0 -3.46955,0 -0.52044,0 -0.52043,0 -5.37781,0 -1.21435,0 -1.04087,0 -1.21434,0 -1.04087,0 -0.86739,0 -1.04086,0 -0.69392,0 -3.1226,0 -1.90825,0 -0.69391,0 -0.69392,0 -0.69391,0 -0.69391,0 -2.94912,0 -0.52044,0 -2.08173,0 0,-0.69391 0,-3.1226 0,-1.38782 0,-1.38782 0,-0.52044 0,-0.69391 0,-3.1226 0,-0.52043 0,-3.46956 0,-1.38782 0,-0.69391 0,-3.12261 0,-0.52043 0,-0.52043 0,-5.37782 0,-1.21434 0,-0.52043 0,-0.69392 0,-3.122597 0,-2.428689 0,-0.520434 0,-0.867389 0,-0.520434 0,-0.693911 0,-0.520434 0,-3.469556 0,-2.949124 0,-0.520433 0,-2.081734 0,-2.255212 0,-0.693912 0,-2.949123 0,-0.520434 0,-2.081734 0,-1.908256 0,-0.867389 0,-2.255212 0,-0.693912 0,-2.949123 0,-0.520434 0,-2.081734 z"
       id="path3803" />
    <path
       d="m 348.68159,62.717183 2.42868,0 0.86739,0 0.69392,0 3.1226,0 0.69391,0 0.69391,0 0.69391,0 2.94912,0 0.52044,0 2.08173,0 0.69391,1.214344 0.69391,1.040867 0.69392,1.040868 0.69391,1.040867 0.69391,1.040867 0.52043,0.520433 0.17348,0.520434 c 0.14453,0.115721 0.20236,0.231373 0.17348,0.346955 0.83844,0.896371 1.4167,1.763759 1.73478,2.602168 0.83844,0.896368 1.4167,1.763756 1.73477,2.602168 l 0.69392,0.867389 0.69391,1.040867 c 0.318,0.520495 0.60713,0.925276 0.86739,1.214345 l 0.17347,0.520433 c 0.43366,0.462668 0.72279,0.925275 0.86739,1.387823 1.15648,1.301142 1.96605,2.515485 2.42869,3.643035 l 0.69391,1.040867 c 0.14453,0.115706 0.20236,0.231358 0.17348,0.346956 0.86735,0.983094 1.50344,1.850482 1.90826,2.602167 l 0.69391,1.040867 0.52043,1.040867 0.69392,1.040867 0.69391,0.693912 0.52043,0.867389 0.34696,0.867389 c 0.75169,0.751783 1.27212,1.503519 1.5613,2.255212 l 0.52043,0.693912 0.34696,0.693911 0.52043,0.520434 c 0.5493,0.809604 0.95408,1.503514 1.21434,2.081734 l 0.52044,0.520433 0.34695,0.520437 0.17348,0.52043 0.34696,0.17348 c 0.37581,0.83851 0.7806,1.4746 1.21434,1.90825 l 0.17348,0.52044 c 0.14451,0.11568 0.20234,0.23134 0.17348,0.34695 1.06972,1.18547 1.82146,2.28416 2.25521,3.29608 l 0.17348,-1.21434 0,-1.21435 0,-1.38782 0,-0.69391 0,-3.122603 0,-1.908256 0,-0.693911 0,-0.693912 0,-0.693911 0,-0.693911 0,-2.949124 0,-0.520433 0,-2.081734 0,-1.040867 0,-2.949124 0,-0.520433 0,-2.081734 0,-2.255212 0,-0.693912 0,-2.949123 0,-0.520434 0,-2.081734 0,-1.908256 0,-0.867389 0,-2.255212 0,-0.693911 0,-2.949124 0,-0.520433 0,-2.081734 2.25521,0 0.69391,0 3.1226,0 0.69391,0 0.69391,0 0.69392,0 2.94912,0 0.52043,0 2.08174,0 0,66.268537 -0.52044,0 -2.08173,0 -1.73478,0 -1.21434,0 -1.04087,0 -0.86739,0 -0.69391,0 -0.69391,0 -0.69391,0 -0.52044,0 -0.52043,0 -0.52044,0 -0.34695,0 0.34695,0 -0.34695,0 -1.38782,0 -0.52044,0 -2.25521,0 -0.17348,-0.34696 c -0.40483,-0.52042 -0.69396,-0.98303 -0.86739,-1.38782 -0.14461,-0.11564 -0.20244,-0.23129 -0.17347,-0.34696 -1.06984,-1.18541 -1.82157,-2.28411 -2.25522,-3.29607 -0.14461,-0.11564 -0.20244,-0.23129 -0.17347,-0.34696 l -0.69392,-1.04087 c -0.60722,-0.69389 -1.06982,-1.3878 -1.38782,-2.08173 l -0.86739,-1.04087 -0.69391,-1.21434 -0.69391,-1.21435 c -0.78069,-0.86736 -1.35895,-1.67693 -1.73478,-2.42869 l -0.34695,-0.34695 c -0.46265,-1.01193 -0.98309,-1.82149 -1.5613,-2.42869 l -0.17348,-0.34696 -0.34696,-0.52043 -1.5613,-2.42869 c -0.40482,-0.52041 -0.69395,-0.98301 -0.86739,-1.38783 -0.1446,-0.11562 -0.20243,-0.23127 -0.17348,-0.34695 l -0.34695,-0.17348 -0.69391,-1.21434 -0.17348,-0.34696 c -0.40482,-0.5204 -0.69395,-0.98301 -0.86739,-1.38782 -0.26025,-0.2891 -0.43373,-0.57823 -0.52043,-0.86739 l -0.69391,-0.69391 -0.69392,-1.04087 -0.34695,-0.867389 -0.34696,-0.173478 -0.69391,-1.214345 -1.5613,-2.255212 -0.34696,-0.693911 -0.34695,-0.693911 -0.52043,-0.520434 -0.34696,-0.520434 -0.17348,-0.520433 c -0.57829,-0.636039 -1.04089,-1.214298 -1.38782,-1.734778 l -0.34696,-0.693912 c -0.49154,-0.66495 -0.8385,-1.243209 -1.04086,-1.734778 -0.20242,-0.115603 -0.31807,-0.231254 -0.34696,-0.346956 l -0.34695,-0.346956 -0.17348,-0.346955 -0.69391,-1.214345 -1.5613,-2.255212 0,44.410329 -2.25522,0 -0.69391,0 -3.1226,0 -0.69391,0 -0.69391,0 -0.69391,0 -2.94913,0 -0.52043,0 -2.08173,0 0,-0.52043 0,-0.69392 0,-0.52043 0,-0.69391 0,-3.1226 0,-1.38783 0,-1.38782 0,-0.52043 0,-3.46956 0,-0.69391 0,-0.86739 0,-0.69391 0,-0.86739 0,-2.25521 0,-0.69391 0,-2.94913 0,-0.52043 0,-2.08173 0,-0.69392 0,-0.86738 0,-2.25522 0,-0.69391 0,-2.949121 0,-0.520433 0,-2.081735 0,-1.214345 0,-1.387822 0,-1.387823 0,-1.387823 0,-0.520433 0,-0.520434 0,-5.377813 0,-1.214345 0,-1.040867 0,-1.214345 0,-1.040867 0,-0.867389 0,-1.040867 0,-0.693912 0,-3.122601 0,-1.908256 0,-0.693911 0,-0.693912 0,-0.693911 0,-0.693911 0,-2.949124 0,-0.520433 0,-2.081734 z"
       id="path3805" />
    <path
       d="m 421.54228,63.064138 3.46956,0 1.04086,0 1.21435,0 3.46955,0 1.38783,0 1.38782,0 1.38782,0 1.38783,0 3.46955,0 0.52044,0 0.52043,0 5.37781,0 1.21435,0 1.04086,0 1.21435,0 1.04087,0 0.86739,0 1.04086,0 0.69391,0 3.12261,0 1.90825,0 0.69391,0 0.69391,0 0.69392,0 0.69391,0 2.94912,0 0.52043,0 2.08174,0 0,13.878228 -0.86739,0.867389 -0.69391,0.867389 -0.69391,1.214345 -0.69392,0.867389 -0.86738,1.040867 c -0.1157,0.202448 -0.23135,0.3181 -0.34696,0.346956 l -0.17348,0.520434 -0.34695,0.173477 -0.17348,0.520434 -0.52044,0.346956 c -0.5783,1.098746 -1.27221,2.023961 -2.08173,2.775645 l -0.69391,1.214345 c -0.40482,0.375919 -0.69395,0.722875 -0.86739,1.040867 l -0.86739,1.040867 -0.69391,1.040867 -0.86739,1.040867 c -0.63612,0.954174 -1.21438,1.705911 -1.73478,2.255212 l -0.34695,0.693912 -0.34696,0.346955 -0.34696,0.520434 -1.38782,1.5613 -0.17348,0.346956 -0.17347,0.346956 c -0.46264,0.49156 -0.8096,0.954168 -1.04087,1.387822 l -0.86739,0.867393 -0.52043,0.69391 -0.52044,0.86739 -0.52043,0.69391 -0.69391,0.86739 -0.52044,0.69391 -1.04086,1.38782 c -0.40481,0.52047 -0.75177,0.92525 -1.04087,1.21435 l -0.52043,0.86739 -0.52044,0.52043 -0.34695,0.69391 -0.69391,0.69391 -0.34696,0.52044 c -0.40481,0.63611 -0.80959,1.15654 -1.21434,1.5613 l -0.34696,0.69391 -0.34696,0.17348 -0.17347,0.52043 -0.34696,0.17348 -0.17348,0.34695 -1.73478,2.25521 1.38783,0 0.69391,0 3.1226,0 2.94912,0 0.52044,0 2.08173,0 2.25521,0 0.69391,0 2.94913,0 0.52043,0 2.08174,0 1.90825,0 0.86739,0 2.25521,0 0.69391,0 2.94913,0 0.52043,0 2.08174,0 0,12.31693 c 0.17342,0.80957 -0.0579,1.27218 -0.69392,1.38782 l -1.21434,0 -1.21435,0 -1.21434,0 -0.52043,0 -0.52044,0 -2.25521,0 -0.52043,0 -0.86739,0 -0.52044,0 -0.69391,0 -0.52043,0 -3.46956,0 -1.38782,0 -2.42869,0 -0.52043,0 -0.86739,0 -0.52044,0 -0.69391,0 -0.52043,0 -3.46956,0 -2.94912,0 -0.52044,0 -2.08173,0 -0.69391,0 -0.52043,0 -3.46956,0 -0.69391,0 -0.52044,0 -3.1226,0 -2.25521,0 -0.69391,0 -2.94912,0 -0.52044,0 -2.08173,0 0,-0.52043 0,-2.25521 0,-2.94912 0,-1.90826 0,-0.69391 0,-2.94913 0,-0.52043 0,-2.08173 0.86739,-0.86739 0.69391,-1.21435 0.52043,-0.69391 0.34696,-0.52043 0.34695,-0.17348 0.17348,-0.52043 0.34696,-0.34696 0.34695,-0.34695 c 0.66499,-1.01193 1.30108,-1.82149 1.90826,-2.42869 l 0.69391,-1.21435 0.34696,-0.17348 c 0.72281,-1.15648 1.41672,-2.0817 2.08173,-2.77564 l 0.34696,-0.69391 0.34695,-0.34696 0.34696,-0.52043 0.34695,-0.34696 c 0.11564,-0.20235 0.23129,-0.31801 0.34696,-0.34695 l 2.08173,-2.949128 0.86739,-0.867389 0.17348,-0.520434 0.52043,-0.346956 0.17348,-0.346955 0.69391,-1.040867 1.90826,-2.42869 0.69391,-1.040867 0.52043,-0.693912 1.73478,-2.081734 0.17348,-0.520433 0.34696,-0.173478 0.17347,-0.346956 1.38783,-1.908256 c 0.46258,-0.491468 0.80953,-0.954075 1.04086,-1.387823 0.52041,-0.607118 0.92519,-1.127551 1.21435,-1.5613 l 0.34695,-0.520434 0.52044,-0.693911 0.52043,-0.346956 0.17348,-0.520434 0.34695,-0.346955 0.34696,-0.520434 0.17348,-0.346955 0.34695,-0.173478 0.34696,-0.693912 0.34696,-0.346955 0.17347,-0.346956 0.34696,-0.173478 c 0.43366,-0.809502 0.83844,-1.445587 1.21434,-1.908256 l -1.21434,0 -2.42869,0 -0.52043,0 -0.86739,0 -0.52044,0 -0.69391,0 -0.52043,0 -3.46956,0 -2.25521,0 -1.21435,0 -2.42869,0 -0.52043,0 -3.1226,0 -2.25521,0 -0.69391,0 -2.94913,0 -0.52043,0 -2.08173,0 0,-2.255212 0,-0.693911 0,-3.122602 0,-0.693911 0,-0.693911 0,-0.693912 0,-2.949123 0,-0.520434 0,-2.081734 z"
       id="path3807" />
    <path
       d="m 498.39298,62.89066 2.25521,0 5.37781,0 2.42869,0 0.52043,0 0.86739,0 0.52044,0 0.69391,0 0.52043,0 3.46956,0 0,0.520434 c 0.49148,1.040941 0.83843,1.966155 1.04087,2.775645 l 0.34695,1.214345 0.17348,0.693912 c 0.11561,0.173548 0.17343,0.347026 0.17348,0.520433 0.1156,0.173548 0.17343,0.347026 0.17347,0.520434 0.11561,0.173547 0.17344,0.347025 0.17348,0.520433 0.28909,0.462676 0.46257,0.925283 0.52044,1.387823 l 1.04086,2.775646 0,0.520433 c 0.5493,1.069843 0.89626,2.052883 1.04087,2.949123 0.5493,1.272231 0.89625,2.370923 1.04087,3.296079 0.17343,0.347014 0.28908,0.693969 0.34695,1.040867 l 0.34696,0.693912 c 0.17343,0.578315 0.34691,1.040922 0.52043,1.387823 l 0,0.520433 c 0.1156,0.173532 0.17343,0.34701 0.17348,0.520434 0.28908,0.462661 0.46256,0.925268 0.52043,1.387822 l 1.04087,2.775646 0.17348,0.693911 0.17348,0.346956 0.34695,1.561301 0.34696,0.693911 0.34695,0.867389 0.17348,0.520434 0.17348,0.693911 0.34695,1.040867 c 0.17343,0.578302 0.34691,1.040909 0.52044,1.387823 l 0,0.520433 c 0.1156,0.173519 0.17342,0.346997 0.17348,0.520434 0.28907,0.462648 0.46255,0.925255 0.52043,1.387823 l 1.04087,2.77565 0.17347,1.04086 0.52044,1.04087 0.34695,1.04087 0,0.52043 0.34696,0.52043 0.17348,0.69391 0.17348,0.86739 c 0.89624,2.05285 1.4745,3.78763 1.73477,5.20434 0.1156,0.1735 0.17342,0.34698 0.17348,0.52043 0.89624,2.05285 1.4745,3.78762 1.73478,5.20434 l 0.34696,0.52043 0.17347,0.69391 0.17348,0.69391 0.17348,0.52044 0.17348,0.69391 c 0.11559,0.17349 0.17341,0.34697 0.17347,0.52043 0.11559,0.1735 0.17342,0.34697 0.17348,0.52044 0.11559,0.17349 0.17342,0.34697 0.17348,0.52043 l 0.34696,0.52043 0,0.52044 c 0.11559,0.17349 0.17341,0.34697 0.17347,0.52043 0.28907,0.46262 0.46255,0.92523 0.52044,1.38782 0.3758,0.8674 0.60711,1.56131 0.69391,2.08174 l 0.34695,1.04086 -1.04086,0 -0.69391,0 -3.1226,0 -1.90826,0 -0.69391,0 -0.69391,0 -0.69392,0 -0.69391,0 -2.94912,0 -0.52043,0 -2.08174,0 -0.34695,-1.04086 0,-0.69391 -0.34696,-0.52044 0,-0.52043 c -0.347,-0.63607 -0.52048,-1.21433 -0.52043,-1.73478 l -0.34696,-0.52043 0,-0.52044 -0.17348,-0.69391 -0.52043,-1.21434 -1.21434,-4.33695 -3.12261,0 -3.46955,0 -1.21435,0 -1.04086,0 -0.86739,0 -1.04087,0 -0.69391,0 -3.1226,0 -1.90826,0 -0.69391,0 -0.69391,0 -0.69391,0 -0.69392,0 -2.94912,0 -0.52043,0 -2.08174,0 -0.17347,0.86739 -0.17348,0.86739 -0.34696,0.69391 c -0.14458,0.6361 -0.31806,1.21436 -0.52043,1.73478 l -0.17348,0.86739 -0.17348,0.34695 -0.52043,1.73478 -0.17348,0.69391 -0.17348,0.52044 c -0.20241,0.60718 -0.37588,1.06979 -0.52043,1.38782 l -0.52043,2.08173 -0.69391,0 -0.69392,0 -0.52043,0 -3.46956,0 -0.52043,0 -3.1226,0 -0.52043,0 -5.37782,0 0.34696,-1.38782 0.52043,-1.73478 0.17348,-0.52043 0.17348,-0.52043 0.17348,-0.52044 0.17347,-0.34695 0.86739,-2.77565 0.17348,-0.52043 0.17348,-0.52044 0.17348,-0.69391 0.34695,-0.69391 0.52043,-1.90825 0.17348,-0.52044 0.17348,-0.52043 0.17348,-0.52044 0.17348,-0.34695 c 0.34694,-1.32997 0.6939,-2.37084 1.04086,-3.1226 l 0.34696,-1.21435 0.17348,-0.34695 c 0.34694,-1.32997 0.6939,-2.37084 1.04086,-3.1226 0.14456,-0.57823 0.31804,-1.04084 0.52044,-1.38783 l 0.34695,-1.38782 0.52044,-1.21434 0.34695,-1.38783 0.17348,-0.34695 c 0.34694,-1.32996 0.6939,-2.370827 1.04087,-3.122604 l 0.34695,-1.387823 1.38783,-3.816512 0.34695,-1.214345 0.17348,-0.520434 0.17348,-0.520433 c 0.34694,-1.098645 0.69389,-2.023859 1.04086,-2.775646 l 0.34696,-1.040867 0.17348,-0.520433 0,-0.520434 0.17348,-0.520433 1.21434,-3.122601 0.17348,-1.040868 0.34695,-0.867389 0.34696,-0.693911 c 0.23128,-1.098633 0.52041,-2.023848 0.86739,-2.775646 l 0.17348,-0.867389 0.17347,-0.520433 0.17348,-0.346956 c 0.34694,-1.329932 0.69389,-2.370798 1.04087,-3.122601 l 0.17348,-0.693912 0.17348,-0.693911 c 0.31802,-0.66493 0.54932,-1.301015 0.69391,-1.908256 l 0.52043,-1.734779 0.17348,-0.520433 1.38782,-3.989991 z m 7.45954,15.266051 -0.52043,1.908256 -0.17348,0.346956 -0.86739,3.122601 -1.04086,2.949123 -0.17348,0.346956 -1.04087,3.816512 -0.17348,0.693912 -1.04086,2.949123 -0.34696,0.867389 c -0.11568,0.925258 -0.34698,1.73482 -0.69391,2.42869 -0.0868,0.665039 -0.26025,1.301124 -0.52044,1.908256 l -0.17347,0.693915 c -0.23133,0.69395 -0.46264,1.2722 -0.69391,1.73478 l -1.04087,3.81651 0.52043,0 0.69391,0 0.69391,0 0.69392,0 0.69391,0 2.94912,0 0.52043,0 2.08174,0 0.69391,0 1.90826,0 0.86739,0 0.52043,0 0.69391,0 0.52043,0 3.46956,0 -0.34695,-1.38783 -1.04087,-3.29607 -0.86739,-2.949127 c -0.43374,-1.098652 -0.72286,-2.023866 -0.86739,-2.775646 l -0.17348,-0.346956 c -0.23134,-0.838431 -0.46264,-1.532342 -0.69391,-2.081734 l -0.17348,-0.693911 -0.17348,-0.693911 -0.34695,-0.86739 -0.17348,-1.040867 -0.17348,-0.693911 -0.34695,-0.520434 -0.17348,-1.040867 -0.17348,-0.693911 c -0.17351,-0.346903 -0.28916,-0.693859 -0.34695,-1.040867 l -0.17348,-0.693912 c -0.43373,-0.867334 -0.72286,-1.676897 -0.86739,-2.428689 l -0.17348,-0.520434 -0.17348,-0.346956 -0.34695,-1.5613 -0.17348,-0.520434 -0.86739,-2.255212 z"
       id="path3809" />
  </g>
  <path
     style="fill:#ff0000;fill-opacity:1;stroke:none"
     d="M 9.5763038,364.74039 569.48087,209.04831 c 23.1978,0.84092 55.80623,-8.89788 52.51519,23.47737 L 53.133017,386.67321 C 19.21105,389.49495 8.3418786,385.12844 9.5763038,364.74039 z"
     id="path3722"
     sodipodi:nodetypes="ccccc" />
  <g
     style="font-size:88.82065582px;font-style:normal;font-variant:normal;font-weight:normal;font-stretch:normal;text-align:start;line-height:100%;writing-mode:lr-tb;text-anchor:start;fill:#ffffff;fill-opacity:1;stroke:none;font-family:Transport Heavy;-inkscape-font-specification:'Transport Heavy,'"
     id="text3700"
     transform="translate(4.4665112e-6,-3.5363489e-5)">
    <path
       d="m 111.93439,260.89066 0.52044,0 3.46955,0 0.69391,0 0.52044,0 3.1226,0 2.25521,0 0.69391,0 2.94913,0 0.52043,0 2.08173,0 0.69391,1.04087 0.34696,0.52043 0.34696,0.52043 0.69391,1.04087 c 0.89627,1.04094 1.53235,1.96615 1.90825,2.77565 0.26019,0.2892 0.43367,0.57833 0.52044,0.86739 l 0.52043,0.69391 0.69391,0.69391 0.34696,0.69391 0.52043,0.86739 0.34696,0.34696 0.17348,0.52043 c 0.60713,0.57832 1.06974,1.15658 1.38782,1.73478 l 0.34695,0.69391 0.69391,0.69391 0.52044,0.86739 0.17348,0.52043 c 0.60713,0.63615 1.06974,1.21441 1.38782,1.73478 l 0.17348,0.34696 c 0.40474,0.52049 0.69387,0.9831 0.86739,1.38782 l 0.34695,0.34696 0.69391,1.21434 0.34696,0.17348 0.17348,0.52043 c 0.72278,0.83853 1.24321,1.59027 1.5613,2.25521 l 0.52043,-0.17347 0.17348,-0.52044 2.77564,-3.81651 0.52044,-0.86739 1.73478,-2.60217 c 0.66494,-0.78059 1.12755,-1.4745 1.38782,-2.08173 l 0.52043,-0.69391 0.52044,-0.52044 0.52043,-1.04086 0.52043,-0.34696 0.34696,-0.69391 c 0.37581,-0.69385 0.78059,-1.21428 1.21434,-1.5613 l 0.34696,-0.86739 c 0.46255,-0.63602 0.86733,-1.09862 1.21434,-1.38782 l 0.17348,-0.52044 0.34696,-0.52043 0.34695,-0.34696 0.17348,-0.52043 c 0.40473,-0.3758 0.69385,-0.72275 0.86739,-1.04087 l 0.34696,-0.52043 1.5613,-2.42869 0.52043,0 3.46956,0 2.25521,0 0.69391,0 3.1226,0 0.69391,0 0.69391,0 0.69392,0 2.94912,0 0.52043,0 2.08174,0 0,66.26854 -2.94913,0 -0.69391,0 -0.86739,0 -2.25521,0 -0.69391,0 -2.94912,0 -0.52044,0 -2.08173,0 c -0.69398,-0.11565 -0.92528,-0.52043 -0.69391,-1.21435 l 0,-0.52043 0,-0.69391 0,-2.94913 0,-0.52043 0,-2.08173 0,-3.46956 0,-1.21435 0,-1.04086 0,-0.69391 0,-0.52044 0,-0.86739 0,-0.52043 0,-0.69391 0,-0.52044 0,-3.46955 0,-5.37782 0,-1.04086 0,-2.94913 0,-1.04086 0,-0.69391 0,-0.52044 0,-3.46955 0,-0.69392 0,-2.94912 0,-2.42869 0,-0.52043 0,-0.52044 0,-1.38782 c 0.0578,-1.06972 -7e-5,-1.99494 -0.17348,-2.77564 l -0.86739,1.04086 c -0.20245,0.40484 -0.43376,0.75179 -0.69391,1.04087 -0.60724,1.06983 -1.18549,1.93722 -1.73478,2.60217 l -0.69391,1.04086 -0.69391,1.04087 -0.69391,1.04087 -2.08174,2.94912 -1.5613,2.42869 -0.52043,0.69391 c -0.57832,0.83852 -1.09875,1.47461 -1.5613,1.90826 l -0.34696,0.69391 c -0.75179,1.2433 -1.4457,2.22634 -2.08173,2.94912 l -0.34696,0.69392 -0.52043,0.52043 -0.17348,0.52043 c -0.57831,0.83851 -1.09874,1.4746 -1.5613,1.90826 -0.37592,0.80959 -0.72287,1.44568 -1.04087,1.90825 -1.09874,1.56134 -2.02395,2.71785 -2.77564,3.46956 -0.46265,-0.75171 -0.86744,-1.32997 -1.21435,-1.73478 l -0.17348,-0.52043 -0.52043,-0.52043 -0.34695,-0.52044 -0.17348,-0.52043 -0.52044,-0.69391 -0.69391,-1.04087 c -0.20243,-0.11562 -0.31808,-0.23127 -0.34695,-0.34696 -0.40482,-0.63605 -0.80961,-1.15648 -1.21435,-1.5613 l -0.52043,-1.04086 -0.69391,-1.04087 c -0.14461,-0.11561 -0.20243,-0.23127 -0.17348,-0.34696 -0.60721,-0.57822 -1.06982,-1.15648 -1.38782,-1.73477 -0.8096,-1.09866 -1.38786,-2.02387 -1.73478,-2.77565 l -0.69391,-0.86739 -0.52044,-0.69391 -0.34695,-0.69391 c -0.60721,-0.60713 -1.06981,-1.24321 -1.38783,-1.90826 l -0.52043,-0.52043 -0.86739,-1.5613 -0.52043,-0.52044 c -0.46264,-0.75168 -0.86742,-1.32994 -1.21435,-1.73477 l -0.17347,-0.52044 -0.52044,-0.52043 -0.17348,-0.52043 c -0.1735,-0.14452 -0.28915,-0.31799 -0.34695,-0.52044 -0.20242,-0.1156 -0.31807,-0.23125 -0.34696,-0.34695 -0.14459,-0.1156 -0.20241,-0.23125 -0.17347,-0.34696 l -2.25522,-2.94912 0,47.53293 -0.17347,0 0.17347,0 -0.34695,0 0.17348,0 -0.34696,0 0.17348,0 -0.34696,0 0.17348,0 -0.34696,0 0.17348,0 -0.34695,0 0.17347,0 -0.34695,0 0.17348,0 -0.34696,0 0.17348,0 -0.34696,0 0.17348,0 -0.34696,0 0.17348,0 -0.34695,0 0.17347,0 -0.34695,0 0.17348,0 -0.34696,0 0.17348,0 -0.34696,0 0.17348,0 -0.34695,0 0.17347,0 -0.34695,0 0.17348,0 -0.34696,0 0.17348,0 -0.34696,0 0.17348,0 -0.34696,0 0.17348,0 -0.34695,0 0.17347,0 -0.34695,0 0.17348,0 -0.34696,0 0.17348,0 -0.34696,0 0.17348,0 -0.34696,0 0.17348,0 -0.34695,0 0.17347,0 -0.34695,0 0.17348,0 -0.34696,0 0.17348,0 -0.34696,0 0.17348,0 -0.34695,0 0.17347,0 -0.34695,0 0.17348,0 -0.34696,0 0.17348,0 -0.34696,0 0.17348,0 -0.34696,0 0.17348,0 -0.34695,0 0.17347,0 -0.34695,0 0.17348,0 -0.34696,0 0.17348,0 -0.34696,0 0.17348,0 -0.34695,0 0.17347,0 -0.34695,0 0.17348,0 -0.34696,0 0.17348,0 -0.34696,0 0.17348,0 -0.34696,0 0.17348,0 -0.34695,0 0.17347,0 -0.34695,0 0.17348,0 -0.34696,0 0.17348,0 -0.34696,0 0.17348,0 -0.34696,0 0.17348,0 -0.34695,0 0.17347,0 -0.34695,0 0.17348,0 -0.34696,0 0.17348,0 -0.34696,0 0.17348,0 -0.34695,0 0.17347,0 -0.34695,0 0.17348,0 -0.34696,0 0.17348,0 -0.34696,0 0.17348,0 -0.34696,0 0.17348,0 -0.34695,0 0.17347,0 -0.34695,0 0.17348,0 -0.34696,0 0.17348,0 -0.34696,0 0.17348,0 -0.34696,0 0.17348,0 -0.34695,0 0.17347,0 -0.34695,0 0.17348,0 -0.34696,0 0.17348,0 -0.34696,0 0.17348,0 -0.34695,0 0.17347,0 -0.34695,0 0.17348,0 -0.34696,0 0.17348,0 -0.34696,0 0.17348,0 -0.34696,0 0.17348,0 -0.34695,0 0.17347,0 -0.34695,0 0.17348,0 -0.34696,0 0.17348,0 -0.34696,0 0.17348,0 -0.34696,0 0.17348,0 -0.34695,0 0.17347,0 -0.34695,0 0.17348,0 -0.34696,0 0.17348,0 -0.17348,0 0,-0.52044 0,-0.69391 0,-0.52043 0,-0.69391 0,-3.1226 0,-1.38783 0,-1.38782 0,-0.52043 0,-3.46956 0,-0.69391 0,-0.86739 0,-0.69391 0,-0.86739 0,-2.25521 0,-0.69391 0,-2.94913 0,-0.52043 0,-2.08174 0,-0.69391 0,-0.86739 0,-2.25521 0,-0.69391 0,-2.94912 0,-0.52044 0,-2.08173 0,-1.21435 0,-1.38782 0,-1.38782 0,-1.38782 0,-0.52044 0,-0.52043 0,-5.37781 0,-1.21435 0,-1.04087 0,-1.21434 0,-1.04087 0,-0.86739 0,-1.04086 0,-0.69392 0,-3.1226 0,-1.90825 0,-0.69391 0,-0.69392 0,-0.69391 0,-0.69391 0,-2.94912 0,-0.52044 0,-2.08173 z"
       id="path3812" />
    <path
       d="m 214.28632,260.89066 2.25521,0 5.37781,0 2.42869,0 0.52044,0 0.86738,0 0.52044,0 0.69391,0 0.52043,0 3.46956,0 0,0.52043 c 0.49148,1.04095 0.83843,1.96616 1.04087,2.77565 l 0.34695,1.21434 0.17348,0.69392 c 0.11561,0.17354 0.17343,0.34702 0.17348,0.52043 0.11561,0.17355 0.17343,0.34702 0.17348,0.52043 0.1156,0.17355 0.17343,0.34703 0.17347,0.52044 0.28909,0.46267 0.46257,0.92528 0.52044,1.38782 l 1.04086,2.77564 0,0.52044 c 0.5493,1.06984 0.89626,2.05288 1.04087,2.94912 0.5493,1.27223 0.89626,2.37092 1.04087,3.29608 0.17343,0.34701 0.28908,0.69397 0.34695,1.04087 l 0.34696,0.69391 c 0.17343,0.57831 0.34691,1.04092 0.52043,1.38782 l 0,0.52044 c 0.11561,0.17353 0.17343,0.347 0.17348,0.52043 0.28908,0.46266 0.46256,0.92527 0.52043,1.38782 l 1.04087,2.77565 0.17348,0.69391 0.17348,0.34695 0.34695,1.5613 0.34696,0.69392 0.34695,0.86739 0.17348,0.52043 0.17348,0.69391 0.34696,1.04087 c 0.17342,0.5783 0.3469,1.04091 0.52043,1.38782 l 0,0.52043 c 0.1156,0.17352 0.17342,0.347 0.17348,0.52044 0.28907,0.46264 0.46255,0.92525 0.52043,1.38782 l 1.04087,2.77565 0.17348,1.04086 0.52043,1.04087 0.34695,1.04087 0,0.52043 0.34696,0.52043 0.17348,0.69391 0.17348,0.86739 c 0.89624,2.05285 1.4745,3.78763 1.73477,5.20434 0.1156,0.1735 0.17342,0.34698 0.17348,0.52043 0.89624,2.05285 1.4745,3.78762 1.73478,5.20434 l 0.34696,0.52043 0.17347,0.69391 0.17348,0.69391 0.17348,0.52044 0.17348,0.69391 c 0.11559,0.17349 0.17341,0.34697 0.17348,0.52043 0.11559,0.1735 0.17341,0.34697 0.17347,0.52044 0.11559,0.17349 0.17342,0.34697 0.17348,0.52043 l 0.34696,0.52043 0,0.52044 c 0.11559,0.17349 0.17341,0.34697 0.17348,0.52043 0.28906,0.46262 0.46254,0.92523 0.52043,1.38782 0.3758,0.8674 0.60711,1.56131 0.69391,2.08174 l 0.34696,1.04086 -1.04087,0 -0.69391,0 -3.1226,0 -1.90826,0 -0.69391,0 -0.69391,0 -0.69391,0 -0.69392,0 -2.94912,0 -0.52043,0 -2.08174,0 -0.34695,-1.04086 0,-0.69391 -0.34696,-0.52044 0,-0.52043 c -0.347,-0.63607 -0.52048,-1.21433 -0.52043,-1.73478 l -0.34696,-0.52043 0,-0.52044 -0.17348,-0.69391 -0.52043,-1.21434 -1.21434,-4.33695 -3.1226,0 -3.46956,0 -1.21435,0 -1.04086,0 -0.86739,0 -1.04087,0 -0.69391,0 -3.1226,0 -1.90826,0 -0.69391,0 -0.69391,0 -0.69391,0 -0.69391,0 -2.94913,0 -0.52043,0 -2.08174,0 -0.17347,0.86739 -0.17348,0.86739 -0.34696,0.69391 c -0.14458,0.6361 -0.31806,1.21436 -0.52043,1.73478 l -0.17348,0.86739 -0.17348,0.34695 -0.52043,1.73478 -0.17348,0.69391 -0.17347,0.52044 c -0.20241,0.60718 -0.37589,1.06979 -0.52044,1.38782 l -0.52043,2.08173 -0.69391,0 -0.69391,0 -0.52044,0 -3.46956,0 -0.52043,0 -3.1226,0 -0.52043,0 -5.37782,0 0.34696,-1.38782 0.52043,-1.73478 0.17348,-0.52043 0.17348,-0.52043 0.17348,-0.52044 0.17347,-0.34695 0.86739,-2.77565 0.17348,-0.52043 0.17348,-0.52044 0.17348,-0.69391 0.34695,-0.69391 0.52044,-1.90825 0.17347,-0.52044 0.17348,-0.52043 0.17348,-0.52044 0.17348,-0.34695 c 0.34695,-1.32997 0.6939,-2.37084 1.04086,-3.1226 l 0.34696,-1.21435 0.17348,-0.34695 c 0.34694,-1.32997 0.6939,-2.37084 1.04087,-3.1226 0.14455,-0.57823 0.31803,-1.04084 0.52043,-1.38783 l 0.34695,-1.38782 0.52044,-1.21434 0.34695,-1.38783 0.17348,-0.34695 c 0.34694,-1.32996 0.6939,-2.37083 1.04087,-3.1226 l 0.34695,-1.38783 1.38783,-3.81651 0.34695,-1.21434 0.17348,-0.52044 0.17348,-0.52043 c 0.34694,-1.09865 0.69389,-2.02386 1.04087,-2.77565 l 0.34695,-1.04086 0.17348,-0.52044 0,-0.52043 0.17348,-0.52043 1.21434,-3.12261 0.17348,-1.04086 0.34696,-0.86739 0.34695,-0.69391 c 0.23129,-1.09864 0.52041,-2.02385 0.86739,-2.77565 l 0.17348,-0.86739 0.17348,-0.52043 0.17347,-0.34696 c 0.34694,-1.32993 0.69389,-2.3708 1.04087,-3.1226 l 0.17348,-0.69391 0.17348,-0.69391 c 0.31802,-0.66493 0.54932,-1.30102 0.69391,-1.90826 l 0.52043,-1.73478 0.17348,-0.52043 1.38782,-3.98999 z m 7.45954,15.26605 -0.52043,1.90826 -0.17348,0.34695 -0.86739,3.1226 -1.04086,2.94913 -0.17348,0.34695 -1.04087,3.81652 -0.17348,0.69391 -1.04086,2.94912 -0.34696,0.86739 c -0.11568,0.92526 -0.34698,1.73482 -0.69391,2.42869 -0.0868,0.66504 -0.26024,1.30112 -0.52043,1.90826 l -0.17348,0.69391 c -0.23133,0.69395 -0.46264,1.2722 -0.69391,1.73478 l -1.04087,3.81651 0.52043,0 0.69391,0 0.69392,0 0.69391,0 0.69391,0 2.94912,0 0.52044,0 2.08173,0 0.69391,0 1.90826,0 0.86739,0 0.52043,0 0.69391,0 0.52043,0 3.46956,0 -0.34695,-1.38783 -1.04087,-3.29607 -0.86739,-2.94913 c -0.43373,-1.09865 -0.72286,-2.02386 -0.86739,-2.77564 l -0.17348,-0.34696 c -0.23134,-0.83843 -0.46264,-1.53234 -0.69391,-2.08173 l -0.17348,-0.69391 -0.17347,-0.69392 -0.34696,-0.86738 -0.17348,-1.04087 -0.17348,-0.69391 -0.34695,-0.52044 -0.17348,-1.04086 -0.17348,-0.69392 c -0.17351,-0.3469 -0.28916,-0.69385 -0.34695,-1.04086 l -0.17348,-0.69391 c -0.43373,-0.86734 -0.72286,-1.6769 -0.86739,-2.42869 l -0.17348,-0.52044 -0.17348,-0.34695 -0.34695,-1.5613 -0.17348,-0.52044 -0.86739,-2.25521 z"
       id="path3814" />
    <path
       d="m 258.00273,260.71718 0.69392,0 0.52043,0 0.69391,0 3.1226,0 0.69391,0 3.1226,0 1.04087,0 1.21435,0 3.46955,0 1.38783,0 1.38782,0 1.38782,0 1.38782,0 3.46956,0 0.52043,0 0.52044,0 5.37781,0 1.21435,0 1.04086,0 1.21435,0 1.04087,0 0.86738,0 1.04087,0 0.69391,0 3.1226,0 1.90826,0 0.69391,0 0.69391,0 0.69391,0 0.69392,0 2.94912,0 0.52043,0 2.08174,0 0,13.18432 -1.04087,0 -0.52043,0 -3.46956,0 -2.25521,0 -0.69391,0 -3.12261,0 -0.69391,0 -0.69391,0 -0.69391,0 -2.94912,0 -0.52044,0 -2.08173,0 0,53.2577 -2.25521,0 -0.69391,0 -3.1226,0 -0.69392,0 -0.69391,0 -0.69391,0 -2.94912,0 -0.52044,0 -2.08173,0 0,-1.21435 0,-0.52043 0,-0.86739 0,-0.52043 0,-0.69392 0,-0.52043 0,-3.46956 0,-0.69391 0,-3.1226 0,-1.04087 0,-1.21434 0,-3.46956 0,-1.38782 0,-1.38782 0,-1.38783 0,-1.38782 0,-3.46956 0,-0.52043 0,-0.52043 0,-5.37782 0,-1.21434 0,-1.04087 0,-1.21434 0,-1.04087 0,-0.86739 0,-1.04087 0,-0.69391 0,-3.1226 0,-1.90825 0,-0.69392 0,-0.69391 0,-0.69391 0,-0.69391 0,-2.94912 0,-0.52044 0,-2.08173 -1.04087,0 -0.52043,0 -3.46956,0 -2.25521,0 -0.69391,0 -3.1226,0 -0.69391,0 -0.69391,0 -0.69392,0 -2.94912,0 -0.52043,0 -2.08174,0 0,-3.46956 0,-0.86739 0,-0.52043 0,-0.69391 0,-0.69391 0,-0.69392 0,-0.69391 0,-2.94912 0,-0.52043 0,-2.08174 z"
       id="path3816" />
    <path
       d="m 321.49562,260.89066 0.69392,0 2.94912,0 0.52043,0 2.08174,0 3.46955,0 0.69392,0 3.1226,0 0.52043,0 0.52043,0 5.37782,0 2.94912,0 1.38782,0 1.21435,0 0.69391,0 0.52043,0 3.46956,0 0.69391,0 0.52043,0 3.12261,0 2.25521,0 0.69391,0 2.94912,0 0.52044,0 2.08173,0 0,13.18432 -3.46956,0 -1.04086,0 -2.94913,0 -0.52043,0 -2.08173,0 -2.25522,0 -0.69391,0 -2.94912,0 -0.52044,0 -2.08173,0 -1.90826,0 -0.86738,0 -2.25522,0 -0.69391,0 -2.94912,0 -0.52043,0 -2.08174,0 0,13.35779 0.52043,0 3.46956,0 2.25521,0 0.69391,0 3.12261,0 0.69391,0 0.69391,0 0.69391,0 2.94912,0 1.38783,0 1.21434,0 0.86739,0 2.25521,0 0.69391,0 2.94913,0 0.52043,0 2.08173,0 0,12.31693 -2.42869,0 -0.52043,0 -0.86739,0 -0.52043,0 -0.69391,0 -0.52044,0 -3.46955,0 -2.25522,0 -1.21434,0 -2.42869,0 -0.52043,0 -3.1226,0 -2.25522,0 -0.69391,0 -2.94912,0 -0.52043,0 -2.08174,0 0,13.87822 c 0.23128,0.49155 0.63606,0.66503 1.21435,0.52044 l 1.38782,0 3.46956,0 1.04086,0 2.94913,0 0.52043,0 2.08173,0 2.25522,0 0.69391,0 2.94912,0 0.52043,0 2.08174,0 1.90825,0 0.86739,0 2.25522,0 0.69391,0 2.94912,0 0.52043,0 2.08174,0 0,13.18431 -0.52044,0 -0.69391,0 -2.94912,0 -0.52043,0 -2.08174,0 -3.46956,0 -1.38782,0 -1.38782,0 -1.38782,0 -1.38783,0 -3.46955,0 -0.52044,0 -0.52043,0 -5.37781,0 -1.21435,0 -1.04087,0 -1.21434,0 -1.04087,0 -0.86739,0 -1.04086,0 -0.69391,0 -3.12261,0 -1.90825,0 -0.69391,0 -0.69391,0 -0.69392,0 -0.69391,0 -2.94912,0 -0.52043,0 -2.08174,0 0,-0.69391 0,-3.1226 0,-1.38782 0,-1.38782 0,-0.52044 0,-0.69391 0,-3.1226 0,-0.52043 0,-3.46956 0,-1.38782 0,-0.69391 0,-3.12261 0,-0.52043 0,-0.52043 0,-5.37782 0,-1.21434 0,-0.52043 0,-0.69392 0,-3.1226 0,-2.42869 0,-0.52043 0,-0.86739 0,-0.52043 0,-0.69391 0,-0.52044 0,-3.46955 0,-2.94913 0,-0.52043 0,-2.08174 0,-2.25521 0,-0.69391 0,-2.94912 0,-0.52044 0,-2.08173 0,-1.90826 0,-0.86739 0,-2.25521 0,-0.69391 0,-2.94912 0,-0.52044 0,-2.08173 z"
       id="path3818" />
    <path
       d="m 386.37633,260.71718 1.38783,0 3.46955,0 0.52044,0 0.52043,0 5.37781,0 1.21435,0 0.52043,0 2.25522,0 2.94912,0 0.69391,0 0.69391,0 3.1226,0 2.42869,0 0.52044,0 0.52043,0 0.52043,0 1.21435,0 0.69391,0 0.52043,0 0.52044,0 c 0.83843,0.14464 1.53234,0.20247 2.08173,0.17348 l 2.08173,0.34696 0.34696,0.17347 0.52043,0 0.34696,0.17348 2.60217,0.86739 c 5.31993,2.80463 8.84731,6.67897 10.58215,11.62302 3.41166,12.20132 -0.57832,20.93303 -11.96998,26.19515 l 0.34696,0.17348 c 0.5493,1.12764 1.06973,2.05285 1.5613,2.77564 l 0.52043,1.04087 c 0.23126,0.3759 0.40473,0.72286 0.52044,1.04087 l 0.69391,1.04087 c 0.69386,1.04089 1.21429,1.96611 1.5613,2.77564 0.69386,0.86742 1.15646,1.67698 1.38782,2.42869 0.72277,0.92524 1.2432,1.7348 1.5613,2.42869 0.40473,0.66502 0.69386,1.24328 0.86739,1.73478 l 0.34696,0.52043 0.34695,0.69391 0.52044,0.52044 1.21434,2.25521 c 0.37581,0.60719 0.66494,1.12762 0.86739,1.5613 l 0.34696,0.52043 0.17347,0.34696 0.34696,0.34695 0.17348,0.52044 c 1.06972,1.59022 1.82145,2.97805 2.25521,4.16347 l -1.21434,0 -2.42869,0 -0.52044,0 -3.1226,0 -2.25521,0 -0.69391,0 -2.94913,0 -0.52043,0 -2.08173,0 -0.17348,-0.34696 -0.34696,-0.34695 -0.17347,-0.34696 -1.21435,-2.08173 -0.17348,-0.52044 c -0.54939,-0.66498 -0.89634,-1.30107 -1.04086,-1.90825 -0.69396,-0.72281 -1.15657,-1.47455 -1.38783,-2.25522 -0.69395,-0.86737 -1.15656,-1.67693 -1.38782,-2.42869 l -0.52043,-0.69391 -0.52044,-1.04086 -0.34695,-0.69392 c -0.72287,-0.86736 -1.2433,-1.6191 -1.5613,-2.25521 -0.40482,-0.89627 -0.80961,-1.64801 -1.21435,-2.25521 l -0.17348,-0.52043 c -0.66503,-0.7228 -1.12764,-1.47454 -1.38782,-2.25522 l -0.34695,-0.52043 -0.17348,-0.52043 -0.34696,-0.17348 -0.52043,-1.21435 c -0.1446,-0.11562 -0.20243,-0.23127 -0.17348,-0.34695 -0.86742,-1.12757 -1.50351,-2.16844 -1.90826,-3.1226 l -0.69391,0 -1.90825,0 -0.86739,0 -0.52044,0 -0.69391,0 -0.52043,0 -3.46956,0 0,25.8482 -2.25521,0 -0.69391,0 -3.1226,0 -0.69391,0 -0.69392,0 -0.69391,0 -2.94912,0 -0.52043,0 -2.08174,0 0,-0.69391 0,-3.12261 0,-1.38782 0,-1.38782 0,-0.52044 0,-0.69391 0,-3.1226 0,-0.52043 0,-3.46956 0,-1.38782 0,-0.69391 0,-3.1226 0,-0.52044 0,-0.52043 0,-5.37781 0,-1.21435 0,-0.52043 0,-0.69391 0,-3.1226 0,-2.42869 0,-0.52044 0,-0.86739 0,-0.52043 0,-0.69391 0,-0.52044 0,-3.46955 0,-2.94913 0,-0.52043 0,-2.08173 0,-2.25522 0,-0.69391 0,-2.94912 0,-0.52043 0,-2.08174 0,-1.90825 0,-0.86739 0,-2.25522 0,-0.69391 0,-2.94912 0,-0.52043 0,-2.08174 z m 12.31693,28.10341 0.86739,0 1.21435,0 2.42869,0 0.52043,0 3.1226,0 2.25521,0 0.69391,0 2.94913,0 0.52043,0 2.08173,0 2.08174,-0.52043 c 3.4406,-2.13951 4.94407,-5.0308 4.51042,-8.67389 -0.83852,-2.60211 -2.34199,-4.51036 -4.51042,-5.72477 l -0.52043,0 -0.34696,-0.17348 -2.25521,-0.52043 -0.86739,0 -2.42869,0 -0.86739,0 -0.69391,0 -3.1226,0 -0.69391,0 -0.69392,0 -0.69391,0 -2.94912,0 -0.52043,0 -2.08174,0 z"
       id="path3820" />
    <path
       d="m 469.99265,260.89066 2.25521,0 5.37781,0 2.42869,0 0.52043,0 0.86739,0 0.52044,0 0.69391,0 0.52043,0 3.46956,0 0,0.52043 c 0.49148,1.04095 0.83843,1.96616 1.04087,2.77565 l 0.34695,1.21434 0.17348,0.69392 c 0.11561,0.17354 0.17343,0.34702 0.17348,0.52043 0.1156,0.17355 0.17343,0.34702 0.17348,0.52043 0.1156,0.17355 0.17343,0.34703 0.17347,0.52044 0.28909,0.46267 0.46257,0.92528 0.52044,1.38782 l 1.04086,2.77564 0,0.52044 c 0.5493,1.06984 0.89626,2.05288 1.04087,2.94912 0.5493,1.27223 0.89625,2.37092 1.04087,3.29608 0.17343,0.34701 0.28908,0.69397 0.34695,1.04087 l 0.34696,0.69391 c 0.17343,0.57831 0.34691,1.04092 0.52043,1.38782 l 0,0.52044 c 0.11561,0.17353 0.17343,0.347 0.17348,0.52043 0.28908,0.46266 0.46256,0.92527 0.52043,1.38782 l 1.04087,2.77565 0.17348,0.69391 0.17348,0.34695 0.34695,1.5613 0.34696,0.69392 0.34695,0.86739 0.17348,0.52043 0.17348,0.69391 0.34696,1.04087 c 0.17342,0.5783 0.3469,1.04091 0.52043,1.38782 l 0,0.52043 c 0.1156,0.17352 0.17342,0.347 0.17348,0.52044 0.28907,0.46264 0.46255,0.92525 0.52043,1.38782 l 1.04087,2.77565 0.17348,1.04086 0.52043,1.04087 0.34695,1.04087 0,0.52043 0.34696,0.52043 0.17348,0.69391 0.17348,0.86739 c 0.89624,2.05285 1.4745,3.78763 1.73477,5.20434 0.1156,0.1735 0.17342,0.34698 0.17348,0.52043 0.89624,2.05285 1.4745,3.78762 1.73478,5.20434 l 0.34696,0.52043 0.17347,0.69391 0.17348,0.69391 0.17348,0.52044 0.17348,0.69391 c 0.11559,0.17349 0.17341,0.34697 0.17348,0.52043 0.11558,0.1735 0.17341,0.34697 0.17347,0.52044 0.11559,0.17349 0.17342,0.34697 0.17348,0.52043 l 0.34696,0.52043 0,0.52044 c 0.11559,0.17349 0.17341,0.34697 0.17347,0.52043 0.28907,0.46262 0.46255,0.92523 0.52044,1.38782 0.3758,0.8674 0.60711,1.56131 0.69391,2.08174 l 0.34696,1.04086 -1.04087,0 -0.69391,0 -3.1226,0 -1.90826,0 -0.69391,0 -0.69391,0 -0.69391,0 -0.69392,0 -2.94912,0 -0.52043,0 -2.08174,0 -0.34695,-1.04086 0,-0.69391 -0.34696,-0.52044 0,-0.52043 c -0.347,-0.63607 -0.52048,-1.21433 -0.52043,-1.73478 l -0.34696,-0.52043 0,-0.52044 -0.17348,-0.69391 -0.52043,-1.21434 -1.21434,-4.33695 -3.12261,0 -3.46955,0 -1.21435,0 -1.04086,0 -0.86739,0 -1.04087,0 -0.69391,0 -3.1226,0 -1.90826,0 -0.69391,0 -0.69391,0 -0.69391,0 -0.69391,0 -2.94913,0 -0.52043,0 -2.08174,0 -0.17347,0.86739 -0.17348,0.86739 -0.34696,0.69391 c -0.14458,0.6361 -0.31806,1.21436 -0.52043,1.73478 l -0.17348,0.86739 -0.17348,0.34695 -0.52043,1.73478 -0.17348,0.69391 -0.17348,0.52044 c -0.2024,0.60718 -0.37588,1.06979 -0.52043,1.38782 l -0.52043,2.08173 -0.69391,0 -0.69392,0 -0.52043,0 -3.46956,0 -0.52043,0 -3.1226,0 -0.52043,0 -5.37782,0 0.34696,-1.38782 0.52043,-1.73478 0.17348,-0.52043 0.17348,-0.52043 0.17348,-0.52044 0.17347,-0.34695 0.86739,-2.77565 0.17348,-0.52043 0.17348,-0.52044 0.17348,-0.69391 0.34695,-0.69391 0.52044,-1.90825 0.17347,-0.52044 0.17348,-0.52043 0.17348,-0.52044 0.17348,-0.34695 c 0.34694,-1.32997 0.6939,-2.37084 1.04086,-3.1226 l 0.34696,-1.21435 0.17348,-0.34695 c 0.34694,-1.32997 0.6939,-2.37084 1.04086,-3.1226 0.14456,-0.57823 0.31804,-1.04084 0.52044,-1.38783 l 0.34695,-1.38782 0.52044,-1.21434 0.34695,-1.38783 0.17348,-0.34695 c 0.34694,-1.32996 0.6939,-2.37083 1.04087,-3.1226 l 0.34695,-1.38783 1.38783,-3.81651 0.34695,-1.21434 0.17348,-0.52044 0.17348,-0.52043 c 0.34694,-1.09865 0.69389,-2.02386 1.04086,-2.77565 l 0.34696,-1.04086 0.17348,-0.52044 0,-0.52043 0.17348,-0.52043 1.21434,-3.12261 0.17348,-1.04086 0.34695,-0.86739 0.34696,-0.69391 c 0.23128,-1.09864 0.52041,-2.02385 0.86739,-2.77565 l 0.17348,-0.86739 0.17348,-0.52043 0.17347,-0.34696 c 0.34694,-1.32993 0.69389,-2.3708 1.04087,-3.1226 l 0.17348,-0.69391 0.17348,-0.69391 c 0.31802,-0.66493 0.54932,-1.30102 0.69391,-1.90826 l 0.52043,-1.73478 0.17348,-0.52043 1.38782,-3.98999 z m 7.45954,15.26605 -0.52043,1.90826 -0.17348,0.34695 -0.86739,3.1226 -1.04086,2.94913 -0.17348,0.34695 -1.04087,3.81652 -0.17348,0.69391 -1.04086,2.94912 -0.34696,0.86739 c -0.11568,0.92526 -0.34698,1.73482 -0.69391,2.42869 -0.0868,0.66504 -0.26024,1.30112 -0.52043,1.90826 l -0.17348,0.69391 c -0.23133,0.69395 -0.46264,1.2722 -0.69391,1.73478 l -1.04087,3.81651 0.52043,0 0.69391,0 0.69392,0 0.69391,0 0.69391,0 2.94912,0 0.52043,0 2.08174,0 0.69391,0 1.90826,0 0.86739,0 0.52043,0 0.69391,0 0.52043,0 3.46956,0 -0.34695,-1.38783 -1.04087,-3.29607 -0.86739,-2.94913 c -0.43374,-1.09865 -0.72286,-2.02386 -0.86739,-2.77564 l -0.17348,-0.34696 c -0.23134,-0.83843 -0.46264,-1.53234 -0.69391,-2.08173 l -0.17348,-0.69391 -0.17347,-0.69392 -0.34696,-0.86738 -0.17348,-1.04087 -0.17348,-0.69391 -0.34695,-0.52044 -0.17348,-1.04086 -0.17348,-0.69392 c -0.17351,-0.3469 -0.28916,-0.69385 -0.34695,-1.04086 l -0.17348,-0.69391 c -0.43373,-0.86734 -0.72286,-1.6769 -0.86739,-2.42869 l -0.17348,-0.52044 -0.17348,-0.34695 -0.34695,-1.5613 -0.17348,-0.52044 -0.86739,-2.25521 z"
       id="path3822" />
  </g>
</svg>
