<?xml version="1.0" encoding="UTF-8" standalone="no"?>
<!-- Created with Inkscape (http://www.inkscape.org/) -->

<svg
   xmlns:dc="http://purl.org/dc/elements/1.1/"
   xmlns:cc="http://creativecommons.org/ns#"
   xmlns:rdf="http://www.w3.org/1999/02/22-rdf-syntax-ns#"
   xmlns:svg="http://www.w3.org/2000/svg"
   xmlns="http://www.w3.org/2000/svg"
   xmlns:sodipodi="http://sodipodi.sourceforge.net/DTD/sodipodi-0.dtd"
   xmlns:inkscape="http://www.inkscape.org/namespaces/inkscape"
   width="632.91785"
   height="199.47202"
   id="svg2"
   version="1.1"
   inkscape:version="0.47 r22583"
   sodipodi:docname="Nuovo documento 1">
  <defs
     id="defs4">
    <inkscape:perspective
       sodipodi:type="inkscape:persp3d"
       inkscape:vp_x="0 : 526.18109 : 1"
       inkscape:vp_y="0 : 1000 : 0"
       inkscape:vp_z="744.09448 : 526.18109 : 1"
       inkscape:persp3d-origin="372.04724 : 350.78739 : 1"
       id="perspective10" />
    <inkscape:perspective
       sodipodi:type="inkscape:persp3d"
       inkscape:vp_x="0 : 0.5 : 1"
       inkscape:vp_y="0 : 1000 : 0"
       inkscape:vp_z="1 : 0.5 : 1"
       inkscape:persp3d-origin="0.5 : 0.33333333 : 1"
       id="perspective10-7" />
  </defs>
  <sodipodi:namedview
     id="base"
     pagecolor="#ffffff"
     bordercolor="#666666"
     borderopacity="1.0"
     inkscape:pageopacity="0.0"
     inkscape:pageshadow="2"
     inkscape:zoom="0.83535156"
     inkscape:cx="410.14024"
     inkscape:cy="42.73339"
     inkscape:document-units="px"
     inkscape:current-layer="g3625"
     showgrid="false"
     inkscape:window-width="1600"
     inkscape:window-height="838"
     inkscape:window-x="-8"
     inkscape:window-y="-8"
     inkscape:window-maximized="1" />
  <metadata
     id="metadata7">
    <rdf:RDF>
      <cc:Work
         rdf:about="">
        <dc:format>image/svg+xml</dc:format>
        <dc:type
           rdf:resource="http://purl.org/dc/dcmitype/StillImage" />
        <dc:title></dc:title>
      </cc:Work>
    </rdf:RDF>
  </metadata>
  <g
     inkscape:label="Livello 1"
     inkscape:groupmode="layer"
     id="layer1"
     transform="translate(35.140239,-375.62356)">
    <g
       transform="matrix(3.42127,0,0,3.42127,-169.31629,-1033.7173)"
       id="g3625">
      <path
         d="m 39.3182,412.035 184.795,0 0,58.1035 -184.795,0 0,-58.1035 z"
         style="fill:#ffffff;fill-opacity:1;stroke:#000000;stroke-width:0.2;stroke-linecap:square;stroke-linejoin:miter;stroke-miterlimit:4;stroke-opacity:1;stroke-dashoffset:26.88"
         id="rect2818" />
      <path
         d="m 47.063,414.657 168.869,0 c 3.08048,0 5.56043,2.47996 5.56043,5.56044 l 0,41.7403 c 0,3.08047 -2.47995,5.56043 -5.56043,5.56043 l -168.869,0 c -3.08048,0 -5.56043,-2.47996 -5.56043,-5.56043 l 0,-41.7403 c 0,-3.08048 2.47995,-5.56044 5.56043,-5.56044 z"
         style="fill:#ffffff;fill-opacity:1;stroke:#000000;stroke-width:1;stroke-linecap:square;stroke-linejoin:miter;stroke-miterlimit:4;stroke-opacity:1;stroke-dashoffset:26.88"
         id="rect3592" />
      <g
         style="font-size:31.23702812px;font-style:normal;font-variant:normal;font-weight:normal;font-stretch:normal;text-align:start;line-height:100%;writing-mode:lr-tb;text-anchor:start;fill:#000000;fill-opacity:1;stroke:none;font-family:Transport Heavy;-inkscape-font-specification:'Transport Heavy,'"
         id="text2844">
        <path
           d="m 73.885543,420.58767 c 6.904259,0.0509 10.849556,3.58943 11.835905,10.61571 0.437212,6.30435 -1.779475,10.61571 -6.65007,12.93408 -4.707938,1.70828 -8.714245,1.03717 -12.018935,-2.01333 -3.518235,-3.96562 -4.494391,-8.52102 -2.928471,-13.6662 1.70827,-4.89093 4.962124,-7.51435 9.761571,-7.87026 z m 0.12202,4.63674 c -3.904638,0.74231 -5.694257,3.58943 -5.368865,8.54138 0.152518,2.92848 1.352376,5.00281 3.59958,6.223 l 0.183029,0 c 0.193187,0.11186 0.376216,0.17287 0.549089,0.18303 l 0.122019,0.061 0.732118,0.18303 c 4.291007,-0.0407 6.528032,-2.23702 6.71108,-6.58906 0.376208,-5.59255 -1.799807,-8.46001 -6.52805,-8.60239 z"
           style=""
           id="path2913" />
        <path
           d="m 88.77194,421.25878 0.183029,0 1.220196,0 0.18303,0 1.098177,0 0.183029,0 1.891305,0 c 0.193191,0.55928 0.315211,1.02702 0.366058,1.40322 l 0.18303,0.42707 0.06101,0.42707 0.183029,0.42707 0,0.18303 c 0.101676,0.19322 0.162686,0.41692 0.18303,0.6711 0.04067,0.061 0.061,0.12205 0.06101,0.18303 0.04067,0.061 0.061,0.12205 0.06101,0.18303 l 0.488079,1.52525 0,0.24404 c 0.04067,0.061 0.061,0.12204 0.06101,0.18303 0.05083,0.0407 0.07117,0.0814 0.06101,0.12202 l 0.12202,0.48808 0.12202,0.48807 c 0.142348,0.27457 0.223694,0.51861 0.244039,0.73212 l 0.06101,0.12202 0.12202,0.54909 0.06101,0.30505 c 0.101675,0.16271 0.162685,0.3254 0.18303,0.48808 l 0.06101,0.12202 0.122019,0.54909 0.427069,1.40322 0.183029,0.85414 c 0.142347,0.31523 0.24403,0.59994 0.30505,0.85414 l 0.244039,1.03716 0.122019,0.30505 0.06101,0.30505 0.12202,0.30505 0.06101,0.18303 0.06101,0.18303 0,0.24404 c 0.04066,0.061 0.061,0.12203 0.06101,0.18303 0.101673,0.19321 0.162683,0.41691 0.18303,0.67111 0.05083,0.0407 0.07117,0.0813 0.06101,0.12202 l 0.305049,0.97615 0,-0.24404 0.122019,-0.24403 0.12202,-0.42707 0.06101,-0.36606 c 0.0915,-0.23386 0.152513,-0.45756 0.183029,-0.67111 l 0.06101,-0.18303 0.06101,-0.24404 c 0.152513,-0.37621 0.254196,-0.7016 0.305049,-0.97616 l 0.06101,-0.18303 0.06101,-0.24403 0.122019,-0.48808 0.06101,-0.18303 0.06101,-0.12202 0.305053,-1.09818 0.061,-0.24404 0.061,-0.18303 0.061,-0.24404 0.12202,-0.48808 0.061,-0.18303 0.061,-0.12201 0.30505,-1.09818 0.12202,-0.36606 0,-0.18303 0.061,-0.12202 0.12202,-0.36606 0.061,-0.18303 0,-0.18303 0.061,-0.18303 0.24404,-0.73211 0.061,-0.30505 0.12202,-0.30505 0.061,-0.36606 0.12202,-0.30505 0.061,-0.30505 0.12202,-0.24404 0.061,-0.24404 0.061,-0.30505 c 0.0712,-0.31519 0.15251,-0.55923 0.24404,-0.73212 l 0,-0.24404 0.12202,-0.24403 0.061,-0.30505 0.24404,-0.79313 0.061,-0.18303 0.061,-0.18303 0.061,-0.18303 0,-0.24404 0.061,-0.18303 0.061,-0.24404 c 0.15251,-0.3762 0.25419,-0.70158 0.30505,-0.97615 l 1.8913,0 0.85414,0 0.18303,0 0.30505,0 0.18303,0 0.24404,0 0.18302,0 1.2202,0 -0.12202,0.48807 -0.12202,0.42707 -0.18303,0.42707 -0.061,0.42707 c -0.15254,0.37625 -0.25422,0.70164 -0.30505,0.97616 l -0.12202,0.48808 -0.30505,0.91514 -0.18302,0.73212 -0.061,0.18303 -0.36606,1.40323 -0.12202,0.42707 -0.12202,0.30504 -0.061,0.24404 -0.18303,0.6101 -0.061,0.30505 -0.061,0.18303 -0.061,0.18303 -0.061,0.12202 c -0.0712,0.35591 -0.15254,0.64062 -0.24404,0.85414 l -0.12202,0.42707 -0.061,0.12202 c -0.061,0.43725 -0.16271,0.80331 -0.30505,1.09817 l -0.12202,0.48808 -0.12202,0.48808 -0.12202,0.42707 -0.12202,0.48808 c -0.0915,0.23388 -0.15254,0.43725 -0.18303,0.61009 l -0.061,0.24404 -0.061,0.18303 -0.061,0.18303 -0.24404,0.85414 -0.12202,0.48808 -0.12201,0.42707 -0.12202,0.42707 c -0.0915,0.23388 -0.15255,0.43724 -0.18303,0.61009 l -0.12202,0.36606 -0.061,0.30505 -0.12202,0.24404 -0.061,0.36606 -0.12202,0.36606 -0.061,0.30505 -0.12202,0.30505 c -0.0712,0.3559 -0.15254,0.64061 -0.24404,0.85414 l -0.061,0.30504 -0.061,0.18303 -0.061,0.24404 -0.061,0.18303 -0.30505,1.03717 -0.12202,0.48808 -0.12202,0.42707 -0.30505,0.061 -0.42707,0 -0.36606,0 -0.30504,0 -0.36606,0 -0.244043,0 -1.098177,0 -0.671108,0 -0.244039,0 -0.24404,0 -0.244039,0 -0.244039,0 -1.037167,0 -0.183029,0 -0.732118,0 -0.12202,-0.42707 -0.06101,-0.24404 -0.06101,-0.12202 -0.305049,-0.97616 0,-0.18303 c -0.10169,-0.23386 -0.162699,-0.43723 -0.183029,-0.6101 -0.111858,-0.2847 -0.172868,-0.52874 -0.18303,-0.73211 -0.122026,-0.2237 -0.183036,-0.42707 -0.183029,-0.6101 -0.06102,-0.15252 -0.10169,-0.29488 -0.12202,-0.42707 -0.06102,-0.15252 -0.101689,-0.29487 -0.122019,-0.42707 l -0.18303,-0.42707 0,-0.24404 c -0.06102,-0.11184 -0.101689,-0.21352 -0.122019,-0.30505 l -0.06101,-0.12202 -0.12202,-0.54908 -0.06101,-0.30505 c -0.101688,-0.16269 -0.162698,-0.32538 -0.183029,-0.48808 l -0.06101,-0.12202 -0.12202,-0.54909 -0.427068,-1.40323 -0.06101,-0.42706 -0.18303,-0.42707 -0.06101,-0.18303 0,-0.18303 -0.06101,-0.18303 -0.12202,-0.48808 c -0.152529,-0.30503 -0.254212,-0.61008 -0.305049,-0.91515 l -0.12202,-0.42707 -0.122019,-0.42707 -0.12202,-0.42706 -0.12202,-0.42707 -0.06101,-0.30505 -0.12202,-0.48808 c -0.04068,-0.061 -0.06101,-0.122 -0.06101,-0.18303 -0.04068,-0.061 -0.06101,-0.122 -0.06101,-0.18303 l -0.488078,-1.52524 -0.06101,-0.42707 -0.12202,-0.36606 -0.06101,-0.30505 -0.122019,-0.18303 0,-0.18303 -0.06101,-0.24404 c -0.04068,-0.061 -0.06101,-0.122 -0.06101,-0.18303 l -0.488078,-1.52524 0,-0.24404 -0.12202,-0.24404 -0.06101,-0.18303 0,-0.18303 c -0.04068,-0.061 -0.06101,-0.122 -0.06101,-0.18303 l -0.06101,-0.24404 -0.122019,-0.24404 -0.06101,-0.42707 c -0.233872,-0.54906 -0.376228,-1.03714 -0.427069,-1.46423 z"
           style=""
           id="path2915" />
        <path
           d="m 114.03,421.25878 0.24404,0 1.09818,0 0.24404,0 0.24404,0 0.24404,0 1.03716,0 0.18303,0 0.73212,0 0,23.30575 -0.79313,0 -0.24404,0 -1.09817,0 -0.24404,0 -0.24404,0 -0.24404,0 -1.03717,0 -0.18303,0 -0.73211,0 0,-0.18303 0,-0.24404 0,-0.18303 0,-0.24404 0,-1.09818 0,-0.48808 0,-0.48807 0,-0.18303 0,-1.2202 0,-0.24404 0,-0.30505 0,-0.24404 0,-0.30505 0,-0.79312 0,-0.24404 0,-1.03717 0,-0.18303 0,-0.73212 0,-0.24404 0,-0.30505 0,-0.79312 0,-0.24404 0,-1.03717 0,-0.18303 0,-0.73212 0,-0.42707 0,-0.48808 0,-0.48807 0,-0.48808 0,-0.18303 0,-0.18303 0,-1.89131 0,-0.42706 0,-0.36606 0,-0.42707 0,-0.36606 0,-0.30505 0,-0.36606 0,-0.24404 0,-1.09818 0,-0.6711 0,-0.24404 0,-0.24404 0,-0.24404 0,-0.24404 0,-1.03717 0,-0.18303 0,-0.73211 z"
           style=""
           id="path2917" />
        <path
           d="m 133.73618,420.64868 c 5.04346,-0.20334 8.56169,1.74897 10.5547,5.85694 l -0.30505,0.12202 -0.24404,0.12202 c -0.28474,0.17288 -0.54911,0.2949 -0.79313,0.36606 l -0.24404,0.12202 c -0.24406,0.15254 -0.46776,0.25423 -0.67111,0.30505 l -0.12202,0.12202 -0.73212,0.30505 -0.18302,0.061 -0.36606,0.24403 c -0.32541,0.12204 -0.58978,0.24406 -0.79313,0.36606 -0.99651,-1.95229 -2.46075,-3.05047 -4.39271,-3.29453 -2.17603,-0.19317 -3.8843,0.47794 -5.12482,2.01333 l -0.12202,0.12202 -0.42707,0.54909 c -1.09819,2.77596 -1.28121,5.44005 -0.54909,7.99228 0.87447,3.28437 3.05048,4.74861 6.52805,4.39271 2.22684,-0.55925 3.60973,-1.84045 4.14867,-3.84362 0.11183,-0.52874 0.1525,-0.97614 0.12202,-1.34222 l -0.79313,0 -1.8913,0 -0.85414,0 -0.18303,0 -0.30505,0 -0.18303,0 -0.24404,0 -0.18303,0 -1.22019,0 0,-0.24403 0,-1.03717 0,-0.67111 0,-0.24404 0,-1.03717 0,-0.18303 0,-0.73211 0.24403,0 1.09818,0 1.03717,0 0.18303,0 0.73212,0 0.79312,0 0.24404,0 1.03717,0 0.18303,0 0.73212,0 0.67111,0 0.30504,0 0.79313,0 0.24404,0 1.03717,0 0.18303,0 0.73212,0 0,13.48317 -0.30505,0 -0.24404,0 -1.03717,0 -0.67111,0 -0.24404,0 -1.03716,0 -0.18303,0 -0.73212,0 0,-0.18303 0,-0.24404 0,-1.09818 c -1.72863,1.54559 -3.64027,2.21669 -5.73492,2.01333 l -0.12202,0.061 c -1.32189,-0.0203 -2.48108,-0.26438 -3.47756,-0.73212 -3.84363,-1.62693 -6.10099,-4.49438 -6.77209,-8.60239 -0.73212,-4.19949 -1e-5,-7.8194 2.19635,-10.85975 2.02349,-2.66407 4.5859,-4.08763 7.68724,-4.27068 z"
           style=""
           id="path2919" />
        <path
           d="m 151.97811,421.19777 0.24404,0 1.09818,0 0.24404,0 0.24404,0 0.24404,0 1.03716,0 0.18303,0 0.73212,0 0,18.669 0.18303,0 0.18303,0 0.18303,0 0.79313,0 1.03716,0 0.18303,0 0.73212,0 0.79313,0 0.24404,0 1.03717,0 0.18303,0 0.73211,0 0.67111,0 0.30505,0 0.79313,0 0.24404,0 1.03716,0 0.18303,0 0.73212,0 0,4.63675 -0.42707,0 -0.36606,0 -0.42707,0 -1.22019,0 -0.48808,0 -0.48808,0 -0.48808,0 -0.48808,0 -1.22019,0 -0.18303,0 -0.18303,0 -1.89131,0 -0.42706,0 -0.36606,0 -0.42707,0 -0.36606,0 -0.30505,0 -0.36606,0 -0.24404,0 -1.09817,0 -0.67111,0 -0.24404,0 -0.24404,0 -0.24404,0 -0.24404,0 -1.03717,0 -0.18303,0 -0.73211,0 0,-0.18303 0,-0.24404 0,-0.18303 0,-0.24404 0,-1.09818 0,-0.48808 0,-0.48807 0,-0.18303 0,-1.2202 0,-0.24404 0,-0.30505 0,-0.24404 0,-0.30505 0,-0.79312 0,-0.24404 0,-1.03717 0,-0.18303 0,-0.73212 0,-0.24404 0,-0.30505 0,-0.79312 0,-0.24404 0,-1.03717 0,-0.18303 0,-0.73212 0,-0.42707 0,-0.48808 0,-0.48807 0,-0.48808 0,-0.18303 0,-0.18303 0,-1.89131 0,-0.42706 0,-0.36606 0,-0.42707 0,-0.36606 0,-0.30505 0,-0.36606 0,-0.24404 0,-1.09818 0,-0.6711 0,-0.24404 0,-0.24404 0,-0.24404 0,-0.24404 0,-1.03717 0,-0.18303 0,-0.73211 z"
           style=""
           id="path2921" />
        <path
           d="m 171.44024,421.25878 0.24404,0 1.09818,0 0.24404,0 0.24404,0 0.24404,0 1.03716,0 0.18303,0 0.73212,0 0,23.30575 -0.79313,0 -0.24404,0 -1.09817,0 -0.24404,0 -0.24404,0 -0.24404,0 -1.03717,0 -0.18303,0 -0.73211,0 0,-0.18303 0,-0.24404 0,-0.18303 0,-0.24404 0,-1.09818 0,-0.48808 0,-0.48807 0,-0.18303 0,-1.2202 0,-0.24404 0,-0.30505 0,-0.24404 0,-0.30505 0,-0.79312 0,-0.24404 0,-1.03717 0,-0.18303 0,-0.73212 0,-0.24404 0,-0.30505 0,-0.79312 0,-0.24404 0,-1.03717 0,-0.18303 0,-0.73212 0,-0.42707 0,-0.48808 0,-0.48807 0,-0.48808 0,-0.18303 0,-0.18303 0,-1.89131 0,-0.42706 0,-0.36606 0,-0.42707 0,-0.36606 0,-0.30505 0,-0.36606 0,-0.24404 0,-1.09818 0,-0.6711 0,-0.24404 0,-0.24404 0,-0.24404 0,-0.24404 0,-1.03717 0,-0.18303 0,-0.73211 z"
           style=""
           id="path2923" />
        <path
           d="m 188.09593,421.19777 0.79312,0 1.89131,0 0.85414,0 0.18302,0 0.30505,0 0.18303,0 0.24404,0 0.18303,0 1.2202,0 0,0.18303 c 0.17284,0.36608 0.29486,0.69147 0.36606,0.97615 l 0.12202,0.42707 0.061,0.24404 c 0.0406,0.061 0.061,0.12204 0.061,0.18303 0.0406,0.061 0.061,0.12204 0.061,0.18303 0.0406,0.061 0.061,0.12204 0.061,0.18303 0.10166,0.16272 0.16267,0.32541 0.18303,0.48808 l 0.36605,0.97615 0,0.18303 c 0.19319,0.37625 0.31521,0.72198 0.36606,1.03717 0.19318,0.44743 0.3152,0.83382 0.36606,1.15919 0.061,0.12204 0.10167,0.24406 0.12202,0.36606 l 0.12202,0.24404 c 0.061,0.20338 0.122,0.36607 0.18303,0.48807 l 0,0.18303 c 0.0407,0.061 0.061,0.12204 0.061,0.18303 0.10167,0.16271 0.16268,0.32541 0.18303,0.48808 l 0.36606,0.97616 0.061,0.24404 0.061,0.12202 0.12202,0.54909 0.12202,0.24404 0.12202,0.30504 0.061,0.18303 0.061,0.24404 0.12202,0.36606 c 0.061,0.20338 0.122,0.36608 0.18303,0.48808 l 0,0.18303 c 0.0406,0.061 0.061,0.12203 0.061,0.18303 0.10166,0.16271 0.16267,0.3254 0.18303,0.48808 l 0.36606,0.97616 0.061,0.36605 0.18302,0.36606 0.12202,0.36606 0,0.18303 0.12202,0.18303 0.061,0.24404 0.061,0.30505 c 0.3152,0.72196 0.51857,1.33206 0.6101,1.83029 0.0406,0.061 0.061,0.12203 0.061,0.18303 0.3152,0.72196 0.51856,1.33206 0.6101,1.8303 l 0.12202,0.18303 0.061,0.24404 0.061,0.24404 0.061,0.18303 0.061,0.24403 c 0.0406,0.061 0.061,0.12203 0.061,0.18303 0.0406,0.061 0.061,0.12203 0.061,0.18303 0.0406,0.061 0.061,0.12203 0.061,0.18303 l 0.12202,0.18303 0,0.18303 c 0.0407,0.061 0.061,0.12203 0.061,0.18303 0.10166,0.1627 0.16267,0.32539 0.18303,0.48808 0.13216,0.30505 0.21351,0.54909 0.24404,0.73212 l 0.12202,0.36606 -0.36606,0 -0.24404,0 -1.09818,0 -0.67111,0 -0.24404,0 -0.24404,0 -0.24403,0 -0.24404,0 -1.03717,0 -0.18303,0 -0.73212,0 -0.12202,-0.36606 0,-0.24404 -0.12202,-0.18303 0,-0.18303 c -0.12203,-0.2237 -0.18304,-0.42706 -0.18303,-0.6101 l -0.12202,-0.18303 0,-0.18303 -0.061,-0.24404 -0.18303,-0.42707 -0.42706,-1.52524 -1.09818,0 -1.2202,0 -0.42707,0 -0.36606,0 -0.30504,0 -0.36606,0 -0.24404,0 -1.09818,0 -0.67111,0 -0.24404,0 -0.24404,0 -0.24404,0 -0.24403,0 -1.03717,0 -0.18303,0 -0.73212,0 -0.061,0.30505 -0.061,0.30505 -0.12202,0.24404 c -0.0508,0.22371 -0.11186,0.42707 -0.18303,0.61009 l -0.061,0.30505 -0.061,0.12202 -0.18303,0.6101 -0.061,0.24404 -0.061,0.18303 c -0.0712,0.21354 -0.13219,0.37623 -0.18303,0.48808 l -0.18303,0.73212 -0.24403,0 -0.24404,0 -0.18303,0 -1.2202,0 -0.18303,0 -1.09818,0 -0.18303,0 -1.8913,0 0.12202,-0.48808 0.18303,-0.6101 0.061,-0.18303 0.061,-0.18303 0.061,-0.18303 0.061,-0.12202 0.30505,-0.97616 0.061,-0.18302 0.061,-0.18303 0.061,-0.24404 0.12202,-0.24404 0.18303,-0.67111 0.061,-0.18303 0.061,-0.18303 0.061,-0.18303 0.061,-0.12202 c 0.12201,-0.46773 0.24403,-0.83379 0.36605,-1.09818 l 0.12202,-0.42706 0.061,-0.12202 c 0.12202,-0.46774 0.24404,-0.83379 0.36606,-1.09818 0.0508,-0.20336 0.11185,-0.36605 0.18303,-0.48808 l 0.12202,-0.48808 0.18303,-0.42707 0.12202,-0.48807 0.061,-0.12202 c 0.12202,-0.46773 0.24404,-0.83379 0.36606,-1.09818 l 0.12202,-0.48808 0.48808,-1.34222 0.12202,-0.42706 0.061,-0.18303 0.061,-0.18303 c 0.12201,-0.38638 0.24403,-0.71177 0.36606,-0.97616 l 0.12202,-0.36606 0.061,-0.18303 0,-0.18303 0.061,-0.18303 0.42706,-1.09817 0.061,-0.36606 0.12202,-0.30505 0.12202,-0.24404 c 0.0813,-0.38638 0.18303,-0.71176 0.30505,-0.97616 l 0.061,-0.30505 0.061,-0.18303 0.061,-0.12202 c 0.12201,-0.46772 0.24403,-0.83378 0.36606,-1.09817 l 0.061,-0.24404 0.061,-0.24404 c 0.11184,-0.23385 0.19319,-0.45755 0.24404,-0.67111 l 0.18303,-0.6101 0.061,-0.18303 0.48808,-1.40322 z m 2.62342,5.36886 -0.18303,0.67111 -0.061,0.12202 -0.30505,1.09817 -0.36606,1.03717 -0.061,0.12202 -0.36606,1.34222 -0.061,0.24404 -0.36606,1.03716 -0.12202,0.30505 c -0.0407,0.3254 -0.12203,0.61012 -0.24404,0.85414 -0.0305,0.23388 -0.0915,0.45759 -0.18302,0.67111 l -0.061,0.24404 c -0.0814,0.24405 -0.16271,0.44742 -0.24404,0.6101 l -0.36606,1.34221 0.18303,0 0.24404,0 0.24404,0 0.24403,0 0.24404,0 1.03717,0 0.18303,0 0.73212,0 0.24404,0 0.67111,0 0.30504,0 0.18303,0 0.24404,0 0.18303,0 1.2202,0 -0.12202,-0.48808 -0.36606,-1.15918 -0.30505,-1.03717 c -0.15254,-0.38638 -0.25422,-0.71177 -0.30505,-0.97616 l -0.061,-0.12202 c -0.0814,-0.29486 -0.1627,-0.5389 -0.24404,-0.73212 l -0.061,-0.24403 -0.061,-0.24404 -0.12202,-0.30505 -0.061,-0.36606 -0.061,-0.24404 -0.12202,-0.18303 -0.061,-0.36606 -0.061,-0.24404 c -0.061,-0.122 -0.10169,-0.24402 -0.12201,-0.36606 l -0.061,-0.24404 c -0.15254,-0.30503 -0.25422,-0.58974 -0.30505,-0.85413 l -0.061,-0.18303 -0.061,-0.12202 -0.12202,-0.54909 -0.061,-0.18303 -0.30505,-0.79313 z"
           style=""
           id="path2925" />
      </g>
      <g
         style="font-size:9.34673309px;font-style:normal;font-variant:normal;font-weight:normal;font-stretch:normal;text-align:start;line-height:100%;writing-mode:lr-tb;text-anchor:start;fill:#000000;fill-opacity:1;stroke:none;font-family:Transport Heavy;-inkscape-font-specification:'Transport Heavy,'"
         id="text2857">
        <path
           d="m 58.277949,451.03023 c 0.02738,0.006 0.04563,0.0183 0.05477,0.0365 l 0.03651,0.0365 0.182553,0.31034 0.03651,0.0548 0.03651,0.073 0.01826,0.0548 0.03651,0.0365 0.05477,0.12779 c 0.06997,0.0761 0.118655,0.15517 0.146042,0.23731 -1.326557,0.84584 -2.038514,1.98984 -2.135874,3.43201 -0.03651,1.79207 0.675445,3.13079 2.135874,4.01617 l -0.164298,0.25558 -0.03651,0.0913 -0.09128,0.14605 -0.219064,0.38336 c -0.02739,0.0365 -0.05781,0.0609 -0.09128,0.073 l -0.03651,-0.0365 -0.03651,-0.0183 c -0.133876,-0.0761 -0.237323,-0.14908 -0.310341,-0.21906 -1.740343,-1.06794 -2.616599,-2.54053 -2.628769,-4.41779 0.08823,-1.96549 0.915809,-3.40157 2.482726,-4.30826 0.01521,-0.0182 0.03347,-0.0304 0.05477,-0.0365 0.01217,-0.0213 0.02434,-0.0335 0.03651,-0.0365 0.05781,-0.0426 0.106486,-0.073 0.146043,-0.0913 l 0.03651,-0.0365 c 0.106487,-0.0548 0.191678,-0.10952 0.255575,-0.1643 z"
           style=""
           id="path2862" />
        <path
           d="m 62.823529,452.14381 c 0.112572,-0.006 0.209933,1e-5 0.292085,0.0183 l 0.05477,0 0.05477,0 0.05477,0 c 0.0791,1e-5 0.14604,0.006 0.200809,0.0183 l 0.07302,0 0.310341,0.0548 0.27383,0.0548 0,0.0913 -0.03651,0.10953 -0.01825,0.073 -0.01825,0.12779 -0.01826,0.0365 -0.03651,0.21906 -0.01826,0.0548 -0.09128,0.41987 c -0.526366,-0.12169 -0.873217,-0.0365 -1.040555,0.25558 l 0,0.47463 0.255575,0 0.05477,0 0.09128,0 0.05477,0 0.07302,0 0.05477,0 0.365107,0 0,1.13184 -0.255575,0 -0.05477,0 -0.09128,0 -0.05477,0 -0.07302,0 -0.05477,0 -0.365107,0 0,3.88838 -0.365106,0 -0.09128,0 -0.05477,0 -0.07302,0 -0.07302,0 -0.07302,0 -0.07302,0 -0.31034,0 -0.05477,0 -0.219064,0 0,-0.14604 0,-0.14604 0,-0.0548 0,-0.0548 0,-0.36511 0,-0.14604 0,-0.14605 0,-0.0548 0,-0.0548 0,-0.56591 0,-0.12779 0,-0.10953 0,-0.12779 0,-0.10953 0,-0.0913 0,-0.10953 0,-0.073 0,-0.3286 0,-0.20081 0,-0.073 0,-0.073 0,-0.073 0,-0.073 0,-0.31034 0,-0.0548 0,-0.21906 -0.182554,0 -0.07302,0 -0.07302,0 -0.05477,0 -0.07302,0 -0.328596,0 0,-0.073 0,-0.073 0,-0.0913 0,-0.23732 0,-0.073 0,-0.31035 0,-0.0548 0,-0.21907 0.182553,0 0.07302,0 0.07302,0 0.05477,0 0.07302,0 0.328596,0 c -0.155172,-1.21093 0.295126,-1.88029 1.350895,-2.00808 z"
           style=""
           id="path2864" />
        <path
           d="m 67.515151,454.09713 0.05477,0 0.365107,0 0,1.31438 c -0.702834,-0.0913 -1.207897,0.13388 -1.515193,0.67545 l 0,0.0548 c -0.05477,0.143 -0.07911,0.28296 -0.07302,0.41987 l 0,2.59226 -0.31034,0 -0.07302,0 -0.09128,0 -0.23732,0 -0.07302,0 -0.310341,0 -0.05477,0 -0.219064,0 0,-0.0548 0,-0.0913 0,-0.0548 0,-0.073 0,-0.0548 0,-0.36511 0,-0.12778 0,-0.36511 0,-0.14604 0,-0.14605 0,-0.14604 0,-0.14604 0,-0.36511 0,-0.0548 0,-0.0548 0,-0.56591 0,-0.12779 0,-0.10953 0,-0.12779 0,-0.10953 0,-0.0913 0,-0.10953 0,-0.073 0,-0.3286 0,-0.20081 0,-0.073 0,-0.073 0,-0.073 0,-0.073 0,-0.31034 0,-0.0548 0,-0.21906 0.310341,0 0.07302,0 0.09128,0 0.237319,0 0.07302,0 0.31034,0 0.05477,0 0.219064,0 0,0.47463 c 0.322509,-0.32554 0.687615,-0.51418 1.095321,-0.56591 z"
           style=""
           id="path2866" />
        <path
           d="m 70.837621,453.96934 c 0.833658,-0.0548 1.52736,0.15214 2.081109,0.62068 l 0.01826,0.0365 c 0.04868,0.0609 0.08519,0.12171 0.109532,0.18256 0.06389,0.0943 0.106485,0.17951 0.127788,0.25557 l 0,0.073 c 0.03651,0.11867 0.05476,0.22211 0.05477,0.31034 l 0,1.78903 c -0.01217,0.30121 -5e-6,0.5507 0.03651,0.74847 0.149081,0.15517 0.319464,0.25253 0.51115,0.29208 l -0.03651,0.0548 -0.03651,0.0913 -0.03651,0.073 -0.01825,0.0548 -0.01826,0.0548 -0.03651,0.0548 -0.07302,0.18256 -0.03651,0.0548 -0.01826,0.0548 -0.01826,0.0548 -0.01826,0.0365 -0.127787,0.27383 c -0.541579,0.003 -0.949281,-0.16734 -1.223108,-0.51115 -0.52028,0.51723 -1.165301,0.64502 -1.935065,0.38336 -0.708917,-0.19472 -1.122704,-0.62677 -1.241363,-1.29613 0.0061,-0.98274 0.468552,-1.55474 1.387405,-1.716 0.04868,-0.0304 0.09736,-0.0487 0.146043,-0.0548 l 0.05477,0 c 0.01825,-0.0122 0.03651,-0.0183 0.05477,-0.0183 l 0.05477,-0.0183 0.328596,-0.0548 0.146043,-0.0183 0.05477,-0.0183 0.310341,-0.0182 c 0.164295,-0.0243 0.298167,-0.0304 0.401617,-0.0183 0.04563,-0.67848 -0.325556,-0.90972 -1.113576,-0.6937 l -0.05477,0.0183 -0.146042,0.0183 -0.127788,0.0548 -0.05477,0.0183 -0.182553,0.0548 c -0.09432,0.0639 -0.179512,0.10649 -0.255575,0.12779 -0.103448,0.0791 -0.206895,0.13387 -0.310341,0.16429 l -0.127787,-0.23732 -0.03651,-0.0183 -0.01826,-0.0548 -0.03651,-0.0365 -0.01825,-0.0548 c -0.07911,-0.0913 -0.133873,-0.17647 -0.164298,-0.25558 -0.04868,-0.0456 -0.07911,-0.0943 -0.09128,-0.14604 -0.07911,-0.0761 -0.127787,-0.15517 -0.146042,-0.23732 l 0.03651,-0.0183 0.05477,-0.0365 0.03651,-0.0183 c 0.08215,-0.0548 0.15517,-0.0974 0.219064,-0.12779 0.04868,-0.0335 0.09736,-0.0517 0.146043,-0.0548 l 0.03651,-0.0365 c 0.112574,-0.0517 0.209936,-0.0882 0.292086,-0.10953 l 0.03651,-0.0365 0.05477,0 c 0.05781,-0.0365 0.106488,-0.0608 0.146042,-0.073 l 0.05477,0 c 0.08215,-0.0426 0.161254,-0.0669 0.23732,-0.073 0.167338,-0.07 0.325551,-0.10648 0.474638,-0.10953 l 0.05477,-0.0183 z m 0.876257,3.01213 -0.05477,0 c -0.07302,0.0213 -0.133876,0.0335 -0.182554,0.0365 l -0.05477,0 c -0.01826,0.0122 -0.03651,0.0183 -0.05477,0.0183 l -0.07302,0.0182 -0.05477,0 -0.07302,0.0183 -0.109532,0.0183 c -0.01826,0.0122 -0.03651,0.0183 -0.05477,0.0183 l -0.07302,0.0182 -0.05477,0.0183 c -0.170385,0.0426 -0.304258,0.0852 -0.401617,0.12779 -0.127789,0.17038 -0.1643,0.34685 -0.109532,0.5294 0.304253,0.42596 0.742381,0.49898 1.314384,0.21907 l 0.146043,-0.21907 0.01826,-0.073 0,-0.073 0,-0.0548 0,-0.0913 0,-0.0548 0,-0.073 0,-0.0548 0,-0.3651 -0.05477,0 z"
           style=""
           id="path2868" />
        <path
           d="m 74.543456,454.18841 0.255575,0 0.05477,0 0.09128,0 0.05477,0 0.07302,0 0.05477,0 0.365107,0 0.31034,0 0.05477,0 0.219065,0 0.237319,0 0.07302,0 0.310341,0 0.05477,0 0.219064,0 0.200809,0 0.09128,0 0.237319,0 0.07302,0 0.310341,0 0.05477,0 0.219064,0 0,1.18659 -0.05477,0.0365 -0.07302,0.10953 -0.03651,0.0365 c -0.01217,0.0213 -0.02434,0.0335 -0.03651,0.0365 -0.01217,0.0213 -0.02434,0.0335 -0.03651,0.0365 l -0.07302,0.10953 -0.03651,0.0365 -0.127788,0.1643 c -0.08215,0.10649 -0.155174,0.1856 -0.219064,0.23732 l -0.01825,0.0365 -0.182553,0.23732 -0.05477,0.073 -0.03651,0.0183 c -0.06694,0.10041 -0.127791,0.17952 -0.182554,0.23732 l -0.03651,0.0548 -0.09128,0.0913 -0.01825,0.0365 -0.05477,0.0365 c -0.05173,0.0913 -0.112578,0.1643 -0.182554,0.21906 l -0.05477,0.0913 -0.03651,0.0548 -0.05477,0.0548 c -0.09128,0.12171 -0.176471,0.21907 -0.255575,0.29209 l -0.01825,0.0548 -0.03651,0.0183 -0.146043,0.20081 0.109532,0 0.310341,0 0.109532,0 0.09128,0 0.109532,0 0.07302,0 0.328596,0 0.200809,0 0.07302,0 0.07302,0 0.07302,0 0.07302,0 0.310341,0 0.05477,0 0.219064,0 0,1.05881 c 0.01217,0.0669 -0.0061,0.10953 -0.05477,0.12778 l -0.146043,0 -0.146042,0 -0.05477,0 -0.05477,0 -0.365107,0 -0.146043,0 -0.146043,0 -0.05477,0 -0.05477,0 -0.565915,0 -0.127787,0 -0.109532,0 -0.127788,0 -0.109532,0 -0.09128,0 -0.109532,0 -0.07302,0 -0.328596,0 -0.200809,0 -0.07302,0 -0.07302,0 -0.07302,0 -0.07302,0 -0.310341,0 -0.05477,0 -0.219064,0 0,-0.073 0,-0.32859 0,-0.073 0,-0.073 0,-0.073 0,-0.31034 0,-0.0548 0,-0.21906 0.03651,-0.0365 0.03651,-0.0183 c 0.06085,-0.10648 0.127787,-0.19167 0.200809,-0.25557 0.08215,-0.11866 0.161255,-0.20993 0.23732,-0.27383 0.0213,-0.0395 0.04564,-0.07 0.07302,-0.0913 l 0.01825,-0.0548 0.03651,-0.0365 0.05477,-0.073 0.03651,-0.0365 0.03651,-0.0365 c 0.01217,-0.0213 0.02434,-0.0335 0.03651,-0.0365 l 0.255575,-0.32859 0.05477,-0.073 0.07302,-0.0548 0.03651,-0.073 0.03651,-0.0183 c 0.03651,-0.0608 0.07302,-0.10953 0.109532,-0.14604 l 0.05477,-0.0548 0.03651,-0.073 0.05477,-0.0365 0.03651,-0.073 0.03651,-0.0182 c 0.03651,-0.0609 0.07302,-0.10953 0.109533,-0.14605 0.09127,-0.1217 0.176466,-0.21906 0.255574,-0.29208 l 0.01826,-0.0365 0.182553,-0.23732 -0.109532,0 -0.127787,0 -0.109532,0 -0.09128,0 -0.109532,0 -0.07302,0 -0.328596,0 -0.200808,0 -0.07302,0 -0.07302,0 -0.07302,0 -0.07302,0 -0.31034,0 -0.05477,0 -0.219064,0 0,-0.31034 0,-0.20081 0,-0.073 0,-0.31034 0,-0.0548 0,-0.21906 z"
           style=""
           id="path2870" />
        <path
           d="m 79.746226,452.14381 c 0.50202,-0.009 0.812361,0.20994 0.931022,0.65719 0.0091,0.34382 -0.106491,0.61156 -0.346851,0.80323 -0.550704,0.21907 -0.940151,0.0852 -1.168342,-0.40161 -0.121702,-0.54766 0.07302,-0.90059 0.584171,-1.05881 z m -0.219064,2.0446 0.07302,0 0.09128,0 0.237319,0 0.07302,0 0.310341,0 0.146042,0 0.127788,0 0,4.9837 -0.255575,0 -0.200809,0 -0.09128,0 -0.05477,0 -0.07302,0 -0.05477,0 -0.365107,0 -0.05477,0 -0.219064,0 0,-0.0548 0,-0.0913 0,-0.0548 0,-0.073 0,-0.0548 0,-0.36511 0,-0.12779 0,-0.073 0,-0.0913 0,-0.073 0,-0.0913 0,-0.23732 0,-0.073 0,-0.31035 0,-0.0548 0,-0.21907 0,-0.12778 0,-0.12779 0,-0.10953 0,-0.12779 0,-0.10953 0,-0.12779 0,-0.10953 0,-0.31034 0,-0.10953 0,-0.0913 0,-0.10953 0,-0.073 0,-0.3286 0,-0.20081 0,-0.073 0,-0.073 0,-0.073 0,-0.073 0,-0.31034 0,-0.0548 0,-0.21906 z"
           style=""
           id="path2872" />
        <path
           d="m 83.835423,453.96934 c 1.198764,-0.009 2.001998,0.48986 2.409705,1.49694 0.04259,0.0548 0.07302,0.10954 0.09128,0.1643 0.261654,1.05881 0.133867,1.98983 -0.383362,2.79306 -0.727175,0.83671 -1.59126,1.11054 -2.592258,0.82149 -1.052726,-0.35902 -1.624726,-1.10748 -1.716002,-2.2454 -0.09128,-1.74034 0.638936,-2.75047 2.19064,-3.03039 z m 0.07302,1.22311 c -0.663279,0.286 -0.955365,0.79715 -0.876256,1.53345 -0.01826,0.78194 0.304253,1.24441 0.967532,1.3874 0.797147,-0.0548 1.156168,-0.63893 1.077065,-1.75251 -0.09432,-0.76976 -0.483769,-1.15921 -1.168341,-1.16834 z"
           style=""
           id="path2874" />
        <path
           d="m 90.023981,454.04236 c 0.833657,-0.0274 1.484763,0.31339 1.953321,1.0223 l 0.01826,0.0548 0.01825,0.0548 0.01825,0.0548 c 0.03042,0.0517 0.04868,0.10041 0.05477,0.14604 l 0.07302,0.21907 0,0.0548 c 0.04259,0.21907 0.06085,0.39554 0.05477,0.52941 l 0,2.97562 -0.365107,0 -0.09128,0 -0.05477,0 -0.07302,0 -0.07302,0 -0.07302,0 -0.07302,0 -0.310341,0 -0.05477,0 -0.219064,0 0,-0.0548 0,-0.0913 0,-0.0548 0,-0.073 0,-0.0548 0,-0.36511 0,-0.25557 0,-0.20081 0,-0.0913 0,-0.0548 0,-0.073 0,-0.0548 0,-0.36511 0,-0.073 0,-0.20081 0,-0.18255 0,-0.3286 0,-0.0548 0,-0.0548 0,-0.073 0,-0.32859 0,-0.073 c -0.03043,-0.0761 -0.04869,-0.14299 -0.05477,-0.2008 -0.146046,-0.25558 -0.34077,-0.41987 -0.584171,-0.4929 -0.505067,-0.0122 -0.876258,0.18256 -1.113576,0.58417 l -0.03651,0.12779 0,3.13992 -0.365107,0 -0.09128,0 -0.05477,0 -0.07302,0 -0.07302,0 -0.07302,0 -0.07302,0 -0.310341,0 -0.05477,0 -0.219064,0 0,-0.0548 0,-0.0913 0,-0.0548 0,-0.073 0,-0.0548 0,-0.36511 0,-0.12778 0,-0.073 0,-0.0913 0,-0.073 0,-0.0913 0,-0.23732 0,-0.073 0,-0.31034 0,-0.0548 0,-0.21906 0,-0.12779 0,-0.12779 0,-0.10953 0,-0.12778 0,-0.10954 0,-0.12778 0,-0.10954 0,-0.31034 0,-0.10953 0,-0.0913 0,-0.10953 0,-0.073 0,-0.3286 0,-0.2008 0,-0.073 0,-0.073 0,-0.073 0,-0.073 0,-0.31034 0,-0.0548 0,-0.21906 0.365107,0 0.09128,0 0.05477,0 0.07302,0 0.07302,0 0.07302,0 0.07302,0 0.310341,0 0.05477,0 0.219064,0 c -0.0061,0.12475 -2e-6,0.2282 0.01825,0.31034 0.304253,-0.24036 0.626764,-0.3864 0.967533,-0.43813 z"
           style=""
           id="path2876" />
        <path
           d="m 95.299776,454.06062 c 1.487806,-0.0213 2.333636,0.70283 2.537492,2.17238 l 0.05477,0.23732 0,0.12779 c 0.02434,0.21602 0.03042,0.39249 0.01826,0.5294 l -0.05477,-0.0182 -0.05477,0 -0.365107,0 -0.05477,0 -0.05477,0 -0.565916,0 -0.127787,0 -0.109532,0 -0.127787,0 -0.109532,0 -0.09128,0 -0.109532,0 -0.07302,0 -0.328596,0 -0.200808,0 -0.07302,0 -0.07302,0 -0.07302,0 -0.07302,0 -0.31034,0 -0.05477,0 -0.219064,0 c 0.06694,0.52941 0.340765,0.84583 0.821491,0.94928 0.59938,0.0913 1.098359,-0.0609 1.496937,-0.45639 l 0.146043,0.1643 c 0.0578,0.0396 0.1004,0.0821 0.127787,0.12779 l 0.03651,0.0182 0.01825,0.0365 c 0.06085,0.0456 0.109528,0.0882 0.146043,0.12779 l 0.03651,0.0548 c 0.02129,0.0122 0.03346,0.0243 0.03651,0.0365 l 0.03651,0.0183 0.03651,0.0365 0.01826,0.0365 0.03651,0.0183 0.01826,0.0365 c 0.06085,0.0456 0.109527,0.0882 0.146043,0.12779 -0.575047,0.73021 -1.366111,1.00404 -2.373194,0.82149 -1.232237,-0.20994 -1.932024,-0.9584 -2.099364,-2.24541 -0.109532,-1.6308 0.55983,-2.61659 2.008087,-2.95736 z m 0.310341,1.13183 c -0.559832,0.0882 -0.888428,0.38641 -0.985788,0.89451 l 0.109532,0 0.127787,0 0.23732,0 0.565915,0 0.255575,0 0.05477,0 0.09128,0 0.05477,0 0.07302,0 0.05477,0 0.365107,0 c -0.136919,-0.54766 -0.4716,-0.84583 -1.004044,-0.89451 z"
           style=""
           id="path2878" />
        <path
           d="m 105.28545,452.19857 0.073,0 0.0913,0 0.23732,0 0.073,0 0.31034,0 0.0548,0 0.21906,0 0,6.95529 -0.31034,0 -0.073,0 -0.0913,0 -0.23732,0 -0.073,0 -0.31035,0 -0.0548,0 -0.21907,0 0,-0.31034 c -0.34685,0.26774 -0.71196,0.41379 -1.09532,0.43812 -0.82149,0.0669 -1.46042,-0.18863 -1.91681,-0.76672 -0.53853,-0.78802 -0.70891,-1.65819 -0.51115,-2.61051 0.17951,-0.92798 0.66632,-1.5304 1.46043,-1.80728 0.78194,-0.23123 1.46955,-0.13387 2.06285,0.29208 l 0,-0.10953 0,-0.23732 0,-0.073 0,-0.31034 0,-0.0548 0,-0.21906 0,-0.20081 0,-0.0913 0,-0.23732 0,-0.073 0,-0.31034 0,-0.0548 0,-0.21907 z m -1.56996,2.99388 c -0.51724,0.13996 -0.80933,0.4503 -0.87626,0.93102 -0.11562,0.4929 -0.0852,0.9432 0.0913,1.3509 0.17342,0.34685 0.43508,0.54157 0.78498,0.58417 0.49289,0.0304 0.87016,-0.14604 1.13183,-0.52941 0.0304,-0.0943 0.0608,-0.17342 0.0913,-0.23732 l 0,-0.0548 0.0183,-0.0913 0,-0.073 0,-0.0913 0,-0.23732 0,-0.073 0,-0.31034 0,-0.0548 0,-0.21906 c -0.18864,-0.64197 -0.60243,-0.94014 -1.24136,-0.89451 z"
           style=""
           id="path2880" />
        <path
           d="m 108.15153,452.14381 c 0.50202,-0.009 0.81236,0.20994 0.93103,0.65719 0.009,0.34382 -0.1065,0.61156 -0.34686,0.80323 -0.5507,0.21907 -0.94015,0.0852 -1.16834,-0.40161 -0.1217,-0.54766 0.073,-0.90059 0.58417,-1.05881 z m -0.21906,2.0446 0.073,0 0.0913,0 0.23732,0 0.073,0 0.31034,0 0.14604,0 0.12779,0 0,4.9837 -0.25558,0 -0.2008,0 -0.0913,0 -0.0548,0 -0.073,0 -0.0548,0 -0.36511,0 -0.0548,0 -0.21906,0 0,-0.0548 0,-0.0913 0,-0.0548 0,-0.073 0,-0.0548 0,-0.36511 0,-0.12779 0,-0.073 0,-0.0913 0,-0.073 0,-0.0913 0,-0.23732 0,-0.073 0,-0.31035 0,-0.0548 0,-0.21907 0,-0.12778 0,-0.12779 0,-0.10953 0,-0.12779 0,-0.10953 0,-0.12779 0,-0.10953 0,-0.31034 0,-0.10953 0,-0.0913 0,-0.10953 0,-0.073 0,-0.3286 0,-0.20081 0,-0.073 0,-0.073 0,-0.073 0,-0.073 0,-0.31034 0,-0.0548 0,-0.21906 z"
           style=""
           id="path2882" />
        <path
           d="m 113.82894,452.18032 0.073,0 0.3286,0 0.073,0 0.073,0 0.073,0 0.31034,0 0.0548,0 0.21906,0 0,5.58613 0.0548,0 0.0548,0 0.0548,0 0.23732,0 0.31034,0 0.0548,0 0.21906,0 0.23732,0 0.073,0 0.31034,0 0.0548,0 0.21906,0 0.20081,0 0.0913,0 0.23732,0 0.073,0 0.31034,0 0.0548,0 0.21906,0 0,1.38741 -0.12779,0 -0.10953,0 -0.12779,0 -0.3651,0 -0.14605,0 -0.14604,0 -0.14604,0 -0.14604,0 -0.36511,0 -0.0548,0 -0.0548,0 -0.56592,0 -0.12779,0 -0.10953,0 -0.12778,0 -0.10954,0 -0.0913,0 -0.10954,0 -0.073,0 -0.32859,0 -0.20081,0 -0.073,0 -0.073,0 -0.073,0 -0.073,0 -0.31034,0 -0.0548,0 -0.21907,0 0,-0.0548 0,-0.073 0,-0.0548 0,-0.073 0,-0.32859 0,-0.14605 0,-0.14604 0,-0.0548 0,-0.36511 0,-0.073 0,-0.0913 0,-0.073 0,-0.0913 0,-0.23732 0,-0.073 0,-0.31034 0,-0.0548 0,-0.21906 0,-0.073 0,-0.0913 0,-0.23732 0,-0.073 0,-0.31034 0,-0.0548 0,-0.21907 0,-0.12779 0,-0.14604 0,-0.14604 0,-0.14604 0,-0.0548 0,-0.0548 0,-0.56591 0,-0.12779 0,-0.10953 0,-0.12779 0,-0.10953 0,-0.0913 0,-0.10953 0,-0.073 0,-0.3286 0,-0.20081 0,-0.073 0,-0.073 0,-0.073 0,-0.073 0,-0.31034 0,-0.0548 0,-0.21906 z"
           style=""
           id="path2884" />
        <path
           d="m 121.0398,452.18032 0.23732,0 0.56592,0 0.25557,0 0.0548,0 0.0913,0 0.0548,0 0.073,0 0.0548,0 0.3651,0 0,0.0548 c 0.0517,0.10954 0.0882,0.20691 0.10954,0.29209 l 0.0365,0.12779 0.0182,0.073 c 0.0122,0.0183 0.0183,0.0365 0.0183,0.0548 0.0122,0.0183 0.0183,0.0365 0.0183,0.0548 0.0122,0.0183 0.0182,0.0365 0.0183,0.0548 0.0304,0.0487 0.0487,0.0974 0.0548,0.14604 l 0.10954,0.29208 0,0.0548 c 0.0578,0.11258 0.0943,0.21603 0.10953,0.31034 0.0578,0.13388 0.0943,0.2495 0.10953,0.34685 0.0182,0.0365 0.0304,0.073 0.0365,0.10953 l 0.0365,0.073 c 0.0182,0.0609 0.0365,0.10953 0.0548,0.14604 l 0,0.0548 c 0.0122,0.0183 0.0182,0.0365 0.0182,0.0548 0.0304,0.0487 0.0487,0.0974 0.0548,0.14604 l 0.10953,0.29209 0.0183,0.073 0.0183,0.0365 0.0365,0.1643 0.0365,0.073 0.0365,0.0913 0.0183,0.0548 0.0182,0.073 0.0365,0.10954 c 0.0183,0.0609 0.0365,0.10953 0.0548,0.14604 l 0,0.0548 c 0.0122,0.0183 0.0182,0.0365 0.0183,0.0548 0.0304,0.0487 0.0487,0.0974 0.0548,0.14604 l 0.10953,0.29209 0.0183,0.10953 0.0548,0.10953 0.0365,0.10954 0,0.0548 0.0365,0.0548 0.0183,0.073 0.0183,0.0913 c 0.0943,0.21602 0.15516,0.39857 0.18255,0.54766 0.0122,0.0183 0.0182,0.0365 0.0183,0.0548 0.0943,0.21603 0.15516,0.39858 0.18255,0.54766 l 0.0365,0.0548 0.0183,0.073 0.0182,0.073 0.0183,0.0548 0.0183,0.073 c 0.0122,0.0183 0.0182,0.0365 0.0183,0.0548 0.0122,0.0183 0.0182,0.0365 0.0182,0.0548 0.0122,0.0183 0.0183,0.0365 0.0183,0.0548 l 0.0365,0.0548 0,0.0548 c 0.0122,0.0182 0.0182,0.0365 0.0182,0.0548 0.0304,0.0487 0.0487,0.0974 0.0548,0.14605 0.0396,0.0913 0.0639,0.1643 0.073,0.21906 l 0.0365,0.10953 -0.10953,0 -0.073,0 -0.3286,0 -0.20081,0 -0.073,0 -0.073,0 -0.073,0 -0.073,0 -0.31034,0 -0.0548,0 -0.21906,0 -0.0365,-0.10953 0,-0.073 -0.0365,-0.0548 0,-0.0548 c -0.0365,-0.0669 -0.0548,-0.12779 -0.0548,-0.18256 l -0.0365,-0.0548 0,-0.0548 -0.0183,-0.073 -0.0548,-0.12779 -0.12779,-0.45638 -0.3286,0 -0.3651,0 -0.12779,0 -0.10953,0 -0.0913,0 -0.10953,0 -0.073,0 -0.3286,0 -0.20081,0 -0.073,0 -0.073,0 -0.073,0 -0.073,0 -0.31034,0 -0.0548,0 -0.21906,0 -0.0183,0.0913 -0.0182,0.0913 -0.0365,0.073 c -0.0152,0.0669 -0.0335,0.12779 -0.0548,0.18256 l -0.0183,0.0913 -0.0182,0.0365 -0.0548,0.18255 -0.0182,0.073 -0.0183,0.0548 c -0.0213,0.0639 -0.0396,0.11257 -0.0548,0.14604 l -0.0548,0.21906 -0.073,0 -0.073,0 -0.0548,0 -0.36511,0 -0.0548,0 -0.3286,0 -0.0548,0 -0.56592,0 0.0365,-0.14604 0.0548,-0.18255 0.0182,-0.0548 0.0183,-0.0548 0.0182,-0.0548 0.0183,-0.0365 0.0913,-0.29209 0.0183,-0.0548 0.0183,-0.0548 0.0182,-0.073 0.0365,-0.073 0.0548,-0.20081 0.0183,-0.0548 0.0183,-0.0548 0.0182,-0.0548 0.0183,-0.0365 c 0.0365,-0.13995 0.073,-0.24949 0.10953,-0.3286 l 0.0365,-0.12778 0.0183,-0.0365 c 0.0365,-0.13996 0.073,-0.24949 0.10953,-0.3286 0.0152,-0.0609 0.0335,-0.10953 0.0548,-0.14604 l 0.0365,-0.14605 0.0548,-0.12778 0.0365,-0.14605 0.0183,-0.0365 c 0.0365,-0.13995 0.073,-0.24948 0.10953,-0.32859 l 0.0365,-0.14604 0.14604,-0.40162 0.0365,-0.12779 0.0183,-0.0548 0.0183,-0.0548 c 0.0365,-0.11561 0.073,-0.21298 0.10953,-0.29209 l 0.0365,-0.10953 0.0182,-0.0548 0,-0.0548 0.0183,-0.0548 0.12779,-0.32859 0.0182,-0.10954 0.0365,-0.0913 0.0365,-0.073 c 0.0243,-0.11561 0.0548,-0.21298 0.0913,-0.29209 l 0.0182,-0.0913 0.0183,-0.0548 0.0183,-0.0365 c 0.0365,-0.13995 0.073,-0.24948 0.10953,-0.3286 l 0.0182,-0.073 0.0183,-0.073 c 0.0335,-0.07 0.0578,-0.13691 0.073,-0.20081 l 0.0548,-0.18255 0.0182,-0.0548 0.14604,-0.41987 z m 0.78498,1.60647 -0.0548,0.20081 -0.0182,0.0365 -0.0913,0.32859 -0.10953,0.31034 -0.0182,0.0365 -0.10954,0.40162 -0.0182,0.073 -0.10953,0.31034 -0.0365,0.0913 c -0.0122,0.0974 -0.0365,0.18256 -0.073,0.25558 -0.009,0.07 -0.0274,0.13691 -0.0548,0.2008 l -0.0183,0.073 c -0.0243,0.073 -0.0487,0.13387 -0.073,0.18255 l -0.10953,0.40162 0.0548,0 0.073,0 0.073,0 0.073,0 0.073,0 0.31034,0 0.0548,0 0.21906,0 0.073,0 0.20081,0 0.0913,0 0.0548,0 0.073,0 0.0548,0 0.36511,0 -0.0365,-0.14605 -0.10953,-0.34685 -0.0913,-0.31034 c -0.0456,-0.11561 -0.0761,-0.21297 -0.0913,-0.29208 l -0.0182,-0.0365 c -0.0243,-0.0882 -0.0487,-0.16126 -0.073,-0.21907 l -0.0183,-0.073 -0.0183,-0.073 -0.0365,-0.0913 -0.0182,-0.10953 -0.0183,-0.073 -0.0365,-0.0548 -0.0182,-0.10953 -0.0183,-0.073 c -0.0183,-0.0365 -0.0304,-0.073 -0.0365,-0.10953 l -0.0182,-0.073 c -0.0457,-0.0913 -0.0761,-0.17647 -0.0913,-0.25558 l -0.0183,-0.0548 -0.0182,-0.0365 -0.0365,-0.16429 -0.0183,-0.0548 -0.0913,-0.23732 z"
           style=""
           id="path2886" />
        <path
           d="m 126.53466,452.16206 0.25558,0 0.0913,0 0.073,0 0.3286,0 0.073,0 0.073,0 0.073,0 0.31035,0 0.0548,0 0.21907,0 0.073,0.12779 0.073,0.10953 0.073,0.10953 0.073,0.10954 0.073,0.10953 0.0548,0.0548 0.0182,0.0548 c 0.0152,0.0122 0.0213,0.0243 0.0183,0.0365 0.0882,0.0943 0.14908,0.1856 0.18255,0.27383 0.0882,0.0943 0.14908,0.1856 0.18256,0.27383 l 0.073,0.0913 0.073,0.10953 c 0.0335,0.0548 0.0639,0.0974 0.0913,0.12779 l 0.0183,0.0548 c 0.0456,0.0487 0.0761,0.0974 0.0913,0.14605 0.12169,0.13692 0.20689,0.2647 0.25557,0.38336 l 0.073,0.10953 c 0.0152,0.0122 0.0213,0.0243 0.0183,0.0365 0.0913,0.10345 0.15821,0.19473 0.20081,0.27383 l 0.073,0.10953 0.0548,0.10953 0.073,0.10954 0.073,0.073 0.0548,0.0913 0.0365,0.0913 c 0.0791,0.0791 0.13387,0.15822 0.1643,0.23732 l 0.0548,0.073 0.0365,0.073 0.0548,0.0548 c 0.0578,0.0852 0.1004,0.15822 0.12779,0.21906 l 0.0548,0.0548 0.0365,0.0548 0.0182,0.0548 0.0365,0.0183 c 0.0395,0.0882 0.0821,0.15517 0.12779,0.20081 l 0.0183,0.0548 c 0.0152,0.0122 0.0213,0.0244 0.0182,0.0365 0.11257,0.12475 0.19168,0.24037 0.23732,0.34685 l 0.0183,-0.12778 0,-0.12779 0,-0.14604 0,-0.073 0,-0.3286 0,-0.20081 0,-0.073 0,-0.073 0,-0.073 0,-0.073 0,-0.31034 0,-0.0548 0,-0.21907 0,-0.10953 0,-0.31034 0,-0.0548 0,-0.21907 0,-0.23732 0,-0.073 0,-0.31034 0,-0.0548 0,-0.21906 0,-0.20081 0,-0.0913 0,-0.23732 0,-0.073 0,-0.31034 0,-0.0548 0,-0.21907 0.23732,0 0.073,0 0.32859,0 0.073,0 0.073,0 0.073,0 0.31034,0 0.0548,0 0.21907,0 0,6.97354 -0.0548,0 -0.21906,0 -0.18255,0 -0.12779,0 -0.10953,0 -0.0913,0 -0.073,0 -0.073,0 -0.073,0 -0.0548,0 -0.0548,0 -0.0548,0 -0.0365,0 0.0365,0 -0.0365,0 -0.14605,0 -0.0548,0 -0.23732,0 -0.0183,-0.0365 c -0.0426,-0.0548 -0.073,-0.10344 -0.0913,-0.14604 -0.0152,-0.0122 -0.0213,-0.0243 -0.0183,-0.0365 -0.11258,-0.12475 -0.19169,-0.24036 -0.23732,-0.34685 -0.0152,-0.0122 -0.0213,-0.0243 -0.0183,-0.0365 l -0.073,-0.10954 c -0.0639,-0.073 -0.11258,-0.14604 -0.14605,-0.21906 l -0.0913,-0.10953 -0.073,-0.12779 -0.073,-0.12779 c -0.0821,-0.0913 -0.143,-0.17646 -0.18255,-0.25557 l -0.0365,-0.0365 c -0.0487,-0.10649 -0.10345,-0.19168 -0.1643,-0.25558 l -0.0182,-0.0365 -0.0365,-0.0548 -0.16429,-0.25558 c -0.0426,-0.0548 -0.073,-0.10344 -0.0913,-0.14604 -0.0152,-0.0122 -0.0213,-0.0243 -0.0183,-0.0365 l -0.0365,-0.0183 -0.073,-0.12778 -0.0182,-0.0365 c -0.0426,-0.0548 -0.073,-0.10344 -0.0913,-0.14604 -0.0274,-0.0304 -0.0456,-0.0609 -0.0548,-0.0913 l -0.073,-0.073 -0.073,-0.10953 -0.0365,-0.0913 -0.0365,-0.0183 -0.073,-0.12779 -0.1643,-0.23732 -0.0365,-0.073 -0.0365,-0.073 -0.0548,-0.0548 -0.0365,-0.0548 -0.0182,-0.0548 c -0.0609,-0.0669 -0.10954,-0.12778 -0.14604,-0.18255 l -0.0365,-0.073 c -0.0517,-0.07 -0.0882,-0.13083 -0.10953,-0.18256 -0.0213,-0.0122 -0.0335,-0.0243 -0.0365,-0.0365 l -0.0365,-0.0365 -0.0182,-0.0365 -0.073,-0.12779 -0.16429,-0.23731 0,4.67336 -0.23732,0 -0.073,0 -0.3286,0 -0.073,0 -0.073,0 -0.073,0 -0.31035,0 -0.0548,0 -0.21907,0 0,-0.0548 0,-0.073 0,-0.0548 0,-0.073 0,-0.3286 0,-0.14604 0,-0.14604 0,-0.0548 0,-0.36511 0,-0.073 0,-0.0913 0,-0.073 0,-0.0913 0,-0.23732 0,-0.073 0,-0.31034 0,-0.0548 0,-0.21906 0,-0.073 0,-0.0913 0,-0.23732 0,-0.073 0,-0.31034 0,-0.0548 0,-0.21906 0,-0.12779 0,-0.14604 0,-0.14605 0,-0.14604 0,-0.0548 0,-0.0548 0,-0.56592 0,-0.12778 0,-0.10954 0,-0.12778 0,-0.10954 0,-0.0913 0,-0.10953 0,-0.073 0,-0.32859 0,-0.20081 0,-0.073 0,-0.073 0,-0.073 0,-0.073 0,-0.31034 0,-0.0548 0,-0.21907 z"
           style=""
           id="path2888" />
        <path
           d="m 134.2019,452.19857 0.36511,0 0.10953,0 0.12779,0 0.3651,0 0.14605,0 0.14604,0 0.14604,0 0.14605,0 0.3651,0 0.0548,0 0.0548,0 0.56592,0 0.12779,0 0.10953,0 0.12779,0 0.10953,0 0.0913,0 0.10953,0 0.073,0 0.32859,0 0.20081,0 0.073,0 0.073,0 0.073,0 0.073,0 0.31034,0 0.0548,0 0.21906,0 0,1.46043 -0.0913,0.0913 -0.073,0.0913 -0.073,0.12779 -0.073,0.0913 -0.0913,0.10953 c -0.0122,0.0213 -0.0243,0.0335 -0.0365,0.0365 l -0.0183,0.0548 -0.0365,0.0182 -0.0183,0.0548 -0.0548,0.0365 c -0.0609,0.11562 -0.13387,0.21298 -0.21906,0.29208 l -0.073,0.12779 c -0.0426,0.0396 -0.073,0.0761 -0.0913,0.10953 l -0.0913,0.10954 -0.073,0.10953 -0.0913,0.10953 c -0.0669,0.10041 -0.12779,0.17952 -0.18256,0.23732 l -0.0365,0.073 -0.0365,0.0365 -0.0365,0.0548 -0.14604,0.1643 -0.0183,0.0365 -0.0182,0.0365 c -0.0487,0.0517 -0.0852,0.1004 -0.10953,0.14604 l -0.0913,0.0913 -0.0548,0.073 -0.0548,0.0913 -0.0548,0.073 -0.073,0.0913 -0.0548,0.073 -0.10953,0.14605 c -0.0426,0.0548 -0.0791,0.0974 -0.10953,0.12778 l -0.0548,0.0913 -0.0548,0.0548 -0.0365,0.073 -0.073,0.073 -0.0365,0.0548 c -0.0426,0.0669 -0.0852,0.12171 -0.12779,0.1643 l -0.0365,0.073 -0.0365,0.0183 -0.0183,0.0548 -0.0365,0.0183 -0.0182,0.0365 -0.18256,0.23732 0.14604,0 0.073,0 0.32859,0 0.31034,0 0.0548,0 0.21906,0 0.23732,0 0.073,0 0.31034,0 0.0548,0 0.21906,0 0.20081,0 0.0913,0 0.23732,0 0.073,0 0.31034,0 0.0548,0 0.21906,0 0,1.29613 c 0.0182,0.0852 -0.006,0.13387 -0.073,0.14604 l -0.12779,0 -0.12778,0 -0.12779,0 -0.0548,0 -0.0548,0 -0.23732,0 -0.0548,0 -0.0913,0 -0.0548,0 -0.073,0 -0.0548,0 -0.36511,0 -0.14604,0 -0.25557,0 -0.0548,0 -0.0913,0 -0.0548,0 -0.073,0 -0.0548,0 -0.36511,0 -0.31034,0 -0.0548,0 -0.21907,0 -0.073,0 -0.0548,0 -0.36511,0 -0.073,0 -0.0548,0 -0.32859,0 -0.23732,0 -0.073,0 -0.31034,0 -0.0548,0 -0.21907,0 0,-0.0548 0,-0.23732 0,-0.31034 0,-0.20081 0,-0.073 0,-0.31034 0,-0.0548 0,-0.21906 0.0913,-0.0913 0.073,-0.12779 0.0548,-0.073 0.0365,-0.0548 0.0365,-0.0182 0.0182,-0.0548 0.0365,-0.0365 0.0365,-0.0365 c 0.07,-0.10649 0.13691,-0.19168 0.2008,-0.25557 l 0.073,-0.12779 0.0365,-0.0183 c 0.0761,-0.12169 0.14908,-0.21906 0.21906,-0.29208 l 0.0365,-0.073 0.0365,-0.0365 0.0365,-0.0548 0.0365,-0.0365 c 0.0122,-0.0213 0.0243,-0.0335 0.0365,-0.0365 l 0.21907,-0.31034 0.0913,-0.0913 0.0183,-0.0548 0.0548,-0.0365 0.0182,-0.0365 0.073,-0.10953 0.20081,-0.25557 0.073,-0.10953 0.0548,-0.073 0.18255,-0.21906 0.0183,-0.0548 0.0365,-0.0183 0.0182,-0.0365 0.14605,-0.20081 c 0.0487,-0.0517 0.0852,-0.1004 0.10953,-0.14604 0.0548,-0.0639 0.0974,-0.11866 0.12779,-0.1643 l 0.0365,-0.0548 0.0548,-0.073 0.0548,-0.0365 0.0182,-0.0548 0.0365,-0.0365 0.0365,-0.0548 0.0183,-0.0365 0.0365,-0.0183 0.0365,-0.073 0.0365,-0.0365 0.0183,-0.0365 0.0365,-0.0183 c 0.0456,-0.0852 0.0882,-0.15212 0.12779,-0.2008 l -0.12779,0 -0.25558,0 -0.0548,0 -0.0913,0 -0.0548,0 -0.073,0 -0.0548,0 -0.36511,0 -0.23732,0 -0.12779,0 -0.25557,0 -0.0548,0 -0.32859,0 -0.23732,0 -0.073,0 -0.31034,0 -0.0548,0 -0.21906,0 0,-0.23732 0,-0.073 0,-0.32859 0,-0.073 0,-0.073 0,-0.073 0,-0.31034 0,-0.0548 0,-0.21907 z"
           style=""
           id="path2890" />
        <path
           d="m 143.27481,451.99776 c 2.06589,0.0152 3.2464,1.07403 3.54153,3.17643 0.13083,1.88639 -0.53245,3.17643 -1.98983,3.87014 -1.40871,0.51115 -2.60747,0.31034 -3.5963,-0.60243 -1.05273,-1.18659 -1.34481,-2.54966 -0.87626,-4.0892 0.51115,-1.46346 1.48477,-2.24844 2.92086,-2.35494 z m 0.0365,1.38741 c -1.16835,0.22211 -1.70384,1.07403 -1.60647,2.55575 0.0456,0.87626 0.40466,1.49694 1.07706,1.86204 l 0.0548,0 c 0.0578,0.0335 0.11257,0.0517 0.1643,0.0548 l 0.0365,0.0183 0.21906,0.0548 c 1.28396,-0.0122 1.95332,-0.66936 2.00809,-1.97158 0.11257,-1.6734 -0.53854,-2.5314 -1.95332,-2.574 z"
           style=""
           id="path2892" />
        <path
           d="m 150.41264,452.16206 0.073,0 0.0548,0 0.073,0 0.3286,0 0.073,0 0.32859,0 0.10954,0 0.12778,0 0.36511,0 0.14604,0 0.14605,0 0.14604,0 0.14604,0 0.36511,0 0.0548,0 0.0548,0 0.56591,0 0.12779,0 0.10953,0 0.12779,0 0.10953,0 0.0913,0 0.10953,0 0.073,0 0.3286,0 0.20081,0 0.073,0 0.073,0 0.073,0 0.073,0 0.31034,0 0.0548,0 0.21906,0 0,1.38741 -0.10953,0 -0.0548,0 -0.36511,0 -0.23732,0 -0.073,0 -0.3286,0 -0.073,0 -0.073,0 -0.073,0 -0.31034,0 -0.0548,0 -0.21906,0 0,5.60439 -0.23732,0 -0.073,0 -0.3286,0 -0.073,0 -0.073,0 -0.073,0 -0.31034,0 -0.0548,0 -0.21906,0 0,-0.12779 0,-0.0548 0,-0.0913 0,-0.0548 0,-0.073 0,-0.0548 0,-0.3651 0,-0.073 0,-0.3286 0,-0.10953 0,-0.12779 0,-0.36511 0,-0.14604 0,-0.14604 0,-0.14604 0,-0.14605 0,-0.3651 0,-0.0548 0,-0.0548 0,-0.56591 0,-0.12779 0,-0.10953 0,-0.12779 0,-0.10953 0,-0.0913 0,-0.10953 0,-0.073 0,-0.3286 0,-0.20081 0,-0.073 0,-0.073 0,-0.073 0,-0.073 0,-0.31034 0,-0.0548 0,-0.21906 -0.10954,0 -0.0548,0 -0.36511,0 -0.23732,0 -0.073,0 -0.3286,0 -0.073,0 -0.073,0 -0.073,0 -0.31034,0 -0.0548,0 -0.21906,0 0,-0.36511 0,-0.0913 0,-0.0548 0,-0.073 0,-0.073 0,-0.073 0,-0.073 0,-0.31034 0,-0.0548 0,-0.21907 z"
           style=""
           id="path2894" />
        <path
           d="m 159.64985,451.99776 c 2.06589,0.0152 3.2464,1.07403 3.54153,3.17643 0.13082,1.88639 -0.53245,3.17643 -1.98983,3.87014 -1.40871,0.51115 -2.60747,0.31034 -3.5963,-0.60243 -1.05273,-1.18659 -1.34481,-2.54966 -0.87626,-4.0892 0.51115,-1.46346 1.48477,-2.24844 2.92086,-2.35494 z m 0.0365,1.38741 c -1.16835,0.22211 -1.70384,1.07403 -1.60647,2.55575 0.0456,0.87626 0.40465,1.49694 1.07706,1.86204 l 0.0548,0 c 0.0578,0.0335 0.11257,0.0517 0.1643,0.0548 l 0.0365,0.0183 0.21906,0.0548 c 1.28395,-0.0122 1.95332,-0.66936 2.00809,-1.97158 0.11257,-1.6734 -0.53854,-2.5314 -1.95332,-2.574 z"
           style=""
           id="path2896" />
        <path
           d="m 164.99865,452.16206 0.14605,0 0.3651,0 0.0548,0 0.0548,0 0.56592,0 0.12779,0 0.0548,0 0.23732,0 0.31034,0 0.073,0 0.073,0 0.32859,0 0.25558,0 0.0548,0 0.0548,0 0.0548,0 0.12779,0 0.073,0 0.0548,0 0.0548,0 c 0.0882,0.0152 0.16125,0.0213 0.21906,0.0183 l 0.21906,0.0365 0.0365,0.0182 0.0548,0 0.0365,0.0183 0.27383,0.0913 c 0.55983,0.29513 0.93102,0.70283 1.11358,1.2231 0.35901,1.28397 -0.0609,2.20282 -1.25962,2.75656 l 0.0365,0.0183 c 0.0578,0.11866 0.11257,0.21602 0.1643,0.29208 l 0.0548,0.10953 c 0.0243,0.0396 0.0426,0.0761 0.0548,0.10953 l 0.073,0.10954 c 0.073,0.10953 0.12778,0.20689 0.1643,0.29208 0.073,0.0913 0.1217,0.17647 0.14604,0.25558 0.0761,0.0974 0.13083,0.18255 0.1643,0.25557 0.0426,0.07 0.073,0.13083 0.0913,0.18255 l 0.0365,0.0548 0.0365,0.073 0.0548,0.0548 0.12779,0.23732 c 0.0396,0.0639 0.07,0.11866 0.0913,0.1643 l 0.0365,0.0548 0.0182,0.0365 0.0365,0.0365 0.0183,0.0548 c 0.11257,0.16734 0.19167,0.31338 0.23732,0.43813 l -0.12779,0 -0.25557,0 -0.0548,0 -0.3286,0 -0.23731,0 -0.073,0 -0.31034,0 -0.0548,0 -0.21907,0 -0.0182,-0.0365 -0.0365,-0.0365 -0.0183,-0.0365 -0.12779,-0.21907 -0.0183,-0.0548 c -0.0578,-0.07 -0.0943,-0.13692 -0.10953,-0.20081 -0.073,-0.0761 -0.12171,-0.15517 -0.14605,-0.23732 -0.073,-0.0913 -0.1217,-0.17647 -0.14604,-0.25558 l -0.0548,-0.073 -0.0548,-0.10953 -0.0365,-0.073 c -0.0761,-0.0913 -0.13084,-0.17038 -0.1643,-0.23732 -0.0426,-0.0943 -0.0852,-0.17342 -0.12779,-0.23732 l -0.0182,-0.0548 c -0.07,-0.0761 -0.11867,-0.15516 -0.14604,-0.23732 l -0.0365,-0.0548 -0.0182,-0.0548 -0.0365,-0.0182 -0.0548,-0.12779 c -0.0152,-0.0122 -0.0213,-0.0243 -0.0183,-0.0365 -0.0913,-0.11866 -0.15822,-0.22819 -0.20081,-0.3286 l -0.073,0 -0.20081,0 -0.0913,0 -0.0548,0 -0.073,0 -0.0548,0 -0.36511,0 0,2.72005 -0.23732,0 -0.073,0 -0.32859,0 -0.073,0 -0.073,0 -0.073,0 -0.31034,0 -0.0548,0 -0.21906,0 0,-0.073 0,-0.3286 0,-0.14604 0,-0.14605 0,-0.0548 0,-0.073 0,-0.3286 0,-0.0548 0,-0.3651 0,-0.14604 0,-0.073 0,-0.32859 0,-0.0548 0,-0.0548 0,-0.56592 0,-0.12779 0,-0.0548 0,-0.073 0,-0.3286 0,-0.25558 0,-0.0548 0,-0.0913 0,-0.0548 0,-0.073 0,-0.0548 0,-0.36511 0,-0.31034 0,-0.0548 0,-0.21907 0,-0.23732 0,-0.073 0,-0.31034 0,-0.0548 0,-0.21906 0,-0.20081 0,-0.0913 0,-0.23732 0,-0.073 0,-0.31034 0,-0.0548 0,-0.21907 z m 1.29613,2.95737 0.0913,0 0.12779,0 0.25557,0 0.0548,0 0.32859,0 0.23732,0 0.073,0 0.31034,0 0.0548,0 0.21906,0 0.21907,-0.0548 c 0.36206,-0.22514 0.52027,-0.5294 0.47464,-0.91277 -0.0882,-0.27382 -0.24645,-0.47463 -0.47464,-0.60242 l -0.0548,0 -0.0365,-0.0183 -0.23732,-0.0548 -0.0913,0 -0.25558,0 -0.0913,0 -0.073,0 -0.32859,0 -0.073,0 -0.073,0 -0.073,0 -0.31034,0 -0.0548,0 -0.21907,0 z"
           style=""
           id="path2898" />
        <path
           d="m 172.41033,452.19857 0.073,0 0.32859,0 0.073,0 0.073,0 0.073,0 0.31034,0 0.0548,0 0.21907,0 0,6.97354 -0.23732,0 -0.073,0 -0.3286,0 -0.073,0 -0.073,0 -0.073,0 -0.31034,0 -0.0548,0 -0.21906,0 0,-0.0548 0,-0.073 0,-0.0548 0,-0.073 0,-0.3286 0,-0.14604 0,-0.14604 0,-0.0548 0,-0.36511 0,-0.073 0,-0.0913 0,-0.073 0,-0.0913 0,-0.23732 0,-0.073 0,-0.31034 0,-0.0548 0,-0.21906 0,-0.073 0,-0.0913 0,-0.23732 0,-0.073 0,-0.31034 0,-0.0548 0,-0.21906 0,-0.12779 0,-0.14604 0,-0.14605 0,-0.14604 0,-0.0548 0,-0.0548 0,-0.56592 0,-0.12778 0,-0.10954 0,-0.12778 0,-0.10954 0,-0.0913 0,-0.10953 0,-0.073 0,-0.32859 0,-0.20081 0,-0.073 0,-0.073 0,-0.073 0,-0.073 0,-0.31034 0,-0.0548 0,-0.21907 z"
           style=""
           id="path2900" />
        <path
           d="m 175.86058,452.16206 0.25558,0 0.0913,0 0.073,0 0.3286,0 0.073,0 0.073,0 0.073,0 0.31035,0 0.0548,0 0.21907,0 0.073,0.12779 0.073,0.10953 0.073,0.10953 0.073,0.10954 0.073,0.10953 0.0548,0.0548 0.0183,0.0548 c 0.0152,0.0122 0.0213,0.0243 0.0183,0.0365 0.0882,0.0943 0.14908,0.1856 0.18255,0.27383 0.0882,0.0943 0.14908,0.1856 0.18256,0.27383 l 0.073,0.0913 0.073,0.10953 c 0.0335,0.0548 0.0639,0.0974 0.0913,0.12779 l 0.0183,0.0548 c 0.0456,0.0487 0.0761,0.0974 0.0913,0.14605 0.1217,0.13692 0.20689,0.2647 0.25557,0.38336 l 0.073,0.10953 c 0.0152,0.0122 0.0213,0.0243 0.0183,0.0365 0.0913,0.10345 0.15821,0.19473 0.20081,0.27383 l 0.073,0.10953 0.0548,0.10953 0.073,0.10954 0.073,0.073 0.0548,0.0913 0.0365,0.0913 c 0.0791,0.0791 0.13387,0.15822 0.1643,0.23732 l 0.0548,0.073 0.0365,0.073 0.0548,0.0548 c 0.0578,0.0852 0.1004,0.15822 0.12779,0.21906 l 0.0548,0.0548 0.0365,0.0548 0.0183,0.0548 0.0365,0.0183 c 0.0395,0.0882 0.0821,0.15517 0.12779,0.20081 l 0.0183,0.0548 c 0.0152,0.0122 0.0213,0.0244 0.0182,0.0365 0.11257,0.12475 0.19168,0.24037 0.23732,0.34685 l 0.0183,-0.12778 0,-0.12779 0,-0.14604 0,-0.073 0,-0.3286 0,-0.20081 0,-0.073 0,-0.073 0,-0.073 0,-0.073 0,-0.31034 0,-0.0548 0,-0.21907 0,-0.10953 0,-0.31034 0,-0.0548 0,-0.21907 0,-0.23732 0,-0.073 0,-0.31034 0,-0.0548 0,-0.21906 0,-0.20081 0,-0.0913 0,-0.23732 0,-0.073 0,-0.31034 0,-0.0548 0,-0.21907 0.23732,0 0.073,0 0.32859,0 0.073,0 0.073,0 0.073,0 0.31034,0 0.0548,0 0.21906,0 0,6.97354 -0.0548,0 -0.21906,0 -0.18255,0 -0.12779,0 -0.10953,0 -0.0913,0 -0.073,0 -0.073,0 -0.073,0 -0.0548,0 -0.0548,0 -0.0548,0 -0.0365,0 0.0365,0 -0.0365,0 -0.14605,0 -0.0548,0 -0.23732,0 -0.0183,-0.0365 c -0.0426,-0.0548 -0.073,-0.10344 -0.0913,-0.14604 -0.0152,-0.0122 -0.0213,-0.0243 -0.0183,-0.0365 -0.11258,-0.12475 -0.19169,-0.24036 -0.23732,-0.34685 -0.0152,-0.0122 -0.0213,-0.0243 -0.0182,-0.0365 l -0.073,-0.10954 c -0.0639,-0.073 -0.11258,-0.14604 -0.14605,-0.21906 l -0.0913,-0.10953 -0.073,-0.12779 -0.073,-0.12779 c -0.0822,-0.0913 -0.143,-0.17646 -0.18255,-0.25557 l -0.0365,-0.0365 c -0.0487,-0.10649 -0.10345,-0.19168 -0.1643,-0.25558 l -0.0182,-0.0365 -0.0365,-0.0548 -0.16429,-0.25558 c -0.0426,-0.0548 -0.073,-0.10344 -0.0913,-0.14604 -0.0152,-0.0122 -0.0213,-0.0243 -0.0183,-0.0365 l -0.0365,-0.0183 -0.073,-0.12778 -0.0182,-0.0365 c -0.0426,-0.0548 -0.073,-0.10344 -0.0913,-0.14604 -0.0274,-0.0304 -0.0456,-0.0609 -0.0548,-0.0913 l -0.073,-0.073 -0.073,-0.10953 -0.0365,-0.0913 -0.0365,-0.0183 -0.073,-0.12779 -0.1643,-0.23732 -0.0365,-0.073 -0.0365,-0.073 -0.0548,-0.0548 -0.0365,-0.0548 -0.0183,-0.0548 c -0.0609,-0.0669 -0.10954,-0.12778 -0.14604,-0.18255 l -0.0365,-0.073 c -0.0517,-0.07 -0.0882,-0.13083 -0.10953,-0.18256 -0.0213,-0.0122 -0.0335,-0.0243 -0.0365,-0.0365 l -0.0365,-0.0365 -0.0182,-0.0365 -0.073,-0.12779 -0.16429,-0.23731 0,4.67336 -0.23732,0 -0.073,0 -0.3286,0 -0.073,0 -0.073,0 -0.073,0 -0.31035,0 -0.0548,0 -0.21907,0 0,-0.0548 0,-0.073 0,-0.0548 0,-0.073 0,-0.3286 0,-0.14604 0,-0.14604 0,-0.0548 0,-0.36511 0,-0.073 0,-0.0913 0,-0.073 0,-0.0913 0,-0.23732 0,-0.073 0,-0.31034 0,-0.0548 0,-0.21906 0,-0.073 0,-0.0913 0,-0.23732 0,-0.073 0,-0.31034 0,-0.0548 0,-0.21906 0,-0.12779 0,-0.14604 0,-0.14605 0,-0.14604 0,-0.0548 0,-0.0548 0,-0.56592 0,-0.12778 0,-0.10954 0,-0.12778 0,-0.10954 0,-0.0913 0,-0.10953 0,-0.073 0,-0.32859 0,-0.20081 0,-0.073 0,-0.073 0,-0.073 0,-0.073 0,-0.31034 0,-0.0548 0,-0.21907 z"
           style=""
           id="path2902" />
        <path
           d="m 184.14851,452.18032 0.073,0 0.31034,0 0.0548,0 0.21906,0 0.36511,0 0.073,0 0.3286,0 0.0548,0 0.0548,0 0.56591,0 0.31035,0 0.14604,0 0.12779,0 0.073,0 0.0548,0 0.36511,0 0.073,0 0.0548,0 0.32859,0 0.23732,0 0.073,0 0.31034,0 0.0548,0 0.21906,0 0,1.3874 -0.3651,0 -0.10953,0 -0.31034,0 -0.0548,0 -0.21906,0 -0.23732,0 -0.073,0 -0.31034,0 -0.0548,0 -0.21907,0 -0.20081,0 -0.0913,0 -0.23732,0 -0.073,0 -0.31034,0 -0.0548,0 -0.21906,0 0,1.40566 0.0548,0 0.36511,0 0.23732,0 0.073,0 0.3286,0 0.073,0 0.073,0 0.073,0 0.31034,0 0.14604,0 0.12779,0 0.0913,0 0.23732,0 0.073,0 0.31034,0 0.0548,0 0.21906,0 0,1.29613 -0.25558,0 -0.0548,0 -0.0913,0 -0.0548,0 -0.073,0 -0.0548,0 -0.36511,0 -0.23732,0 -0.12779,0 -0.25557,0 -0.0548,0 -0.32859,0 -0.23732,0 -0.073,0 -0.31034,0 -0.0548,0 -0.21906,0 0,1.46043 c 0.0243,0.0517 0.0669,0.07 0.12778,0.0548 l 0.14605,0 0.3651,0 0.10954,0 0.31034,0 0.0548,0 0.21907,0 0.23732,0 0.073,0 0.31034,0 0.0548,0 0.21907,0 0.20081,0 0.0913,0 0.23732,0 0.073,0 0.31034,0 0.0548,0 0.21906,0 0,1.3874 -0.0548,0 -0.073,0 -0.31034,0 -0.0548,0 -0.21906,0 -0.36511,0 -0.14604,0 -0.14605,0 -0.14604,0 -0.14604,0 -0.36511,0 -0.0548,0 -0.0548,0 -0.56592,0 -0.12778,0 -0.10953,0 -0.12779,0 -0.10953,0 -0.0913,0 -0.10953,0 -0.073,0 -0.3286,0 -0.20081,0 -0.073,0 -0.073,0 -0.073,0 -0.073,0 -0.31035,0 -0.0548,0 -0.21907,0 0,-0.073 0,-0.32859 0,-0.14605 0,-0.14604 0,-0.0548 0,-0.073 0,-0.32859 0,-0.0548 0,-0.36511 0,-0.14604 0,-0.073 0,-0.3286 0,-0.0548 0,-0.0548 0,-0.56591 0,-0.12779 0,-0.0548 0,-0.073 0,-0.32859 0,-0.25558 0,-0.0548 0,-0.0913 0,-0.0548 0,-0.073 0,-0.0548 0,-0.3651 0,-0.31034 0,-0.0548 0,-0.21906 0,-0.23732 0,-0.073 0,-0.31034 0,-0.0548 0,-0.21906 0,-0.20081 0,-0.0913 0,-0.23732 0,-0.073 0,-0.31034 0,-0.0548 0,-0.21906 z"
           style=""
           id="path2904" />
        <path
           d="m 193.27618,451.99776 c 1.25657,-0.0304 2.27887,0.35295 3.0669,1.15009 l -0.0365,0.0365 -0.18256,0.14604 -0.0365,0.0548 -0.0548,0.0548 -0.073,0.0365 -0.0548,0.0548 -0.0548,0.0548 -0.0365,0.0548 -0.073,0.0365 c -0.0426,0.0578 -0.0791,0.10041 -0.10953,0.12778 l -0.10953,0.073 -0.0183,0.0365 -0.0365,0.0183 c -0.0639,0.0791 -0.12475,0.13996 -0.18255,0.18255 -0.76673,-0.62676 -1.55779,-0.82756 -2.3732,-0.60242 -0.0456,0.0426 -0.0943,0.073 -0.14604,0.0913 -0.0669,0.07 -0.12779,0.12476 -0.18255,0.1643 l -0.0183,0.0365 -0.0913,0.21907 c 0.006,0.24341 0.0852,0.43813 0.23732,0.58417 l 0.31034,0.10953 0.29208,0.0548 c 0.0913,0.0304 0.17038,0.0487 0.23732,0.0548 l 0.073,0.0183 0.073,0.0183 0.073,0.0183 0.073,0.0182 0.0913,0.0365 0.0548,0 0.073,0.0183 0.0913,0.0365 0.073,0.0183 0.0548,0 c 0.07,0.0274 0.13082,0.0456 0.18255,0.0548 l 0.14604,0.0365 c 0.0578,0.0274 0.10649,0.0456 0.14604,0.0548 l 0.0548,0.0183 0.23732,0.0913 0.0365,0.0365 c 0.11865,0.0548 0.21602,0.11562 0.29209,0.18255 0.0213,0.0122 0.0335,0.0243 0.0365,0.0365 l 0.0365,0.0183 c 0.0548,0.0396 0.0974,0.0761 0.12778,0.10953 0.0761,0.0578 0.13691,0.11258 0.18256,0.1643 0.4442,0.61764 0.55374,1.25658 0.32859,1.91681 -0.24036,0.67545 -0.66632,1.11966 -1.27787,1.33264 -1.9016,0.58417 -3.4533,0.21298 -4.65511,-1.11358 l 0.0548,-0.073 0.073,-0.0365 c 0.0213,-0.0274 0.0456,-0.0456 0.073,-0.0548 0.0487,-0.0639 0.10344,-0.10649 0.1643,-0.12779 0.0213,-0.0274 0.0456,-0.0456 0.073,-0.0548 0.0213,-0.0274 0.0456,-0.0456 0.073,-0.0548 l 0.0365,-0.0548 0.0548,-0.0365 0.0365,-0.0365 0.0548,-0.0365 0.0548,-0.0183 0.0365,-0.0548 0.0365,-0.0183 0.0365,-0.0365 0.0365,-0.0182 0.0365,-0.0183 0.25558,-0.21906 c 0.80627,0.79106 1.70687,1.07706 2.70179,0.858 l 0.0548,-0.0365 0.0548,-0.0183 0.0182,-0.0365 0.27383,-0.18255 c 0.0426,-0.10345 0.0852,-0.18864 0.12779,-0.25558 0.0365,-0.33163 -0.0669,-0.59329 -0.31034,-0.78498 l -0.073,-0.0183 -0.0548,-0.0365 -0.073,-0.0183 -0.14604,-0.0365 -0.0548,0 -0.073,-0.0182 -0.0365,-0.0183 c -0.11258,-0.0182 -0.20994,-0.0426 -0.29209,-0.073 l -0.0548,0 -0.0548,-0.0183 -0.14604,-0.0365 c -0.15213,-0.0183 -0.27992,-0.0487 -0.38336,-0.0913 -1.18964,-0.15517 -1.84683,-0.77585 -1.97158,-1.86205 0.0274,-1.37218 0.8367,-2.14499 2.42796,-2.31843 z"
           style=""
           id="path2906" />
        <path
           d="m 198.13209,452.18032 0.073,0 0.31034,0 0.0548,0 0.21906,0 0.36511,0 0.073,0 0.3286,0 0.0548,0 0.0548,0 0.56592,0 0.31034,0 0.14604,0 0.12779,0 0.073,0 0.0548,0 0.36511,0 0.073,0 0.0548,0 0.32859,0 0.23732,0 0.073,0 0.31034,0 0.0548,0 0.21907,0 0,1.3874 -0.36511,0 -0.10953,0 -0.31034,0 -0.0548,0 -0.21906,0 -0.23732,0 -0.073,0 -0.31034,0 -0.0548,0 -0.21906,0 -0.20081,0 -0.0913,0 -0.23732,0 -0.073,0 -0.31034,0 -0.0548,0 -0.21906,0 0,1.40566 0.0548,0 0.36511,0 0.23732,0 0.073,0 0.3286,0 0.073,0 0.073,0 0.073,0 0.31034,0 0.14605,0 0.12778,0 0.0913,0 0.23732,0 0.073,0 0.31034,0 0.0548,0 0.21906,0 0,1.29613 -0.25557,0 -0.0548,0 -0.0913,0 -0.0548,0 -0.073,0 -0.0548,0 -0.36511,0 -0.23732,0 -0.12778,0 -0.25558,0 -0.0548,0 -0.3286,0 -0.23732,0 -0.073,0 -0.31034,0 -0.0548,0 -0.21906,0 0,1.46043 c 0.0243,0.0517 0.0669,0.07 0.12779,0.0548 l 0.14604,0 0.3651,0 0.10954,0 0.31034,0 0.0548,0 0.21907,0 0.23732,0 0.073,0 0.31034,0 0.0548,0 0.21906,0 0.20081,0 0.0913,0 0.23732,0 0.073,0 0.31034,0 0.0548,0 0.21907,0 0,1.3874 -0.0548,0 -0.073,0 -0.31034,0 -0.0548,0 -0.21906,0 -0.36511,0 -0.14604,0 -0.14604,0 -0.14605,0 -0.14604,0 -0.36511,0 -0.0548,0 -0.0548,0 -0.56591,0 -0.12779,0 -0.10953,0 -0.12779,0 -0.10953,0 -0.0913,0 -0.10953,0 -0.073,0 -0.3286,0 -0.20081,0 -0.073,0 -0.073,0 -0.073,0 -0.073,0 -0.31034,0 -0.0548,0 -0.21906,0 0,-0.073 0,-0.32859 0,-0.14605 0,-0.14604 0,-0.0548 0,-0.073 0,-0.32859 0,-0.0548 0,-0.36511 0,-0.14604 0,-0.073 0,-0.3286 0,-0.0548 0,-0.0548 0,-0.56591 0,-0.12779 0,-0.0548 0,-0.073 0,-0.32859 0,-0.25558 0,-0.0548 0,-0.0913 0,-0.0548 0,-0.073 0,-0.0548 0,-0.3651 0,-0.31034 0,-0.0548 0,-0.21906 0,-0.23732 0,-0.073 0,-0.31034 0,-0.0548 0,-0.21906 0,-0.20081 0,-0.0913 0,-0.23732 0,-0.073 0,-0.31034 0,-0.0548 0,-0.21906 z"
           style=""
           id="path2908" />
        <path
           d="m 205.79934,451.07587 c 2.00504,1.04361 3.03342,2.59531 3.08515,4.65511 -0.073,1.96854 -0.88843,3.40462 -2.44622,4.30826 l -0.0548,0.0548 -0.0548,0.0182 c -0.0122,0.0213 -0.0243,0.0335 -0.0365,0.0365 l -0.0365,0.0365 -0.0365,0.0183 -0.12779,0.073 -0.23732,0.1643 -0.073,-0.0365 -0.0182,-0.073 -0.0548,-0.073 -0.0365,-0.0548 -0.0365,-0.073 -0.0365,-0.0365 -0.073,-0.12779 c -0.0335,-0.0609 -0.0578,-0.11562 -0.073,-0.1643 l -0.0365,-0.0183 c -0.0578,-0.11866 -0.11257,-0.21602 -0.16429,-0.29209 1.46955,-0.95536 2.18759,-2.23932 2.15413,-3.85188 -0.11867,-1.65514 -0.83671,-2.85391 -2.15413,-3.5963 l 0.10953,-0.20081 0.0365,-0.0548 0.0182,-0.0548 0.0365,-0.0365 0.0365,-0.0913 0.0365,-0.0365 0.0365,-0.0548 0.0183,-0.0548 0.0365,-0.0365 0.0183,-0.0548 c 0.073,-0.10953 0.12778,-0.20689 0.1643,-0.29209 z"
           style=""
           id="path2910" />
      </g>
    </g>
  </g>
</svg>
