<?xml version="1.0" encoding="UTF-8" standalone="no"?>
<!-- Created with Inkscape (http://www.inkscape.org/) -->

<svg
   xmlns:dc="http://purl.org/dc/elements/1.1/"
   xmlns:cc="http://creativecommons.org/ns#"
   xmlns:rdf="http://www.w3.org/1999/02/22-rdf-syntax-ns#"
   xmlns:svg="http://www.w3.org/2000/svg"
   xmlns="http://www.w3.org/2000/svg"
   xmlns:sodipodi="http://sodipodi.sourceforge.net/DTD/sodipodi-0.dtd"
   xmlns:inkscape="http://www.inkscape.org/namespaces/inkscape"
   version="1.0"
   width="430"
   height="395"
   id="svg8545"
   inkscape:version="0.92.3 (2405546, 2018-03-11)"
   sodipodi:docname="Italian_traffic_signs_-_Inizio_autostrada.svg">
  <metadata
     id="metadata78">
    <rdf:RDF>
      <cc:Work
         rdf:about="">
        <dc:format>image/svg+xml</dc:format>
        <dc:type
           rdf:resource="http://purl.org/dc/dcmitype/StillImage" />
        <dc:title></dc:title>
      </cc:Work>
    </rdf:RDF>
  </metadata>
  <sodipodi:namedview
     pagecolor="#ffffff"
     bordercolor="#666666"
     borderopacity="1"
     objecttolerance="10"
     gridtolerance="10"
     guidetolerance="10"
     inkscape:pageopacity="0"
     inkscape:pageshadow="2"
     inkscape:window-width="1280"
     inkscape:window-height="970"
     id="namedview76"
     showgrid="false"
     inkscape:zoom="1.2021897"
     inkscape:cx="147.04749"
     inkscape:cy="273.24844"
     inkscape:window-x="0"
     inkscape:window-y="0"
     inkscape:window-maximized="1"
     inkscape:current-layer="svg8545" />
  <defs
     id="defs8548" />
  <rect
     style="opacity:1;fill:#08842c;fill-opacity:1;fill-rule:evenodd;stroke:none;stroke-width:1.08615196;stroke-linecap:round;stroke-linejoin:round;stroke-miterlimit:4;stroke-dasharray:none;stroke-dashoffset:0;stroke-opacity:0.31372549;paint-order:normal"
     id="rect951"
     width="430"
     height="395"
     x="0"
     y="0" />
  <g
     id="g1087"
     transform="translate(657.56427,-198.2774)">
    <path
       inkscape:connector-curvature="0"
       style="fill:none;stroke:#ffffff;stroke-width:5.1391573;stroke-linecap:round;stroke-linejoin:miter;stroke-miterlimit:4;stroke-dasharray:none;stroke-dashoffset:0;stroke-opacity:1"
       id="rect3685"
       d="m -630.10042,205.33033 h 136.9335 c 10.52619,0 19.00034,10.9727 19.00034,24.60247 v 331.70908 c 0,13.62977 -8.47415,24.60248 -19.00034,24.60248 h -136.9335 c -10.52619,0 -19.00035,-10.97271 -19.00035,-24.60248 V 229.9328 c 0,-13.62977 8.47416,-24.60247 19.00035,-24.60247 z" />
    <path
       d="m -440.23784,205.32487 h 179.31464 c 13.78409,0 24.88099,10.96719 24.88099,24.59011 v 331.54249 c 0,13.62292 -11.0969,24.59012 -24.88099,24.59012 h -179.31464 c -13.78406,0 -24.88099,-10.9672 -24.88099,-24.59012 V 229.91498 c 0,-13.62292 11.09693,-24.59011 24.88099,-24.59011 z"
       id="rect9067"
       style="fill:none;stroke:#ffffff;stroke-width:5.16802216;stroke-linecap:round;stroke-linejoin:miter;stroke-miterlimit:4;stroke-dashoffset:0;stroke-opacity:1"
       inkscape:connector-curvature="0" />
    <path
       d="m -450.58598,501.84855 h 199.04783 v 55.11577 h -199.04783 z"
       id="rect9075"
       style="fill:#ffffff;fill-opacity:1;fill-rule:nonzero;stroke:none;stroke-width:1.00589693"
       inkscape:connector-curvature="0" />
    <path
       d="m -449.78057,366.90033 h 199.04783 v 55.11577 h -199.04783 z"
       id="rect9071"
       style="fill:#ffffff;fill-opacity:1;fill-rule:nonzero;stroke:none;stroke-width:1.00589693"
       inkscape:connector-curvature="0" />
    <path
       d="m -449.11333,225.06129 h 199.04783 v 55.11577 h -199.04783 z"
       id="rect3901"
       style="fill:#ffffff;fill-opacity:1;fill-rule:nonzero;stroke:none;stroke-width:1.00589693"
       inkscape:connector-curvature="0" />
    <path
       d="m -449.78057,294.85509 h 199.04783 v 55.11577 h -199.04783 z"
       id="rect3949"
       style="fill:#ffffff;fill-opacity:1;fill-rule:nonzero;stroke:none;stroke-width:1.00589693"
       inkscape:connector-curvature="0" />
    <path
       d="m -386.22859,323.12816 a 25.710701,25.410135 0 1 1 -51.4214,0 25.710701,25.410135 0 1 1 51.4214,0 z"
       id="path1873"
       style="fill:none;fill-opacity:1;fill-rule:evenodd;stroke:none;stroke-width:1.00589693"
       inkscape:connector-curvature="0" />
    <path
       d="m -386.4857,323.12816 a 25.453586,25.156025 0 0 1 -50.90717,0 25.453586,25.156025 0 1 1 50.90717,0 z"
       id="path1875"
       style="fill:none;fill-opacity:1;fill-rule:evenodd;stroke:none;stroke-width:1.00589693"
       inkscape:connector-curvature="0" />
    <path
       d="m -411.93929,298.48034 c -13.77363,0 -24.93937,11.0352 -24.93937,24.64782 0,13.61262 11.16574,24.64782 24.93937,24.64782 13.77364,0 24.93937,-11.0352 24.93938,-24.64782 0,-13.61262 -11.16574,-24.64782 -24.93938,-24.64782 z m 0,6.35253 c 10.21846,0 18.5117,8.19629 18.5117,18.29529 0,10.099 -8.29324,18.29529 -18.5117,18.29529 -10.21845,0 -18.5117,-8.19629 -18.5117,-18.29529 0,-10.099 8.29325,-18.29529 18.5117,-18.29529 z"
       id="path1877"
       style="fill:#d40000;fill-opacity:1;fill-rule:evenodd;stroke:none;stroke-width:1.00589693"
       inkscape:connector-curvature="0" />
    <path
       d="m -413.94227,311.82387 c -0.43636,2.1e-4 -2.19716,0.18166 -2.40185,1.95837 -0.0265,0.0262 0.0257,0.82234 0.0257,0.82234 h 0.39459 l 1.76708,-0.2289 0.0257,1.77185 -1.90433,1.41579 0.26592,1.05125 4.54637,-3.28938 0.0257,-1.59382 c 0,0 -0.36326,-1.89902 -2.65061,-1.89902 0,-0.003 -0.0321,-0.009 -0.0944,-0.009 z m 2.83935,4.30671 c -0.23008,-0.006 -0.49804,0.0533 -0.81492,0.24586 -0.0265,-10e-6 -4.60642,3.39958 -4.60642,3.39958 h -2.59915 c 0,0 -1.07225,-0.13051 -1.07225,1.07668 0,0 -0.0969,1.12754 0.94358,1.12754 h 3.76576 c 0.77102,-0.56645 1.54868,-1.11584 2.31608,-1.68707 l 2.43617,1.94989 c 0,0 -3.7143,1.67012 -3.7143,1.67012 -0.68029,0.31936 -0.84255,1.07666 -0.51468,1.69556 l 3.22535,5.6801 c 0,0 0.70425,0.79452 1.50973,0.20347 0.0243,-0.024 0.98403,-0.56805 0.46322,-1.54295 -0.0254,0 -2.05016,-3.83196 -2.05016,-3.83196 -0.17007,-0.28574 -0.17934,-0.66619 0.23161,-0.84778 0,0 4.91523,-2.15335 4.91523,-2.15335 0.37415,-0.16809 0.66939,-0.88685 0.0772,-1.61926 0,0 -3.72288,-5.01036 -3.72288,-5.01036 0,0 -0.283,-0.34367 -0.78917,-0.35607 z m -9.99344,7.25698 c -2.76843,0 -5.001,2.23929 -5.001,4.97645 0,2.73389 2.23257,4.93407 5.001,4.93407 2.76954,0 5.03531,-2.19909 5.03531,-4.93407 0,-2.73607 -2.26577,-4.97645 -5.03531,-4.97645 z m 18.27984,0 c -2.76844,0 -5.00101,2.23929 -5.00101,4.97645 0,2.73389 2.23257,4.93407 5.00101,4.93407 2.76843,0 5.03531,-2.19909 5.03531,-4.93407 0,-2.73607 -2.26688,-4.97645 -5.03531,-4.97645 z m -18.27984,1.46665 c 1.95523,0 3.55132,1.57743 3.55132,3.5098 0,1.93128 -1.59609,3.47589 -3.55132,3.47589 -1.95412,0 -3.51701,-1.5457 -3.51701,-3.47589 0,-1.93128 1.56399,-3.5098 3.51701,-3.5098 z m 18.27984,0 c 1.95412,0 3.55131,1.57743 3.55131,3.5098 0,1.93128 -1.59719,3.47589 -3.55131,3.47589 -1.95413,0 -3.51701,-1.5457 -3.51701,-3.47589 0,-1.93128 1.56399,-3.5098 3.51701,-3.5098 z"
       id="path1999"
       style="fill:#000000;stroke:none;stroke-width:1.00589693"
       inkscape:connector-curvature="0" />
    <path
       d="m -258.68161,394.3483 a 26.127218,25.821782 0 1 1 -52.25443,0 26.127218,25.821782 0 1 1 52.25443,0 z"
       id="path1873-8"
       style="fill:none;fill-opacity:1;fill-rule:evenodd;stroke:none;stroke-width:1.00589693"
       inkscape:connector-curvature="0" />
    <path
       d="m -258.94288,394.34829 a 25.865945,25.563564 0 0 1 -51.73189,0 25.865945,25.563564 0 1 1 51.73189,0 z"
       id="path1875-8"
       style="fill:none;fill-opacity:1;fill-rule:evenodd;stroke:none;stroke-width:1.00589693"
       inkscape:connector-curvature="0" />
    <path
       d="m -259.46551,394.34831 a 25.3434,25.04713 0 1 1 -50.6868,0 25.3434,25.04713 0 1 1 50.6868,0 z"
       id="path1877-2"
       style="fill:#d40000;fill-opacity:1;fill-rule:evenodd;stroke:none;stroke-width:1.00589693"
       inkscape:connector-curvature="0" />
    <path
       d="m -265.99723,394.34829 c 0,10.26791 -8.42224,18.59168 -18.81159,18.59168 -10.38935,0 -18.81159,-8.32377 -18.81159,-18.59168 0,-10.2679 8.42224,-18.59167 18.81159,-18.59167 10.38935,0 18.81159,8.32377 18.81159,18.59167 z"
       id="path1874"
       style="fill:#ffffff;fill-opacity:1;fill-rule:evenodd;stroke:none;stroke-width:1.00589693"
       inkscape:connector-curvature="0" />
    <path
       d="m -279.5207,382.95709 c -0.55823,-0.0269 -1.03329,0.39754 -1.06062,0.95057 -0.0273,0.55171 0.40357,1.02128 0.96181,1.04824 0.56092,0.0271 1.03335,-0.39886 1.06063,-0.95057 0.0273,-0.55304 -0.4009,-1.02115 -0.96182,-1.04824 z m 0.49527,2.38297 c -0.0833,-0.002 -0.13943,0.01 -0.13982,0.0175 -0.5059,-0.0244 -0.73337,0.11809 -0.73337,0.11809 0,0 -3.71283,1.2924 -3.74228,1.28965 -0.74115,0.24471 -0.4908,1.04271 -0.42773,1.04576 0.25773,0.60934 0.83914,0.38791 0.83914,0.38792 0,0 1.80602,-0.63356 1.87194,-0.66095 0.32181,-0.14266 0.30233,0.1681 0.30233,0.1681 0,0 -0.0682,0.78037 -0.0387,0.78179 -0.0123,0.25066 -0.23095,0.20698 -0.23095,0.20698 0,0 -2.27332,-0.14036 -2.24262,-0.1083 -0.66559,-0.0321 -0.66718,0.59794 -0.66718,0.59794 0,0 -0.20991,4.24572 -0.2084,4.21522 -0.031,0.62597 0.70258,0.50465 0.6995,0.56699 0.75684,0.0365 0.85474,-0.58888 0.85474,-0.58888 l 0.14504,-2.93373 c 0.0123,-0.25066 0.26516,-0.23764 0.26516,-0.23764 0,0 3.50508,0.20116 3.50666,0.16933 0.44417,0.0215 0.47004,-0.41356 0.47004,-0.41356 0,0 0.22438,-3.93976 0.19485,-3.94119 0.0278,-0.56298 -0.46868,-0.67368 -0.71839,-0.681 z m 11.27757,5.85246 c -0.0392,8.7e-4 -0.0657,0.005 -0.0657,0.005 0,0 -14.32995,-0.66009 -14.32837,-0.69192 -0.44284,-0.0214 -0.43583,0.3829 -0.43583,0.3829 l -0.088,1.78119 c -0.0232,0.46948 0.12882,0.70101 0.12882,0.70101 l 0.77527,3.33364 c 0,0 -7.0378,-0.33986 -7.0378,-0.33986 0,0 0.35118,1.16417 0.35118,1.16417 l 8.38336,0.40484 c -0.0338,0.18249 -0.0593,0.37174 -0.0687,0.56221 -0.1152,2.33017 1.70402,4.31564 4.06443,4.42963 2.3564,0.11379 4.36683,-1.68675 4.48204,-4.01692 0.009,-0.19047 0.003,-0.38127 -0.0129,-0.56615 l 4.27322,0.20636 0.051,-1.03164 c 0,0 -2.25078,-0.10869 -2.25078,-0.10869 0.68338,-1.96612 1.28841,-3.95294 1.98455,-5.91489 0.13162,-0.27481 -0.0883,-0.30345 -0.20585,-0.30078 z m -11.5505,6.77789 2.23448,0.1079 c -0.0897,0.16844 -0.14837,0.35542 -0.15838,0.55788 -0.0366,0.74003 0.54254,1.37538 1.29535,1.41173 0.75147,0.0363 1.39185,-0.54017 1.42844,-1.2802 0.0101,-0.20269 -0.0301,-0.39405 -0.10259,-0.57048 l 2.22631,0.10751 c 0.0185,0.1749 0.0316,0.35319 0.0227,0.5343 -0.0947,1.9164 -1.74203,3.3979 -3.6784,3.30439 -1.93913,-0.0923 -3.43789,-1.72574 -3.34309,-3.64346 0.009,-0.18111 0.0395,-0.35729 0.0753,-0.52957 z"
       id="path3887"
       style="fill:#000000;stroke:none;stroke-width:1.00589693"
       inkscape:connector-curvature="0" />
    <path
       d="m -301.86499,388.7482 c -0.21247,0.0579 0.0408,0.58099 0.0408,0.58099 0.28617,0.53378 -0.15512,0.62174 -0.15512,0.65361 -0.72819,0.21909 -0.38064,0.87955 -0.35109,0.87956 0.15988,0.81261 -0.22003,2.74989 -0.18779,2.71935 -0.41112,0.97196 0.81823,1.22654 0.84913,1.22654 1.23469,0 0.98618,-0.78273 0.95528,-0.78273 -0.22303,-0.47004 0.0943,-1.03461 0.12247,-1.06515 0.38022,-0.56299 0.98753,0 0.95528,0 0.50785,0.50059 0.63179,1.0006 0.66134,1.0006 0.28617,0.62672 0.8573,1.09242 0.8573,1.12163 -0.15718,1.12731 0.18955,1.37985 0.22045,1.37985 0.28482,0.40631 -0.15337,0.53258 -0.12247,0.53258 -1.33008,0.84315 -1.64618,1.53316 -1.61662,1.53316 -0.5374,0.87636 -0.0983,1.03329 -0.13064,1.06515 0.28482,0.43951 0.16329,0.84513 0.16329,0.78273 0.19078,1.22158 0.76109,1.65247 0.79199,1.62193 -0.1263,0.84581 0.25,1.04094 0.22045,1.04094 0.15853,0.21909 0.37558,-0.0646 0.37558,-0.0646 0.19077,-0.59353 0.66444,-1.09742 0.694,-1.09742 0.41245,-0.34391 -0.46715,-0.56486 -0.49805,-0.56486 -0.0631,-0.31203 -0.25311,-0.40172 -0.25311,-0.37118 -0.31707,-0.31337 -0.38199,-0.56312 -0.35109,-0.53258 -0.63278,-1.12731 0.31843,-1.56544 0.31843,-1.56544 1.42547,-0.84449 1.80483,-0.24709 1.83707,-0.21787 0.88672,0.62539 1.35711,2.87267 1.38801,2.87267 0.22303,0.65726 -0.1543,0.78313 -0.0898,0.815 -0.47561,0.43685 -0.4133,0.72624 -0.38375,0.72624 -0.22168,0.56166 1.20105,0.0888 1.26554,0.0888 0.38021,-0.0624 0.12754,-0.3147 0.0979,-0.3147 -0.31841,-0.21909 -4.1e-4,-0.43575 -0.0327,-0.43575 0.0618,-0.28282 0.25311,-0.46802 0.25311,-0.46802 -1.07616,-1.75137 -0.97977,-3.75437 -0.97977,-3.81678 -0.0631,-0.47004 0.37733,-0.16138 0.40823,-0.16138 1.39457,0.46871 3.29639,-0.3762 3.23325,-0.34698 1.52084,-0.31071 0.91486,0.79079 0.94711,0.79079 -0.38156,0.50058 -0.57153,1.50395 -0.57153,1.53317 -0.6637,0.53112 -0.75933,0.96831 -0.75933,0.96831 0,0 -0.66093,1.0006 -0.62869,1.0006 -0.50785,0.53377 -0.38374,0.78313 -0.38374,0.815 -0.0295,0.37709 0.38685,0.18559 0.4164,0.18559 0.28617,-0.28149 1.104,-0.186 1.13491,-0.21787 0.18943,-0.22042 -0.0894,-0.46802 -0.0572,-0.46802 0.41112,-0.15668 0.78557,-1.09743 0.81648,-1.09743 0.41111,-1.09411 1.33085,-1.28302 1.33085,-1.28302 -0.0954,-0.43817 0.0327,-0.75003 0.0327,-0.71816 0.0631,-0.6254 0.66311,-0.3479 0.69401,-0.31471 1.74118,0.24963 1.80482,2.71936 1.83707,2.71936 0.0967,0.47004 -0.28402,0.72624 -0.25311,0.72624 -0.40977,0.28149 -0.37558,0.75044 -0.37558,0.75044 0,0 1.48599,0.0305 1.48599,0 -0.22303,-0.49925 -0.0949,-0.78098 -0.0654,-0.75044 0.25259,-0.0956 0.1633,-0.46802 0.1633,-0.46802 0,0 -0.0979,-0.34525 -0.0979,-0.31471 -0.41246,-0.7834 -0.28577,-1.63 -0.28577,-1.63 0.19078,-1.0317 -0.40824,-1.2154 -0.40824,-1.18618 -0.4447,-0.37577 -0.66951,-0.87956 -0.66951,-0.87956 -0.14116,-0.42062 -0.0197,-0.83869 0.0327,-1.21846 0.0261,-0.18963 -0.0314,-0.4098 -0.0327,-0.37926 -0.0309,-0.32797 0.0602,-0.39938 0.1633,-0.3954 0.10311,0.004 0.22044,0.0888 0.22044,0.0888 0.18944,0.3439 0.11623,0.51476 0.12248,0.68589 0.0172,0.47161 0.50429,0.75839 0.57153,1.21846 0.19663,1.34554 1.61662,1.78679 1.61662,1.84787 0.63279,0.34391 0.50621,-0.37118 0.50621,-0.37118 0.0631,-0.62408 -0.40865,-0.94452 -0.44089,-0.97639 -0.41112,-0.24963 -0.44906,-0.53257 -0.44906,-0.53257 0,0 -0.40824,-1.14585 -0.40824,-1.14585 -0.66504,-2.93179 -1.96047,-2.95203 -1.92689,-2.95336 -0.76042,-0.18855 -1.36351,-0.43748 -1.36351,-0.46802 -1.01167,-0.75021 -2.18991,-0.25015 -2.22081,-0.25015 -0.56965,0.12349 -1.13531,0.003 -1.16756,0.0323 -1.99646,-0.56166 -2.84992,-0.069 -2.88216,-0.0968 -0.94986,0.18456 -2.21906,-1.46903 -2.18815,-1.50089 -1.96422,-2.06607 -3.54351,-1.91202 -3.54351,-1.88015 -0.44335,0.15535 -0.66951,-0.15332 -0.66951,-0.15332 -0.28616,-0.25096 -0.59561,-0.5003 -0.56336,-0.5003 -0.10706,-0.0476 -0.18775,-0.0618 -0.23678,-0.0484 z"
       id="path3885"
       style="fill:#000000;stroke:none;stroke-width:1.00589693"
       inkscape:connector-curvature="0" />
    <path
       d="m -385.82763,394.60968 c 0.002,14.03246 -11.509,25.40926 -25.70982,25.40926 -14.20083,0 -25.71221,-11.3768 -25.70983,-25.40926 -0.002,-14.03246 11.509,-25.40926 25.70983,-25.40926 14.20082,0 25.71219,11.3768 25.70982,25.40926 z"
       id="path1873-5"
       style="fill:none;fill-opacity:1;fill-rule:evenodd;stroke:none;stroke-width:1.00589693"
       inkscape:connector-curvature="0" />
    <path
       d="m -386.08473,394.60968 a 25.45272,25.15517 0 0 1 -50.90544,0 25.45272,25.15517 0 1 1 50.90544,0 z"
       id="path1875-5"
       style="fill:none;fill-opacity:1;fill-rule:evenodd;stroke:none;stroke-width:1.00589693"
       inkscape:connector-curvature="0" />
    <path
       d="m -386.59902,394.60969 a 24.938524,24.646988 0 1 1 -49.87704,0 24.938524,24.646988 0 1 1 49.87704,0 z"
       id="path1877-1"
       style="fill:#d40000;fill-opacity:1;fill-rule:evenodd;stroke:none;stroke-width:1.00589693"
       inkscape:connector-curvature="0" />
    <path
       d="m -393.02639,394.60968 c 0,10.10387 -8.28769,18.29467 -18.51106,18.29467 -10.22338,0 -18.51106,-8.1908 -18.51106,-18.29467 0,-10.10386 8.28768,-18.29466 18.51106,-18.29466 10.22337,0 18.51106,8.1908 18.51106,18.29466 z"
       id="path1874-7"
       style="fill:#ffffff;fill-opacity:1;fill-rule:evenodd;stroke:none;stroke-width:1.00589693"
       inkscape:connector-curvature="0" />
    <path
       d="m -416.47856,387.05042 c -0.22652,0 -0.42555,0.0479 -0.59454,0.14293 -0.16898,0.095 -0.3004,0.24252 -0.36154,0.40496 -0.1223,0.32488 -0.0488,0.6541 0.0482,0.95285 0.15998,0.49293 0.38718,0.79921 0.48206,0.94491 l -2.30585,3.92255 c -0.77713,-0.40466 -1.66436,-0.63523 -2.60311,-0.63523 -3.08633,0 -5.59189,2.47627 -5.59189,5.52651 0,3.05025 2.50556,5.52651 5.59189,5.52652 3.08632,0 5.59188,-2.47628 5.59188,-5.52652 0,-1.88156 -0.95529,-3.54366 -2.4103,-4.5419 l 0.78737,-1.34987 6.39531,5.08979 c -0.0859,0.15587 -0.13082,0.33529 -0.12051,0.51613 l 0.0482,1.02431 c 0.0301,0.54158 0.5042,0.96032 1.0525,0.93697 l 3.82433,-0.19057 c 0.65714,2.3298 2.81724,4.04165 5.38299,4.04166 3.08633,0 5.59189,-2.47628 5.59189,-5.52652 0,-3.05024 -2.50556,-5.52651 -5.59189,-5.52651 -0.91947,0 -1.78943,0.22215 -2.5549,0.61141 l -1.45421,-2.36624 0.8436,-1.40545 c 0.10731,0.012 0.20861,0.0247 0.31333,0.0238 0.42582,-0.003 0.82705,-0.22448 1.05249,-0.50818 0.0564,-0.0709 0.11622,-0.14147 0.13659,-0.23821 0.0203,-0.0967 -0.004,-0.21866 -0.0723,-0.30968 -0.13667,-0.18204 -0.35108,-0.23027 -0.65078,-0.23027 -0.8834,0 -1.70719,0.1232 -2.56295,0.3335 -0.10338,0.0164 -0.17095,0.10313 -0.17676,0.20645 -0.006,0.10331 0.0517,0.19472 0.15265,0.22233 0.3643,0.12356 0.73433,0.26923 1.10874,0.3732 l -0.82754,1.38162 h -10.99898 l 0.71506,-1.20694 c 0.0623,-0.1083 0.0537,-0.23764 -0.0161,-0.34143 0,0 -0.3389,-0.51873 -0.4901,-0.98461 -0.0756,-0.23294 -0.0921,-0.43431 -0.0643,-0.50819 0.0139,-0.0369 0.0264,-0.0502 0.0643,-0.0715 0.0378,-0.0213 0.11896,-0.0476 0.26514,-0.0476 h 3.03697 c 0.18662,0 0.33744,-0.14907 0.33744,-0.3335 0,-0.18443 -0.15082,-0.3335 -0.33744,-0.3335 h -3.03697 z m -0.8436,4.48633 h 10.96684 l -3.30211,5.49475 -0.83556,-0.0635 c -0.037,-0.002 -0.0835,-0.002 -0.12052,0 -0.12106,0.005 -0.231,0.0395 -0.33744,0.0873 l -6.556,-5.22478 0.18479,-0.29379 z m 11.66583,0.12704 1.26138,2.06451 c -1.19608,0.8009 -2.06263,2.05166 -2.35406,3.50171 l -2.17729,-0.15087 z m -16.15701,2.01686 c 0.77581,0 1.50855,0.18556 2.15319,0.51613 l -1.98448,3.37467 c -0.0507,-0.0103 -0.0989,-0.0238 -0.15264,-0.0238 -0.43014,0 -0.77934,0.34511 -0.77934,0.77022 0,0.42511 0.3492,0.77815 0.77934,0.77815 0.43012,0 0.77932,-0.35304 0.77932,-0.77815 0,-0.12524 -0.0266,-0.23688 -0.0803,-0.34144 l 2.00858,-3.43025 c 1.18698,0.84014 1.96038,2.21216 1.96038,3.76375 0,2.5549 -2.09889,4.62924 -4.68401,4.62924 -2.58513,0 -4.68401,-2.07434 -4.68401,-4.62924 0,-2.55491 2.09888,-4.62925 4.68401,-4.62925 z m 20.55177,0 c 2.58514,0 4.68401,2.07435 4.68401,4.62925 0,2.55491 -2.09887,4.62925 -4.68401,4.62925 -2.07364,0 -3.83542,-1.33728 -4.45101,-3.1841 l 4.00109,-0.19851 h 0.13659 c 0.54855,-0.003 1.00048,-0.44247 1.00429,-0.9846 0.003,-0.42016 -0.26735,-0.77676 -0.64275,-0.92109 l -2.13713,-3.48583 c 0.62889,-0.31042 1.33874,-0.48437 2.08892,-0.48437 z m -2.65935,0.8258 1.86396,3.04117 -3.77613,-0.25409 c 0.26234,-1.14989 0.96167,-2.13704 1.91217,-2.78708 z"
       id="path2053"
       style="fill:#000000;fill-opacity:1;fill-rule:evenodd;stroke:none;stroke-width:1.00589693"
       inkscape:connector-curvature="0" />
    <path
       d="m -388.36963,252.27772 c 0.002,13.37545 -10.96832,24.21959 -24.50198,24.21959 -13.53367,0 -24.50424,-10.84414 -24.50198,-24.21959 -0.002,-13.37546 10.96831,-24.2196 24.50198,-24.2196 13.53366,0 24.50424,10.84414 24.50198,24.2196 z"
       id="path1873-1"
       style="fill:none;fill-opacity:1;fill-rule:evenodd;stroke:none;stroke-width:1.00589693"
       inkscape:connector-curvature="0" />
    <path
       d="m -388.61466,252.27772 c 0,13.24013 -10.86021,23.97338 -24.25695,23.97338 -13.39674,0 -24.25695,-10.73325 -24.25695,-23.97338 0,-13.24014 10.86021,-23.97338 24.25695,-23.97338 13.39674,0 24.25695,10.73324 24.25695,23.97338 z"
       id="path1875-52"
       style="fill:none;fill-opacity:1;fill-rule:evenodd;stroke:none;stroke-width:1.00589693"
       inkscape:connector-curvature="0" />
    <path
       d="m -412.87162,228.78865 c -13.1261,0 -23.7669,10.51641 -23.7669,23.48906 0,12.97266 10.6408,23.48907 23.7669,23.48907 13.12611,0 23.76691,-10.51641 23.76691,-23.48907 0,-12.97265 -10.6408,-23.48906 -23.76691,-23.48906 z m 0,6.05388 c 9.73806,0 17.64142,7.81096 17.64142,17.43518 0,9.62423 -7.90336,17.43519 -17.64142,17.43519 -9.73805,0 -17.64141,-7.81096 -17.64141,-17.43519 0,-9.62422 7.90335,-17.43518 17.64141,-17.43518 z"
       id="path1877-7"
       style="fill:#d40000;fill-opacity:1;fill-rule:evenodd;stroke:none;stroke-width:1.00589693"
       inkscape:connector-curvature="0" />
    <path
       d="m -414.73634,241.7355 c -0.41884,-0.0133 -2.11496,0.10376 -2.3685,1.77622 -0.0263,0.0239 -0.002,0.77782 -0.002,0.77782 l 0.37884,0.0122 1.70357,-0.16169 -0.0323,1.67501 -1.87352,1.27892 0.2214,1.00151 4.46981,-2.96761 0.0759,-1.5052 c 0,0 -0.28768,-1.80558 -2.48318,-1.87625 10e-5,-0.003 -0.0306,-0.009 -0.0903,-0.0109 z m 2.58697,4.15707 c -0.22069,-0.0124 -0.47977,0.035 -0.79001,0.20713 -0.0254,-7.9e-4 -4.53108,3.06991 -4.53108,3.06991 l -2.49486,-0.0803 c 0,0 -1.02494,-0.15644 -1.06373,0.98422 0,0 -0.12929,1.0624 0.86952,1.09455 l 3.61455,0.11635 c 0.75834,-0.51142 1.52258,-1.0065 2.2776,-1.52255 l 2.27576,1.91771 c 0,0 -3.61891,1.46332 -3.61891,1.46332 -0.66328,0.28074 -0.84359,0.99129 -0.54855,1.58621 -0.0759,0.0246 2.95701,0.43245 3.00541,0.57788 -0.15396,-0.27524 -0.15059,-0.635 0.24961,-0.79389 0,0 4.78719,-1.88281 4.78719,-1.88281 0.36474,-0.14727 0.67116,-0.81729 0.12632,-1.52763 0,1e-5 -3.41259,-4.84927 -3.41259,-4.84927 0,0 -0.2607,-0.33346 -0.74623,-0.36083 z m -9.82566,6.54829 c -2.65751,-0.0855 -4.8724,1.96137 -4.96036,4.54767 -0.0878,2.58322 1.98439,4.73112 4.64188,4.81666 2.65848,0.0856 4.90393,-1.92233 4.99181,-4.50658 0.0879,-2.58527 -2.01485,-4.77218 -4.67333,-4.85775 z m 17.5467,0.56478 c -2.65748,-0.0855 -4.87238,1.96137 -4.96033,4.54767 -0.0878,2.58323 1.98437,4.73112 4.64187,4.81666 2.65727,0.0855 4.90392,-1.92231 4.9918,-4.50657 0.0879,-2.58527 -2.01607,-4.77223 -4.67334,-4.85776 z m -17.59384,0.82104 c 1.87663,0.0604 3.35804,1.60021 3.29596,3.42608 -0.0621,1.82484 -1.6438,3.23501 -3.52045,3.17461 -1.87588,-0.0604 -3.32649,-1.56919 -3.26446,-3.393 0.062,-1.82483 1.61405,-3.26804 3.48895,-3.20769 z m 17.54671,0.56478 c 1.87564,0.0604 3.35806,1.60022 3.29596,3.42608 -0.062,1.82486 -1.64479,3.23498 -3.52043,3.17462 -1.87592,-0.0604 -3.32626,-1.56918 -3.26424,-3.39299 0.062,-1.82484 1.61404,-3.26805 3.48871,-3.20771 z"
       id="path3299"
       style="fill:#000000;stroke-width:1.00589693"
       inkscape:connector-curvature="0" />
    <path
       d="m -404.80557,256.73177 0.34116,3.51209 -5.77047,-0.4819 c 0.0182,-2.46986 -3.67962,-3.79083 -5.06658,-0.37787 l -5.89128,-0.38642 c -3.89195,-1.7484 -2.48322,-2.85269 0.091,-3.97366 l 4.85105,-1.2463 5.51901,2.65521 5.92612,0.29885 z"
       id="path2511"
       style="fill:#000000;fill-opacity:1;fill-rule:evenodd;stroke:#ffffff;stroke-width:0.56024158;stroke-linecap:butt;stroke-linejoin:miter;stroke-miterlimit:4;stroke-dasharray:none;stroke-opacity:1"
       inkscape:connector-curvature="0" />
    <path
       d="m -405.01845,254.09373 0.1699,2.64198 -6.06319,-0.37062 -5.0162,-2.37105 c -0.51092,-0.78602 -0.0642,-1.24624 0.63527,-1.46898 l 5.15416,1.53319 5.12006,0.0355 z"
       id="path3283"
       style="fill:#000000;fill-opacity:1;fill-rule:evenodd;stroke:#ffffff;stroke-width:0.56024158;stroke-linecap:butt;stroke-linejoin:miter;stroke-miterlimit:4;stroke-dasharray:none;stroke-opacity:1"
       inkscape:connector-curvature="0" />
    <path
       d="m -410.94388,259.60479 a 1.7716296,1.7331338 1.3869995 0 1 -3.52732,0.32429 1.7716296,1.7331338 1.3869995 1 1 3.52732,-0.32429 z"
       id="path3287"
       style="fill:none;stroke:#000000;stroke-width:1.14484155;stroke-linecap:round;stroke-linejoin:round;stroke-miterlimit:4;stroke-dasharray:none;stroke-dashoffset:0;stroke-opacity:1"
       inkscape:connector-curvature="0" />
    <path
       d="m -404.38229,250.79223 c -0.2299,-0.1726 -1.23209,-0.77551 -2.07068,0.0653 -0.0248,0.003 -0.45353,0.64901 -0.45353,0.64901 l 0.25081,0.48117 1.05011,0.22365 -0.23991,0.39964 -1.63577,-0.26963 -0.47869,1.6776 3.2472,0.0948 0.9917,-1.24529 c 0,0 0.58978,-1.12907 -0.61501,-2.03442 10e-4,-0.002 -0.0135,-0.0172 -0.0462,-0.0418 z"
       id="path3289"
       style="fill:#000000;stroke:#ffffff;stroke-width:0.56024158;stroke-miterlimit:4;stroke-dasharray:none;stroke-opacity:1"
       inkscape:connector-curvature="0" />
    <path
       d="m -322.41584,394.7462 c 0.002,14.26263 -11.69582,25.82604 -26.12716,25.82604 -14.43134,0 -26.12956,-11.56341 -26.12715,-25.82604 -0.002,-14.26263 11.69581,-25.82604 26.12715,-25.82604 14.43134,0 26.12956,11.56341 26.12716,25.82604 z"
       id="path1873-6"
       style="fill:none;fill-opacity:1;fill-rule:evenodd;stroke:none;stroke-width:1.00589693"
       inkscape:connector-curvature="0" />
    <path
       d="m -322.67713,394.7462 c 0,14.11833 -11.58054,25.5635 -25.86587,25.5635 -14.28533,0 -25.86587,-11.44517 -25.86587,-25.5635 0,-14.11833 11.58054,-25.56349 25.86587,-25.56349 14.28533,0 25.86587,11.44516 25.86587,25.56349 z"
       id="path1875-1"
       style="fill:none;fill-opacity:1;fill-rule:evenodd;stroke:none;stroke-width:1.00589693"
       inkscape:connector-curvature="0" />
    <path
       d="m -348.543,369.69914 c -13.99673,0 -25.34333,11.21395 -25.34333,25.04706 0,13.83311 11.3466,25.04706 25.34333,25.04706 13.99674,0 25.34333,-11.21395 25.34333,-25.04706 0,-13.83311 -11.34659,-25.04706 -25.34333,-25.04706 z m 0,6.45543 c 10.38397,0 18.81154,8.32905 18.81154,18.59163 0,10.26258 -8.42757,18.59163 -18.81154,18.59163 -10.38397,0 -18.81154,-8.32905 -18.81154,-18.59163 0,-10.26258 8.42757,-18.59163 18.81154,-18.59163 z"
       id="path1877-4"
       style="fill:#d40000;fill-opacity:1;fill-rule:evenodd;stroke:none;stroke-width:1.00589693"
       inkscape:connector-curvature="0" />
    <g
       transform="matrix(0.17989239,0,0,0.17778939,-408.91633,355.22982)"
       id="g3928"
       style="stroke:none">
      <path
         d="m 340.34549,170.82291 c -0.9445,-0.003 -1.87678,0.21351 -2.7229,0.63323 l -10.51164,5.25582 c -0.88208,0.44384 -1.64277,1.09587 -2.21631,1.89969 l -25.89916,35.90421 c -1.95845,2.72784 -1.33473,6.52684 1.39311,8.4853 2.72785,1.95846 6.52685,1.33473 8.4853,-1.39311 l 14.94426,-20.70666 5.50911,13.86776 -33.30796,67.43913 c -1.0702,1.9584 -0.95946,4.33222 0.25329,6.20567 1.21275,1.87347 3.34755,2.96083 5.57244,2.78622 2.22488,-0.17463 4.16023,-1.56971 5.06585,-3.60942 l 29.95183,-60.60023 26.34243,58.8905 c 0.87671,2.00634 2.76139,3.38302 4.9392,3.60942 2.17779,0.22636 4.30178,-0.74981 5.57243,-2.53292 1.27064,-1.7831 1.49481,-4.09443 0.56991,-6.07902 l -28.36876,-63.25981 c -0.2247,-0.52245 -0.47647,-1.02913 -0.8232,-1.45643 l 3.98936,-21.65651 9.75176,10.00506 1.32979,14.37435 c 0.0816,2.2467 1.39734,4.27324 3.41944,5.25582 2.02211,0.98257 4.38889,0.75434 6.20567,-0.56991 1.8168,-1.32424 2.78606,-3.53661 2.4696,-5.76241 l -1.45643,-16.59065 c -0.11907,-1.40604 -0.72352,-2.72687 -1.70972,-3.73607 l -24.37941,-24.82266 c -1.14804,-1.178 -2.72441,-1.84053 -4.36929,-1.83637 z"
         id="path2798"
         style="fill:#000000;fill-opacity:1;fill-rule:evenodd;stroke:none"
         inkscape:connector-curvature="0" />
      <path
         d="m 99.999999,85.068153 a 3.407683,2.9120198 0 1 1 -6.815366,0 3.407683,2.9120198 0 1 1 6.815366,0 z"
         transform="matrix(3.3299777,0,0,3.8967815,7.2124961,-171.70991)"
         id="path1892"
         style="fill:#000000;fill-opacity:1;fill-rule:evenodd;stroke:none"
         inkscape:connector-curvature="0" />
    </g>
    <path
       d="m -374.28236,246.15955 c 0.20578,-0.011 0.38375,1e-5 0.53391,0.033 h 0.10017 0.10017 0.10017 c 0.1446,2e-5 0.26696,0.011 0.36707,0.033 h 0.13348 l 0.56729,0.0989 0.50054,0.0989 v 0.1649 l -0.0668,0.19788 -0.0334,0.13192 -0.0334,0.23086 -0.0334,0.0659 -0.0668,0.39576 -0.0334,0.0989 -0.16685,0.75854 c -0.96216,-0.21986 -1.59619,-0.066 -1.90208,0.46171 v 0.85747 h 0.46717 0.10017 0.16686 0.10017 0.13348 0.10018 0.66738 v 2.04474 h -0.46717 -0.10017 -0.16686 -0.10017 -0.13347 -0.10017 -0.66738 v 7.02468 h -0.6674 -0.16684 -0.10017 -0.13347 -0.13349 -0.13348 -0.13348 -0.56729 -0.10017 -0.40044 v -0.26384 -0.26384 -0.0989 -0.0989 -0.65959 -0.26384 -0.26383 -0.099 -0.0989 -1.02238 -0.23085 -0.19788 -0.23086 -0.19788 -0.1649 -0.19787 -0.13192 -0.59364 -0.36277 -0.13192 -0.13192 -0.13192 -0.13192 -0.56065 -0.0989 -0.39576 h -0.33369 -0.13348 -0.13348 -0.10017 -0.13348 -0.60065 v -0.13192 -0.13192 -0.16489 -0.42874 -0.13192 -0.56065 -0.0989 -0.39576 h 0.3337 0.13348 0.13347 0.10007 0.13348 0.60065 c -0.28364,-2.18764 0.53949,-3.39689 2.46937,-3.62776 z"
       id="path4343"
       style="font-style:normal;font-variant:normal;font-weight:normal;font-stretch:normal;font-size:15px;line-height:100%;font-family:'Transport Heavy';-inkscape-font-specification:'Transport Heavy,';text-align:start;writing-mode:lr-tb;text-anchor:start;fill:#000000;fill-opacity:1;stroke:none;stroke-width:1.00589693"
       inkscape:connector-curvature="0" />
    <path
       d="m -369.44373,246.15955 c 0.91765,-0.0165 1.48494,0.37928 1.70185,1.18727 0.0167,0.62113 -0.19466,1.10483 -0.63402,1.45111 -1.00666,0.39576 -1.71855,0.15391 -2.13567,-0.72556 -0.22247,-0.98938 0.13348,-1.62698 1.06784,-1.91282 z m -0.40045,3.69373 h 0.13348 0.16685 0.43381 0.13349 0.56727 0.26697 0.23359 v 9.00345 h -0.46718 -0.36708 -0.16684 -0.10017 -0.13348 -0.10018 -0.6674 -0.10017 -0.40043 v -0.0989 -0.1649 -0.0989 -0.13192 -0.0989 -0.65959 -0.23086 -0.13192 -0.1649 -0.13191 -0.1649 -0.42874 -0.13192 -0.56065 -0.0989 -0.39576 -0.23085 -0.23086 -0.19788 -0.23086 -0.19788 -0.23085 -0.19788 -0.56066 -0.19788 -0.16489 -0.19788 -0.13192 -0.59364 -0.36277 -0.13192 -0.13192 -0.13192 -0.13192 -0.56065 -0.0989 -0.39576 z"
       id="path4345"
       style="font-style:normal;font-variant:normal;font-weight:normal;font-stretch:normal;font-size:15px;line-height:100%;font-family:'Transport Heavy';-inkscape-font-specification:'Transport Heavy,';text-align:start;writing-mode:lr-tb;text-anchor:start;fill:#000000;fill-opacity:1;stroke:none;stroke-width:1.00589693"
       inkscape:connector-curvature="0" />
    <path
       d="m -361.06792,249.58944 c 1.52388,-0.0495 2.71407,0.56616 3.57056,1.84686 l 0.0334,0.0989 0.0334,0.0989 0.0334,0.0989 c 0.0556,0.0934 0.0889,0.1814 0.10017,0.26384 l 0.13348,0.39576 v 0.0989 c 0.0779,0.39576 0.11117,0.71456 0.10018,0.95641 v 5.37569 h -0.6674 -0.16685 -0.10017 -0.13348 -0.13348 -0.13347 -0.13348 -0.56729 -0.10007 -0.40043 v -0.0989 -0.1649 -0.0989 -0.13192 -0.0989 -0.65959 -0.46172 -0.36278 -0.1649 -0.0989 -0.13191 -0.099 -0.65959 -0.13192 -0.36277 -0.3298 -0.59364 -0.0989 -0.0989 -0.13191 -0.59364 -0.13192 c -0.0555,-0.1374 -0.0889,-0.25833 -0.10017,-0.36277 -0.26697,-0.46171 -0.62292,-0.75853 -1.06784,-0.89046 -0.92323,-0.022 -1.60176,0.32981 -2.03555,1.05535 l -0.0668,0.23086 v 5.67251 h -0.6674 -0.16685 -0.10007 -0.13348 -0.13347 -0.13348 -0.13349 -0.56727 -0.10017 -0.40044 v -0.0989 -0.1649 -0.0989 -0.13192 -0.0989 -0.65959 -0.23086 -0.13192 -0.16489 -0.13192 -0.1649 -0.42874 -0.13192 -0.56065 -0.0989 -0.39576 -0.23085 -0.23086 -0.19788 -0.23086 -0.19788 -0.23085 -0.19788 -0.56066 -0.19788 -0.16489 -0.19788 -0.13192 -0.59363 -0.36278 -0.13192 -0.13192 -0.13192 -0.13192 -0.56065 -0.0989 -0.39575 h 0.6674 0.16684 0.10017 0.13349 0.13348 0.13348 0.13347 0.5673 0.10017 0.40043 c -0.0114,0.22537 0,0.41225 0.0334,0.56065 0.55616,-0.43422 1.1457,-0.69806 1.7686,-0.79151 z"
       id="path4347"
       style="font-style:normal;font-variant:normal;font-weight:normal;font-stretch:normal;font-size:15px;line-height:100%;font-family:'Transport Heavy';-inkscape-font-specification:'Transport Heavy,';text-align:start;writing-mode:lr-tb;text-anchor:start;fill:#000000;fill-opacity:1;stroke:none;stroke-width:1.00589693"
       inkscape:connector-curvature="0" />
    <path
       d="m -351.19047,249.45752 c 2.19128,-0.0165 3.65955,0.88496 4.40483,2.70433 0.0779,0.099 0.13347,0.19789 0.16684,0.29682 0.4783,1.91283 0.24471,3.59479 -0.70077,5.04589 -1.32924,1.51157 -2.90874,2.00627 -4.73851,1.48409 -1.92432,-0.6486 -2.96991,-2.00077 -3.13675,-4.0565 -0.16686,-3.14406 1.16794,-4.96893 4.00436,-5.47463 z m 0.13349,2.20964 c -1.21244,0.51669 -1.74636,1.44012 -1.60175,2.77029 -0.0334,1.41264 0.55616,2.24812 1.76859,2.50646 1.45715,-0.0989 2.11342,-1.15429 1.96883,-3.16605 -0.17242,-1.39064 -0.88431,-2.0942 -2.13567,-2.1107 z"
       id="path4349"
       style="font-style:normal;font-variant:normal;font-weight:normal;font-stretch:normal;font-size:15px;line-height:100%;font-family:'Transport Heavy';-inkscape-font-specification:'Transport Heavy,';text-align:start;writing-mode:lr-tb;text-anchor:start;fill:#000000;fill-opacity:1;stroke:none;stroke-width:1.00589693"
       inkscape:connector-curvature="0" />
    <path
       d="m -336.14069,249.45752 c 1.52389,-0.0989 2.79194,0.27484 3.80417,1.12131 l 0.0334,0.0659 c 0.0889,0.10994 0.15571,0.21988 0.20022,0.3298 0.1168,0.1704 0.19465,0.32431 0.23359,0.46172 v 0.13191 c 0.0668,0.21438 0.10007,0.40127 0.10007,0.56066 v 3.23201 c -0.0223,0.54417 -10e-6,0.99489 0.0668,1.35217 0.27252,0.28033 0.58396,0.45622 0.93436,0.52767 l -0.0668,0.0989 -0.0668,0.1649 -0.0668,0.13192 -0.0334,0.0989 -0.0334,0.0989 -0.0668,0.0989 -0.13348,0.3298 -0.0668,0.0989 -0.0334,0.0989 -0.0334,0.0989 -0.0334,0.066 -0.23359,0.49469 c -0.98998,0.005 -1.73524,-0.30231 -2.23578,-0.92343 -0.95105,0.93443 -2.13011,1.16528 -3.5372,0.69257 -1.29586,-0.35178 -2.05224,-1.1323 -2.26915,-2.34155 0.0114,-1.7754 0.8565,-2.80877 2.53612,-3.1001 0.0889,-0.0549 0.17796,-0.0879 0.26695,-0.0989 h 0.10017 c 0.0334,-0.022 0.0668,-0.033 0.10018,-0.033 l 0.10017,-0.033 0.60066,-0.0989 0.26695,-0.033 0.10017,-0.033 0.56729,-0.033 c 0.30032,-0.044 0.54503,-0.055 0.73413,-0.033 0.0834,-1.22574 -0.5951,-1.64348 -2.03555,-1.25323 l -0.10017,0.033 -0.26696,0.033 -0.23359,0.0989 -0.10017,0.033 -0.3337,0.0989 c -0.17241,0.11543 -0.32814,0.19239 -0.46718,0.23085 -0.1891,0.14292 -0.37819,0.24186 -0.56729,0.29682 l -0.23358,-0.42873 -0.0668,-0.033 -0.0334,-0.0989 -0.0668,-0.066 -0.0334,-0.0989 c -0.1446,-0.16489 -0.2447,-0.31879 -0.30032,-0.46171 -0.0889,-0.0824 -0.1446,-0.17039 -0.16685,-0.26384 -0.14462,-0.13741 -0.2336,-0.28032 -0.26697,-0.42874 l 0.0668,-0.033 0.10017,-0.066 0.0668,-0.033 c 0.15017,-0.0989 0.28364,-0.17588 0.40044,-0.23086 0.0889,-0.0605 0.17797,-0.0934 0.26696,-0.0989 l 0.0668,-0.066 c 0.20579,-0.0934 0.38376,-0.15939 0.53391,-0.19788 l 0.0668,-0.0659 h 0.10017 c 0.1057,-0.066 0.19465,-0.10993 0.26695,-0.13192 h 0.10007 c 0.15017,-0.0769 0.29477,-0.12091 0.43382,-0.13192 0.30587,-0.12641 0.59508,-0.19237 0.86761,-0.19788 l 0.10017,-0.033 z m 1.60175,5.44165 h -0.10017 c -0.13348,0.0385 -0.24472,0.0605 -0.3337,0.066 h -0.10017 c -0.0334,0.022 -0.0668,0.033 -0.10017,0.033 l -0.13348,0.033 h -0.10017 l -0.13347,0.033 -0.20023,0.033 c -0.0334,0.022 -0.0668,0.033 -0.10017,0.033 l -0.13347,0.033 -0.10018,0.033 c -0.31146,0.077 -0.55617,0.15391 -0.73414,0.23086 -0.23359,0.30781 -0.30033,0.62661 -0.20022,0.95641 0.55616,0.76953 1.35705,0.90144 2.40264,0.39575 l 0.26695,-0.39575 0.0334,-0.13192 v -0.13192 -0.0989 -0.1649 -0.0989 -0.13192 -0.0989 -0.65959 h -0.10017 z"
       id="path4351"
       style="font-style:normal;font-variant:normal;font-weight:normal;font-stretch:normal;font-size:15px;line-height:100%;font-family:'Transport Heavy';-inkscape-font-specification:'Transport Heavy,';text-align:start;writing-mode:lr-tb;text-anchor:start;fill:#000000;fill-opacity:1;stroke:none;stroke-width:1.00589693"
       inkscape:connector-curvature="0" />
    <path
       d="m -315.65164,246.02763 c 3.04777,-0.2913 4.83862,0.85199 5.37254,3.42989 0.23358,1.74243 -0.17798,3.20453 -1.23468,4.3863 -0.0389,0.0715 -0.0834,0.12643 -0.13348,0.1649 l -0.0334,0.0659 c -0.19466,0.24735 -0.37263,0.43424 -0.53392,0.56066 -0.17798,0.23086 -0.3782,0.39576 -0.60065,0.49469 l -0.0334,0.066 c -0.26141,0.19239 -0.48387,0.3353 -0.6674,0.42874 l -0.10017,0.0989 -0.13348,0.066 -0.10017,0.0659 -0.10018,0.066 -0.0668,0.066 -0.10017,0.033 c -0.0223,0.0385 -0.0445,0.0605 -0.0668,0.066 l -0.0668,0.0659 -0.23359,0.13191 c -0.13348,0.0605 -0.24471,0.12643 -0.3337,0.19788 h 0.23359 0.10017 0.13348 0.10017 0.16686 0.10017 0.13347 0.10018 0.6674 0.13348 0.13348 0.10017 0.60065 0.4338 0.13349 0.56729 0.10017 0.40044 v 2.01176 c 0.006,0.12643 -0.0167,0.24735 -0.0668,0.36278 h -0.10017 -0.10018 -1.03445 -0.13349 -0.16684 -0.13348 -0.16685 -0.4338 -0.13348 -0.56729 -0.10017 -0.40044 -0.23359 -0.23359 -0.20022 -0.23359 -0.20022 -0.23359 -0.20021 -0.56728 -0.20022 -0.16685 -0.20022 -0.13348 -0.60066 -0.36707 -0.13347 -0.13348 -0.13349 -0.13348 -0.56727 -0.10017 -0.40045 v -0.1649 -0.13192 -0.1649 -0.13191 -0.1649 -0.42874 -0.13192 -0.56065 -0.0989 -0.39576 l 0.40045,-0.26383 0.13347,-0.0659 0.16685,-0.066 0.16684,-0.13192 0.0668,-0.033 c 0.10017,-0.0769 0.18909,-0.13191 0.26695,-0.1649 l 0.13348,-0.0989 0.36706,-0.19788 0.10017,-0.0989 0.0668,-0.066 0.0668,-0.033 c 0.11129,-0.0714 0.20022,-0.13741 0.26697,-0.19788 l 0.10017,-0.033 c 0.0278,-0.033 0.0612,-0.055 0.10017,-0.0659 0.21689,-0.19237 0.40599,-0.33528 0.56728,-0.42873 l 0.13348,-0.0989 0.13348,-0.066 0.0668,-0.066 c 0.12235,-0.0769 0.22246,-0.1539 0.30033,-0.23086 l 0.10017,-0.066 0.10017,-0.066 0.10017,-0.033 0.10018,-0.0989 0.10017,-0.033 0.0668,-0.0989 0.10017,-0.033 0.0668,-0.0659 0.23358,-0.13192 c 0.1891,-0.19237 0.36707,-0.33529 0.53392,-0.42873 l 0.0668,-0.0989 0.13348,-0.13192 0.63403,-0.59364 0.0334,-0.0989 0.16686,-0.26384 0.23359,-0.39576 c 0.18908,-0.6211 0.23357,-1.20375 0.13347,-1.74792 l -0.33381,-0.59363 c -0.0389,-0.022 -0.0612,-0.044 -0.0668,-0.066 l -0.0668,-0.033 -0.0668,-0.0989 c -0.0389,-0.022 -0.0612,-0.044 -0.0668,-0.066 -0.19465,-0.0824 -0.35038,-0.18137 -0.46718,-0.29682 -2.13011,-0.42872 -3.18681,0.41776 -3.17013,2.53944 h -0.13348 -0.60065 -0.13348 -0.13348 -0.13347 -0.10017 -0.13348 -0.10018 -0.13348 -0.60065 -0.43381 c -0.0723,-3.04511 1.29585,-4.72707 4.10447,-5.04589 z"
       id="path4353"
       style="font-style:normal;font-variant:normal;font-weight:normal;font-stretch:normal;font-size:15px;line-height:100%;font-family:'Transport Heavy';-inkscape-font-specification:'Transport Heavy,';text-align:start;writing-mode:lr-tb;text-anchor:start;fill:#000000;fill-opacity:1;stroke:none;stroke-width:1.00589693"
       inkscape:connector-curvature="0" />
    <path
       d="m -302.43719,246.22551 h 0.10017 0.66739 0.13348 0.10007 0.60066 0.4338 0.13348 0.56729 0.10017 0.40043 v 8.08002 h 0.43382 0.13348 0.56729 0.10017 0.40043 v 2.30858 c -0.0223,0.0385 -0.0555,0.0605 -0.10017,0.066 h -0.36707 -0.16684 -0.10007 -0.13348 -0.10017 -0.66741 v 2.14368 h -0.43381 -0.13347 -0.60066 -0.13348 -0.13347 -0.13348 -0.56729 -0.10017 -0.40044 v -0.36278 -0.16489 -0.42874 -0.13192 -0.56065 -0.0989 -0.39576 h -0.26697 -0.46717 -0.10007 -0.16685 -0.10017 -0.13348 -0.10017 -0.66739 -0.56728 -0.10018 -0.40044 -0.4338 -0.13349 -0.56728 -0.10017 -0.40044 -0.36707 -0.16684 -0.43382 -0.13348 -0.10017 -0.13348 -0.10017 -0.13347 -0.60066 v -0.066 -0.0659 -0.066 -0.066 -0.0659 -0.066 -0.066 -0.066 -0.0659 -0.066 -0.066 -0.066 -0.066 -0.0989 0.033 -0.066 0.033 -0.066 0.033 -0.0659 0.033 -0.066 0.033 -0.066 0.033 -0.066 0.033 -0.066 0.033 -0.066 0.033 -0.066 0.033 -0.066 0.033 -0.066 0.033 -0.066 0.033 -0.066 0.033 -0.066 0.033 -0.066 0.033 -0.066 0.033 -0.066 0.033 -0.066 0.033 -0.066 0.033 -0.066 0.033 -0.066 0.033 -0.066 0.033 -0.066 0.033 -0.066 0.033 -0.066 0.033 -0.066 0.033 -0.066 0.033 -0.066 0.033 -0.066 0.033 -0.066 0.033 -0.066 0.033 -0.066 0.033 -0.066 0.033 -0.066 0.033 -0.066 0.033 -0.066 0.033 -0.066 0.033 -0.066 0.033 -0.066 0.033 -0.066 0.033 -0.066 0.033 -0.066 0.033 -0.066 0.033 -0.066 0.033 -0.033 l 0.13348,-0.1649 0.46718,-0.59363 0.13347,-0.19788 0.0668,-0.0989 0.10017,-0.13192 0.10007,-0.0659 0.0668,-0.13192 0.0668,-0.0989 0.10018,-0.0989 c 0.0223,-0.0385 0.0445,-0.0605 0.0668,-0.066 l 0.0668,-0.0989 0.0334,-0.0989 0.10017,-0.0659 c 0.20022,-0.34628 0.40044,-0.61012 0.60066,-0.79152 l 0.13347,-0.23085 0.16686,-0.1649 0.0334,-0.0989 0.0668,-0.0659 0.3337,-0.46172 0.10017,-0.0659 c 0.20022,-0.34628 0.40044,-0.61012 0.60066,-0.79152 0.13348,-0.23634 0.26695,-0.42322 0.40043,-0.56065 l 0.10017,-0.13192 0.0668,-0.0989 0.0334,-0.0659 c 0.12234,-0.12641 0.21133,-0.23635 0.26695,-0.3298 l 0.30033,-0.36278 0.0668,-0.0989 0.30033,-0.42873 0.0668,-0.0989 c 0.1446,-0.15389 0.25584,-0.28581 0.3337,-0.39576 0.0223,-0.0385 0.0445,-0.0605 0.0668,-0.0659 l 0.0334,-0.0989 0.10017,-0.066 0.13348,-0.23086 0.3337,-0.42874 z m 0.56727,2.93519 -0.13348,0.23086 -0.20022,0.19788 -0.13347,0.23086 c -0.0779,0.0715 -0.13349,0.13742 -0.16685,0.19787 l -0.13348,0.19788 c -0.0779,0.0715 -0.13348,0.13743 -0.16685,0.19788 l -0.13348,0.1649 c -0.0723,0.10444 -0.13903,0.19239 -0.20021,0.26384 -0.0223,0.0385 -0.0445,0.0605 -0.0668,0.066 l -0.0334,0.066 -0.0668,0.0989 -0.0334,0.066 -0.0668,0.033 -0.0334,0.066 c -0.0223,0.0385 -0.0445,0.0605 -0.0668,0.066 l -0.0334,0.066 -0.0334,0.066 -0.0668,0.033 -0.2336,0.36278 -0.0668,0.066 -0.23359,0.29681 -0.10017,0.0989 -0.10017,0.1649 -0.10017,0.0989 c -0.11128,0.19239 -0.21134,0.34629 -0.30033,0.46171 l -0.20022,0.19788 -0.0334,0.0989 -0.10017,0.0989 c -0.0223,0.0385 -0.0445,0.0605 -0.0668,0.0659 l -0.0334,0.0989 -0.10017,0.066 -0.13347,0.23086 -0.33371,0.42874 h 0.23359 0.20023 0.23359 0.20021 0.16685 0.20021 0.13348 0.60065 0.36708 0.13348 0.13347 0.13348 0.13348 0.56729 0.10018 0.40043 v -0.23086 -0.65959 -0.19788 -0.0989 -0.13192 -0.0989 -0.16489 -0.0989 -0.13192 -0.0989 -0.65959 -0.13192 -0.13192 -0.0989 -0.59363 -0.42874 -0.13192 -0.56065 -0.0989 -0.39575 h -0.0334 0.0334 z"
       id="path4355"
       style="font-style:normal;font-variant:normal;font-weight:normal;font-stretch:normal;font-size:15px;line-height:100%;font-family:'Transport Heavy';-inkscape-font-specification:'Transport Heavy,';text-align:start;writing-mode:lr-tb;text-anchor:start;fill:#000000;fill-opacity:1;stroke:none;stroke-width:1.00589693"
       inkscape:connector-curvature="0" />
    <path
       d="m -291.42517,246.02763 c 2.66401,-0.0494 4.31027,1.07186 4.93873,3.36393 l 0.10017,0.066 0.0334,0.1649 0.0334,0.13192 0.0334,0.13192 0.0334,0.066 0.0668,0.29681 v 0.1649 c 0.0223,0.033 0.0334,0.066 0.0334,0.0989 l 0.0668,0.36278 0.0668,0.56065 0.0668,0.52768 c 0.18909,4.11147 -1.16796,6.44203 -4.07111,6.99169 -2.84756,0.39576 -4.59391,-0.4837 -5.23906,-2.63837 l 0.70077,-0.23086 c 0.0222,-0.0275 0.0445,-0.0385 0.0668,-0.033 l 0.30033,-0.13192 c 0.13904,-0.0385 0.25028,-0.0824 0.3337,-0.13192 l 0.10018,-0.033 h 0.10017 c 0.0223,-0.0275 0.0445,-0.0385 0.0668,-0.033 l 0.10017,-0.033 0.53392,-0.23086 h 0.13348 c 0.36149,0.9894 1.08451,1.39615 2.16903,1.22025 1.15126,-0.25833 1.82977,-0.97289 2.03555,-2.14368 l 0.0334,-0.52767 c -1.49052,0.94542 -2.99216,1.15429 -4.50492,0.62661 -1.5072,-0.64859 -2.30807,-1.72593 -2.40262,-3.23201 -0.31702,-3.32544 1.04002,-5.11733 4.0711,-5.37569 z m 0.26697,2.37454 c -0.87319,0.21438 -1.44047,0.70907 -1.70187,1.48409 -0.22802,1.58853 0.38375,2.51196 1.83535,2.77029 1.52387,-0.1539 2.25801,-0.9564 2.2024,-2.40752 -0.29477,-1.26421 -1.0734,-1.87983 -2.33588,-1.84686 z"
       id="path4357"
       style="font-style:normal;font-variant:normal;font-weight:normal;font-stretch:normal;font-size:15px;line-height:100%;font-family:'Transport Heavy';-inkscape-font-specification:'Transport Heavy,';text-align:start;writing-mode:lr-tb;text-anchor:start;fill:#000000;fill-opacity:1;stroke:none;stroke-width:1.00589693"
       inkscape:connector-curvature="0" />
    <path
       d="m -275.30756,249.45752 c 2.30251,-0.022 3.8264,0.96741 4.57167,2.96817 l -0.13348,0.066 c -0.14461,0.033 -0.26697,0.077 -0.36707,0.13191 l -0.13347,0.033 -0.13349,0.033 c -0.12236,0.066 -0.24471,0.10994 -0.36707,0.13192 -0.0334,0.022 -0.0668,0.033 -0.10017,0.033 -0.0889,0.055 -0.17797,0.088 -0.26695,0.0989 l -0.23359,0.0989 c -0.24473,0.10444 -0.45607,0.1704 -0.63403,0.19788 -0.33927,-1.04985 -1.01778,-1.57752 -2.03555,-1.58303 -1.09565,0.45623 -1.62957,1.23675 -1.60176,2.34156 -0.11679,0.97291 0.1168,1.7864 0.70076,2.4405 0.5673,0.52218 1.16795,0.6431 1.80197,0.36277 0.60623,-0.33529 0.98441,-0.80799 1.13458,-1.41812 h 0.10017 l 0.13348,0.066 0.23359,0.066 0.0668,0.066 c 0.22802,0.0495 0.41711,0.11543 0.56729,0.19788 l 0.10017,0.033 0.13347,0.033 0.10017,0.033 c 0.0834,0.0495 0.17241,0.0825 0.26696,0.0989 l 0.10017,0.033 0.0668,0.0659 c 0.20022,0.044 0.36706,0.099 0.50055,0.16489 -0.92324,2.13819 -2.48048,3.10559 -4.67177,2.90222 -2.38038,-0.43423 -3.67067,-1.85236 -3.87089,-4.25438 -0.14461,-3.10558 1.17906,-4.91946 3.971,-5.44165 z"
       id="path4359"
       style="font-style:normal;font-variant:normal;font-weight:normal;font-stretch:normal;font-size:15px;line-height:100%;font-family:'Transport Heavy';-inkscape-font-specification:'Transport Heavy,';text-align:start;writing-mode:lr-tb;text-anchor:start;fill:#000000;fill-opacity:1;stroke:none;stroke-width:1.00589693"
       inkscape:connector-curvature="0" />
    <path
       d="m -265.63031,249.45752 c 2.3025,-0.022 3.82639,0.96741 4.57165,2.96817 l -0.13348,0.066 c -0.14461,0.033 -0.26696,0.077 -0.36706,0.13191 l -0.13348,0.033 -0.13348,0.033 c -0.12237,0.066 -0.24472,0.10994 -0.36706,0.13192 -0.0334,0.022 -0.0668,0.033 -0.10017,0.033 -0.0889,0.055 -0.17798,0.088 -0.26696,0.0989 l -0.23359,0.0989 c -0.24473,0.10444 -0.45607,0.1704 -0.63404,0.19788 -0.33925,-1.04985 -1.01777,-1.57752 -2.03555,-1.58303 -1.09564,0.45623 -1.62955,1.23675 -1.60175,2.34156 -0.11679,0.97291 0.1168,1.7864 0.70077,2.4405 0.56728,0.52218 1.16793,0.6431 1.80197,0.36277 0.60621,-0.33529 0.9844,-0.80799 1.13456,-1.41812 h 0.10017 l 0.13348,0.066 0.2336,0.066 0.0668,0.066 c 0.22802,0.0495 0.41712,0.11543 0.56729,0.19788 l 0.10017,0.033 0.13348,0.033 0.10017,0.033 c 0.0834,0.0495 0.17241,0.0825 0.26695,0.0989 l 0.10017,0.033 0.0668,0.0659 c 0.2002,0.044 0.36706,0.099 0.50054,0.16489 -0.92323,2.13819 -2.48049,3.10559 -4.67176,2.90222 -2.38039,-0.43423 -3.67068,-1.85236 -3.8709,-4.25438 -0.1446,-3.10558 1.17907,-4.91946 3.971,-5.44165 z"
       id="path4361"
       style="font-style:normal;font-variant:normal;font-weight:normal;font-stretch:normal;font-size:15px;line-height:100%;font-family:'Transport Heavy';-inkscape-font-specification:'Transport Heavy,';text-align:start;writing-mode:lr-tb;text-anchor:start;fill:#000000;fill-opacity:1;stroke:none;stroke-width:1.00589693"
       inkscape:connector-curvature="0" />
    <path
       d="m -373.47696,316.74937 c 0.20577,-0.0113 0.38375,2e-5 0.53392,0.033 h 0.10017 0.10017 0.10017 c 0.1446,10e-6 0.26695,0.0113 0.36706,0.033 h 0.13348 l 0.56729,0.099 0.50055,0.099 v 0.16489 l -0.0668,0.19788 -0.0334,0.13192 -0.0334,0.23086 -0.0334,0.066 -0.0668,0.39576 -0.0334,0.099 -0.16685,0.75853 c -0.96217,-0.21985 -1.59619,-0.066 -1.90207,0.46172 v 0.85747 h 0.46718 0.10017 0.16684 0.10017 0.13348 0.10017 0.6674 v 2.04474 h -0.46718 -0.10007 -0.16684 -0.10017 -0.13348 -0.10017 -0.6674 v 7.02467 h -0.66741 -0.16684 -0.10017 -0.13348 -0.13348 -0.13348 -0.13347 -0.56729 -0.10017 -0.40044 v -0.26384 -0.26383 -0.099 -0.099 -0.6596 -0.26383 -0.26384 -0.099 -0.099 -1.02237 -0.23086 -0.19788 -0.23086 -0.19787 -0.16491 -0.19788 -0.13192 -0.59363 -0.36277 -0.13192 -0.13192 -0.13192 -0.13191 -0.56066 -0.099 -0.39575 h -0.33369 -0.13349 -0.13348 -0.10018 -0.13347 -0.60066 v -0.13193 -0.13192 -0.16489 -0.42874 -0.13192 -0.56066 -0.099 -0.39575 h 0.3337 0.13348 0.13348 0.10018 0.13347 0.60066 c -0.28365,-2.18764 0.53947,-3.3969 2.46937,-3.62777 z"
       id="path4364"
       style="font-style:normal;font-variant:normal;font-weight:normal;font-stretch:normal;font-size:15px;line-height:100%;font-family:'Transport Heavy';-inkscape-font-specification:'Transport Heavy,';text-align:start;writing-mode:lr-tb;text-anchor:start;fill:#000000;fill-opacity:1;stroke:none;stroke-width:1.00589693"
       inkscape:connector-curvature="0" />
    <path
       d="m -368.63835,316.74937 c 0.91767,-0.0164 1.48496,0.37928 1.70187,1.18727 0.0167,0.62113 -0.19467,1.10483 -0.63404,1.4511 -1.00665,0.39578 -1.71854,0.15392 -2.13566,-0.72555 -0.22246,-0.98937 0.13348,-1.62698 1.06783,-1.91282 z m -0.40043,3.69372 h 0.13348 0.16684 0.43381 0.13348 0.56729 0.26695 0.2336 v 9.00346 h -0.46719 -0.36706 -0.16685 -0.10017 -0.13348 -0.10017 -0.66739 -0.10017 -0.40044 v -0.099 -0.1649 -0.099 -0.13191 -0.099 -0.6596 -0.23086 -0.13192 -0.1649 -0.13192 -0.16489 -0.42874 -0.13192 -0.56066 -0.099 -0.39575 -0.23086 -0.23086 -0.19788 -0.23086 -0.19787 -0.23086 -0.19788 -0.56065 -0.19787 -0.16491 -0.19788 -0.13192 -0.59363 -0.36278 -0.13191 -0.13192 -0.13192 -0.13192 -0.56065 -0.099 -0.39577 z"
       id="path4366"
       style="font-style:normal;font-variant:normal;font-weight:normal;font-stretch:normal;font-size:15px;line-height:100%;font-family:'Transport Heavy';-inkscape-font-specification:'Transport Heavy,';text-align:start;writing-mode:lr-tb;text-anchor:start;fill:#000000;fill-opacity:1;stroke:none;stroke-width:1.00589693"
       inkscape:connector-curvature="0" />
    <path
       d="m -360.26252,320.17926 c 1.52387,-0.0494 2.71405,0.56616 3.57056,1.84686 l 0.0334,0.099 0.0334,0.099 0.0334,0.099 c 0.0555,0.0934 0.0889,0.18141 0.10017,0.26384 l 0.13347,0.39575 v 0.099 c 0.0779,0.39577 0.11117,0.71458 0.10017,0.95642 v 5.37568 h -0.66739 -0.16685 -0.10017 -0.13348 -0.13347 -0.13349 -0.13348 -0.56729 -0.10017 -0.40044 v -0.099 -0.16489 -0.099 -0.13192 -0.099 -0.6596 -0.46171 -0.36278 -0.16489 -0.099 -0.13191 -0.099 -0.6596 -0.13192 -0.36277 -0.3298 -0.59364 -0.099 -0.099 -0.13192 -0.59363 -0.13192 c -0.0555,-0.13741 -0.0889,-0.25833 -0.10017,-0.36277 -0.26696,-0.46171 -0.6229,-0.75853 -1.06783,-0.89046 -0.92324,-0.022 -1.60175,0.32981 -2.03556,1.05535 l -0.0668,0.23086 v 5.6725 h -0.66739 -0.16685 -0.10017 -0.13347 -0.13348 -0.13348 -0.13348 -0.56729 -0.10017 -0.40044 v -0.099 -0.16489 -0.099 -0.13192 -0.099 -0.6596 -0.23086 -0.13191 -0.1649 -0.13193 -0.16489 -0.42874 -0.13192 -0.56064 -0.099 -0.39577 -0.23086 -0.23085 -0.19787 -0.23086 -0.19788 -0.23086 -0.19788 -0.56066 -0.19787 -0.16491 -0.19787 -0.13191 -0.59365 -0.36277 -0.13192 -0.13192 -0.13192 -0.13191 -0.56066 -0.099 -0.39575 h 0.66739 0.16686 0.10017 0.13348 0.13348 0.13348 0.13348 0.56728 0.10017 0.40045 c -0.0114,0.22536 -2e-5,0.41225 0.0334,0.56064 0.55616,-0.43421 1.14569,-0.69805 1.76861,-0.7915 z"
       id="path4368"
       style="font-style:normal;font-variant:normal;font-weight:normal;font-stretch:normal;font-size:15px;line-height:100%;font-family:'Transport Heavy';-inkscape-font-specification:'Transport Heavy,';text-align:start;writing-mode:lr-tb;text-anchor:start;fill:#000000;fill-opacity:1;stroke:none;stroke-width:1.00589693"
       inkscape:connector-curvature="0" />
    <path
       d="m -350.38507,320.04734 c 2.19128,-0.0164 3.65955,0.88496 4.40481,2.70433 0.0779,0.099 0.13347,0.19789 0.16686,0.29682 0.47828,1.91283 0.24469,3.59479 -0.70077,5.04589 -1.32924,1.51157 -2.90873,2.00627 -4.73852,1.48409 -1.92432,-0.6486 -2.9699,-2.00076 -3.13676,-4.0565 -0.16685,-3.14406 1.16795,-4.96893 4.00438,-5.47463 z m 0.13348,2.20964 c -1.21245,0.51668 -1.74635,1.44011 -1.60175,2.77029 -0.0334,1.41264 0.55616,2.24812 1.76861,2.50646 1.45713,-0.099 2.1134,-1.15429 1.9688,-3.16605 -0.17241,-1.39063 -0.88429,-2.0942 -2.13566,-2.1107 z"
       id="path4370"
       style="font-style:normal;font-variant:normal;font-weight:normal;font-stretch:normal;font-size:15px;line-height:100%;font-family:'Transport Heavy';-inkscape-font-specification:'Transport Heavy,';text-align:start;writing-mode:lr-tb;text-anchor:start;fill:#000000;fill-opacity:1;stroke:none;stroke-width:1.00589693"
       inkscape:connector-curvature="0" />
    <path
       d="m -335.3353,320.04734 c 1.52389,-0.099 2.79194,0.27484 3.80417,1.1213 l 0.0334,0.066 c 0.0889,0.10998 0.15573,0.21988 0.20023,0.3298 0.11678,0.1704 0.19464,0.32431 0.23358,0.46171 v 0.13192 c 0.0668,0.21438 0.10017,0.40126 0.10017,0.56066 v 3.23201 c -0.0223,0.54416 0,0.99488 0.0668,1.35216 0.2725,0.28033 0.58397,0.45623 0.93435,0.52768 l -0.0668,0.099 -0.0668,0.1649 -0.0668,0.13192 -0.0334,0.099 -0.0334,0.099 -0.0668,0.099 -0.13348,0.3298 -0.0668,0.0989 -0.0334,0.099 -0.0334,0.099 -0.0334,0.066 -0.23359,0.49469 c -0.98999,0.006 -1.73524,-0.30231 -2.23578,-0.92343 -0.95104,0.93443 -2.13011,1.16529 -3.5372,0.69258 -1.29586,-0.35178 -2.05224,-1.1323 -2.26914,-2.34156 0.0114,-1.77539 0.85648,-2.80876 2.5361,-3.10009 0.0889,-0.0549 0.17796,-0.0879 0.26695,-0.099 h 0.10017 c 0.0334,-0.022 0.0668,-0.033 0.10017,-0.033 l 0.10017,-0.033 0.60066,-0.099 0.26697,-0.033 0.10017,-0.033 0.56728,-0.033 c 0.30033,-0.044 0.54504,-0.0549 0.73414,-0.033 0.0834,-1.22574 -0.5951,-1.64348 -2.03557,-1.25323 l -0.10017,0.033 -0.26695,0.033 -0.23359,0.099 -0.10017,0.033 -0.3337,0.099 c -0.17241,0.11544 -0.32814,0.1924 -0.46718,0.23086 -0.18908,0.14292 -0.37818,0.24186 -0.56727,0.29682 l -0.23359,-0.42874 -0.0668,-0.033 -0.0334,-0.099 -0.0668,-0.066 -0.0334,-0.099 c -0.14461,-0.16489 -0.24472,-0.3188 -0.30033,-0.46172 -0.0889,-0.0824 -0.14461,-0.17039 -0.16685,-0.26383 -0.1446,-0.13741 -0.23359,-0.28033 -0.26695,-0.42874 l 0.0668,-0.033 0.10017,-0.066 0.0668,-0.033 c 0.15017,-0.099 0.28365,-0.17588 0.40044,-0.23086 0.0889,-0.0605 0.17799,-0.0934 0.26697,-0.099 l 0.0668,-0.066 c 0.20577,-0.0934 0.38374,-0.15939 0.53392,-0.19787 l 0.0668,-0.066 h 0.10017 c 0.10571,-0.066 0.19467,-0.10987 0.26696,-0.13191 h 0.10017 c 0.15016,-0.0769 0.29476,-0.12093 0.43379,-0.13193 0.3059,-0.12641 0.5951,-0.19237 0.86762,-0.19787 l 0.10017,-0.033 z m 1.60175,5.44164 h -0.10007 c -0.13349,0.0385 -0.24472,0.0604 -0.3337,0.066 h -0.10017 c -0.0334,0.022 -0.0668,0.033 -0.10017,0.033 l -0.13347,0.033 h -0.10018 l -0.13348,0.033 -0.20022,0.033 c -0.0334,0.022 -0.0668,0.033 -0.10017,0.033 l -0.13348,0.033 -0.10017,0.033 c -0.31145,0.077 -0.55617,0.15391 -0.73413,0.23085 -0.23359,0.30782 -0.30034,0.62662 -0.20022,0.95641 0.55615,0.76953 1.35703,0.90146 2.40262,0.39577 l 0.26697,-0.39577 0.0334,-0.13191 v -0.13192 -0.099 -0.1649 -0.099 -0.13191 -0.099 -0.6596 h -0.10017 z"
       id="path4372"
       style="font-style:normal;font-variant:normal;font-weight:normal;font-stretch:normal;font-size:15px;line-height:100%;font-family:'Transport Heavy';-inkscape-font-specification:'Transport Heavy,';text-align:start;writing-mode:lr-tb;text-anchor:start;fill:#000000;fill-opacity:1;stroke:none;stroke-width:1.00589693"
       inkscape:connector-curvature="0" />
    <path
       d="m -316.14766,316.8483 h 0.60066 0.43381 0.13348 0.56727 0.10017 0.40044 v 12.59825 h -0.43381 -0.13348 -0.60065 -0.13348 -0.13348 -0.13349 -0.56728 -0.10017 -0.40045 v -0.23086 -0.099 -0.099 -0.42874 -0.099 -0.16489 -0.099 -0.13192 -0.099 -0.6596 -0.26384 -0.46171 -0.099 -0.1649 -0.099 -0.13191 -0.099 -0.65959 -0.56066 -0.099 -0.39575 -0.13192 -0.099 -0.6596 -0.13192 -0.099 -0.59363 -0.42874 -0.13192 -0.56065 -0.099 -0.39576 h -0.56727 -0.36708 -0.13348 -0.56727 -0.10017 -0.40046 v -0.13191 -0.1649 -0.13193 -0.16489 -0.42874 -0.13192 -0.56065 -0.099 -0.39575 c 0.72303,0.0165 1.34592,-0.1374 1.86872,-0.46171 l 0.0334,-0.066 c 0.13347,-0.17588 0.23358,-0.32977 0.30033,-0.46171 v -0.099 l 0.0668,-0.23086 0.16686,-0.59364 z"
       id="path4374"
       style="font-style:normal;font-variant:normal;font-weight:normal;font-stretch:normal;font-size:15px;line-height:100%;font-family:'Transport Heavy';-inkscape-font-specification:'Transport Heavy,';text-align:start;writing-mode:lr-tb;text-anchor:start;fill:#000000;fill-opacity:1;stroke:none;stroke-width:1.00589693"
       inkscape:connector-curvature="0" />
    <path
       d="m -305.33585,316.81533 h 0.10017 0.66738 0.13349 0.10007 0.60066 0.4338 0.13348 0.5673 0.10017 0.40043 v 8.08002 h 0.43381 0.13348 0.56729 0.10017 0.40043 v 2.30858 c -0.0223,0.0385 -0.0555,0.0605 -0.10017,0.066 h -0.36707 -0.16684 -0.10017 -0.13348 -0.10017 -0.6674 v 2.14367 h -0.4338 -0.1335 -0.60065 -0.13348 -0.13347 -0.13348 -0.56729 -0.10007 -0.40043 v -0.36277 -0.16491 -0.42873 -0.13191 -0.56066 -0.099 -0.39575 h -0.26696 -0.46717 -0.10017 -0.16687 -0.10017 -0.13348 -0.10017 -0.66738 -0.56729 -0.10017 -0.40043 -0.43381 -0.13349 -0.56729 -0.10017 -0.40043 -0.36708 -0.16684 -0.43381 -0.13348 -0.10017 -0.13348 -0.10018 -0.13347 -0.60066 v -0.066 -0.066 -0.066 -0.066 -0.066 -0.066 -0.066 -0.066 -0.066 -0.066 -0.066 -0.066 -0.066 -0.099 0.033 -0.066 0.033 -0.066 0.033 -0.066 0.033 -0.066 0.033 -0.066 0.033 -0.066 0.033 -0.066 0.033 -0.066 0.033 -0.066 0.033 -0.066 0.033 -0.066 0.033 -0.066 0.033 -0.066 0.033 -0.066 0.033 -0.066 0.033 -0.066 0.033 -0.066 0.033 -0.066 0.033 -0.066 0.033 -0.066 0.033 -0.066 0.033 -0.066 0.033 -0.066 0.033 -0.066 0.033 -0.066 0.033 -0.066 0.033 -0.066 0.033 -0.066 0.033 -0.066 0.033 -0.066 0.033 -0.066 0.033 -0.066 0.033 -0.066 0.033 -0.066 0.033 -0.066 0.033 -0.066 0.033 -0.066 0.033 -0.066 0.033 -0.066 0.033 -0.066 0.033 -0.066 0.033 -0.066 0.033 -0.066 0.033 -0.066 0.033 -0.033 l 0.13348,-0.1649 0.46718,-0.59363 0.13347,-0.19788 0.0668,-0.0989 0.10017,-0.13191 0.10017,-0.066 0.0668,-0.13191 0.0668,-0.099 0.10017,-0.099 c 0.0223,-0.0385 0.0445,-0.0605 0.0668,-0.066 l 0.0668,-0.099 0.0334,-0.099 0.10017,-0.066 c 0.20021,-0.34628 0.40043,-0.61013 0.60066,-0.79152 l 0.13347,-0.23086 0.16686,-0.1649 0.0334,-0.099 0.0668,-0.066 0.3337,-0.4617 0.10017,-0.066 c 0.20022,-0.34627 0.40043,-0.61011 0.60065,-0.79151 0.13348,-0.23634 0.26695,-0.42323 0.40043,-0.56066 l 0.10017,-0.13192 0.0668,-0.099 0.0334,-0.066 c 0.12236,-0.12641 0.21135,-0.23634 0.26697,-0.3298 l 0.30033,-0.36277 0.0668,-0.099 0.30032,-0.42872 0.0668,-0.099 c 0.1446,-0.15389 0.25583,-0.28581 0.3337,-0.39576 0.0223,-0.0385 0.0445,-0.0605 0.0668,-0.066 l 0.0334,-0.099 0.10017,-0.066 0.13348,-0.23084 0.3337,-0.42874 z m 0.56729,2.93519 -0.13348,0.23086 -0.20022,0.19788 -0.13347,0.23086 c -0.0779,0.0715 -0.13349,0.13743 -0.16686,0.19788 l -0.13348,0.19787 c -0.0779,0.0715 -0.13348,0.13743 -0.16684,0.19788 l -0.13348,0.16489 c -0.0724,0.10447 -0.13905,0.1924 -0.20023,0.26385 -0.0223,0.0385 -0.0445,0.0605 -0.0668,0.066 l -0.0334,0.066 -0.0668,0.099 -0.0334,0.066 -0.0668,0.033 -0.0334,0.066 c -0.0223,0.0385 -0.0445,0.0605 -0.0668,0.066 l -0.0334,0.066 -0.0334,0.066 -0.0668,0.033 -0.23359,0.36278 -0.0668,0.066 -0.23359,0.29681 -0.10017,0.099 -0.10017,0.16491 -0.10018,0.099 c -0.11128,0.19238 -0.21136,0.34629 -0.30034,0.46171 l -0.20022,0.19787 -0.0334,0.099 -0.10017,0.099 c -0.0223,0.0385 -0.0445,0.0605 -0.0668,0.066 l -0.0334,0.099 -0.10017,0.066 -0.13347,0.23086 -0.3337,0.42874 h 0.23359 0.20022 0.23358 0.20023 0.16684 0.20022 0.13348 0.60065 0.36707 0.13349 0.13347 0.13348 0.13349 0.56728 0.10017 0.40044 v -0.23086 -0.65958 -0.19789 -0.099 -0.13191 -0.099 -0.16491 -0.099 -0.13192 -0.099 -0.6596 -0.13191 -0.13192 -0.099 -0.59363 -0.42873 -0.13193 -0.56065 -0.099 -0.39576 h -0.0334 0.0334 z"
       id="path4376"
       style="font-style:normal;font-variant:normal;font-weight:normal;font-stretch:normal;font-size:15px;line-height:100%;font-family:'Transport Heavy';-inkscape-font-specification:'Transport Heavy,';text-align:start;writing-mode:lr-tb;text-anchor:start;fill:#000000;fill-opacity:1;stroke:none;stroke-width:1.00589693"
       inkscape:connector-curvature="0" />
    <path
       d="m -294.32382,316.61746 c 2.66401,-0.0494 4.31025,1.07185 4.93873,3.36392 l 0.10017,0.066 0.0334,0.1649 0.0334,0.13192 0.0334,0.13192 0.0334,0.066 0.0668,0.29683 v 0.16489 c 0.0223,0.033 0.0334,0.066 0.0334,0.099 l 0.0668,0.36278 0.0668,0.56065 0.0668,0.52767 c 0.18908,4.11148 -1.16795,6.44204 -4.07112,6.9917 -2.84755,0.39575 -4.59391,-0.48371 -5.23906,-2.63838 l 0.70078,-0.23086 c 0.0223,-0.0275 0.0445,-0.0385 0.0668,-0.033 l 0.30032,-0.13193 c 0.13904,-0.0385 0.25027,-0.0824 0.3337,-0.13192 l 0.10017,-0.033 h 0.10007 c 0.0223,-0.0275 0.0445,-0.0385 0.0668,-0.033 l 0.10017,-0.033 0.53391,-0.23086 h 0.13347 c 0.36151,0.9894 1.08452,1.39615 2.16904,1.22026 1.15126,-0.25834 1.82977,-0.97291 2.03557,-2.14369 l 0.0334,-0.52767 c -1.49053,0.94542 -2.99217,1.15429 -4.50493,0.62661 -1.5072,-0.6486 -2.30808,-1.72593 -2.40263,-3.232 -0.31701,-3.32544 1.04003,-5.11734 4.07112,-5.37569 z m 0.26696,2.37453 c -0.87319,0.21438 -1.44046,0.70907 -1.70185,1.48409 -0.22804,1.58852 0.38374,2.51195 1.83533,2.77029 1.52388,-0.15389 2.25801,-0.9564 2.20241,-2.40751 -0.29479,-1.26422 -1.07341,-1.87984 -2.33589,-1.84687 z"
       id="path4378"
       style="font-style:normal;font-variant:normal;font-weight:normal;font-stretch:normal;font-size:15px;line-height:100%;font-family:'Transport Heavy';-inkscape-font-specification:'Transport Heavy,';text-align:start;writing-mode:lr-tb;text-anchor:start;fill:#000000;fill-opacity:1;stroke:none;stroke-width:1.00589693"
       inkscape:connector-curvature="0" />
    <path
       d="m -278.20621,320.04734 c 2.30251,-0.022 3.82639,0.96741 4.57167,2.96817 l -0.13349,0.066 c -0.14461,0.033 -0.26696,0.077 -0.36707,0.13192 l -0.13347,0.033 -0.13348,0.033 c -0.12237,0.066 -0.24472,0.10998 -0.36707,0.13192 -0.0334,0.022 -0.0668,0.033 -0.10017,0.033 -0.0889,0.0549 -0.17799,0.0879 -0.26696,0.099 l -0.23359,0.099 c -0.24471,0.10447 -0.45606,0.1704 -0.63402,0.19788 -0.33927,-1.04985 -1.01779,-1.57752 -2.03556,-1.58302 -1.09565,0.45622 -1.62957,1.23674 -1.60175,2.34155 -0.1168,0.97291 0.11678,1.78641 0.70076,2.4405 0.56729,0.52218 1.16794,0.64311 1.80197,0.36277 0.60622,-0.33528 0.98441,-0.808 1.13458,-1.41812 h 0.10017 l 0.13348,0.066 0.23358,0.066 0.0668,0.066 c 0.22802,0.0494 0.41711,0.11543 0.56727,0.19788 l 0.10017,0.033 0.13347,0.033 0.10017,0.033 c 0.0834,0.0495 0.17241,0.0825 0.26697,0.099 l 0.10018,0.033 0.0668,0.066 c 0.20022,0.044 0.36706,0.099 0.50056,0.1649 -0.92325,2.13818 -2.4805,3.10559 -4.67179,2.90221 -2.38037,-0.43423 -3.67067,-1.85235 -3.87088,-4.25438 -0.14461,-3.10558 1.17906,-4.91945 3.97099,-5.44165 z"
       id="path4380"
       style="font-style:normal;font-variant:normal;font-weight:normal;font-stretch:normal;font-size:15px;line-height:100%;font-family:'Transport Heavy';-inkscape-font-specification:'Transport Heavy,';text-align:start;writing-mode:lr-tb;text-anchor:start;fill:#000000;fill-opacity:1;stroke:none;stroke-width:1.00589693"
       inkscape:connector-curvature="0" />
    <path
       d="m -268.52897,320.04734 c 2.30252,-0.022 3.8264,0.96741 4.57167,2.96817 l -0.13349,0.066 c -0.14461,0.033 -0.26697,0.077 -0.36706,0.13192 l -0.13349,0.033 -0.13348,0.033 c -0.12236,0.066 -0.24471,0.10998 -0.36706,0.13192 -0.0334,0.022 -0.0668,0.033 -0.10017,0.033 -0.0889,0.0549 -0.17798,0.0879 -0.26696,0.099 l -0.23359,0.099 c -0.24472,0.10447 -0.45605,0.1704 -0.63402,0.19788 -0.33928,-1.04985 -1.01779,-1.57752 -2.03556,-1.58302 -1.09564,0.45622 -1.62956,1.23674 -1.60175,2.34155 -0.1168,0.97291 0.11679,1.78641 0.70077,2.4405 0.56728,0.52218 1.16793,0.64311 1.80196,0.36277 0.60622,-0.33528 0.9844,-0.808 1.13458,-1.41812 h 0.10017 l 0.13348,0.066 0.23359,0.066 0.0668,0.066 c 0.22803,0.0494 0.41713,0.11543 0.56729,0.19788 l 0.10007,0.033 0.13348,0.033 0.10017,0.033 c 0.0834,0.0495 0.17241,0.0825 0.26696,0.099 l 0.10007,0.033 0.0668,0.066 c 0.20022,0.044 0.36706,0.099 0.50055,0.1649 -0.92324,2.13818 -2.48049,3.10559 -4.67177,2.90221 -2.38039,-0.43423 -3.67068,-1.85235 -3.8709,-4.25438 -0.1446,-3.10558 1.17906,-4.91945 3.97101,-5.44165 z"
       id="path4382"
       style="font-style:normal;font-variant:normal;font-weight:normal;font-stretch:normal;font-size:15px;line-height:100%;font-family:'Transport Heavy';-inkscape-font-specification:'Transport Heavy,';text-align:start;writing-mode:lr-tb;text-anchor:start;fill:#000000;fill-opacity:1;stroke:none;stroke-width:1.00589693"
       inkscape:connector-curvature="0" />
    <path
       d="m -435.99183,518.4392 h 0.74748 0.26697 0.21356 0.96106 0.21356 0.21357 0.21357 0.90765 0.16018 0.6407 l 0.21357,0.36937 0.21356,0.31661 0.21357,0.3166 0.21357,0.31661 0.21356,0.3166 0.16017,0.1583 0.0534,0.15831 c 0.0445,0.0352 0.0623,0.0704 0.0534,0.10548 0.25805,0.27264 0.43603,0.53649 0.53392,0.79151 0.25805,0.27265 0.43602,0.53648 0.53391,0.79151 l 0.21357,0.26384 0.21356,0.3166 c 0.0978,0.15832 0.18687,0.28145 0.26697,0.36938 l 0.0534,0.1583 c 0.13347,0.14073 0.22245,0.28144 0.26697,0.42214 0.35593,0.39577 0.60509,0.76514 0.74748,1.10812 l 0.21356,0.3166 c 0.0445,0.0352 0.0623,0.0704 0.0534,0.10548 0.26695,0.29902 0.46271,0.56287 0.58731,0.79151 l 0.21357,0.3166 0.16016,0.31661 0.21357,0.3166 0.21357,0.21107 0.16018,0.26385 0.10673,0.26383 c 0.23134,0.22868 0.39151,0.45733 0.48051,0.68598 l 0.16019,0.21107 0.10672,0.21107 0.16017,0.1583 c 0.16906,0.24626 0.29364,0.45733 0.37375,0.63321 l 0.16017,0.15831 0.10673,0.15829 0.0534,0.15831 0.10673,0.0528 c 0.11567,0.25505 0.24025,0.44854 0.37374,0.58045 l 0.0534,0.15829 c 0.0445,0.0352 0.0623,0.0704 0.0534,0.10548 0.32924,0.36059 0.56059,0.69479 0.69409,1.00259 l 0.0534,-0.36938 v -0.36937 -0.42214 -0.21107 -0.94981 -0.58045 -0.21107 -0.21107 -0.21107 -0.21107 -0.89704 -0.15831 -0.63321 -0.3166 -0.89705 -0.1583 -0.63321 -0.68598 -0.21107 -0.89705 -0.1583 -0.63321 -0.58044 -0.26384 -0.68598 -0.21107 -0.89704 -0.15831 -0.63321 h 0.69409 0.21357 0.96105 0.21357 0.21356 0.21357 0.90765 0.16018 0.6407 v 20.15719 h -0.16018 -0.6407 -0.53392 -0.37373 -0.32035 -0.26696 -0.21357 -0.21357 -0.21356 -0.16018 -0.16018 -0.16016 -0.10673 0.10673 -0.10673 -0.42713 -0.16019 -0.69408 l -0.0534,-0.10548 c -0.1246,-0.1583 -0.21358,-0.29901 -0.26696,-0.42214 -0.0445,-0.0351 -0.0623,-0.0704 -0.0534,-0.10548 -0.32926,-0.36058 -0.56063,-0.69476 -0.69409,-1.00258 -0.0445,-0.0351 -0.0623,-0.0703 -0.0534,-0.10548 l -0.21356,-0.3166 c -0.18689,-0.21107 -0.32926,-0.42214 -0.42714,-0.63321 l -0.26695,-0.31661 -0.21357,-0.36937 -0.21356,-0.36937 c -0.24028,-0.26383 -0.41825,-0.51008 -0.53392,-0.73875 l -0.10673,-0.10547 c -0.14239,-0.30782 -0.30257,-0.55406 -0.48053,-0.73875 l -0.0534,-0.10548 -0.10673,-0.15831 -0.48053,-0.73874 c -0.12459,-0.1583 -0.21358,-0.29901 -0.26695,-0.42214 -0.0445,-0.0351 -0.0623,-0.0704 -0.0534,-0.10548 l -0.10672,-0.0528 -0.21357,-0.36937 -0.0534,-0.10548 c -0.1246,-0.1583 -0.21358,-0.29901 -0.26696,-0.42214 -0.08,-0.0879 -0.1335,-0.17588 -0.16018,-0.26383 l -0.21356,-0.21107 -0.21357,-0.31661 -0.10673,-0.26384 -0.10673,-0.0528 -0.21356,-0.36938 -0.48053,-0.68597 -0.10673,-0.21107 -0.10672,-0.21107 -0.16017,-0.15831 -0.10672,-0.15829 -0.0534,-0.15831 c -0.17798,-0.19347 -0.32036,-0.36936 -0.42713,-0.52768 l -0.10673,-0.21107 c -0.15128,-0.20225 -0.25807,-0.37814 -0.32035,-0.52767 -0.0623,-0.0351 -0.0978,-0.0704 -0.10672,-0.10548 l -0.10673,-0.10548 -0.0534,-0.10548 -0.21356,-0.36936 -0.48053,-0.68599 v 13.50848 h -0.69408 -0.21357 -0.96106 -0.21356 -0.21357 -0.21357 -0.90766 -0.16017 -0.6407 v -0.15829 -0.21107 -0.15831 -0.21107 -0.94982 -0.42214 -0.42214 -0.15829 -1.05535 -0.21107 -0.26385 -0.21107 -0.26383 -0.68598 -0.21107 -0.89704 -0.15831 -0.63321 -0.21107 -0.26383 -0.68599 -0.21107 -0.89704 -0.15831 -0.63321 -0.36936 -0.42214 -0.42214 -0.42214 -0.15831 -0.1583 -1.6358 -0.36937 -0.3166 -0.36938 -0.3166 -0.26384 -0.3166 -0.21107 -0.94982 -0.58044 -0.21107 -0.21107 -0.21107 -0.21107 -0.89705 -0.1583 -0.63321 z"
       id="path4385"
       style="font-style:normal;font-variant:normal;font-weight:normal;font-stretch:normal;font-size:24px;line-height:100%;font-family:'Transport Heavy';-inkscape-font-specification:'Transport Heavy,';text-align:start;writing-mode:lr-tb;text-anchor:start;fill:#000000;fill-opacity:1;stroke:none;stroke-width:1.00589693"
       inkscape:connector-curvature="0" />
    <path
       d="m -404.27718,517.96429 c 6.04214,0.044 9.4948,3.10451 10.35798,9.18155 0.38262,5.45264 -1.55727,9.18155 -5.81968,11.18671 -4.12007,1.47749 -7.62612,0.89704 -10.51817,-1.74133 -3.07891,-3.42988 -3.93318,-7.36985 -2.5628,-11.81992 1.49497,-4.23017 4.34253,-6.49918 8.54267,-6.80701 z m 0.10673,4.01033 c -3.41707,0.64202 -4.98323,3.1045 -4.69847,7.38745 0.13347,2.53284 1.18351,4.32694 3.15012,5.38229 h 0.16016 c 0.16907,0.0967 0.32925,0.14951 0.48054,0.1583 l 0.10672,0.0528 0.6407,0.1583 c 3.7552,-0.0351 5.71289,-1.9348 5.87308,-5.69889 0.32922,-4.837 -1.57507,-7.31707 -5.71291,-7.44021 z"
       id="path4387"
       style="font-style:normal;font-variant:normal;font-weight:normal;font-stretch:normal;font-size:24px;line-height:100%;font-family:'Transport Heavy';-inkscape-font-specification:'Transport Heavy,';text-align:start;writing-mode:lr-tb;text-anchor:start;fill:#000000;fill-opacity:1;stroke:none;stroke-width:1.00589693"
       inkscape:connector-curvature="0" />
    <path
       d="m -377.52795,523.66318 c 2.4382,-0.15828 4.46709,0.43975 6.08665,1.7941 l 0.0534,0.10548 c 0.14237,0.1759 0.24915,0.35179 0.32035,0.52767 0.18686,0.27265 0.31144,0.5189 0.37375,0.73875 v 0.21107 c 0.10673,0.343 0.16015,0.64201 0.16016,0.89704 v 5.17122 c -0.0356,0.87066 -1e-5,1.59182 0.10673,2.16347 0.43602,0.44853 0.93434,0.72995 1.49497,0.84428 l -0.10673,0.1583 -0.10673,0.26384 -0.10671,0.21107 -0.0534,0.1583 -0.0534,0.1583 -0.10672,0.1583 -0.21357,0.52768 -0.10673,0.1583 -0.0534,0.1583 -0.0534,0.15831 -0.0534,0.10548 -0.37375,0.7915 c -1.58396,0.009 -2.77638,-0.48369 -3.57723,-1.47749 -1.52168,1.49509 -3.40818,1.86446 -5.65952,1.10813 -2.07339,-0.56286 -3.2836,-1.81169 -3.63063,-3.7465 0.0178,-2.84064 1.37038,-4.49402 4.05776,-4.96015 0.14237,-0.0879 0.28475,-0.1407 0.42714,-0.15829 h 0.16017 c 0.0534,-0.0351 0.10673,-0.0528 0.16018,-0.0528 l 0.16017,-0.0528 0.96105,-0.15831 0.42713,-0.0528 0.16019,-0.0528 0.90765,-0.0528 c 0.48051,-0.0704 0.87205,-0.0879 1.17461,-0.0528 0.13347,-1.96118 -0.95215,-2.62957 -3.25689,-2.00517 l -0.16018,0.0528 -0.42713,0.0528 -0.37373,0.15831 -0.16018,0.0528 -0.53392,0.1583 c -0.27586,0.1847 -0.52502,0.30782 -0.74748,0.36937 -0.30256,0.22868 -0.60511,0.38697 -0.90765,0.47491 l -0.37375,-0.68598 -0.10673,-0.0528 -0.0534,-0.1583 -0.10672,-0.10548 -0.0534,-0.1583 c -0.23136,-0.26383 -0.39153,-0.51008 -0.48051,-0.73874 -0.14239,-0.13191 -0.23138,-0.27263 -0.26698,-0.42214 -0.23135,-0.21985 -0.37372,-0.44852 -0.42713,-0.68599 l 0.10673,-0.0528 0.16018,-0.10548 0.10673,-0.0528 c 0.24025,-0.15828 0.45381,-0.28141 0.6407,-0.36936 0.14236,-0.0967 0.28474,-0.1495 0.42713,-0.15831 l 0.10673,-0.10548 c 0.32924,-0.14949 0.614,-0.25503 0.85427,-0.31661 l 0.10672,-0.10547 h 0.16017 c 0.16907,-0.10548 0.31146,-0.17587 0.42713,-0.21107 h 0.16018 c 0.24026,-0.12311 0.47163,-0.19347 0.69409,-0.21107 0.48942,-0.20226 0.95215,-0.3078 1.38818,-0.31661 l 0.16019,-0.0528 z m 2.5628,8.70664 h -0.16018 c -0.21358,0.0616 -0.39155,0.0968 -0.53392,0.10548 h -0.16017 c -0.0534,0.0352 -0.10684,0.0528 -0.16018,0.0528 l -0.21357,0.0528 h -0.16016 l -0.21357,0.0528 -0.32035,0.0528 c -0.0534,0.0352 -0.10684,0.0528 -0.16018,0.0528 l -0.21357,0.0528 -0.16016,0.0528 c -0.49834,0.12312 -0.88988,0.24624 -1.17463,0.36936 -0.37374,0.49251 -0.48052,1.00259 -0.32034,1.53027 0.88984,1.23124 2.17124,1.44231 3.8442,0.63321 l 0.42713,-0.63321 0.0534,-0.21107 v -0.21107 -0.15831 -0.26383 -0.15831 -0.21107 -0.1583 -1.05535 h -0.16016 z"
       id="path4389"
       style="font-style:normal;font-variant:normal;font-weight:normal;font-stretch:normal;font-size:24px;line-height:100%;font-family:'Transport Heavy';-inkscape-font-specification:'Transport Heavy,';text-align:start;writing-mode:lr-tb;text-anchor:start;fill:#000000;fill-opacity:1;stroke:none;stroke-width:1.00589693"
       inkscape:connector-curvature="0" />
    <path
       d="m -366.20892,524.24362 h 0.26695 0.21357 0.26697 0.21357 0.26695 0.69409 0.21357 0.90765 0.42713 0.37375 l 0.0534,9.44539 c 0.93435,1.77651 2.28693,2.16347 4.05776,1.16089 0.5339,-0.42214 0.90765,-0.91464 1.12123,-1.47749 v -0.15831 -1.05535 -0.36937 -0.36938 -0.21107 -0.26383 -0.68598 -0.21107 -0.89705 -0.1583 -0.63321 -0.21107 -0.21107 -0.1583 -0.94982 -0.68598 -0.21107 -0.89704 -0.15831 -0.63321 h 1.06783 0.26695 0.16019 0.21356 0.21357 0.21357 0.21356 0.90765 0.16019 0.6407 v 14.40554 h -1.06784 -0.26696 -0.16017 -0.21357 -0.21356 -0.21357 -0.21357 -0.90766 -0.16017 -0.6407 v -0.94982 c -2.11789,1.51267 -4.23575,1.68856 -6.35362,0.52768 -0.96104,-0.60683 -1.67293,-1.32799 -2.13566,-2.16348 l -0.10673,-0.0528 -0.0534,-0.15831 -0.0534,-0.1583 c -0.08,-0.17589 -0.13348,-0.3166 -0.16016,-0.42214 l -0.0534,-0.15831 c -0.16907,-0.54526 -0.27585,-0.98498 -0.32034,-1.31918 l -0.0534,-1.16088 v -0.36938 -0.31661 -0.89704 -0.15831 -0.63321 -0.68597 -0.21107 -0.89705 -0.1583 -0.63321 -0.58045 -0.26383 -0.68598 -0.21107 -0.89704 -0.15831 -0.63321 z"
       id="path4391"
       style="font-style:normal;font-variant:normal;font-weight:normal;font-stretch:normal;font-size:24px;line-height:100%;font-family:'Transport Heavy';-inkscape-font-specification:'Transport Heavy,';text-align:start;writing-mode:lr-tb;text-anchor:start;fill:#000000;fill-opacity:1;stroke:none;stroke-width:1.00589693"
       inkscape:connector-curvature="0" />
    <path
       d="m -343.73103,518.49197 c 0.0712,0.0791 0.10672,0.16711 0.10672,0.26383 v 5.38229 h 0.21357 0.58732 0.26695 0.6941 0.21357 0.90765 0.42713 0.37375 v 3.32435 h -0.21357 -0.58731 -0.26695 -0.69411 -0.21356 -0.90765 -0.16019 -0.6407 v 7.17639 l 0.10673,0.3166 c 0.68519,0.68598 1.77082,0.75634 3.2569,0.21107 l 0.0534,0.21107 0.26696,0.84428 0.0534,0.1583 0.0534,0.42214 0.16016,0.36938 v 0.15829 c 0.08,0.21988 0.13347,0.41335 0.16018,0.58045 l 0.16018,0.52768 c -2.21577,0.68597 -4.31584,0.82668 -6.30023,0.42214 -0.6051,-0.29903 -1.08563,-0.65081 -1.44156,-1.05535 -0.25807,-0.45732 -0.43605,-0.84428 -0.53392,-1.16089 v -0.36938 c -0.0623,-0.19347 -0.08,-0.36936 -0.0534,-0.52767 v -0.21107 -0.21107 -0.1583 -0.94981 -0.68599 -0.21107 -0.89704 -0.15831 -0.63321 -0.68597 -0.21107 -0.94982 -0.21107 -0.21107 -0.21107 -0.89705 -0.1583 -0.63321 h -0.21357 -0.21357 -0.21356 -0.90766 -0.16018 -0.6407 v -0.26384 -0.21107 -0.26383 -0.68598 -0.21107 -0.89705 -0.1583 -0.63321 h 0.21357 0.21357 0.21356 0.90766 0.42714 0.37374 v -0.89705 -0.21107 -0.89705 -0.58044 -0.21107 -0.89705 -0.1583 -0.63321 l 0.21356,-0.0528 0.10672,-0.0528 0.48054,-0.10548 c 0.20465,-0.0879 0.38263,-0.14069 0.53391,-0.1583 l 0.69408,-0.21107 0.26697,-0.0528 0.53392,-0.21107 c 0.45382,-0.0879 0.82755,-0.19346 1.12121,-0.3166 z"
       id="path4393"
       style="font-style:normal;font-variant:normal;font-weight:normal;font-stretch:normal;font-size:24px;line-height:100%;font-family:'Transport Heavy';-inkscape-font-specification:'Transport Heavy,';text-align:start;writing-mode:lr-tb;text-anchor:start;fill:#000000;fill-opacity:1;stroke:none;stroke-width:1.00589693"
       inkscape:connector-curvature="0" />
    <path
       d="m -331.34416,523.66318 c 3.50605,-0.0263 5.85528,1.41594 7.0477,4.32694 0.12456,0.15831 0.21355,0.31662 0.26696,0.4749 0.76527,3.06053 0.39152,5.75167 -1.12123,8.07344 -2.12678,2.41851 -4.65397,3.21002 -7.58162,2.37453 -3.07892,-1.03776 -4.75185,-3.20122 -5.01881,-6.4904 -0.26696,-5.03049 1.8687,-7.95029 6.407,-8.75941 z m 0.21357,3.53542 c -1.93991,0.82671 -2.79418,2.3042 -2.5628,4.43247 -0.0534,2.26022 0.88985,3.59699 2.82976,4.01033 2.33141,-0.15829 3.38146,-1.84685 3.1501,-5.06568 -0.27586,-2.22501 -1.41489,-3.35072 -3.41706,-3.37712 z"
       id="path4395"
       style="font-style:normal;font-variant:normal;font-weight:normal;font-stretch:normal;font-size:24px;line-height:100%;font-family:'Transport Heavy';-inkscape-font-specification:'Transport Heavy,';text-align:start;writing-mode:lr-tb;text-anchor:start;fill:#000000;fill-opacity:1;stroke:none;stroke-width:1.00589693"
       inkscape:connector-curvature="0" />
    <path
       d="m -315.48683,523.82148 c 2.72296,-0.15828 4.98321,0.56288 6.78074,2.16347 l -0.16017,0.1583 -0.16019,0.15831 c -0.11569,0.15831 -0.22247,0.28144 -0.32034,0.36937 l -0.21357,0.21107 -0.16017,0.1583 c -0.16019,0.21109 -0.32037,0.36938 -0.48053,0.47491 l -0.0534,0.10548 -0.10673,0.1583 -0.10673,0.0528 -0.69409,0.79152 c -2.32254,-1.90841 -4.12006,-2.1019 -5.39255,-0.58045 -0.009,0.40457 0.08,0.75635 0.26695,1.05535 l 0.21356,0.0528 0.16019,0.10548 h 0.16017 l 0.16017,0.0528 0.42713,0.0528 0.85427,0.21107 c 1.94879,0.0176 3.53274,0.61563 4.75186,1.7941 1.02332,1.50388 1.23689,3.01654 0.6407,4.53801 -0.58731,1.31918 -1.49498,2.19864 -2.72297,2.63837 -3.99549,1.1169 -7.34136,0.41335 -10.03763,-2.1107 0.16906,-0.21986 0.32924,-0.39575 0.48051,-0.52767 l 0.21357,-0.10548 c 0.22246,-0.29901 0.47162,-0.52768 0.74748,-0.68599 l 0.16018,-0.21107 0.10673,-0.10548 0.10673,-0.10547 0.10672,-0.10548 0.10673,-0.0528 0.10673,-0.0528 c 0.25806,-0.3254 0.50722,-0.57165 0.74748,-0.73875 1.77971,1.73254 3.57724,2.33057 5.39255,1.7941 l 0.0534,-0.10548 c 0.24916,-0.1583 0.44491,-0.35178 0.58731,-0.58044 0.0355,-0.53647 -0.1424,-0.94102 -0.53392,-1.21366 h -0.16018 l -0.10671,-0.10548 h -0.16019 l -0.16017,-0.0528 -0.10673,-0.10548 c -0.54282,-0.0879 -0.98775,-0.19348 -1.33479,-0.31661 -3.14121,-0.14071 -4.90314,-1.51266 -5.28577,-4.11586 0.0445,-3.13086 1.75302,-4.83701 5.1256,-5.11845 z"
       id="path4397"
       style="font-style:normal;font-variant:normal;font-weight:normal;font-stretch:normal;font-size:24px;line-height:100%;font-family:'Transport Heavy';-inkscape-font-specification:'Transport Heavy,';text-align:start;writing-mode:lr-tb;text-anchor:start;fill:#000000;fill-opacity:1;stroke:none;stroke-width:1.00589693"
       inkscape:connector-curvature="0" />
    <path
       d="m -300.43039,518.49197 c 0.0712,0.0791 0.10673,0.16711 0.10673,0.26383 v 5.38229 h 0.21357 0.5873 0.26696 0.6941 0.21357 0.90766 0.42713 0.37374 v 3.32435 h -0.21357 -0.5873 -0.26696 -0.6941 -0.21357 -0.90766 -0.16017 -0.6407 v 7.17639 l 0.10673,0.3166 c 0.68518,0.68598 1.77082,0.75634 3.25688,0.21107 l 0.0534,0.21107 0.26695,0.84428 0.0534,0.1583 0.0534,0.42214 0.16018,0.36938 v 0.15829 c 0.08,0.21988 0.13346,0.41335 0.16017,0.58045 l 0.16018,0.52768 c -2.21576,0.68597 -4.31584,0.82668 -6.30022,0.42214 -0.60511,-0.29903 -1.08563,-0.65081 -1.44158,-1.05535 -0.25806,-0.45732 -0.43603,-0.84428 -0.53391,-1.16089 v -0.36938 c -0.0623,-0.19347 -0.08,-0.36936 -0.0534,-0.52767 v -0.21107 -0.21107 -0.1583 -0.94981 -0.68599 -0.21107 -0.89704 -0.15831 -0.63321 -0.68597 -0.21107 -0.94982 -0.21107 -0.21107 -0.21107 -0.89705 -0.1583 -0.63321 h -0.21356 -0.21357 -0.21357 -0.90766 -0.16017 -0.6407 v -0.26384 -0.21107 -0.26383 -0.68598 -0.21107 -0.89705 -0.1583 -0.63321 h 0.21357 0.21356 0.21357 0.90765 0.42714 0.37374 v -0.89705 -0.21107 -0.89705 -0.58044 -0.21107 -0.89705 -0.1583 -0.63321 l 0.21357,-0.0528 0.10673,-0.0528 0.48052,-0.10548 c 0.20467,-0.0879 0.38264,-0.14069 0.53392,-0.1583 l 0.69409,-0.21107 0.26695,-0.0528 0.53392,-0.21107 c 0.45382,-0.0879 0.82757,-0.19346 1.12123,-0.3166 z"
       id="path4399"
       style="font-style:normal;font-variant:normal;font-weight:normal;font-stretch:normal;font-size:24px;line-height:100%;font-family:'Transport Heavy';-inkscape-font-specification:'Transport Heavy,';text-align:start;writing-mode:lr-tb;text-anchor:start;fill:#000000;fill-opacity:1;stroke:none;stroke-width:1.00589693"
       inkscape:connector-curvature="0" />
    <path
       d="m -288.04351,523.66318 c 3.50603,-0.0263 5.85526,1.41594 7.0477,4.32694 0.12456,0.15831 0.21354,0.31662 0.26695,0.4749 0.76526,3.06053 0.39153,5.75167 -1.12122,8.07344 -2.12678,2.41851 -4.65399,3.21002 -7.58162,2.37453 -3.07892,-1.03776 -4.75186,-3.20122 -5.01881,-6.4904 -0.26697,-5.03049 1.8687,-7.95029 6.407,-8.75941 z m 0.21357,3.53542 c -1.93991,0.82671 -2.79418,2.3042 -2.5628,4.43247 -0.0534,2.26022 0.88984,3.59699 2.82975,4.01033 2.33142,-0.15829 3.38146,-1.84685 3.15011,-5.06568 -0.27587,-2.22501 -1.4149,-3.35072 -3.41706,-3.37712 z"
       id="path4401"
       style="font-style:normal;font-variant:normal;font-weight:normal;font-stretch:normal;font-size:24px;line-height:100%;font-family:'Transport Heavy';-inkscape-font-specification:'Transport Heavy,';text-align:start;writing-mode:lr-tb;text-anchor:start;fill:#000000;fill-opacity:1;stroke:none;stroke-width:1.00589693"
       inkscape:connector-curvature="0" />
    <path
       d="m -269.94375,523.66318 c 5.15229,0.044 7.57271,2.98138 7.26127,8.81217 -0.29366,3.0869 -1.71744,5.14484 -4.27133,6.17381 -2.34034,0.72115 -4.38703,0.42214 -6.14003,-0.89706 v 5.22399 h -0.90767 -0.21357 -0.26695 -0.6941 -0.21356 -0.90765 -0.16019 -0.6407 v -0.42214 -0.42214 -0.42214 -0.42214 -0.36938 -0.42214 -0.36936 -0.15831 -0.26383 -0.15831 -0.21107 -0.1583 -1.05535 -0.21107 -0.94981 -0.31661 -0.36938 -1.05535 -0.42214 -0.42214 -0.42214 -0.42214 -1.05535 -0.1583 -0.1583 -1.63579 -0.36938 -0.3166 -0.36937 -0.31661 -0.26384 -0.3166 -0.21107 -0.94982 -0.58044 -0.21107 -0.21107 -0.21107 -0.21107 -0.89705 -0.1583 -0.63321 h 0.90766 0.21357 0.26695 0.69411 0.21356 0.90765 0.42714 0.37375 v 0.58044 c 1.03222,-0.67717 2.08226,-1.08171 3.15009,-1.21365 z m -0.58729,3.53542 c -1.08565,0.32542 -1.88653,0.92344 -2.40264,1.7941 v 0.1583 l -0.10673,0.42214 -0.10672,0.36937 v 3.00775 c 0.43603,1.49509 1.37928,2.33937 2.82976,2.53285 1.63734,0.11432 2.70517,-0.51889 3.2035,-1.89963 0.49831,-1.48629 0.51611,-2.89342 0.0534,-4.22141 -0.47163,-1.6006 -1.62845,-2.32175 -3.47045,-2.16347 z"
       id="path4403"
       style="font-style:normal;font-variant:normal;font-weight:normal;font-stretch:normal;font-size:24px;line-height:100%;font-family:'Transport Heavy';-inkscape-font-specification:'Transport Heavy,';text-align:start;writing-mode:lr-tb;text-anchor:start;fill:#000000;fill-opacity:1;stroke:none;stroke-width:1.00589693"
       inkscape:connector-curvature="0" />
    <g
       id="g2894"
       transform="matrix(1.1544787,0,0,1,-667.0356,200.33896)">
      <path
         inkscape:connector-curvature="0"
         style="fill:#ffffff;fill-opacity:1;fill-rule:evenodd;stroke:none"
         id="path1886-0-1"
         d="M 76.773029,25.741358 64.23155,116.93812 H 86.492674 L 88.301542,25.741358 Z M 60.596292,150.43842 31.213696,357.01711 h 50.551806 l 3.81068,-206.22498 z" />
      <path
         inkscape:connector-curvature="0"
         style="fill:#ffffff;fill-opacity:1;fill-rule:evenodd;stroke:none"
         id="path1888-9-7"
         d="m 29.091292,128.70544 v 13.94172 h 15.580375 v 20.2091 h 4.606582 l 2.050049,-20.2091 H 68.693422 114.25275 131.642 l 2.02593,20.2091 h 4.60658 v -20.2091 h 15.58037 V 128.70544 H 114.25275 68.693422 Z" />
      <path
         inkscape:connector-curvature="0"
         style="fill:#ffffff;fill-opacity:1;fill-rule:evenodd;stroke:none"
         id="path3692-4-4"
         d="m 106.18577,25.741358 12.54147,91.196762 H 96.466121 L 94.657254,25.741358 Z m 15.13384,125.154382 30.42549,206.12137 h -50.55181 l -4.871336,-206.07846 24.997656,-0.0429 v 1e-5 z" />
    </g>
  </g>
</svg>
