<?xml version="1.0" encoding="UTF-8" standalone="no"?>
<!-- Created with Inkscape (http://www.inkscape.org/) -->

<svg
   xmlns:dc="http://purl.org/dc/elements/1.1/"
   xmlns:cc="http://creativecommons.org/ns#"
   xmlns:rdf="http://www.w3.org/1999/02/22-rdf-syntax-ns#"
   xmlns:svg="http://www.w3.org/2000/svg"
   xmlns="http://www.w3.org/2000/svg"
   xmlns:sodipodi="http://sodipodi.sourceforge.net/DTD/sodipodi-0.dtd"
   xmlns:inkscape="http://www.inkscape.org/namespaces/inkscape"
   version="1.0"
   width="834.08563"
   height="734.98938"
   id="svg2"
   sodipodi:version="0.32"
   inkscape:version="0.47 r22583"
   sodipodi:docname="ZZ.svg"
   inkscape:output_extension="org.inkscape.output.svg.inkscape">
  <metadata
     id="metadata12">
    <rdf:RDF>
      <cc:Work
         rdf:about="">
        <dc:format>image/svg+xml</dc:format>
        <dc:type
           rdf:resource="http://purl.org/dc/dcmitype/StillImage" />
      </cc:Work>
    </rdf:RDF>
  </metadata>
  <sodipodi:namedview
     inkscape:window-height="1003"
     inkscape:window-width="1280"
     inkscape:pageshadow="2"
     inkscape:pageopacity="0.0"
     guidetolerance="10.0"
     gridtolerance="10.0"
     objecttolerance="10.0"
     borderopacity="1.0"
     bordercolor="#666666"
     pagecolor="#ffffff"
     id="base"
     inkscape:zoom="0.44"
     inkscape:cx="176.08108"
     inkscape:cy="385.4772"
     inkscape:window-x="-4"
     inkscape:window-y="-4"
     inkscape:current-layer="svg2"
     width="200px"
     height="200px"
     showgrid="false"
     inkscape:showpageshadow="false"
     inkscape:window-maximized="0" />
  <defs
     id="defs4">
    <inkscape:perspective
       sodipodi:type="inkscape:persp3d"
       inkscape:vp_x="0 : 450 : 1"
       inkscape:vp_y="0 : 1000 : 0"
       inkscape:vp_z="900 : 450 : 1"
       inkscape:persp3d-origin="450 : 300 : 1"
       id="perspective13" />
  </defs>
  <g
     id="g3053"
     transform="translate(-461.7703,344.00737)">
    <path
       style="fill:#ffffff;fill-opacity:1;fill-rule:nonzero;stroke:#000000;stroke-width:3;stroke-linecap:round;stroke-linejoin:round;stroke-miterlimit:2;stroke-opacity:1;stroke-dasharray:none;stroke-dashoffset:0"
       d="m 916.74858,-321.57737 c -7.4343,-12.8755 -21.9788,-20.93 -37.9356,-20.93 -16.2469,0 -30.7968,8.495 -38.3717,21.6152 l -370.6666,642.0714 c -7.9552,13.7802 -9.1331,31.1377 -0.6229,45.8778 8.1235,14.0703 22.7546,22.425 37.9045,22.425 l 743.51342,0 c 15.1499,0 29.781,-8.3548 37.9045,-22.425 8.5102,-14.74 7.333,-32.098 -0.623,-45.8778 l -371.10262,-642.7566 z"
       id="path3084"
       sodipodi:nodetypes="cscssssssc" />
    <path
       id="path3092"
       d="m 878.82318,-327.50207 c 10.9092,0 20.385,5.5528 24.9376,13.4375 l 371.09372,642.75 c 5.549,9.6109 6.2861,21.0698 0.625,30.875 -5.5096,9.5428 -15.2711,14.9062 -24.9063,14.9063 l -743.53122,0 c -9.6352,0 -19.3966,-5.3633 -24.9062,-14.9063 -5.6611,-9.8052 -4.924,-21.2631 0.625,-30.875 l 370.6562,-642.0625 c 4.8181,-8.3452 14.3881,-14.125 25.4062,-14.125 z"
       style="fill:#d40000;fill-opacity:1;fill-rule:nonzero;stroke:none" />
    <path
       id="path3102"
       d="m 878.79198,-197.31457 283.93752,491.7813 -567.84372,0 283.9062,-491.7813 z"
       style="fill:#ffffff;fill-opacity:1;fill-rule:nonzero;stroke:none" />
    <g
       transform="translate(709.82862,0)"
       id="g2466">
      <rect
         style="fill:#000000;fill-opacity:1;fill-rule:evenodd;stroke:none"
         id="rect7302"
         width="273.26852"
         height="61.262714"
         x="89.456841"
         y="-43.512688"
         transform="matrix(0.7071068,0.7071068,-0.7071068,0.7071068,0,0)" />
      <rect
         transform="matrix(-0.7071068,0.7071068,0.7071068,0.7071068,0,0)"
         y="195.45973"
         x="-149.51567"
         height="61.262756"
         width="273.26874"
         id="rect8189"
         style="fill:#000000;fill-opacity:1;fill-rule:evenodd;stroke:none" />
    </g>
  </g>
</svg>
