<?xml version="1.0" encoding="UTF-8" standalone="no"?>
<!-- Created with Inkscape (http://www.inkscape.org/) -->

<svg
   xmlns:dc="http://purl.org/dc/elements/1.1/"
   xmlns:cc="http://creativecommons.org/ns#"
   xmlns:rdf="http://www.w3.org/1999/02/22-rdf-syntax-ns#"
   xmlns:svg="http://www.w3.org/2000/svg"
   xmlns="http://www.w3.org/2000/svg"
   xmlns:sodipodi="http://sodipodi.sourceforge.net/DTD/sodipodi-0.dtd"
   xmlns:inkscape="http://www.inkscape.org/namespaces/inkscape"
   version="1.0"
   width="212.41559"
   height="348.75323"
   id="svg8545"
   sodipodi:version="0.32"
   inkscape:version="0.48.2 r9819"
   sodipodi:docname="AJAX.svg"
   inkscape:output_extension="org.inkscape.output.svg.inkscape">
  <metadata
     id="metadata10696">
    <rdf:RDF>
      <cc:Work
         rdf:about="">
        <dc:format>image/svg+xml</dc:format>
        <dc:type
           rdf:resource="http://purl.org/dc/dcmitype/StillImage" />
      </cc:Work>
    </rdf:RDF>
  </metadata>
  <sodipodi:namedview
     inkscape:window-height="1004"
     inkscape:window-width="1280"
     inkscape:pageshadow="2"
     inkscape:pageopacity="0.0"
     guidetolerance="10.0"
     gridtolerance="10.0"
     objecttolerance="10.0"
     borderopacity="1.0"
     bordercolor="#666666"
     pagecolor="#ffffff"
     id="base"
     showgrid="false"
     inkscape:zoom="2"
     inkscape:cx="76.904196"
     inkscape:cy="239.2929"
     inkscape:window-x="-8"
     inkscape:window-y="-8"
     inkscape:current-layer="svg8545"
     fit-margin-top="0"
     fit-margin-left="0"
     fit-margin-right="0"
     fit-margin-bottom="0"
     inkscape:window-maximized="1" />
  <defs
     id="defs8548">
    <inkscape:perspective
       sodipodi:type="inkscape:persp3d"
       inkscape:vp_x="0 : 174 : 1"
       inkscape:vp_y="0 : 1000 : 0"
       inkscape:vp_z="210 : 174 : 1"
       inkscape:persp3d-origin="105 : 116 : 1"
       id="perspective10698" />
  </defs>
  <g
     id="g9919"
     transform="translate(0.75324672,0)">
    <rect
       width="212.41559"
       height="348.75323"
       x="-0.75324672"
       y="5.6843419e-014"
       id="rect8556"
       style="fill:#00408b;fill-opacity:1;fill-rule:nonzero;stroke:none" />
    <rect
       width="201.1169"
       height="338.20773"
       ry="21.844156"
       x="5.272727"
       y="4.5194807"
       id="rect9067"
       style="fill:none;stroke:#ffffff;stroke-width:4.56400013000000020;stroke-linecap:round;stroke-linejoin:miter;stroke-miterlimit:4;stroke-opacity:1;stroke-dasharray:none;stroke-dashoffset:0" />
  </g>
  <g
     transform="matrix(10.012987,0,0,10.012987,161.05194,21.50649)"
     id="g9615"
     style="stroke:none">
    <rect
       width="1"
       height="2"
       x="0"
       y="0"
       id="rect9602"
       style="fill:#009246;stroke:none;fill-opacity:1" />
    <rect
       width="1"
       height="2"
       x="1"
       y="0"
       id="rect9604"
       style="fill:#ffffff;stroke:none" />
    <rect
       width="1"
       height="2"
       x="2"
       y="0"
       id="rect9606"
       style="fill:#ce2b37;stroke:none;fill-opacity:1" />
  </g>
  <path
     style="font-size:10px;font-style:normal;font-weight:normal;fill:#ffffff;fill-opacity:1;stroke:none;font-family:Bitstream Vera Sans"
     d="m 59.811843,42.288902 0,-23.129113 4.365821,0 0,23.129113 -4.365821,0 z m 13.377706,0 0,-19.216413 -6.415991,0 0,-3.9127 17.183052,0 0,3.9127 -6.401241,0 0,19.216413 -4.36582,0 z m 33.097651,0 -4.74931,0 -1.887921,-5.25375 -8.643147,0 -1.784677,5.25375 -4.631311,0 8.421908,-23.129113 4.616561,0 8.657897,23.129113 z m -8.038423,-9.150672 -2.979378,-8.582699 -2.920382,8.582699 5.89976,0 z m 10.486823,9.150672 0,-22.939791 4.36582,0 0,19.042865 10.85556,0 0,3.896926 -15.22138,0 z m 18.21551,0 0,-23.129113 4.36582,0 0,23.129113 -4.36582,0 z m 28.00911,0 -4.74931,0 -1.88792,-5.25375 -8.64315,0 -1.78468,5.25375 -4.63131,0 8.42191,-23.129113 4.61656,0 8.6579,23.129113 z m -8.03843,-9.150672 -2.97937,-8.582699 -2.92039,8.582699 5.89976,0 z"
     id="flowRoot9821"
     inkscape:connector-curvature="0" />
  <path
     style="fill:#ffffff;fill-opacity:1;fill-rule:nonzero;stroke:none"
     id="path9634"
     d="m 53.857145,30.38961 c 0,5.824094 -7.503592,10.545455 -16.759741,10.545455 -9.256149,0 -16.759741,-4.721361 -16.759741,-10.545455 0,-5.824094 7.503592,-10.545455 16.759741,-10.545455 9.256149,0 16.759741,4.721361 16.759741,10.545455 l 0,0 z"
     inkscape:connector-curvature="0" />
  <path
     style="fill:none;stroke:none"
     id="path9636"
     d="m 52.633114,30.201298 c 0,5.304086 -6.976654,9.603897 -15.582792,9.603897 -8.606137,0 -15.582791,-4.299811 -15.582791,-9.603897 0,-5.304085 6.976654,-9.603896 15.582791,-9.603896 8.606138,0 15.582792,4.299811 15.582792,9.603896 l 0,0 z"
     inkscape:connector-curvature="0" />
  <g
     transform="translate(0.75324672,-8)"
     id="g10259">
    <g
       id="g9901">
      <rect
         width="174.75325"
         height="48.96104"
         ry="0"
         x="17.324675"
         y="278.05194"
         id="rect9075"
         style="fill:#ffffff;fill-opacity:1;fill-rule:nonzero;stroke:none" />
      <g
         transform="matrix(0.8268187,0,0,0.8268187,210.9872,104.37866)"
         id="g9168">
        <rect
           width="47.844158"
           height="47.844158"
           x="-108.28571"
           y="215.61038"
           id="rect1873"
           style="fill:none;fill-opacity:1;fill-rule:evenodd;stroke:none" />
        <rect
           width="47.365719"
           height="47.365719"
           x="-108.04649"
           y="215.84959"
           id="rect1875"
           style="fill:#08842c;fill-opacity:1;fill-rule:evenodd;stroke:none" />
        <g
           transform="matrix(0.2392208,0,0,0.2392208,-108.76041,215.46087)"
           id="g4586">
          <path
             d="m 82.9375,19.6875 -16.25,44.5625 28.84375,0 2.34375,-44.5625 -14.9375,0 z m -24.625,67.5 -34.40625,94.375 65.5,0 4.9375,-94.375 -36.03125,0 z"
             id="path1886"
             style="fill:#ffffff;fill-opacity:1;fill-rule:evenodd;stroke:none"
             inkscape:connector-curvature="0" />
          <path
             d="m 21.15625,70 0,6.8125 20.1875,0 0,9.875 5.96875,0 2.65625,-9.875 22.5,0 59.03125,0 22.53125,0 2.625,9.875 5.96875,0 0,-9.875 20.1875,0 0,-6.8125 -51.3125,0 -59.03125,0 -51.3125,0 z"
             id="path1888"
             style="fill:#ffffff;fill-opacity:1;fill-rule:evenodd;stroke:none"
             inkscape:connector-curvature="0" />
          <path
             d="m 121.0476,19.6875 16.25,44.5625 -28.84375,0 -2.34375,-44.5625 14.9375,0 z m 24.625,67.5 34.40625,94.375 -65.5,0 -4.9375,-94.375 36.03125,0 z"
             id="path3692"
             style="fill:#ffffff;fill-opacity:1;fill-rule:evenodd;stroke:none"
             inkscape:connector-curvature="0" />
        </g>
      </g>
      <g
         transform="matrix(0.2128574,0,0,0.2128574,35.584385,280.40276)"
         id="g9266">
        <path
           d="m 177.18833,110.61008 c 0.008,47.32336 -38.35303,85.69073 -85.676391,85.69073 -47.323365,0 -85.6843111,-38.36737 -85.6763906,-85.69073 -0.00792,-47.323364 38.3530256,-85.690732 85.6763906,-85.690732 47.323361,0 85.684311,38.367368 85.676391,85.690732 l 0,0 z"
           transform="matrix(1.167183,0,0,1.167183,-6.811181,-29.1022)"
           id="path1873"
           style="fill:none;fill-opacity:1;fill-rule:evenodd;stroke:none"
           inkscape:connector-curvature="0" />
        <path
           d="m 55.172415,-13.793103 c 0,14.64946355 -11.875736,26.5252 -26.5252,26.5252 -14.649464,0 -26.5252001,-11.87573645 -26.5252,-26.5252 -1e-7,-14.649464 11.875736,-26.5252 26.5252,-26.5252 14.649464,0 26.5252,11.875736 26.5252,26.5252 l 0,0 z"
           transform="matrix(3.7323,0,0,3.7323,-6.92,151.48)"
           id="path1875"
           style="fill:none;fill-opacity:1;fill-rule:evenodd;stroke:none"
           inkscape:connector-curvature="0" />
        <path
           d="m -125.19894,-42.440319 c 0,7.031744 -5.81911,12.732098 -12.99735,12.732098 -7.17824,0 -12.99735,-5.700354 -12.99735,-12.732098 0,-7.031744 5.81911,-12.732098 12.99735,-12.732098 7.17824,0 12.99735,5.700354 12.99735,12.732098 z"
           transform="matrix(7.463061,0,0,7.618542,1131.367,423.3334)"
           id="path1877"
           style="fill:#d40000;fill-opacity:1;fill-rule:evenodd;stroke:none"
           inkscape:connector-curvature="0" />
        <path
           d="m 117.24138,89.655174 c 0,19.034486 -18.062597,34.482756 -40.3183,34.482756 -22.255702,0 -40.318302,-15.44827 -40.318302,-34.482756 0,-19.034482 18.0626,-34.482757 40.318302,-34.482757 22.255703,0 40.3183,15.448275 40.3183,34.482757 z"
           transform="matrix(1.785789,0,0,2.088,-37.36839,-87.2)"
           id="path1874"
           style="fill:#ffffff;fill-opacity:1;fill-rule:evenodd;stroke:none"
           inkscape:connector-curvature="0" />
        <path
           d="m 53.880018,59.968837 10.791035,0 0,80.062443 -12.742605,0 0,-54.393567 -9.872649,0 0,-13.445602 c 4.285781,6.8e-5 7.327932,-0.840281 9.12646,-2.52105 1.79848,-1.680628 2.697732,-4.914699 2.697759,-9.702224 l 0,0 z"
           id="text1874"
           style="font-size:271.23535156px;font-style:normal;font-weight:normal;fill:#000000;fill-opacity:1;stroke:none;font-family:Bitstream Vera Sans"
           inkscape:connector-curvature="0" />
        <path
           d="m 161.46653,98.943312 c 0,26.749798 -8.85972,40.578978 -21.6574,40.578978 -12.79768,0 -21.65738,-13.70608 -21.65738,-40.578978 0,-23.615037 8.63454,-40.578993 21.65738,-40.578993 13.02284,0 21.6574,17.575532 21.6574,40.578993 z m -14.81238,3.9e-5 c 0,15.341279 -2.55437,25.603429 -6.95729,25.603429 -4.5137,0 -6.95728,-10.50417 -6.95728,-25.603429 0,-16.427736 2.55436,-25.603424 6.95728,-25.603424 4.5151,0 6.95729,8.933709 6.95729,25.603424 z"
           id="path1904"
           style="fill:#000000;fill-opacity:1;fill-rule:evenodd;stroke:none"
           inkscape:connector-curvature="0" />
        <path
           d="m 102.49048,96.773903 c 3.25635,1.351613 5.73096,3.699667 7.42383,7.044077 1.69286,3.3445 2.53927,7.59872 2.53933,12.76266 -6e-5,7.69399 -1.83307,13.54242 -5.49915,17.54539 -3.66613,4.00297 -9.014318,6.00441 -16.044556,6.00441 -2.479989,0 -4.965413,-0.32059 -7.456159,-0.96177 -2.490804,-0.64118 -4.954654,-1.60286 -7.391496,-2.88522 l 0,-15.43995 c 2.329031,1.87158 4.641867,3.2838 6.938622,4.23693 2.296642,0.95303 4.55563,1.4296 6.776849,1.4296 3.299498,0 5.828012,-0.91846 7.5856,-2.75528 1.757532,-1.83682 2.636326,-4.4708 2.636326,-7.90193 0,-3.53505 -0.900368,-6.21234 -2.701046,-8.03187 -1.800678,-1.81944 -4.458634,-2.72925 -7.973753,-2.72925 l -4.98155,0 0,-12.892606 5.240375,0 c 3.12691,0 5.45594,-0.788418 6.987148,-2.365436 1.531095,-1.576837 2.296642,-3.976853 2.296699,-7.200049 -5.7e-5,-2.980501 -0.744031,-5.285241 -2.232035,-6.91422 -1.488004,-1.628797 -3.590655,-2.443241 -6.307838,-2.443332 -2.005598,9.1e-5 -4.032713,0.363997 -6.081401,1.091719 -2.048689,0.727903 -4.086619,1.802242 -6.113734,3.223196 l 0,-14.660174 c 2.458415,-1.109008 4.895313,-1.940742 7.310581,-2.495383 2.415324,-0.554368 4.787502,-0.831643 7.116589,-0.831734 6.275449,9.1e-5 10.971279,1.655005 14.087489,4.96465 3.11615,3.309919 4.6742,8.29195 4.67425,14.946094 -5e-5,4.540229 -0.74403,8.257188 -2.23198,11.151058 -1.48806,2.89396 -3.6877,4.93007 -6.59899,6.10842 l 0,0 z"
           id="flowRoot2501"
           style="font-size:1.16998577px;font-style:normal;font-variant:normal;font-weight:normal;font-stretch:normal;text-align:start;line-height:125%;writing-mode:lr-tb;text-anchor:start;fill:#000000;fill-opacity:1;stroke:none;font-family:Bitstream Vera Sans;-inkscape-font-specification:Bitstream Vera Sans"
           inkscape:connector-curvature="0" />
      </g>
    </g>
    <g
       id="g9883">
      <rect
         width="174.75325"
         height="48.96104"
         ry="0"
         x="17.324675"
         y="208.05194"
         id="rect9073"
         style="fill:#ffffff;fill-opacity:1;fill-rule:nonzero;stroke:none" />
      <g
         transform="matrix(0.1940259,0,0,0.1940259,121.45455,213.14285)"
         id="g9245">
        <rect
           width="200"
           height="200"
           x="0"
           y="0"
           id="rect9254"
           style="fill:none;fill-opacity:1;fill-rule:evenodd;stroke:none" />
        <rect
           width="198"
           height="198"
           x="1"
           y="1"
           id="rect9256"
           style="fill:#00408b;fill-opacity:1;fill-rule:evenodd;stroke:none" />
        <g
           transform="translate(-1.984375,-0.625)"
           id="g9258">
          <path
             d="m 82.9375,19.6875 -16.25,44.5625 28.84375,0 2.34375,-44.5625 -14.9375,0 z m -24.625,67.5 -34.40625,94.375 65.5,0 4.9375,-94.375 -36.03125,0 z"
             id="path9260"
             style="fill:#ffffff;fill-opacity:1;fill-rule:evenodd;stroke:none"
             inkscape:connector-curvature="0" />
          <path
             d="m 21.15625,70 0,6.8125 20.1875,0 0,9.875 5.96875,0 2.65625,-9.875 22.5,0 59.03125,0 22.53125,0 2.625,9.875 5.96875,0 0,-9.875 20.1875,0 0,-6.8125 -51.3125,0 -59.03125,0 -51.3125,0 z"
             id="path9262"
             style="fill:#ffffff;fill-opacity:1;fill-rule:evenodd;stroke:none"
             inkscape:connector-curvature="0" />
          <path
             d="m 121.0476,19.6875 16.25,44.5625 -28.84375,0 -2.34375,-44.5625 14.9375,0 z m 24.625,67.5 34.40625,94.375 -65.5,0 -4.9375,-94.375 36.03125,0 z"
             id="path9264"
             style="fill:#ffffff;fill-opacity:1;fill-rule:evenodd;stroke:none"
             inkscape:connector-curvature="0" />
        </g>
      </g>
      <g
         transform="matrix(0.2203898,0,0,0.2203898,34.831145,211.64939)"
         id="g9348">
        <path
           d="m 177.18833,110.61008 c 0.008,47.32336 -38.35303,85.69073 -85.676391,85.69073 -47.323365,0 -85.6843111,-38.36737 -85.6763906,-85.69073 -0.00792,-47.323364 38.3530256,-85.690732 85.6763906,-85.690732 47.323361,0 85.684311,38.367368 85.676391,85.690732 l 0,0 z"
           transform="matrix(1.167183,0,0,1.167183,-6.811181,-29.1022)"
           id="path9358"
           style="fill:none;fill-opacity:1;fill-rule:evenodd;stroke:none"
           inkscape:connector-curvature="0" />
        <path
           d="m 55.172415,-13.793103 c 0,14.64946355 -11.875736,26.5252 -26.5252,26.5252 -14.649464,0 -26.5252001,-11.87573645 -26.5252,-26.5252 -1e-7,-14.649464 11.875736,-26.5252 26.5252,-26.5252 14.649464,0 26.5252,11.875736 26.5252,26.5252 l 0,0 z"
           transform="matrix(3.7323,0,0,3.7323,-6.92,151.48)"
           id="path9360"
           style="fill:none;fill-opacity:1;fill-rule:evenodd;stroke:none"
           inkscape:connector-curvature="0" />
        <path
           d="m -125.19894,-42.440319 c 0,7.031744 -5.81911,12.732098 -12.99735,12.732098 -7.17824,0 -12.99735,-5.700354 -12.99735,-12.732098 0,-7.031744 5.81911,-12.732098 12.99735,-12.732098 7.17824,0 12.99735,5.700354 12.99735,12.732098 z"
           transform="matrix(7.463061,0,0,7.618542,1131.367,423.3334)"
           id="path9362"
           style="fill:#d40000;fill-opacity:1;fill-rule:evenodd;stroke:none"
           inkscape:connector-curvature="0" />
        <path
           d="m 117.24138,89.655174 c 0,19.034486 -18.062597,34.482756 -40.3183,34.482756 -22.255702,0 -40.318302,-15.44827 -40.318302,-34.482756 0,-19.034482 18.0626,-34.482757 40.318302,-34.482757 22.255703,0 40.3183,15.448275 40.3183,34.482757 z"
           transform="matrix(1.785789,0,0,2.088,-37.36839,-87.2)"
           id="path9364"
           style="fill:#ffffff;fill-opacity:1;fill-rule:evenodd;stroke:none"
           inkscape:connector-curvature="0" />
        <path
           d="m 53.880018,59.968837 10.791035,0 0,80.062443 -12.742605,0 0,-54.393567 -9.872649,0 0,-13.445602 c 4.285781,6.8e-5 7.327932,-0.840281 9.12646,-2.52105 1.79848,-1.680628 2.697732,-4.914699 2.697759,-9.702224 l 0,0 z"
           id="path9366"
           style="font-size:271.23535156px;font-style:normal;font-weight:normal;fill:#000000;fill-opacity:1;stroke:none;font-family:Bitstream Vera Sans"
           inkscape:connector-curvature="0" />
        <path
           d="m 157.9442,100.00001 c 0,27.44638 -8.13925,41.63568 -19.89623,41.63568 -11.75698,0 -19.89622,-14.063 -19.89622,-41.63568 0,-24.229985 7.93239,-41.635691 19.89622,-41.635691 11.96383,0 19.89623,18.033208 19.89623,41.635691 z m -13.60784,4e-5 c 0,15.74077 -2.34665,26.27015 -6.39153,26.27015 -4.14665,0 -6.39152,-10.7777 -6.39152,-26.27015 0,-16.855523 2.34664,-26.270151 6.39152,-26.270151 4.14793,0 6.39153,9.166348 6.39153,26.270151 z"
           id="path9368"
           style="fill:#000000;fill-opacity:1;fill-rule:evenodd;stroke:none"
           inkscape:connector-curvature="0" />
        <path
           d="m -95.265625,69.997014 0.351563,0 0.253906,0 0.07813,0 0.332031,0 0.05859,0 0.234375,0 0,7.460938 -0.253907,0 -0.07812,0 -0.351563,0 -0.07813,0 -0.07813,0 -0.07813,0 -0.332031,0 -0.05859,0 -0.234375,0 0,-0.136719 0,-0.05859 0,-0.05859 0,-0.253906 0,-0.05859 0,-0.09766 0,-0.05859 0,-0.07813 0,-0.05859 0,-0.390625 0,-0.15625 0,-0.273438 0,-0.05859 0,-0.09766 0,-0.05859 0,-0.07813 0,-0.05859 0,-0.390625 0,-0.332032 0,-0.05859 0,-0.234375 0,-0.07813 0,-0.05859 0,-0.390625 0,-0.07813 0,-0.05859 0,-0.351562 0,-0.253907 0,-0.07813 0,-0.332031 0,-0.05859 0,-0.234375 -0.332031,0 -0.214844,0 -0.07813,0 -0.332031,0 -0.05859,0 -0.234375,0 0,-0.07813 0,-0.09766 0,-0.07813 0,-0.09766 0,-0.253906 0,-0.07813 0,-0.332032 0,-0.05859 0,-0.234375 c 0.423176,0.0098 0.787759,-0.08137 1.09375,-0.273438 l 0.01953,-0.03906 c 0.07812,-0.104159 0.136717,-0.195305 0.175781,-0.273438 l 0,-0.05859 0.03906,-0.136718 0.09766,-0.351563 0.05859,0 z"
           transform="matrix(7.9029842,0,0,10.822165,846.09338,-698.08922)"
           id="flowRoot2468"
           style="font-size:10px;font-style:normal;font-weight:normal;fill:#000000;fill-opacity:1;stroke:none;font-family:Bitstream Vera Sans"
           inkscape:connector-curvature="0" />
      </g>
    </g>
    <g
       id="g9857">
      <rect
         width="174.75325"
         height="48.96104"
         ry="0"
         x="17.324675"
         y="70.051949"
         id="rect9069"
         style="fill:#ffffff;fill-opacity:1;fill-rule:nonzero;stroke:none" />
      <g
         transform="matrix(0.2128574,0,0,0.2128574,35.5844,73.15601)"
         id="g9522">
        <path
           d="m 177.18833,110.61008 c 0.008,47.32336 -38.35303,85.69073 -85.676391,85.69073 -47.323365,0 -85.6843111,-38.36737 -85.6763906,-85.69073 -0.00792,-47.323364 38.3530256,-85.690732 85.6763906,-85.690732 47.323361,0 85.684311,38.367368 85.676391,85.690732 l 0,0 z"
           transform="matrix(1.167183,0,0,1.167183,-6.811181,-29.1022)"
           id="path9532"
           style="fill:none;fill-opacity:1;fill-rule:evenodd;stroke:none"
           inkscape:connector-curvature="0" />
        <path
           d="m 55.172415,-13.793103 c 0,14.64946355 -11.875736,26.5252 -26.5252,26.5252 -14.649464,0 -26.5252001,-11.87573645 -26.5252,-26.5252 -1e-7,-14.649464 11.875736,-26.5252 26.5252,-26.5252 14.649464,0 26.5252,11.875736 26.5252,26.5252 l 0,0 z"
           transform="matrix(3.7323,0,0,3.7323,-6.92,151.48)"
           id="path9534"
           style="fill:none;fill-opacity:1;fill-rule:evenodd;stroke:none"
           inkscape:connector-curvature="0" />
        <path
           d="m -125.19894,-42.440319 c 0,7.031744 -5.81911,12.732098 -12.99735,12.732098 -7.17824,0 -12.99735,-5.700354 -12.99735,-12.732098 0,-7.031744 5.81911,-12.732098 12.99735,-12.732098 7.17824,0 12.99735,5.700354 12.99735,12.732098 z"
           transform="matrix(7.463061,0,0,7.618542,1131.367,423.3334)"
           id="path9536"
           style="fill:#d40000;fill-opacity:1;fill-rule:evenodd;stroke:none"
           inkscape:connector-curvature="0" />
        <path
           d="m 117.24138,89.655174 a 40.318302,34.482758 0 1 1 -80.636602,0 40.318302,34.482758 0 1 1 80.636602,0 z"
           transform="matrix(1.785789,0,0,2.088,-37.36839,-87.2)"
           id="path9538"
           style="fill:#ffffff;fill-opacity:1;fill-rule:evenodd;stroke:none"
           inkscape:connector-curvature="0" />
        <g
           transform="translate(0.356589,0.608914)"
           id="g9540">
          <path
             d="m 149.50777,99.391088 c 0,27.446382 -9.78357,41.635682 -23.91574,41.635682 -14.13218,0 -23.91574,-14.063 -23.91574,-41.635682 0,-24.229981 9.53492,-41.635687 23.91574,-41.635687 14.38081,0 23.91574,18.033208 23.91574,41.635687 z m -16.35695,4e-5 c 0,15.740772 -2.82072,26.270152 -7.68277,26.270152 -4.98438,0 -7.68277,-10.7777 -7.68277,-26.270152 0,-16.855519 2.82072,-26.270147 7.68277,-26.270147 4.98592,0 7.68277,9.166348 7.68277,26.270147 z"
             id="path9542"
             style="fill:#000000;fill-opacity:1;fill-rule:evenodd;stroke:none"
             inkscape:connector-curvature="0" />
          <path
             d="m 51.779052,118.69408 13.978149,-1.61107 c 0.561457,4.39759 2.886493,8.61634 7.031985,8.61634 6.859791,0 9.173735,-7.685 9.173735,-13.11622 0,-6.98079 -2.154953,-13.766758 -9.219931,-13.766758 -3.484317,0 -6.425411,2.780258 -7.132174,5.695208 l -12.391644,-1.58421 4.970154,-43.620508 35.105812,0 0,13.863501 -22.97319,0 -1.940569,13.832942 c 2.001103,-1.036174 3.777798,-1.863785 6.864739,-1.86384 5.89031,5.5e-5 10.882918,2.5185 14.977852,7.555343 4.094846,5.036936 6.142336,11.573872 6.142336,19.610552 0,14.77679 -8.679316,28.72141 -23.718862,28.72141 -12.926951,0 -19.288529,-12.05207 -20.868392,-22.33269 l 0,0 z"
             id="text1877"
             style="font-size:107.96711731px;font-style:normal;font-weight:normal;fill:#000000;fill-opacity:1;stroke:none;font-family:Bitstream Vera Sans"
             inkscape:connector-curvature="0" />
        </g>
      </g>
      <path
         d="m 92.67122,111.83528 87.35476,0.0219 0,-14.688315 -2.63637,-0.37663 0,-6.02597 -2.25974,0 0,5.64935 -3.01298,0 0,-2.25974 -4.89611,0 0,-0.75325 -1.12987,0 0,-1.12987 -2.25974,0 0,-3.76623 -0.75324,0 0,-3.01299 -1.12987,0 0,-4.51948 -3.38961,0 0,5.64935 -4.51948,0 -1e-5,-3.76623 -5.64935,0 0,11.2987 -2.07143,0 -0.18831,-3.2013 -1.88311,0 0,2.44805 -2.44806,0 -0.18831,-14.68831 -3.38961,0 0,12.8052 -1.88311,0 0,-3.01299 -2.25974,0 0,-12.05195 -3.01299,0 0,5.64935 -2.25974,0 0,-4.51948 -3.38961,0 0,2.63636 -1.88312,0 0,7.15585 -0.75325,0 0,4.14286 -1.88311,0 0,1.12987 -6.96753,0 0,1.50649 -2.07143,0 0,-1.50649 -0.75325,0 0,-6.77922 -0.75325,0 0,-3.76624 -2.63636,0 0,3.38961 -2.25975,0.37663 0,4.51948 -1.88312,0 0,4.14285 -0.75324,0 0,-1.12987 -2.07144,0 -0.18831,-3.76623 -3.01298,0 0,7.53247 -2.25974,0 0,-4.14286 -2.63636,0 0.02187,18.809305 z"
         id="path7699"
         style="fill:#000000;fill-opacity:1;fill-rule:evenodd;stroke:#000000;stroke-width:1px;stroke-linecap:butt;stroke-linejoin:miter;stroke-opacity:1"
         inkscape:connector-curvature="0" />
    </g>
    <g
       id="g10245">
      <rect
         width="174.75325"
         height="48.96104"
         ry="0"
         x="17.324675"
         y="140.05194"
         id="rect9071"
         style="fill:#ffffff;fill-opacity:1;fill-rule:nonzero;stroke:none" />
      <path
         d="m 92.67122,179.83528 87.35476,0.0219 0,-14.68831 -2.63637,-0.37664 0,-6.02597 -2.25974,0 0,5.64935 -3.01298,0 0,-2.25974 -4.89611,0 0,-0.75324 -1.12987,0 0,-1.12988 -2.25974,0 0,-3.76622 -0.75324,0 0,-3.013 -1.12987,0 0,-4.51948 -3.38961,0 0,5.64935 -4.51948,0 -1e-5,-3.76622 -5.64935,0 0,11.29869 -2.07143,0 -0.18831,-3.2013 -1.88311,0 0,2.44806 -2.44806,0 -0.18831,-14.68831 -3.38961,0 0,12.8052 -1.88311,0 0,-3.01299 -2.25974,0 0,-12.05196 -3.01299,0 0,5.64935 -2.25974,0 0,-4.51947 -3.38961,0 0,2.63636 -1.88312,0 0,7.15585 -0.75325,0 0,4.14286 -1.88311,0 0,1.12986 -6.96753,0 0,1.50649 -2.07143,0 0,-1.50649 -0.75325,0 0,-6.77921 -0.75325,0 0,-3.76625 -2.63636,0 0,3.38961 -2.25975,0.37664 0,4.51948 -1.88312,0 0,4.14285 -0.75324,0 0,-1.12987 -2.07144,0 -0.18831,-3.76624 -3.01298,0 0,7.53248 -2.25974,0 0,-4.14286 -2.63636,0 0.02187,18.8093 z"
         id="path9546"
         style="fill:#000000;fill-opacity:1;fill-rule:evenodd;stroke:#000000;stroke-width:1px;stroke-linecap:butt;stroke-linejoin:miter;stroke-opacity:1"
         inkscape:connector-curvature="0" />
      <g
         transform="matrix(0.2203898,0,0,0.2203898,34.831149,141.64939)"
         id="g9436">
        <path
           d="m 177.18833,110.61008 c 0.008,47.32336 -38.35303,85.69073 -85.676391,85.69073 -47.323365,0 -85.6843111,-38.36737 -85.6763906,-85.69073 -0.00792,-47.323364 38.3530256,-85.690732 85.6763906,-85.690732 47.323361,0 85.684311,38.367368 85.676391,85.690732 l 0,0 z"
           transform="matrix(1.167183,0,0,1.167183,-6.811181,-29.1022)"
           id="path9447"
           style="fill:none;fill-opacity:1;fill-rule:evenodd;stroke:none"
           inkscape:connector-curvature="0" />
        <path
           d="m 55.172415,-13.793103 c 0,14.64946355 -11.875736,26.5252 -26.5252,26.5252 -14.649464,0 -26.5252001,-11.87573645 -26.5252,-26.5252 -1e-7,-14.649464 11.875736,-26.5252 26.5252,-26.5252 14.649464,0 26.5252,11.875736 26.5252,26.5252 l 0,0 z"
           transform="matrix(3.7323,0,0,3.7323,-6.92,151.48)"
           id="path9449"
           style="fill:none;fill-opacity:1;fill-rule:evenodd;stroke:none"
           inkscape:connector-curvature="0" />
        <path
           d="m -125.19894,-42.440319 c 0,7.031744 -5.81911,12.732098 -12.99735,12.732098 -7.17824,0 -12.99735,-5.700354 -12.99735,-12.732098 0,-7.031744 5.81911,-12.732098 12.99735,-12.732098 7.17824,0 12.99735,5.700354 12.99735,12.732098 z"
           transform="matrix(7.463061,0,0,7.618542,1131.367,423.3334)"
           id="path9451"
           style="fill:#d40000;fill-opacity:1;fill-rule:evenodd;stroke:none"
           inkscape:connector-curvature="0" />
        <path
           d="m 117.24138,89.655174 a 40.318302,34.482758 0 1 1 -80.636602,0 40.318302,34.482758 0 1 1 80.636602,0 z"
           transform="matrix(1.785789,0,0,2.088,-37.36839,-87.2)"
           id="path9453"
           style="fill:#ffffff;fill-opacity:1;fill-rule:evenodd;stroke:none"
           inkscape:connector-curvature="0" />
        <g
           transform="translate(0,-5e-6)"
           id="g4581">
          <g
             transform="translate(0.638373,0.613855)"
             id="g1882">
            <path
               d="m 149.50777,99.391088 c 0,27.446382 -9.78357,41.635682 -23.91574,41.635682 -14.13218,0 -23.91574,-14.063 -23.91574,-41.635682 0,-24.229981 9.53492,-41.635687 23.91574,-41.635687 14.38081,0 23.91574,18.033208 23.91574,41.635687 z m -16.35695,4e-5 c 0,15.740772 -2.82072,26.270152 -7.68277,26.270152 -4.98438,0 -7.68277,-10.7777 -7.68277,-26.270152 0,-16.855519 2.82072,-26.270147 7.68277,-26.270147 4.98592,0 7.68277,9.166348 7.68277,26.270147 z"
               id="path1898"
               style="fill:#000000;fill-opacity:1;fill-rule:evenodd;stroke:none"
               inkscape:connector-curvature="0" />
          </g>
          <path
             d="m 71.416357,141.64063 c 7.36092,-9e-5 13.12832,-3.40106 17.28125,-10.15625 4.15294,-6.75536 6.21875,-17.40186 6.21875,-31.9375 0,-18.07695 -4.93099,-41.1875 -24.0625,-41.1875 -14.53286,0 -21,14.91527 -21,27.90625 0,7.87098 1.69293,14.37399 5.0625,19.49999 3.36964,5.12591 7.50092,7.68744 12.375,7.6875 2.51169,-6e-5 4.7102,-0.63776 6.625,-1.9375 1.91485,-1.29985 3.77842,-3.32186 5.59375,-6.03125 -0.47247,8.64085 -1.19276,14.26998 -2.1875,16.90625 -1.36772,3.66133 -3.28805,5.49993 -5.75,5.5 -1.36771,-7e-5 -2.53617,-0.62483 -3.46875,-1.90625 -0.93251,-1.28156 -1.57081,-3.48163 -1.96875,-6.59375 l -15.125,0.625 c -0.111365,4.52386 1.728797,8.93835 3.8125,12.87501 1.66619,2.8558 3.7572,5.01704 6.28125,6.5 2.52412,1.48277 5.96064,2.24991 10.3125,2.25 z m 0.125,-43.15625 c -5.11078,0 -6.59375,-7.59514 -6.59375,-12.59375 0,-4.49315 1.85145,-12.0625 6.34375,-12.0625 4.20412,6.6e-4 7.01845,8.43652 7,12.59375 -0.02085,4.69756 -2.03374,12.0625 -6.75,12.0625 z"
             id="path1913"
             style="font-size:92.69672394px;font-style:normal;font-weight:normal;fill:#000000;fill-opacity:1;stroke:none;font-family:Bitstream Vera Sans"
             inkscape:connector-curvature="0" />
        </g>
      </g>
      <path
         d="m 155.16883,143.87013 18.83117,0 -54.89563,36.15584 -18.839,0 54.90346,-36.15584 z"
         id="path9624"
         style="fill:#d40000;fill-opacity:1;fill-rule:evenodd;stroke:none"
         inkscape:connector-curvature="0" />
    </g>
  </g>
  <path
     style="font-size:10px;font-style:normal;font-weight:normal;fill:#000000;fill-opacity:1;stroke:#000000;font-family:Bitstream Vera Sans;stroke-opacity:1;stroke-width:0.3;stroke-miterlimit:4;stroke-dasharray:none"
     d="m 39.518292,34.721117 0,0.289782 -4.550379,0 0,-0.289782 0.375935,0 c 0.438589,0 0.757089,-0.127919 0.9555,-0.383767 0.125312,-0.167075 0.187968,-0.569123 0.187968,-1.206126 l 0,-6.860814 c -2e-6,-0.537786 -0.03395,-0.892835 -0.101813,-1.065149 -0.05221,-0.130525 -0.159256,-0.242782 -0.321111,-0.336776 -0.229739,-0.125292 -0.469921,-0.187947 -0.720542,-0.187967 l -0.375935,0 0,-0.289783 4.550379,0 0,0.289783 -0.383766,0 c -0.433374,1.2e-5 -0.749264,0.127938 -0.947669,0.383768 -0.130545,0.167096 -0.195807,0.569134 -0.195807,1.206124 l 0,6.860814 c -2e-6,0.537798 0.03394,0.892847 0.101813,1.065149 0.05221,0.130525 0.161863,0.242792 0.328944,0.336776 0.224513,0.125312 0.462084,0.187968 0.712711,0.187968 l 0.383766,0 z"
     id="flowRoot9829"
     inkscape:connector-curvature="0" />
</svg>
