<?xml version="1.0" encoding="UTF-8" standalone="no"?>
<!-- Created with Inkscape (http://www.inkscape.org/) -->

<svg
   xmlns:dc="http://purl.org/dc/elements/1.1/"
   xmlns:cc="http://creativecommons.org/ns#"
   xmlns:rdf="http://www.w3.org/1999/02/22-rdf-syntax-ns#"
   xmlns:svg="http://www.w3.org/2000/svg"
   xmlns="http://www.w3.org/2000/svg"
   xmlns:sodipodi="http://sodipodi.sourceforge.net/DTD/sodipodi-0.dtd"
   xmlns:inkscape="http://www.inkscape.org/namespaces/inkscape"
   version="1.0"
   width="834.08563"
   height="734.98938"
   id="svg2"
   sodipodi:version="0.32"
   inkscape:version="0.47 r22583"
   sodipodi:docname="ZZ.svg"
   inkscape:output_extension="org.inkscape.output.svg.inkscape">
  <metadata
     id="metadata12">
    <rdf:RDF>
      <cc:Work
         rdf:about="">
        <dc:format>image/svg+xml</dc:format>
        <dc:type
           rdf:resource="http://purl.org/dc/dcmitype/StillImage" />
      </cc:Work>
    </rdf:RDF>
  </metadata>
  <sodipodi:namedview
     inkscape:window-height="1003"
     inkscape:window-width="1280"
     inkscape:pageshadow="2"
     inkscape:pageopacity="0.0"
     guidetolerance="10.0"
     gridtolerance="10.0"
     objecttolerance="10.0"
     borderopacity="1.0"
     bordercolor="#666666"
     pagecolor="#ffffff"
     id="base"
     inkscape:zoom="0.31112698"
     inkscape:cx="454.50878"
     inkscape:cy="432.48077"
     inkscape:window-x="0"
     inkscape:window-y="0"
     inkscape:current-layer="svg2"
     width="200px"
     height="200px"
     showgrid="false"
     inkscape:showpageshadow="false"
     inkscape:window-maximized="0" />
  <defs
     id="defs4">
    <inkscape:perspective
       sodipodi:type="inkscape:persp3d"
       inkscape:vp_x="0 : 450 : 1"
       inkscape:vp_y="0 : 1000 : 0"
       inkscape:vp_z="900 : 450 : 1"
       inkscape:persp3d-origin="450 : 300 : 1"
       id="perspective14" />
  </defs>
  <path
     sodipodi:nodetypes="cscssssssc"
     id="path3084"
     d="M 454.97828,22.43 C 447.54398,9.5545 432.99948,1.5 417.04268,1.5 c -16.2469,0 -30.7968,8.495 -38.3717,21.6152 L 8.0043801,665.1866 c -7.9552,13.7802 -9.1331,31.1377 -0.6229,45.8778 8.1234999,14.0703 22.7545999,22.425 37.9044999,22.425 l 743.51342,0 c 15.1499,0 29.781,-8.3548 37.9045,-22.425 8.5102,-14.74 7.333,-32.098 -0.623,-45.8778 L 454.97828,22.43 z"
     style="fill:#ffffff;fill-opacity:1;fill-rule:nonzero;stroke:#000000;stroke-width:3;stroke-linecap:round;stroke-linejoin:round;stroke-miterlimit:2;stroke-opacity:1;stroke-dasharray:none;stroke-dashoffset:0" />
  <path
     style="fill:#d40000;fill-opacity:1;fill-rule:nonzero;stroke:none"
     d="m 417.05288,16.5053 c 10.9092,0 20.385,5.5528 24.9376,13.4375 l 371.09372,642.75 c 5.549,9.6109 6.2861,21.0698 0.625,30.875 -5.5096,9.5428 -15.2711,14.9062 -24.9063,14.9063 l -743.53122,0 c -9.6352,0 -19.3966,-5.3633 -24.9062,-14.9063 -5.6611,-9.8052 -4.924,-21.2631 0.625,-30.875 L 391.64668,30.6303 c 4.8181,-8.3452 14.3881,-14.125 25.4062,-14.125 z"
     id="path3092" />
  <path
     style="fill:#ffffff;fill-opacity:1;fill-rule:nonzero;stroke:none"
     d="m 417.02168,146.6928 283.93752,491.7813 -567.84372,0 283.9062,-491.7813 z"
     id="path3102" />
  <path
     style="fill:#000000"
     d="m -2179.8676,-332.40764 c 0,0 0,0 0,0 z"
     id="path2368" />
  <path
     style="fill:#000000"
     d="m -2182.8364,-332.34514 0,0 z"
     id="path2370" />
  <path
     style="fill:#000000;fill-opacity:1;fill-rule:nonzero;stroke:none"
     d="m 486.88656,329.08845 -14.84375,9.125 0.25,17.46875 15.375,8.34375 14.875,-9 -0.28125,-17.46875 -15.375,-8.46875 z m -21.25,40.90625 -114.28125,205.65625 3.125,3.125 123.5625,-202.125 -12.40625,-6.65625 z m -196.90625,62.6875 -8.59375,15 c 4.3277,0.31546 25.15625,2.875 25.15625,2.875 4.78024,0.51679 8.85589,4.07003 10.40625,7.6875 l 16.9375,43 15.53125,1.03125 -19.3125,-49.125 c -4.13428,-10.33562 -11.67652,-17.59144 -23.5625,-18.625 l -16.5625,-1.84375 z m 241.875,6.65625 -6.625,9.25 4.53125,10.15625 11.21875,1.1875 6.65625,-9.125 -4.5625,-10.28125 -11.21875,-1.1875 z m -17.59375,27.75 -129.15625,117.3125 0.53125,3.125 137.375,-112.59375 -8.75,-7.84375 z m 22.5625,14.46875 -9.40625,14.21875 7.5625,15.375 17.09375,1.03125 9.5,-14.1875 -7.6875,-15.375 -17.0625,-1.0625 z m -284,15.53125 -37.40625,64.625 128,0 c 24.75437,-2e-5 30.63755,-26.53783 20.46875,-43.125 -5.22352,-8.52046 -14.84772,-11.64132 -29.46875,-13.6875 -27.98368,-3.91627 -75.79965,-7.39663 -81.59375,-7.8125 z m 339.625,2.96875 -10.6875,12.125 5.09375,15.53125 16.03125,3.25 10.8125,-12.25 -5.21875,-15.5 -16.03125,-3.15625 z m -81.84375,10.1875 -121.96875,80.9375 1.3125,2.59375 125.875,-74.9375 -5.21875,-8.59375 z m -173.3125,6 c 10.12915,-5e-5 18.375,8.24586 18.375,18.375 -10e-6,10.12912 -8.24586,18.375 -18.375,18.375 -10.12913,6e-5 -18.375,-8.24586 -18.375,-18.375 0,-10.12916 8.24586,-18.375 18.375,-18.375 z m 229.625,3.125 -175.40625,77.78125 0.78125,2.75 178,-71.8125 -3.375,-8.71875 z m 3.53125,39.46875 -10.84375,12 4.96875,15.375 15.78125,3.40625 10.8125,-12 -4.96875,-15.375 -15.75,-3.40625 z m -357.375,7.0625 -8.96875,15.5 109.0625,0 0,28.9375 c 1e-5,3.9531 3.23439,7.15625 7.1875,7.15625 l -136.03125,0 -5.78125,10 519.46875,0 -5.78125,-10 -344.53125,0 c 3.95311,0 7.1875,-3.20318 7.1875,-7.15625 l 0,-28.9375 9,0 c 2.57664,0 4.6875,-2.11085 4.6875,-4.6875 l 0,-6.28125 c 1e-5,-2.57665 -2.11085,-4.53125 -4.6875,-4.53125 l -150.8125,0 z m 326.21875,11.84375 -145.1875,27.625 0.53125,3.125 145.96875,-23.0625 -1.3125,-7.6875 z"
     id="path2362" />
</svg>
