<?xml version="1.0" encoding="UTF-8" standalone="no"?>
<!-- Created with Inkscape (http://www.inkscape.org/) -->

<svg
   xmlns:dc="http://purl.org/dc/elements/1.1/"
   xmlns:cc="http://creativecommons.org/ns#"
   xmlns:rdf="http://www.w3.org/1999/02/22-rdf-syntax-ns#"
   xmlns:svg="http://www.w3.org/2000/svg"
   xmlns="http://www.w3.org/2000/svg"
   xmlns:sodipodi="http://sodipodi.sourceforge.net/DTD/sodipodi-0.dtd"
   xmlns:inkscape="http://www.inkscape.org/namespaces/inkscape"
   width="404.81619"
   height="601.15558"
   id="svg2"
   version="1.1"
   inkscape:version="0.47 r22583"
   sodipodi:docname="Italian traffic signs - campeggio.svg">
  <defs
     id="defs4">
    <inkscape:perspective
       sodipodi:type="inkscape:persp3d"
       inkscape:vp_x="0 : 526.18109 : 1"
       inkscape:vp_y="0 : 1000 : 0"
       inkscape:vp_z="744.09448 : 526.18109 : 1"
       inkscape:persp3d-origin="372.04724 : 350.78739 : 1"
       id="perspective10" />
    <inkscape:perspective
       id="perspective2831"
       inkscape:persp3d-origin="99.825996 : 97.621999 : 1"
       inkscape:vp_z="199.65199 : 146.433 : 1"
       inkscape:vp_y="0 : 1000 : 0"
       inkscape:vp_x="0 : 146.433 : 1"
       sodipodi:type="inkscape:persp3d" />
    <inkscape:perspective
       sodipodi:type="inkscape:persp3d"
       inkscape:vp_x="0 : 100 : 1"
       inkscape:vp_y="0 : 1000 : 0"
       inkscape:vp_z="200 : 100 : 1"
       inkscape:persp3d-origin="100 : 66.666667 : 1"
       id="perspective2879" />
    <inkscape:perspective
       sodipodi:type="inkscape:persp3d"
       inkscape:vp_x="0 : 0.5 : 1"
       inkscape:vp_y="0 : 1000 : 0"
       inkscape:vp_z="1 : 0.5 : 1"
       inkscape:persp3d-origin="0.5 : 0.33333333 : 1"
       id="perspective2839" />
    <inkscape:perspective
       sodipodi:type="inkscape:persp3d"
       inkscape:vp_x="0 : 0.5 : 1"
       inkscape:vp_y="0 : 1000 : 0"
       inkscape:vp_z="1 : 0.5 : 1"
       inkscape:persp3d-origin="0.5 : 0.33333333 : 1"
       id="perspective3649" />
    <inkscape:perspective
       sodipodi:type="inkscape:persp3d"
       inkscape:vp_x="0 : 0.5 : 1"
       inkscape:vp_y="0 : 1000 : 0"
       inkscape:vp_z="1 : 0.5 : 1"
       inkscape:persp3d-origin="0.5 : 0.33333333 : 1"
       id="perspective3679" />
    <inkscape:perspective
       sodipodi:type="inkscape:persp3d"
       inkscape:vp_x="0 : 0.5 : 1"
       inkscape:vp_y="0 : 1000 : 0"
       inkscape:vp_z="1 : 0.5 : 1"
       inkscape:persp3d-origin="0.5 : 0.33333333 : 1"
       id="perspective3713" />
    <inkscape:perspective
       sodipodi:type="inkscape:persp3d"
       inkscape:vp_x="0 : 0.5 : 1"
       inkscape:vp_y="0 : 1000 : 0"
       inkscape:vp_z="1 : 0.5 : 1"
       inkscape:persp3d-origin="0.5 : 0.33333333 : 1"
       id="perspective3741" />
    <inkscape:perspective
       sodipodi:type="inkscape:persp3d"
       inkscape:vp_x="0 : 0.5 : 1"
       inkscape:vp_y="0 : 1000 : 0"
       inkscape:vp_z="1 : 0.5 : 1"
       inkscape:persp3d-origin="0.5 : 0.33333333 : 1"
       id="perspective3765" />
    <inkscape:perspective
       sodipodi:type="inkscape:persp3d"
       inkscape:vp_x="0 : 0.5 : 1"
       inkscape:vp_y="0 : 1000 : 0"
       inkscape:vp_z="1 : 0.5 : 1"
       inkscape:persp3d-origin="0.5 : 0.33333333 : 1"
       id="perspective3801" />
    <inkscape:perspective
       sodipodi:type="inkscape:persp3d"
       inkscape:vp_x="0 : 0.5 : 1"
       inkscape:vp_y="0 : 1000 : 0"
       inkscape:vp_z="1 : 0.5 : 1"
       inkscape:persp3d-origin="0.5 : 0.33333333 : 1"
       id="perspective2863" />
    <inkscape:perspective
       sodipodi:type="inkscape:persp3d"
       inkscape:vp_x="0 : 0.5 : 1"
       inkscape:vp_y="0 : 1000 : 0"
       inkscape:vp_z="1 : 0.5 : 1"
       inkscape:persp3d-origin="0.5 : 0.33333333 : 1"
       id="perspective3859" />
    <inkscape:perspective
       sodipodi:type="inkscape:persp3d"
       inkscape:vp_x="0 : 0.5 : 1"
       inkscape:vp_y="0 : 1000 : 0"
       inkscape:vp_z="1 : 0.5 : 1"
       inkscape:persp3d-origin="0.5 : 0.33333333 : 1"
       id="perspective3964" />
    <inkscape:perspective
       sodipodi:type="inkscape:persp3d"
       inkscape:vp_x="0 : 0.5 : 1"
       inkscape:vp_y="0 : 1000 : 0"
       inkscape:vp_z="1 : 0.5 : 1"
       inkscape:persp3d-origin="0.5 : 0.33333333 : 1"
       id="perspective3988" />
    <inkscape:perspective
       sodipodi:type="inkscape:persp3d"
       inkscape:vp_x="0 : 0.5 : 1"
       inkscape:vp_y="0 : 1000 : 0"
       inkscape:vp_z="1 : 0.5 : 1"
       inkscape:persp3d-origin="0.5 : 0.33333333 : 1"
       id="perspective2879-7" />
    <inkscape:perspective
       sodipodi:type="inkscape:persp3d"
       inkscape:vp_x="0 : 0.5 : 1"
       inkscape:vp_y="0 : 1000 : 0"
       inkscape:vp_z="1 : 0.5 : 1"
       inkscape:persp3d-origin="0.5 : 0.33333333 : 1"
       id="perspective4031" />
    <inkscape:perspective
       sodipodi:type="inkscape:persp3d"
       inkscape:vp_x="0 : 0.5 : 1"
       inkscape:vp_y="0 : 1000 : 0"
       inkscape:vp_z="1 : 0.5 : 1"
       inkscape:persp3d-origin="0.5 : 0.33333333 : 1"
       id="perspective4047" />
    <inkscape:perspective
       sodipodi:type="inkscape:persp3d"
       inkscape:vp_x="0 : 0.5 : 1"
       inkscape:vp_y="0 : 1000 : 0"
       inkscape:vp_z="1 : 0.5 : 1"
       inkscape:persp3d-origin="0.5 : 0.33333333 : 1"
       id="perspective4063" />
    <inkscape:perspective
       sodipodi:type="inkscape:persp3d"
       inkscape:vp_x="0 : 0.5 : 1"
       inkscape:vp_y="0 : 1000 : 0"
       inkscape:vp_z="1 : 0.5 : 1"
       inkscape:persp3d-origin="0.5 : 0.33333333 : 1"
       id="perspective4079" />
    <inkscape:perspective
       sodipodi:type="inkscape:persp3d"
       inkscape:vp_x="0 : 0.5 : 1"
       inkscape:vp_y="0 : 1000 : 0"
       inkscape:vp_z="1 : 0.5 : 1"
       inkscape:persp3d-origin="0.5 : 0.33333333 : 1"
       id="perspective4097" />
    <inkscape:perspective
       sodipodi:type="inkscape:persp3d"
       inkscape:vp_x="0 : 0.5 : 1"
       inkscape:vp_y="0 : 1000 : 0"
       inkscape:vp_z="1 : 0.5 : 1"
       inkscape:persp3d-origin="0.5 : 0.33333333 : 1"
       id="perspective4115" />
    <inkscape:perspective
       sodipodi:type="inkscape:persp3d"
       inkscape:vp_x="0 : 0.5 : 1"
       inkscape:vp_y="0 : 1000 : 0"
       inkscape:vp_z="1 : 0.5 : 1"
       inkscape:persp3d-origin="0.5 : 0.33333333 : 1"
       id="perspective4129" />
    <inkscape:perspective
       sodipodi:type="inkscape:persp3d"
       inkscape:vp_x="0 : 0.5 : 1"
       inkscape:vp_y="0 : 1000 : 0"
       inkscape:vp_z="1 : 0.5 : 1"
       inkscape:persp3d-origin="0.5 : 0.33333333 : 1"
       id="perspective4153" />
    <inkscape:perspective
       sodipodi:type="inkscape:persp3d"
       inkscape:vp_x="0 : 0.5 : 1"
       inkscape:vp_y="0 : 1000 : 0"
       inkscape:vp_z="1 : 0.5 : 1"
       inkscape:persp3d-origin="0.5 : 0.33333333 : 1"
       id="perspective4179" />
    <inkscape:perspective
       sodipodi:type="inkscape:persp3d"
       inkscape:vp_x="0 : 0.5 : 1"
       inkscape:vp_y="0 : 1000 : 0"
       inkscape:vp_z="1 : 0.5 : 1"
       inkscape:persp3d-origin="0.5 : 0.33333333 : 1"
       id="perspective4195" />
    <inkscape:perspective
       sodipodi:type="inkscape:persp3d"
       inkscape:vp_x="0 : 0.5 : 1"
       inkscape:vp_y="0 : 1000 : 0"
       inkscape:vp_z="1 : 0.5 : 1"
       inkscape:persp3d-origin="0.5 : 0.33333333 : 1"
       id="perspective4213" />
    <inkscape:perspective
       sodipodi:type="inkscape:persp3d"
       inkscape:vp_x="0 : 0.5 : 1"
       inkscape:vp_y="0 : 1000 : 0"
       inkscape:vp_z="1 : 0.5 : 1"
       inkscape:persp3d-origin="0.5 : 0.33333333 : 1"
       id="perspective4267" />
    <inkscape:perspective
       sodipodi:type="inkscape:persp3d"
       inkscape:vp_x="0 : 0.5 : 1"
       inkscape:vp_y="0 : 1000 : 0"
       inkscape:vp_z="1 : 0.5 : 1"
       inkscape:persp3d-origin="0.5 : 0.33333333 : 1"
       id="perspective4283" />
    <inkscape:perspective
       sodipodi:type="inkscape:persp3d"
       inkscape:vp_x="0 : 0.5 : 1"
       inkscape:vp_y="0 : 1000 : 0"
       inkscape:vp_z="1 : 0.5 : 1"
       inkscape:persp3d-origin="0.5 : 0.33333333 : 1"
       id="perspective4314" />
    <inkscape:perspective
       sodipodi:type="inkscape:persp3d"
       inkscape:vp_x="0 : 100 : 1"
       inkscape:vp_y="0 : 1000 : 0"
       inkscape:vp_z="200 : 100 : 1"
       inkscape:persp3d-origin="100 : 66.666667 : 1"
       id="perspective2879-9" />
    <inkscape:perspective
       sodipodi:type="inkscape:persp3d"
       inkscape:vp_x="0 : 0.5 : 1"
       inkscape:vp_y="0 : 1000 : 0"
       inkscape:vp_z="1 : 0.5 : 1"
       inkscape:persp3d-origin="0.5 : 0.33333333 : 1"
       id="perspective2839-4" />
    <inkscape:perspective
       sodipodi:type="inkscape:persp3d"
       inkscape:vp_x="0 : 0.5 : 1"
       inkscape:vp_y="0 : 1000 : 0"
       inkscape:vp_z="1 : 0.5 : 1"
       inkscape:persp3d-origin="0.5 : 0.33333333 : 1"
       id="perspective3649-8" />
    <inkscape:perspective
       sodipodi:type="inkscape:persp3d"
       inkscape:vp_x="0 : 0.5 : 1"
       inkscape:vp_y="0 : 1000 : 0"
       inkscape:vp_z="1 : 0.5 : 1"
       inkscape:persp3d-origin="0.5 : 0.33333333 : 1"
       id="perspective3679-8" />
    <inkscape:perspective
       sodipodi:type="inkscape:persp3d"
       inkscape:vp_x="0 : 0.5 : 1"
       inkscape:vp_y="0 : 1000 : 0"
       inkscape:vp_z="1 : 0.5 : 1"
       inkscape:persp3d-origin="0.5 : 0.33333333 : 1"
       id="perspective3713-2" />
    <inkscape:perspective
       sodipodi:type="inkscape:persp3d"
       inkscape:vp_x="0 : 0.5 : 1"
       inkscape:vp_y="0 : 1000 : 0"
       inkscape:vp_z="1 : 0.5 : 1"
       inkscape:persp3d-origin="0.5 : 0.33333333 : 1"
       id="perspective3741-4" />
    <inkscape:perspective
       sodipodi:type="inkscape:persp3d"
       inkscape:vp_x="0 : 0.5 : 1"
       inkscape:vp_y="0 : 1000 : 0"
       inkscape:vp_z="1 : 0.5 : 1"
       inkscape:persp3d-origin="0.5 : 0.33333333 : 1"
       id="perspective3765-5" />
    <inkscape:perspective
       sodipodi:type="inkscape:persp3d"
       inkscape:vp_x="0 : 0.5 : 1"
       inkscape:vp_y="0 : 1000 : 0"
       inkscape:vp_z="1 : 0.5 : 1"
       inkscape:persp3d-origin="0.5 : 0.33333333 : 1"
       id="perspective3801-5" />
    <inkscape:perspective
       sodipodi:type="inkscape:persp3d"
       inkscape:vp_x="0 : 0.5 : 1"
       inkscape:vp_y="0 : 1000 : 0"
       inkscape:vp_z="1 : 0.5 : 1"
       inkscape:persp3d-origin="0.5 : 0.33333333 : 1"
       id="perspective2863-1" />
    <inkscape:perspective
       sodipodi:type="inkscape:persp3d"
       inkscape:vp_x="0 : 0.5 : 1"
       inkscape:vp_y="0 : 1000 : 0"
       inkscape:vp_z="1 : 0.5 : 1"
       inkscape:persp3d-origin="0.5 : 0.33333333 : 1"
       id="perspective3859-7" />
    <inkscape:perspective
       sodipodi:type="inkscape:persp3d"
       inkscape:vp_x="0 : 0.5 : 1"
       inkscape:vp_y="0 : 1000 : 0"
       inkscape:vp_z="1 : 0.5 : 1"
       inkscape:persp3d-origin="0.5 : 0.33333333 : 1"
       id="perspective3964-1" />
    <inkscape:perspective
       sodipodi:type="inkscape:persp3d"
       inkscape:vp_x="0 : 0.5 : 1"
       inkscape:vp_y="0 : 1000 : 0"
       inkscape:vp_z="1 : 0.5 : 1"
       inkscape:persp3d-origin="0.5 : 0.33333333 : 1"
       id="perspective3988-1" />
    <inkscape:perspective
       sodipodi:type="inkscape:persp3d"
       inkscape:vp_x="0 : 0.5 : 1"
       inkscape:vp_y="0 : 1000 : 0"
       inkscape:vp_z="1 : 0.5 : 1"
       inkscape:persp3d-origin="0.5 : 0.33333333 : 1"
       id="perspective2879-7-5" />
    <inkscape:perspective
       sodipodi:type="inkscape:persp3d"
       inkscape:vp_x="0 : 0.5 : 1"
       inkscape:vp_y="0 : 1000 : 0"
       inkscape:vp_z="1 : 0.5 : 1"
       inkscape:persp3d-origin="0.5 : 0.33333333 : 1"
       id="perspective4031-2" />
    <inkscape:perspective
       sodipodi:type="inkscape:persp3d"
       inkscape:vp_x="0 : 0.5 : 1"
       inkscape:vp_y="0 : 1000 : 0"
       inkscape:vp_z="1 : 0.5 : 1"
       inkscape:persp3d-origin="0.5 : 0.33333333 : 1"
       id="perspective4047-7" />
    <inkscape:perspective
       sodipodi:type="inkscape:persp3d"
       inkscape:vp_x="0 : 0.5 : 1"
       inkscape:vp_y="0 : 1000 : 0"
       inkscape:vp_z="1 : 0.5 : 1"
       inkscape:persp3d-origin="0.5 : 0.33333333 : 1"
       id="perspective4063-6" />
    <inkscape:perspective
       sodipodi:type="inkscape:persp3d"
       inkscape:vp_x="0 : 0.5 : 1"
       inkscape:vp_y="0 : 1000 : 0"
       inkscape:vp_z="1 : 0.5 : 1"
       inkscape:persp3d-origin="0.5 : 0.33333333 : 1"
       id="perspective4079-1" />
    <inkscape:perspective
       sodipodi:type="inkscape:persp3d"
       inkscape:vp_x="0 : 0.5 : 1"
       inkscape:vp_y="0 : 1000 : 0"
       inkscape:vp_z="1 : 0.5 : 1"
       inkscape:persp3d-origin="0.5 : 0.33333333 : 1"
       id="perspective4097-4" />
    <inkscape:perspective
       sodipodi:type="inkscape:persp3d"
       inkscape:vp_x="0 : 0.5 : 1"
       inkscape:vp_y="0 : 1000 : 0"
       inkscape:vp_z="1 : 0.5 : 1"
       inkscape:persp3d-origin="0.5 : 0.33333333 : 1"
       id="perspective4115-2" />
    <inkscape:perspective
       sodipodi:type="inkscape:persp3d"
       inkscape:vp_x="0 : 0.5 : 1"
       inkscape:vp_y="0 : 1000 : 0"
       inkscape:vp_z="1 : 0.5 : 1"
       inkscape:persp3d-origin="0.5 : 0.33333333 : 1"
       id="perspective4129-3" />
    <inkscape:perspective
       sodipodi:type="inkscape:persp3d"
       inkscape:vp_x="0 : 0.5 : 1"
       inkscape:vp_y="0 : 1000 : 0"
       inkscape:vp_z="1 : 0.5 : 1"
       inkscape:persp3d-origin="0.5 : 0.33333333 : 1"
       id="perspective4153-2" />
    <inkscape:perspective
       sodipodi:type="inkscape:persp3d"
       inkscape:vp_x="0 : 0.5 : 1"
       inkscape:vp_y="0 : 1000 : 0"
       inkscape:vp_z="1 : 0.5 : 1"
       inkscape:persp3d-origin="0.5 : 0.33333333 : 1"
       id="perspective4179-2" />
    <inkscape:perspective
       sodipodi:type="inkscape:persp3d"
       inkscape:vp_x="0 : 100 : 1"
       inkscape:vp_y="0 : 1000 : 0"
       inkscape:vp_z="200 : 100 : 1"
       inkscape:persp3d-origin="100 : 66.666667 : 1"
       id="perspective2879-8" />
    <inkscape:perspective
       sodipodi:type="inkscape:persp3d"
       inkscape:vp_x="0 : 0.5 : 1"
       inkscape:vp_y="0 : 1000 : 0"
       inkscape:vp_z="1 : 0.5 : 1"
       inkscape:persp3d-origin="0.5 : 0.33333333 : 1"
       id="perspective2839-5" />
    <inkscape:perspective
       sodipodi:type="inkscape:persp3d"
       inkscape:vp_x="0 : 0.5 : 1"
       inkscape:vp_y="0 : 1000 : 0"
       inkscape:vp_z="1 : 0.5 : 1"
       inkscape:persp3d-origin="0.5 : 0.33333333 : 1"
       id="perspective3649-7" />
    <inkscape:perspective
       sodipodi:type="inkscape:persp3d"
       inkscape:vp_x="0 : 0.5 : 1"
       inkscape:vp_y="0 : 1000 : 0"
       inkscape:vp_z="1 : 0.5 : 1"
       inkscape:persp3d-origin="0.5 : 0.33333333 : 1"
       id="perspective3679-6" />
    <inkscape:perspective
       sodipodi:type="inkscape:persp3d"
       inkscape:vp_x="0 : 0.5 : 1"
       inkscape:vp_y="0 : 1000 : 0"
       inkscape:vp_z="1 : 0.5 : 1"
       inkscape:persp3d-origin="0.5 : 0.33333333 : 1"
       id="perspective3713-1" />
    <inkscape:perspective
       sodipodi:type="inkscape:persp3d"
       inkscape:vp_x="0 : 0.5 : 1"
       inkscape:vp_y="0 : 1000 : 0"
       inkscape:vp_z="1 : 0.5 : 1"
       inkscape:persp3d-origin="0.5 : 0.33333333 : 1"
       id="perspective3741-8" />
    <inkscape:perspective
       sodipodi:type="inkscape:persp3d"
       inkscape:vp_x="0 : 0.5 : 1"
       inkscape:vp_y="0 : 1000 : 0"
       inkscape:vp_z="1 : 0.5 : 1"
       inkscape:persp3d-origin="0.5 : 0.33333333 : 1"
       id="perspective3765-9" />
    <inkscape:perspective
       sodipodi:type="inkscape:persp3d"
       inkscape:vp_x="0 : 0.5 : 1"
       inkscape:vp_y="0 : 1000 : 0"
       inkscape:vp_z="1 : 0.5 : 1"
       inkscape:persp3d-origin="0.5 : 0.33333333 : 1"
       id="perspective3801-2" />
    <inkscape:perspective
       sodipodi:type="inkscape:persp3d"
       inkscape:vp_x="0 : 0.5 : 1"
       inkscape:vp_y="0 : 1000 : 0"
       inkscape:vp_z="1 : 0.5 : 1"
       inkscape:persp3d-origin="0.5 : 0.33333333 : 1"
       id="perspective2863-7" />
    <inkscape:perspective
       sodipodi:type="inkscape:persp3d"
       inkscape:vp_x="0 : 0.5 : 1"
       inkscape:vp_y="0 : 1000 : 0"
       inkscape:vp_z="1 : 0.5 : 1"
       inkscape:persp3d-origin="0.5 : 0.33333333 : 1"
       id="perspective3859-9" />
    <inkscape:perspective
       sodipodi:type="inkscape:persp3d"
       inkscape:vp_x="0 : 0.5 : 1"
       inkscape:vp_y="0 : 1000 : 0"
       inkscape:vp_z="1 : 0.5 : 1"
       inkscape:persp3d-origin="0.5 : 0.33333333 : 1"
       id="perspective3964-5" />
    <inkscape:perspective
       sodipodi:type="inkscape:persp3d"
       inkscape:vp_x="0 : 0.5 : 1"
       inkscape:vp_y="0 : 1000 : 0"
       inkscape:vp_z="1 : 0.5 : 1"
       inkscape:persp3d-origin="0.5 : 0.33333333 : 1"
       id="perspective3988-4" />
    <inkscape:perspective
       sodipodi:type="inkscape:persp3d"
       inkscape:vp_x="0 : 0.5 : 1"
       inkscape:vp_y="0 : 1000 : 0"
       inkscape:vp_z="1 : 0.5 : 1"
       inkscape:persp3d-origin="0.5 : 0.33333333 : 1"
       id="perspective2879-7-3" />
    <inkscape:perspective
       sodipodi:type="inkscape:persp3d"
       inkscape:vp_x="0 : 0.5 : 1"
       inkscape:vp_y="0 : 1000 : 0"
       inkscape:vp_z="1 : 0.5 : 1"
       inkscape:persp3d-origin="0.5 : 0.33333333 : 1"
       id="perspective4031-1" />
    <inkscape:perspective
       sodipodi:type="inkscape:persp3d"
       inkscape:vp_x="0 : 0.5 : 1"
       inkscape:vp_y="0 : 1000 : 0"
       inkscape:vp_z="1 : 0.5 : 1"
       inkscape:persp3d-origin="0.5 : 0.33333333 : 1"
       id="perspective4047-2" />
    <inkscape:perspective
       sodipodi:type="inkscape:persp3d"
       inkscape:vp_x="0 : 0.5 : 1"
       inkscape:vp_y="0 : 1000 : 0"
       inkscape:vp_z="1 : 0.5 : 1"
       inkscape:persp3d-origin="0.5 : 0.33333333 : 1"
       id="perspective4063-3" />
    <inkscape:perspective
       sodipodi:type="inkscape:persp3d"
       inkscape:vp_x="0 : 0.5 : 1"
       inkscape:vp_y="0 : 1000 : 0"
       inkscape:vp_z="1 : 0.5 : 1"
       inkscape:persp3d-origin="0.5 : 0.33333333 : 1"
       id="perspective4079-3" />
    <inkscape:perspective
       sodipodi:type="inkscape:persp3d"
       inkscape:vp_x="0 : 0.5 : 1"
       inkscape:vp_y="0 : 1000 : 0"
       inkscape:vp_z="1 : 0.5 : 1"
       inkscape:persp3d-origin="0.5 : 0.33333333 : 1"
       id="perspective4097-41" />
    <inkscape:perspective
       sodipodi:type="inkscape:persp3d"
       inkscape:vp_x="0 : 0.5 : 1"
       inkscape:vp_y="0 : 1000 : 0"
       inkscape:vp_z="1 : 0.5 : 1"
       inkscape:persp3d-origin="0.5 : 0.33333333 : 1"
       id="perspective4115-1" />
    <inkscape:perspective
       sodipodi:type="inkscape:persp3d"
       inkscape:vp_x="0 : 0.5 : 1"
       inkscape:vp_y="0 : 1000 : 0"
       inkscape:vp_z="1 : 0.5 : 1"
       inkscape:persp3d-origin="0.5 : 0.33333333 : 1"
       id="perspective4129-38" />
    <inkscape:perspective
       sodipodi:type="inkscape:persp3d"
       inkscape:vp_x="0 : 0.5 : 1"
       inkscape:vp_y="0 : 1000 : 0"
       inkscape:vp_z="1 : 0.5 : 1"
       inkscape:persp3d-origin="0.5 : 0.33333333 : 1"
       id="perspective4153-7" />
    <inkscape:perspective
       sodipodi:type="inkscape:persp3d"
       inkscape:vp_x="0 : 0.5 : 1"
       inkscape:vp_y="0 : 1000 : 0"
       inkscape:vp_z="1 : 0.5 : 1"
       inkscape:persp3d-origin="0.5 : 0.33333333 : 1"
       id="perspective4179-4" />
    <inkscape:perspective
       sodipodi:type="inkscape:persp3d"
       inkscape:vp_x="0 : 0.5 : 1"
       inkscape:vp_y="0 : 1000 : 0"
       inkscape:vp_z="1 : 0.5 : 1"
       inkscape:persp3d-origin="0.5 : 0.33333333 : 1"
       id="perspective4195-2" />
    <inkscape:perspective
       sodipodi:type="inkscape:persp3d"
       inkscape:vp_x="0 : 0.5 : 1"
       inkscape:vp_y="0 : 1000 : 0"
       inkscape:vp_z="1 : 0.5 : 1"
       inkscape:persp3d-origin="0.5 : 0.33333333 : 1"
       id="perspective4213-7" />
    <inkscape:perspective
       sodipodi:type="inkscape:persp3d"
       inkscape:vp_x="0 : 100 : 1"
       inkscape:vp_y="0 : 1000 : 0"
       inkscape:vp_z="200 : 100 : 1"
       inkscape:persp3d-origin="100 : 66.666667 : 1"
       id="perspective2879-3" />
    <inkscape:perspective
       sodipodi:type="inkscape:persp3d"
       inkscape:vp_x="0 : 100 : 1"
       inkscape:vp_y="0 : 1000 : 0"
       inkscape:vp_z="200 : 100 : 1"
       inkscape:persp3d-origin="100 : 66.666667 : 1"
       id="perspective2879-86" />
    <inkscape:perspective
       sodipodi:type="inkscape:persp3d"
       inkscape:vp_x="0 : 100 : 1"
       inkscape:vp_y="0 : 1000 : 0"
       inkscape:vp_z="200 : 100 : 1"
       inkscape:persp3d-origin="100 : 66.666667 : 1"
       id="perspective2879-2" />
    <inkscape:perspective
       sodipodi:type="inkscape:persp3d"
       inkscape:vp_x="0 : 0.5 : 1"
       inkscape:vp_y="0 : 1000 : 0"
       inkscape:vp_z="1 : 0.5 : 1"
       inkscape:persp3d-origin="0.5 : 0.33333333 : 1"
       id="perspective2839-8" />
    <inkscape:perspective
       sodipodi:type="inkscape:persp3d"
       inkscape:vp_x="0 : 0.5 : 1"
       inkscape:vp_y="0 : 1000 : 0"
       inkscape:vp_z="1 : 0.5 : 1"
       inkscape:persp3d-origin="0.5 : 0.33333333 : 1"
       id="perspective3649-6" />
    <inkscape:perspective
       sodipodi:type="inkscape:persp3d"
       inkscape:vp_x="0 : 0.5 : 1"
       inkscape:vp_y="0 : 1000 : 0"
       inkscape:vp_z="1 : 0.5 : 1"
       inkscape:persp3d-origin="0.5 : 0.33333333 : 1"
       id="perspective3679-0" />
    <inkscape:perspective
       sodipodi:type="inkscape:persp3d"
       inkscape:vp_x="0 : 0.5 : 1"
       inkscape:vp_y="0 : 1000 : 0"
       inkscape:vp_z="1 : 0.5 : 1"
       inkscape:persp3d-origin="0.5 : 0.33333333 : 1"
       id="perspective3713-24" />
    <inkscape:perspective
       sodipodi:type="inkscape:persp3d"
       inkscape:vp_x="0 : 0.5 : 1"
       inkscape:vp_y="0 : 1000 : 0"
       inkscape:vp_z="1 : 0.5 : 1"
       inkscape:persp3d-origin="0.5 : 0.33333333 : 1"
       id="perspective3741-86" />
    <inkscape:perspective
       sodipodi:type="inkscape:persp3d"
       inkscape:vp_x="0 : 0.5 : 1"
       inkscape:vp_y="0 : 1000 : 0"
       inkscape:vp_z="1 : 0.5 : 1"
       inkscape:persp3d-origin="0.5 : 0.33333333 : 1"
       id="perspective3765-50" />
    <inkscape:perspective
       sodipodi:type="inkscape:persp3d"
       inkscape:vp_x="0 : 0.5 : 1"
       inkscape:vp_y="0 : 1000 : 0"
       inkscape:vp_z="1 : 0.5 : 1"
       inkscape:persp3d-origin="0.5 : 0.33333333 : 1"
       id="perspective3801-9" />
    <inkscape:perspective
       sodipodi:type="inkscape:persp3d"
       inkscape:vp_x="0 : 0.5 : 1"
       inkscape:vp_y="0 : 1000 : 0"
       inkscape:vp_z="1 : 0.5 : 1"
       inkscape:persp3d-origin="0.5 : 0.33333333 : 1"
       id="perspective2863-0" />
    <inkscape:perspective
       sodipodi:type="inkscape:persp3d"
       inkscape:vp_x="0 : 0.5 : 1"
       inkscape:vp_y="0 : 1000 : 0"
       inkscape:vp_z="1 : 0.5 : 1"
       inkscape:persp3d-origin="0.5 : 0.33333333 : 1"
       id="perspective3859-0" />
    <inkscape:perspective
       sodipodi:type="inkscape:persp3d"
       inkscape:vp_x="0 : 0.5 : 1"
       inkscape:vp_y="0 : 1000 : 0"
       inkscape:vp_z="1 : 0.5 : 1"
       inkscape:persp3d-origin="0.5 : 0.33333333 : 1"
       id="perspective3964-6" />
    <inkscape:perspective
       sodipodi:type="inkscape:persp3d"
       inkscape:vp_x="0 : 0.5 : 1"
       inkscape:vp_y="0 : 1000 : 0"
       inkscape:vp_z="1 : 0.5 : 1"
       inkscape:persp3d-origin="0.5 : 0.33333333 : 1"
       id="perspective3988-13" />
    <inkscape:perspective
       sodipodi:type="inkscape:persp3d"
       inkscape:vp_x="0 : 0.5 : 1"
       inkscape:vp_y="0 : 1000 : 0"
       inkscape:vp_z="1 : 0.5 : 1"
       inkscape:persp3d-origin="0.5 : 0.33333333 : 1"
       id="perspective2879-7-8" />
    <inkscape:perspective
       sodipodi:type="inkscape:persp3d"
       inkscape:vp_x="0 : 0.5 : 1"
       inkscape:vp_y="0 : 1000 : 0"
       inkscape:vp_z="1 : 0.5 : 1"
       inkscape:persp3d-origin="0.5 : 0.33333333 : 1"
       id="perspective4031-9" />
    <inkscape:perspective
       sodipodi:type="inkscape:persp3d"
       inkscape:vp_x="0 : 0.5 : 1"
       inkscape:vp_y="0 : 1000 : 0"
       inkscape:vp_z="1 : 0.5 : 1"
       inkscape:persp3d-origin="0.5 : 0.33333333 : 1"
       id="perspective4047-3" />
    <inkscape:perspective
       sodipodi:type="inkscape:persp3d"
       inkscape:vp_x="0 : 0.5 : 1"
       inkscape:vp_y="0 : 1000 : 0"
       inkscape:vp_z="1 : 0.5 : 1"
       inkscape:persp3d-origin="0.5 : 0.33333333 : 1"
       id="perspective4063-4" />
    <inkscape:perspective
       sodipodi:type="inkscape:persp3d"
       inkscape:vp_x="0 : 0.5 : 1"
       inkscape:vp_y="0 : 1000 : 0"
       inkscape:vp_z="1 : 0.5 : 1"
       inkscape:persp3d-origin="0.5 : 0.33333333 : 1"
       id="perspective4079-4" />
    <inkscape:perspective
       sodipodi:type="inkscape:persp3d"
       inkscape:vp_x="0 : 0.5 : 1"
       inkscape:vp_y="0 : 1000 : 0"
       inkscape:vp_z="1 : 0.5 : 1"
       inkscape:persp3d-origin="0.5 : 0.33333333 : 1"
       id="perspective4097-6" />
    <inkscape:perspective
       sodipodi:type="inkscape:persp3d"
       inkscape:vp_x="0 : 0.5 : 1"
       inkscape:vp_y="0 : 1000 : 0"
       inkscape:vp_z="1 : 0.5 : 1"
       inkscape:persp3d-origin="0.5 : 0.33333333 : 1"
       id="perspective4115-0" />
    <inkscape:perspective
       sodipodi:type="inkscape:persp3d"
       inkscape:vp_x="0 : 0.5 : 1"
       inkscape:vp_y="0 : 1000 : 0"
       inkscape:vp_z="1 : 0.5 : 1"
       inkscape:persp3d-origin="0.5 : 0.33333333 : 1"
       id="perspective4129-6" />
    <inkscape:perspective
       sodipodi:type="inkscape:persp3d"
       inkscape:vp_x="0 : 0.5 : 1"
       inkscape:vp_y="0 : 1000 : 0"
       inkscape:vp_z="1 : 0.5 : 1"
       inkscape:persp3d-origin="0.5 : 0.33333333 : 1"
       id="perspective4153-6" />
    <inkscape:perspective
       sodipodi:type="inkscape:persp3d"
       inkscape:vp_x="0 : 0.5 : 1"
       inkscape:vp_y="0 : 1000 : 0"
       inkscape:vp_z="1 : 0.5 : 1"
       inkscape:persp3d-origin="0.5 : 0.33333333 : 1"
       id="perspective4179-1" />
    <inkscape:perspective
       sodipodi:type="inkscape:persp3d"
       inkscape:vp_x="0 : 0.5 : 1"
       inkscape:vp_y="0 : 1000 : 0"
       inkscape:vp_z="1 : 0.5 : 1"
       inkscape:persp3d-origin="0.5 : 0.33333333 : 1"
       id="perspective4195-8" />
    <inkscape:perspective
       sodipodi:type="inkscape:persp3d"
       inkscape:vp_x="0 : 0.5 : 1"
       inkscape:vp_y="0 : 1000 : 0"
       inkscape:vp_z="1 : 0.5 : 1"
       inkscape:persp3d-origin="0.5 : 0.33333333 : 1"
       id="perspective4213-4" />
    <inkscape:perspective
       sodipodi:type="inkscape:persp3d"
       inkscape:vp_x="0 : 0.5 : 1"
       inkscape:vp_y="0 : 1000 : 0"
       inkscape:vp_z="1 : 0.5 : 1"
       inkscape:persp3d-origin="0.5 : 0.33333333 : 1"
       id="perspective4267-9" />
    <inkscape:perspective
       sodipodi:type="inkscape:persp3d"
       inkscape:vp_x="0 : 0.5 : 1"
       inkscape:vp_y="0 : 1000 : 0"
       inkscape:vp_z="1 : 0.5 : 1"
       inkscape:persp3d-origin="0.5 : 0.33333333 : 1"
       id="perspective4283-6" />
    <inkscape:perspective
       sodipodi:type="inkscape:persp3d"
       inkscape:vp_x="0 : 0.5 : 1"
       inkscape:vp_y="0 : 1000 : 0"
       inkscape:vp_z="1 : 0.5 : 1"
       inkscape:persp3d-origin="0.5 : 0.33333333 : 1"
       id="perspective4314-3" />
    <inkscape:perspective
       sodipodi:type="inkscape:persp3d"
       inkscape:vp_x="0 : 0.5 : 1"
       inkscape:vp_y="0 : 1000 : 0"
       inkscape:vp_z="1 : 0.5 : 1"
       inkscape:persp3d-origin="0.5 : 0.33333333 : 1"
       id="perspective4330" />
    <inkscape:perspective
       sodipodi:type="inkscape:persp3d"
       inkscape:vp_x="0 : 0.5 : 1"
       inkscape:vp_y="0 : 1000 : 0"
       inkscape:vp_z="1 : 0.5 : 1"
       inkscape:persp3d-origin="0.5 : 0.33333333 : 1"
       id="perspective4346" />
    <inkscape:perspective
       sodipodi:type="inkscape:persp3d"
       inkscape:vp_x="0 : 0.5 : 1"
       inkscape:vp_y="0 : 1000 : 0"
       inkscape:vp_z="1 : 0.5 : 1"
       inkscape:persp3d-origin="0.5 : 0.33333333 : 1"
       id="perspective3742" />
    <inkscape:perspective
       sodipodi:type="inkscape:persp3d"
       inkscape:vp_x="0 : 0.5 : 1"
       inkscape:vp_y="0 : 1000 : 0"
       inkscape:vp_z="1 : 0.5 : 1"
       inkscape:persp3d-origin="0.5 : 0.33333333 : 1"
       id="perspective3776" />
    <inkscape:perspective
       sodipodi:type="inkscape:persp3d"
       inkscape:vp_x="0 : 0.5 : 1"
       inkscape:vp_y="0 : 1000 : 0"
       inkscape:vp_z="1 : 0.5 : 1"
       inkscape:persp3d-origin="0.5 : 0.33333333 : 1"
       id="perspective3792" />
    <inkscape:perspective
       sodipodi:type="inkscape:persp3d"
       inkscape:vp_x="0 : 0.5 : 1"
       inkscape:vp_y="0 : 1000 : 0"
       inkscape:vp_z="1 : 0.5 : 1"
       inkscape:persp3d-origin="0.5 : 0.33333333 : 1"
       id="perspective3808" />
    <inkscape:perspective
       sodipodi:type="inkscape:persp3d"
       inkscape:vp_x="0 : 0.5 : 1"
       inkscape:vp_y="0 : 1000 : 0"
       inkscape:vp_z="1 : 0.5 : 1"
       inkscape:persp3d-origin="0.5 : 0.33333333 : 1"
       id="perspective3824" />
    <inkscape:perspective
       sodipodi:type="inkscape:persp3d"
       inkscape:vp_x="0 : 0.5 : 1"
       inkscape:vp_y="0 : 1000 : 0"
       inkscape:vp_z="1 : 0.5 : 1"
       inkscape:persp3d-origin="0.5 : 0.33333333 : 1"
       id="perspective4354" />
    <inkscape:perspective
       sodipodi:type="inkscape:persp3d"
       inkscape:vp_x="0 : 0.5 : 1"
       inkscape:vp_y="0 : 1000 : 0"
       inkscape:vp_z="1 : 0.5 : 1"
       inkscape:persp3d-origin="0.5 : 0.33333333 : 1"
       id="perspective4395" />
    <inkscape:perspective
       sodipodi:type="inkscape:persp3d"
       inkscape:vp_x="0 : 0.5 : 1"
       inkscape:vp_y="0 : 1000 : 0"
       inkscape:vp_z="1 : 0.5 : 1"
       inkscape:persp3d-origin="0.5 : 0.33333333 : 1"
       id="perspective4435" />
    <inkscape:perspective
       sodipodi:type="inkscape:persp3d"
       inkscape:vp_x="0 : 0.5 : 1"
       inkscape:vp_y="0 : 1000 : 0"
       inkscape:vp_z="1 : 0.5 : 1"
       inkscape:persp3d-origin="0.5 : 0.33333333 : 1"
       id="perspective4460" />
    <inkscape:perspective
       id="perspective29358"
       inkscape:persp3d-origin="0.5 : 0.33333333 : 1"
       inkscape:vp_z="1 : 0.5 : 1"
       inkscape:vp_y="0 : 1000 : 0"
       inkscape:vp_x="0 : 0.5 : 1"
       sodipodi:type="inkscape:persp3d" />
    <inkscape:perspective
       id="perspective31127"
       inkscape:persp3d-origin="0.5 : 0.33333333 : 1"
       inkscape:vp_z="1 : 0.5 : 1"
       inkscape:vp_y="0 : 1000 : 0"
       inkscape:vp_x="0 : 0.5 : 1"
       sodipodi:type="inkscape:persp3d" />
  </defs>
  <sodipodi:namedview
     id="base"
     pagecolor="#ffffff"
     bordercolor="#666666"
     borderopacity="1.0"
     inkscape:pageopacity="0.0"
     inkscape:pageshadow="2"
     inkscape:zoom="1.6185519"
     inkscape:cx="453.61135"
     inkscape:cy="478.02874"
     inkscape:document-units="px"
     inkscape:current-layer="layer1"
     showgrid="false"
     inkscape:window-width="1600"
     inkscape:window-height="838"
     inkscape:window-x="-8"
     inkscape:window-y="-8"
     inkscape:window-maximized="1" />
  <metadata
     id="metadata7">
    <rdf:RDF>
      <cc:Work
         rdf:about="">
        <dc:format>image/svg+xml</dc:format>
        <dc:type
           rdf:resource="http://purl.org/dc/dcmitype/StillImage" />
        <dc:title></dc:title>
      </cc:Work>
    </rdf:RDF>
  </metadata>
  <g
     inkscape:label="Livello 1"
     inkscape:groupmode="layer"
     id="layer1"
     transform="translate(404.93434,-452.20124)">
    <g
       id="g31373">
      <path
         id="path30385"
         style="fill:#8f5445;fill-opacity:1;fill-rule:nonzero;stroke:none"
         d="m -404.62771,1053.0602 404.20092985,0 0,-600.54275 -404.20092985,0 0,600.54275 z" />
      <path
         id="path30387"
         style="fill:#8f5445;fill-opacity:1;fill-rule:nonzero;stroke:none"
         d="m -404.62771,452.20124 404.20092985,0 0,0.62322 -404.20092985,0 0,-0.62322 z m 404.20092985,0 0.29743111,0 0.007959,0.30662 -0.30662386,0 0,-0.30662 z m -0.30660397,0.30662 0.61322783,0 0,600.54274 -0.61322783,0 0,-600.54274 z m 0.61322783,0 z m 0,600.55234 -0.007959,0.2966 -0.2966551,0 0,-0.2966 0.30662386,0 z m -0.30662386,0.2966 -404.20092985,0 0,-0.6132 404.20092985,0 0,0.6132 z m -404.20092985,0 -0.30663,0 0,-0.3066 0.30663,0 0,0.3066 z m 0.30662,-0.2966 -0.61325,0 0,-600.54275 0.61325,0 0,600.54275 z m -0.61325,0 z m 0,-600.55234 0,-0.30662 0.30663,0 0,0.30662" />
      <g
         transform="matrix(9.5818542,0,0,-9.5818542,-376.57205,460.22125)"
         id="g30389">
        <path
           id="path30391"
           style="fill:#8f5445;fill-opacity:1;fill-rule:evenodd;stroke:none"
           d="m 0,0 36.265,0 c 1.381,0 2.091,-0.794 2.091,-2.405 l 0,-55.798 c 0,-1.632 -0.71,-2.448 -2.091,-2.448 l -36.265,0 c -1.359,0 -2.049,0.816 -2.049,2.448 l 0,55.798 C -2.049,-0.794 -1.359,0 0,0" />
      </g>
      <path
         id="path30393"
         style="fill:#ffffff;fill-opacity:1;fill-rule:nonzero;stroke:none"
         d="m -376.57205,457.82579 347.485947,0 0,4.79093 -347.485947,0 0,-4.79093 z m 347.485947,0 c 7.368444,0 12.992993,2.19426 16.825751,6.6019 l -3.612371,3.14285 c -2.874544,-3.30573 -7.30137,-4.95382 -13.21338,-4.95382 l 0,-4.79093 z m 16.825751,6.6019 0,0.008 -1.810971,1.56185 1.810971,-1.57142 z m 0,0.008 c 3.7177496,4.28311 5.6053667,10.54963 5.6053667,18.82836 l -4.7909137,0 c 0,-7.10016 -1.494776,-12.33185 -4.426824,-15.70468 l 3.612371,-3.12368 z m 0.814453,18.82836 4.7906948,0 0,534.64825 -4.7906948,0 0,-534.64825 z m 4.7909137,0 z m 0,534.64825 c 0,8.3841 -1.8876171,14.7561 -5.6149577,19.1158 l -3.621942,-3.1045 c 2.95121,-3.4591 4.445986,-8.7962 4.445986,-16.0113 l 4.7909137,0 z m -5.6149577,19.1158 c -3.832738,4.4843 -9.457287,6.7361 -16.81616,6.7361 l 0,-4.791 c 5.902419,0 10.319654,-1.6864 13.194218,-5.0496 l 3.621942,3.1045 z m -16.81616,6.7361 -347.485947,0 0,-4.7904 347.485947,0 0,4.7904 z m -347.485947,0 c -7.26304,0 -12.79176,-2.2518 -16.54786,-6.7457 l 3.66986,-3.0662 c 2.78831,3.3441 7.10014,5.0209 12.878,5.0209 l 0,4.791 z m -16.54786,-6.7457 c -3.65069,-4.3501 -5.48082,-10.7221 -5.48082,-19.1062 l 4.79093,0 c 0,7.2343 1.45643,12.581 4.35975,16.04 l -3.66986,3.0662 z m -0.68989,-19.1062 -4.79115,0 0,-534.64825 4.79115,0 0,534.64825 z m -4.79093,0 z m 0,-534.64825 c 0,-8.27873 1.83972,-14.55485 5.49039,-18.83793 l 3.62195,3.11409 c -2.87455,3.37283 -4.32141,8.60451 -4.32141,15.72384 l -4.79093,0 z m 5.49039,-18.83793 c 3.7561,-4.40766 9.28484,-6.6019 16.53829,-6.6019 l 0,4.79093 c -5.79702,0 -10.10886,1.6385 -12.91634,4.92506" />
      <g
         transform="matrix(9.5818542,0,0,-9.5818542,-354.5242,802.09224)"
         id="g30395">
        <path
           id="path30397"
           style="fill:#ffffff;fill-opacity:1;fill-rule:evenodd;stroke:none"
           d="m 0,0 16.94,0 c 1.297,0 2.364,-1.046 2.364,-2.364 l 0,-16.961 c 0,-1.297 -1.067,-2.363 -2.364,-2.363 l -16.94,0 c -1.318,0 -2.384,1.066 -2.384,2.363 l 0,16.961 C -2.384,-1.046 -1.318,0 0,0" />
      </g>
      <path
         id="path30399"
         style="fill:#ffffff;fill-opacity:1;fill-rule:nonzero;stroke:none"
         d="m -354.5242,801.78561 162.31661,0 0,0.60328 -162.31661,0 0,-0.60328 z m 162.31661,0 c 6.32403,0 12.08273,2.55837 16.25083,6.72647 l -0.43157,0.4308 c -4.05312,-4.05312 -9.66808,-6.55399 -15.81964,-6.55399 l 0,-0.60328 z m 16.25083,6.72647 c 4.12979,4.12979 6.69771,9.85014 6.69771,16.22209 l -0.60404,0 c 0,-6.19947 -2.50086,-11.76652 -6.52524,-15.79091 l 0.43157,-0.43079 z m 6.09405,16.22209 0.60406,0 0,162.51783 -0.60406,0 0,-162.51783 z m 0.60406,0 z m 0,162.51783 c 0,6.29526 -2.58711,12.0348 -6.74563,16.2029 l -0.43081,-0.4308 c 4.05313,-4.05312 6.57316,-9.63934 6.57316,-15.77172 l 0.60403,0 z m -6.74563,16.2029 c -4.15852,4.1585 -9.90765,6.7456 -16.20291,6.7456 l 0,-0.604 c 6.13238,0 11.7186,-2.5296 15.77173,-6.5732 l 0.43078,0.4308 z m -16.20291,6.7456 -162.31663,0 0,-0.604 162.31663,0 0,0.604 z m -162.31663,0 c -6.38152,0 -12.15938,-2.5775 -16.34664,-6.7264 l 0.4216,-0.4316 c 4.08187,4.0435 9.70642,6.554 15.92504,6.554 l 0,0.604 z m -16.34664,-6.7264 c -4.19686,-4.15855 -6.80313,-9.91725 -6.80313,-16.2221 l 0.61325,0 c 0,6.14197 2.52962,11.73776 6.61148,15.7909 l -0.4216,0.4316 z m -6.18988,-16.2221 -0.61325,0 0,-162.51783 0.61325,0 0,162.51783 z m -0.61325,0 z m 0,-162.51783 c 0,-6.38152 2.57754,-12.11146 6.74563,-16.24126 l 0.43158,0.43081 c -4.05312,4.0148 -6.56358,9.60101 -6.56358,15.81005 l -0.61323,0 z m 6.74563,-16.24126 c 4.19687,-4.15852 10.00346,-6.7073 16.40414,-6.7073 l 0,0.60328 c -6.23778,0 -11.89108,2.49129 -15.97296,6.53483" />
      <path
         id="path30401"
         style="fill:#1f1a17;fill-opacity:1;fill-rule:nonzero;stroke:none"
         d="m -347.30907,978.84871 4.59914,0 0,-65.73152 -4.59914,0 0,65.73152 z" />
      <path
         id="path30403"
         style="fill:#000000;fill-opacity:1;fill-rule:nonzero;stroke:none"
         d="m -347.30907,912.81057 4.59914,0 0,0.60404 -4.59914,0 0,-0.60404 z m 4.5993,0 0.31582,0 0,0.30738 -0.31582,0 0,-0.30738 z m -0.29743,0.30662 0.61325,0 0,65.72094 -0.61325,0 0,-65.72094 z m 0.61325,0 z m -0.31582,65.72193 0.31582,0 0,0.30663 -0.31582,0 0,-0.30663 z m 0.31582,0 z m -0.31582,0.30663 -4.59906,0 0,-0.61401 4.59906,0 0,0.61401 z m -4.5993,0 -0.31581,0 0,-0.30663 0.31581,0 0,0.30663 z m 0.30663,-0.30663 -0.6232,0 0,-65.72101 0.6232,0 0,65.72101 z m -0.6232,0 z m 0,-65.72193 0,-0.30662 0.31582,0 0,0.30662" />
      <g
         transform="matrix(9.5818542,0,0,-9.5818542,-292.40503,894.6817)"
         id="g30405">
        <path
           id="path30407"
           style="fill:#1f1a17;fill-opacity:1;fill-rule:evenodd;stroke:none"
           d="M 0,0 -0.355,4.099 C -0.397,4.58 -0.899,4.601 -1.318,4.413 -1.715,4.225 -1.987,4.078 -2.384,3.806 L -5.793,-0.23 c -0.711,-0.732 0.334,-1.757 0.983,-1.088 l 1.903,2.218 0.314,-1.088 -1.611,-7.508 c -0.334,-1.422 1.485,-1.924 1.82,-0.356 l 1.004,6.295 0.941,-3.137 1.882,-3.388 c 0.606,-1.213 2.092,-0.606 1.631,0.649 l -1.735,3.032" />
      </g>
      <g
         transform="matrix(9.5818542,0,0,-9.5818542,-292.71166,894.70086)"
         id="g30409">
        <path
           id="path30411"
           style="fill:#000000;fill-opacity:1;fill-rule:nonzero;stroke:none"
           d="M 0,0 -0.355,4.099 -0.292,4.105 0.064,0.006 0,0 z m -0.355,4.099 c -0.006,0.065 -0.02,0.12 -0.041,0.166 l 0.058,0.026 c 0.024,-0.053 0.04,-0.115 0.046,-0.186 L -0.355,4.099 z m -0.041,0.166 c -0.041,0.091 -0.109,0.152 -0.193,0.188 l 0.025,0.058 c 0.098,-0.042 0.178,-0.114 0.226,-0.22 L -0.396,4.265 z m -0.169,0.246 0.001,0 -0.013,-0.029 0.012,0.029 z M -0.589,4.453 C -0.675,4.489 -0.78,4.501 -0.891,4.491 l -0.005,0.063 c 0.12,0.011 0.235,-0.002 0.331,-0.043 L -0.589,4.453 z M -0.891,4.491 C -1.015,4.48 -1.148,4.443 -1.273,4.387 l -0.026,0.058 c 0.131,0.059 0.271,0.098 0.403,0.109 l 0.005,-0.063 z m -0.408,-0.047 0,0.001 0.013,-0.029 -0.013,0.028 z M -1.272,4.387 C -1.469,4.294 -1.636,4.211 -1.803,4.116 L -1.835,4.172 C -1.668,4.265 -1.5,4.35 -1.299,4.444 L -1.272,4.387 z M -1.803,4.116 C -1.971,4.022 -2.138,3.918 -2.335,3.783 L -2.37,3.835 c 0.2,0.138 0.369,0.243 0.535,0.337 L -1.803,4.116 z M -2.377,3.83 -2.37,3.835 -2.353,3.809 -2.377,3.83 z m 0.049,-0.041 -3.409,-4.036 -0.049,0.04 3.409,4.037 0.049,-0.041 z m -3.409,-4.036 -0.002,-0.002 -0.022,0.022 0.024,-0.02 z M -5.739,-0.249 C -5.991,-0.508 -6.013,-0.806 -5.91,-1.046 l -0.058,-0.025 c -0.113,0.261 -0.089,0.585 0.184,0.866 l 0.045,-0.044 z M -5.91,-1.046 c 0.04,-0.091 0.097,-0.174 0.167,-0.243 l -0.044,-0.045 c -0.076,0.075 -0.139,0.165 -0.181,0.263 l 0.058,0.025 z m 0.167,-0.243 c 0.07,-0.069 0.153,-0.125 0.242,-0.162 l -0.024,-0.058 c -0.097,0.04 -0.187,0.101 -0.262,0.175 l 0.044,0.045 z m 0.242,-0.162 c 0.22,-0.091 0.483,-0.065 0.7,0.158 l 0.045,-0.044 c -0.237,-0.245 -0.526,-0.272 -0.769,-0.172 l 0.024,0.058 z m 0.746,0.116 -0.001,-0.002 -0.023,0.022 0.024,-0.02 z m -0.048,0.041 1.903,2.217 0.049,-0.041 -1.904,-2.217 -0.048,0.041 z M -2.9,0.923 -2.861,0.968 -2.845,0.911 -2.875,0.902 -2.9,0.923 z m 0.055,-0.012 0.314,-1.088 -0.061,-0.017 -0.314,1.088 0.061,0.017 z m 0.314,-1.088 0,-0.015 -0.031,0.007 0.031,0.008 z m 0,-0.015 -1.61,-7.508 -0.062,0.013 1.61,7.508 0.062,-0.013 z m -1.61,-7.508 0,-10e-4 -0.031,0.008 0.031,-0.007 z m 0,-10e-4 c -0.117,-0.498 0.036,-0.88 0.296,-1.093 l -0.04,-0.049 c -0.277,0.227 -0.442,0.631 -0.318,1.157 l 0.062,-0.015 z m 0.296,-1.093 c 0.102,-0.083 0.221,-0.141 0.345,-0.169 l -0.014,-0.062 c -0.134,0.03 -0.262,0.093 -0.371,0.182 l 0.04,0.049 z M -3.5,-8.963 c 0.125,-0.029 0.257,-0.028 0.384,0.005 L -3.1,-9.019 c -0.138,-0.036 -0.28,-0.037 -0.414,-0.006 l 0.014,0.062 z m 0.384,0.005 c 0.319,0.083 0.617,0.372 0.733,0.916 l 0.061,-0.013 C -2.443,-8.626 -2.76,-8.931 -3.1,-9.019 l -0.016,0.061 z m 0.795,0.904 -10e-4,-10e-4 -0.031,0.006 0.032,-0.005 z m -0.063,0.01 1.004,6.295 0.063,-0.01 -1.004,-6.295 -0.063,0.01 z m 1.004,6.295 0.062,0.004 -0.031,-0.009 -0.031,0.005 z m 0.062,0.004 0.941,-3.137 -0.061,-0.018 -0.941,3.137 0.061,0.018 z m 0.883,-3.161 -0.003,0.006 0.031,0.009 -0.028,-0.015 z m 0.055,0.03 1.883,-3.388 -0.056,-0.03 -1.882,3.388 0.055,0.03 z m 1.883,-3.388 0,-0.001 -0.028,-0.014 0.028,0.015 z m 0,-0.001 C 1.712,-8.682 2.025,-8.878 2.324,-8.903 L 2.319,-8.967 C 2,-8.94 1.666,-8.732 1.447,-8.293 l 0.056,0.028 z m 0.821,-0.638 c 0.128,-0.011 0.254,0.009 0.367,0.057 L 2.716,-8.904 C 2.593,-8.956 2.457,-8.978 2.319,-8.967 l 0.005,0.064 z m 0.367,0.057 0.012,-0.029 -0.012,0.029 z m 0,0 c 0.112,0.048 0.214,0.124 0.293,0.222 l 0.05,-0.039 C 2.948,-8.77 2.838,-8.852 2.715,-8.904 l -0.024,0.058 z m 0.293,0.222 0.025,-0.019 -0.025,0.019 z m 0,0 c 0.178,0.223 0.245,0.566 0.092,0.982 l 0.06,0.023 C 3.297,-8.06 3.224,-8.425 3.033,-8.663 l -0.049,0.039 z m 0.15,1.009 0.002,-0.004 -0.03,-0.012 0.028,0.016 z M 3.079,-7.646 1.343,-4.614 1.398,-4.582 3.134,-7.615 3.079,-7.646 z M 1.343,-4.614 1.34,-4.607 1.37,-4.598 1.343,-4.614 z M 1.34,-4.607 0.001,-0.006 0.062,0.012 1.401,-4.589 1.34,-4.607 z M 0.001,-0.006 0,0 0.032,0.003" />
      </g>
      <g
         transform="matrix(9.5818542,0,0,-9.5818542,-214.84951,877.64515)"
         id="g30413">
        <path
           id="path30415"
           style="fill:#1f1a17;fill-opacity:1;fill-rule:evenodd;stroke:none"
           d="m 0,0 1.171,-1.088 0,-1.15 c 0.021,-0.774 1.13,-0.774 1.13,0 l 0,1.548 -2.803,2.928 C -1.004,2.719 -1.82,2.28 -2.05,2.049 l -3.199,-3.722 c -0.607,-0.607 0.209,-1.464 0.773,-0.879 l 1.862,2.196 -0.837,-5.814 0.879,0 -0.879,-3.702 c -0.23,-0.92 1.171,-1.254 1.401,-0.25 l 0.837,3.952 0.585,0 1.276,-4.015 c 0.314,-0.983 1.653,-0.544 1.339,0.376 l -1.192,3.66 0.857,0" />
      </g>
      <g
         transform="matrix(9.5818542,0,0,-9.5818542,-214.64828,877.41519)"
         id="g30417">
        <path
           id="path30419"
           style="fill:#000000;fill-opacity:1;fill-rule:nonzero;stroke:none"
           d="M 0,0 1.171,-1.088 1.128,-1.134 -0.043,-0.047 0,0 z m 1.171,-1.088 0.01,-0.009 0,-0.014 -0.031,0 0.021,0.023 z m -0.053,-0.023 0.062988,0 0,-1.1499 -0.062988,0 0,1.1499 z m 0.063,0 z m -0.063,-1.151 0,10e-4 0.032,0 -0.032,-10e-4 z M 1.181,-2.26 C 1.188,-2.524 1.329,-2.694 1.505,-2.767 L 1.481,-2.825 c -0.198,0.082 -0.355,0.27 -0.363,0.563 L 1.181,-2.26 z M 1.505,-2.767 C 1.575,-2.796 1.652,-2.81 1.728,-2.81 l 0,-0.063 C 1.644,-2.874 1.559,-2.858 1.481,-2.825 l 0.024,0.058 z M 1.728,-2.81 c 0.075,10e-4 0.152,0.017 0.22,0.048 L 1.974,-2.82 C 1.898,-2.855 1.813,-2.872 1.728,-2.873 l 0,0.063 z m 0.22,0.048 c 0.169,0.075 0.299,0.242 0.299,0.501 l 0.064,0 c 0,-0.287 -0.146,-0.474 -0.337,-0.559 l -0.026,0.058 z m 0.363,0.501 -0.063965,0 0,1.5471 0.063965,0 0,-1.5471 z m -0.064,0 z m 0.055,1.57 0.009,-0.023 -0.032,0 0.023,0.023 z M 2.256,-0.736 -0.547,2.192 -0.5,2.237 2.302,-0.691 2.256,-0.736 z m -2.757,2.973 0.001,0 -0.023,-0.023 0.022,0.023 z M -0.546,2.191 c -0.192,0.185 -0.434,0.228 -0.669,0.2 L -1.222,2.454 C -0.97,2.484 -0.71,2.437 -0.501,2.237 L -0.546,2.191 z m -0.669,0.2 C -1.572,2.348 -1.914,2.139 -2.049,2.004 l -0.045,0.045 c 0.142,0.141 0.499,0.36 0.872,0.405 l 0.007,-0.063 z m -0.88,-0.344 0.001,0.002 0.023,-0.023 -0.024,0.021 z m 0.048,-0.042 -3.2,-3.722 -0.048,0.041 3.2,3.723 0.048,-0.042 z m -3.2,-3.722 -0.002,-0.002 -0.022,0.022 0.024,-0.02 z M -5.249,-1.719 C -5.463,-1.933 -5.491,-2.18 -5.415,-2.377 L -5.474,-2.4 c -0.085,0.218 -0.055,0.491 0.181,0.726 l 0.044,-0.045 z m -0.166,-0.658 c 0.03,-0.076 0.075,-0.144 0.13,-0.2 l -0.044,-0.045 c -0.062,0.062 -0.112,0.138 -0.145,0.222 l 0.059,0.023 z m 0.13,-0.2 0.001,-10e-4 -0.023,-0.022 0.022,0.023 z m 0.001,-10e-4 c 0.055,-0.055 0.121,-0.1 0.194,-0.128 l -0.023,-0.059 c -0.08,0.031 -0.155,0.081 -0.217,0.143 l 0.046,0.044 z m 0.194,-0.128 c 0.174,-0.067 0.386,-0.037 0.57,0.153 l 0.046,-0.044 c -0.205,-0.212 -0.442,-0.244 -0.639,-0.168 l 0.023,0.059 z m 0.617,0.111 -0.001,-0.002 -0.023,0.022 0.024,-0.02 z m -0.048,0.04 1.861,2.196 0.048,-0.04 -1.861,-2.196 -0.048,0.04 z m 1.861,2.196 0.056,-0.025 -0.032,0.005 -0.024,0.02 z m 0.056,-0.025 -0.837,-5.814 -0.063,0.009 0.837,5.814 0.063,-0.009 z m -0.868,-5.841 -0.037,0 0.005,0.036 0.032,-0.004 0,-0.032 z m 0,0.064 0.87802,0 0,-0.064026 -0.87802,0 0,0.064026 z m 0.878,0 0.04,0 -0.009,-0.04 -0.031,0.008 0,0.032 z m 0.031,-0.04 -0.878,-3.701 -0.062,0.014 0.878,3.702 0.062,-0.015 z m -0.878,-3.701 0,-0.001 -0.031,0.008 0.031,-0.007 z m 0,-0.001 c -0.077,-0.307 0.036,-0.546 0.225,-0.685 l -0.038,-0.051 c -0.208,0.153 -0.333,0.415 -0.249,0.752 l 0.062,-0.016 z m 0.225,-0.685 c 0.077,-0.057 0.168,-0.098 0.263,-0.12 l -0.014,-0.061 c -0.103,0.023 -0.202,0.068 -0.287,0.13 l 0.038,0.051 z m 0.263,-0.12 c 0.095,-0.021 0.195,-0.025 0.293,-0.008 l 0.011,-0.062 c -0.106,-0.019 -0.215,-0.015 -0.318,0.009 l 0.014,0.061 z m 0.293,-0.008 c 0.248,0.045 0.477,0.226 0.558,0.577 l 0.062,-0.014 c -0.087,-0.38 -0.338,-0.576 -0.609,-0.625 l -0.011,0.062 z m 0.62,0.564 0,-0.001 -0.031,0.007 0.031,-0.006 z m -0.062,0.013 0.837,3.952 0.062,-0.013 -0.837,-3.952 -0.062,0.013 z m 0.837,3.952 0.005,0.026 0.026,0 0,-0.032 -0.031,0.006 z m 0.031,0.026 0.58502,0 0,-0.064026 -0.58502,0 0,0.064026 z m 0.585,0 0.023,0 0.007,-0.022 -0.03,-0.01 0,0.032 z m 0.03,-0.022 1.276,-4.016 -0.061,-0.019 -1.275,4.015 0.06,0.02 z m 1.276,-4.016 c 0.11,-0.343 0.348,-0.506 0.592,-0.531 l -0.006,-0.063 c -0.267,0.027 -0.528,0.204 -0.647,0.575 l 0.061,0.019 z m 0.592,-0.531 c 0.096,-0.01 0.194,0.001 0.284,0.03 l 0.02,-0.06 c -0.099,-0.032 -0.206,-0.044 -0.31,-0.033 l 0.006,0.063 z m 0.284,0.03 c 0.09,0.029 0.175,0.077 0.246,0.14 l 0.042,-0.047 C 1.745,-10.676 1.652,-10.729 1.553,-10.76 l -0.02,0.06 z m 0.246,0.14 c 0.172,0.155 0.262,0.408 0.156,0.718 l 0.06,0.02 c 0.115,-0.337 0.016,-0.614 -0.174,-0.785 l -0.042,0.047 z m 0.156,0.718 0.03,0.01 -0.03,-0.01 z m 0,0 -1.192,3.66 0.06,0.02 1.192,-3.66 -0.06,-0.02 z m -1.192,3.66 -0.013,0.042 0.043,0 0,-0.032 -0.03,-0.01 z m 0.03,0.042 0.858,0 0,-0.064087 -0.858,0 0,0.064087 z m 0.888,-0.024 0.011,-0.04 -0.041,0 0,0.032 0.03,0.008 z M 1.6,-6.18 -0.052,-0.031 0.009,-0.015 1.661,-6.164 1.6,-6.18 z M -0.052,-0.031 0,0 -0.022,-0.023" />
      </g>
      <g
         transform="matrix(9.5818542,0,0,-9.5818542,-298.01042,838.56078)"
         id="g30421">
        <path
           id="path30423"
           style="fill:#1f1a17;fill-opacity:1;fill-rule:evenodd;stroke:none"
           d="m 0,0 c 0,-0.69 -0.544,-1.234 -1.213,-1.234 -0.669,0 -1.234,0.544 -1.234,1.234" />
      </g>
      <g
         transform="matrix(9.5818542,0,0,-9.5818542,-297.71339,838.56078)"
         id="g30425">
        <path
           id="path30427"
           style="fill:#000000;fill-opacity:1;fill-rule:nonzero;stroke:none"
           d="m 0,0 c 0,-0.352 -0.139,-0.668 -0.362,-0.896 l -0.046,0.044 c 0.213,0.217 0.344,0.517 0.344,0.852 L 0,0 z m -0.362,-0.896 c -0.226,-0.229 -0.538,-0.37 -0.883,-0.37 l 0,0.064 c 0.327,0 0.624,0.133 0.837,0.35 l 0.046,-0.044 z m -0.883,-0.37 c -0.346,0 -0.665,0.142 -0.895,0.373 l 0.045,0.045 c 0.219,-0.22 0.522,-0.354 0.85,-0.354 l 0,-0.064 z M -2.14,-0.893 C -2.368,-0.666 -2.51,-0.351 -2.51,0 l 0.063,0 c 0,-0.334 0.136,-0.632 0.352,-0.848 L -2.14,-0.893 z M -2.479,0 l -0.031006,0 0,0.032043 0.031006,0 L -2.479,0 z M -2.51,0 z m 0.031,0.032 2.447,0 0,-0.064087 -2.447,0 0,0.064087 z m 2.447,0 L 0,0.032 0,0 -0.032,0" />
      </g>
      <g
         transform="matrix(9.5818542,0,0,-9.5818542,-232.28849,828.1453)"
         id="g30429">
        <path
           id="path30431"
           style="fill:#1f1a17;fill-opacity:1;fill-rule:evenodd;stroke:none"
           d="m 0,0 c -0.69,0 -1.234,-0.544 -1.234,-1.234 0,-0.669 0.544,-1.213 1.234,-1.213" />
      </g>
      <g
         transform="matrix(9.5818542,0,0,-9.5818542,-232.28849,828.45192)"
         id="g30433">
        <path
           id="path30435"
           style="fill:#000000;fill-opacity:1;fill-rule:nonzero;stroke:none"
           d="m 0,0 c -0.336,0 -0.637,-0.133 -0.853,-0.349 l -0.045,0.045 C -0.671,-0.076 -0.353,0.063 0,0.063 L 0,0 z M -0.853,-0.349 C -1.07,-0.565 -1.202,-0.866 -1.202,-1.202 l -0.064,0 c 0,0.353 0.14,0.671 0.368,0.898 l 0.045,-0.045 z m -0.349,-0.853 c 0,-0.327 0.133,-0.624 0.351,-0.837 l -0.045,-0.046 c -0.229,0.226 -0.37,0.538 -0.37,0.883 l 0.064,0 z m 0.351,-0.837 C -0.635,-2.252 -0.335,-2.383 0,-2.383 l 0,-0.064 c -0.352,0 -0.668,0.139 -0.896,0.362 l 0.045,0.046 z M 0,-2.415 l 0.031982,0 0,-0.032104 -0.031982,0 0,0.032104 z m 0.032,0 z m 0,0 -0.063965,0 0,2.4469 0.063965,0 0,-2.4469 z m -0.064,0 z M 0,0.063 l 0.032,0 0,-0.031 -0.032,0" />
      </g>
      <g
         transform="matrix(9.5818542,0,0,-9.5818542,-309.63321,824.34131)"
         id="g30437">
        <path
           id="path30439"
           style="fill:#1f1a17;fill-opacity:1;fill-rule:evenodd;stroke:none"
           d="m 0,0 c 0.69,0 1.213,-0.565 1.213,-1.255 -1.088,0 -2.113,0 -3.221,0 -0.167,0 -0.167,0.314 0,0.314 l 0.816,0 c 0,0.146 0,0.209 0,0.376 C -1.109,-0.293 -0.795,0 -0.46,0" />
      </g>
      <g
         transform="matrix(9.5818542,0,0,-9.5818542,-309.63321,824.03469)"
         id="g30441">
        <path
           id="path30443"
           style="fill:#000000;fill-opacity:1;fill-rule:nonzero;stroke:none"
           d="M 0,0 C 0.351,0 0.66,-0.143 0.883,-0.373 L 0.837,-0.417 C 0.626,-0.199 0.333,-0.064 0,-0.064 L 0,0 z M 0.883,-0.373 C 1.108,-0.606 1.245,-0.93 1.245,-1.287 l -0.064,0 c 0,0.339 -0.13,0.648 -0.344,0.87 l 0.046,0.044 z m 0.33,-0.914 0.031982,0 0,-0.031006 -0.031982,0 0,0.031006 z m 0.032,0 z m -0.032,-0.031 -3.221,0 0,0.062988 3.221,0 0,-0.062988 z m -3.221,0 c -0.076,0 -0.125,0.05 -0.146,0.114 l 0.061,0.02 c 0.012,-0.04 0.041,-0.071 0.085,-0.071 l 0,-0.063 z m -0.146,0.114 0.03,0.01 -0.03,-0.01 z m 0,0 c -0.007,0.023 -0.011,0.049 -0.011,0.074 l 0.063,0 c 0,-0.018 0.003,-0.037 0.009,-0.055 l -0.061,-0.019 z m -0.011,0.074 c 0,0.025 0.004,0.051 0.011,0.074 l 0.061,-0.019 C -2.099,-1.092 -2.102,-1.11 -2.102,-1.13 l -0.063,0 z m 0.011,0.074 c 0.021,0.064 0.07,0.115 0.146,0.115 l 0,-0.064 c -0.044,0 -0.073,-0.031 -0.085,-0.07 l -0.061,0.019 z m 0.146,0.115 0.81601,0 0,-0.063965 -0.81601,0 0,0.063965 z m 0.816,-0.032 0.030975,0 0,-0.031982 -0.030975,0 0,0.031982 z m 0.031,0 z m 0,0 -0.062988,0 0,0.37701 0.062988,0 0,-0.37701 z m -0.063,0 z m 0,0.377 10e-4,0.009 0.031,-0.009 -0.032,0 z m 10e-4,0.009 c 0.046,0.148 0.159,0.304 0.305,0.417 l 0.038,-0.05 c -0.135,-0.105 -0.24,-0.249 -0.282,-0.386 l -0.061,0.019 z m 0.305,0.417 C -0.786,-0.068 -0.626,0 -0.46,0 l 0,-0.064 c -0.151,0 -0.298,-0.063 -0.42,-0.156 l -0.038,0.05 z M -0.46,0 0,0 l 0,-0.064 -0.46,0" />
      </g>
      <g
         transform="matrix(9.5818542,0,0,-9.5818542,-288.19861,895.27576)"
         id="g30445">
        <path
           id="path30447"
           style="fill:#1f1a17;fill-opacity:1;fill-rule:evenodd;stroke:none"
           d="m 0,0 -0.418,4.329 0.334,0.335 C 0.168,4.852 0.418,4.831 0.711,4.706 L 1.339,4.455 C 1.59,4.35 1.715,4.224 1.715,3.974 L 2.008,0.753 C 2.008,0.481 1.924,0.251 1.59,0.209" />
      </g>
      <g
         transform="matrix(9.5818542,0,0,-9.5818542,-288.49565,895.30452)"
         id="g30449">
        <path
           id="path30451"
           style="fill:#000000;fill-opacity:1;fill-rule:nonzero;stroke:none"
           d="M 0,0 -0.418,4.329 -0.356,4.335 0.062,0.006 0,0 z m -0.418,4.329 -0.003,0.015 0.012,0.01 0.023,-0.022 -0.032,-0.003 z M -0.409,4.354 -0.075,4.689 -0.03,4.644 -0.365,4.31 -0.409,4.354 z m 0.334,0.335 0.003,0.003 0.02,-0.025 -0.023,0.022 z m 0.003,0.003 C 0.06,4.79 0.192,4.835 0.329,4.837 l 0,-0.063 C 0.207,4.771 0.086,4.731 -0.033,4.642 l -0.039,0.05 z M 0.329,4.837 C 0.464,4.84 0.605,4.802 0.755,4.738 L 0.73,4.679 C 0.588,4.74 0.455,4.776 0.329,4.774 l 0,0.063 z M 0.73,4.679 0.743,4.709 0.73,4.679 z M 0.755,4.738 1.381,4.487 1.358,4.428 0.73,4.679 0.755,4.738 z M 1.381,4.487 1.369,4.458 1.381,4.487 z m 0,0 C 1.511,4.433 1.61,4.372 1.677,4.292 L 1.627,4.252 C 1.569,4.323 1.479,4.378 1.358,4.428 L 1.381,4.487 z M 1.677,4.292 C 1.744,4.211 1.778,4.11 1.778,3.977 l -0.064,0 c 0,0.117 -0.028,0.205 -0.087,0.275 l 0.05,0.04 z m 0.037,-0.318 0,0.003 0.033,0 L 1.714,3.974 z M 1.778,3.979 2.071,0.759 2.007,0.753 1.714,3.974 1.778,3.979 z m 0.293,-3.22 0,-0.003 -0.032,0 0.032,0.003 z m 0,-0.003 C 2.071,0.615 2.049,0.483 1.981,0.381 L 1.928,0.415 c 0.06,0.091 0.079,0.211 0.079,0.341 l 0.064,0 z M 1.928,0.415 1.955,0.398 1.928,0.415 z M 1.981,0.381 C 1.915,0.276 1.803,0.203 1.625,0.181 L 1.617,0.244 C 1.773,0.263 1.872,0.326 1.928,0.415 L 1.981,0.381 z M 1.625,0.181 0.036,-0.028 0.028,0.034 1.617,0.244 1.625,0.181 z M 0.036,-0.028 0.002,-0.033 0,0 0.032,0.003" />
      </g>
      <g
         transform="matrix(9.5818542,0,0,-9.5818542,-230.47752,850.38478)"
         id="g30453">
        <path
           id="path30455"
           style="fill:#1f1a17;fill-opacity:1;fill-rule:evenodd;stroke:none"
           d="M 0,0 0,2.154 C 0.481,2.196 1.234,1.945 1.652,1.61 2.07,1.276 2.468,0.732 2.51,0" />
      </g>
      <path
         id="path30457"
         style="fill:#000000;fill-opacity:1;fill-rule:nonzero;stroke:none"
         d="m -230.17089,850.38478 -0.61325,0 0,-20.6403 0.61325,0 0,20.6403 z m -0.61325,0 z m 0,-20.63931 0,-0.27749 0.27749,-0.0307 0.0306,0.30663 -0.30662,0 z m 0.27749,-0.30662 c 2.32839,-0.20083 5.31793,0.30662 8.23081,1.25522 l -0.19161,0.57491 c -2.82665,-0.91985 -5.72995,-1.41811 -7.98169,-1.21689 l -0.0537,-0.61324 z m 8.23081,1.25522 c 2.92248,0.96777 5.78745,2.39547 7.81879,4.02438 l -0.38327,0.47909 c -1.98344,-1.59058 -4.77175,-2.98953 -7.62715,-3.92856 l 0.19161,-0.57491 z m 7.81879,4.02438 c 2.20383,1.76305 4.36934,4.13936 5.93117,7.081 l -0.53658,0.29665 c -1.52351,-2.86497 -3.62194,-5.18379 -5.77786,-6.89893 l 0.38327,-0.4791 z m 5.93117,7.081 c 1.30315,2.46252 2.21341,5.32751 2.39547,8.56617 l -0.60403,0.0384 c -0.18247,-3.14285 -1.0636,-5.92158 -2.3284,-8.30746 l 0.53659,-0.29665 z m 2.39547,8.56617 0.0159,0.32578 -0.31659,0 0,-0.30662 0.29741,-0.0159 z m -0.29741,0.32578 -24.05045,0 0,-0.61323 24.05045,0 0,0.61323 z m -24.05045,0 -0.30663,0 0,-0.30662 0.30663,0" />
      <g
         transform="matrix(9.5818542,0,0,-9.5818542,-354.92663,487.27083)"
         id="g30459">
        <path
           id="path30461"
           style="fill:#3373a6;fill-opacity:1;fill-rule:evenodd;stroke:none"
           d="m 0,0 16.627,0 c 1.276,0 2.321,-1.046 2.321,-2.342 l 0,-16.648 c 0,-1.276 -1.045,-2.321 -2.321,-2.321 l -16.627,0 c -1.297,0 -2.342,1.045 -2.342,2.321 l 0,16.648 C -2.342,-1.046 -1.297,0 0,0" />
      </g>
      <path
         id="path30463"
         style="fill:#ffffff;fill-opacity:1;fill-rule:nonzero;stroke:none"
         d="m -354.92663,486.9738 159.31748,0 0,0.60403 -159.31748,0 0,-0.60403 z m 159.31748,0 c 6.19946,0 11.85276,2.54878 15.94421,6.66898 l -0.43156,0.43078 c -3.97646,-4.01478 -9.47645,-6.49648 -15.51302,-6.49648 l 0,-0.60406 z m 15.94421,6.66898 c 4.07228,4.12018 6.6019,9.79264 6.6019,16.07833 l -0.61325,0 c 0,-6.11322 -2.46252,-11.64194 -6.41984,-15.64717 l 0.43158,-0.43078 z m 5.98865,16.07833 0.61325,0 0,159.51873 -0.61325,0 0,-159.51873 z m 0.61325,0 z m 0,159.51873 c 0,6.18986 -2.53919,11.83359 -6.63064,15.91545 l -0.43158,-0.43081 c 3.98605,-3.97646 6.4486,-9.45729 6.4486,-15.48427 l 0.61324,0 z m -6.63064,15.91545 c -4.08187,4.09145 -9.72558,6.63063 -15.91547,6.63063 l 0,-0.61322 c 6.02698,0 11.5174,-2.47212 15.48429,-6.4486 l 0.43156,0.43081 z m -15.91547,6.63063 -159.31748,0 0,-0.614 159.31748,0 0,0.614 z m -159.31748,0 c -6.28571,0 -11.95817,-2.52959 -16.07835,-6.61147 l 0.43156,-0.42159 c 4.00521,3.95729 9.53395,6.41984 15.64717,6.41984 l 0,0.61322 z m -16.07835,-6.61147 c -4.12021,-4.08186 -6.66898,-9.73516 -6.66898,-15.93461 l 0.61324,0 c 0,6.03657 2.48169,11.52696 6.48692,15.51302 l -0.43158,0.42159 z m -6.05574,-15.93461 -0.61324,0 0,-159.51873 0.61324,0 0,159.51873 z m -0.61324,0 z m 0,-159.51873 c 0,-6.29526 2.53918,-11.98688 6.64981,-16.09751 l 0.43157,0.4308 c -3.99565,3.99564 -6.46776,9.53395 -6.46776,15.66633 l -0.61325,0 z m 6.64981,-16.09751 c 4.11061,-4.11061 9.80224,-6.6498 16.09752,-6.6498 l 0,0.60403 c -6.12281,0 -11.67071,2.48171 -15.66633,6.47735" />
      <g
         transform="matrix(9.5818542,0,0,-9.5818542,-334.68976,667.42887)"
         id="g30465">
        <path
           id="path30467"
           style="fill:#ffffff;fill-opacity:1;fill-rule:evenodd;stroke:none"
           d="m 0,0 3.346,0 0,5.688 3.89,0 c 3.514,0 5.187,2.719 5.187,5.438 0,2.782 -2.656,5.145 -5.02,5.145 L 0,16.271 0,0 z m 3.367,8.428 0,4.978 2.74,0 c 2.301,0 3.032,-1.172 2.97,-2.531 0,-1.129 -0.649,-2.447 -2.552,-2.447" />
      </g>
      <path
         id="path30469"
         style="fill:#ffffff;fill-opacity:1;fill-rule:nonzero;stroke:none"
         d="m -334.68976,667.12224 32.06088,0 0,0.60328 -32.06088,0 0,-0.60328 z m 32.06088,0.30663 0.30663,0 0,0.29665 -0.30663,0 0,-0.29665 z m 0.30663,0 z m 0,0 -0.61325,0 0,-54.51218 0.61325,0 0,54.51218 z m -0.61325,0 z m 0.30662,-54.51118 -0.30662,0 0,-0.30662 0.30662,0 0,0.30662 z m -0.30662,0 z m 0.30662,-0.30662 37.27341,0 0,0.61324 -37.27341,0 0,-0.61324 z m 37.27341,0 c 15.49385,0 27.23164,-5.54789 35.35705,-14.06616 l 0.44075,0.42159 c -8.23081,8.63327 -20.12188,14.25781 -35.7978,14.25781 l 0,-0.61324 z m 35.35705,-14.06616 c 9.43813,-9.89806 14.0374,-23.8109 14.0374,-37.72377 l 0.61325,0 c 0,14.05659 -4.65678,28.13233 -14.2099,38.14536 l -0.44075,-0.42159 z m 14.0374,-37.72377 c 0,-12.79177 -5.89283,-24.64452 -14.52609,-33.49815 l 0.43158,-0.42161 c 8.73864,8.94946 14.70814,20.96509 14.70814,33.91976 l -0.61323,0 z m -14.52609,-33.49815 c -9.24647,-9.47647 -21.63582,-15.50345 -33.26819,-15.50345 l 0,-0.60327 c 11.79527,0 24.34749,6.09407 33.69938,15.68551 l -0.43157,0.42159 z m -33.26819,-15.50345 -70.93446,0 0,-0.60327 70.93446,0 0,0.60327 z m -70.93446,-0.29665 -0.30662,0 0,-0.30662 0.30662,0 0,0.30662 z m -0.30662,0 z m 0,0 0.61323,0 0,155.90635 -0.61323,0 0,-155.90635 z m 0.61323,0 z m -0.30661,156.20339 -0.30662,0 0,-0.29666 0.30662,0 0,0.29666 z m 32.56871,-81.05291 -0.60403,0 0,-47.69847 0.60403,0 0,47.69847 z m -0.60403,0 z m 0.29743,-47.69847 -0.29743,0 0,-0.30738 0.29743,0 0,0.30738 z m -0.29743,0 z m 0.29743,-0.30661 26.25426,0 0,0.61401 -26.25426,0 0,-0.61401 z m 26.25426,0 c 0.96777,0 1.89721,0.0307 2.79792,0.0691 l -0.0306,0.60403 c -0.90031,-0.0384 -1.82019,-0.0613 -2.76879,-0.0613 l 0,-0.61323 z m 2.79792,0.0691 c 9.6106,0.44075 16.10709,3.19076 20.19853,7.33012 l -0.43156,0.43156 c -3.98605,-4.03396 -10.3484,-6.72646 -19.7961,-7.15765 l 0.0306,-0.60403 z m 20.19853,7.33012 c 4.11063,4.13936 5.79703,9.66808 5.79703,15.65674 l -0.60326,0 c 0,-5.83535 -1.6385,-11.21077 -5.62455,-15.22556 l 0.43156,-0.43158 z m 5.79703,15.65674 c 0,0.50745 -0.008,1.01568 -0.0384,1.51394 l -0.60328,-0.0307 c 0.0159,-0.49825 0.0384,-0.99651 0.0384,-1.48518 l 0.60326,0 z m -0.64161,1.50435 0,-0.0231 0.30663,0.0231 -0.30663,0 z m 0.60328,0 c 0,6.09407 -1.94512,12.76303 -6.86061,17.4773 l -0.43156,-0.44076 c 4.78134,-4.5897 6.68814,-11.08621 6.68814,-17.03654 l 0.60328,0 z m -6.86061,17.4773 c -3.91898,3.74612 -9.70641,6.26615 -17.88931,6.26615 l 0,-0.60404 c 8.00084,0 13.65414,-2.45295 17.45812,-6.10364 l 0.43159,0.44077 z m -17.88931,6.26655 -30.25949,0 0,-0.60406 30.25949,0 0,0.60406 z m -30.25949,0 -0.29743,0 0,-0.29666 0.29743,0" />
      <g
         transform="matrix(9.5818542,0,0,-9.5818542,-71.361237,632.76171)"
         id="g30471">
        <path
           id="path30473"
           style="fill:#ffffff;fill-opacity:1;fill-rule:evenodd;stroke:none"
           d="m 0,0 0,2.97 2.76,0 0,4.203 -2.76,0 0,2.991 -4.329,0 0,-2.991 -2.761,0 0,-4.203 2.761,0 0,-2.97" />
      </g>
      <path
         id="path30475"
         style="fill:#ffffff;fill-opacity:1;fill-rule:nonzero;stroke:none"
         d="m -71.054613,632.76171 -0.614004,0 0,-28.4591 0.614004,0 0,28.4591 z m -0.613247,0 z m 0.306623,-28.4581 -0.306623,0 0,-0.2959 0.306623,0 0,0.2959 z m -0.306623,0 z m 0.306623,-0.29743 26.44592,0 0,0.60405 -26.44592,0 0,-0.60405 z m 26.44592,0.29743 0.306624,0 0,0.30738 -0.306624,0 0,-0.30738 z m 0.306624,0 z m 0,0 -0.613247,0 0,-40.27161 0.613247,0 0,40.27161 z m -0.613247,0 z m 0.306623,-40.57915 0.306624,0 0,0.3066 -0.306624,0 0,-0.3066 z m 0,0.60403 -26.44592,0 0,-0.60403 26.44592,0 0,0.60403 z m -26.44592,0 -0.306623,0 0,-0.2959 0.306623,0 0,0.2959 z m 0.306624,-0.29665 -0.614004,0 0,-28.65933 0.614004,0 0,28.65933 z m -0.613247,0 z m 0.306623,-28.96595 0.306624,0 0,0.30662 -0.306624,0 0,-0.30662 z m 0,0.61325 -41.489433,0 0,-0.61325 41.489433,0 0,0.61325 z m -41.489433,-0.30663 -0.29665,0 0,-0.30662 0.29665,0 0,0.30662 z m -0.29665,0 z m 0,0 0.60328,0 0,28.65933 -0.60328,0 0,-28.65933 z m 0.60328,0 z m -0.30663,28.65933 0.30663,0 0,0.29588 -0.30663,0 0,-0.29588 z m 0.30663,0 z m -0.30663,0.29665 -26.44592,0 0,-0.60403 26.44592,0 0,0.60403 z m -26.44592,-0.29665 -0.30662,0 0,-0.30663 0.30662,0 0,0.30663 z m -0.30662,0 z m 0,0 0.60405,0 0,40.27153 -0.60405,0 0,-40.27153 z m 0.60405,0 z m -0.29665,40.57915 -0.30663,0 0,-0.30738 0.30663,0 0,0.30738 z m 0,-0.60404 26.44592,0 0,0.60404 -26.44592,0 0,-0.60404 z m 26.44592,0 0.3066,0 0,0.29588 -0.3066,0 0,-0.29588 z m -0.29666,0.29741 0.60326,0 0,28.45904 -0.60326,0 0,-28.45904 z m 0.60326,0 z m -0.3066,28.76475 -0.29666,0 0,-0.30663 0.29666,0 0,0.30663 z m 0,-0.61325 41.489409,0 0,0.61325 -41.489409,0 0,-0.61325 z m 41.796033,0.30662 0,0.30663 -0.306624,0 0,-0.30663" />
      <path
         id="path30477"
         style="fill:#ffffff;fill-opacity:1;fill-rule:nonzero;stroke:none"
         d="m -139.10495,833.15662 94.180043,0 0,-13.82663 -94.180043,0 0,13.82663 z" />
      <path
         id="path30479"
         style="fill:#ffffff;fill-opacity:1;fill-rule:nonzero;stroke:none"
         d="m -139.10495,819.02338 94.180043,0 0,0.60404 -94.180043,0 0,-0.60404 z m 94.180043,0 0.306624,0 0,0.30661 -0.306624,0 0,-0.30661 z m -0.297411,0.30661 0.604035,0 0,13.82663 -0.604035,0 0,-13.82663 z m 0.604035,0 z m -0.306624,13.82663 0.306624,0 0,0.30662 -0.306624,0 0,-0.30662 z m 0.306624,0 z m -0.306624,0.30662 -94.180043,0 0,-0.61325 94.180043,0 0,0.61325 z m -94.180043,0 -0.30661,0 0,-0.30662 0.30661,0 0,0.30662 z m 0.30662,-0.30662 -0.61323,0 0,-13.82663 0.61323,0 0,13.82663 z m -0.61323,0 z m 0,-13.82663 0,-0.30661 0.30661,0 0,0.30661" />
      <path
         id="path30481"
         style="fill:#ffffff;fill-opacity:1;fill-rule:nonzero;stroke:none"
         d="m -139.10495,857.59993 94.180043,0 0,-13.82663 -94.180043,0 0,13.82663 z" />
      <path
         id="path30483"
         style="fill:#ffffff;fill-opacity:1;fill-rule:nonzero;stroke:none"
         d="m -139.10495,843.47627 94.180043,0 0,0.61323 -94.180043,0 0,-0.61323 z m 94.180043,0 0.306624,0 0,0.30662 -0.306624,0 0,-0.30662 z m -0.297411,0.30662 0.604035,0 0,13.82562 -0.604035,0 0,-13.82562 z m 0.604035,0 z m -0.306624,13.82661 0.306624,0 0,0.29819 -0.306624,0 0,-0.29819 z m 0.306624,0 z m -0.306624,0.29666 -94.180043,0 0,-0.60328 94.180043,0 0,0.60328 z m -94.180043,0 -0.30661,0 0,-0.29819 0.30661,0 0,0.29819 z m 0.30662,-0.29666 -0.61323,0 0,-13.82569 0.61323,0 0,13.82569 z m -0.61323,0 z m 0,-13.82661 0,-0.30662 0.30661,0 0,0.30662" />
      <path
         id="path30485"
         style="fill:#ffffff;fill-opacity:1;fill-rule:nonzero;stroke:none"
         d="m -139.10495,882.05281 94.180043,0 0,-13.8266 -94.180043,0 0,13.8266 z" />
      <path
         id="path30487"
         style="fill:#ffffff;fill-opacity:1;fill-rule:nonzero;stroke:none"
         d="m -139.10495,867.91958 94.180043,0 0,0.60404 -94.180043,0 0,-0.60404 z m 94.180043,0 0.306624,0 0,0.30663 -0.306624,0 0,-0.30663 z m -0.297411,0.30663 0.604035,0 0,13.82752 -0.604035,0 0,-13.82752 z m 0.604035,0 z m -0.306624,13.8266 0.306624,0 0,0.30663 -0.306624,0 0,-0.30663 z m 0.306624,0 z m -0.306624,0.30663 -94.180043,0 0,-0.61325 94.180043,0 0,0.61325 z m -94.180043,0 -0.30661,0 0,-0.30663 0.30661,0 0,0.30663 z m 0.30662,-0.30663 -0.61323,0 0,-13.82762 0.61323,0 0,13.82762 z m -0.61323,0 z m 0,-13.8266 0,-0.30663 0.30661,0 0,0.30663" />
      <path
         id="path30489"
         style="fill:#ffffff;fill-opacity:1;fill-rule:nonzero;stroke:none"
         d="m -139.10495,906.49613 94.180043,0 0,-13.82663 -94.180043,0 0,13.82663 z" />
      <path
         id="path30491"
         style="fill:#ffffff;fill-opacity:1;fill-rule:nonzero;stroke:none"
         d="m -139.10495,892.37247 94.180043,0 0,0.61325 -94.180043,0 0,-0.61325 z m 94.180043,0 0.306624,0 0,0.30662 -0.306624,0 0,-0.30662 z m -0.297411,0.30662 0.604035,0 0,13.82754 -0.604035,0 0,-13.82754 z m 0.604035,0 z m -0.306624,13.82661 0.306624,0 0,0.30662 -0.306624,0 0,-0.30662 z m 0.306624,0 z m -0.306624,0.30662 -94.180043,0 0,-0.61322 94.180043,0 0,0.61322 z m -94.180043,0 -0.30661,0 0,-0.30662 0.30661,0 0,0.30662 z m 0.30662,-0.30662 -0.61323,0 0,-13.8276 0.61323,0 0,13.8276 z m -0.61323,0 z m 0,-13.82661 0,-0.30662 0.30661,0 0,0.30662" />
      <path
         id="path30493"
         style="fill:#ffffff;fill-opacity:1;fill-rule:nonzero;stroke:none"
         d="m -139.10495,930.94901 94.180043,0 0,-13.8266 -94.180043,0 0,13.8266 z" />
      <path
         id="path30495"
         style="fill:#ffffff;fill-opacity:1;fill-rule:nonzero;stroke:none"
         d="m -139.10495,916.81578 94.180043,0 0,0.60404 -94.180043,0 0,-0.60404 z m 94.180043,0 0.306624,0 0,0.30738 -0.306624,0 0,-0.30738 z m -0.297411,0.30663 0.604035,0 0,13.8266 -0.604035,0 0,-13.8266 z m 0.604035,0 z m -0.306624,13.8266 0.306624,0 0,0.30663 -0.306624,0 0,-0.30663 z m 0.306624,0 z m -0.306624,0.30663 -94.180043,0 0,-0.61325 94.180043,0 0,0.61325 z m -94.180043,0 -0.30661,0 0,-0.30663 0.30661,0 0,0.30663 z m 0.30662,-0.30663 -0.61323,0 0,-13.8266 0.61323,0 0,13.8266 z m -0.61323,0 z m 0,-13.8266 0,-0.30663 0.30661,0 0,0.30663" />
      <path
         id="path30497"
         style="fill:#ffffff;fill-opacity:1;fill-rule:nonzero;stroke:none"
         d="m -139.10495,955.39233 94.180043,0 0,-13.82663 -94.180043,0 0,13.82663 z" />
      <path
         id="path30499"
         style="fill:#ffffff;fill-opacity:1;fill-rule:nonzero;stroke:none"
         d="m -139.10495,941.26867 94.180043,0 0,0.60405 -94.180043,0 0,-0.60405 z m 94.180043,0 0.306624,0 0,0.30662 -0.306624,0 0,-0.30662 z m -0.297411,0.30662 0.604035,0 0,13.82661 -0.604035,0 0,-13.82661 z m 0.604035,0 z m -0.306624,13.82661 0.306624,0 0,0.30662 -0.306624,0 0,-0.30662 z m 0.306624,0 z m -0.306624,0.30662 -94.180043,0 0,-0.61323 94.180043,0 0,0.61323 z m -94.180043,0 -0.30661,0 0,-0.30662 0.30661,0 0,0.30662 z m 0.30662,-0.30662 -0.61323,0 0,-13.82661 0.61323,0 0,13.82661 z m -0.61323,0 z m 0,-13.82661 0,-0.30662 0.30661,0 0,0.30662" />
      <path
         id="path30501"
         style="fill:#ffffff;fill-opacity:1;fill-rule:nonzero;stroke:none"
         d="m -139.10495,979.84521 94.180043,0 0,-13.8266 -94.180043,0 0,13.8266 z" />
      <path
         id="path30503"
         style="fill:#ffffff;fill-opacity:1;fill-rule:nonzero;stroke:none"
         d="m -139.10495,965.71198 94.180043,0 0,0.60404 -94.180043,0 0,-0.60404 z m 94.180043,0 0.306624,0 0,0.30663 -0.306624,0 0,-0.30663 z m -0.297411,0.30663 0.604035,0 0,13.82561 -0.604035,0 0,-13.82561 z m 0.604035,0 z m -0.306624,13.8266 0.306624,0 0,0.30663 -0.306624,0 0,-0.30663 z m 0.306624,0 z m -0.306624,0.30663 -94.180043,0 0,-0.61323 94.180043,0 0,0.61323 z m -94.180043,0 -0.30661,0 0,-0.30663 0.30661,0 0,0.30663 z m 0.30662,-0.30663 -0.61323,0 0,-13.82569 0.61323,0 0,13.82569 z m -0.61323,0 z m 0,-13.8266 0,-0.30663 0.30661,0 0,0.30663" />
      <path
         id="path30505"
         style="fill:#ffffff;fill-opacity:1;fill-rule:nonzero;stroke:none"
         d="m -139.10495,1004.2981 94.180043,0 0,-13.82661 -94.180043,0 0,13.82661 z" />
      <path
         id="path30507"
         style="fill:#ffffff;fill-opacity:1;fill-rule:nonzero;stroke:none"
         d="m -139.10495,990.16487 94.180043,0 0,0.60405 -94.180043,0 0,-0.60405 z m 94.180043,0 0.306624,0 0,0.30662 -0.306624,0 0,-0.30662 z m -0.297411,0.30662 0.604035,0 0,13.81701 -0.604035,0 0,-13.81701 z m 0.604035,0 z m -0.306624,13.81701 0.306624,0 0,0.3067 -0.306624,0 0,-0.3067 z m 0.306624,0 z m -0.306624,0.3067 -94.180043,0 0,-0.6041 94.180043,0 0,0.6041 z m -94.180043,0 -0.30661,0 0,-0.3067 0.30661,0 0,0.3067 z m 0.30662,-0.3067 -0.61323,0 0,-13.81701 0.61323,0 0,13.81701 z m -0.61323,0 z m 0,-13.81701 0,-0.30662 0.30661,0 0,0.30662" />
    </g>
  </g>
</svg>
