<?xml version="1.0" encoding="UTF-8" standalone="no"?>
<svg
   xmlns:dc="http://purl.org/dc/elements/1.1/"
   xmlns:cc="http://creativecommons.org/ns#"
   xmlns:rdf="http://www.w3.org/1999/02/22-rdf-syntax-ns#"
   xmlns:svg="http://www.w3.org/2000/svg"
   xmlns="http://www.w3.org/2000/svg"
   xmlns:sodipodi="http://sodipodi.sourceforge.net/DTD/sodipodi-0.dtd"
   xmlns:inkscape="http://www.inkscape.org/namespaces/inkscape"
   version="1.1"
   width="400"
   height="600"
   id="svg3759"
   inkscape:version="1.0.1 (3bc2e813f5, 2020-09-07)"
   sodipodi:docname="Italian_traffic_signs_-_passo_carrabile.svg">
  <metadata
     id="metadata2892">
    <rdf:RDF>
      <cc:Work
         rdf:about="">
        <dc:format>image/svg+xml</dc:format>
        <dc:type
           rdf:resource="http://purl.org/dc/dcmitype/StillImage" />
        <dc:title />
      </cc:Work>
    </rdf:RDF>
  </metadata>
  <sodipodi:namedview
     pagecolor="#ffffff"
     bordercolor="#666666"
     borderopacity="1"
     objecttolerance="10"
     gridtolerance="10"
     guidetolerance="10"
     inkscape:pageopacity="0"
     inkscape:pageshadow="2"
     inkscape:window-width="1920"
     inkscape:window-height="1017"
     id="namedview2890"
     showgrid="false"
     inkscape:zoom="1.7866231"
     inkscape:cx="205.78638"
     inkscape:cy="364.38939"
     inkscape:window-x="-8"
     inkscape:window-y="-8"
     inkscape:window-maximized="1"
     inkscape:current-layer="svg3759"
     inkscape:showpageshadow="false"
     inkscape:document-rotation="0"
     showguides="true"
     inkscape:guide-bbox="true">
    <sodipodi:guide
       position="212.92876,501.05541"
       orientation="0,-1"
       id="guide855" />
    <sodipodi:guide
       position="260.42216,220.05277"
       orientation="0,-1"
       id="guide857" />
  </sodipodi:namedview>
  <defs
     id="defs3763" />
  <rect
     style="fill:#ffffff;fill-opacity:1;stroke:#000000;stroke-width:3;stroke-miterlimit:4;stroke-dasharray:none"
     id="rect2842"
     width="397"
     height="597"
     x="1.5"
     y="1.5"
     rx="0"
     ry="0" />
  <rect
     style="fill:none;stroke:#000000;stroke-width:7.99999952;stroke-miterlimit:4;stroke-dasharray:none"
     id="rect3732"
     width="376"
     height="576"
     x="12"
     y="12"
     rx="30"
     ry="30" />
  <g
     style="font-style:normal;font-variant:normal;font-weight:normal;font-stretch:normal;font-size:25.2943px;line-height:100%;font-family:'Transport Heavy';-inkscape-font-specification:'Transport Heavy,';text-align:center;writing-mode:lr-tb;text-anchor:middle;fill:#000000;fill-opacity:1;stroke:none"
     id="text3059"
     transform="matrix(2.0279979,0,0,2.0279979,-6.3977102,-8.2515929)">
    <path
       d="m 73.540012,206.29915 c 4.767372,0.0412 7.00697,2.79128 6.718802,8.25029 -0.271731,2.89008 -1.589142,4.81679 -3.952237,5.78015 -2.165505,0.67517 -4.059283,0.39522 -5.68134,-0.83985 v 4.89089 H 69.785387 69.587775 69.34076 68.698522 68.50091 67.66106 67.512851 66.920015 v -0.39522 -0.39523 -0.39522 -0.39522 -0.34583 -0.39522 -0.34582 -0.14821 -0.24701 -0.14821 -0.19761 -0.14821 -0.98806 -0.19761 -0.88926 -0.29641 -0.34583 -0.98805 -0.39523 -0.39522 -0.39523 -0.39522 -0.98806 -0.14821 -0.14821 -1.53149 -0.34582 -0.29642 -0.34582 -0.29641 -0.24702 -0.29642 -0.19761 -0.88925 -0.54343 -0.19762 -0.19761 -0.19761 -0.19761 -0.83985 -0.14821 -0.59284 h 0.839851 0.197612 0.247014 0.642239 0.197612 0.83985 0.395223 0.345821 v 0.54344 c 0.955118,-0.63399 1.926708,-1.01275 2.914775,-1.13627 z m -0.543433,3.31 c -1.004533,0.30466 -1.745577,0.86456 -2.223133,1.6797 v 0.14821 l -0.09881,0.39522 -0.09881,0.34582 v 2.81597 c 0.403452,1.39976 1.276237,2.1902 2.618357,2.37134 1.515015,0.10705 2.503073,-0.48579 2.964177,-1.77851 0.461083,-1.3915 0.477551,-2.70891 0.0494,-3.95223 -0.436403,-1.49855 -1.506799,-2.17372 -3.211192,-2.02552 z"
       id="path3870"
       style="fill:#000000" />
    <path
       d="m 87.669257,206.29915 c 2.25606,-0.14819 4.13337,0.41171 5.631937,1.6797 l 0.0494,0.0988 c 0.131729,0.1647 0.230535,0.32937 0.296417,0.49403 0.172898,0.25527 0.288172,0.48581 0.345821,0.69165 v 0.19761 c 0.09879,0.32113 0.148196,0.60108 0.148209,0.83985 v 4.84149 c -0.03295,0.81515 -1.3e-5,1.49033 0.09881,2.02552 0.403444,0.41993 0.864538,0.68341 1.383283,0.79045 l -0.09881,0.1482 -0.09881,0.24702 -0.09881,0.19761 -0.0494,0.14821 -0.0494,0.14821 -0.09881,0.14821 -0.197612,0.49403 -0.09881,0.14821 -0.0494,0.14821 -0.0494,0.1482 -0.0494,0.0988 -0.34582,0.74104 c -1.465633,0.008 -2.568964,-0.45285 -3.309998,-1.38328 -1.407993,1.39975 -3.153562,1.74557 -5.236714,1.03746 -1.918484,-0.52696 -3.038283,-1.69616 -3.359401,-3.50761 0.01647,-2.65951 1.268007,-4.20747 3.754625,-4.64387 0.131736,-0.0823 0.263477,-0.13173 0.395224,-0.14821 h 0.148209 c 0.0494,-0.0329 0.0988,-0.0494 0.148208,-0.0494 l 0.148209,-0.0494 0.889253,-0.14821 0.395224,-0.0494 0.148209,-0.0494 0.83985,-0.0494 c 0.444619,-0.0659 0.806906,-0.0823 1.086865,-0.0494 0.123499,-1.83613 -0.881027,-2.4619 -3.01358,-1.87731 l -0.148209,0.0494 -0.395224,0.0494 -0.34582,0.14821 -0.148209,0.0494 -0.49403,0.1482 c -0.255252,0.17293 -0.485799,0.2882 -0.691641,0.34583 -0.279954,0.21409 -0.559903,0.3623 -0.83985,0.44462 l -0.345821,-0.64224 -0.09881,-0.0494 -0.0494,-0.14821 -0.09881,-0.0988 -0.0494,-0.14821 c -0.214081,-0.247 -0.36229,-0.47755 -0.444626,-0.69164 -0.131743,-0.1235 -0.214081,-0.25524 -0.247015,-0.39523 -0.214081,-0.20583 -0.345822,-0.41991 -0.395224,-0.64224 l 0.09881,-0.0494 0.148209,-0.0988 0.09881,-0.0494 c 0.222311,-0.14819 0.419923,-0.26347 0.592835,-0.34582 0.131739,-0.0906 0.26348,-0.13996 0.395224,-0.14821 l 0.09881,-0.0988 c 0.304649,-0.13996 0.568131,-0.23877 0.790447,-0.29642 l 0.09881,-0.0988 h 0.148209 c 0.156439,-0.0988 0.28818,-0.16466 0.395224,-0.19761 h 0.148209 c 0.222308,-0.11526 0.436388,-0.18113 0.642238,-0.19761 0.452855,-0.18936 0.881014,-0.28817 1.284477,-0.29642 l 0.148209,-0.0494 z m 2.371342,8.15149 H 89.89239 c -0.19762,0.0576 -0.362297,0.0906 -0.49403,0.0988 h -0.148209 c -0.04941,0.0329 -0.09881,0.0494 -0.148209,0.0494 l -0.197611,0.0494 h -0.148209 l -0.197612,0.0494 -0.296418,0.0494 c -0.04941,0.0329 -0.09881,0.0494 -0.148209,0.0494 l -0.197612,0.0494 -0.148208,0.0494 c -0.461101,0.11528 -0.823389,0.23056 -1.086865,0.34582 -0.345826,0.4611 -0.444632,0.93867 -0.296418,1.43269 0.823377,1.15274 2.009046,1.35035 3.557013,0.59283 l 0.395223,-0.59283 0.0494,-0.19761 v -0.19761 -0.14821 -0.24702 -0.14821 -0.19761 -0.14821 -0.98806 h -0.148209 z"
       id="path3872"
       style="fill:#000000" />
    <path
       d="m 102.34193,206.44736 c 2.51955,-0.14819 4.61094,0.52698 6.27418,2.02552 l -0.14821,0.14821 -0.14821,0.14821 c -0.10705,0.14822 -0.20586,0.26349 -0.29642,0.34582 l -0.19761,0.19761 -0.14821,0.14821 c -0.14822,0.19762 -0.29643,0.34583 -0.44462,0.44462 l -0.0494,0.0988 -0.0988,0.14821 -0.0988,0.0494 -0.64224,0.74105 c -2.14903,-1.78673 -3.81226,-1.96787 -4.9897,-0.54344 -0.008,0.37877 0.0741,0.70812 0.24702,0.98806 l 0.19761,0.0494 0.14821,0.0988 h 0.14821 l 0.14821,0.0494 0.39522,0.0494 0.79045,0.19761 c 1.8032,0.0165 3.26882,0.57638 4.39686,1.6797 0.94688,1.40799 1.14449,2.82421 0.59284,4.24865 -0.54345,1.23508 -1.3833,2.05846 -2.51955,2.47015 -3.697,1.0457 -6.792913,0.38699 -9.287759,-1.97612 0.156442,-0.20584 0.304651,-0.37051 0.444626,-0.49403 l 0.197612,-0.0988 c 0.205845,-0.27995 0.436392,-0.49403 0.691642,-0.64224 l 0.148208,-0.19761 0.09881,-0.0988 0.09881,-0.0988 0.09881,-0.0988 0.09881,-0.0494 0.09881,-0.0494 c 0.238778,-0.30464 0.469325,-0.53519 0.691641,-0.69164 1.64676,1.62207 3.30999,2.18197 4.9897,1.6797 l 0.0494,-0.0988 c 0.23054,-0.14821 0.41168,-0.32935 0.54343,-0.54343 0.0329,-0.50226 -0.13175,-0.88102 -0.49403,-1.13627 h -0.1482 l -0.0988,-0.0988 h -0.14821 l -0.14821,-0.0494 -0.0988,-0.0988 c -0.50227,-0.0823 -0.91396,-0.18113 -1.23508,-0.29642 -2.906541,-0.13173 -4.536837,-1.4162 -4.89089,-3.85343 0.04117,-2.93122 1.622061,-4.52858 4.74268,-4.79208 z"
       id="path3874"
       style="fill:#000000" />
    <path
       d="m 115.73014,206.44736 c 2.51954,-0.14819 4.61093,0.52698 6.27417,2.02552 l -0.14821,0.14821 -0.14821,0.14821 c -0.10705,0.14822 -0.20585,0.26349 -0.29641,0.34582 l -0.19762,0.19761 -0.1482,0.14821 c -0.14822,0.19762 -0.29643,0.34583 -0.44463,0.44462 l -0.0494,0.0988 -0.0988,0.14821 -0.0988,0.0494 -0.64223,0.74105 c -2.14904,-1.78673 -3.81227,-1.96787 -4.9897,-0.54344 -0.008,0.37877 0.0741,0.70812 0.24701,0.98806 l 0.19761,0.0494 0.14821,0.0988 h 0.14821 l 0.14821,0.0494 0.39522,0.0494 0.79045,0.19761 c 1.8032,0.0165 3.26882,0.57638 4.39686,1.6797 0.94688,1.40799 1.14449,2.82421 0.59284,4.24865 -0.54344,1.23508 -1.38329,2.05846 -2.51955,2.47015 -3.69699,1.0457 -6.79291,0.38699 -9.28776,-1.97612 0.15645,-0.20584 0.30465,-0.37051 0.44463,-0.49403 l 0.19761,-0.0988 c 0.20585,-0.27995 0.43639,-0.49403 0.69164,-0.64224 l 0.14821,-0.19761 0.0988,-0.0988 0.0988,-0.0988 0.0988,-0.0988 0.0988,-0.0494 0.0988,-0.0494 c 0.23878,-0.30464 0.46933,-0.53519 0.69164,-0.69164 1.64676,1.62207 3.30999,2.18197 4.9897,1.6797 l 0.0494,-0.0988 c 0.23054,-0.14821 0.41169,-0.32935 0.54344,-0.54343 0.0329,-0.50226 -0.13175,-0.88102 -0.49403,-1.13627 h -0.14821 l -0.0988,-0.0988 h -0.14821 l -0.1482,-0.0494 -0.0988,-0.0988 c -0.50227,-0.0823 -0.91396,-0.18113 -1.23507,-0.29642 -2.90655,-0.13173 -4.53684,-1.4162 -4.8909,-3.85343 0.0412,-2.93122 1.62206,-4.52858 4.74269,-4.79208 z"
       id="path3876"
       style="fill:#000000" />
    <path
       d="m 129.85938,206.29915 c 3.24412,-0.0247 5.41784,1.32566 6.52119,4.05104 0.11526,0.14822 0.1976,0.29643 0.24701,0.44463 0.7081,2.86538 0.36228,5.38493 -1.03746,7.55865 -1.96789,2.2643 -4.3063,3.00535 -7.01522,2.22313 -2.8489,-0.97159 -4.39686,-2.9971 -4.64388,-6.07656 -0.24701,-4.70974 1.72911,-7.44336 5.92836,-8.20089 z m 0.19761,3.31 c -1.79498,0.77399 -2.58542,2.15727 -2.37134,4.14984 -0.0494,2.11611 0.82338,3.36765 2.61836,3.75463 2.15725,-0.1482 3.12884,-1.7291 2.91477,-4.74268 -0.25526,-2.08315 -1.30919,-3.13708 -3.16179,-3.16179 z"
       id="path3878"
       style="fill:#000000" />
    <path
       d="m 51.876815,231.59346 c 3.408794,-0.0329 5.66486,1.44917 6.768205,4.44627 l -0.197612,0.0988 c -0.214092,0.0494 -0.395236,0.11529 -0.543432,0.19762 l -0.197612,0.0494 -0.197612,0.0494 c -0.181156,0.0988 -0.3623,0.16469 -0.543432,0.19761 -0.04941,0.0329 -0.09882,0.0494 -0.148209,0.0494 -0.131753,0.0823 -0.263494,0.13175 -0.395224,0.14821 l -0.34582,0.1482 c -0.362299,0.15646 -0.675184,0.25526 -0.938657,0.29642 -0.502272,-1.57265 -1.506798,-2.36309 -3.01358,-2.37134 -1.622069,0.68342 -2.412515,1.85262 -2.371342,3.50761 -0.172915,1.4574 0.172906,2.676 1.037462,3.65582 0.839844,0.78222 1.729096,0.96336 2.66776,0.54343 0.897478,-0.50226 1.457377,-1.21036 1.6797,-2.12433 h 0.148209 l 0.197612,0.0988 0.345821,0.0988 0.09881,0.0988 c 0.337575,0.0741 0.617525,0.17292 0.83985,0.29642 l 0.148209,0.0494 0.197612,0.0494 0.148209,0.0494 c 0.123495,0.0741 0.255236,0.12351 0.395223,0.14821 l 0.148209,0.0494 0.09881,0.0988 c 0.296405,0.0659 0.543419,0.14821 0.741044,0.24701 -1.366827,3.20296 -3.672296,4.65211 -6.916414,4.34746 -3.52408,-0.65047 -5.434326,-2.77479 -5.730742,-6.37298 -0.21408,-4.6521 1.745568,-7.36926 5.878951,-8.15149 z"
       id="path3880"
       style="fill:#000000" />
    <path
       d="m 65.709643,231.59346 c 2.25606,-0.14819 4.133371,0.41171 5.631937,1.6797 l 0.0494,0.0988 c 0.131729,0.16469 0.230535,0.32937 0.296418,0.49403 0.172898,0.25526 0.288171,0.48581 0.345821,0.69164 v 0.19761 c 0.09879,0.32113 0.148196,0.60108 0.148209,0.83985 v 4.84149 c -0.03295,0.81516 -1.3e-5,1.49033 0.09881,2.02552 0.403444,0.41993 0.864538,0.68341 1.383282,0.79045 l -0.09881,0.14821 -0.09881,0.24701 -0.0988,0.19761 -0.0494,0.14821 -0.0494,0.14821 -0.09881,0.14821 -0.197612,0.49403 -0.09881,0.14821 -0.0494,0.14821 -0.0494,0.14821 -0.0494,0.0988 -0.345821,0.74105 c -1.465632,0.008 -2.568964,-0.45286 -3.309998,-1.38328 -1.407992,1.39975 -3.153561,1.74557 -5.236713,1.03746 -1.918484,-0.52696 -3.038283,-1.69617 -3.359401,-3.50761 0.01647,-2.65952 1.268007,-4.20748 3.754625,-4.64388 0.131736,-0.0823 0.263477,-0.13173 0.395223,-0.14821 h 0.148209 c 0.0494,-0.0329 0.0988,-0.0494 0.148209,-0.0494 l 0.148209,-0.0494 0.889253,-0.1482 0.395224,-0.0494 0.148209,-0.0494 0.83985,-0.0494 c 0.444618,-0.0659 0.806906,-0.0823 1.086865,-0.0494 0.123498,-1.83613 -0.881028,-2.4619 -3.01358,-1.87731 l -0.148209,0.0494 -0.395224,0.0494 -0.345821,0.14821 -0.148208,0.0494 -0.49403,0.14821 c -0.255253,0.17292 -0.4858,0.28819 -0.691641,0.34582 -0.279954,0.21409 -0.559904,0.3623 -0.839851,0.44463 l -0.34582,-0.64224 -0.09881,-0.0494 -0.0494,-0.1482 -0.09881,-0.0988 -0.0494,-0.14821 c -0.214082,-0.247 -0.36229,-0.47755 -0.444627,-0.69164 -0.131743,-0.12349 -0.214081,-0.25524 -0.247014,-0.39522 -0.214081,-0.20584 -0.345822,-0.41992 -0.395224,-0.64224 l 0.09881,-0.0494 0.148209,-0.0988 0.09881,-0.0494 c 0.222311,-0.1482 0.419923,-0.26347 0.592835,-0.34583 0.131739,-0.0906 0.26348,-0.13995 0.395224,-0.1482 l 0.09881,-0.0988 c 0.304648,-0.13996 0.56813,-0.23877 0.790447,-0.29642 l 0.09881,-0.0988 h 0.148209 c 0.156439,-0.0988 0.28818,-0.16466 0.395223,-0.19762 h 0.148209 c 0.222309,-0.11525 0.436388,-0.18112 0.642239,-0.19761 0.452855,-0.18936 0.881013,-0.28816 1.284476,-0.29642 l 0.148209,-0.0494 z m 2.371342,8.15149 h -0.148209 c -0.19762,0.0576 -0.362296,0.0906 -0.494029,0.0988 h -0.148209 c -0.04941,0.0329 -0.09881,0.0494 -0.148209,0.0494 l -0.197612,0.0494 h -0.148209 l -0.197611,0.0494 -0.296418,0.0494 c -0.04941,0.0329 -0.09881,0.0494 -0.148209,0.0494 l -0.197612,0.0494 -0.148209,0.0494 c -0.4611,0.11528 -0.823388,0.23055 -1.086865,0.34582 -0.345825,0.4611 -0.444631,0.93866 -0.296417,1.43268 0.823376,1.15274 2.009046,1.35036 3.557012,0.59284 l 0.395224,-0.59284 0.0494,-0.19761 v -0.19761 -0.14821 -0.24701 -0.14821 -0.19762 -0.1482 -0.98806 h -0.148209 z"
       id="path3882"
       style="fill:#000000" />
    <path
       d="m 82.951275,231.93928 h 0.148209 0.988059 v 3.55702 c -1.902022,-0.24701 -3.268835,0.3623 -4.100445,1.8279 v 0.14821 c -0.148215,0.387 -0.214085,0.76576 -0.197612,1.13627 v 7.01522 h -0.83985 -0.197612 -0.247015 -0.642238 -0.197612 -0.83985 -0.148209 -0.592836 v -0.14821 -0.24701 -0.14821 -0.19761 -0.14821 -0.98806 -0.34582 -0.98806 -0.39522 -0.39523 -0.39522 -0.39523 -0.98805 -0.14821 -0.14821 -1.53149 -0.34582 -0.29642 -0.34582 -0.29642 -0.24702 -0.29641 -0.19762 -0.88925 -0.54343 -0.19761 -0.19761 -0.19762 -0.19761 -0.83985 -0.14821 -0.59283 h 0.83985 0.197612 0.247015 0.642238 0.197612 0.839851 0.148208 0.592836 v 1.28447 c 0.872779,-0.881 1.860837,-1.3915 2.964177,-1.53149 z"
       id="path3884"
       style="fill:#000000" />
    <path
       d="m 94.313954,231.93928 h 0.148208 0.98806 v 3.55702 c -1.902022,-0.24701 -3.268836,0.3623 -4.100446,1.8279 v 0.14821 c -0.148214,0.387 -0.214085,0.76576 -0.197612,1.13627 v 7.01522 h -0.83985 -0.197612 -0.247014 -0.642239 -0.197612 -0.83985 -0.148209 -0.592835 v -0.14821 -0.24701 -0.14821 -0.19761 -0.14821 -0.98806 -0.34582 -0.98806 -0.39522 -0.39523 -0.39522 -0.39523 -0.98805 -0.14821 -0.14821 -1.53149 -0.34582 -0.29642 -0.34582 -0.29642 -0.24702 -0.29641 -0.19762 -0.88925 -0.54343 -0.19761 -0.19761 -0.19762 -0.19761 -0.83985 -0.14821 -0.59283 h 0.83985 0.197612 0.247015 0.642238 0.197612 0.83985 0.148209 0.592835 v 1.28447 c 0.87278,-0.881 1.860838,-1.3915 2.964178,-1.53149 z"
       id="path3886"
       style="fill:#000000" />
    <path
       d="m 103.30529,231.59346 c 2.25606,-0.14819 4.13337,0.41171 5.63194,1.6797 l 0.0494,0.0988 c 0.13173,0.16469 0.23054,0.32937 0.29642,0.49403 0.1729,0.25526 0.28817,0.48581 0.34582,0.69164 v 0.19761 c 0.0988,0.32113 0.1482,0.60108 0.14821,0.83985 v 4.84149 c -0.0329,0.81516 -1e-5,1.49033 0.0988,2.02552 0.40344,0.41993 0.86454,0.68341 1.38328,0.79045 l -0.0988,0.14821 -0.0988,0.24701 -0.0988,0.19761 -0.0494,0.14821 -0.0494,0.14821 -0.0988,0.14821 -0.19761,0.49403 -0.0988,0.14821 -0.0494,0.14821 -0.0494,0.14821 -0.0494,0.0988 -0.34582,0.74105 c -1.46563,0.008 -2.56896,-0.45286 -3.30999,-1.38328 -1.408,1.39975 -3.15357,1.74557 -5.23672,1.03746 -1.918482,-0.52696 -3.038281,-1.69617 -3.359399,-3.50761 0.01647,-2.65952 1.268007,-4.20748 3.754629,-4.64388 0.13173,-0.0823 0.26347,-0.13173 0.39522,-0.14821 h 0.14821 c 0.0494,-0.0329 0.0988,-0.0494 0.14821,-0.0494 l 0.14821,-0.0494 0.88925,-0.1482 0.39522,-0.0494 0.14821,-0.0494 0.83985,-0.0494 c 0.44462,-0.0659 0.80691,-0.0823 1.08687,-0.0494 0.12349,-1.83613 -0.88103,-2.4619 -3.01358,-1.87731 l -0.14821,0.0494 -0.39523,0.0494 -0.34582,0.14821 -0.14821,0.0494 -0.49403,0.14821 c -0.25525,0.17292 -0.48579,0.28819 -0.69164,0.34582 -0.27995,0.21409 -0.5599,0.3623 -0.839847,0.44463 l -0.345821,-0.64224 -0.09881,-0.0494 -0.0494,-0.1482 -0.0988,-0.0988 -0.0494,-0.14821 c -0.214082,-0.247 -0.362291,-0.47755 -0.444627,-0.69164 -0.131743,-0.12349 -0.214081,-0.25524 -0.247015,-0.39522 -0.214081,-0.20584 -0.345822,-0.41992 -0.395223,-0.64224 l 0.0988,-0.0494 0.148209,-0.0988 0.09881,-0.0494 c 0.222312,-0.1482 0.419923,-0.26347 0.592836,-0.34583 0.131739,-0.0906 0.26348,-0.13995 0.395223,-0.1482 l 0.09881,-0.0988 c 0.304649,-0.13996 0.568135,-0.23877 0.790445,-0.29642 l 0.0988,-0.0988 h 0.14821 c 0.15644,-0.0988 0.28818,-0.16466 0.39522,-0.19762 h 0.14821 c 0.22231,-0.11525 0.43639,-0.18112 0.64224,-0.19761 0.45285,-0.18936 0.88101,-0.28816 1.28448,-0.29642 l 0.1482,-0.0494 z m 2.37135,8.15149 h -0.14821 c -0.19762,0.0576 -0.3623,0.0906 -0.49403,0.0988 h -0.14821 c -0.0494,0.0329 -0.0988,0.0494 -0.14821,0.0494 l -0.19761,0.0494 h -0.14821 l -0.19761,0.0494 -0.29642,0.0494 c -0.0494,0.0329 -0.0988,0.0494 -0.14821,0.0494 l -0.19761,0.0494 -0.14821,0.0494 c -0.4611,0.11528 -0.82339,0.23055 -1.08687,0.34582 -0.34582,0.4611 -0.44463,0.93866 -0.29641,1.43268 0.82337,1.15274 2.00904,1.35036 3.55701,0.59284 l 0.39522,-0.59284 0.0494,-0.19761 v -0.19761 -0.14821 -0.24701 -0.14821 -0.19762 -0.1482 -0.98806 h -0.14821 z"
       id="path3888"
       style="fill:#000000" />
    <path
       d="m 114.56916,226.80138 h 0.19762 0.24701 0.64224 0.19761 0.83985 0.39522 0.34582 v 5.87895 c 2.59365,-1.49031 4.99793,-1.44091 7.21284,0.14821 0.23053,0.11528 0.39521,0.23056 0.49403,0.34582 l 0.54343,0.59283 c 1.54794,2.82422 1.82789,5.62371 0.83985,8.3985 -0.8728,2.19021 -2.37136,3.44175 -4.49567,3.75463 -1.79498,0.28819 -3.31001,-0.0906 -4.54507,-1.13627 -0.0659,0.30466 -0.0824,0.58461 -0.0494,0.83985 h -0.83985 -0.19761 -0.24701 -0.64224 -0.19761 -0.83985 -0.14821 -0.59284 v -0.39522 -0.98806 -0.39523 -0.1482 -0.19762 -0.88925 -0.14821 -0.98806 -0.39522 -0.19761 -0.88926 -0.1482 -0.14821 -1.5315 -0.34582 -0.1482 -0.19762 -0.88925 -0.69164 -0.14821 -0.24701 -0.14821 -0.19762 -0.1482 -0.98806 -0.83985 -0.14821 -0.59284 -0.64224 -0.19761 -0.83985 -0.14821 -0.59283 -0.54344 -0.24701 -0.64224 -0.19761 -0.83985 -0.14821 -0.59283 z m 5.28612,8.10208 c -1.00453,0.27996 -1.74558,0.8234 -2.22313,1.6303 l -0.19762,0.83985 v 3.06298 c 0.6093,1.62207 1.71263,2.36311 3.31,2.22313 1.70439,-0.36228 2.56071,-1.41621 2.56896,-3.16179 0.31287,-3.0218 -0.83986,-4.55329 -3.45821,-4.59447 z"
       id="path3890"
       style="fill:#000000" />
    <path
       d="m 131.36617,226.65317 c 1.35858,-0.0247 2.19843,0.56815 2.51955,1.7785 0.0247,0.93044 -0.28819,1.65502 -0.93866,2.17373 -1.49032,0.59286 -2.54425,0.23057 -3.16179,-1.08686 -0.32935,-1.48207 0.19761,-2.43719 1.5809,-2.86537 z m -0.59284,5.53313 h 0.19762 0.24701 0.64224 0.19761 0.83985 0.39522 0.34582 v 13.487 h -0.69164 -0.54343 -0.24701 -0.14821 -0.19761 -0.14821 -0.98806 -0.14821 -0.59284 v -0.1482 -0.24702 -0.14821 -0.19761 -0.14821 -0.98806 -0.34582 -0.19761 -0.24702 -0.19761 -0.24701 -0.64224 -0.19761 -0.83985 -0.14821 -0.59284 -0.34582 -0.34582 -0.29642 -0.34582 -0.29641 -0.34583 -0.29641 -0.83985 -0.29642 -0.24702 -0.29641 -0.19762 -0.88925 -0.54343 -0.19761 -0.19761 -0.19762 -0.19761 -0.83985 -0.14821 -0.59283 z"
       id="path3892"
       style="fill:#000000" />
    <path
       d="m 137.44274,226.80138 h 0.24701 0.19761 0.24702 0.19761 0.24702 0.64223 0.19762 0.83985 0.39522 0.34582 v 15.01849 c 0.51049,0.60108 1.23507,0.73282 2.17373,0.39523 l 0.0494,0.19761 v 0.24701 c 0.0412,0.18115 0.0576,0.3623 0.0494,0.54344 0.0576,0.20585 0.0906,0.38699 0.0988,0.54343 l 0.0494,0.44463 v 0.19761 c 0.0329,0.0494 0.0494,0.0988 0.0494,0.14821 l 0.0988,0.98806 h -0.19761 l -0.14821,0.0494 -0.19761,0.0494 -0.34582,0.0494 h -0.14821 c -0.37053,0.0906 -0.68341,0.13998 -0.93865,0.14821 -2.19844,0.44463 -3.63112,-0.26348 -4.29806,-2.12432 -0.008,-0.16468 -0.0247,-0.29642 -0.0494,-0.39523 v -0.14821 -0.98806 -0.19761 -0.24701 -0.19761 -0.24702 -0.64224 -0.19761 -0.83985 -0.14821 -0.59283 -0.19762 -0.24701 -0.64224 -0.19761 -0.83985 -0.14821 -0.59284 -0.34582 -0.39522 -0.39522 -0.39523 -0.14821 -0.1482 -1.5315 -0.34582 -0.29641 -0.34583 -0.29641 -0.24702 -0.29642 -0.19761 -0.88925 -0.54343 -0.19761 -0.19762 -0.19761 -0.19761 -0.83985 -0.14821 -0.59283 z"
       id="path3894"
       style="fill:#000000" />
    <path
       d="m 150.48511,231.84048 c 4.02633,-0.0576 6.31534,1.90202 6.86701,5.87895 l 0.14821,0.64224 v 0.34582 c 0.0659,0.58461 0.0823,1.06217 0.0494,1.43268 l -0.14821,-0.0494 h -0.14821 -0.98806 -0.14821 -0.14821 -1.53149 -0.34582 -0.29642 -0.34582 -0.29642 -0.24701 -0.29642 -0.19761 -0.88925 -0.54344 -0.19761 -0.19761 -0.19761 -0.19761 -0.83985 -0.14821 -0.59284 c 0.18114,1.43269 0.92218,2.28901 2.22313,2.56895 1.62206,0.24702 2.97241,-0.16467 4.05105,-1.23507 l 0.39522,0.44463 c 0.15643,0.10704 0.27171,0.22232 0.34582,0.34582 l 0.0988,0.0494 0.0494,0.0988 c 0.16467,0.12351 0.29641,0.23878 0.39522,0.34582 l 0.0988,0.14821 c 0.0576,0.0329 0.0906,0.0659 0.0988,0.0988 l 0.0988,0.0494 0.0988,0.0988 0.0494,0.0988 0.0988,0.0494 0.0494,0.0988 c 0.16466,0.12351 0.2964,0.23878 0.39522,0.34582 -1.5562,1.97612 -3.69699,2.71716 -6.42238,2.22313 -3.3347,-0.56813 -5.22848,-2.59365 -5.68134,-6.07656 -0.29642,-4.41332 1.51502,-7.08108 5.43432,-8.00328 z m 0.83985,3.06298 c -1.51503,0.23879 -2.40428,1.04571 -2.66776,2.42074 h 0.29642 0.34582 0.64224 1.53149 0.69164 0.14821 0.24702 0.14821 0.19761 0.14821 0.98806 c -0.37053,-1.48207 -1.27625,-2.28899 -2.71717,-2.42074 z"
       id="path3896"
       style="fill:#000000" />
  </g>
  <g
     id="g3440"
     transform="matrix(0.46955325,0,0,0.46955325,59.134024,99.006831)"
     style="stroke-width:2.12969">
    <g
       id="g1882"
       transform="matrix(3,0,0,3,-776.09399,52.538009)"
       style="stroke-width:2.12969" />
    <g
       id="g2461"
       transform="matrix(3,0,0,3,-471.70599,24.541009)"
       style="stroke-width:2.12969" />
    <path
       d="M 600,300 C 600.0277,465.67729 465.70502,600 300,600 134.29496,600 -0.02772571,465.67729 4.2927295e-6,300 -0.02772571,134.3227 134.29496,0 300,0 465.70502,0 600.02773,134.3227 600,300 Z"
       style="fill:#000000;fill-opacity:1;fill-rule:evenodd;stroke:none;stroke-width:2.12969"
       id="path1873" />
    <path
       d="M 596.99993,300 C 596.99993,464.02853 464.02854,596.99993 300,596.99993 135.97146,596.99993 3.0000743,464.02853 3.0000743,300 3.0000743,135.97146 135.97146,3.0000675 300,3.0000675 464.02854,3.0000675 596.99993,135.97146 596.99993,300 Z"
       style="fill:#ffffff;fill-opacity:1;fill-rule:evenodd;stroke:none;stroke-width:2.12969"
       id="path1875" />
    <path
       style="fill:#d40000;fill-opacity:1;fill-rule:evenodd;stroke:none;stroke-width:2.12969"
       d="M 300,9.00008 C 139.28515,9.00008 9.0000868,139.28515 9.0000868,300 9.0000868,460.71485 139.28516,590.99989 300,590.99992 460.71485,590.99992 590.99989,460.71485 590.99992,300 590.99992,139.28514 460.71485,9.00008 300,9.00008 Z m 0,74.99998 c 119.23194,0 215.99994,96.76797 215.99994,215.99994 0,53.37341 -19.44599,102.16956 -51.56248,139.87496 L 160.12504,135.56254 C 197.83043,103.44606 246.62662,84.00006 300,84.00006 Z M 133.50004,162.46879 437.53121,466.59371 C 400.16634,497.49253 352.23647,515.99994 300,515.99994 180.76807,515.99994 84.000067,419.23197 84.000067,300 c 0,-52.25846 18.577793,-100.15953 49.499973,-137.53121 z"
       id="path1877" />
    <path
       style="fill:#00408b;fill-opacity:1;fill-rule:evenodd;stroke:#ffffff;stroke-width:12.7781;stroke-miterlimit:4;stroke-dasharray:none;stroke-opacity:1"
       d="m 300,93.00006 c -47.62582,0 -91.47905,16.15348 -126.46872,43.21873 L 463.78121,426.46872 C 490.84645,391.47904 506.99994,347.62583 506.99994,300 506.99994,185.73603 414.26394,93.00006 300,93.00006 Z M 134.25004,175.96878 C 108.3392,210.53685 93.000067,253.50605 93.000067,300 c 0,114.26397 92.735993,206.99994 206.999933,206.99994 46.49393,0 89.46316,-15.33914 124.03122,-41.24998 z"
       id="path2770"
       sodipodi:nodetypes="cccsccsscc" />
  </g>
  <g
     aria-label="Aut. n. 000/1999"
     id="text3444"
     style="font-style:normal;font-weight:normal;font-size:33.3333px;line-height:1.25;font-family:sans-serif;letter-spacing:0.6px;fill:#000000;fill-opacity:1;stroke:none">
    <path
       d="m 57.600731,532.97635 h 0.846353 2.018227 0.911458 0.195312 0.32552 0.195313 0.260416 0.195312 1.302083 v 0.19531 q 0.276692,0.58593 0.390624,1.04166 l 0.130208,0.45573 0.06511,0.26042 q 0.0651,0.0976 0.0651,0.19531 0.0651,0.0977 0.0651,0.19531 0.0651,0.0977 0.0651,0.19532 0.16276,0.26041 0.195312,0.52083 l 0.390625,1.04166 v 0.19532 q 0.309244,0.60221 0.390624,1.10677 0.309245,0.71614 0.390625,1.23697 0.09766,0.19532 0.130208,0.39063 l 0.130208,0.26042 q 0.09766,0.32552 0.195313,0.52083 v 0.19531 q 0.0651,0.0977 0.0651,0.19531 0.16276,0.26042 0.195312,0.52084 l 0.390625,1.04166 0.0651,0.26042 0.0651,0.13021 0.130208,0.58593 0.130208,0.26042 0.130209,0.32552 0.0651,0.19531 0.0651,0.26042 0.130208,0.39062 q 0.09766,0.32552 0.195312,0.52084 v 0.19531 q 0.0651,0.0977 0.0651,0.19531 0.162761,0.26042 0.195313,0.52083 l 0.390624,1.04167 0.06511,0.39062 0.195312,0.39063 0.130208,0.39062 v 0.19532 l 0.130208,0.19531 0.0651,0.26041 0.0651,0.32552 q 0.504557,1.1556 0.651042,1.95313 0.0651,0.0977 0.0651,0.19531 0.504556,1.1556 0.651041,1.95312 l 0.130208,0.19532 0.0651,0.26041 0.0651,0.26042 0.0651,0.19531 0.0651,0.26042 q 0.0651,0.0976 0.0651,0.19531 0.06511,0.0977 0.06511,0.19531 0.0651,0.0977 0.0651,0.19531 l 0.130208,0.19532 v 0.19531 q 0.0651,0.0977 0.0651,0.19531 0.16276,0.26042 0.195312,0.52083 0.211589,0.48828 0.260417,0.78125 l 0.130208,0.39063 H 71.728321 71.467905 70.296031 69.579886 69.319469 69.059053 68.798637 68.53822 67.43145 67.236138 66.454889 l -0.130208,-0.39063 v -0.26041 l -0.130209,-0.19532 v -0.19531 q -0.195312,-0.35807 -0.195312,-0.65104 l -0.130208,-0.19531 v -0.19531 l -0.0651,-0.26042 -0.195313,-0.45573 -0.455728,-1.6276 H 63.980933 62.678851 62.223122 61.832497 61.506977 61.116352 60.855936 59.684062 58.967917 58.7075 58.447084 58.186667 57.926251 56.819481 56.624169 55.84292 l -0.0651,0.32552 -0.0651,0.32552 -0.130209,0.26042 q -0.08138,0.35807 -0.195312,0.65104 l -0.0651,0.32552 -0.0651,0.13021 -0.195313,0.65104 -0.0651,0.26041 -0.0651,0.19532 q -0.113932,0.34179 -0.195312,0.52083 l -0.195312,0.78125 H 54.280421 54.020005 53.824692 52.52261 52.327298 51.155424 50.960112 48.941885 l 0.130208,-0.52084 0.195312,-0.65104 0.0651,-0.19531 0.0651,-0.19531 0.0651,-0.19531 0.06511,-0.13021 0.32552,-1.04167 0.0651,-0.19531 0.0651,-0.19531 0.0651,-0.26042 0.130209,-0.26041 0.195312,-0.71615 0.0651,-0.19531 0.0651,-0.19531 0.0651,-0.19532 0.0651,-0.1302 q 0.195313,-0.7487 0.390625,-1.17188 l 0.130208,-0.45573 0.0651,-0.13021 q 0.195313,-0.74869 0.390625,-1.17187 0.08138,-0.32552 0.195312,-0.52083 l 0.130208,-0.52084 0.195313,-0.45572 0.130208,-0.52084 0.0651,-0.13021 q 0.195312,-0.74869 0.390625,-1.17187 l 0.130208,-0.52083 0.520833,-1.43229 0.130208,-0.45573 0.0651,-0.19531 0.0651,-0.19532 q 0.195312,-0.61848 0.390625,-1.04166 l 0.130208,-0.39063 0.0651,-0.19531 v -0.19531 l 0.0651,-0.19531 0.455729,-1.17188 0.0651,-0.39062 0.130208,-0.32552 0.130208,-0.26042 q 0.130209,-0.61849 0.325521,-1.04166 l 0.0651,-0.32552 0.0651,-0.19532 0.0651,-0.1302 q 0.195313,-0.7487 0.390625,-1.17188 l 0.0651,-0.26042 0.0651,-0.26041 q 0.179036,-0.37435 0.260417,-0.71615 l 0.195312,-0.65104 0.0651,-0.19531 0.520833,-1.49739 z m 2.799476,5.72916 -0.195312,0.71614 -0.0651,0.13021 -0.325521,1.17187 -0.390625,1.10677 -0.0651,0.13021 -0.390624,1.43229 -0.0651,0.26042 -0.390625,1.10677 -0.130208,0.32552 q -0.0651,0.52083 -0.260417,0.91146 -0.04883,0.37434 -0.195312,0.71614 l -0.0651,0.26042 q -0.130208,0.39062 -0.260416,0.65104 l -0.390625,1.43229 h 0.195312 0.260417 0.260416 0.260416 0.260417 1.10677 0.195312 0.781249 0.260417 0.716145 0.32552 0.195313 0.260416 0.195312 1.302082 l -0.130208,-0.52083 -0.390624,-1.23698 -0.325521,-1.10677 q -0.24414,-0.61849 -0.32552,-1.04167 l -0.0651,-0.13021 q -0.130208,-0.472 -0.260416,-0.78124 l -0.0651,-0.26042 -0.0651,-0.26042 -0.130208,-0.32552 -0.0651,-0.39062 -0.0651,-0.26042 -0.130208,-0.19531 -0.0651,-0.39063 -0.0651,-0.26041 q -0.09766,-0.19531 -0.130208,-0.39063 l -0.0651,-0.26041 q -0.244141,-0.48828 -0.325521,-0.91146 l -0.0651,-0.19531 -0.0651,-0.13021 -0.130208,-0.58594 -0.0651,-0.19531 -0.325521,-0.84635 z"
       style="font-style:normal;font-variant:normal;font-weight:normal;font-stretch:normal;font-size:33.3333px;font-family:'Transport Heavy';-inkscape-font-specification:'Transport Heavy, '"
       id="path3526" />
    <path
       d="m 75.974152,540.07269 h 0.32552 0.260417 0.32552 0.260417 0.32552 0.846354 0.260416 1.10677 0.520833 0.455728 l 0.0651,11.65364 q 1.708983,3.28775 4.947912,1.43229 0.976562,-0.78125 1.367187,-1.82292 v -0.19531 -1.30208 -0.45573 -0.45573 -0.26042 -0.32552 -0.84635 -0.26042 -1.10677 -0.19531 -0.78125 -0.26041 -0.26042 -0.19531 -1.17188 -0.84635 -0.26042 -1.10677 -0.19531 -0.78125 h 1.302082 0.32552 0.195313 0.260416 0.260416 0.260417 0.260416 1.10677 0.195312 0.78125 v 17.77342 h -1.302083 -0.32552 -0.195312 -0.260417 -0.260416 -0.260417 -0.260416 -1.10677 -0.195312 -0.781249 v -1.17187 q -3.873695,2.79948 -7.747389,0.65104 -1.757811,-1.12305 -2.604164,-2.66927 l -0.130208,-0.0651 -0.0651,-0.19531 -0.0651,-0.19532 q -0.146485,-0.32552 -0.195313,-0.52083 l -0.0651,-0.19531 q -0.309244,-1.00912 -0.390624,-1.6276 l -0.06511,-1.43229 v -0.45573 -0.39063 -1.10677 -0.19531 -0.78125 -0.84635 -0.26042 -1.10677 -0.19531 -0.78125 -0.71615 -0.32552 -0.84635 -0.26042 -1.10677 -0.19531 -0.78125 z"
       style="font-style:normal;font-variant:normal;font-weight:normal;font-stretch:normal;font-size:33.3333px;font-family:'Transport Heavy';-inkscape-font-specification:'Transport Heavy, '"
       id="path3528" />
    <path
       d="m 103.98298,532.97635 q 0.13021,0.14648 0.13021,0.32552 v 6.64061 h 0.26042 0.71614 0.32552 0.84635 0.26042 1.10677 0.52083 0.45573 v 4.10156 h -0.26041 -0.71615 -0.32552 -0.84635 -0.26042 -1.10677 -0.19531 -0.78125 v 8.85416 l 0.13021,0.39063 q 1.25325,1.26953 3.97135,0.26041 l 0.0651,0.26042 0.32552,1.04166 0.0651,0.19532 0.0651,0.52083 0.19531,0.45573 v 0.19531 q 0.14649,0.4069 0.19531,0.71615 l 0.19532,0.65104 q -4.05273,1.26953 -7.68229,0.52083 -1.10677,-0.55339 -1.757808,-1.30208 -0.472005,-0.84636 -0.651041,-1.43229 v -0.45573 q -0.113932,-0.35807 -0.0651,-0.65104 v -0.26042 -0.26042 -0.19531 -1.17187 -0.84635 -0.26042 -1.10677 -0.19531 -0.78125 -0.84636 -0.26041 -1.17188 -0.26041 -0.26042 -0.26042 -1.10677 -0.19531 -0.78125 h -0.260416 -0.260417 -0.260416 -1.10677 -0.195312 -0.78125 v -0.32552 -0.26041 -0.32552 -0.84636 -0.26041 -1.10677 -0.19532 -0.78125 h 0.260417 0.260416 0.260417 1.106769 0.520833 0.455729 v -1.10677 -0.26041 -1.10677 -0.71615 -0.26041 -1.10677 -0.19531 -0.78125 l 0.260416,-0.0651 0.130209,-0.0651 0.585938,-0.13021 q 0.37435,-0.16276 0.65104,-0.19531 l 0.84635,-0.26042 0.32552,-0.0651 0.65104,-0.26042 q 0.83008,-0.16276 1.36719,-0.39062 z"
       style="font-style:normal;font-variant:normal;font-weight:normal;font-stretch:normal;font-size:33.3333px;font-family:'Transport Heavy';-inkscape-font-specification:'Transport Heavy, '"
       id="path3530" />
    <path
       d="m 115.71578,553.35393 q 2.22982,0.21159 2.73437,2.14844 0.27669,2.14843 -1.49739,2.99478 -3.02734,0.79753 -3.77604,-2.08333 0.0977,-2.65299 2.53906,-3.05989 z"
       style="font-style:normal;font-variant:normal;font-weight:normal;font-stretch:normal;font-size:33.3333px;font-family:'Transport Heavy';-inkscape-font-specification:'Transport Heavy, '"
       id="path3532" />
    <path
       d="m 142.24128,539.61696 q 4.45963,-0.14648 6.96614,3.64583 l 0.0651,0.19532 0.0651,0.19531 0.0651,0.19531 q 0.16276,0.27669 0.19531,0.52083 l 0.26042,0.78125 v 0.19532 q 0.22786,1.17187 0.19531,1.88801 v 10.61197 h -1.30208 -0.32552 -0.19531 -0.26042 -0.26042 -0.26041 -0.26042 -1.10677 -0.19531 -0.78125 v -0.19531 -0.32552 -0.19531 -0.26042 -0.19531 -1.30208 -0.91146 -0.71615 -0.32552 -0.19531 -0.26041 -0.19532 -1.30208 -0.26042 -0.71614 -0.65104 -1.17188 -0.19531 -0.19531 -0.26042 -1.17187 -0.26042 q -0.16276,-0.4069 -0.19531,-0.71614 -0.78125,-1.36719 -2.08333,-1.75781 -2.70183,-0.0651 -3.97136,2.08333 l -0.1302,0.45573 v 11.1979 h -1.30209 -0.32552 -0.19531 -0.26041 -0.26042 -0.26042 -0.26041 -1.10677 -0.19532 -0.78125 v -0.19531 -0.32552 -0.19531 -0.26042 -0.19531 -1.30208 -0.45573 -0.26042 -0.32552 -0.26041 -0.32553 -0.84635 -0.26041 -1.10677 -0.19532 -0.78125 -0.45573 -0.45572 -0.39063 -0.45573 -0.39062 -0.45573 -0.39063 -1.10676 -0.39063 -0.32552 -0.39062 -0.26042 -1.17187 -0.71615 -0.26042 -0.26041 -0.26042 -0.26042 -1.10677 -0.19531 -0.78125 h 1.30209 0.32552 0.19531 0.26042 0.26041 0.26042 0.26042 1.10677 0.19531 0.78125 q -0.0326,0.66732 0.0651,1.10677 1.6276,-1.2858 3.45052,-1.5625 z"
       style="font-style:normal;font-variant:normal;font-weight:normal;font-stretch:normal;font-size:33.3333px;font-family:'Transport Heavy';-inkscape-font-specification:'Transport Heavy, '"
       id="path3534" />
    <path
       d="m 158.14074,553.35393 q 2.22982,0.21159 2.73437,2.14844 0.2767,2.14843 -1.49739,2.99478 -3.02734,0.79753 -3.77604,-2.08333 0.0977,-2.65299 2.53906,-3.05989 z"
       style="font-style:normal;font-variant:normal;font-weight:normal;font-stretch:normal;font-size:33.3333px;font-family:'Transport Heavy';-inkscape-font-specification:'Transport Heavy, '"
       id="path3536" />
    <path
       d="m 187.15647,532.3253 q 10.25389,0.39063 10.80728,11.97916 0.22786,6.13606 -2.73437,10.74218 l -0.19532,0.13021 q -0.0651,0.11393 -0.1302,0.1302 -0.22787,0.30925 -0.39063,0.45573 l -0.13021,0.0651 q -0.43945,0.472 -0.78125,0.71614 -5.1595,3.09245 -10.28644,1.04167 -5.30599,-2.34375 -5.98958,-8.26822 -1.07422,-5.77799 0.78125,-10.67708 2.45768,-6.18489 9.04947,-6.3151 z m -0.45573,4.7526 q -4.50846,1.35091 -4.29687,6.44531 l -0.0651,0.19531 v 0.39063 q -0.0814,0.71614 -0.0651,1.17187 v 0.19531 0.71615 l 0.0651,0.13021 q 0,0.61849 0.0651,1.04166 l 0.0651,0.97656 -0.0651,0.19532 0.0651,0.19531 q 0.0651,0.37435 0.0651,0.52083 0.0651,0.0977 0.0651,0.19531 0.21159,0.47201 0.26042,0.84636 0.0814,0.0651 0.0651,0.13021 0.22787,0.48828 0.32552,0.84635 0.11393,0.0651 0.13021,0.13021 0.37435,0.63476 0.78125,0.97656 l 0.13021,0.13021 0.13021,0.13021 0.1302,0.0651 0.19532,0.13021 0.0651,0.13021 q 0.52083,0.22786 0.84635,0.45572 8.23567,1.77409 6.83593,-11.45832 -1.04166,-5.06184 -5.79426,-4.88281 z"
       style="font-style:normal;font-variant:normal;font-weight:normal;font-stretch:normal;font-size:33.3333px;font-family:'Transport Heavy';-inkscape-font-specification:'Transport Heavy, '"
       id="path3538" />
    <path
       d="m 213.34238,532.3253 q 10.2539,0.39063 10.80728,11.97916 0.22787,6.13606 -2.73437,10.74218 l -0.19531,0.13021 q -0.0651,0.11393 -0.13021,0.1302 -0.22787,0.30925 -0.39063,0.45573 l -0.1302,0.0651 q -0.43946,0.472 -0.78125,0.71614 -5.1595,3.09245 -10.28645,1.04167 -5.30599,-2.34375 -5.98958,-8.26822 -1.07422,-5.77799 0.78125,-10.67708 2.45768,-6.18489 9.04947,-6.3151 z m -0.45573,4.7526 q -4.50846,1.35091 -4.29687,6.44531 l -0.0651,0.19531 v 0.39063 q -0.0814,0.71614 -0.0651,1.17187 v 0.19531 0.71615 l 0.0651,0.13021 q 0,0.61849 0.0651,1.04166 l 0.0651,0.97656 -0.0651,0.19532 0.0651,0.19531 q 0.0651,0.37435 0.0651,0.52083 0.0651,0.0977 0.0651,0.19531 0.21159,0.47201 0.26042,0.84636 0.0814,0.0651 0.0651,0.13021 0.22787,0.48828 0.32552,0.84635 0.11394,0.0651 0.13021,0.13021 0.37435,0.63476 0.78125,0.97656 l 0.13021,0.13021 0.13021,0.13021 0.13021,0.0651 0.19531,0.13021 0.0651,0.13021 q 0.52084,0.22786 0.84636,0.45572 8.23567,1.77409 6.83593,-11.45832 -1.04167,-5.06184 -5.79427,-4.88281 z"
       style="font-style:normal;font-variant:normal;font-weight:normal;font-stretch:normal;font-size:33.3333px;font-family:'Transport Heavy';-inkscape-font-specification:'Transport Heavy, '"
       id="path3540" />
    <path
       d="m 239.52829,532.3253 q 10.2539,0.39063 10.80729,11.97916 0.22786,6.13606 -2.73438,10.74218 l -0.19531,0.13021 q -0.0651,0.11393 -0.13021,0.1302 -0.22786,0.30925 -0.39062,0.45573 l -0.13021,0.0651 q -0.43945,0.472 -0.78125,0.71614 -5.1595,3.09245 -10.28645,1.04167 -5.30598,-2.34375 -5.98958,-8.26822 -1.07421,-5.77799 0.78125,-10.67708 2.45768,-6.18489 9.04947,-6.3151 z m -0.45572,4.7526 q -4.50846,1.35091 -4.29688,6.44531 l -0.0651,0.19531 v 0.39063 q -0.0814,0.71614 -0.0651,1.17187 v 0.19531 0.71615 l 0.0651,0.13021 q 0,0.61849 0.0651,1.04166 l 0.0651,0.97656 -0.0651,0.19532 0.0651,0.19531 q 0.0651,0.37435 0.0651,0.52083 0.0651,0.0977 0.0651,0.19531 0.21158,0.47201 0.26041,0.84636 0.0814,0.0651 0.0651,0.13021 0.22786,0.48828 0.32552,0.84635 0.11393,0.0651 0.13021,0.13021 0.37434,0.63476 0.78124,0.97656 l 0.13021,0.13021 0.13021,0.13021 0.13021,0.0651 0.19531,0.13021 0.0651,0.13021 q 0.52083,0.22786 0.84635,0.45572 8.23567,1.77409 6.83593,-11.45832 -1.04167,-5.06184 -5.79426,-4.88281 z"
       style="font-style:normal;font-variant:normal;font-weight:normal;font-stretch:normal;font-size:33.3333px;font-family:'Transport Heavy';-inkscape-font-specification:'Transport Heavy, '"
       id="path3542" />
    <path
       d="m 262.0521,532.3253 q 0.43945,0.0977 0.71615,0.19532 l 0.84635,0.19531 0.19531,0.0651 0.19531,0.0651 0.13021,0.0651 0.26042,0.0651 1.49739,0.39062 -0.0651,0.52083 -0.13021,0.26042 q -0.0163,0.16276 -0.0651,0.26042 l -0.0651,0.32552 -0.13021,0.39062 -0.0651,0.19531 -0.0651,0.39063 -0.26042,0.78125 -0.39062,1.49739 -0.13021,0.45573 -0.13021,0.39062 -0.13021,0.39063 -0.13021,0.39062 q -0.0976,0.53711 -0.26041,0.91146 -0.13021,0.61849 -0.32552,1.04167 l -0.0651,0.39062 -0.19531,0.71615 -0.13021,0.32552 -0.0651,0.26041 -0.19532,0.78125 -0.0651,0.26042 -0.45573,1.43229 -0.13021,0.52083 -0.32552,1.04167 -0.13021,0.45573 -0.0651,0.39062 -0.13021,0.45573 -0.13021,0.39063 -0.0651,0.26041 -0.0651,0.13021 q -0.13021,0.61849 -0.32552,1.04167 l -0.0651,0.45572 -0.0651,0.13021 -0.13021,0.39063 -0.0651,0.19531 -0.0651,0.39062 -0.45573,1.43229 -0.0651,0.19532 -0.0651,0.19531 -0.0651,0.45573 -0.0651,0.13021 -0.0651,0.26041 -0.0651,0.13021 -0.0651,0.32552 -0.13021,0.39063 q -0.11393,0.50455 -0.26041,0.78124 l -0.0651,0.39063 -0.1302,0.32552 -0.0651,0.19531 -0.0651,0.39063 -0.0651,0.13021 -0.26041,1.04166 -0.0651,0.19531 -0.26041,0.91146 -0.26042,0.84635 -0.0651,0.19532 -0.0651,0.19531 -0.19531,0.78125 -0.0651,0.19531 -0.39063,1.49739 h -0.32552 l -0.19531,-0.0651 q -0.52083,-0.19531 -0.91146,-0.26042 l -0.26042,-0.0651 -0.26041,-0.0651 -0.26042,-0.0651 -0.13021,-0.0651 -0.1302,-0.0651 -1.36719,-0.32552 0.13021,-0.52083 0.13021,-0.45573 0.1302,-0.52083 0.32552,-0.97656 0.13021,-0.52084 0.0651,-0.32552 0.1302,-0.45573 q 0.14649,-0.37434 0.19532,-0.65104 l 0.32552,-0.97656 q 0.0163,-0.16276 0.0651,-0.26041 l 0.0651,-0.39063 0.0651,-0.19531 0.26042,-0.91146 0.0651,-0.19531 0.0651,-0.26042 q 0.11394,-0.4069 0.26042,-0.71614 v -0.26042 q 0.24414,-0.60221 0.32552,-1.04166 l 0.0651,-0.26042 0.0651,-0.13021 0.26042,-1.04166 q 0.14648,-0.37435 0.19531,-0.71615 l 0.0651,-0.19531 0.0651,-0.26042 q 0.24414,-0.60221 0.32552,-1.04166 l 0.13021,-0.45573 0.1302,-0.52084 0.13021,-0.45572 0.0651,-0.19532 0.0651,-0.13021 q 0.11393,-0.56966 0.26042,-0.91145 l 0.0651,-0.26042 0.32552,-1.17187 0.13021,-0.39063 0.0651,-0.26041 0.32552,-1.17188 0.13021,-0.45573 0.13021,-0.45573 q 0.17904,-0.78124 0.39062,-1.23697 l 0.0651,-0.45573 0.13021,-0.45573 0.13021,-0.39063 0.0651,-0.32552 0.0651,-0.19531 0.0651,-0.19531 0.0651,-0.19531 0.0651,-0.13021 0.26041,-1.04167 0.19531,-0.65104 0.19532,-0.58593 0.0651,-0.19532 0.0651,-0.45573 0.1302,-0.19531 0.0651,-0.39062 0.0651,-0.26042 0.0651,-0.26042 0.1302,-0.32552 q 0.0977,-0.43945 0.19532,-0.71614 z"
       style="font-style:normal;font-variant:normal;font-weight:normal;font-stretch:normal;font-size:33.3333px;font-family:'Transport Heavy';-inkscape-font-specification:'Transport Heavy, '"
       id="path3544" />
    <path
       d="m 273.91512,533.04145 h 1.17187 0.84635 0.26042 1.10677 0.19531 0.78125 v 24.86977 h -0.84635 -0.26042 -1.17187 -0.26042 -0.26042 -0.26041 -1.10677 -0.19531 -0.78125 v -0.45573 -0.19531 -0.19532 -0.84635 -0.19531 -0.32552 -0.19531 -0.26042 -0.19531 -1.30209 -0.52083 -0.91146 -0.19531 -0.32552 -0.19531 -0.26042 -0.19531 -1.30208 -1.10677 -0.19531 -0.78125 -0.26042 -0.19531 -1.30208 -0.26042 -0.19531 -1.17188 -0.84635 -0.26042 -1.10677 -0.19531 -0.78125 h -1.10677 -0.71615 -0.26042 -1.10676 -0.19532 -0.78125 v -0.26041 -0.32552 -0.26042 -0.32552 -0.84635 -0.26042 -1.10677 -0.19531 -0.78125 q 2.11589,0.0488 3.64583,-0.91146 l 0.0651,-0.13021 q 0.39062,-0.52083 0.58593,-0.91146 v -0.19531 l 0.13021,-0.45573 0.32552,-1.17187 z"
       style="font-style:normal;font-variant:normal;font-weight:normal;font-stretch:normal;font-size:33.3333px;font-family:'Transport Heavy';-inkscape-font-specification:'Transport Heavy, '"
       id="path3546" />
    <path
       d="m 293.57434,532.58572 q 7.79622,-0.14648 9.63541,6.64062 l 0.19531,0.13021 0.0651,0.32552 0.0651,0.26041 0.0651,0.26042 0.0651,0.13021 0.13021,0.58594 v 0.32552 q 0.0651,0.0977 0.0651,0.19531 l 0.13021,0.71614 0.13021,1.10677 0.13021,1.04167 q 0.55338,12.17447 -7.94271,13.80207 -8.33332,1.17187 -10.22134,-5.20833 l 1.36719,-0.45573 q 0.0651,-0.0814 0.1302,-0.0651 l 0.58594,-0.26042 q 0.4069,-0.11393 0.65104,-0.26041 l 0.19531,-0.0651 h 0.19532 q 0.0651,-0.0814 0.13021,-0.0651 l 0.19531,-0.0651 1.04166,-0.45573 h 0.26042 q 1.05794,2.92969 4.23177,2.40886 3.36913,-0.76498 3.97135,-4.23177 l 0.0651,-1.04167 q -4.36197,2.79948 -8.78905,1.23698 -4.41081,-1.92057 -4.6875,-6.3802 -0.92773,-9.847 7.9427,-10.61197 z m 0.52083,4.6875 q -2.55533,0.63476 -3.3203,2.92968 -0.66732,4.70377 3.58072,5.46875 4.45963,-0.45573 4.29687,-4.7526 -0.86263,-3.74349 -4.55729,-3.64583 z"
       style="font-style:normal;font-variant:normal;font-weight:normal;font-stretch:normal;font-size:33.3333px;font-family:'Transport Heavy';-inkscape-font-specification:'Transport Heavy, '"
       id="path3548" />
    <path
       d="m 316.96079,532.58572 q 7.79621,-0.14648 9.6354,6.64062 l 0.19532,0.13021 0.0651,0.32552 0.0651,0.26041 0.0651,0.26042 0.0651,0.13021 0.13021,0.58594 v 0.32552 q 0.0651,0.0977 0.0651,0.19531 l 0.13021,0.71614 0.13021,1.10677 0.13021,1.04167 q 0.55338,12.17447 -7.9427,13.80207 -8.33333,1.17187 -10.22135,-5.20833 l 1.36719,-0.45573 q 0.0651,-0.0814 0.13021,-0.0651 l 0.58594,-0.26042 q 0.4069,-0.11393 0.65104,-0.26041 l 0.19531,-0.0651 h 0.19531 q 0.0651,-0.0814 0.13021,-0.0651 l 0.19531,-0.0651 1.04167,-0.45573 h 0.26041 q 1.05795,2.92969 4.23177,2.40886 3.36914,-0.76498 3.97135,-4.23177 l 0.0651,-1.04167 q -4.36197,2.79948 -8.78905,1.23698 -4.4108,-1.92057 -4.68749,-6.3802 -0.92774,-9.847 7.9427,-10.61197 z m 0.52083,4.6875 q -2.55534,0.63476 -3.32031,2.92968 -0.66732,4.70377 3.58073,5.46875 4.45963,-0.45573 4.29687,-4.7526 -0.86263,-3.74349 -4.55729,-3.64583 z"
       style="font-style:normal;font-variant:normal;font-weight:normal;font-stretch:normal;font-size:33.3333px;font-family:'Transport Heavy';-inkscape-font-specification:'Transport Heavy, '"
       id="path3550" />
    <path
       d="m 340.3472,532.58572 q 7.79622,-0.14648 9.63541,6.64062 l 0.19531,0.13021 0.0651,0.32552 0.0651,0.26041 0.0651,0.26042 0.0651,0.13021 0.1302,0.58594 v 0.32552 q 0.0651,0.0977 0.0651,0.19531 l 0.13021,0.71614 0.1302,1.10677 0.13021,1.04167 q 0.55339,12.17447 -7.9427,13.80207 -8.33332,1.17187 -10.22134,-5.20833 l 1.36718,-0.45573 q 0.0651,-0.0814 0.13021,-0.0651 l 0.58594,-0.26042 q 0.4069,-0.11393 0.65104,-0.26041 l 0.19531,-0.0651 h 0.19531 q 0.0651,-0.0814 0.13021,-0.0651 l 0.19532,-0.0651 1.04166,-0.45573 h 0.26042 q 1.05794,2.92969 4.23176,2.40886 3.36914,-0.76498 3.97135,-4.23177 l 0.0651,-1.04167 q -4.36198,2.79948 -8.78906,1.23698 -4.4108,-1.92057 -4.68749,-6.3802 -0.92773,-9.847 7.9427,-10.61197 z m 0.52083,4.6875 q -2.55533,0.63476 -3.32031,2.92968 -0.66731,4.70377 3.58073,5.46875 4.45963,-0.45573 4.29687,-4.7526 -0.86263,-3.74349 -4.55729,-3.64583 z"
       style="font-style:normal;font-variant:normal;font-weight:normal;font-stretch:normal;font-size:33.3333px;font-family:'Transport Heavy';-inkscape-font-specification:'Transport Heavy, '"
       id="path3552" />
  </g>
  <g
     aria-label="Comune di Esempio"
     id="text3444-1"
     style="font-style:normal;font-weight:normal;font-size:33.3333px;line-height:1.25;font-family:sans-serif;letter-spacing:0.6px;fill:#000000;fill-opacity:1;stroke:none">
    <path
       d="m 42.109762,41.596153 q 9.488923,-0.488281 12.499988,7.747388 l -0.260416,0.195313 -1.10677,0.390624 -0.260417,0.130208 -0.260416,0.06511 q -0.472005,0.276692 -0.846353,0.390624 l -0.325521,0.0651 -0.130208,0.130209 h -0.195312 l -0.130209,0.130208 h -0.195312 l -0.130208,0.130208 h -0.195312 l -0.130209,0.130208 -0.260416,0.0651 -0.716145,0.260417 q -1.627603,-5.908198 -7.552076,-4.7526 -4.58984,1.774087 -4.492184,6.835931 -0.602213,5.257156 2.53906,7.942701 2.587889,1.757811 5.403641,0.911457 3.548174,-1.155598 4.036455,-4.622391 0.618489,0.113932 1.041665,0.390624 0.667317,0.179037 1.10677,0.390625 l 0.260416,0.130208 0.390625,0.130208 0.195312,0.0651 0.455729,0.195312 0.260417,0.0651 0.195312,0.130208 q 0.32552,0.08138 0.520833,0.195313 l 0.781249,0.260416 q -2.604164,7.226556 -9.700512,7.812493 -7.177727,0.520832 -10.872385,-4.882808 -3.938798,-6.949864 -1.171874,-13.736966 2.799477,-6.461583 9.244783,-7.29166 z"
       style="font-style:normal;font-variant:normal;font-weight:normal;font-stretch:normal;font-size:33.3333px;font-family:'Transport Heavy';-inkscape-font-specification:'Transport Heavy, ';text-align:center;text-anchor:middle"
       id="path3495" />
    <path
       d="m 64.731225,48.497188 q 6.412754,-0.04883 8.593742,5.338537 0.227864,0.292968 0.32552,0.585936 1.399739,5.664058 -1.367186,9.960928 -3.88997,4.475908 -9.244783,2.929685 -5.631505,-1.920571 -6.119785,-8.007805 -0.488281,-9.309887 7.812492,-10.807281 z m 0.260416,4.361975 q -3.548173,1.529946 -3.124997,5.468745 -0.09766,4.182938 3.450518,4.947912 4.264319,-0.292969 3.841142,-6.249994 -0.504557,-4.117835 -4.166663,-4.166663 z"
       style="font-style:normal;font-variant:normal;font-weight:normal;font-stretch:normal;font-size:33.3333px;font-family:'Transport Heavy';-inkscape-font-specification:'Transport Heavy, ';text-align:center;text-anchor:middle"
       id="path3497" />
    <path
       d="m 86.945787,48.757604 q 3.548173,-0.309244 5.208328,2.343748 3.352861,-3.548174 7.552076,-1.757811 2.571609,1.155598 3.776039,3.450518 v 0.195312 q 0.0814,0.0651 0.0651,0.130208 0.0814,0.0651 0.0651,0.130209 l 0.39062,1.236978 v 0.195312 q 0.13021,0.748697 0.13021,1.302082 v 11.002594 h -1.10677 -0.26042 -0.32552 -0.84635 -0.26042 -1.10677 -0.19531 -0.781248 V 66.661233 65.81488 65.554463 65.294047 65.033631 63.926861 63.731548 62.950299 62.038842 61.583113 60.671656 60.476343 59.304469 58.458116 58.1977 57.09093 56.895617 56.114368 q -0.130208,-0.472005 -0.130208,-0.781249 -0.09766,-0.195312 -0.130208,-0.390625 -0.244141,-0.292968 -0.325521,-0.585937 l -0.130208,-0.0651 -0.0651,-0.130208 Q 97.997208,53.68924 97.62286,53.4451 94.969867,53.087027 93.846822,55.528431 l -0.0651,0.455729 -0.06511,0.455729 V 66.986754 H 93.456197 93.260885 92.089011 91.242657 90.982241 89.875471 89.680159 88.89891 V 66.661233 66.465921 65.619567 65.359151 65.098735 64.838318 64.643006 64.382589 63.210716 62.950299 62.689883 62.49457 62.234154 61.06228 60.801864 60.541447 60.281031 60.020614 59.825302 58.978949 58.327908 57.481554 56.830513 56.635201 l -0.0651,-0.455729 -0.195313,-1.171874 q -0.699869,-1.253254 -1.888019,-1.692706 -2.164711,0.179036 -3.190101,1.953123 -0.195312,0.716145 -0.195312,1.236978 v 10.481761 h -1.10677 -0.260416 -0.325521 -0.846353 -0.260417 -1.106769 -0.195313 -0.781249 V 66.791441 66.465921 66.270609 66.010192 65.81488 64.512798 64.057069 63.796653 63.471132 63.210716 62.885195 62.038842 61.778425 60.671656 60.476343 59.695094 59.239365 58.783636 58.393012 57.937283 57.546659 57.09093 56.700305 55.593535 55.202911 54.87739 54.486766 54.226349 53.054475 52.33833 52.077914 51.817497 51.557081 51.296664 50.189895 49.994582 49.213333 h 1.10677 0.260416 0.325521 0.846353 0.260416 1.10677 0.520833 0.455729 v 1.171874 q 1.67643,-1.334634 3.580726,-1.627603 z"
       style="font-style:normal;font-variant:normal;font-weight:normal;font-stretch:normal;font-size:33.3333px;font-family:'Transport Heavy';-inkscape-font-specification:'Transport Heavy, ';text-align:center;text-anchor:middle"
       id="path3499" />
    <path
       d="m 109.81139,49.213333 h 0.32552 0.26042 0.32552 0.26042 0.32552 0.84635 0.26042 1.10677 0.52083 0.45573 l 0.0651,11.653635 q 1.70898,3.287757 4.94791,1.43229 0.97657,-0.781249 1.36719,-1.822915 v -0.195312 -1.302082 -0.455729 -0.455729 -0.260416 -0.325521 -0.846353 -0.260416 -1.10677 -0.195312 -0.78125 -0.260416 -0.260417 -0.195312 -1.171874 -0.846353 -0.260417 -1.106769 -0.195313 -0.781249 h 1.30208 0.32552 0.19532 0.26041 0.26042 0.26041 0.26042 1.10677 0.19531 0.78125 v 17.773421 h -1.30208 -0.32552 -0.19531 -0.26042 -0.26042 -0.26041 -0.26042 -1.10677 -0.19531 -0.78125 V 65.81488 q -3.87369,2.799476 -7.74739,0.651041 -1.75781,-1.123046 -2.60416,-2.669268 l -0.13021,-0.06511 -0.0651,-0.195312 -0.0651,-0.195312 q -0.14648,-0.325521 -0.19531,-0.520833 l -0.0651,-0.195312 q -0.30924,-1.009114 -0.39062,-1.627603 l -0.0651,-1.43229 V 59.109157 58.718532 57.611763 57.41645 56.635201 55.788848 55.528431 54.421661 54.226349 53.4451 52.728955 52.403434 51.557081 51.296664 50.189895 49.994582 49.213333 Z"
       style="font-style:normal;font-variant:normal;font-weight:normal;font-stretch:normal;font-size:33.3333px;font-family:'Transport Heavy';-inkscape-font-specification:'Transport Heavy, ';text-align:center;text-anchor:middle"
       id="path3501" />
    <path
       d="m 139.83845,48.757604 q 4.45963,-0.146484 6.96614,3.64583 l 0.0651,0.195313 0.0651,0.195312 0.0651,0.195312 q 0.16276,0.276693 0.19531,0.520833 l 0.26042,0.781249 v 0.195313 q 0.22786,1.171873 0.19531,1.888019 v 10.611969 h -1.30208 -0.32552 -0.19531 -0.26042 -0.26042 -0.26041 -0.26042 -1.10677 -0.19531 -0.78125 V 66.791441 66.465921 66.270609 66.010192 65.81488 64.512798 63.60134 62.885195 62.559675 62.364362 62.103946 61.908634 60.606551 60.346135 59.62999 58.978949 57.807075 57.611763 57.41645 57.156034 55.98416 55.723744 q -0.16276,-0.406901 -0.19531,-0.716146 -0.78125,-1.367186 -2.08333,-1.75781 -2.70182,-0.06511 -3.97135,2.083331 l -0.13021,0.455729 v 11.197906 h -1.30209 -0.32552 -0.19531 -0.26041 -0.26042 -0.26042 -0.26041 -1.10677 -0.19532 -0.78125 V 66.791441 66.465921 66.270609 66.010192 65.81488 64.512798 64.057069 63.796653 63.471132 63.210716 62.885195 62.038842 61.778425 60.671656 60.476343 59.695094 59.239365 58.783636 58.393012 57.937283 57.546659 57.09093 56.700305 55.593535 55.202911 54.87739 54.486766 54.226349 53.054475 52.33833 52.077914 51.817497 51.557081 51.296664 50.189895 49.994582 49.213333 h 1.30209 0.32552 0.19531 0.26042 0.26041 0.26042 0.26042 1.10677 0.19531 0.78125 q -0.0326,0.667317 0.0651,1.10677 1.6276,-1.285806 3.45052,-1.562499 z"
       style="font-style:normal;font-variant:normal;font-weight:normal;font-stretch:normal;font-size:33.3333px;font-family:'Transport Heavy';-inkscape-font-specification:'Transport Heavy, ';text-align:center;text-anchor:middle"
       id="path3503" />
    <path
       d="m 159.79064,48.822708 q 7.95898,-0.113932 9.04947,7.747389 l 0.19531,0.846353 v 0.455729 q 0.13021,1.155598 0.0651,1.888019 l -0.19531,-0.0651 h -0.19532 -1.30208 -0.19531 -0.19531 -2.01823 -0.45573 -0.39062 -0.45573 -0.39063 -0.32552 -0.39062 -0.26042 -1.17187 -0.71615 -0.26041 -0.26042 -0.26042 -0.26041 -1.10677 -0.19531 -0.78125 q 0.35807,2.832029 2.92968,3.385413 3.20638,0.488281 5.33854,-1.627602 l 0.52083,0.585937 q 0.30924,0.211588 0.45573,0.455728 l 0.13021,0.0651 0.0651,0.130208 q 0.32552,0.24414 0.52083,0.455728 l 0.13021,0.195313 q 0.11393,0.0651 0.13021,0.130208 l 0.13021,0.0651 0.13021,0.130208 0.0651,0.130209 0.13021,0.0651 0.0651,0.130208 q 0.32552,0.24414 0.52084,0.455729 -3.07617,3.906246 -8.46354,2.929684 -6.59179,-1.123046 -7.48697,-8.007805 -0.58594,-8.72395 7.16145,-10.546865 z m 1.10677,4.036455 q -2.99479,0.472005 -3.51562,3.190101 h 0.39062 0.45573 0.84636 2.01822 0.91146 0.19531 0.32552 0.19532 0.26041 0.19532 1.30208 q -0.73242,-2.929685 -3.58073,-3.190101 z"
       style="font-style:normal;font-variant:normal;font-weight:normal;font-stretch:normal;font-size:33.3333px;font-family:'Transport Heavy';-inkscape-font-specification:'Transport Heavy, ';text-align:center;text-anchor:middle"
       id="path3505" />
    <path
       d="m 196.83046,42.18209 h 0.26041 0.32553 0.84635 0.26042 1.10676 0.19532 0.78125 v 24.804664 h -1.10677 -0.26042 -0.32552 -0.84635 -0.26042 -1.10677 -0.19531 -0.78125 v -1.10677 q -1.85547,1.43229 -3.90625,1.562498 -4.39452,0.358073 -6.83593,-2.734372 -2.88086,-4.215491 -1.82291,-9.309887 0.96028,-4.964188 5.20832,-6.445306 4.18294,-1.236978 7.35677,1.041665 v -0.390624 -0.846354 -0.260416 -1.10677 -0.195312 -0.781249 -0.716146 -0.32552 -0.846353 -0.260417 -1.10677 -0.195312 -0.781249 z m -5.59895,10.677073 q -2.76693,0.748697 -3.125,3.320309 -0.61849,2.636717 0.32552,4.817704 0.92773,1.855467 2.79948,2.083331 2.63671,0.162761 4.03645,-1.888019 0.16276,-0.504556 0.32552,-0.846353 v -0.195312 l 0.0651,-0.325521 v -0.260416 -0.325521 -0.846353 -0.260417 -1.106769 -0.195313 -0.781249 q -1.00911,-3.434241 -4.42707,-3.190101 z"
       style="font-style:normal;font-variant:normal;font-weight:normal;font-stretch:normal;font-size:33.3333px;font-family:'Transport Heavy';-inkscape-font-specification:'Transport Heavy, ';text-align:center;text-anchor:middle"
       id="path3507" />
    <path
       d="m 207.40766,41.986778 q 2.68554,-0.04883 3.32031,2.343747 0.0488,1.839191 -1.23698,2.864581 -2.94596,1.171874 -4.16666,-1.43229 -0.65104,-2.929685 2.08333,-3.776038 z m -0.78125,7.291659 h 0.26042 0.32552 0.84635 0.26042 1.10677 0.52083 0.45573 v 17.773421 h -0.91146 -0.71615 -0.32552 -0.19531 -0.26041 -0.19532 -1.30208 -0.19531 -0.78125 v -0.195313 -0.32552 -0.195312 -0.260417 -0.195312 -1.302082 -0.455729 -0.260416 -0.325521 -0.260416 -0.325521 -0.846353 -0.260417 -1.106769 -0.195313 -0.781249 -0.455729 -0.455728 -0.390625 -0.455729 -0.390624 -0.455729 -0.390625 -1.10677 -0.390624 -0.325521 -0.390624 -0.260417 -1.171874 -0.716145 -0.260416 -0.260417 -0.260416 -0.260416 -1.10677 -0.195313 -0.781249 z"
       style="font-style:normal;font-variant:normal;font-weight:normal;font-stretch:normal;font-size:33.3333px;font-family:'Transport Heavy';-inkscape-font-specification:'Transport Heavy, ';text-align:center;text-anchor:middle"
       id="path3509" />
    <path
       d="m 227.61805,42.116986 h 0.26042 1.10677 0.19531 0.78125 1.30208 0.26042 1.17187 0.19531 0.19532 2.01822 1.10677 0.52084 0.45573 0.26041 0.19531 1.30209 0.26041 0.19531 1.17188 0.84635 0.26042 1.10677 0.19531 0.78125 v 4.947912 h -1.30208 -0.39063 -1.10677 -0.19531 -0.78125 -0.84635 -0.26042 -1.10677 -0.19531 -0.78125 -0.71614 -0.32553 -0.84635 -0.26041 -1.10677 -0.19532 -0.78125 v 5.013016 h 0.19532 1.30208 0.84635 0.26042 1.17187 0.26042 0.26041 0.26042 1.10677 0.52083 0.45573 0.32552 0.84636 0.26041 1.10677 0.19531 0.78125 v 4.622391 h -0.91145 -0.19532 -0.32552 -0.19531 -0.26041 -0.19532 -1.30208 -0.84635 -0.45573 -0.91146 -0.19531 -1.17188 -0.84635 -0.26041 -1.10677 -0.19532 -0.78125 v 5.208329 q 0.13021,0.276692 0.45573,0.195312 h 0.52084 1.30208 0.39062 1.10677 0.19531 0.78125 0.84636 0.26041 1.10677 0.19532 0.78124 0.71615 0.32552 0.84635 0.26042 1.10677 0.19531 0.78125 v 4.947912 h -0.19531 -0.26042 -1.10677 -0.19531 -0.78125 -1.30208 -0.52083 -0.52084 -0.52083 -0.52083 -1.30208 -0.19532 -0.19531 -2.01823 -0.45572 -0.39063 -0.45573 -0.39062 -0.32552 -0.39063 -0.26041 -1.17188 -0.71614 -0.26042 -0.26042 -0.26041 -0.26042 -1.10677 -0.19531 -0.78125 v -0.260417 -1.171874 -0.520832 -0.520833 -0.195313 -0.260416 -1.171874 -0.195312 -1.302082 -0.520833 -0.260416 -1.171874 -0.195313 -0.195312 -2.018227 -0.455729 -0.195312 -0.260417 -1.171874 -0.911457 -0.195312 -0.325521 -0.195312 -0.260417 -0.195312 -1.302082 -1.10677 -0.195312 -0.781249 -0.846354 -0.260416 -1.10677 -0.195312 -0.781249 -0.716146 -0.32552 -0.846354 -0.260416 -1.10677 -0.195312 -0.781249 z"
       style="font-style:normal;font-variant:normal;font-weight:normal;font-stretch:normal;font-size:33.3333px;font-family:'Transport Heavy';-inkscape-font-specification:'Transport Heavy, ';text-align:center;text-anchor:middle"
       id="path3511" />
    <path
       d="m 256.08261,48.6925 q 4.98046,-0.292968 8.26822,2.669269 l -0.19531,0.195312 -0.19532,0.195312 q -0.21158,0.292969 -0.39062,0.455729 l -0.26042,0.260416 -0.19531,0.195313 q -0.29297,0.390624 -0.58594,0.585937 l -0.0651,0.130208 -0.13021,0.195312 -0.13021,0.0651 -0.84635,0.976562 q -4.24804,-3.531898 -6.57552,-0.716145 -0.0163,0.748697 0.32553,1.302082 l 0.26041,0.0651 0.19531,0.130208 h 0.19532 l 0.19531,0.0651 0.52083,0.0651 1.04167,0.260417 q 3.56445,0.03255 5.79426,2.213539 1.87175,2.783201 0.78125,5.598953 -1.07422,2.441404 -3.32031,3.255205 -7.30793,2.067056 -12.23957,-2.604164 0.30925,-0.4069 0.58594,-0.651041 l 0.26041,-0.130208 q 0.4069,-0.553385 0.91146,-0.846353 l 0.19531,-0.260417 0.13021,-0.130208 0.13021,-0.130208 0.13021,-0.130208 0.13021,-0.0651 0.13021,-0.06511 q 0.472,-0.602213 0.91145,-0.911457 3.25521,3.206377 6.57552,2.213539 l 0.0651,-0.130208 q 0.45573,-0.292968 0.71615,-0.716145 0.0651,-0.992837 -0.65104,-1.497394 h -0.19532 l -0.13021,-0.130208 h -0.19531 l -0.19531,-0.0651 -0.13021,-0.130208 q -0.99284,-0.16276 -1.6276,-0.390624 -5.74544,-0.260417 -6.44531,-5.078121 0.0814,-5.794265 6.25,-6.315098 z"
       style="font-style:normal;font-variant:normal;font-weight:normal;font-stretch:normal;font-size:33.3333px;font-family:'Transport Heavy';-inkscape-font-specification:'Transport Heavy, ';text-align:center;text-anchor:middle"
       id="path3513" />
    <path
       d="m 275.38376,48.822708 q 7.95898,-0.113932 9.04947,7.747389 l 0.19531,0.846353 v 0.455729 q 0.13021,1.155598 0.0651,1.888019 l -0.19532,-0.0651 h -0.19531 -1.30208 -0.19531 -0.19532 -2.01822 -0.45573 -0.39063 -0.45573 -0.39062 -0.32552 -0.39062 -0.26042 -1.17188 -0.71614 -0.26042 -0.26041 -0.26042 -0.26042 -1.10677 -0.19531 -0.78125 q 0.35808,2.832029 2.92969,3.385413 3.20637,0.488281 5.33853,-1.627602 l 0.52084,0.585937 q 0.30924,0.211588 0.45573,0.455728 l 0.1302,0.0651 0.0651,0.130208 q 0.32552,0.24414 0.52083,0.455728 l 0.13021,0.195313 q 0.11393,0.0651 0.13021,0.130208 l 0.13021,0.0651 0.1302,0.130208 0.0651,0.130209 0.13021,0.0651 0.0651,0.130208 q 0.32552,0.24414 0.52083,0.455729 -3.07617,3.906246 -8.46353,2.929684 -6.59179,-1.123046 -7.48697,-8.007805 -0.58594,-8.72395 7.16145,-10.546865 z m 1.10677,4.036455 q -2.99479,0.472005 -3.51562,3.190101 h 0.39062 0.45573 0.84635 2.01823 0.91146 0.19531 0.32552 0.19531 0.26042 0.19531 1.30208 q -0.73242,-2.929685 -3.58072,-3.190101 z"
       style="font-style:normal;font-variant:normal;font-weight:normal;font-stretch:normal;font-size:33.3333px;font-family:'Transport Heavy';-inkscape-font-specification:'Transport Heavy, ';text-align:center;text-anchor:middle"
       id="path3515" />
    <path
       d="m 297.06121,48.757604 q 3.54818,-0.309244 5.20833,2.343748 3.35286,-3.548174 7.55208,-1.757811 2.57161,1.155598 3.77603,3.450518 v 0.195312 q 0.0814,0.0651 0.0651,0.130208 0.0814,0.0651 0.0651,0.130209 l 0.39063,1.236978 v 0.195312 q 0.13021,0.748697 0.13021,1.302082 v 11.002594 h -1.10677 -0.26042 -0.32552 -0.84635 -0.26042 -1.10677 -0.19531 -0.78125 V 66.661233 65.81488 65.554463 65.294047 65.033631 63.926861 63.731548 62.950299 62.038842 61.583113 60.671656 60.476343 59.304469 58.458116 58.1977 57.09093 56.895617 56.114368 q -0.13021,-0.472005 -0.13021,-0.781249 -0.0977,-0.195312 -0.13021,-0.390625 -0.24414,-0.292968 -0.32552,-0.585937 l -0.13021,-0.0651 -0.0651,-0.130208 q -0.47201,-0.472005 -0.84636,-0.716145 -2.65299,-0.358073 -3.77603,2.083331 l -0.0651,0.455729 -0.0651,0.455729 v 10.546865 h -0.26042 -0.19531 -1.17187 -0.84636 -0.26041 -1.10677 -0.19532 -0.78125 V 66.661233 66.465921 65.619567 65.359151 65.098735 64.838318 64.643006 64.382589 63.210716 62.950299 62.689883 62.49457 62.234154 61.06228 60.801864 60.541447 60.281031 60.020614 59.825302 58.978949 58.327908 57.481554 56.830513 56.635201 l -0.0651,-0.455729 -0.19531,-1.171874 q -0.69987,-1.253254 -1.88802,-1.692706 -2.16471,0.179036 -3.1901,1.953123 -0.19531,0.716145 -0.19531,1.236978 v 10.481761 h -1.10677 -0.26042 -0.32552 -0.84635 -0.26042 -1.10677 -0.19531 -0.78125 V 66.791441 66.465921 66.270609 66.010192 65.81488 64.512798 64.057069 63.796653 63.471132 63.210716 62.885195 62.038842 61.778425 60.671656 60.476343 59.695094 59.239365 58.783636 58.393012 57.937283 57.546659 57.09093 56.700305 55.593535 55.202911 54.87739 54.486766 54.226349 53.054475 52.33833 52.077914 51.817497 51.557081 51.296664 50.189895 49.994582 49.213333 h 1.10677 0.26041 0.32552 0.84636 0.26041 1.10677 0.52084 0.45573 v 1.171874 q 1.67643,-1.334634 3.58072,-1.627603 z"
       style="font-style:normal;font-variant:normal;font-weight:normal;font-stretch:normal;font-size:33.3333px;font-family:'Transport Heavy';-inkscape-font-specification:'Transport Heavy, ';text-align:center;text-anchor:middle"
       id="path3517" />
    <path
       d="m 328.19503,48.497188 q 9.42382,0.08138 8.85416,10.872385 -0.53711,5.712886 -5.20833,7.617181 -4.28059,1.334634 -7.48697,-1.10677 v 6.445306 h -1.10677 -0.26042 -0.32552 -0.84635 -0.26042 -1.10677 -0.19531 -0.78125 v -0.520833 -0.520832 -0.520833 -0.520833 -0.455729 -0.520833 -0.455728 -0.195313 -0.32552 -0.195313 -0.260416 -0.195312 -1.302082 -0.260417 -1.171874 -0.390624 -0.455729 -1.302082 -0.520833 -0.520833 -0.520833 -0.520832 -1.302083 -0.195312 -0.195312 -2.018227 -0.455729 -0.390625 -0.455729 -0.390624 -0.325521 -0.390624 -0.260417 -1.171874 -0.716145 -0.260416 -0.260417 -0.260416 -0.260416 -1.10677 -0.195313 -0.781249 h 1.10677 0.26042 0.32552 0.84635 0.26042 1.10677 0.52083 0.45573 v 0.716145 q 1.88802,-1.253254 3.84114,-1.497394 z m -0.71614,4.361975 q -1.98568,0.602213 -2.92969,2.21354 v 0.195312 l -0.13021,0.520833 -0.13021,0.455728 v 3.710934 q 0.79753,2.766925 3.45052,3.124997 2.99479,0.211589 3.90625,-2.343747 0.91146,-2.750649 0.0651,-5.208329 -0.86263,-2.962236 -4.23176,-2.669268 z"
       style="font-style:normal;font-variant:normal;font-weight:normal;font-stretch:normal;font-size:33.3333px;font-family:'Transport Heavy';-inkscape-font-specification:'Transport Heavy, ';text-align:center;text-anchor:middle"
       id="path3519" />
    <path
       d="m 343.769,41.986778 q 2.68555,-0.04883 3.32031,2.343747 0.0488,1.839191 -1.23698,2.864581 -2.94596,1.171874 -4.16666,-1.43229 -0.65104,-2.929685 2.08333,-3.776038 z m -0.78125,7.291659 h 0.26042 0.32552 0.84635 0.26042 1.10677 0.52083 0.45573 v 17.773421 h -0.91146 -0.71614 -0.32552 -0.19532 -0.26041 -0.19531 -1.30209 -0.19531 -0.78125 v -0.195313 -0.32552 -0.195312 -0.260417 -0.195312 -1.302082 -0.455729 -0.260416 -0.325521 -0.260416 -0.325521 -0.846353 -0.260417 -1.106769 -0.195313 -0.781249 -0.455729 -0.455728 -0.390625 -0.455729 -0.390624 -0.455729 -0.390625 -1.10677 -0.390624 -0.325521 -0.390624 -0.260417 -1.171874 -0.716145 -0.260416 -0.260417 -0.260416 -0.260416 -1.10677 -0.195313 -0.781249 z"
       style="font-style:normal;font-variant:normal;font-weight:normal;font-stretch:normal;font-size:33.3333px;font-family:'Transport Heavy';-inkscape-font-specification:'Transport Heavy, ';text-align:center;text-anchor:middle"
       id="path3521" />
    <path
       d="m 358.88721,48.497188 q 6.41276,-0.04883 8.59374,5.338537 0.22787,0.292968 0.32552,0.585936 1.39974,5.664058 -1.36718,9.960928 -3.88997,4.475908 -9.24478,2.929685 -5.63151,-1.920571 -6.11979,-8.007805 -0.48828,-9.309887 7.81249,-10.807281 z m 0.26042,4.361975 q -3.54818,1.529946 -3.125,5.468745 -0.0976,4.182938 3.45052,4.947912 4.26432,-0.292969 3.84114,-6.249994 -0.50456,-4.117835 -4.16666,-4.166663 z"
       style="font-style:normal;font-variant:normal;font-weight:normal;font-stretch:normal;font-size:33.3333px;font-family:'Transport Heavy';-inkscape-font-specification:'Transport Heavy, ';text-align:center;text-anchor:middle"
       id="path3523" />
  </g>
</svg>
