<?xml version="1.0" encoding="UTF-8" standalone="no"?>
<svg
   xmlns:dc="http://purl.org/dc/elements/1.1/"
   xmlns:cc="http://creativecommons.org/ns#"
   xmlns:rdf="http://www.w3.org/1999/02/22-rdf-syntax-ns#"
   xmlns:svg="http://www.w3.org/2000/svg"
   xmlns="http://www.w3.org/2000/svg"
   version="1.1"
   width="400"
   height="600"
   id="svg3759">
  <metadata
     id="metadata2892">
    <rdf:RDF>
      <cc:Work
         rdf:about="">
        <dc:format>image/svg+xml</dc:format>
        <dc:type
           rdf:resource="http://purl.org/dc/dcmitype/StillImage" />
        <dc:title></dc:title>
      </cc:Work>
    </rdf:RDF>
  </metadata>
  <defs
     id="defs3763" />
  <rect
     style="fill:#ffffff;fill-opacity:1;stroke:#000000;stroke-width:3;stroke-miterlimit:4;stroke-dasharray:none"
     id="rect2842"
     width="397"
     height="597"
     x="1.5"
     y="1.5"
     rx="0"
     ry="0" />
  <rect
     style="fill:none;stroke:#000000;stroke-width:7.99999952;stroke-miterlimit:4;stroke-dasharray:none"
     id="rect3732"
     width="376"
     height="576"
     x="12"
     y="12"
     rx="30"
     ry="30" />
  <g
     id="g3440"
     transform="matrix(0.46955325,0,0,0.46955325,59.134024,99.006831)"
     style="stroke-width:2.12969">
    <g
       id="g1882"
       transform="matrix(3,0,0,3,-776.09399,52.538009)"
       style="stroke-width:2.12969" />
    <g
       id="g2461"
       transform="matrix(3,0,0,3,-471.70599,24.541009)"
       style="stroke-width:2.12969" />
    <path
       d="M 600,300 C 600.0277,465.67729 465.70502,600 300,600 134.29496,600 -0.02772571,465.67729 4.2927295e-6,300 -0.02772571,134.3227 134.29496,0 300,0 465.70502,0 600.02773,134.3227 600,300 Z"
       style="fill:#000000;fill-opacity:1;fill-rule:evenodd;stroke:none;stroke-width:2.12969"
       id="path1873" />
    <path
       d="M 596.99993,300 C 596.99993,464.02853 464.02854,596.99993 300,596.99993 135.97146,596.99993 3.0000743,464.02853 3.0000743,300 3.0000743,135.97146 135.97146,3.0000675 300,3.0000675 464.02854,3.0000675 596.99993,135.97146 596.99993,300 Z"
       style="fill:#ffffff;fill-opacity:1;fill-rule:evenodd;stroke:none;stroke-width:2.12969"
       id="path1875" />
    <path
       style="fill:#d40000;fill-opacity:1;fill-rule:evenodd;stroke:none;stroke-width:2.12969"
       d="M 300,9.00008 C 139.28515,9.00008 9.0000868,139.28515 9.0000868,300 9.0000868,460.71485 139.28516,590.99989 300,590.99992 460.71485,590.99992 590.99989,460.71485 590.99992,300 590.99992,139.28514 460.71485,9.00008 300,9.00008 Z m 0,74.99998 c 119.23194,0 215.99994,96.76797 215.99994,215.99994 0,53.37341 -19.44599,102.16956 -51.56248,139.87496 L 160.12504,135.56254 C 197.83043,103.44606 246.62662,84.00006 300,84.00006 Z M 133.50004,162.46879 437.53121,466.59371 C 400.16634,497.49253 352.23647,515.99994 300,515.99994 180.76807,515.99994 84.000067,419.23197 84.000067,300 c 0,-52.25846 18.577793,-100.15953 49.499973,-137.53121 z"
       id="path1877" />
    <path
       style="fill:#00408b;fill-opacity:1;fill-rule:evenodd;stroke:#ffffff;stroke-width:12.7781;stroke-miterlimit:4;stroke-dasharray:none;stroke-opacity:1"
       d="m 300,93.00006 c -47.62582,0 -91.47905,16.15348 -126.46872,43.21873 L 463.78121,426.46872 C 490.84645,391.47904 506.99994,347.62583 506.99994,300 506.99994,185.73603 414.26394,93.00006 300,93.00006 Z M 134.25004,175.96878 C 108.3392,210.53685 93.000067,253.50605 93.000067,300 c 0,114.26397 92.735993,206.99994 206.999933,206.99994 46.49393,0 89.46316,-15.33914 124.03122,-41.24998 z"
       id="path2770" />
  </g>
  <g
     aria-label="Comune di Esempio Gemeinde Esempio"
     id="text8097"
     style="font-style:normal;font-weight:normal;font-size:33.3199px;line-height:0.85;font-family:sans-serif;text-align:center;text-anchor:middle;fill:#000000;fill-opacity:1;stroke:none;stroke-width:0.999996">
    <path
       d="m 46.971312,26.255309 q 9.485108,-0.488084 12.494963,7.744274 l -0.260312,0.195234 -1.106325,0.390467 -0.260312,0.130156 -0.260311,0.06508 q -0.471815,0.276581 -0.846013,0.390468 l -0.32539,0.06508 -0.130156,0.130155 h -0.195234 l -0.130156,0.130156 h -0.195233 l -0.130156,0.130156 h -0.195234 l -0.130156,0.130156 -0.260312,0.06508 -0.715857,0.260312 q -1.626948,-5.905823 -7.54904,-4.750689 -4.587994,1.773373 -4.490377,6.833182 -0.601971,5.255043 2.538039,7.939508 2.586848,1.757104 5.401468,0.911091 3.546748,-1.155133 4.034832,-4.620533 0.61824,0.113886 1.041247,0.390468 0.667049,0.178964 1.106325,0.390467 l 0.260312,0.130156 0.390467,0.130156 0.195234,0.06508 0.455545,0.195234 0.260312,0.06508 0.195234,0.130155 q 0.32539,0.08135 0.520623,0.195234 l 0.780936,0.260312 q -2.603118,7.22365 -9.696612,7.809352 -7.174842,0.520623 -10.868014,-4.880845 -3.937215,-6.947069 -1.171403,-13.731444 2.798351,-6.458984 9.241066,-7.288728 z"
       style="font-style:normal;font-variant:normal;font-weight:normal;font-stretch:normal;font-family:'Transport Heavy';-inkscape-font-specification:'Transport Heavy, ';text-align:center;text-anchor:middle;stroke-width:0.999996"
       id="path8133" />
    <path
       d="m 68.983922,33.15357 q 6.410176,-0.04881 8.590287,5.33639 0.227773,0.292851 0.325389,0.585701 1.399176,5.66178 -1.366636,9.956924 -3.888406,4.474108 -9.241066,2.928507 -5.629241,-1.919799 -6.117326,-8.004586 -0.488084,-9.306144 7.809352,-10.802936 z m 0.260312,4.360221 q -3.546748,1.529332 -3.123741,5.466546 -0.09762,4.181257 3.44913,4.945923 4.262605,-0.292851 3.839598,-6.247481 -0.504354,-4.116179 -4.164987,-4.164988 z"
       style="font-style:normal;font-variant:normal;font-weight:normal;font-stretch:normal;font-family:'Transport Heavy';-inkscape-font-specification:'Transport Heavy, ';text-align:center;text-anchor:middle;stroke-width:0.999996"
       id="path8135" />
    <path
       d="m 90.589796,33.413882 q 3.546747,-0.309121 5.206235,2.342805 3.351513,-3.546747 7.549039,-1.757104 2.57058,1.155133 3.77452,3.44913 v 0.195234 q 0.0814,0.06508 0.0651,0.130156 0.0814,0.06508 0.0651,0.130156 l 0.39046,1.23648 v 0.195234 q 0.13016,0.748396 0.13016,1.301559 v 10.99817 h -1.10633 -0.26031 -0.32539 -0.84601 -0.26031 -1.10633 -0.19523 -0.78094 v -0.32539 -0.846013 -0.260311 -0.260312 -0.260312 -1.106325 -0.195233 -0.780936 -0.911091 -0.455545 -0.911091 -0.195234 -1.171403 -0.846013 -0.260312 -1.106324 -0.195234 -0.780935 q -0.13015,-0.471815 -0.13015,-0.780935 -0.0976,-0.195234 -0.13016,-0.390468 -0.24404,-0.292851 -0.32539,-0.585701 l -0.13015,-0.06508 -0.0651,-0.130156 q -0.47182,-0.471815 -0.84601,-0.715857 -2.651929,-0.357929 -3.774523,2.082493 l -0.06508,0.455546 -0.06508,0.455545 V 51.635702 H 97.097589 96.902355 95.730953 94.88494 94.624628 93.518303 93.323069 92.542134 V 51.310312 51.115079 50.269066 50.008754 49.748442 49.48813 49.292897 49.032585 47.861182 47.60087 47.340559 47.145325 46.885013 45.71361 45.453299 45.192987 44.932675 44.672364 44.47713 43.631117 42.980337 42.134324 41.483545 41.288311 l -0.06508,-0.455545 -0.195234,-1.171403 q -0.699587,-1.25275 -1.88726,-1.692026 -2.163841,0.178964 -3.188818,1.952338 -0.195234,0.715857 -0.195234,1.23648 V 51.635702 H 85.904185 85.643873 85.318484 84.472471 84.212159 83.105834 82.9106 82.129665 v -0.195234 -0.325389 -0.195234 -0.260312 -0.195234 -1.301558 -0.455546 -0.260311 -0.32539 -0.260312 -0.32539 -0.846013 -0.260311 -1.106325 -0.195234 -0.780935 -0.455546 -0.455545 -0.390468 -0.455545 -0.390468 -0.455545 -0.390468 -1.106325 -0.390467 -0.32539 -0.390468 -0.260311 -1.171403 -0.715857 -0.260312 -0.260312 -0.260311 -0.260312 -1.106325 -0.195234 -0.780935 h 1.106325 0.260312 0.325389 0.846013 0.260312 1.106325 0.520623 0.455546 v 1.171403 q 1.675757,-1.334098 3.579286,-1.626948 z"
       style="font-style:normal;font-variant:normal;font-weight:normal;font-stretch:normal;font-family:'Transport Heavy';-inkscape-font-specification:'Transport Heavy, ';text-align:center;text-anchor:middle;stroke-width:0.999996"
       id="path8137" />
    <path
       d="m 112.84644,33.869427 h 0.32539 0.26032 0.32539 0.26031 0.32539 0.84601 0.26031 1.10633 0.52062 0.45555 l 0.0651,11.64895 q 1.7083,3.286435 4.94593,1.431714 0.97616,-0.780935 1.36663,-1.822182 v -0.195234 -1.301558 -0.455546 -0.455545 -0.260312 -0.32539 -0.846013 -0.260312 -1.106324 -0.195234 -0.780935 -0.260312 -0.260312 -0.195234 -1.171402 -0.846013 -0.260312 -1.106325 -0.195234 -0.780935 h 1.30156 0.32539 0.19523 0.26032 0.26031 0.26031 0.26031 1.10633 0.19523 0.78094 v 17.766275 h -1.30156 -0.32539 -0.19524 -0.26031 -0.26031 -0.26031 -0.26031 -1.10633 -0.19523 -0.78094 v -1.171403 q -3.87213,2.798351 -7.74427,0.65078 -1.75711,-1.122595 -2.60312,-2.668195 l -0.13015,-0.06508 -0.0651,-0.195234 -0.0651,-0.195234 q -0.14643,-0.32539 -0.19523,-0.520623 l -0.0651,-0.195234 q -0.30912,-1.008708 -0.39047,-1.626949 l -0.0651,-1.431714 V 43.761273 43.370805 42.26448 42.069246 41.288311 40.442298 40.181986 39.075661 38.880428 38.099493 37.383635 37.058246 36.212233 35.951921 34.845596 34.650362 33.869427 Z"
       style="font-style:normal;font-variant:normal;font-weight:normal;font-stretch:normal;font-family:'Transport Heavy';-inkscape-font-specification:'Transport Heavy, ';text-align:center;text-anchor:middle;stroke-width:0.999996"
       id="path8139" />
    <path
       d="m 142.26167,33.413882 q 4.45784,-0.146426 6.96334,3.644364 l 0.0651,0.195233 0.0651,0.195234 0.0651,0.195234 q 0.1627,0.276581 0.19524,0.520623 l 0.26031,0.780936 v 0.195233 q 0.22777,1.171403 0.19523,1.88726 v 10.607703 h -1.30156 -0.32539 -0.19523 -0.26031 -0.26031 -0.26031 -0.26032 -1.10632 -0.19523 -0.78094 V 51.440468 51.115079 50.919845 50.659533 50.464299 49.162741 48.25165 47.535792 47.210403 47.015169 46.754857 46.559624 45.258065 44.997753 44.281896 43.631117 42.459714 42.26448 42.069246 41.808935 40.637532 40.37722 q -0.16269,-0.406737 -0.19523,-0.715857 -0.78094,-1.366637 -2.0825,-1.757104 -2.70073,-0.06508 -3.96975,2.082494 l -0.13016,0.455545 v 11.193404 h -1.30156 -0.32539 -0.19523 -0.26031 -0.26031 -0.26031 -0.26032 -1.10632 -0.19523 -0.78094 v -0.195234 -0.325389 -0.195234 -0.260312 -0.195234 -1.301558 -0.455546 -0.260311 -0.32539 -0.260312 -0.32539 -0.846013 -0.260311 -1.106325 -0.195234 -0.780935 -0.455546 -0.455545 -0.390468 -0.455545 -0.390468 -0.455545 -0.390468 -1.106325 -0.390467 -0.32539 -0.390468 -0.260311 -1.171403 -0.715857 -0.260312 -0.260312 -0.260311 -0.260312 -1.106325 -0.195234 -0.780935 h 1.30156 0.32539 0.19523 0.26031 0.26032 0.26031 0.26031 1.10632 0.19524 0.78093 q -0.0325,0.667049 0.0651,1.106325 1.62695,-1.285289 3.44913,-1.56187 z"
       style="font-style:normal;font-variant:normal;font-weight:normal;font-stretch:normal;font-family:'Transport Heavy';-inkscape-font-specification:'Transport Heavy, ';text-align:center;text-anchor:middle;stroke-width:0.999996"
       id="path8141" />
    <path
       d="m 161.60609,33.478959 q 7.95577,-0.113886 9.04583,7.744274 l 0.19523,0.846013 v 0.455546 q 0.13016,1.155133 0.0651,1.88726 l -0.19523,-0.06508 h -0.19524 -1.30156 -0.19523 -0.19523 -2.01742 -0.45554 -0.39047 -0.45555 -0.39047 -0.32538 -0.39047 -0.26031 -1.17141 -0.71585 -0.26032 -0.26031 -0.26031 -0.26031 -1.10633 -0.19523 -0.78093 q 0.35792,2.83089 2.9285,3.384052 3.20509,0.488085 5.33639,-1.626948 l 0.52063,0.585701 q 0.30912,0.211504 0.45554,0.455546 l 0.13016,0.06508 0.0651,0.130156 q 0.32538,0.244042 0.52062,0.455545 l 0.13015,0.195234 q 0.11389,0.06508 0.13016,0.130156 l 0.13016,0.06508 0.13015,0.130156 0.0651,0.130156 0.13016,0.06508 0.0651,0.130156 q 0.32539,0.244043 0.52063,0.455546 -3.07494,3.904676 -8.46013,2.928507 -6.58914,-1.122595 -7.48397,-8.004586 -0.5857,-8.720442 7.15858,-10.542625 z m 1.10632,4.034832 q -2.99358,0.471815 -3.51421,3.188819 h 0.39047 0.45555 0.84601 2.01742 0.91109 0.19523 0.32539 0.19523 0.26032 0.19523 1.30156 q -0.73213,-2.928507 -3.57929,-3.188819 z"
       style="font-style:normal;font-variant:normal;font-weight:normal;font-stretch:normal;font-family:'Transport Heavy';-inkscape-font-specification:'Transport Heavy, ';text-align:center;text-anchor:middle;stroke-width:0.999996"
       id="path8143" />
    <path
       d="m 197.43148,26.841011 h 0.26031 0.32539 0.84602 0.26031 1.10632 0.19524 0.78093 v 24.794691 h -1.10632 -0.26031 -0.32539 -0.84602 -0.26031 -1.10632 -0.19524 -0.78093 v -1.106325 q -1.85472,1.431715 -3.90468,1.561871 -4.39276,0.357928 -6.83318,-2.733273 -2.8797,-4.213796 -1.82218,-9.306145 0.9599,-4.962192 5.20623,-6.442715 4.18126,-1.23648 7.35381,1.041247 v -0.390467 -0.846013 -0.260312 -1.106325 -0.195234 -0.780935 -0.715857 -0.32539 -0.846013 -0.260312 -1.106325 -0.195233 -0.780935 z m -5.5967,10.67278 q -2.76581,0.748396 -3.12374,3.318975 -0.61824,2.635656 0.32539,4.815766 0.92736,1.854722 2.79835,2.082494 2.63566,0.162695 4.03483,-1.88726 0.1627,-0.504354 0.32539,-0.846013 v -0.195234 l 0.0651,-0.325389 v -0.260312 -0.32539 -0.846013 -0.260311 -1.106325 -0.195234 -0.780935 q -1.00871,-3.432861 -4.4253,-3.188819 z"
       style="font-style:normal;font-variant:normal;font-weight:normal;font-stretch:normal;font-family:'Transport Heavy';-inkscape-font-specification:'Transport Heavy, ';text-align:center;text-anchor:middle;stroke-width:0.999996"
       id="path8145" />
    <path
       d="m 207.40468,26.645777 q 2.68446,-0.04881 3.31897,2.342805 0.0488,1.838452 -1.23648,2.863429 -2.94478,1.171403 -4.16499,-1.431714 -0.65078,-2.928507 2.0825,-3.77452 z m -0.78094,7.288728 h 0.26031 0.32539 0.84602 0.26031 1.10632 0.52063 0.45554 V 51.70078 h -0.91109 -0.71586 -0.32539 -0.19523 -0.26031 -0.19524 -1.30156 -0.19523 -0.78093 V 51.505546 51.180157 50.984923 50.724611 50.529377 49.227819 48.772273 48.511961 48.186572 47.92626 47.60087 46.754857 46.494546 45.388221 45.192987 44.412052 43.956506 43.500961 43.110493 42.654948 42.26448 41.808935 41.418467 40.312142 39.921675 39.596285 39.205817 38.945506 37.774103 37.058246 36.797934 36.537622 36.27731 36.016999 34.910674 34.71544 33.934505 Z"
       style="font-style:normal;font-variant:normal;font-weight:normal;font-stretch:normal;font-family:'Transport Heavy';-inkscape-font-specification:'Transport Heavy, ';text-align:center;text-anchor:middle;stroke-width:0.999996"
       id="path8147" />
    <path
       d="m 226.40743,26.775933 h 0.26031 1.10632 0.19524 0.78093 1.30156 0.26031 1.17141 0.19523 0.19523 2.01742 1.10632 0.52063 0.45554 0.26032 0.19523 1.30156 0.26031 0.19523 1.17141 0.84601 0.26031 1.10633 0.19523 0.78093 v 4.945922 h -1.30155 -0.39047 -1.10633 -0.19523 -0.78094 -0.84601 -0.26031 -1.10632 -0.19524 -0.78093 -0.71586 -0.32539 -0.84601 -0.26032 -1.10632 -0.19523 -0.78094 v 5.011001 h 0.19523 1.30156 0.84602 0.26031 1.1714 0.26031 0.26031 0.26032 1.10632 0.52062 0.45555 0.32539 0.84601 0.26031 1.10633 0.19523 0.78094 v 4.620533 h -0.91109 -0.19524 -0.32539 -0.19523 -0.26031 -0.19524 -1.30155 -0.84602 -0.45554 -0.91109 -0.19524 -1.1714 -0.84601 -0.26032 -1.10632 -0.19523 -0.78094 v 5.206235 q 0.13016,0.276581 0.45555,0.195233 h 0.52062 1.30156 0.39047 1.10632 0.19523 0.78094 0.84601 0.26031 1.10633 0.19523 0.78094 0.71586 0.32539 0.84601 0.26031 1.10632 0.19524 0.78093 v 4.945923 h -0.19523 -0.26031 -1.10633 -0.19523 -0.78094 -1.30155 -0.52063 -0.52062 -0.52062 -0.52063 -1.30156 -0.19523 -0.19523 -2.01742 -0.45555 -0.39046 -0.45555 -0.39047 -0.32539 -0.39046 -0.26032 -1.1714 -0.71586 -0.26031 -0.26031 -0.26031 -0.26031 -1.10633 -0.19523 -0.78094 V 51.440468 50.269066 49.748442 49.227819 49.032585 48.772273 47.60087 47.405637 46.104078 45.583455 45.323143 44.15174 43.956506 43.761273 41.743857 41.288311 41.093077 40.832766 39.661363 38.750272 38.555038 38.229648 38.034415 37.774103 37.578869 36.27731 35.170986 34.975752 34.194817 33.348804 33.088492 31.982167 31.786933 31.005998 30.290141 29.964751 29.118738 28.858426 27.752102 27.556868 26.775933 Z"
       style="font-style:normal;font-variant:normal;font-weight:normal;font-stretch:normal;font-family:'Transport Heavy';-inkscape-font-specification:'Transport Heavy, ';text-align:center;text-anchor:middle;stroke-width:0.999996"
       id="path8149" />
    <path
       d="m 254.26079,33.348804 q 4.97846,-0.292851 8.2649,2.668195 l -0.19524,0.195234 -0.19523,0.195233 q -0.2115,0.292851 -0.39047,0.455546 l -0.26031,0.260312 -0.19523,0.195233 q -0.29285,0.390468 -0.58571,0.585702 l -0.0651,0.130156 -0.13016,0.195233 -0.13016,0.06508 -0.84601,0.976169 q -4.24633,-3.530477 -6.57287,-0.715857 -0.0163,0.748396 0.32539,1.301559 l 0.26031,0.06508 0.19524,0.130155 h 0.19523 l 0.19523,0.06508 0.52063,0.06508 1.04124,0.260312 q 3.56302,0.03254 5.79194,2.21265 1.87099,2.782081 0.78093,5.596702 -1.07378,2.440422 -3.31897,3.253896 -7.305,2.066225 -12.23465,-2.603117 0.30912,-0.406737 0.5857,-0.650779 l 0.26031,-0.130156 q 0.40674,-0.553163 0.91109,-0.846013 l 0.19524,-0.260312 0.13015,-0.130156 0.13016,-0.130156 0.13015,-0.130156 0.13016,-0.06508 0.13016,-0.06508 q 0.47181,-0.601971 0.91109,-0.911091 3.25389,3.205088 6.57287,2.212649 l 0.0651,-0.130156 q 0.45554,-0.29285 0.71585,-0.715857 0.0651,-0.992438 -0.65078,-1.496792 h -0.19523 l -0.13016,-0.130156 h -0.19523 l -0.19523,-0.06508 -0.13016,-0.130156 q -0.99244,-0.162695 -1.62695,-0.390468 -5.74312,-0.260311 -6.44271,-5.076078 0.0814,-5.791936 6.24748,-6.312559 z"
       style="font-style:normal;font-variant:normal;font-weight:normal;font-stretch:normal;font-family:'Transport Heavy';-inkscape-font-specification:'Transport Heavy, ';text-align:center;text-anchor:middle;stroke-width:0.999996"
       id="path8151" />
    <path
       d="m 272.95443,33.478959 q 7.95578,-0.113886 9.04583,7.744274 l 0.19524,0.846013 v 0.455546 q 0.13015,1.155133 0.0651,1.88726 l -0.19523,-0.06508 h -0.19523 -1.30156 -0.19524 -0.19523 -2.01742 -0.45554 -0.39047 -0.45554 -0.39047 -0.32539 -0.39047 -0.26031 -1.1714 -0.71586 -0.26031 -0.26031 -0.26032 -0.26031 -1.10632 -0.19524 -0.78093 q 0.35793,2.83089 2.9285,3.384052 3.20509,0.488085 5.3364,-1.626948 l 0.52062,0.585701 q 0.30912,0.211504 0.45554,0.455546 l 0.13016,0.06508 0.0651,0.130156 q 0.32539,0.244042 0.52062,0.455545 l 0.13016,0.195234 q 0.11388,0.06508 0.13015,0.130156 l 0.13016,0.06508 0.13015,0.130156 0.0651,0.130156 0.13016,0.06508 0.0651,0.130156 q 0.32539,0.244043 0.52062,0.455546 -3.07493,3.904676 -8.46013,2.928507 -6.58914,-1.122595 -7.48396,-8.004586 -0.5857,-8.720442 7.15857,-10.542625 z m 1.10632,4.034832 q -2.99358,0.471815 -3.5142,3.188819 h 0.39046 0.45555 0.84601 2.01742 0.91109 0.19523 0.32539 0.19524 0.26031 0.19523 1.30156 q -0.73213,-2.928507 -3.57929,-3.188819 z"
       style="font-style:normal;font-variant:normal;font-weight:normal;font-stretch:normal;font-family:'Transport Heavy';-inkscape-font-specification:'Transport Heavy, ';text-align:center;text-anchor:middle;stroke-width:0.999996"
       id="path8153" />
    <path
       d="m 294.02341,33.413882 q 3.54674,-0.309121 5.20623,2.342805 3.35151,-3.546747 7.54904,-1.757104 2.57058,1.155133 3.77452,3.44913 v 0.195234 q 0.0813,0.06508 0.0651,0.130156 0.0813,0.06508 0.0651,0.130156 l 0.39046,1.23648 v 0.195234 q 0.13016,0.748396 0.13016,1.301559 v 10.99817 h -1.10633 -0.26031 -0.32539 -0.84601 -0.26031 -1.10633 -0.19523 -0.78094 v -0.32539 -0.846013 -0.260311 -0.260312 -0.260312 -1.106325 -0.195233 -0.780936 -0.911091 -0.455545 -0.911091 -0.195234 -1.171403 -0.846013 -0.260312 -1.106324 -0.195234 -0.780935 q -0.13015,-0.471815 -0.13015,-0.780935 -0.0976,-0.195234 -0.13016,-0.390468 -0.24404,-0.292851 -0.32539,-0.585701 l -0.13015,-0.06508 -0.0651,-0.130156 q -0.47182,-0.471815 -0.84601,-0.715857 -2.65193,-0.357929 -3.77452,2.082493 l -0.0651,0.455546 -0.0651,0.455545 v 10.542625 h -0.26031 -0.19524 -1.1714 -0.84601 -0.26031 -1.10633 -0.19523 -0.78094 V 51.310312 51.115079 50.269066 50.008754 49.748442 49.48813 49.292897 49.032585 47.861182 47.60087 47.340559 47.145325 46.885013 45.71361 45.453299 45.192987 44.932675 44.672364 44.47713 43.631117 42.980337 42.134324 41.483545 41.288311 l -0.0651,-0.455545 -0.19524,-1.171403 q -0.69959,-1.25275 -1.88726,-1.692026 -2.16384,0.178964 -3.18882,1.952338 -0.19523,0.715857 -0.19523,1.23648 v 10.477547 h -1.10633 -0.26031 -0.32539 -0.84601 -0.26031 -1.10633 -0.19523 -0.78094 v -0.195234 -0.325389 -0.195234 -0.260312 -0.195234 -1.301558 -0.455546 -0.260311 -0.32539 -0.260312 -0.32539 -0.846013 -0.260311 -1.106325 -0.195234 -0.780935 -0.455546 -0.455545 -0.390468 -0.455545 -0.390468 -0.455545 -0.390468 -1.106325 -0.390467 -0.32539 -0.390468 -0.260311 -1.171403 -0.715857 -0.260312 -0.260312 -0.260311 -0.260312 -1.106325 -0.195234 -0.780935 h 1.10633 0.26031 0.32539 0.84601 0.26032 1.10632 0.52062 0.45555 v 1.171403 q 1.67576,-1.334098 3.57929,-1.626948 z"
       style="font-style:normal;font-variant:normal;font-weight:normal;font-stretch:normal;font-family:'Transport Heavy';-inkscape-font-specification:'Transport Heavy, ';text-align:center;text-anchor:middle;stroke-width:0.999996"
       id="path8155" />
    <path
       d="m 324.54497,33.15357 q 9.42003,0.08135 8.85059,10.868014 -0.53689,5.710589 -5.20623,7.614118 -4.27887,1.334098 -7.48396,-1.106325 v 6.442715 h -1.10633 -0.26031 -0.32539 -0.84601 -0.26031 -1.10633 -0.19523 -0.78094 V 56.451469 55.930846 55.410222 54.889599 54.434053 53.91343 53.457884 53.26265 52.937261 52.742027 52.481715 52.286481 50.984923 50.724611 49.553208 49.162741 48.707195 47.405637 46.885013 46.36439 45.843766 45.323143 44.021584 43.82635 43.631117 41.613701 41.158155 40.767688 40.312142 39.921675 39.596285 39.205817 38.945506 37.774103 37.058246 36.797934 36.537622 36.27731 36.016999 34.910674 34.71544 33.934505 h 1.10633 0.26031 0.32539 0.84601 0.26031 1.10633 0.52062 0.45555 v 0.715857 q 1.88726,-1.25275 3.8396,-1.496792 z m -0.71586,4.360221 q -1.98488,0.601971 -2.92851,2.21265 v 0.195234 l -0.13015,0.520623 -0.13016,0.455546 v 3.709442 q 0.7972,2.765812 3.44913,3.12374 2.99359,0.211504 3.90468,-2.342805 0.91109,-2.749543 0.0651,-5.206235 -0.86228,-2.961046 -4.23006,-2.668195 z"
       style="font-style:normal;font-variant:normal;font-weight:normal;font-stretch:normal;font-family:'Transport Heavy';-inkscape-font-specification:'Transport Heavy, ';text-align:center;text-anchor:middle;stroke-width:0.999996"
       id="path8157" />
    <path
       d="m 339.51288,26.645777 q 2.68446,-0.04881 3.31897,2.342805 0.0488,1.838452 -1.23648,2.863429 -2.94478,1.171403 -4.16499,-1.431714 -0.65078,-2.928507 2.0825,-3.77452 z m -0.78094,7.288728 h 0.26031 0.32539 0.84602 0.26031 1.10632 0.52063 0.45554 V 51.70078 h -0.91109 -0.71586 -0.32539 -0.19523 -0.26031 -0.19524 -1.30156 -0.19523 -0.78093 V 51.505546 51.180157 50.984923 50.724611 50.529377 49.227819 48.772273 48.511961 48.186572 47.92626 47.60087 46.754857 46.494546 45.388221 45.192987 44.412052 43.956506 43.500961 43.110493 42.654948 42.26448 41.808935 41.418467 40.312142 39.921675 39.596285 39.205817 38.945506 37.774103 37.058246 36.797934 36.537622 36.27731 36.016999 34.910674 34.71544 33.934505 Z"
       style="font-style:normal;font-variant:normal;font-weight:normal;font-stretch:normal;font-family:'Transport Heavy';-inkscape-font-specification:'Transport Heavy, ';text-align:center;text-anchor:middle;stroke-width:0.999996"
       id="path8159" />
    <path
       d="m 354.02527,33.15357 q 6.41017,-0.04881 8.59028,5.33639 0.22778,0.292851 0.32539,0.585701 1.39918,5.66178 -1.36663,9.956924 -3.88841,4.474108 -9.24107,2.928507 -5.62924,-1.919799 -6.11732,-8.004586 -0.48809,-9.306144 7.80935,-10.802936 z m 0.26031,4.360221 q -3.54675,1.529332 -3.12374,5.466546 -0.0976,4.181257 3.44913,4.945923 4.2626,-0.292851 3.8396,-6.247481 -0.50436,-4.116179 -4.16499,-4.164988 z"
       style="font-style:normal;font-variant:normal;font-weight:normal;font-stretch:normal;font-family:'Transport Heavy';-inkscape-font-specification:'Transport Heavy, ';text-align:center;text-anchor:middle;stroke-width:0.999996"
       id="path8161" />
  </g>
  <g
     aria-label="Obcina Esempio"
     id="text11253"
     style="font-style:normal;font-variant:normal;font-weight:normal;font-stretch:normal;font-size:32.9911px;line-height:1.25;font-family:'Transport Heavy';-inkscape-font-specification:'Transport Heavy, ';fill:#000000;fill-opacity:1;stroke:none;stroke-width:1">
    <path
       d="m 79.541741,56.209124 q 10.937968,0.08054 12.500534,11.211819 0.692685,9.98754 -7.023495,13.660377 -7.458438,2.706302 -12.693842,-2.126379 -5.573692,-6.282485 -3.092915,-14.433606 2.706301,-7.748398 10.309718,-8.312211 z m 0.128872,4.897116 q -6.185831,1.175953 -5.670346,9.021004 0.241635,4.639374 3.801709,6.572446 h 0.193308 q 0.306069,0.177198 0.579921,0.193307 l 0.128872,0.06444 0.773229,0.193307 q 6.79797,-0.06444 7.087931,-6.95906 0.596031,-8.859915 -6.894624,-9.08544 z"
       style="stroke-width:1"
       id="path11934" />
    <path
       d="m 95.747332,56.917917 h 0.257743 0.322178 0.837665 0.257743 1.095408 0.515485 0.451051 v 7.667853 q 5.074315,-2.915717 9.407615,0.193308 0.45105,0.225525 0.64436,0.45105 l 0.70879,0.773229 q 3.02848,5.525365 1.09541,10.954076 -1.70755,4.284977 -5.86365,4.897116 -3.51175,0.563813 -5.92809,-1.482022 -0.128871,0.596031 -0.06444,1.095408 H 98.389197 98.131454 97.809275 96.971611 96.713868 95.61846 95.425153 94.651924 V 80.952449 79.663734 79.148248 78.954941 78.697198 77.537355 77.344047 76.055333 75.539847 75.282104 74.12226 73.928953 73.735646 71.738138 71.287088 71.09378 70.836037 69.676194 68.774094 68.580786 68.258608 68.0653 67.807557 67.61425 66.325535 65.230128 65.036821 64.263592 63.425927 63.168184 62.072776 61.879469 61.10624 60.397447 60.075268 59.237604 58.979861 57.884453 57.691146 56.917917 Z m 6.894628,10.567462 q -1.96529,0.547704 -2.899612,2.126379 l -0.257743,1.095408 v 3.995016 q 1.192065,3.17346 4.317195,2.899608 3.33455,-0.708793 3.35066,-4.123887 0.61214,-5.91198 -4.5105,-5.992524 z"
       style="stroke-width:1"
       id="path11936" />
    <path
       d="m 122.81034,63.168184 q 6.6691,-0.06444 8.8277,5.799217 l -0.25774,0.128871 q -0.41883,0.09665 -0.70879,0.257743 l -0.25775,0.06444 -0.25774,0.06444 q -0.3544,0.193307 -0.70879,0.257743 -0.0967,0.06444 -0.19331,0.06444 -0.25774,0.16109 -0.51549,0.193308 l -0.45105,0.193307 q -0.70879,0.30607 -1.22428,0.386614 -0.98264,-3.076806 -3.93058,-3.092915 -3.17346,1.337041 -3.09291,4.574937 -0.33829,2.851282 1.35315,4.768245 1.64311,1.530349 3.47953,0.708794 1.75587,-0.982645 2.19081,-2.770737 h 0.19331 l 0.25774,0.128871 0.45105,0.128872 0.12888,0.128871 q 0.66046,0.144981 1.0954,0.386615 l 0.19331,0.06444 0.25774,0.06444 0.19331,0.06444 q 0.24163,0.14498 0.51549,0.193307 l 0.1933,0.06444 0.12888,0.128871 q 0.57992,0.128872 0.96653,0.322179 -2.67408,6.266376 -9.021,5.670345 -6.89463,-1.272606 -7.47455,-8.31221 -0.41883,-9.101549 7.66785,-10.631898 z"
       style="stroke-width:1"
       id="path11938" />
    <path
       d="m 136.85733,56.72461 q 2.65798,-0.04833 3.28623,2.319686 0.0483,1.82031 -1.22428,2.835173 -2.91572,1.159844 -4.12389,-1.417586 -0.64436,-2.899609 2.06194,-3.737273 z m -0.77322,7.216803 h 0.25774 0.32218 0.83766 0.25774 1.09541 0.51549 0.45105 v 17.590958 h -0.9021 -0.7088 -0.32217 -0.19331 -0.25774 -0.19331 -1.28872 -0.1933 -0.77323 v -0.193308 -0.322178 -0.193307 -0.257743 -0.193308 -1.288715 -0.45105 -0.257743 -0.322178 -0.257743 -0.322179 -0.837665 -0.257743 -1.095407 -0.193308 -0.773229 -0.45105 -0.45105 -0.386614 -0.451051 -0.386614 -0.45105 -0.386615 -1.095407 -0.386615 -0.322178 -0.386615 -0.257743 -1.159843 -0.708793 -0.257743 -0.257743 -0.257743 -0.257743 -1.095408 -0.193307 -0.773229 z"
       style="stroke-width:1"
       id="path11940" />
    <path
       d="m 152.51522,63.425927 q 4.41385,-0.14498 6.89463,3.608402 l 0.0644,0.193307 0.0644,0.193307 0.0644,0.193307 q 0.16108,0.273852 0.1933,0.515486 l 0.25775,0.773229 v 0.193307 q 0.22552,1.159844 0.1933,1.868637 v 10.503026 h -1.28871 -0.32218 -0.19331 -0.25774 -0.25774 -0.25775 -0.25774 -1.09541 -0.19331 -0.77322 v -0.193307 -0.322179 -0.193307 -0.257743 -0.193307 -1.288715 -0.902101 -0.708793 -0.322179 -0.193307 -0.257743 -0.193307 -1.288715 -0.257743 -0.708793 -0.644357 -1.159844 -0.193307 -0.193307 -0.257743 -1.159844 -0.257743 q -0.16109,-0.402723 -0.19331,-0.708793 -0.77323,-1.35315 -2.06194,-1.739765 -2.67409,-0.06444 -3.93059,2.061944 l -0.12887,0.45105 v 11.082948 h -1.28871 -0.32218 -0.19331 -0.25774 -0.25774 -0.25775 -0.25774 -1.09541 -0.1933 -0.77323 v -0.193307 -0.322179 -0.193307 -0.257743 -0.193307 -1.288715 -0.45105 -0.257743 -0.322179 -0.257743 -0.322179 -0.837665 -0.257742 -1.095408 -0.193307 -0.773229 -0.45105 -0.451051 -0.386614 -0.45105 -0.386615 -0.45105 -0.386614 -1.095408 -0.386615 -0.322178 -0.386615 -0.257743 -1.159843 -0.708793 -0.257743 -0.257743 -0.257743 -0.257743 -1.095408 -0.193307 -0.773229 h 1.28871 0.32218 0.19331 0.25774 0.25774 0.25775 0.25774 1.09541 0.1933 0.77323 q -0.0322,0.660467 0.0644,1.095408 1.61089,-1.272606 3.41509,-1.546458 z"
       style="stroke-width:1"
       id="path11942" />
    <path
       d="m 170.87941,63.168184 q 4.41385,-0.289961 7.34567,2.190815 l 0.0644,0.128872 q 0.25774,0.322178 0.38661,0.644357 0.33829,0.499377 0.45105,0.902101 v 0.257743 q 0.19331,0.628248 0.19331,1.095407 v 6.314703 q -0.0644,1.594785 0.12887,2.641865 0.78934,0.821556 1.8042,1.030972 l -0.12887,0.193308 -0.12887,0.322178 -0.12887,0.257743 -0.0644,0.193307 -0.0644,0.193308 -0.12887,0.193307 -0.25775,0.644357 -0.12887,0.193308 -0.0644,0.193307 -0.0644,0.193307 -0.0644,0.128871 -0.45105,0.966537 q -2.86739,0.01611 -4.31719,-1.804201 -2.75463,2.738519 -6.83019,1.35315 -3.75338,-1.030971 -4.38163,-4.574937 0.0322,-5.203187 4.89712,-6.05696 0.25774,-0.161089 0.51548,-0.193307 h 0.19331 q 0.0966,-0.06444 0.19331,-0.06444 l 0.1933,-0.06444 1.15985,-0.193307 0.51548,-0.06444 0.19331,-0.06444 1.09541,-0.06443 q 0.86988,-0.128872 1.41759,-0.06444 0.24163,-3.592293 -3.93059,-2.448558 l -0.1933,0.06444 -0.51549,0.06444 -0.45105,0.193307 -0.19331,0.06444 -0.64435,0.193307 q -0.49938,0.338288 -0.9021,0.451051 -0.54771,0.418832 -1.09541,0.579921 l -0.45105,-0.837664 -0.12887,-0.06444 -0.0644,-0.193307 -0.12887,-0.128872 -0.0644,-0.193307 q -0.41883,-0.483268 -0.57992,-0.9021 -0.25774,-0.241634 -0.32218,-0.515486 -0.41883,-0.402724 -0.51548,-0.837665 l 0.12887,-0.06444 0.19331,-0.128871 0.12887,-0.06444 q 0.43494,-0.289961 0.77323,-0.45105 0.25774,-0.177199 0.51548,-0.193307 l 0.12887,-0.128872 q 0.59603,-0.273852 1.03098,-0.386614 l 0.12887,-0.128872 h 0.1933 q 0.30607,-0.193307 0.51549,-0.257743 h 0.19331 q 0.43494,-0.225525 0.83766,-0.257743 0.88599,-0.370505 1.67533,-0.386614 z m 3.09291,10.631898 h -0.1933 q -0.38662,0.112762 -0.64436,0.128871 h -0.19331 q -0.0967,0.06444 -0.1933,0.06444 l -0.25775,0.06444 h -0.1933 l -0.25775,0.06444 -0.38661,0.06444 q -0.0967,0.06444 -0.19331,0.06444 l -0.25774,0.06444 -0.19331,0.06444 q -0.9021,0.225525 -1.41759,0.45105 -0.67657,0.902101 -0.38661,1.868637 1.61089,2.255251 4.63937,0.773229 l 0.51549,-0.773229 0.0644,-0.257743 v -0.257743 -0.193307 -0.322179 -0.193307 -0.257743 -0.193307 -1.288715 h -0.19331 z"
       style="stroke-width:1"
       id="path11944" />
    <path
       d="m 195.88047,56.853481 h 0.25775 1.0954 0.19331 0.77323 1.28872 0.25774 1.15984 0.19331 0.19331 1.9975 1.09541 0.51549 0.45105 0.25774 0.19331 1.28871 0.25775 0.1933 1.15985 0.83766 0.25774 1.09541 0.19331 0.77323 v 4.897117 h -1.28872 -0.38661 -1.09541 -0.19331 -0.77323 -0.83766 -0.25774 -1.09541 -0.19331 -0.77323 -0.70879 -0.32218 -0.83766 -0.25775 -1.0954 -0.19331 -0.77323 v 4.961552 h 0.19331 1.28871 0.83767 0.25774 1.15984 0.25775 0.25774 0.25774 1.09541 0.51549 0.45105 0.32217 0.83767 0.25774 1.09541 0.19331 0.77323 v 4.574938 h -0.9021 -0.19331 -0.32218 -0.19331 -0.25774 -0.19331 -1.28871 -0.83767 -0.45105 -0.9021 -0.1933 -1.15985 -0.83766 -0.25775 -1.0954 -0.19331 -0.77323 v 5.154859 q 0.12887,0.273852 0.45105,0.193307 h 0.51549 1.28871 0.38662 1.0954 0.19331 0.77323 0.83766 0.25775 1.0954 0.19331 0.77323 0.70879 0.32218 0.83767 0.25774 1.09541 0.19331 0.77322 v 4.897117 h -0.1933 -0.25775 -1.0954 -0.19331 -0.77323 -1.28871 -0.51549 -0.51549 -0.51548 -0.51549 -1.28871 -0.19331 -0.19331 -1.99751 -0.45105 -0.38661 -0.45105 -0.38662 -0.32217 -0.38662 -0.25774 -1.15984 -0.7088 -0.25774 -0.25774 -0.25775 -0.25774 -1.09541 -0.1933 -0.77323 V 81.274628 80.114784 79.599298 79.083812 78.890505 78.632762 77.472919 77.279612 75.990897 75.475411 75.217668 74.057825 73.864517 73.67121 71.673702 71.222652 71.029345 70.771602 69.611758 68.709658 68.516351 68.194172 68.000865 67.743122 67.549814 66.2611 65.165692 64.972385 64.199156 63.361491 63.103748 62.008341 61.815033 61.041804 60.333011 60.010833 59.173168 58.915425 57.820017 57.62671 56.853481 Z"
       style="stroke-width:1"
       id="path11946" />
    <path
       d="m 223.45897,63.361491 q 4.92933,-0.289961 8.18334,2.641866 l -0.19331,0.193307 -0.19331,0.193307 q -0.20941,0.289961 -0.38661,0.45105 l -0.25774,0.257743 -0.19331,0.193308 q -0.28996,0.386614 -0.57992,0.579921 l -0.0644,0.128872 -0.12887,0.193307 -0.12887,0.06444 -0.83767,0.966536 q -4.20443,-3.495639 -6.50801,-0.708793 -0.0161,0.741011 0.32218,1.288714 l 0.25775,0.06444 0.1933,0.128872 h 0.19331 l 0.19331,0.06444 0.51548,0.06444 1.03098,0.257743 q 3.52785,0.03222 5.73478,2.190815 1.85252,2.754628 0.77323,5.541474 -1.06319,2.416341 -3.28623,3.221787 -7.23291,2.045835 -12.11392,-2.577429 0.30607,-0.402724 0.57992,-0.644358 l 0.25775,-0.128871 q 0.40272,-0.547704 0.9021,-0.837665 l 0.19331,-0.257743 0.12887,-0.128871 0.12887,-0.128872 0.12887,-0.128871 0.12887,-0.06444 0.12887,-0.06444 q 0.46716,-0.59603 0.9021,-0.9021 3.22179,3.17346 6.50801,2.190815 l 0.0644,-0.128871 q 0.45105,-0.289961 0.70879,-0.708794 0.0644,-0.982645 -0.64436,-1.482022 h -0.1933 l -0.12887,-0.128871 h -0.19331 l -0.19331,-0.06444 -0.12887,-0.128871 q -0.98264,-0.16109 -1.61089,-0.386615 -5.68646,-0.257743 -6.37914,-5.025988 0.0805,-5.734781 6.18583,-6.250267 z"
       style="stroke-width:1"
       id="path11948" />
    <path
       d="m 241.96813,63.490363 q 7.87727,-0.112763 8.95657,7.667853 l 0.19331,0.837665 v 0.45105 q 0.12887,1.143734 0.0644,1.868636 l -0.1933,-0.06444 h -0.19331 -1.28872 -0.1933 -0.19331 -1.99751 -0.45105 -0.38661 -0.45105 -0.38662 -0.32218 -0.38661 -0.25774 -1.15985 -0.70879 -0.25774 -0.25775 -0.25774 -0.25774 -1.09541 -0.19331 -0.77323 q 0.3544,2.802955 2.89961,3.350658 3.17346,0.483268 5.28373,-1.610893 l 0.51549,0.579921 q 0.30607,0.209417 0.45105,0.451051 l 0.12887,0.06444 0.0644,0.128872 q 0.32218,0.241634 0.51548,0.45105 l 0.12887,0.193307 q 0.11277,0.06444 0.12888,0.128872 l 0.12887,0.06444 0.12887,0.128871 0.0644,0.128872 0.12888,0.06443 0.0644,0.128872 q 0.32218,0.241634 0.51549,0.45105 -3.04459,3.866145 -8.37665,2.899608 -6.52412,-1.111516 -7.41011,-7.925596 -0.57992,-8.63439 7.08793,-10.43859 z m 1.09541,3.995016 q -2.96404,0.467159 -3.47953,3.157351 h 0.38661 0.45105 0.83767 1.99751 0.9021 0.1933 0.32218 0.19331 0.25774 0.19331 1.28872 q -0.72491,-2.899608 -3.54397,-3.157351 z"
       style="stroke-width:1"
       id="path11950" />
    <path
       d="m 262.82921,63.425927 q 3.51175,-0.30607 5.15486,2.319687 3.31844,-3.511748 7.47455,-1.739765 2.54521,1.143734 3.73727,3.415094 v 0.193307 q 0.0805,0.06444 0.0644,0.128872 0.0805,0.06444 0.0644,0.128871 l 0.38662,1.224279 v 0.193308 q 0.12887,0.741011 0.12887,1.288714 v 10.889641 h -1.09541 -0.25774 -0.32218 -0.83767 -0.25774 -1.09541 -0.1933 -0.77323 v -0.322179 -0.837664 -0.257743 -0.257743 -0.257743 -1.095408 -0.193307 -0.773229 -0.902101 -0.45105 -0.9021 -0.193307 -1.159844 -0.837664 -0.257743 -1.095408 -0.193307 -0.773229 q -0.12888,-0.467159 -0.12888,-0.773229 -0.0967,-0.193307 -0.12887,-0.386614 -0.24163,-0.289961 -0.32218,-0.579922 l -0.12887,-0.06444 -0.0644,-0.128871 q -0.46716,-0.46716 -0.83767,-0.708794 -2.62575,-0.354396 -3.73727,2.061944 l -0.0644,0.45105 -0.0644,0.451051 v 10.43859 h -0.25774 -0.19331 -1.15985 -0.83766 -0.25774 -1.09541 -0.19331 -0.77323 V 81.145756 80.952449 80.114784 79.857041 79.599298 79.341555 79.148248 78.890505 77.730662 77.472919 77.215176 77.021869 76.764126 75.604282 75.346539 75.088796 74.831053 74.57331 74.380003 73.542339 72.897981 72.060316 71.415959 71.222652 l -0.0644,-0.45105 -0.19331,-1.159844 q -0.69268,-1.240388 -1.86864,-1.675329 -2.14248,0.177198 -3.15735,1.933072 -0.1933,0.708793 -0.1933,1.224279 v 10.374155 h -1.09541 -0.25775 -0.32217 -0.83767 -0.25774 -1.09541 -0.19331 -0.77323 v -0.193307 -0.322179 -0.193307 -0.257743 -0.193307 -1.288715 -0.45105 -0.257743 -0.322179 -0.257743 -0.322179 -0.837665 -0.257742 -1.095408 -0.193307 -0.773229 -0.45105 -0.451051 -0.386614 -0.45105 -0.386615 -0.45105 -0.386614 -1.095408 -0.386615 -0.322178 -0.386615 -0.257743 -1.159843 -0.708793 -0.257743 -0.257743 -0.257743 -0.257743 -1.095408 -0.193307 -0.773229 h 1.09541 0.25775 0.32217 0.83767 0.25774 1.09541 0.51549 0.45105 v 1.159844 q 1.65922,-1.320933 3.54396,-1.610894 z"
       style="stroke-width:1"
       id="path11952" />
    <path
       d="m 293.04958,63.168184 q 9.32707,0.08055 8.76326,10.760769 -0.5316,5.654236 -5.15486,7.538982 -4.23665,1.320933 -7.41011,-1.095408 v 6.379139 h -1.09541 -0.25774 -0.32218 -0.83766 -0.25775 -1.0954 -0.19331 -0.77323 V 86.23618 85.720694 85.205208 84.689722 84.238672 83.723186 83.272136 83.078829 82.75665 82.563343 82.3056 82.112292 80.823578 80.565835 79.405991 79.019377 78.568327 77.279612 76.764126 76.24864 75.733154 75.217668 73.928953 73.735646 73.542339 71.544831 71.09378 70.707166 70.256116 69.869501 69.547323 69.160708 68.902965 67.743122 67.034329 66.776586 66.518843 66.2611 66.003357 64.907949 64.714642 63.941413 h 1.09541 0.25774 0.32218 0.83766 0.25775 1.0954 0.51549 0.45105 v 0.708793 q 1.86864,-1.240388 3.80171,-1.482022 z m -0.70879,4.317195 q -1.96529,0.59603 -2.89961,2.190815 v 0.193307 l -0.12887,0.515486 -0.12888,0.45105 v 3.672838 q 0.78934,2.738519 3.4151,3.092915 2.96404,0.209417 3.86614,-2.319686 0.9021,-2.722411 0.0644,-5.15486 -0.85377,-2.931826 -4.18832,-2.641865 z"
       style="stroke-width:1"
       id="path11954" />
    <path
       d="m 307.8698,56.72461 q 2.65798,-0.04833 3.28622,2.319686 0.0483,1.82031 -1.22428,2.835173 -2.91571,1.159844 -4.12388,-1.417586 -0.64436,-2.899609 2.06194,-3.737273 z m -0.77323,7.216803 h 0.25774 0.32218 0.83767 0.25774 1.09541 0.51548 0.45105 v 17.590958 h -0.9021 -0.70879 -0.32218 -0.1933 -0.25775 -0.1933 -1.28872 -0.19331 -0.77323 v -0.193308 -0.322178 -0.193307 -0.257743 -0.193308 -1.288715 -0.45105 -0.257743 -0.322178 -0.257743 -0.322179 -0.837665 -0.257743 -1.095407 -0.193308 -0.773229 -0.45105 -0.45105 -0.386614 -0.451051 -0.386614 -0.45105 -0.386615 -1.095407 -0.386615 -0.322178 -0.386615 -0.257743 -1.159843 -0.708793 -0.257743 -0.257743 -0.257743 -0.257743 -1.095408 -0.193307 -0.773229 z"
       style="stroke-width:1"
       id="path11956" />
    <path
       d="m 322.23897,63.168184 q 6.34692,-0.04833 8.50552,5.283731 0.22552,0.289961 0.32217,0.579922 1.38537,5.605909 -1.35315,9.858668 -3.85003,4.429958 -9.14987,2.899609 -5.57369,-1.900855 -6.05696,-7.925597 -0.48327,-9.214311 7.73229,-10.696333 z m 0.25774,4.317195 q -3.51175,1.51424 -3.09292,5.412602 -0.0967,4.139997 3.4151,4.897117 4.22054,-0.289961 3.80171,-6.185832 -0.49938,-4.07556 -4.12389,-4.123887 z"
       style="stroke-width:1"
       id="path11958" />
  </g>
  <g
     aria-label="ObÄina"
     transform="matrix(0.96028745,0,0,1.0413549,0.39811444,8.7428887e-8)"
     id="text11259"
     style="font-style:normal;font-weight:normal;font-size:28.0543px;line-height:1.25;font-family:sans-serif;fill:#000000;fill-opacity:1;stroke:none;stroke-width:0.999995">
    <path
       style="fill:#000000;fill-opacity:1;stroke:none;stroke-width:1px;stroke-linecap:butt;stroke-linejoin:miter;stroke-opacity:1"
       d="m 122.90697,54.401943 3.69159,4.848244 h 2.88658 l 3.69159,-4.848244 h -2.99008 l -2.11605,2.800389 -2.12756,-2.800389 h -3.03607"
       id="path11274" />
  </g>
  <g
     aria-label="passo carrabile
prehod za vozila "
     id="text11278"
     style="font-style:normal;font-weight:normal;font-size:59.8138px;line-height:0.85;font-family:sans-serif;text-align:center;letter-spacing:0px;text-anchor:middle;fill:#000000;fill-opacity:1;stroke:none;stroke-width:1">
    <path
       d="m 50.824906,438.86349 q -1.116524,0.0399 -1.834289,-0.35888 -0.279132,-0.1595 -1.634911,-1.27603 v 13.23879 h -7.576415 v -41.51078 h 7.576415 v 1.59504 q 2.033669,-1.59504 3.548952,-1.59504 2.073545,0 3.389449,1.07665 1.1564,0.91715 2.392552,3.19007 1.714662,3.19007 1.714662,10.72661 0,6.69915 -1.953917,10.32785 -1.276028,2.39255 -2.392552,3.38945 -1.315904,1.1564 -3.229946,1.19627 z m -1.794414,-22.33048 q -1.1564,0.0399 -1.435531,0.83739 -0.159503,0.43864 -0.239255,2.3128 v 8.61319 q 0.319007,1.91404 0.518386,2.35268 0.358883,0.67789 1.35578,0.63801 1.315903,-0.0797 1.555159,-1.87417 0.03988,-0.35888 0.03988,-5.46299 0,-4.66548 -0.159503,-5.58262 -0.279131,-1.87417 -1.634911,-1.83429 z"
       style="font-style:normal;font-variant:normal;font-weight:normal;font-stretch:normal;font-family:LLMNARRO;-inkscape-font-specification:LLMNARRO;text-align:center;text-anchor:middle;stroke-width:1"
       id="path11877" />
    <path
       d="m 79.495615,438.86349 q -2.950814,-0.47851 -4.266718,-1.43553 -2.432427,1.43553 -6.061131,1.43553 -2.950815,0 -5.064236,-3.38944 -1.874165,-2.99069 -1.874165,-6.10101 0,-4.22684 2.79131,-6.53964 4.027463,-3.3097 9.131574,-4.02747 0,-2.43242 -2.113421,-2.27292 -3.269821,0.23925 -5.861752,2.19317 l -3.947711,-6.30039 q 1.435531,-1.19627 4.386345,-2.3128 3.110318,-1.1564 5.223739,-1.1564 9.45058,0 9.45058,8.61319 v 12.7204 q 0,1.03678 1.236152,1.71467 z m -5.263614,-12.99953 q -4.027463,1.63491 -4.027463,3.50908 0,1.91404 1.395656,1.91404 1.116524,0 1.874165,-0.91714 0.757642,-0.95703 0.757642,-2.11343 z"
       style="font-style:normal;font-variant:normal;font-weight:normal;font-stretch:normal;font-family:LLMNARRO;-inkscape-font-specification:LLMNARRO;text-align:center;text-anchor:middle;stroke-width:1"
       id="path11879" />
    <path
       d="m 100.94876,417.49003 q -2.153302,-1.35578 -3.429329,-1.35578 -2.910939,0 -3.070442,1.67479 -0.159504,1.51528 2.352676,2.67168 0.478511,0.23926 4.545845,2.63181 3.38945,2.3128 3.38945,6.57952 0,4.46609 -2.91094,6.89852 -2.711555,2.27292 -6.021252,2.27292 -1.953917,0 -4.386345,-1.07664 -2.631807,-1.19628 -4.505973,-3.07045 l 4.466097,-5.54274 q 2.392552,2.23305 3.588828,2.11342 2.153297,-0.1595 2.193173,-1.59503 0.03988,-1.47541 -3.389449,-2.99069 -2.711559,-1.19628 -4.705352,-3.58883 -2.193173,-2.63181 -2.193173,-5.30349 0,-4.10722 2.711559,-6.45989 2.751435,-2.39256 6.739022,-2.39256 3.748335,0 8.413805,3.3097 z"
       style="font-style:normal;font-variant:normal;font-weight:normal;font-stretch:normal;font-family:LLMNARRO;-inkscape-font-specification:LLMNARRO;text-align:center;text-anchor:middle;stroke-width:1"
       id="path11881" />
    <path
       d="m 122.64114,417.49003 q -2.1533,-1.35578 -3.42933,-1.35578 -2.91093,0 -3.07044,1.67479 -0.1595,1.51528 2.35268,2.67168 0.47851,0.23926 4.54585,2.63181 3.38945,2.3128 3.38945,6.57952 0,4.46609 -2.91094,6.89852 -2.71156,2.27292 -6.02126,2.27292 -1.95392,0 -4.38634,-1.07664 -2.63181,-1.19628 -4.50598,-3.07045 l 4.4661,-5.54274 q 2.39255,2.23305 3.58883,2.11342 2.15329,-0.1595 2.19317,-1.59503 0.0399,-1.47541 -3.38945,-2.99069 -2.71156,-1.19628 -4.70535,-3.58883 -2.19317,-2.63181 -2.19317,-5.30349 0,-4.10722 2.71156,-6.45989 2.75143,-2.39256 6.73902,-2.39256 3.74833,0 8.41381,3.3097 z"
       style="font-style:normal;font-variant:normal;font-weight:normal;font-stretch:normal;font-family:LLMNARRO;-inkscape-font-specification:LLMNARRO;text-align:center;text-anchor:middle;stroke-width:1"
       id="path11883" />
    <path
       d="m 139.94718,438.86349 q -4.54585,0 -7.17766,-4.38634 -2.51218,-4.14709 -2.51218,-10.72661 0,-6.30039 2.63181,-10.52723 2.67168,-4.26672 7.05803,-4.26672 4.46609,0 7.0979,4.26672 2.55206,4.10722 2.55206,10.52723 0,6.42002 -2.51218,10.64686 -2.71156,4.46609 -7.13778,4.46609 z m 0,-22.33048 q -2.11343,-0.0399 -2.11343,7.21753 0,3.90784 0.15951,5.02436 0.39876,2.51218 1.95392,2.51218 1.4754,0 1.87416,-2.39255 0.1595,-0.9969 0.19938,-5.14399 0.0797,-7.17765 -2.07354,-7.21753 z"
       style="font-style:normal;font-variant:normal;font-weight:normal;font-stretch:normal;font-family:LLMNARRO;-inkscape-font-specification:LLMNARRO;text-align:center;text-anchor:middle;stroke-width:1"
       id="path11885" />
    <path
       d="m 183.33202,438.86349 q -4.54585,0 -7.01816,-5.58262 -1.91404,-4.30659 -1.91404,-9.49045 0,-5.14399 1.91404,-9.37083 2.47231,-5.463 7.01816,-5.463 3.82808,0 6.30038,3.11032 2.19317,2.71156 2.63181,6.73902 l -7.57642,1.23616 q -0.1595,-2.27293 -0.319,-2.75144 -0.23926,-0.71776 -1.03677,-0.75764 -1.35578,-0.0399 -1.35578,7.41691 0,7.33716 1.35578,7.33716 1.23615,0 1.23615,-3.6287 2.19317,0.23925 7.69604,0.95702 -0.47851,4.06734 -2.63181,6.89852 -2.51218,3.34957 -6.30038,3.34957 z"
       style="font-style:normal;font-variant:normal;font-weight:normal;font-stretch:normal;font-family:LLMNARRO;-inkscape-font-specification:LLMNARRO;text-align:center;text-anchor:middle;stroke-width:1"
       id="path11887" />
    <path
       d="m 213.63767,438.86349 q -2.95081,-0.47851 -4.26672,-1.43553 -2.43242,1.43553 -6.06113,1.43553 -2.95081,0 -5.06423,-3.38944 -1.87417,-2.99069 -1.87417,-6.10101 0,-4.22684 2.79131,-6.53964 4.02747,-3.3097 9.13158,-4.02747 0,-2.43242 -2.11342,-2.27292 -3.26983,0.23925 -5.86176,2.19317 l -3.94771,-6.30039 q 1.43553,-1.19627 4.38635,-2.3128 3.11032,-1.1564 5.22374,-1.1564 9.45058,0 9.45058,8.61319 v 12.7204 q 0,1.03678 1.23615,1.71467 z m -5.26361,-12.99953 q -4.02746,1.63491 -4.02746,3.50908 0,1.91404 1.39565,1.91404 1.11653,0 1.87417,-0.91714 0.75764,-0.95703 0.75764,-2.11343 z"
       style="font-style:normal;font-variant:normal;font-weight:normal;font-stretch:normal;font-family:LLMNARRO;-inkscape-font-specification:LLMNARRO;text-align:center;text-anchor:middle;stroke-width:1"
       id="path11889" />
    <path
       d="m 236.24721,416.53301 h -1.63491 q -1.63491,0 -3.22995,1.99379 -1.07665,1.35578 -1.07665,2.55206 v 17.78463 h -7.57641 v -29.9069 h 7.57641 v 1.67479 q 0.63802,-0.47851 1.27603,-0.91714 0.79752,-0.55827 1.79441,-0.75765 0,0 2.87107,0 z"
       style="font-style:normal;font-variant:normal;font-weight:normal;font-stretch:normal;font-family:LLMNARRO;-inkscape-font-specification:LLMNARRO;text-align:center;text-anchor:middle;stroke-width:1"
       id="path11891" />
    <path
       d="m 255.06851,416.53301 h -1.63491 q -1.63491,0 -3.22994,1.99379 -1.07665,1.35578 -1.07665,2.55206 v 17.78463 h -7.57642 v -29.9069 h 7.57642 v 1.67479 q 0.63801,-0.47851 1.27603,-0.91714 0.79751,-0.55827 1.79441,-0.75765 0,0 2.87106,0 z"
       style="font-style:normal;font-variant:normal;font-weight:normal;font-stretch:normal;font-family:LLMNARRO;-inkscape-font-specification:LLMNARRO;text-align:center;text-anchor:middle;stroke-width:1"
       id="path11893" />
    <path
       d="m 275.92349,438.86349 q -2.95082,-0.47851 -4.26672,-1.43553 -2.43243,1.43553 -6.06113,1.43553 -2.95082,0 -5.06424,-3.38944 -1.87417,-2.99069 -1.87417,-6.10101 0,-4.22684 2.79132,-6.53964 4.02746,-3.3097 9.13157,-4.02747 0,-2.43242 -2.11342,-2.27292 -3.26982,0.23925 -5.86175,2.19317 l -3.94772,-6.30039 q 1.43554,-1.19627 4.38635,-2.3128 3.11032,-1.1564 5.22374,-1.1564 9.45058,0 9.45058,8.61319 v 12.7204 q 0,1.03678 1.23615,1.71467 z m -5.26362,-12.99953 q -4.02746,1.63491 -4.02746,3.50908 0,1.91404 1.39565,1.91404 1.11653,0 1.87417,-0.91714 0.75764,-0.95703 0.75764,-2.11343 z"
       style="font-style:normal;font-variant:normal;font-weight:normal;font-stretch:normal;font-family:LLMNARRO;-inkscape-font-specification:LLMNARRO;text-align:center;text-anchor:middle;stroke-width:1"
       id="path11895" />
    <path
       d="m 292.63139,409.15597 q 1.03677,-0.23925 2.11342,-0.19938 3.70846,0.19938 5.82188,3.54896 2.59193,4.10721 2.59193,10.80636 0,5.54274 -1.3159,9.64996 -1.87417,5.90162 -5.98138,5.90162 -1.27603,0 -3.22995,-0.71776 v 0.71776 h -7.61629 v -39.87586 h 7.61629 z m 1.3159,7.37704 q -0.71776,0 -1.3159,1.11652 v 12.84003 l 0.23926,0.19938 q 0,0 0.35888,0.31901 0.39876,0.27913 0.63801,0.27913 1.67479,0 1.67479,-8.17455 0,-6.57952 -1.59504,-6.57952 z"
       style="font-style:normal;font-variant:normal;font-weight:normal;font-stretch:normal;font-family:LLMNARRO;-inkscape-font-specification:LLMNARRO;text-align:center;text-anchor:middle;stroke-width:1"
       id="path11897" />
    <path
       d="m 316.71632,438.86349 h -7.73592 v -29.98665 h 7.73592 z m -7.73592,-36.0079 q 0,-1.59504 1.11653,-2.71156 1.1564,-1.1564 2.75143,-1.1564 1.59504,0 2.71156,1.1564 1.1564,1.11652 1.1564,2.71156 0,1.59503 -1.1564,2.75143 -1.11652,1.11653 -2.71156,1.11653 -1.59503,0 -2.75143,-1.11653 -1.11653,-1.1564 -1.11653,-2.75143 z"
       style="font-style:normal;font-variant:normal;font-weight:normal;font-stretch:normal;font-family:LLMNARRO;-inkscape-font-specification:LLMNARRO;text-align:center;text-anchor:middle;stroke-width:1"
       id="path11899" />
    <path
       d="m 336.05607,431.28708 v 7.57641 h -4.10721 q -3.03057,0 -5.50287,-2.43242 -2.4723,-2.47231 -2.4723,-5.50287 v -31.94057 h 7.61629 v 29.30876 q 0,1.35578 0.87727,2.19317 0.91714,0.79752 2.27292,0.79752 z"
       style="font-style:normal;font-variant:normal;font-weight:normal;font-stretch:normal;font-family:LLMNARRO;-inkscape-font-specification:LLMNARRO;text-align:center;text-anchor:middle;stroke-width:1"
       id="path11901" />
    <path
       d="m 346.26422,426.14309 q 0.51838,5.14399 2.07354,5.14399 1.59504,0 2.4723,-3.19007 l 6.14089,2.91094 q -1.11653,3.19007 -3.1502,5.30349 -2.4723,2.55205 -5.46299,2.55205 -4.7851,0 -7.37704,-5.42311 -2.03366,-4.26672 -2.03366,-9.64996 0,-5.34337 2.03366,-9.53034 2.59194,-5.30349 7.37704,-5.30349 4.82498,0 7.37704,5.14399 2.07354,4.18697 2.07354,10.28798 v 1.75453 z m 2.07354,-9.61008 q -0.91714,0.0399 -1.39565,0.9969 -0.23926,0.47851 -0.59814,2.23304 h 4.26671 q -0.71776,-3.26982 -2.27292,-3.22994 z"
       style="font-style:normal;font-variant:normal;font-weight:normal;font-stretch:normal;font-family:LLMNARRO;-inkscape-font-specification:LLMNARRO;text-align:center;text-anchor:middle;stroke-width:1"
       id="path11903" />
    <path
       d="m 38.104514,490.39763 q -1.116524,0.0399 -1.83429,-0.35889 -0.279131,-0.1595 -1.63491,-1.27603 v 13.23879 h -7.576415 v -41.51078 h 7.576415 v 1.59504 q 2.033669,-1.59504 3.548952,-1.59504 2.073545,0 3.389449,1.07665 1.1564,0.91715 2.392552,3.19007 1.714662,3.19007 1.714662,10.72661 0,6.69915 -1.953918,10.32785 -1.276027,2.39255 -2.392552,3.38945 -1.315903,1.1564 -3.229945,1.19628 z M 36.3101,468.06714 q -1.1564,0.0399 -1.435531,0.83739 -0.159504,0.43864 -0.239255,2.3128 v 8.61319 q 0.319007,1.91404 0.518386,2.35268 0.358883,0.67789 1.355779,0.63801 1.315904,-0.0797 1.555159,-1.87417 0.03988,-0.35888 0.03988,-5.46299 0,-4.66548 -0.159503,-5.58262 -0.279131,-1.87417 -1.634911,-1.83429 z"
       style="font-style:normal;font-variant:normal;font-weight:normal;font-stretch:normal;font-family:LLMNARRO;-inkscape-font-specification:LLMNARRO;text-align:center;text-anchor:middle;stroke-width:1"
       id="path11905" />
    <path
       d="m 64.741554,468.06714 h -1.634911 q -1.63491,0 -3.229945,1.99379 -1.076649,1.35578 -1.076649,2.55206 v 17.78464 h -7.576414 v -29.90691 h 7.576414 v 1.67479 q 0.638014,-0.47851 1.276028,-0.91714 0.797518,-0.55827 1.794414,-0.75765 0,0 2.871063,0 z"
       style="font-style:normal;font-variant:normal;font-weight:normal;font-stretch:normal;font-family:LLMNARRO;-inkscape-font-specification:LLMNARRO;text-align:center;text-anchor:middle;stroke-width:1"
       id="path11907" />
    <path
       d="m 75.667434,477.67722 q 0.518387,5.14399 2.073545,5.14399 1.595035,0 2.472304,-3.19007 l 6.140884,2.91094 q -1.116525,3.19007 -3.150194,5.30349 -2.472304,2.55206 -5.462994,2.55206 -4.785104,0 -7.377035,-5.42312 -2.033669,-4.26672 -2.033669,-9.64996 0,-5.34337 2.033669,-9.53033 2.591931,-5.3035 7.377035,-5.3035 4.82498,0 7.377036,5.14399 2.073545,4.18697 2.073545,10.28798 v 1.75453 z m 2.073545,-9.61008 q -0.917144,0.0399 -1.395655,0.9969 -0.239255,0.47851 -0.598138,2.23304 h 4.266718 q -0.717766,-3.26982 -2.272925,-3.22994 z"
       style="font-style:normal;font-variant:normal;font-weight:normal;font-stretch:normal;font-family:LLMNARRO;-inkscape-font-specification:LLMNARRO;text-align:center;text-anchor:middle;stroke-width:1"
       id="path11909" />
    <path
       d="m 93.013354,450.52176 h 7.416916 v 10.92599 q 2.35267,-0.95703 4.34646,-0.95703 3.11032,0 5.42312,3.58883 2.1533,3.3097 2.1533,7.17766 v 19.14042 h -7.41691 v -19.10055 q 0,-1.19627 -0.55826,-2.11342 -0.59814,-1.07664 -1.63491,-1.11652 -1.95392,-0.0399 -2.3128,3.19007 v 19.14042 h -7.416916 z"
       style="font-style:normal;font-variant:normal;font-weight:normal;font-stretch:normal;font-family:LLMNARRO;-inkscape-font-specification:LLMNARRO;text-align:center;text-anchor:middle;stroke-width:1"
       id="path11911" />
    <path
       d="m 127.34647,490.39763 q -4.54585,0 -7.17766,-4.38635 -2.51218,-4.14709 -2.51218,-10.72661 0,-6.30039 2.63181,-10.52723 2.67168,-4.26672 7.05803,-4.26672 4.46609,0 7.0979,4.26672 2.55206,4.10722 2.55206,10.52723 0,6.42002 -2.51218,10.64686 -2.71156,4.4661 -7.13778,4.4661 z m 0,-22.33049 q -2.11343,-0.0399 -2.11343,7.21753 0,3.90784 0.15951,5.02436 0.39876,2.51218 1.95392,2.51218 1.4754,0 1.87416,-2.39255 0.1595,-0.9969 0.19938,-5.14399 0.0798,-7.17765 -2.07354,-7.21753 z"
       style="font-style:normal;font-variant:normal;font-weight:normal;font-stretch:normal;font-family:LLMNARRO;-inkscape-font-specification:LLMNARRO;text-align:center;text-anchor:middle;stroke-width:1"
       id="path11913" />
    <path
       d="m 150.83332,490.39763 v -0.51839 q -1.95392,0.51839 -2.23305,0.51839 -2.95081,0 -4.66548,-2.07355 -1.03677,-1.27603 -2.11342,-4.34647 -0.99689,-2.87106 -0.99689,-9.88921 0,-5.06424 1.59503,-8.69294 2.1533,-4.90474 6.57952,-4.90474 0.91714,0 1.83429,0.19938 v -10.16834 h 7.85554 v 39.87587 z m 0,-21.25384 q -0.31901,-0.71777 -0.75764,-0.71777 -1.39566,0 -1.39566,5.66238 0,8.33405 1.03677,8.33405 0.51839,0 1.11653,-0.83739 z"
       style="font-style:normal;font-variant:normal;font-weight:normal;font-stretch:normal;font-family:LLMNARRO;-inkscape-font-specification:LLMNARRO;text-align:center;text-anchor:middle;stroke-width:1"
       id="path11915" />
    <path
       d="m 185.84417,460.49072 h 16.22948 v 7.57642 l -8.45369,14.75407 h 8.45369 v 7.57642 h -16.42886 v -7.57642 l 8.45368,-14.75407 h -8.2543 z"
       style="font-style:normal;font-variant:normal;font-weight:normal;font-stretch:normal;font-family:LLMNARRO;-inkscape-font-specification:LLMNARRO;text-align:center;text-anchor:middle;stroke-width:1"
       id="path11917" />
    <path
       d="m 223.16788,490.39763 q -2.95082,-0.47852 -4.26672,-1.43554 -2.43243,1.43554 -6.06113,1.43554 -2.95082,0 -5.06424,-3.38945 -1.87417,-2.99069 -1.87417,-6.10101 0,-4.22684 2.79132,-6.53964 4.02746,-3.3097 9.13157,-4.02747 0,-2.43242 -2.11342,-2.27292 -3.26982,0.23925 -5.86175,2.19317 l -3.94772,-6.30038 q 1.43554,-1.19628 4.38635,-2.31281 3.11032,-1.1564 5.22374,-1.1564 9.45058,0 9.45058,8.61319 v 12.7204 q 0,1.03678 1.23615,1.71467 z m -5.26362,-12.99954 q -4.02746,1.63491 -4.02746,3.50908 0,1.91404 1.39565,1.91404 1.11653,0 1.87417,-0.91714 0.75764,-0.95703 0.75764,-2.11343 z"
       style="font-style:normal;font-variant:normal;font-weight:normal;font-stretch:normal;font-family:LLMNARRO;-inkscape-font-specification:LLMNARRO;text-align:center;text-anchor:middle;stroke-width:1"
       id="path11919" />
    <path
       d="m 251.24034,460.49072 h 7.57641 l 2.55206,18.3429 2.59193,-18.3429 h 7.57642 l -5.94151,29.90691 h -8.37393 z"
       style="font-style:normal;font-variant:normal;font-weight:normal;font-stretch:normal;font-family:LLMNARRO;-inkscape-font-specification:LLMNARRO;text-align:center;text-anchor:middle;stroke-width:1"
       id="path11921" />
    <path
       d="m 285.05498,490.39763 q -4.54585,0 -7.17766,-4.38635 -2.51218,-4.14709 -2.51218,-10.72661 0,-6.30039 2.63181,-10.52723 2.67168,-4.26672 7.05803,-4.26672 4.46609,0 7.0979,4.26672 2.55206,4.10722 2.55206,10.52723 0,6.42002 -2.51218,10.64686 -2.71156,4.4661 -7.13778,4.4661 z m 0,-22.33049 q -2.11342,-0.0399 -2.11342,7.21753 0,3.90784 0.1595,5.02436 0.39876,2.51218 1.95392,2.51218 1.4754,0 1.87416,-2.39255 0.15951,-0.9969 0.19938,-5.14399 0.0798,-7.17765 -2.07354,-7.21753 z"
       style="font-style:normal;font-variant:normal;font-weight:normal;font-stretch:normal;font-family:LLMNARRO;-inkscape-font-specification:LLMNARRO;text-align:center;text-anchor:middle;stroke-width:1"
       id="path11923" />
    <path
       d="m 298.73237,460.49072 h 16.22948 v 7.57642 l -8.45369,14.75407 h 8.45369 v 7.57642 h -16.42886 v -7.57642 l 8.45368,-14.75407 h -8.2543 z"
       style="font-style:normal;font-variant:normal;font-weight:normal;font-stretch:normal;font-family:LLMNARRO;-inkscape-font-specification:LLMNARRO;text-align:center;text-anchor:middle;stroke-width:1"
       id="path11925" />
    <path
       d="m 328.00118,490.39763 h -7.73592 v -29.98666 h 7.73592 z m -7.73592,-36.00791 q 0,-1.59504 1.11653,-2.71156 1.1564,-1.1564 2.75143,-1.1564 1.59504,0 2.71156,1.1564 1.1564,1.11652 1.1564,2.71156 0,1.59503 -1.1564,2.75143 -1.11652,1.11653 -2.71156,1.11653 -1.59503,0 -2.75143,-1.11653 -1.11653,-1.1564 -1.11653,-2.75143 z"
       style="font-style:normal;font-variant:normal;font-weight:normal;font-stretch:normal;font-family:LLMNARRO;-inkscape-font-specification:LLMNARRO;text-align:center;text-anchor:middle;stroke-width:1"
       id="path11927" />
    <path
       d="m 347.34093,482.82121 v 7.57642 h -4.10721 q -3.03057,0 -5.50287,-2.43243 -2.47231,-2.47231 -2.47231,-5.50287 v -31.94057 h 7.61629 v 29.30876 q 0,1.35578 0.87727,2.19317 0.91715,0.79752 2.27293,0.79752 z"
       style="font-style:normal;font-variant:normal;font-weight:normal;font-stretch:normal;font-family:LLMNARRO;-inkscape-font-specification:LLMNARRO;text-align:center;text-anchor:middle;stroke-width:1"
       id="path11929" />
    <path
       d="m 367.47816,490.39763 q -2.95081,-0.47852 -4.26671,-1.43554 -2.43243,1.43554 -6.06114,1.43554 -2.95081,0 -5.06423,-3.38945 -1.87417,-2.99069 -1.87417,-6.10101 0,-4.22684 2.79131,-6.53964 4.02747,-3.3097 9.13158,-4.02747 0,-2.43242 -2.11342,-2.27292 -3.26983,0.23925 -5.86176,2.19317 l -3.94771,-6.30038 q 1.43553,-1.19628 4.38635,-2.31281 3.11032,-1.1564 5.22374,-1.1564 9.45058,0 9.45058,8.61319 v 12.7204 q 0,1.03678 1.23615,1.71467 z m -5.26361,-12.99954 q -4.02746,1.63491 -4.02746,3.50908 0,1.91404 1.39565,1.91404 1.11653,0 1.87417,-0.91714 0.75764,-0.95703 0.75764,-2.11343 z"
       style="font-style:normal;font-variant:normal;font-weight:normal;font-stretch:normal;font-family:LLMNARRO;-inkscape-font-specification:LLMNARRO;text-align:center;text-anchor:middle;stroke-width:1"
       id="path11931" />
  </g>
  <g
     id="g11807"
     transform="translate(-0.43512113)">
    <g
       aria-label="autorizzazione
pooblastilo"
       id="text11290"
       style="font-style:normal;font-weight:normal;font-size:28.5944px;line-height:0.75;font-family:sans-serif;fill:#000000;fill-opacity:1;stroke:none;stroke-width:0.999998">
      <path
         d="m 42.020383,541.47565 q -1.410657,-0.22876 -2.039733,-0.68627 -1.162839,0.68627 -2.897566,0.68627 -1.410657,0 -2.420993,-1.62035 -0.895958,-1.42972 -0.895958,-2.91663 0,-2.02067 1.334406,-3.12632 1.925356,-1.58223 4.365411,-1.92536 0,-1.16284 -1.010335,-1.08659 -1.563161,0.11438 -2.802251,1.04847 l -1.887231,-3.01195 q 0.686266,-0.57189 2.096923,-1.10565 1.486909,-0.55282 2.497244,-0.55282 4.517915,0 4.517915,4.11759 v 6.08108 q 0,0.49563 0.590951,0.8197 z m -2.516307,-6.21452 q -1.925356,0.78158 -1.925356,1.67754 0,0.91502 0.667203,0.91502 0.533762,0 0.895957,-0.43845 0.362196,-0.45751 0.362196,-1.01033 z"
         style="font-style:normal;font-variant:normal;font-weight:normal;font-stretch:normal;font-family:LLMNARRO;-inkscape-font-specification:LLMNARRO;stroke-width:0.999998"
         id="path11809" />
      <path
         d="m 51.761507,541.47565 v -0.53377 q -0.419385,0.53377 -1.467846,0.53377 -3.812587,0 -3.812587,-5.33762 v -8.95958 h 3.621957 v 8.95958 q 0,0.99127 0.07625,1.23909 0.152504,0.45751 0.743455,0.47657 0.610013,0.0191 0.762517,-0.47657 0.07625,-0.24782 0.07625,-1.23909 v -8.95958 h 3.621957 v 14.2972 z"
         style="font-style:normal;font-variant:normal;font-weight:normal;font-stretch:normal;font-family:LLMNARRO;-inkscape-font-specification:LLMNARRO;stroke-width:0.999998"
         id="path11811" />
      <path
         d="m 65.944325,541.15158 q -1.143776,0.32407 -2.154111,0.32407 -1.448783,0 -2.554433,-0.72439 -1.277217,-0.81971 -1.277217,-2.19224 v -8.00643 h -2.2113 v -3.41227 h 2.2113 v -3.77446 l 3.812587,-0.95315 v 4.72761 h 2.173174 v 3.41227 h -2.173174 v 6.61483 q 0,0.68627 1.143776,0.68627 0.03813,0 0.171566,-0.0381 0.152504,-0.0381 0.590951,-0.0953 z"
         style="font-style:normal;font-variant:normal;font-weight:normal;font-stretch:normal;font-family:LLMNARRO;-inkscape-font-specification:LLMNARRO;stroke-width:0.999998"
         id="path11813" />
      <path
         d="m 71.9491,541.47565 q -2.173174,0 -3.431328,-2.09693 -1.200964,-1.98254 -1.200964,-5.12792 0,-3.01195 1.258153,-5.03262 1.277217,-2.03973 3.374139,-2.03973 2.135049,0 3.393203,2.03973 1.220027,1.96348 1.220027,5.03262 0,3.06913 -1.200964,5.0898 -1.29628,2.13505 -3.412266,2.13505 z m 0,-10.67525 q -1.010335,-0.0191 -1.010335,3.4504 0,1.86816 0.07625,2.40192 0.190629,1.20097 0.934083,1.20097 0.705329,0 0.895958,-1.14378 0.07625,-0.47657 0.09531,-2.45911 0.03813,-3.43133 -0.991273,-3.4504 z"
         style="font-style:normal;font-variant:normal;font-weight:normal;font-stretch:normal;font-family:LLMNARRO;-inkscape-font-specification:LLMNARRO;stroke-width:0.999998"
         id="path11815" />
      <path
         d="m 85.674402,530.8004 h -0.78158 q -0.78158,0 -1.544098,0.95315 -0.514699,0.64814 -0.514699,1.22003 v 8.50207 h -3.621957 v -14.2972 h 3.621957 v 0.80064 q 0.305007,-0.22876 0.610014,-0.43845 0.381259,-0.26688 0.857832,-0.36219 0,0 1.372531,0 z"
         style="font-style:normal;font-variant:normal;font-weight:normal;font-stretch:normal;font-family:LLMNARRO;-inkscape-font-specification:LLMNARRO;stroke-width:0.999998"
         id="path11817" />
      <path
         d="m 91.793553,541.47565 h -3.698209 v -14.33533 h 3.698209 z m -3.698209,-17.21383 q 0,-0.76252 0.533762,-1.29628 0.552825,-0.55283 1.315343,-0.55283 0.762517,0 1.296279,0.55283 0.552825,0.53376 0.552825,1.29628 0,0.76252 -0.552825,1.31534 -0.533762,0.53376 -1.296279,0.53376 -0.762518,0 -1.315343,-0.53376 -0.533762,-0.55282 -0.533762,-1.31534 z"
         style="font-style:normal;font-variant:normal;font-weight:normal;font-stretch:normal;font-family:LLMNARRO;-inkscape-font-specification:LLMNARRO;stroke-width:0.999998"
         id="path11819" />
      <path
         d="m 94.424226,527.17845 h 7.758614 v 3.62195 l -4.041342,7.05329 h 4.041342 v 3.62196 h -7.853928 v -3.62196 l 4.041342,-7.05329 h -3.946028 z"
         style="font-style:normal;font-variant:normal;font-weight:normal;font-stretch:normal;font-family:LLMNARRO;-inkscape-font-specification:LLMNARRO;stroke-width:0.999998"
         id="path11821" />
      <path
         d="m 104.10814,527.17845 h 7.75862 v 3.62195 l -4.04134,7.05329 h 4.04134 v 3.62196 h -7.85393 v -3.62196 l 4.04134,-7.05329 h -3.94603 z"
         style="font-style:normal;font-variant:normal;font-weight:normal;font-stretch:normal;font-family:LLMNARRO;-inkscape-font-specification:LLMNARRO;stroke-width:0.999998"
         id="path11823" />
      <path
         d="m 121.95101,541.47565 q -1.41066,-0.22876 -2.03973,-0.68627 -1.16284,0.68627 -2.89757,0.68627 -1.41066,0 -2.42099,-1.62035 -0.89596,-1.42972 -0.89596,-2.91663 0,-2.02067 1.3344,-3.12632 1.92536,-1.58223 4.36542,-1.92536 0,-1.16284 -1.01034,-1.08659 -1.56316,0.11438 -2.80225,1.04847 l -1.88723,-3.01195 q 0.68626,-0.57189 2.09692,-1.10565 1.48691,-0.55282 2.49725,-0.55282 4.51791,0 4.51791,4.11759 v 6.08108 q 0,0.49563 0.59095,0.8197 z m -2.51631,-6.21452 q -1.92535,0.78158 -1.92535,1.67754 0,0.91502 0.6672,0.91502 0.53376,0 0.89596,-0.43845 0.36219,-0.45751 0.36219,-1.01033 z"
         style="font-style:normal;font-variant:normal;font-weight:normal;font-stretch:normal;font-family:LLMNARRO;-inkscape-font-specification:LLMNARRO;stroke-width:0.999998"
         id="path11825" />
      <path
         d="m 125.57293,527.17845 h 7.75861 v 3.62195 l -4.04134,7.05329 h 4.04134 v 3.62196 h -7.85393 v -3.62196 l 4.04134,-7.05329 h -3.94602 z"
         style="font-style:normal;font-variant:normal;font-weight:normal;font-stretch:normal;font-family:LLMNARRO;-inkscape-font-specification:LLMNARRO;stroke-width:0.999998"
         id="path11827" />
      <path
         d="m 139.56507,541.47565 h -3.69821 v -14.33533 h 3.69821 z m -3.69821,-17.21383 q 0,-0.76252 0.53376,-1.29628 0.55283,-0.55283 1.31535,-0.55283 0.76251,0 1.29628,0.55283 0.55282,0.53376 0.55282,1.29628 0,0.76252 -0.55282,1.31534 -0.53377,0.53376 -1.29628,0.53376 -0.76252,0 -1.31535,-0.53376 -0.53376,-0.55282 -0.53376,-1.31534 z"
         style="font-style:normal;font-variant:normal;font-weight:normal;font-stretch:normal;font-family:LLMNARRO;-inkscape-font-specification:LLMNARRO;stroke-width:0.999998"
         id="path11829" />
      <path
         d="m 146.73272,541.47565 q -2.17317,0 -3.43132,-2.09693 -1.20097,-1.98254 -1.20097,-5.12792 0,-3.01195 1.25815,-5.03262 1.27722,-2.03973 3.37414,-2.03973 2.13505,0 3.39321,2.03973 1.22002,1.96348 1.22002,5.03262 0,3.06913 -1.20096,5.0898 -1.29628,2.13505 -3.41227,2.13505 z m 0,-10.67525 q -1.01033,-0.0191 -1.01033,3.4504 0,1.86816 0.0763,2.40192 0.19063,1.20097 0.93408,1.20097 0.70533,0 0.89596,-1.14378 0.0762,-0.47657 0.0953,-2.45911 0.0381,-3.43133 -0.99128,-3.4504 z"
         style="font-style:normal;font-variant:normal;font-weight:normal;font-stretch:normal;font-family:LLMNARRO;-inkscape-font-specification:LLMNARRO;stroke-width:0.999998"
         id="path11831" />
      <path
         d="m 162.89808,541.47565 h -3.62196 v -8.57832 q 0,-1.12472 -0.0953,-1.44879 -0.15251,-0.55282 -0.70533,-0.53376 -0.74345,0.0191 -0.74345,1.98255 v 8.57832 h -3.62196 v -14.2972 h 3.62196 v 0.80064 q 0.43844,-0.30501 0.89595,-0.59095 0.3622,-0.20969 1.08659,-0.20969 1.86817,0 2.59256,1.35347 0.59095,1.10565 0.59095,3.45039 z"
         style="font-style:normal;font-variant:normal;font-weight:normal;font-stretch:normal;font-family:LLMNARRO;-inkscape-font-specification:LLMNARRO;stroke-width:0.999998"
         id="path11833" />
      <path
         d="m 169.16979,535.39457 q 0.24781,2.45912 0.99127,2.45912 0.76252,0 1.1819,-1.52504 l 2.93569,1.3916 q -0.53376,1.52503 -1.50597,2.53537 -1.1819,1.22003 -2.61162,1.22003 -2.28755,0 -3.52664,-2.59256 -0.97221,-2.03974 -0.97221,-4.61323 0,-2.55444 0.97221,-4.55604 1.23909,-2.53537 3.52664,-2.53537 2.30661,0 3.52664,2.45912 0.99127,2.0016 0.99127,4.91823 v 0.83877 z m 0.99127,-4.59417 q -0.43845,0.0191 -0.6672,0.47658 -0.11438,0.22875 -0.28595,1.06752 h 2.03974 q -0.34314,-1.56316 -1.08659,-1.5441 z"
         style="font-style:normal;font-variant:normal;font-weight:normal;font-stretch:normal;font-family:LLMNARRO;-inkscape-font-specification:LLMNARRO;stroke-width:0.999998"
         id="path11835" />
      <path
         d="m 39.866272,563.25245 q -0.533762,0.0191 -0.876895,-0.17156 -0.133441,-0.0763 -0.78158,-0.61002 v 6.3289 h -3.621958 v -19.84452 h 3.621958 v 0.76252 q 0.972209,-0.76252 1.696601,-0.76252 0.991272,0 1.620349,0.5147 0.552825,0.43845 1.143776,1.52504 0.819706,1.52503 0.819706,5.12793 0,3.20257 -0.934083,4.9373 -0.610014,1.14377 -1.143776,1.62035 -0.629077,0.55282 -1.544098,0.57188 z M 39.00844,552.57721 q -0.552825,0.0191 -0.686266,0.40032 -0.07625,0.20969 -0.114377,1.10565 v 4.1176 q 0.152503,0.91502 0.247818,1.12471 0.171566,0.32407 0.64814,0.30501 0.629076,-0.0381 0.743454,-0.89596 0.01906,-0.17157 0.01906,-2.61162 0,-2.23037 -0.07625,-2.66881 -0.13344,-0.89596 -0.78158,-0.8769 z"
         style="font-style:normal;font-variant:normal;font-weight:normal;font-stretch:normal;font-family:LLMNARRO;-inkscape-font-specification:LLMNARRO;stroke-width:0.999998"
         id="path11837" />
      <path
         d="m 49.950544,563.25245 q -2.173174,0 -3.431328,-2.09692 -1.200965,-1.98254 -1.200965,-5.12793 0,-3.01194 1.258154,-5.03261 1.277217,-2.03974 3.374139,-2.03974 2.135049,0 3.393203,2.03974 1.220027,1.96348 1.220027,5.03261 0,3.06913 -1.200965,5.0898 -1.296279,2.13505 -3.412265,2.13505 z m 0,-10.67524 q -1.010335,-0.0191 -1.010335,3.45039 0,1.86817 0.07625,2.40193 0.190629,1.20097 0.934083,1.20097 0.705329,0 0.895958,-1.14378 0.07625,-0.47657 0.09531,-2.45912 0.03813,-3.43133 -0.991273,-3.45039 z"
         style="font-style:normal;font-variant:normal;font-weight:normal;font-stretch:normal;font-family:LLMNARRO;-inkscape-font-specification:LLMNARRO;stroke-width:0.999998"
         id="path11839" />
      <path
         d="m 61.026096,563.25245 q -2.173174,0 -3.431328,-2.09692 -1.200965,-1.98254 -1.200965,-5.12793 0,-3.01194 1.258154,-5.03261 1.277217,-2.03974 3.374139,-2.03974 2.135049,0 3.393203,2.03974 1.220027,1.96348 1.220027,5.03261 0,3.06913 -1.200965,5.0898 -1.296279,2.13505 -3.412265,2.13505 z m 0,-10.67524 q -1.010335,-0.0191 -1.010335,3.45039 0,1.86817 0.07625,2.40193 0.190629,1.20097 0.934083,1.20097 0.705329,0 0.895958,-1.14378 0.07625,-0.47657 0.09531,-2.45912 0.03813,-3.43133 -0.991273,-3.45039 z"
         style="font-style:normal;font-variant:normal;font-weight:normal;font-stretch:normal;font-family:LLMNARRO;-inkscape-font-specification:LLMNARRO;stroke-width:0.999998"
         id="path11841" />
      <path
         d="m 71.930084,549.05057 q 0.495636,-0.11438 1.010335,-0.0953 1.772853,0.0953 2.783189,1.6966 1.23909,1.96349 1.23909,5.16606 0,2.64975 -0.629077,4.61323 -0.895957,2.82131 -2.85944,2.82131 -0.610013,0 -1.544097,-0.34313 v 0.34313 h -3.64102 v -19.06293 h 3.64102 z m 0.629077,3.52664 q -0.343133,0 -0.629077,0.53376 v 6.13827 l 0.114377,0.0953 q 0,0 0.171567,0.15251 0.190629,0.13344 0.305007,0.13344 0.800643,0 0.800643,-3.90791 0,-3.14538 -0.762517,-3.14538 z"
         style="font-style:normal;font-variant:normal;font-weight:normal;font-stretch:normal;font-family:LLMNARRO;-inkscape-font-specification:LLMNARRO;stroke-width:0.999998"
         id="path11843" />
      <path
         d="m 85.750662,559.6305 v 3.62195 H 83.78718 q -1.448783,0 -2.630685,-1.16284 -1.181902,-1.1819 -1.181902,-2.63068 v -15.26941 h 3.64102 v 14.01126 q 0,0.64814 0.419385,1.04846 0.438447,0.38126 1.086587,0.38126 z"
         style="font-style:normal;font-variant:normal;font-weight:normal;font-stretch:normal;font-family:LLMNARRO;-inkscape-font-specification:LLMNARRO;stroke-width:0.999998"
         id="path11845" />
      <path
         d="m 95.377405,563.25245 q -1.410657,-0.22875 -2.039734,-0.68626 -1.162839,0.68626 -2.897566,0.68626 -1.410657,0 -2.420993,-1.62035 -0.895957,-1.42972 -0.895957,-2.91663 0,-2.02067 1.334405,-3.12632 1.925356,-1.58222 4.365412,-1.92535 0,-1.16284 -1.010336,-1.08659 -1.56316,0.11438 -2.802251,1.04846 l -1.88723,-3.01194 q 0.686265,-0.57189 2.096922,-1.10565 1.486909,-0.55283 2.497245,-0.55283 4.517915,0 4.517915,4.1176 v 6.08107 q 0,0.49564 0.590951,0.81971 z m -2.516307,-6.21451 q -1.925357,0.78158 -1.925357,1.67753 0,0.91503 0.667203,0.91503 0.533762,0 0.895958,-0.43845 0.362196,-0.45751 0.362196,-1.01034 z"
         style="font-style:normal;font-variant:normal;font-weight:normal;font-stretch:normal;font-family:LLMNARRO;-inkscape-font-specification:LLMNARRO;stroke-width:0.999998"
         id="path11847" />
      <path
         d="m 105.63323,553.03472 q -1.0294,-0.64814 -1.63942,-0.64814 -1.39159,0 -1.46784,0.80064 -0.0763,0.7244 1.12471,1.27722 0.22876,0.11438 2.17318,1.25815 1.62035,1.10565 1.62035,3.14539 0,2.13505 -1.3916,3.29789 -1.29628,1.08658 -2.8785,1.08658 -0.93409,0 -2.09692,-0.5147 -1.258158,-0.57188 -2.154115,-1.46784 l 2.135045,-2.64975 q 1.14378,1.06752 1.71567,1.01034 1.0294,-0.0763 1.04846,-0.76252 0.0191,-0.70533 -1.62035,-1.42972 -1.29628,-0.57189 -2.249427,-1.71567 -1.048461,-1.25815 -1.048461,-2.53537 0,-1.96348 1.296278,-3.08819 1.31534,-1.14378 3.22164,-1.14378 1.79191,0 4.02228,1.58223 z"
         style="font-style:normal;font-variant:normal;font-weight:normal;font-stretch:normal;font-family:LLMNARRO;-inkscape-font-specification:LLMNARRO;stroke-width:0.999998"
         id="path11849" />
      <path
         d="m 117.18532,562.92838 q -1.14377,0.32407 -2.15411,0.32407 -1.44878,0 -2.55443,-0.72439 -1.27722,-0.8197 -1.27722,-2.19224 v -8.00643 h -2.2113 v -3.41226 h 2.2113 v -3.77446 l 3.81259,-0.95315 v 4.72761 h 2.17317 v 3.41226 h -2.17317 v 6.61484 q 0,0.68627 1.14377,0.68627 0.0381,0 0.17157,-0.0381 0.1525,-0.0381 0.59095,-0.0953 z"
         style="font-style:normal;font-variant:normal;font-weight:normal;font-stretch:normal;font-family:LLMNARRO;-inkscape-font-specification:LLMNARRO;stroke-width:0.999998"
         id="path11851" />
      <path
         d="m 122.96134,563.25245 h -3.69821 v -14.33532 h 3.69821 z m -3.69821,-17.21383 q 0,-0.76251 0.53377,-1.29628 0.55282,-0.55282 1.31534,-0.55282 0.76252,0 1.29628,0.55282 0.55282,0.53377 0.55282,1.29628 0,0.76252 -0.55282,1.31535 -0.53376,0.53376 -1.29628,0.53376 -0.76252,0 -1.31534,-0.53376 -0.53377,-0.55283 -0.53377,-1.31535 z"
         style="font-style:normal;font-variant:normal;font-weight:normal;font-stretch:normal;font-family:LLMNARRO;-inkscape-font-specification:LLMNARRO;stroke-width:0.999998"
         id="path11853" />
      <path
         d="m 132.20685,559.6305 v 3.62195 h -1.96348 q -1.44878,0 -2.63068,-1.16284 -1.18191,-1.1819 -1.18191,-2.63068 v -15.26941 h 3.64103 v 14.01126 q 0,0.64814 0.41938,1.04846 0.43845,0.38126 1.08659,0.38126 z"
         style="font-style:normal;font-variant:normal;font-weight:normal;font-stretch:normal;font-family:LLMNARRO;-inkscape-font-specification:LLMNARRO;stroke-width:0.999998"
         id="path11855" />
      <path
         d="m 138.21164,563.25245 q -2.17318,0 -3.43133,-2.09692 -1.20097,-1.98254 -1.20097,-5.12793 0,-3.01194 1.25816,-5.03261 1.27721,-2.03974 3.37414,-2.03974 2.13504,0 3.3932,2.03974 1.22003,1.96348 1.22003,5.03261 0,3.06913 -1.20097,5.0898 -1.29628,2.13505 -3.41226,2.13505 z m 0,-10.67524 q -1.01034,-0.0191 -1.01034,3.45039 0,1.86817 0.0762,2.40193 0.19063,1.20097 0.93409,1.20097 0.70532,0 0.89595,-1.14378 0.0763,-0.47657 0.0953,-2.45912 0.0381,-3.43133 -0.99127,-3.45039 z"
         style="font-style:normal;font-variant:normal;font-weight:normal;font-stretch:normal;font-family:LLMNARRO;-inkscape-font-specification:LLMNARRO;stroke-width:0.999998"
         id="path11857" />
    </g>
    <g
       aria-label="n. 000/99"
       id="text11296"
       style="font-style:normal;font-weight:normal;font-size:52.3308px;line-height:0;font-family:sans-serif;letter-spacing:0px;fill:#000000;fill-opacity:1;stroke:none;stroke-width:1">
      <path
         d="m 200.8468,563.04993 h -6.62857 v -15.69924 q 0,-2.05835 -0.17443,-2.65143 -0.2791,-1.01173 -1.29083,-0.97684 -1.3606,0.0349 -1.3606,3.62827 v 15.69924 h -6.62857 v -26.1654 h 6.62857 v 1.46526 q 0.80241,-0.5582 1.6397,-1.0815 0.66286,-0.38376 1.98857,-0.38376 3.41895,0 4.74466,2.47699 1.0815,2.02346 1.0815,6.31458 z"
         style="font-style:normal;font-variant:normal;font-weight:normal;font-stretch:normal;line-height:0;font-family:LLMNARRO;-inkscape-font-specification:LLMNARRO;stroke-width:1"
         id="path11860" />
      <path
         d="m 206.77762,559.91008 q 0,-1.29083 0.94195,-2.23278 0.94196,-0.94196 2.23278,-0.94196 1.32572,0 2.23278,0.94196 0.94196,0.90707 0.94196,2.23278 0,1.3606 -0.90707,2.26767 -0.90707,0.87218 -2.26767,0.87218 -1.32571,0 -2.26767,-0.90707 -0.90706,-0.90707 -0.90706,-2.23278 z"
         style="font-style:normal;font-variant:normal;font-weight:normal;font-stretch:normal;line-height:0;font-family:LLMNARRO;-inkscape-font-specification:LLMNARRO;stroke-width:1"
         id="path11862" />
      <path
         d="m 236.58327,563.04993 q -5.65173,0 -8.33804,-6.45414 -1.95369,-4.70977 -1.95369,-11.19879 0,-6.45413 1.95369,-11.02435 2.65142,-6.24481 8.33804,-6.20992 5.89593,0.0349 8.54736,6.17503 1.88391,4.3609 1.88391,11.05924 0,17.65293 -10.43127,17.65293 z m 0,-28.29352 q -3.62827,0.0349 -3.62827,10.64059 0,11.02436 3.62827,11.02436 2.23278,0 3.10496,-3.07007 0.66285,-2.33745 0.73263,-8.02406 0.0349,-3.69804 -0.45353,-6.20992 -0.90707,-4.39579 -3.38406,-4.3609 z"
         style="letter-spacing:-2.28px"
         id="path11864" />
      <path
         d="m 260.11972,563.04993 q -5.65172,0 -8.33804,-6.45414 -1.95368,-4.70977 -1.95368,-11.19879 0,-6.45413 1.95368,-11.02435 2.65143,-6.24481 8.33804,-6.20992 5.89594,0.0349 8.54737,6.17503 1.88391,4.3609 1.88391,11.05924 0,17.65293 -10.43128,17.65293 z m 0,-28.29352 q -3.62826,0.0349 -3.62826,10.64059 0,11.02436 3.62826,11.02436 2.23278,0 3.10496,-3.07007 0.66286,-2.33745 0.73264,-8.02406 0.0349,-3.69804 -0.45354,-6.20992 -0.90706,-4.39579 -3.38406,-4.3609 z"
         style="letter-spacing:-2.28px"
         id="path11866" />
      <path
         d="m 283.65618,563.04993 q -5.65173,0 -8.33804,-6.45414 -1.95369,-4.70977 -1.95369,-11.19879 0,-6.45413 1.95369,-11.02435 2.65142,-6.24481 8.33804,-6.20992 5.89593,0.0349 8.54736,6.17503 1.88391,4.3609 1.88391,11.05924 0,17.65293 -10.43127,17.65293 z m 0,-28.29352 q -3.62827,0.0349 -3.62827,10.64059 0,11.02436 3.62827,11.02436 2.23278,0 3.10496,-3.07007 0.66285,-2.33745 0.73263,-8.02406 0.0349,-3.69804 -0.45353,-6.20992 -0.90707,-4.39579 -3.38406,-4.3609 z"
         style="letter-spacing:-2.28px"
         id="path11868" />
      <path
         d="m 299.58722,563.04993 14.82706,-34.8872 h 5.02376 l -14.79217,34.8872 z"
         style="letter-spacing:-2.28px"
         id="path11870" />
      <path
         d="m 334.60159,563.04993 q -8.93113,0 -9.34977,-9.31489 l 6.31458,-0.45353 q 0.31399,3.13985 3.03519,3.13985 2.26767,0 3.03518,-4.84932 -1.39548,0.83729 -3.03518,0.83729 -4.95399,0 -7.43098,-3.31428 -2.23278,-2.93053 -2.23278,-8.02406 0,-5.09353 2.23278,-8.68691 2.61654,-4.22135 7.43098,-4.22135 4.57022,0 7.04721,3.73293 2.75609,4.18646 2.75609,12.90826 0,18.24601 -9.8033,18.24601 z m 0,-28.25863 q -1.74436,0 -2.61654,2.19789 -0.66286,1.6397 -0.66286,3.66315 0,1.95369 0.66286,3.34918 0.87218,1.81413 2.61654,1.81413 1.6397,0 2.65142,-1.84902 0.8373,-1.50015 0.8373,-3.31429 0,-1.91879 -0.80241,-3.66315 -1.01173,-2.19789 -2.68631,-2.19789 z"
         style="letter-spacing:-2.28px"
         id="path11872" />
      <path
         d="m 357.30081,563.04993 q -8.93113,0 -9.34977,-9.31489 l 6.31458,-0.45353 q 0.31398,3.13985 3.03519,3.13985 2.26766,0 3.03518,-4.84932 -1.39549,0.83729 -3.03518,0.83729 -4.95399,0 -7.43098,-3.31428 -2.23278,-2.93053 -2.23278,-8.02406 0,-5.09353 2.23278,-8.68691 2.61654,-4.22135 7.43098,-4.22135 4.57022,0 7.04721,3.73293 2.75609,4.18646 2.75609,12.90826 0,18.24601 -9.8033,18.24601 z m 0,-28.25863 q -1.74436,0 -2.61654,2.19789 -0.66286,1.6397 -0.66286,3.66315 0,1.95369 0.66286,3.34918 0.87218,1.81413 2.61654,1.81413 1.63969,0 2.65142,-1.84902 0.8373,-1.50015 0.8373,-3.31429 0,-1.91879 -0.80241,-3.66315 -1.01173,-2.19789 -2.68631,-2.19789 z"
         style="letter-spacing:-2.28px"
         id="path11874" />
    </g>
  </g>
</svg>
