<?xml version="1.0" encoding="UTF-8" standalone="no"?>
<!-- Created with Inkscape (http://www.inkscape.org/) -->

<svg
   xmlns:dc="http://purl.org/dc/elements/1.1/"
   xmlns:cc="http://creativecommons.org/ns#"
   xmlns:rdf="http://www.w3.org/1999/02/22-rdf-syntax-ns#"
   xmlns:svg="http://www.w3.org/2000/svg"
   xmlns="http://www.w3.org/2000/svg"
   xmlns:sodipodi="http://sodipodi.sourceforge.net/DTD/sodipodi-0.dtd"
   xmlns:inkscape="http://www.inkscape.org/namespaces/inkscape"
   version="1.0"
   width="834.08563"
   height="734.98938"
   id="svg2"
   sodipodi:version="0.32"
   inkscape:version="0.47 r22583"
   sodipodi:docname="ZZ.svg"
   inkscape:output_extension="org.inkscape.output.svg.inkscape">
  <metadata
     id="metadata12">
    <rdf:RDF>
      <cc:Work
         rdf:about="">
        <dc:format>image/svg+xml</dc:format>
        <dc:type
           rdf:resource="http://purl.org/dc/dcmitype/StillImage" />
        <dc:title />
      </cc:Work>
    </rdf:RDF>
  </metadata>
  <sodipodi:namedview
     inkscape:window-height="1004"
     inkscape:window-width="1280"
     inkscape:pageshadow="2"
     inkscape:pageopacity="0.0"
     guidetolerance="10.0"
     gridtolerance="10.0"
     objecttolerance="10.0"
     borderopacity="1.0"
     bordercolor="#666666"
     pagecolor="#ffffff"
     id="base"
     inkscape:zoom="0.43999999"
     inkscape:cx="280.2421"
     inkscape:cy="225.36612"
     inkscape:window-x="-8"
     inkscape:window-y="-8"
     inkscape:current-layer="svg2"
     width="200px"
     height="200px"
     showgrid="false"
     inkscape:showpageshadow="false"
     inkscape:window-maximized="1" />
  <defs
     id="defs4">
    <inkscape:perspective
       sodipodi:type="inkscape:persp3d"
       inkscape:vp_x="0 : 450 : 1"
       inkscape:vp_y="0 : 1000 : 0"
       inkscape:vp_z="900 : 450 : 1"
       inkscape:persp3d-origin="450 : 300 : 1"
       id="perspective15" />
  </defs>
  <path
     sodipodi:nodetypes="cscssssssc"
     id="path3084"
     d="M 454.97828,22.43 C 447.54398,9.5545 432.99948,1.5 417.04268,1.5 c -16.2469,0 -30.7968,8.495 -38.3717,21.6152 L 8.0043801,665.1866 c -7.9552,13.7802 -9.1331,31.1377 -0.6229,45.8778 8.1234999,14.0703 22.7545999,22.425 37.9044999,22.425 l 743.51342,0 c 15.1499,0 29.781,-8.3548 37.9045,-22.425 8.5102,-14.74 7.333,-32.098 -0.623,-45.8778 L 454.97828,22.43 z"
     style="fill:#ffffff;fill-opacity:1;fill-rule:nonzero;stroke:#000000;stroke-width:3;stroke-linecap:round;stroke-linejoin:round;stroke-miterlimit:2;stroke-opacity:1;stroke-dasharray:none;stroke-dashoffset:0" />
  <path
     style="fill:#d40000;fill-opacity:1;fill-rule:nonzero;stroke:none"
     d="m 417.05288,16.5053 c 10.9092,0 20.385,5.5528 24.9376,13.4375 l 371.09372,642.75 c 5.549,9.6109 6.2861,21.0698 0.625,30.875 -5.5096,9.5428 -15.2711,14.9062 -24.9063,14.9063 l -743.53122,0 c -9.6352,0 -19.3966,-5.3633 -24.9062,-14.9063 -5.6611,-9.8052 -4.924,-21.2631 0.625,-30.875 L 391.64668,30.6303 c 4.8181,-8.3452 14.3881,-14.125 25.4062,-14.125 z"
     id="path3092" />
  <path
     style="fill:#ffffff;fill-opacity:1;fill-rule:nonzero;stroke:none"
     d="m 417.02168,146.6928 283.93752,491.7813 -567.84372,0 283.9062,-491.7813 z"
     id="path3102" />
  <g
     id="g5634"
     transform="matrix(4.17043,0,0,4.17043,-913.98876,-48.694607)" />
  <path
     style="fill:#000000"
     d="m -1607.7539,1565.0109 c 0,0 0,0 0,0 z"
     id="path2835" />
  <path
     style="fill:#000000"
     d="m -1610.7227,1565.0734 0,0 z"
     id="path2833" />
  <path
     style="fill:#000000"
     d="m -2816.5588,889.49385 c 0,0 0,0 0,0 z"
     id="path2427" />
  <path
     style="fill:#000000"
     d="m -2819.5276,889.55635 0,0 z"
     id="path2429" />
  <path
     style="fill:#000000;fill-opacity:1;fill-rule:evenodd;stroke:none"
     d="m 376.68288,339.02499 c -20.63512,0 -37.92824,15.67743 -39.70116,35.78328 -0.23097,2.61927 -1.25402,4.86995 -2.22013,7.18278 -11.1134,14.63982 -22.21772,33.42603 -20.24236,52.89134 0,0 9.9253,0.13039 9.92529,0.13039 1.71268,-8.97066 7.7382,-24.82317 18.9364,-29.38408 2.59337,-1.05626 4.50433,0.85057 5.74622,2.08953 8.40658,8.38689 19.13432,11.27576 27.55574,11.10066 14.13417,-0.29379 23.73048,-7.9282 33.04077,-17.63045 1.79999,-1.87578 4.94695,-4.11873 7.70516,-3.65669 2.48191,0.41582 4.45021,0.8466 5.87682,2.61192 6.96125,8.6139 15.33372,12.88156 26.11919,13.97376 7.86371,0.21439 14.33705,-3.18963 20.37296,-7.70516 3.30531,-2.47275 7.12051,-2.80072 10.97006,-3.52608 2.17541,0 7.27902,1.19755 9.92529,2.22013 0.0468,0.0376 0.0836,0.0919 0.13039,0.13038 4.78562,3.94931 10.93967,6.26861 17.63044,6.26861 15.29323,0 27.68634,-12.39312 27.68634,-27.68634 0,-15.29322 -12.39311,-27.68634 -27.68634,-27.68633 -7.47317,0 -13.91458,3.28633 -19.1976,7.70516 -2.36259,1.9761 -6.75475,3.3719 -8.74992,2.87311 -2.28662,-0.57166 -5.84936,-3.00022 -7.31337,-4.44026 -6.75422,-6.64368 -14.43681,-10.01372 -23.76846,-10.83947 -9.14928,-0.0655 -16.25127,4.08234 -22.98488,9.7947 -1.39356,1.1822 -5.53841,3.55207 -8.22755,2.35072 -2.79662,-1.24937 -6.11776,-3.39138 -6.79099,-4.44026 -8.28718,-12.91119 -19.91699,-18.50159 -34.73852,-20.11177 z m -75.61503,104.60733 0,10.31708 6.2686,28.46991 -29.12289,0 -17.63045,29.25348 17.63045,29.25349 209.73705,0 0,-58.50697 -15.01853,0 0,-8.74993 -87.49927,0 0,8.74993 -57.98459,0 6.26861,-28.46991 0,-10.31708 -32.64898,0 z m 193.15137,29.51468 0,72.48073 -229.45704,0 0,24.81323 -21.67892,0 0,9.4029 17.76104,0 c -5.05412,3.09544 -8.48874,8.66171 -8.48873,15.01853 0,9.71906 7.91139,17.6305 17.63045,17.63045 9.71905,0 17.63045,-7.91135 17.63045,-17.63045 0,-6.3885 -3.52327,-11.93253 -8.61933,-15.01853 l 25.72739,0 c -0.0113,0.34561 0,0.69657 0,1.04477 0,17.43713 14.03649,31.60426 31.47362,31.60421 17.43713,0 31.60421,-14.16708 31.60421,-31.60421 0,-0.34812 0.0113,-0.69928 0,-1.04477 l 6.79099,0 c -0.0113,0.34561 0,0.69657 0,1.04477 0,17.43713 14.16708,31.60426 31.60421,31.60421 17.43713,0 31.60422,-14.16708 31.60422,-31.60421 0,-0.3502 -0.1191,-0.69753 -0.13039,-1.04477 l 9.01112,0 c -0.0125,0.3569 -0.13038,0.68587 -0.13038,1.04477 0,17.43713 14.16708,31.60426 31.60421,31.60421 17.43712,0 31.60421,-14.16708 31.60421,-31.60421 0,-0.35898 -0.1166,-0.688 -0.13039,-1.04477 l 27.29455,0 c -5.09608,3.086 -8.48873,8.63003 -8.48873,15.01853 0,9.71906 7.7808,17.6305 17.49985,17.63045 9.71905,0 17.63045,-7.91135 17.63045,-17.63045 0,-6.3885 -3.39265,-11.93253 -8.48874,-15.01853 l 35.91388,0 0,-9.4029 -81.23066,0 0,-6.66039 51.71598,0 0,-45.57798 -28.99229,0 0,-37.87282 45.57798,0 0,-7.18277 -83.84258,0 z"
     id="rect2842" />
</svg>
