<?xml version="1.0" encoding="UTF-8" standalone="no"?>
<!-- Created with Inkscape (http://www.inkscape.org/) -->

<svg
   xmlns:dc="http://purl.org/dc/elements/1.1/"
   xmlns:cc="http://creativecommons.org/ns#"
   xmlns:rdf="http://www.w3.org/1999/02/22-rdf-syntax-ns#"
   xmlns:svg="http://www.w3.org/2000/svg"
   xmlns="http://www.w3.org/2000/svg"
   xmlns:sodipodi="http://sodipodi.sourceforge.net/DTD/sodipodi-0.dtd"
   xmlns:inkscape="http://www.inkscape.org/namespaces/inkscape"
   version="1.0"
   width="834.08563"
   height="734.98938"
   id="svg2"
   sodipodi:version="0.32"
   inkscape:version="0.47 r22583"
   sodipodi:docname="ZZ.svg"
   inkscape:output_extension="org.inkscape.output.svg.inkscape">
  <metadata
     id="metadata12">
    <rdf:RDF>
      <cc:Work
         rdf:about="">
        <dc:format>image/svg+xml</dc:format>
        <dc:type
           rdf:resource="http://purl.org/dc/dcmitype/StillImage" />
      </cc:Work>
    </rdf:RDF>
  </metadata>
  <sodipodi:namedview
     inkscape:window-height="1003"
     inkscape:window-width="1280"
     inkscape:pageshadow="2"
     inkscape:pageopacity="0.0"
     guidetolerance="10.0"
     gridtolerance="10.0"
     objecttolerance="10.0"
     borderopacity="1.0"
     bordercolor="#666666"
     pagecolor="#ffffff"
     id="base"
     inkscape:zoom="0.44"
     inkscape:cx="667.39766"
     inkscape:cy="480.60905"
     inkscape:window-x="-4"
     inkscape:window-y="-4"
     inkscape:current-layer="svg2"
     width="200px"
     height="200px"
     showgrid="false"
     inkscape:showpageshadow="false"
     inkscape:window-maximized="0" />
  <defs
     id="defs4">
    <inkscape:perspective
       sodipodi:type="inkscape:persp3d"
       inkscape:vp_x="0 : 450 : 1"
       inkscape:vp_y="0 : 1000 : 0"
       inkscape:vp_z="900 : 450 : 1"
       inkscape:persp3d-origin="450 : 300 : 1"
       id="perspective20" />
  </defs>
  <path
     sodipodi:nodetypes="cscssssssc"
     id="path3084"
     d="M 454.97828,22.43 C 447.54398,9.5545 432.99948,1.5 417.04268,1.5 c -16.2469,0 -30.7968,8.495 -38.3717,21.6152 L 8.0043801,665.1866 c -7.9552,13.7802 -9.1331,31.1377 -0.6229,45.8778 8.1234999,14.0703 22.7545999,22.425 37.9044999,22.425 l 743.51342,0 c 15.1499,0 29.781,-8.3548 37.9045,-22.425 8.5102,-14.74 7.333,-32.098 -0.623,-45.8778 L 454.97828,22.43 z"
     style="fill:#ffffff;fill-opacity:1;fill-rule:nonzero;stroke:#000000;stroke-width:3;stroke-linecap:round;stroke-linejoin:round;stroke-miterlimit:2;stroke-opacity:1;stroke-dasharray:none;stroke-dashoffset:0" />
  <path
     style="fill:#d40000;fill-opacity:1;fill-rule:nonzero;stroke:none"
     d="m 417.05288,16.5053 c 10.9092,0 20.385,5.5528 24.9376,13.4375 l 371.09372,642.75 c 5.549,9.6109 6.2861,21.0698 0.625,30.875 -5.5096,9.5428 -15.2711,14.9062 -24.9063,14.9063 l -743.53122,0 c -9.6352,0 -19.3966,-5.3633 -24.9062,-14.9063 -5.6611,-9.8052 -4.924,-21.2631 0.625,-30.875 L 391.64668,30.6303 c 4.8181,-8.3452 14.3881,-14.125 25.4062,-14.125 z"
     id="path3092" />
  <path
     style="fill:#ffffff;fill-opacity:1;fill-rule:nonzero;stroke:none"
     d="m 417.02168,146.6928 283.93752,491.7813 -567.84372,0 283.9062,-491.7813 z"
     id="path3102" />
  <path
     style="fill:#000000"
     d="m -402.43533,503.24107 c 0,0 0,0 0,0 z"
     id="path2835" />
  <path
     style="fill:#000000"
     d="m -405.40408,503.30357 0,0 z"
     id="path2833" />
  <path
     style="fill:#000000"
     d="m -2179.8676,-332.40764 c 0,0 0,0 0,0 z"
     id="path2368" />
  <path
     style="fill:#000000"
     d="m -2182.8364,-332.34514 0,0 z"
     id="path2370" />
  <g
     id="g7278"
     transform="matrix(1.7870334,0,0,1.7870334,295.93207,163.94888)">
    <g
       id="g7273">
      <path
         id="path5480"
         style="fill:#000000;fill-opacity:1;fill-rule:evenodd;stroke:none"
         d="m 66.418835,183.39529 c 0.166299,-2.02005 0.320572,-5.03741 -0.123915,-6.81536 -0.340875,-1.3635 -0.231728,-2.89346 -0.495663,-4.21314 -0.264847,-1.32423 0.021,-2.64215 -0.247832,-3.71747 -0.326286,-1.30514 -0.123916,-3.49757 -0.123916,-4.83272 0,-1.85021 0.247832,-3.43228 0.247832,-5.20446 0,-1.99965 -0.247832,-3.95506 -0.247832,-5.94795 0,-1.96831 0.559772,-4.20453 0.123916,-5.94796 -0.347465,-1.38986 -0.247832,-2.99939 -0.247832,-4.46096 0,-1.66405 -0.247831,-3.47642 -0.247831,-5.20446 0,-1.48699 -0.86741,-2.72615 -0.86741,-4.21314 0,-1.35087 -0.250373,-2.4834 -0.743495,-3.46964 -0.638764,-1.27753 -1.311466,-2.12727 -1.982651,-3.46964 -0.63241,-1.26482 -1.438362,-2.38106 -1.982652,-3.46964 -0.563862,-1.12772 -1.170261,-1.45254 -2.230483,-1.98265 -0.613344,-0.30668 -2.987971,0.49566 -3.965304,0.49566 -1.404378,0 -2.808757,0 -4.213135,0 -1.480841,0 -2.088306,-0.39816 -3.469641,-0.74349 -0.621792,-0.15545 -2.071613,-1.92546 -2.478314,-2.23049 -0.590997,-0.44325 -3.008343,0.24783 -3.965304,0.24783 -1.562915,0 -2.651782,-0.58239 -3.965304,-1.23915 -1.229354,-0.61468 -1.838405,-1.04312 -2.726146,-1.48699 -0.530507,-0.26526 -1.088497,-2.12351 -1.239157,-2.72615 -0.290462,-1.16185 -0.743495,-1.4836 -0.743495,-2.97398 0,-1.69017 0.19539,-2.23048 -1.486988,-2.23048 -1.819078,0 -3.491107,-0.24783 -5.204461,-0.24783 -1.3236,0 -2.48049,-0.99187 -3.469641,-1.23916 -0.769916,-0.19248 -2.034735,-1.2652 -2.973978,-1.73482 -0.700822,-0.35041 -1.310188,-1.52328 -1.486989,-2.23048 -0.269709,-1.07884 -0.991326,-1.31587 -0.991326,-2.726149 0,-1.707791 0.444195,-1.683352 1.239158,-2.478314 0.934513,-0.934513 1.92434,-1.22458 2.973978,-1.486989 0.364461,-0.09112 0.643044,-2.572178 0.743494,-2.973978 0.285796,-1.143185 0.399986,-2.185524 0.991326,-2.973978 0.67436,-0.899147 1.347038,-1.454918 1.73482,-2.230483 0.197152,-0.394303 1.357641,-1.605472 1.734821,-1.982652 0.831518,-0.831518 1.051604,-1.192269 2.230483,-1.486989 1.039235,-0.259808 1.810699,-0.495663 3.221809,-0.495663 1.826778,0 1.886653,-0.151833 2.726146,-0.991325 0.704565,-0.704566 1.011786,-1.568827 1.239158,-2.478315 0.291579,-1.166319 1.132266,-1.62793 1.73482,-2.230483 0.737752,-0.737753 2.01005,-1.197749 2.726146,-1.734821 0.631067,-0.4733 3.626498,-0.247831 4.460967,-0.247831 1.70639,0 3.468321,-0.247832 5.204461,-0.247832 1.579804,0 3.214376,-0.125774 4.708798,0.247832 1.737412,0.434353 3.063517,0.332174 4.708798,0.743494 0.566703,0.141676 1.156547,0.165221 1.73482,0.247832 0.416999,0.05957 0.826105,0.165221 1.239157,0.247831 1.334847,0.266969 3.763838,1.386256 4.95663,1.982652 1.511464,0.755732 3.845754,0.91785 5.452292,1.239157 1.179031,0.235806 3.360346,1.377695 4.213135,2.230484 0.588708,0.588707 2.645396,1.342885 3.221809,1.486988 1.621102,0.405276 1.95781,-0.23541 2.973978,-0.743494 1.176352,-0.588176 1.987517,-1.739685 2.726146,-2.478315 0.799499,-0.799499 1.763305,-1.377315 2.478315,-1.73482 1.364943,-0.682472 3.064449,-0.535003 4.213135,-0.247832 1.783778,0.445945 3.666321,0.692343 4.460967,1.486989 0.815678,0.815678 2.3738,0.991326 3.717472,0.991326 1.257417,0 2.645683,0.247832 3.965303,0.247832 1.5489,0 1.75686,0.934877 2.97398,1.239157 1.14402,0.286007 2.45807,1.600786 3.22181,1.982652 0.3979,0.198952 0.8261,0.330442 1.23915,0.495663 0.41306,0.165221 0.82611,0.330442 1.23916,0.495663 1.33107,0.532427 2.29932,1.307993 2.97398,1.982652 0.24783,0.247831 0.49566,0.495662 0.74349,0.743494 0.87734,0.877333 2.51337,1.504512 3.46964,1.982652 1.15421,0.577105 1.85231,1.721952 2.23049,2.478314 0.638,1.275995 1.22135,1.699209 1.73482,2.726147 0.63851,1.277029 0.74349,1.781453 0.74349,3.46964 0,1.482382 -0.79199,2.327472 -1.23915,3.221812 -0.55623,1.11245 -1.18175,1.72046 -2.23049,1.98265 -1.50707,0.37677 -1.62665,0.43267 -1.23916,1.98265 0.34045,1.36179 -0.23528,2.67596 -0.49566,3.71747 -0.0826,0.33045 -0.16522,0.66089 -0.24783,0.99133 -0.26311,1.05245 -1.16847,2.1598 -1.73482,2.72615 -0.90125,0.90124 -1.56949,1.81732 -2.23048,2.47831 -0.86275,0.86275 -2.52787,1.14002 -3.22181,1.48699 -0.95335,0.47667 -2.82641,0.24783 -3.96531,0.24783 -9.010042,2.50575 -22.270958,1.10563 -28.996278,9.16976 -1.05039,1.05039 -1.506793,1.77443 -1.982652,2.72615 -0.522456,1.04491 -0.991866,1.98373 -1.486989,2.97398 -0.659371,1.31874 -0.743495,2.46031 -0.743495,3.9653 0,1.23916 0,2.47832 0,3.71747 0,1.32177 0,2.64354 0,3.96531 0,1.49569 -0.247831,2.68833 -0.247831,4.21313 0,1.79785 -0.247831,3.42553 -0.247831,5.20446 0,1.63137 0.247831,2.80467 0.247831,4.21314 0,1.45716 0.247831,3.10992 0.247831,4.7088 0,1.43672 0.247832,2.77887 0.247832,4.46096 0,1.37753 0.06196,2.51102 0.06196,4.02727 0,1.34446 0.247831,2.54372 0.247831,3.9653 0,1.23916 0,2.47831 0,3.71747 0,1.23916 0.247831,2.66419 0.247831,3.90334 -1.503306,2.38892 -5.588374,2.16759 -7.744733,0.7435 z m 1.486989,-65.42751 c -1.077429,0.40211 -1.965489,1.20483 -2.478315,2.23049 -0.610805,1.22161 -0.563524,2.09476 0,3.2218 0.46921,0.93842 1.565933,1.2589 2.478315,1.48699 1.296685,0.32417 1.279591,-0.53609 1.982652,-1.23915 0.634373,-0.63438 0.247831,-2.86283 0.247831,-3.71748 0,-1.43387 0.101185,-2.32141 0,-2.72614 -0.190078,-0.76031 -1.558456,0.34028 -2.230483,0.74349 z m 9.169765,-4.21313 c -0.15073,-0.60292 -2.566887,1.82339 -2.726147,1.98265 -0.788714,0.78871 -0.988436,1.72326 -1.239157,2.72614 -0.270177,1.08071 0,2.59692 0,3.71748 0,0.71504 2.254839,0.61349 2.726146,0.49566 0.954388,-0.2386 2.024185,-1.28069 2.478315,-1.73482 0.730585,-0.73059 1.08503,-1.42657 1.486989,-2.23048 0.408175,-0.81635 0,-3.01812 0,-3.96531 0,-1.21087 -1.896017,-0.99132 -2.726146,-0.99132 z m -2.973979,-2.47832 c 0,-1.15129 -3.708499,-0.004 -4.213134,0.24783 -1.586065,0.79303 1.782933,2.05664 1.982652,2.10657 1.504625,0.37616 2.230482,-1.09783 2.230482,-2.3544 z" />
      <path
         style="fill:#d40000;fill-opacity:1;fill-rule:evenodd;stroke:none"
         d="m 10.904585,236.43123 c 3.515416,-2.76356 4.674993,-5.79024 4.832714,-9.16977 1.602204,1.42357 5.132671,2.93612 7.063197,1.73482 3.057115,-3.04986 1.51082,-8.47275 1.73482,-12.6394 0,-1.35756 -0.256894,-2.7624 -0.495663,-3.71747 -0.488755,-1.95502 1.329405,-0.15759 1.73482,0.24783 0.821703,0.8217 1.556861,1.52192 2.478315,1.98265 1.025154,0.51258 1.481489,0.96933 1.73482,1.98265 0.559971,3.53033 1.660372,6.93928 4.708798,6.93928 6.229597,0 4.801999,-8.48991 -0.04485,-14.16766 -4.441109,-5.20245 -7.121361,-11.53084 -6.522687,-15.94386 3.673115,3.5134 11.044111,10.48586 17.224287,7.55886 2.337015,-1.10683 1.542555,-4.24672 1.81428,-6.54757 4.943207,0.58826 4.213506,16.33691 7.727232,16.33691 2.148179,0 2.235756,-5.0137 2.354399,-7.31103 0.625027,-12.1026 6.453366,-16.2305 8.798017,-25.03097 -0.234994,-2.73636 -0.03146,-5.44996 0.123916,-8.17845 0,-1.35491 1.520246,2.26375 2.478314,3.22181 4.852844,2.80714 2.794544,14.05427 8.178439,14.37423 1.488825,0.0885 2.116461,-1.92156 2.726146,-3.22181 0.646344,2.93981 -0.462024,12.32986 4.708798,12.88724 1.537869,0.16577 2.362197,-0.62738 3.097894,-1.36307 0.07261,6.97709 1.990611,22.55266 7.063197,22.55266 5.176454,0 8.466132,-19.66956 1.486989,-32.58984 8.601923,3.51838 8.236433,8.1527 14.002483,9.91326 1.44368,0 0.69882,-0.56111 1.98265,-0.99133 0.0384,4.47339 1.54281,7.9297 4.08922,11.64808 1.64977,1.54822 3.86724,1.29879 5.94796,0.99133 -1.27118,7.62393 3.31565,12.94033 5.45229,19.57868 2.14682,5.03767 2.48766,10.41245 1.23916,15.61339 -0.7572,0.75719 -1.0966,1.34442 -1.73483,1.98265 -0.8976,0.89761 -1.75796,1.51013 -2.47831,2.23048 -0.70935,0.70935 -1.35191,1.96033 -1.73482,2.72615 -5.41785,10.77336 -16.24411,10.52223 -22.800503,2.47831 0,0 -6.691446,-6.19578 -6.691446,-6.19578 0,0 -18.33953,-9.66543 -18.33953,-9.66543 0,0 -63.94052,-0.24783 -63.94052,-0.24783 z"
         id="path1907"
         sodipodi:nodetypes="ccccssscsscscsscccscscscccccccssccccc" />
      <rect
         style="fill:#ffffff;fill-opacity:1;fill-rule:evenodd;stroke:#000000;stroke-width:1.50230181;stroke-linecap:round;stroke-linejoin:round;stroke-miterlimit:4;stroke-opacity:1;stroke-dasharray:none"
         id="rect3681"
         width="100.59296"
         height="3.7499421"
         x="79.507347"
         y="179.92999"
         rx="3.7967045"
         ry="0.86808634"
         transform="matrix(0.904156,0.427203,-0.355188,0.934795,0,0)" />
    </g>
    <path
       sodipodi:nodetypes="czccc"
       id="path4574"
       d="m 96.778191,246.4684 c 0,0 -4.780715,-6.93763 -3.345725,-13.75464 1.459958,-6.93563 11.028504,-13.01116 11.895914,-22.8005 12.30942,13.67623 14.12639,37.17473 -0.7435,40.1487 l -7.806689,-3.59356 z"
       style="fill:#ebeb00;fill-opacity:1;fill-rule:evenodd;stroke:#000000;stroke-width:1px;stroke-linecap:butt;stroke-linejoin:miter;stroke-opacity:1" />
    <path
       transform="matrix(0.945249,0.326351,-0.326351,0.945249,133.5772,89.35978)"
       d="m 26.517967,160.09914 c 0,3.14809 -3.439696,5.70012 -7.682775,5.70012 -4.24308,0 -7.682776,-2.55203 -7.682776,-5.70012 0,-3.1481 3.439696,-5.70013 7.682776,-5.70013 4.243079,0 7.682775,2.55203 7.682775,5.70013 z"
       sodipodi:ry="5.7001238"
       sodipodi:rx="7.6827755"
       sodipodi:cy="160.09914"
       sodipodi:cx="18.835192"
       id="path3687"
       style="fill:#000000;fill-opacity:1;fill-rule:evenodd;stroke:none"
       sodipodi:type="arc" />
  </g>
</svg>
