<?xml version="1.0" encoding="UTF-8" standalone="no"?>
<!-- Created with Inkscape (http://www.inkscape.org/) -->

<svg
   xmlns:dc="http://purl.org/dc/elements/1.1/"
   xmlns:cc="http://creativecommons.org/ns#"
   xmlns:rdf="http://www.w3.org/1999/02/22-rdf-syntax-ns#"
   xmlns:svg="http://www.w3.org/2000/svg"
   xmlns="http://www.w3.org/2000/svg"
   xmlns:sodipodi="http://sodipodi.sourceforge.net/DTD/sodipodi-0.dtd"
   xmlns:inkscape="http://www.inkscape.org/namespaces/inkscape"
   version="1.0"
   width="199.99997"
   height="175.87384"
   id="svg2"
   sodipodi:version="0.32"
   inkscape:version="0.47 r22583"
   sodipodi:docname="ZZ.svg"
   inkscape:output_extension="org.inkscape.output.svg.inkscape"
   sodipodi:modified="true">
  <metadata
     id="metadata12">
    <rdf:RDF>
      <cc:Work
         rdf:about="">
        <dc:format>image/svg+xml</dc:format>
        <dc:type
           rdf:resource="http://purl.org/dc/dcmitype/StillImage" />
      </cc:Work>
    </rdf:RDF>
  </metadata>
  <sodipodi:namedview
     inkscape:window-height="1003"
     inkscape:window-width="1280"
     inkscape:pageshadow="2"
     inkscape:pageopacity="0.0"
     guidetolerance="10.0"
     gridtolerance="10.0"
     objecttolerance="10.0"
     borderopacity="1.0"
     bordercolor="#666666"
     pagecolor="#ffffff"
     id="base"
     inkscape:zoom="2.8390337"
     inkscape:cx="151.01583"
     inkscape:cy="61.268376"
     inkscape:window-x="-4"
     inkscape:window-y="-4"
     inkscape:current-layer="svg2"
     width="200px"
     height="200px"
     showgrid="false"
     inkscape:window-maximized="0" />
  <defs
     id="defs4">
    <inkscape:perspective
       sodipodi:type="inkscape:persp3d"
       inkscape:vp_x="0 : 100 : 1"
       inkscape:vp_y="0 : 1000 : 0"
       inkscape:vp_z="200 : 100 : 1"
       inkscape:persp3d-origin="100 : 66.666667 : 1"
       id="perspective11" />
  </defs>
  <path
     style="fill:#ffffff;fill-opacity:1;fill-rule:evenodd;stroke:#000000;stroke-width:1;stroke-miterlimit:4;stroke-dasharray:none"
     d="m 9.9600164,175.37384 c -3.3797385,0 -6.5027442,-1.80309 -8.1926166,-4.73002 -1.68986641,-2.92694 -1.68986641,-6.53307 0,-9.46002 L 91.807367,5.230002 C 93.497242,2.303066 96.620246,0.5 99.999987,0.5 c 3.379733,0 6.502743,1.803066 8.192613,4.730002 L 198.23257,161.1838 c 1.68987,2.92695 1.68987,6.53308 0,9.46002 -1.68987,2.92693 -4.81288,4.73002 -8.19261,4.73002 l -180.0799436,0 z"
     id="path1902" />
  <path
     style="fill:#d40000;fill-opacity:1;fill-rule:evenodd;stroke:none"
     d="m 99.999991,2.999422 c -2.490587,0 -4.78595,1.311841 -6.03125,3.46875 L 3.9374906,162.43692 c -1.2452932,2.15692 -1.2452877,4.81185 0,6.96875 1.2452964,2.15691 3.5406779,3.46875 6.03125,3.46875 l 180.0624994,0 c 2.49056,0 4.78596,-1.31185 6.03125,-3.46875 1.24529,-2.15691 1.2453,-4.81184 0,-6.96875 L 106.03124,6.468172 c -1.24529,-2.156905 -3.54067,-3.46875 -6.031249,-3.46875 z m 0,33 67.468749,116.874998 -134.937499,0 67.46875,-116.874998 z"
     id="path4558" />
  <path
     style="fill:none;stroke:#000000;stroke-width:2;stroke-linecap:butt;stroke-linejoin:miter;stroke-miterlimit:4;stroke-opacity:1;stroke-dasharray:none"
     d="m 68.368609,103.12995 c 4.746572,5.66547 12.856163,7.21129 17.932752,7.5965"
     id="path2820"
     sodipodi:nodetypes="cc" />
  <path
     style="fill:none;stroke:#000000;stroke-width:2;stroke-linecap:butt;stroke-linejoin:miter;stroke-miterlimit:4;stroke-opacity:1;stroke-dasharray:none"
     d="m 103.61145,112.34539 c 2.191,-0.45142 5.11473,-1.70796 6.97385,-3.48693 10.4329,-0.93037 13.36132,-3.77109 18.67995,-5.60398"
     id="path2822"
     sodipodi:nodetypes="ccc" />
  <path
     style="fill:#02509a;fill-opacity:1;fill-rule:evenodd;stroke:none"
     d="m 100.87499,110.56192 c -3.235358,-0.93342 -7.104097,-1.4269 -11.874999,-1.5625 -2.502548,-0.0711 -5.27723,-0.057 -8.3125,0.0625 0,0 6.96875,4.1875 6.96875,4.1875 0.02119,0.003 0.04128,0.0284 0.0625,0.0312 2.795721,0.99242 5.395111,2.18586 7.3125,3.71875 2.576896,2.06015 3.943988,4.60565 3.125,8.125 -0.234212,1.00645 -0.145063,1.77031 0.28125,2.28125 0.426313,0.51094 1.051714,0.66641 1.624999,0.8125 0.57329,0.14609 1.14976,0.28353 1.59375,0.5 0.44399,0.21647 0.74577,0.47589 0.9375,1.0625 0.44422,1.35911 0.43068,3.33431 0.71875,4.96875 0.14404,0.81722 0.37408,1.59465 0.875,2.15625 0.50092,0.5616 1.27931,0.83447 2.25,0.6875 0.45727,-0.0692 0.85033,-0.28143 1.09375,-0.59375 0.24342,-0.31232 0.32681,-0.69744 0.34375,-1.0625 0.0339,-0.73012 -0.15907,-1.51117 -0.3125,-2.21875 -0.15343,-0.70758 -0.21682,-1.32718 -0.125,-1.5625 0.0459,-0.11766 0.0681,-0.1661 0.21875,-0.21875 0.0987,-0.0345 0.36131,-0.01 0.59375,0 0.0528,0.66037 0.0876,1.32746 0.4375,1.875 0.43673,0.68345 1.24965,1.12239 2.53125,1.375 0.38707,0.0763 0.64263,0.19498 0.78125,0.28125 0.13862,0.0863 0.14479,0.11519 0.15625,0.15625 0.0229,0.0821 -0.0569,0.37735 -0.34375,0.78125 -0.28686,0.4039 -0.72387,0.873 -1.125,1.34375 -0.40113,0.47075 -0.76149,0.93359 -0.9375,1.46875 -0.16718,0.50831 -0.20092,0.98632 -0.0625,1.40625 0.13842,0.41993 0.42463,0.76892 0.75,1.03125 0.65074,0.52465 1.49692,0.81792 2.3125,1.15625 0.81558,0.33833 1.58649,0.69582 2.03125,1.15625 0.30776,0.31861 0.52293,0.6768 0.53125,1.1875 l -20.343749,0 0,2.5 58.906249,0 0,-2.5 -2.59375,0 c -2.25792,-0.47667 -4.06866,-1.3763 -6.25,-2.84375 -0.45596,-0.30673 -1.07227,-0.96244 -1.71875,-1.71875 -0.64648,-0.75631 -1.31931,-1.61663 -2,-2.3125 -0.68069,-0.69587 -1.3369,-1.28014 -2.125,-1.40625 -0.39405,-0.0631 -0.85084,0.0377 -1.1875,0.3125 -0.33666,0.27483 -0.55195,0.67756 -0.75,1.21875 -0.31004,0.84722 -0.74571,1.20076 -1.21875,1.34375 -0.47304,0.14299 -1.06371,0.0694 -1.75,-0.25 -1.37257,-0.63882 -2.92674,-2.18836 -3.84375,-3.71875 -1.14799,-1.91587 -3.33816,-2.70802 -5,-2.5625 -0.83092,0.0728 -1.60846,0.39978 -1.96875,1.09375 -0.36029,0.69397 -0.17721,1.61376 0.5,2.5625 0.2691,0.377 0.64626,0.73944 1,1.125 0.35374,0.38556 0.67886,0.77852 0.84375,1.0625 0.0824,0.14199 0.12126,0.27263 0.125,0.3125 -0.0246,0.0254 -0.41025,0.21875 -1.28125,0.21875 -1.06552,0 -1.79029,-0.29949 -2.375,-0.78125 -0.58471,-0.48176 -1.01974,-1.19865 -1.375,-2.03125 -0.71051,-1.66519 -1.06794,-3.81877 -1.8125,-5.5625 -3.72567,-8.72541 -6.8103,-14.58368 -12.375,-18.09375 -0.41284,-0.26041 -0.84126,-0.51606 -1.28125,-0.75 0,0 -4.5625,-1.8125 -4.5625,-1.8125 z"
     id="path2817"
     sodipodi:nodetypes="cscccsssssssssssssscsssssssssssccccccsssssssssssssssssssscc" />
</svg>
