<?xml version="1.0" encoding="UTF-8" standalone="no"?>
<!-- Created with Inkscape (http://www.inkscape.org/) -->

<svg
   xmlns:dc="http://purl.org/dc/elements/1.1/"
   xmlns:cc="http://creativecommons.org/ns#"
   xmlns:rdf="http://www.w3.org/1999/02/22-rdf-syntax-ns#"
   xmlns:svg="http://www.w3.org/2000/svg"
   xmlns="http://www.w3.org/2000/svg"
   xmlns:sodipodi="http://sodipodi.sourceforge.net/DTD/sodipodi-0.dtd"
   xmlns:inkscape="http://www.inkscape.org/namespaces/inkscape"
   version="1.0"
   width="834.08563"
   height="734.98938"
   id="svg2"
   sodipodi:version="0.32"
   inkscape:version="0.47 r22583"
   sodipodi:docname="ZZ.svg"
   inkscape:output_extension="org.inkscape.output.svg.inkscape">
  <metadata
     id="metadata12">
    <rdf:RDF>
      <cc:Work
         rdf:about="">
        <dc:format>image/svg+xml</dc:format>
        <dc:type
           rdf:resource="http://purl.org/dc/dcmitype/StillImage" />
      </cc:Work>
    </rdf:RDF>
  </metadata>
  <sodipodi:namedview
     inkscape:window-height="1004"
     inkscape:window-width="1280"
     inkscape:pageshadow="2"
     inkscape:pageopacity="0.0"
     guidetolerance="10.0"
     gridtolerance="10.0"
     objecttolerance="10.0"
     borderopacity="1.0"
     bordercolor="#666666"
     pagecolor="#ffffff"
     id="base"
     inkscape:zoom="0.31112698"
     inkscape:cx="136.98263"
     inkscape:cy="318.76585"
     inkscape:window-x="-8"
     inkscape:window-y="-8"
     inkscape:current-layer="svg2"
     width="200px"
     height="200px"
     showgrid="false"
     inkscape:showpageshadow="false"
     inkscape:window-maximized="1" />
  <defs
     id="defs4">
    <inkscape:perspective
       sodipodi:type="inkscape:persp3d"
       inkscape:vp_x="0 : 450 : 1"
       inkscape:vp_y="0 : 1000 : 0"
       inkscape:vp_z="900 : 450 : 1"
       inkscape:persp3d-origin="450 : 300 : 1"
       id="perspective10" />
  </defs>
  <path
     sodipodi:nodetypes="cscssssssc"
     id="path3084"
     d="M 454.97828,22.43 C 447.54398,9.5545 432.99948,1.5 417.04268,1.5 c -16.2469,0 -30.7968,8.495 -38.3717,21.6152 L 8.0043801,665.1866 c -7.9552,13.7802 -9.1331,31.1377 -0.6229,45.8778 8.1234999,14.0703 22.7545999,22.425 37.9044999,22.425 l 743.51342,0 c 15.1499,0 29.781,-8.3548 37.9045,-22.425 8.5102,-14.74 7.333,-32.098 -0.623,-45.8778 L 454.97828,22.43 z"
     style="fill:#ffffff;fill-opacity:1;fill-rule:nonzero;stroke:#000000;stroke-width:3;stroke-linecap:round;stroke-linejoin:round;stroke-miterlimit:2;stroke-opacity:1;stroke-dasharray:none;stroke-dashoffset:0" />
  <path
     style="fill:#d40000;fill-opacity:1;fill-rule:nonzero;stroke:none"
     d="m 417.05288,16.5053 c 10.9092,0 20.385,5.5528 24.9376,13.4375 l 371.09372,642.75 c 5.549,9.6109 6.2861,21.0698 0.625,30.875 -5.5096,9.5428 -15.2711,14.9062 -24.9063,14.9063 l -743.53122,0 c -9.6352,0 -19.3966,-5.3633 -24.9062,-14.9063 -5.6611,-9.8052 -4.924,-21.2631 0.625,-30.875 L 391.64668,30.6303 c 4.8181,-8.3452 14.3881,-14.125 25.4062,-14.125 z"
     id="path3092" />
  <path
     style="fill:#ffffff;fill-opacity:1;fill-rule:nonzero;stroke:none"
     d="m 417.02168,146.6928 283.93752,491.7813 -567.84372,0 283.9062,-491.7813 z"
     id="path3102" />
  <path
     style="fill:#000000;fill-opacity:1;fill-rule:evenodd;stroke:none"
     d="m 438.4108,362.65059 -176.59166,163.81971 18.24563,19.67922 -6.38597,5.995 15.89977,17.20302 -22.67672,0 0,-22.28574 -60.47124,0 0,22.28574 -8.21053,0 -33.10279,55.2582 126.02519,0 0,-53.56396 188.45132,-174.7671 -17.59401,-18.89726 -5.34336,4.95239 -18.24563,-19.67922 z m -0.26065,15.63911 10.5564,11.46869 -48.48126,44.96245 -10.5564,-11.33836 48.48126,-45.09278 z m -56.30081,52.26071 10.5564,11.33835 -48.48125,45.09278 -10.55641,-11.33836 48.48126,-45.09277 z m -56.30081,52.2607 10.5564,11.33836 -48.35093,44.96245 -10.5564,-11.46868 48.35093,-44.83213 z m 227.15812,64.25069 0,22.28574 -9.77444,0 0,55.2582 126.02519,0 -33.10279,-55.2582 -8.21054,0 0,-22.28574 -74.93742,0 z m -338.45648,6.25565 44.44115,0 0,16.03009 -44.44115,0 0,-16.03009 z m 346.66702,0 58.90733,0 0,16.03009 -58.90733,0 0,-16.03009 z m -219.59922,24.76193 c -19.50853,0 -28.88343,12.90227 -38.18551,12.90227 l 0,11.85966 c 14.99559,0 18.67698,-12.90231 38.18551,-12.90227 18.76763,0 19.12429,11.86375 37.53387,12.77194 l 0,0.13033 c 0.32721,0 0.59551,0.012 0.91228,0 0.44048,0.0125 0.84229,0 1.30326,0 l 0,-0.13033 c 13.13782,-1.23119 17.49828,-12.77198 35.96996,-12.77194 18.72415,0 19.12001,11.81487 37.40355,12.77194 l 0,0.13033 c 0.35624,0 0.69871,0.0142 1.04261,0 0.44048,0.0125 0.8423,0 1.30326,0 l 0,-0.13033 c 13.12346,-1.24033 17.50688,-12.77198 35.96996,-12.77194 19.50852,0 19.07171,12.90227 39.74941,12.90227 l 0,-11.85966 c -15.50345,0 -20.24089,-12.90223 -39.74941,-12.90227 -18.89585,0 -28.37628,12.01055 -37.40355,12.77194 -14.34086,-0.79296 -19.4473,-12.7719 -38.31583,-12.77194 -18.84869,0 -28.26634,11.95608 -37.27322,12.77194 -14.44209,-0.72561 -19.5197,-12.7719 -38.44615,-12.77194 z m 0,22.67671 c -19.50853,0 -28.88343,12.90227 -38.18551,12.90227 l 0,11.85966 c 14.99559,0 18.67698,-12.90231 38.18551,-12.90227 18.76763,0 19.12429,11.86375 37.53387,12.77195 l 0,0.13032 c 0.32721,0 0.59551,0.0121 0.91228,0 0.44048,0.0126 0.84229,0 1.30326,0 l 0,-0.13032 c 13.13782,-1.2312 17.49828,-12.77199 35.96996,-12.77195 18.72415,0 19.12001,11.81488 37.40355,12.77195 l 0,0.13032 c 0.35624,0 0.69871,0.0142 1.04261,0 0.44048,0.0126 0.8423,0 1.30326,0 l 0,-0.13032 c 13.12346,-1.24033 17.50688,-12.77199 35.96996,-12.77195 19.50852,0 19.07171,12.90227 39.74941,12.90227 l 0,-11.85966 c -15.50345,0 -20.24089,-12.90223 -39.74941,-12.90227 -18.89585,0 -28.37628,12.01055 -37.40355,12.77195 -14.34086,-0.79297 -19.4473,-12.77191 -38.31583,-12.77195 -18.84869,0 -28.26634,11.95608 -37.27322,12.77195 -14.44209,-0.72562 -19.5197,-12.77191 -38.44615,-12.77195 z"
     id="rect1981" />
</svg>
