<?xml version="1.0" encoding="UTF-8" standalone="no"?>
<svg
   xmlns:dc="http://purl.org/dc/elements/1.1/"
   xmlns:cc="http://creativecommons.org/ns#"
   xmlns:rdf="http://www.w3.org/1999/02/22-rdf-syntax-ns#"
   xmlns:svg="http://www.w3.org/2000/svg"
   xmlns="http://www.w3.org/2000/svg"
   xmlns:sodipodi="http://sodipodi.sourceforge.net/DTD/sodipodi-0.dtd"
   xmlns:inkscape="http://www.inkscape.org/namespaces/inkscape"
   width="918.30341"
   height="620.25165"
   id="svg28436"
   version="1.1"
   inkscape:version="1.0.1 (3bc2e813f5, 2020-09-07)"
   sodipodi:docname="Italian_traffic_signs_-_preavviso_informazioni_turistico_alberghiere.svg">
  <defs
     id="defs28438">
    <inkscape:perspective
       sodipodi:type="inkscape:persp3d"
       inkscape:vp_x="0 : 526.18109 : 1"
       inkscape:vp_y="0 : 1000 : 0"
       inkscape:vp_z="744.09448 : 526.18109 : 1"
       inkscape:persp3d-origin="372.04724 : 350.78739 : 1"
       id="perspective28444" />
    <inkscape:perspective
       id="perspective28364"
       inkscape:persp3d-origin="0.5 : 0.33333333 : 1"
       inkscape:vp_z="1 : 0.5 : 1"
       inkscape:vp_y="0 : 1000 : 0"
       inkscape:vp_x="0 : 0.5 : 1"
       sodipodi:type="inkscape:persp3d" />
    <inkscape:perspective
       id="perspective31562"
       inkscape:persp3d-origin="0.5 : 0.33333333 : 1"
       inkscape:vp_z="1 : 0.5 : 1"
       inkscape:vp_y="0 : 1000 : 0"
       inkscape:vp_x="0 : 0.5 : 1"
       sodipodi:type="inkscape:persp3d" />
    <inkscape:perspective
       id="perspective35225"
       inkscape:persp3d-origin="0.5 : 0.33333333 : 1"
       inkscape:vp_z="1 : 0.5 : 1"
       inkscape:vp_y="0 : 1000 : 0"
       inkscape:vp_x="0 : 0.5 : 1"
       sodipodi:type="inkscape:persp3d" />
    <inkscape:perspective
       id="perspective35370"
       inkscape:persp3d-origin="0.5 : 0.33333333 : 1"
       inkscape:vp_z="1 : 0.5 : 1"
       inkscape:vp_y="0 : 1000 : 0"
       inkscape:vp_x="0 : 0.5 : 1"
       sodipodi:type="inkscape:persp3d" />
  </defs>
  <sodipodi:namedview
     id="base"
     pagecolor="#ffffff"
     bordercolor="#666666"
     borderopacity="1.0"
     inkscape:pageopacity="0.0"
     inkscape:pageshadow="2"
     inkscape:zoom="0.83535156"
     inkscape:cx="445.50638"
     inkscape:cy="483.46276"
     inkscape:document-units="px"
     inkscape:current-layer="text28723"
     showgrid="false"
     inkscape:window-width="1920"
     inkscape:window-height="1017"
     inkscape:window-x="-8"
     inkscape:window-y="-8"
     inkscape:window-maximized="1"
     inkscape:document-rotation="0" />
  <metadata
     id="metadata28441">
    <rdf:RDF>
      <cc:Work
         rdf:about="">
        <dc:format>image/svg+xml</dc:format>
        <dc:type
           rdf:resource="http://purl.org/dc/dcmitype/StillImage" />
        <dc:title />
      </cc:Work>
    </rdf:RDF>
  </metadata>
  <g
     inkscape:label="Livello 1"
     inkscape:groupmode="layer"
     id="layer1"
     transform="translate(62.945892,21.398157)">
    <g
       style="font-size:45.64504242px;font-style:normal;font-variant:normal;font-weight:normal;font-stretch:normal;text-align:start;line-height:100%;writing-mode:lr-tb;text-anchor:start;fill:#000000;fill-opacity:1;stroke:none;font-family:Transport Heavy;-inkscape-font-specification:'Transport Heavy,'"
       id="text28723"
       transform="translate(3.5913023,0)">
      <rect
         style="fill:#ffffff;fill-opacity:1;stroke:#ffffff;stroke-width:0;stroke-linecap:butt;stroke-linejoin:round;stroke-miterlimit:4;stroke-opacity:1;stroke-dasharray:none;stroke-dashoffset:0"
         id="rect35215"
         width="948.0495"
         height="636.85754"
         x="-81.941254"
         y="-27.682796"
         rx="0"
         ry="0" />
      <g
         id="g35483"
         transform="matrix(0.9921784,0,0,0.9921784,3.0708748,3.4868937)">
        <path
           id="path23769"
           style="fill:#8f5545;fill-opacity:1;fill-rule:nonzero;stroke:none"
           d="m -66.453444,-21.398157 918.135904,0 0,459.021677 -918.135904,0 0,-459.021677 z" />
        <path
           id="path23771"
           style="fill:#ffffff;fill-opacity:1;fill-rule:nonzero;stroke:#000000;stroke-width:0.16882047;stroke-linecap:butt;stroke-linejoin:miter;stroke-miterlimit:3.86400008;stroke-opacity:1;stroke-dasharray:none"
           d="m -66.453444,445.76254 918.135904,0 0,153.00723 -918.135904,0 0,-153.00723 z" />
        <g
           transform="matrix(8.1269664,0,0,-8.1308973,393.41504,587.92153)"
           id="g23781">
          <path
             id="path23783"
             style="fill:#000000;fill-opacity:1;fill-rule:nonzero;stroke:none"
             d="m 0,0 0,-0.734 52.451,0 c 1.868,0 3.336,1.535 3.336,3.403 l 0,10.878 c 0,1.868 -1.468,3.403 -3.336,3.403 l -52.451,0 0,-0.735 52.25,0 c 1.535,0 2.803,-1.267 2.803,-2.802 l 0,-10.543 C 55.053,1.268 53.785,0 52.25,0 L 0,0 z" />
        </g>
        <g
           transform="matrix(8.1269664,0,0,-8.1308973,393.41504,456.07578)"
           id="g23785">
          <path
             id="path23787"
             style="fill:#000000;fill-opacity:1;fill-rule:nonzero;stroke:none"
             d="m 0,0 0,0.735 -52.651,0 c -1.801,0 -3.337,-1.535 -3.337,-3.404 l 0,-10.877 c 0,-1.868 1.536,-3.403 3.337,-3.403 l 52.651,0 0,0.734 -52.451,0 c -1.534,0 -2.802,1.268 -2.802,2.869 l 0,10.544 c 0,1.534 1.268,2.802 2.802,2.802 L 0,0 z" />
        </g>
        <g
           transform="matrix(8.1269664,0,0,-8.1308973,393.41504,424.06033)"
           id="g23789">
          <path
             id="path23791"
             style="fill:#ffffff;fill-opacity:1;fill-rule:nonzero;stroke:none"
             d="m 0,0 0,-1.134 50.449,0 c 3.003,0 5.338,2.402 5.338,5.338 l 0,44.643 c 0,2.936 -2.335,5.338 -5.338,5.338 l -50.449,0 0,-1.134 50.449,0 c 2.335,0 4.204,-1.869 4.204,-4.204 l 0,-44.643 C 54.653,1.868 52.784,0 50.449,0 L 0,0 z" />
        </g>
        <g
           transform="matrix(8.1269664,0,0,-8.1308973,393.41504,-7.2902698)"
           id="g23793">
          <path
             id="path23795"
             style="fill:#ffffff;fill-opacity:1;fill-rule:nonzero;stroke:none"
             d="m 0,0 0,1.135 -50.649,0 c -3.003,0 -5.339,-2.403 -5.339,-5.339 l 0,-44.643 c 0,-2.936 2.336,-5.338 5.339,-5.338 l 50.649,0 0,1.134 -50.649,0 c -2.336,0 -4.204,1.868 -4.204,4.204 l 0,44.643 c 0,2.335 1.868,4.204 4.204,4.204 L 0,0 z" />
        </g>
        <path
           id="path23797"
           style="fill:#ffffff;fill-opacity:1;fill-rule:nonzero;stroke:none"
           d="m 457.94719,52.934506 310.75081,0 0,310.901114 -310.75081,0 0,-310.901114 z" />
        <path
           id="path23799"
           style="fill:#ffffff;fill-opacity:1;fill-rule:nonzero;stroke:none"
           d="m 17.051136,52.934506 310.742684,0 0,310.901114 -310.742684,0 0,-310.901114 z" />
        <g
           transform="matrix(8.1269664,0,0,-8.1308973,306.10132,547.77031)"
           id="g23801" />
        <g
           transform="matrix(8.1269664,0,0,-8.1308973,332.67566,533.66158)"
           id="g23805" />
        <g
           transform="matrix(8.1269664,0,0,-8.1308973,393.41504,540.71594)"
           id="g23809" />
        <g
           transform="matrix(8.1269664,0,0,-8.1308973,393.41504,503.27726)"
           id="g23813" />
        <g
           transform="matrix(8.1269664,0,0,-8.1308973,440.06052,547.77031)"
           id="g23817" />
        <g
           transform="matrix(8.1269664,0,0,-8.1308973,242.10959,247.18002)"
           id="g23821">
          <path
             id="path23823"
             style="fill:#000000;fill-opacity:1;fill-rule:nonzero;stroke:none"
             d="M 0,0 -2.268,-2.068 -6.34,-5.605 c -0.799,-0.734 -1.667,-1.335 -2.536,-1.935 -1,-0.668 -2.135,-1.202 -3.269,-1.535 -0.868,-0.268 -1.802,-0.334 -2.67,-0.268 -0.533,0.067 -1.067,0.268 -1.534,0.534 -0.4,0.334 -0.801,0.802 -1.001,1.269 -0.133,0.266 -0.201,0.533 -0.267,0.801 -0.067,0.6 0,1.2 0.134,1.801 0.066,0.133 0.133,0.267 0.199,0.4 l 6.473,10.411 -0.133,0.066 -1.468,-0.934 -2.002,-1.001 -2.335,-1.001 -1.601,-0.534 0,1.134 0.666,0.334 1.535,0.735 1.802,1 c 1.267,0.734 2.402,1.668 3.403,2.736 l 1.535,1.535 1.402,1.401 c 0.333,0.334 0.666,0.667 1.067,0.934 0.2,0.134 0.4,0.201 0.668,0.267 0.266,0.134 0.534,0.201 0.868,0.201 l 0.533,0 0.266,-0.067 c 0.334,0 0.602,-0.134 0.868,-0.401 0.267,-0.2 0.467,-0.467 0.602,-0.734 0.132,-0.333 0.132,-0.667 0.132,-1 0,-0.134 -0.067,-0.268 -0.132,-0.334 l -0.068,-0.267 -8.142,-14.08 -0.066,-0.067 -0.067,-0.134 0,-0.267 0,-0.2 0.2,-0.2 0.201,-0.133 0.2,-0.067 c 0.4,0 0.8,0.133 1.134,0.333 0.534,0.201 1.068,0.534 1.535,0.802 l 2.335,1.734 3.137,2.403 2.669,2.402 L 0,0 z" />
        </g>
        <g
           transform="matrix(8.1269664,0,0,-8.1308973,252.41211,109.90608)"
           id="g23825">
          <path
             id="path23827"
             style="fill:#000000;fill-opacity:1;fill-rule:nonzero;stroke:none"
             d="m 0,0 c 0,-0.334 -0.133,-0.667 -0.267,-0.935 -0.2,-0.2 -0.401,-0.4 -0.601,-0.533 -0.667,-0.468 -1.401,-0.668 -2.135,-0.734 -0.4,0 -0.734,0 -1.134,0.066 -0.534,0.134 -1.001,0.334 -1.469,0.668 -0.266,0.133 -0.466,0.333 -0.6,0.6 -0.2,0.267 -0.267,0.534 -0.267,0.868 0,0.267 0.067,0.534 0.2,0.734 0.267,0.4 0.601,0.8 1.002,1.001 0.199,0.133 0.4,0.2 0.666,0.267 0.668,0.267 1.402,0.267 2.136,0.133 0.668,-0.133 1.334,-0.4 1.868,-0.867 C -0.334,1.068 -0.2,0.801 -0.066,0.534 0,0.333 0,0.133 0,0" />
        </g>
        <g
           transform="matrix(8.1269664,0,0,-8.1308973,636.91599,304.15237)"
           id="g23829">
          <path
             id="path23831"
             style="fill:#000000;fill-opacity:1;fill-rule:nonzero;stroke:none"
             d="m 0,0 1.669,0.534 0,3.27 9.075,2.669 0,-3.27 1.601,0.467 0,7.541 0,0.133 -0.067,0.2 c -0.066,0.201 -0.133,0.334 -0.333,0.468 0,0 -0.067,0.066 -0.2,0.133 -0.067,0 -0.2,0.067 -0.267,0.067 l -0.267,0 L 11.077,12.145 1.669,9.41 1.402,9.276 C 1.001,9.142 0.668,8.875 0.467,8.542 0.334,8.341 0.2,8.141 0.133,7.941 0.067,7.741 0,7.541 0,7.341 L 0,7.074 0,0 z" />
        </g>
        <g
           transform="matrix(8.1269664,0,0,-8.1308973,537.129,177.18925)"
           id="g23833">
          <path
             id="path23835"
             style="fill:#000000;fill-opacity:1;fill-rule:nonzero;stroke:none"
             d="m 0,0 0.201,-0.067 0.2,-0.066 0.2,0 0.2,0.066 8.409,2.47 0.066,0 0,0.066 0.067,0 0,0.067 0,0.067 -0.067,0.066 -2.936,1.535 -0.201,0.067 -0.133,0 -0.2,0 -0.2,0 -8.342,-2.469 -0.066,0 0,-0.067 -0.067,-0.067 0,-0.066 0.067,-0.067 0,-0.067 L -2.736,1.402 0,0 z" />
        </g>
        <g
           transform="matrix(8.1269664,0,0,-8.1308973,513.27636,210.28604)"
           id="g23837">
          <path
             id="path23839"
             style="fill:#000000;fill-opacity:1;fill-rule:nonzero;stroke:none"
             d="m 0,0 13.812,-7.207 0,3.871 0.067,0.267 c 0.067,0.4 0.267,0.8 0.534,1.201 0.2,0.133 0.333,0.267 0.534,0.4 0.2,0.133 0.4,0.267 0.667,0.333 l 0.2,0.067 7.341,2.136 L 14.279,5.672 3.47,2.469 0,4.271 0,0 z" />
        </g>
        <g
           transform="matrix(8.1269664,0,0,-8.1308973,489.40583,226.56169)"
           id="g23841">
          <path
             id="path23843"
             style="fill:#000000;fill-opacity:1;fill-rule:nonzero;stroke:none"
             d="m 0,0 1.668,0.534 0,8.074 10.477,3.203 0,1.402 0,0.133 -0.067,0.2 -0.133,0.268 -0.267,0.2 -0.334,0.133 -0.2,0 L 11.011,14.08 1.802,11.344 1.536,11.277 C 1.202,11.144 0.868,10.877 0.601,10.544 0.467,10.41 0.334,10.21 0.267,10.009 c -0.134,-0.2 -0.2,-0.4 -0.2,-0.6 L 0,9.142 0,0 z" />
        </g>
      </g>
      <g
         aria-label="150 m"
         id="text874"
         style="font-style:normal;font-weight:normal;font-size:70.0904px;line-height:1.25;font-family:sans-serif;fill:#000000;fill-opacity:1;stroke:none;stroke-width:1">
        <path
           d="m 298.56743,492.61207 h 2.46412 1.77964 0.54758 2.32722 0.41068 1.64275 v 52.29401 h -1.77964 -0.54758 -2.46412 -0.54758 -0.54758 -0.54758 -2.32722 -0.41069 -1.64274 v -0.95827 -0.41068 -0.41069 -1.77964 -0.41068 -0.68448 -0.41069 -0.54758 -0.41068 -2.73791 -1.09516 -1.91654 -0.41068 -0.68448 -0.41068 -0.54759 -0.41068 -2.73791 -2.32722 -0.41068 -1.64275 -0.54758 -0.41068 -2.73791 -0.54758 -0.41069 -2.46411 -1.77964 -0.54758 -2.32722 -0.41069 -1.64274 h -2.32722 -1.50585 -0.54758 -2.32722 -0.41069 -1.64274 v -0.54759 -0.68447 -0.54758 -0.68448 -1.77964 -0.54758 -2.32722 -0.41069 -1.64274 q 4.44909,0.10267 7.66613,-1.91653 l 0.1369,-0.2738 q 0.82137,-1.09516 1.23206,-1.91653 v -0.41069 l 0.27379,-0.95826 0.68447,-2.46412 z"
           style="font-style:normal;font-variant:normal;font-weight:normal;font-stretch:normal;font-family:'Transport Heavy';-inkscape-font-specification:'Transport Heavy, ';fill:#000000;fill-opacity:1;stroke-width:1"
           id="path876" />
        <path
           d="m 325.53581,492.33828 h 0.95826 2.32722 1.09517 0.95826 0.41069 0.41069 2.7379 1.09516 1.09517 0.41068 0.41069 4.24375 0.95827 0.82137 0.95827 0.82137 0.68448 0.82137 0.54758 2.46412 1.50585 0.54758 0.54758 0.54758 0.54758 2.32722 0.41069 1.64274 v 9.85646 h -0.54758 -2.46412 -0.95826 -2.73791 -0.68448 -0.82137 -0.68447 -0.54759 -0.41068 -2.73791 -0.54758 -0.41069 -2.46411 -1.77964 -0.54758 -2.32722 -0.41069 -1.64274 l -0.54758,0.41069 -0.1369,1.91653 -0.13689,0.41069 -0.1369,0.82137 -0.13689,0.95827 -0.41069,3.0117 q 7.83726,-4.75712 15.60607,-1.77964 7.3239,3.25126 9.99335,9.99335 4.75712,25.05185 -16.01675,27.92665 -17.59105,1.06094 -21.76635,-14.37401 l 3.01169,-0.95827 h 0.41069 q 0.54758,-0.34224 1.09516,-0.41068 l 0.54758,-0.1369 0.54758,-0.13689 0.2738,-0.1369 1.09516,-0.27379 1.09516,-0.27379 q 1.23206,-0.61603 2.32722,-0.68448 0.44491,2.90903 2.19033,4.79134 5.13357,4.89401 10.81473,1.50585 5.88649,-4.65444 3.96996,-11.773 -2.12188,-5.30469 -7.25545,-6.16029 -6.16029,-0.37646 -9.03509,4.51755 l -0.68448,-0.1369 h -0.54758 q -1.54007,-0.37646 -2.60101,-0.41068 l -1.91654,-0.41069 h -0.41068 q -0.65025,-0.1369 -1.09516,-0.1369 l -0.27379,-0.13689 h -0.54759 l -0.41068,-0.1369 h -0.41069 l -0.95827,-0.27379 -1.23205,-0.13689 v -0.41069 l 0.13689,-0.54758 v -0.41069 l 0.27379,-0.95826 0.1369,-1.23206 0.13689,-1.09516 0.1369,-0.54758 0.27379,-2.32722 q 0.13689,-0.65026 0.13689,-1.09517 l 0.1369,-0.95826 0.1369,-0.27379 q 0.0684,-1.43741 0.41068,-2.46412 v -0.82137 q 0.27379,-1.09516 0.27379,-1.91654 l 0.1369,-0.27379 0.13689,-0.95826 v -0.41069 q 0.1369,-0.65025 0.1369,-1.09516 l 0.13689,-0.82137 0.1369,-0.54759 v -0.41068 q 0.20534,-0.54758 0.13689,-1.09516 l 0.1369,-0.68448 0.13689,-0.41069 v -0.54758 l 0.1369,-0.41068 0.27379,-2.32722 q 0.1369,-0.65026 0.1369,-1.09517 l 0.13689,-0.95826 0.1369,-0.1369 -0.1369,0.1369 z"
           style="font-style:normal;font-variant:normal;font-weight:normal;font-stretch:normal;font-family:'Transport Heavy';-inkscape-font-specification:'Transport Heavy, ';fill:#000000;fill-opacity:1;stroke-width:1"
           id="path878" />
        <path
           d="m 391.82736,491.10622 q 21.56101,0.82137 22.72462,25.18874 0.47913,12.90238 -5.7496,22.58773 l -0.41069,0.27379 q -0.13689,0.23956 -0.27379,0.27379 -0.47913,0.65025 -0.82137,0.95827 l -0.27379,0.13689 q -0.92404,0.99249 -1.64275,1.50585 -10.84895,6.50253 -21.62945,2.19032 -11.15697,-4.92823 -12.59437,-17.3857 -2.25878,-12.14946 1.64274,-22.45083 5.1678,-13.00506 19.02845,-13.27885 z m -0.95827,9.99336 q -9.48,2.84058 -9.03509,13.55264 l -0.13689,0.41068 v 0.82137 q -0.17112,1.50585 -0.1369,2.46412 v 0.41069 1.50584 l 0.1369,0.2738 q 0,1.3005 0.13689,2.19032 l 0.1369,2.05343 -0.1369,0.41069 0.1369,0.41068 q 0.13689,0.78715 0.13689,1.09516 0.1369,0.20535 0.1369,0.41069 0.44491,0.99249 0.54758,1.77964 0.17112,0.13689 0.13689,0.27379 0.47914,1.02671 0.68448,1.77964 0.23957,0.13689 0.27379,0.27379 0.78715,1.33473 1.64274,2.05343 l 0.2738,0.27379 0.27379,0.27379 0.27379,0.1369 0.41068,0.27379 0.1369,0.27379 q 1.09516,0.47913 1.77964,0.95826 17.31725,3.7304 14.374,-24.09357 -2.19032,-10.64361 -12.18368,-10.26715 z"
           style="font-style:normal;font-variant:normal;font-weight:normal;font-stretch:normal;font-family:'Transport Heavy';-inkscape-font-specification:'Transport Heavy, ';fill:#000000;fill-opacity:1;stroke-width:1"
           id="path880" />
        <path
           d="m 460.92527,506.4385 q 7.4608,-0.65025 10.95163,4.92823 7.05011,-7.4608 15.87985,-3.69617 5.40737,2.42989 7.93993,7.25545 v 0.41068 q 0.17112,0.1369 0.1369,0.27379 0.17112,0.1369 0.13689,0.27379 l 0.82138,2.60102 v 0.41068 q 0.27379,1.5743 0.27379,2.73791 v 23.13531 h -2.32722 -0.54759 -0.68447 -1.77964 -0.54758 -2.32722 -0.41069 -1.64274 v -0.68448 -1.77964 -0.54758 -0.54758 -0.54758 -2.32722 -0.41069 -1.64274 -1.91654 -0.95827 -1.91653 -0.41069 -2.46411 -1.77964 -0.54758 -2.32722 -0.41069 -1.64274 q -0.27379,-0.99249 -0.27379,-1.64275 -0.20535,-0.41068 -0.27379,-0.82137 -0.51336,-0.61603 -0.68448,-1.23206 l -0.27379,-0.13689 -0.1369,-0.27379 q -0.99249,-0.99249 -1.77964,-1.50585 -5.57848,-0.75292 -7.93992,4.38065 l -0.1369,0.95827 -0.13689,0.95827 v 22.17704 h -0.54759 -0.41068 -2.46412 -1.77964 -0.54758 -2.32722 -0.41068 -1.64275 v -0.68448 -0.41069 -1.77964 -0.54758 -0.54758 -0.54758 -0.41069 -0.54758 -2.46411 -0.54758 -0.54758 -0.41069 -0.54758 -2.46412 -0.54758 -0.54758 -0.54758 -0.54758 -0.41069 -1.77964 -1.36895 -1.77964 -1.36895 -0.41069 l -0.13689,-0.95827 -0.41069,-2.46411 q -1.47162,-2.63524 -3.96996,-3.55928 -4.55177,0.37646 -6.70787,4.10686 -0.41069,1.50585 -0.41069,2.60101 v 22.04015 h -2.32722 -0.54758 -0.68448 -1.77964 -0.54758 -2.32722 -0.41068 -1.64275 v -0.41069 -0.68448 -0.41068 -0.54758 -0.41069 -2.73791 -0.95826 -0.54758 -0.68448 -0.54758 -0.68448 -1.77964 -0.54758 -2.32722 -0.41069 -1.64274 -0.95827 -0.95826 -0.82138 -0.95826 -0.82137 -0.95827 -0.82137 -2.32722 -0.82138 -0.68447 -0.82137 -0.54759 -2.46411 -1.50585 -0.54758 -0.54758 -0.54758 -0.54758 -2.32723 -0.41068 -1.64274 h 2.32722 0.54758 0.68448 1.77964 0.54758 2.32722 1.09516 0.95827 v 2.46411 q 3.52506,-2.80635 7.52924,-3.42238 z"
           style="font-style:normal;font-variant:normal;font-weight:normal;font-stretch:normal;font-family:'Transport Heavy';-inkscape-font-specification:'Transport Heavy, ';fill:#000000;fill-opacity:1;stroke-width:1"
           id="path882" />
      </g>
    </g>
  </g>
</svg>
