<?xml version="1.0" encoding="UTF-8" standalone="no"?>
<!-- Created with Inkscape (http://www.inkscape.org/) -->

<svg
   xmlns:dc="http://purl.org/dc/elements/1.1/"
   xmlns:cc="http://creativecommons.org/ns#"
   xmlns:rdf="http://www.w3.org/1999/02/22-rdf-syntax-ns#"
   xmlns:svg="http://www.w3.org/2000/svg"
   xmlns="http://www.w3.org/2000/svg"
   xmlns:sodipodi="http://sodipodi.sourceforge.net/DTD/sodipodi-0.dtd"
   xmlns:inkscape="http://www.inkscape.org/namespaces/inkscape"
   width="352.54303"
   height="527.90161"
   id="svg28436"
   version="1.1"
   inkscape:version="0.47 r22583"
   sodipodi:docname="Italian traffic signs - informazioni alberghere.svg">
  <defs
     id="defs28438">
    <inkscape:perspective
       sodipodi:type="inkscape:persp3d"
       inkscape:vp_x="0 : 526.18109 : 1"
       inkscape:vp_y="0 : 1000 : 0"
       inkscape:vp_z="744.09448 : 526.18109 : 1"
       inkscape:persp3d-origin="372.04724 : 350.78739 : 1"
       id="perspective28444" />
    <inkscape:perspective
       id="perspective28364"
       inkscape:persp3d-origin="0.5 : 0.33333333 : 1"
       inkscape:vp_z="1 : 0.5 : 1"
       inkscape:vp_y="0 : 1000 : 0"
       inkscape:vp_x="0 : 0.5 : 1"
       sodipodi:type="inkscape:persp3d" />
    <inkscape:perspective
       id="perspective31562"
       inkscape:persp3d-origin="0.5 : 0.33333333 : 1"
       inkscape:vp_z="1 : 0.5 : 1"
       inkscape:vp_y="0 : 1000 : 0"
       inkscape:vp_x="0 : 0.5 : 1"
       sodipodi:type="inkscape:persp3d" />
    <inkscape:perspective
       id="perspective35225"
       inkscape:persp3d-origin="0.5 : 0.33333333 : 1"
       inkscape:vp_z="1 : 0.5 : 1"
       inkscape:vp_y="0 : 1000 : 0"
       inkscape:vp_x="0 : 0.5 : 1"
       sodipodi:type="inkscape:persp3d" />
  </defs>
  <sodipodi:namedview
     id="base"
     pagecolor="#ffffff"
     bordercolor="#666666"
     borderopacity="1.0"
     inkscape:pageopacity="0.0"
     inkscape:pageshadow="2"
     inkscape:zoom="0.83535156"
     inkscape:cx="630.20801"
     inkscape:cy="267.3883"
     inkscape:document-units="px"
     inkscape:current-layer="text28723"
     showgrid="false"
     inkscape:window-width="1600"
     inkscape:window-height="838"
     inkscape:window-x="-8"
     inkscape:window-y="-8"
     inkscape:window-maximized="1" />
  <metadata
     id="metadata28441">
    <rdf:RDF>
      <cc:Work
         rdf:about="">
        <dc:format>image/svg+xml</dc:format>
        <dc:type
           rdf:resource="http://purl.org/dc/dcmitype/StillImage" />
        <dc:title></dc:title>
      </cc:Work>
    </rdf:RDF>
  </metadata>
  <g
     inkscape:label="Livello 1"
     inkscape:groupmode="layer"
     id="layer1"
     transform="translate(420.81547,-74.679219)">
    <g
       style="font-size:45.64504242px;font-style:normal;font-variant:normal;font-weight:normal;font-stretch:normal;text-align:start;line-height:100%;writing-mode:lr-tb;text-anchor:start;fill:#000000;fill-opacity:1;stroke:none;font-family:Transport Heavy;-inkscape-font-specification:'Transport Heavy,'"
       id="text28723"
       transform="translate(3.5913023,0)">
      <rect
         style="fill:#ffffff;fill-opacity:1;stroke:#ffffff;stroke-width:0;stroke-linecap:butt;stroke-linejoin:round;stroke-miterlimit:4;stroke-opacity:1;stroke-dasharray:none;stroke-dashoffset:0"
         id="rect35215"
         width="452.50409"
         height="580.59387"
         x="-456.63382"
         y="50.12875"
         rx="0"
         ry="0" />
      <g
         id="g35329"
         transform="matrix(0.98641754,0,0,0.98641754,-3.3702881,4.5932302)">
        <path
           id="path25789"
           style="fill:#ffffff;fill-opacity:1;fill-rule:nonzero;stroke:none"
           d="m -424.13677,74.949221 352.003038,0 0,527.361629 -352.003038,0 0,-527.361629 z" />
        <path
           id="path25791"
           style="fill:none;stroke:#000000;stroke-width:0.54743552;stroke-linecap:butt;stroke-linejoin:miter;stroke-miterlimit:3.86400008;stroke-opacity:1;stroke-dasharray:none"
           d="m -424.13677,74.949219 352.003039,0 0,527.361621 -352.003039,0 0,-527.361621 z" />
        <g
           transform="matrix(3.5211572,0,0,-3.5179017,-420.45364,565.53082)"
           id="g25793">
          <path
             id="path25795"
             style="fill:#000000;fill-opacity:1;fill-rule:nonzero;stroke:none"
             d="m 0,0 0,128.998 c 0,5.228 4.182,9.49 9.49,9.49 l 78.976,0 c 5.228,0 9.491,-4.262 9.491,-9.49 L 97.957,0 c 0,-5.227 -4.263,-9.49 -9.491,-9.49 l -78.976,0 C 4.182,-9.49 0,-5.227 0,0" />
        </g>
        <g
           transform="matrix(3.5211572,0,0,-3.5179017,-413.65499,565.53082)"
           id="g25797">
          <path
             id="path25799"
             style="fill:#ffffff;fill-opacity:1;fill-rule:nonzero;stroke:none"
             d="m 0,0 0,128.998 c 0,4.102 3.377,7.479 7.559,7.479 l 78.977,0 c 4.101,0 7.479,-3.377 7.479,-7.479 L 94.015,0 c 0,-4.102 -3.378,-7.48 -7.479,-7.48 l -78.977,0 C 3.377,-7.48 0,-4.102 0,0" />
        </g>
        <g
           transform="matrix(3.5211572,0,0,-3.5179017,-415.92191,313.73349)"
           id="g25801">
          <path
             id="path25803"
             style="fill:none;stroke:#000000;stroke-width:0.76006877;stroke-linecap:butt;stroke-linejoin:miter;stroke-miterlimit:3.86400008;stroke-opacity:1;stroke-dasharray:none"
             d="M 0,0 95.302,0 M 0,-20.266 l 95.302,0 M 0,-49.621 l 95.302,0" />
        </g>
        <g
           transform="matrix(3.5211572,0,0,-3.5179017,-374.57719,374.56012)"
           id="g25805">
          <path
             id="path25807"
             style="fill:#000000;fill-opacity:1;fill-rule:nonzero;stroke:none"
             d="m 0,0 -1.367,0 0,5.388 c 0,0.161 -0.161,0.241 -0.322,0.241 L -4.745,4.986 c -0.16,0 -0.322,0.081 -0.322,0.241 l 0,0.161 L 0,14.236 5.067,5.388 C 5.147,5.308 5.147,5.147 4.987,5.067 4.906,4.986 4.906,4.986 4.825,4.986 L 1.77,5.629 c -0.161,0.081 -0.322,0 -0.322,-0.16 l 0,-0.081 L 1.448,0 0,0 z" />
        </g>
        <path
           id="path25809"
           style="fill:#d9dadb;fill-opacity:1;fill-rule:nonzero;stroke:none"
           d="m -289.62152,331.55907 185.7692,0 0,35.64689 -185.7692,0 0,-35.64689 z" />
        <path
           id="path25811"
           style="fill:#d9dadb;fill-opacity:1;fill-rule:nonzero;stroke:none"
           d="m -289.62152,401.15723 185.7692,0 0,31.97069 -185.7692,0 0,-31.97069 z" />
        <path
           id="path25813"
           style="fill:#d9dadb;fill-opacity:1;fill-rule:nonzero;stroke:none"
           d="m -289.62152,440.1989 185.7692,0 0,32.25213 -185.7692,0 0,-32.25213 z" />
        <path
           id="path25815"
           style="fill:#d9dadb;fill-opacity:1;fill-rule:nonzero;stroke:none"
           d="m -392.98157,502.72609 185.48752,0 0,31.97069 -185.48752,0 0,-31.97069 z" />
        <path
           id="path25817"
           style="fill:#d9dadb;fill-opacity:1;fill-rule:nonzero;stroke:none"
           d="m -392.98157,541.76776 185.48752,0 0,32.25212 -185.48752,0 0,-32.25212 z" />
        <g
           style="fill:#8f5545;fill-opacity:1"
           transform="matrix(3.5211572,0,0,-3.5179017,-327.85039,303.54813)"
           id="g25819">
          <path
             id="path25821"
             style="fill:#8f5545;fill-opacity:1;fill-rule:nonzero;stroke:none"
             d="M 0,0 -0.483,0 C -1.689,0.08 -2.895,0.482 -3.861,1.206 -4.826,1.85 -5.63,2.815 -6.112,3.86 -6.515,4.584 -6.756,5.469 -6.756,6.353 l 0,0.483 0,45.118 0,0.482 c 0.081,1.287 0.402,2.413 1.126,3.378 0.724,0.965 1.609,1.769 2.735,2.332 0.724,0.321 1.528,0.563 2.412,0.643 l 0.483,0 45.037,0 0.563,0 c 1.207,-0.08 2.414,-0.563 3.378,-1.206 0.965,-0.724 1.769,-1.608 2.252,-2.734 0.402,-0.724 0.643,-1.609 0.643,-2.413 l 0,-0.482 0,-45.118 0,-0.483 C 51.793,5.147 51.391,3.941 50.747,2.976 50.023,2.011 49.139,1.206 48.014,0.644 47.289,0.322 46.404,0.08 45.6,0 L 45.037,0 0,0 z" />
        </g>
        <g
           transform="matrix(3.5211572,0,0,-3.5179017,-314.25906,282.0453)"
           id="g25823">
          <path
             id="path25825"
             style="fill:#ffffff;fill-opacity:1;fill-rule:nonzero;stroke:none"
             d="m 0,0 37.317,0 0.402,0 0.161,0 0.161,0 0.16,0.08 0.242,0 0.161,0.081 0.16,0 0.161,0.08 0.161,0.081 0.161,0.08 0.161,0.08 0.161,0.081 0.161,0.08 0.16,0.081 0.161,0.16 0.161,0.162 0.242,0.16 0.16,0.162 0.161,0.16 0.161,0.16 0.161,0.242 0.08,0.081 0.161,0.16 0.08,0.161 0.081,0.242 0.081,0.08 0,0.161 0.08,0.161 0.08,0.241 0.081,0.161 0,0.16 0.08,0.161 0,0.242 0,0.16 0,0.161 0.08,0.404 0,37.234 -0.08,0.402 0,0.161 0,0.161 0,0.241 -0.08,0.161 0,0.161 -0.081,0.161 -0.08,0.241 -0.08,0.161 0,0.16 -0.081,0.162 -0.081,0.08 -0.08,0.241 -0.161,0.161 -0.08,0.08 -0.161,0.243 -0.161,0.24 -0.161,0.081 -0.16,0.16 -0.242,0.161 -0.161,0.241 -0.161,0.081 -0.16,0.081 -0.161,0.08 -0.161,0.08 -0.161,0.081 -0.161,0.08 -0.161,0.08 -0.161,0 -0.16,0.081 -0.161,0.08 -0.242,0 -0.16,0.081 -0.161,0 -0.161,0 -0.402,0.08 -37.317,0 -0.322,-0.08 -0.16,0 -0.241,0 -0.161,-0.081 -0.162,0 -0.16,-0.08 -0.161,-0.081 -0.161,0 -0.16,-0.08 -0.162,-0.08 -0.241,-0.081 -0.161,-0.08 -0.16,-0.08 -0.081,-0.081 -0.161,-0.081 -0.241,-0.241 -0.161,-0.161 -0.161,-0.16 -0.16,-0.081 -0.242,-0.24 -0.08,-0.243 -0.161,-0.08 -0.081,-0.161 -0.08,-0.241 -0.08,-0.08 -0.081,-0.162 -0.081,-0.16 -0.08,-0.161 -0.08,-0.241 0,-0.161 -0.081,-0.161 0,-0.161 -0.08,-0.241 0,-0.161 0,-0.161 0,-0.402 0,-37.234 0,-0.404 0,-0.161 0,-0.16 0.08,-0.242 0,-0.161 0.081,-0.16 0,-0.161 0.08,-0.241 0.08,-0.161 0.081,-0.161 0.081,-0.08 0.08,-0.242 0.08,-0.161 0.081,-0.16 0.161,-0.081 0.08,-0.242 0.242,-0.16 0.16,-0.16 0.161,-0.162 0.161,-0.16 0.241,-0.162 0.161,-0.16 0.081,-0.081 0.16,-0.08 0.161,-0.081 0.241,-0.08 0.081,-0.08 0.241,-0.081 0.161,-0.08 0.161,-0.081 0.16,0 0.242,0 L -0.723,0 -0.482,0 -0.322,0 0,0 z" />
        </g>
        <g
           transform="matrix(3.5211572,0,0,-3.5179017,-235.53232,251.77376)"
           id="g25827">
          <path
             id="path25829"
             style="fill:#000000;fill-opacity:1;fill-rule:nonzero;stroke:none"
             d="m 0,0 2.01,0.644 0,4.101 11.34,3.297 0,-4.021 2.011,0.483 0,9.49 0,0.08 -0.081,0.322 c -0.08,0.241 -0.161,0.402 -0.401,0.563 0,0 -0.162,0.08 -0.242,0.161 -0.081,0 -0.241,0.08 -0.322,0.08 l -0.322,0 -0.16,-0.08 L 2.01,11.662 1.688,11.581 C 1.287,11.34 0.884,11.018 0.563,10.616 0.402,10.375 0.241,10.133 0.16,9.892 0.08,9.651 0,9.411 0,9.088 L 0,8.766 0,0 z" />
        </g>
        <g
           transform="matrix(3.5211572,0,0,-3.5179017,-289.33701,183.58909)"
           id="g25831">
          <path
             id="path25833"
             style="fill:#000000;fill-opacity:1;fill-rule:nonzero;stroke:none"
             d="m 0,0 0.241,-0.081 0.241,0 0.241,0 0.242,0 10.535,3.137 0.081,0.08 0,0.081 0,0.08 0,0.08 -0.081,0.082 -3.619,1.849 -0.241,0.08 -0.241,0 -0.242,0 -0.241,0 -10.294,-3.056 -0.161,-0.08 0,-0.081 -0.08,0 0,-0.08 0,-0.081 0.08,-0.08 0,-0.08 0.081,0 L 0,0 z" />
        </g>
        <g
           transform="matrix(3.5211572,0,0,-3.5179017,-302.36352,201.41359)"
           id="g25835">
          <path
             id="path25837"
             style="fill:#000000;fill-opacity:1;fill-rule:nonzero;stroke:none"
             d="m 0,0 17.291,-8.927 0,4.825 0,0.322 c 0.161,0.482 0.322,1.046 0.724,1.448 0.161,0.161 0.321,0.402 0.563,0.562 0.241,0.162 0.562,0.323 0.884,0.404 l 0.322,0.079 9.168,2.654 L 17.854,7.077 4.343,3.137 0,5.388 0,0 z" />
        </g>
        <g
           transform="matrix(3.5211572,0,0,-3.5179017,-315.10766,209.90018)"
           id="g25839">
          <path
             id="path25841"
             style="fill:#000000;fill-opacity:1;fill-rule:nonzero;stroke:none"
             d="m 0,0 2.011,0.643 0,10.133 13.109,3.941 0,1.769 0,0.161 -0.081,0.242 -0.16,0.321 -0.403,0.241 -0.321,0.081 -0.322,0 -0.081,0 L 2.252,14.154 1.93,13.993 C 1.448,13.832 0.965,13.511 0.724,13.109 0.563,12.948 0.402,12.706 0.322,12.465 0.161,12.224 0.081,11.902 0,11.661 L 0,11.339 0,0 z" />
        </g>
        <g
           transform="matrix(3.5211572,0,0,-3.5179017,-333.79866,469.33943)"
           id="g25843">
          <path
             id="path25845"
             style="fill:#000000;fill-opacity:1;fill-rule:nonzero;stroke:none"
             d="m 0,0 0,7.882 c 0,2.815 -1.93,5.227 -4.745,5.87 l -1.849,0.403 c -0.162,0.08 -0.322,0.242 -0.242,0.403 l 0,0.079 1.448,3.218 c 0.08,0.16 0.08,0.321 -0.081,0.401 l -0.241,0 -11.179,-3.377 8.605,-7.962 c 0.162,-0.081 0.322,-0.081 0.403,0.08 0.08,0 0.08,0.08 0.08,0.161 l 0.081,3.619 c 0,0.162 0.16,0.242 0.321,0.242 l 0.081,0 1.849,-0.403 c 1.287,-0.322 2.172,-1.448 2.172,-2.734 L -3.297,0 0,0 z" />
        </g>
        <g
           transform="matrix(3.5211572,0,0,-3.5179017,-163.32043,574.01918)"
           id="g25847">
          <path
             id="path25849"
             style="fill:#000000;fill-opacity:1;fill-rule:nonzero;stroke:none"
             d="m 0,0 0,7.801 c 0,2.815 1.93,5.308 4.746,5.871 l 1.848,0.484 c 0.162,0 0.322,0.159 0.242,0.32 l 0,0.08 -1.448,3.298 c -0.08,0.08 -0.08,0.241 0.081,0.322 0.08,0.08 0.161,0.08 0.241,0.08 L 16.889,14.798 8.284,6.916 c -0.081,-0.161 -0.321,-0.08 -0.403,0 -0.08,0.081 -0.08,0.161 -0.08,0.242 l -0.081,3.54 c 0,0.16 -0.16,0.32 -0.321,0.32 L 7.318,10.938 5.469,10.536 C 4.182,10.214 3.297,9.088 3.297,7.801 L 3.297,0 0,0 z" />
        </g>
      </g>
    </g>
  </g>
</svg>
