<?xml version="1.0" encoding="UTF-8" standalone="no"?>
<!-- Created with Inkscape (http://www.inkscape.org/) -->

<svg
   xmlns:dc="http://purl.org/dc/elements/1.1/"
   xmlns:cc="http://creativecommons.org/ns#"
   xmlns:rdf="http://www.w3.org/1999/02/22-rdf-syntax-ns#"
   xmlns:svg="http://www.w3.org/2000/svg"
   xmlns="http://www.w3.org/2000/svg"
   xmlns:sodipodi="http://sodipodi.sourceforge.net/DTD/sodipodi-0.dtd"
   xmlns:inkscape="http://www.inkscape.org/namespaces/inkscape"
   width="512.85712"
   height="385.35715"
   id="svg2"
   version="1.1"
   inkscape:version="0.47 r22583"
   sodipodi:docname="Nuovo documento 1">
  <defs
     id="defs4">
    <inkscape:path-effect
       effect="spiro"
       id="path-effect3635"
       is_visible="true" />
    <inkscape:path-effect
       effect="spiro"
       id="path-effect3627"
       is_visible="true" />
    <inkscape:path-effect
       effect="spiro"
       id="path-effect3619"
       is_visible="true" />
    <inkscape:path-effect
       effect="spiro"
       id="path-effect3607"
       is_visible="true" />
    <inkscape:perspective
       sodipodi:type="inkscape:persp3d"
       inkscape:vp_x="0 : 526.18109 : 1"
       inkscape:vp_y="0 : 1000 : 0"
       inkscape:vp_z="744.09448 : 526.18109 : 1"
       inkscape:persp3d-origin="372.04724 : 350.78739 : 1"
       id="perspective10" />
    <inkscape:perspective
       id="perspective2824"
       inkscape:persp3d-origin="0.5 : 0.33333333 : 1"
       inkscape:vp_z="1 : 0.5 : 1"
       inkscape:vp_y="0 : 1000 : 0"
       inkscape:vp_x="0 : 0.5 : 1"
       sodipodi:type="inkscape:persp3d" />
    <inkscape:perspective
       id="perspective2828"
       inkscape:persp3d-origin="0.5 : 0.33333333 : 1"
       inkscape:vp_z="1 : 0.5 : 1"
       inkscape:vp_y="0 : 1000 : 0"
       inkscape:vp_x="0 : 0.5 : 1"
       sodipodi:type="inkscape:persp3d" />
    <inkscape:perspective
       id="perspective3662"
       inkscape:persp3d-origin="0.5 : 0.33333333 : 1"
       inkscape:vp_z="1 : 0.5 : 1"
       inkscape:vp_y="0 : 1000 : 0"
       inkscape:vp_x="0 : 0.5 : 1"
       sodipodi:type="inkscape:persp3d" />
    <inkscape:perspective
       id="perspective3696"
       inkscape:persp3d-origin="0.5 : 0.33333333 : 1"
       inkscape:vp_z="1 : 0.5 : 1"
       inkscape:vp_y="0 : 1000 : 0"
       inkscape:vp_x="0 : 0.5 : 1"
       sodipodi:type="inkscape:persp3d" />
  </defs>
  <sodipodi:namedview
     id="base"
     pagecolor="#ffffff"
     bordercolor="#666666"
     borderopacity="1.0"
     inkscape:pageopacity="0.0"
     inkscape:pageshadow="2"
     inkscape:zoom="0.98994949"
     inkscape:cx="22.741751"
     inkscape:cy="411.92744"
     inkscape:document-units="px"
     inkscape:current-layer="layer2"
     showgrid="false"
     showguides="true"
     inkscape:guide-bbox="true"
     inkscape:window-width="1920"
     inkscape:window-height="1138"
     inkscape:window-x="-8"
     inkscape:window-y="-8"
     inkscape:window-maximized="1" />
  <metadata
     id="metadata7">
    <rdf:RDF>
      <cc:Work
         rdf:about="">
        <dc:format>image/svg+xml</dc:format>
        <dc:type
           rdf:resource="http://purl.org/dc/dcmitype/StillImage" />
        <dc:title></dc:title>
      </cc:Work>
    </rdf:RDF>
  </metadata>
  <g
     inkscape:label="Livello 1"
     inkscape:groupmode="layer"
     id="layer1"
     style="display:inline"
     transform="translate(-97.14286,-303.43359)" />
  <g
     inkscape:groupmode="layer"
     id="layer2"
     inkscape:label="Tracciato"
     style="display:inline"
     transform="translate(-97.14286,-303.43359)">
    <rect
       style="fill:#00782b;fill-opacity:1;stroke:none"
       id="rect2831"
       width="512.85712"
       height="385.35715"
       x="97.14286"
       y="303.43359" />
    <path
       style="fill:#ffffff;fill-opacity:1;stroke:none"
       d="m 189.28571,659.41284 0.35715,-49.19352 c 1.6206,-5.67489 4.83176,-10.88646 9.17194,-14.88566 3.76883,-3.47274 8.37614,-6.02911 13.31723,-7.38911 l 13.38453,0 -2.77792,17.42513 c -0.1682,1.05508 -0.40703,2.09935 -0.53148,3.16048 -0.0622,0.53056 -0.0819,1.07178 0.0208,1.59601 0.10277,0.52422 0.3388,1.03567 0.73777,1.39091 0.32182,0.28654 0.73707,0.45865 1.16372,0.51896 0.42666,0.0603 0.86455,0.0126 1.27895,-0.10553 0.8288,-0.23621 1.55562,-0.73718 2.23343,-1.26941 1.35561,-1.06447 2.70292,-2.14401 4.18816,-3.01857 l 49.75002,-29.29443 -54.54825,-32.07234 c -0.51776,-0.54877 -1.25749,-0.88182 -2.01159,-0.90566 -0.95012,-0.03 -1.90183,0.44334 -2.4511,1.21918 -0.54926,0.77584 -0.67955,1.83077 -0.33553,2.71693 l 3.283,18.43529 -14.64721,0.25254 c -4.29861,0.2243 -8.55276,1.27235 -12.46362,3.07054 -3.40143,1.56395 -6.54223,3.69298 -9.25466,6.27336 l 0.50507,-95.71195 17.67767,4.29315 c 0.87818,0.512 1.99785,0.58635 2.93601,0.19496 0.93817,-0.39138 1.67304,-1.23941 1.92699,-2.22371 0.2601,-1.00813 0.0337,-2.08489 -0.35989,-3.04876 -0.3936,-0.96388 -0.9414,-1.85576 -1.47265,-2.75117 l -31.31473,-52.78047 -30.80965,54.2957 c -0.63095,0.68568 -1.00167,1.60524 -1.02273,2.53681 -0.0278,1.2303 0.57109,2.45859 1.55753,3.19435 0.98644,0.73576 2.33449,0.95967 3.50581,0.58229 l 16.66751,-4.29315 0.75762,177.78685 19.58008,0"
       id="path3605"
       inkscape:path-effect="#path-effect3607"
       inkscape:original-d="m 189.28571,659.41284 0.35715,-49.19352 c 0,0 5.86209,-11.60736 9.17194,-14.88566 4.18654,-4.14662 13.31723,-7.38911 13.31723,-7.38911 l 13.38453,0 -2.77792,17.42513 c 0,0 -1.27964,6.03439 0.22711,6.1474 1.86042,0.13953 8.86426,-3.87455 8.86426,-3.87455 l 49.75002,-29.29443 -54.54825,-32.07234 c 0,0 -1.42524,-2.37154 -2.01159,-0.90566 -0.59216,1.4804 -2.78663,3.93611 -2.78663,3.93611 l 3.283,18.43529 -14.64721,0.25254 c -0.37102,1.20581 -9.53329,8.76211 -12.46362,3.07054 -1.55749,-3.02513 -9.25466,6.27336 -9.25466,6.27336 l 0.50507,-95.71195 17.67767,4.29315 c 0,0 4.08379,-1.01579 4.863,-2.02875 0.90438,-1.1757 -1.83254,-5.79993 -1.83254,-5.79993 l -31.31473,-52.78047 -30.80965,54.2957 c 0,0 -1.94451,1.52285 -1.02273,2.53681 0.76181,0.83798 5.06334,3.77664 5.06334,3.77664 l 16.66751,-4.29315 0.75762,177.78685 19.58008,0 z"
       sodipodi:nodetypes="ccscccscccscccscccscccscccc" />
    <rect
       style="fill:none;stroke:#ffffff;stroke-width:6;stroke-opacity:1"
       id="rect3609"
       width="499.01535"
       height="370.22092"
       x="104.04572"
       y="310.91025"
       ry="31.819805" />
    <path
       style="color:#000000;fill:#08842c;fill-opacity:1;fill-rule:evenodd;stroke:#ffffff;stroke-width:2.80112171;stroke-linecap:round;stroke-linejoin:round;stroke-miterlimit:4;stroke-opacity:1;stroke-dashoffset:0;marker:none;visibility:visible;display:inline;overflow:visible"
       d="m 152.83364,342.51725 27.07708,-4.16571 27.07708,4.16571 4.16571,27.07708 -4.16571,27.07708 -27.07708,4.16571 -27.07708,-4.16571 -4.16571,-27.07708 4.16571,-27.07708 z"
       id="pathOttagono" />
    <g
       transform="scale(0.83300445,1.2004738)"
       style="font-size:34.56324387px;font-style:normal;font-weight:normal;fill:#ffffff;fill-opacity:1;stroke:none;font-family:Transport Heavy;-inkscape-font-specification:Transport Heavy"
       id="text3650">
      <path
         d="m 201.99738,294.82923 0.87758,0 2.0927,0 0.94509,0 0.20251,0 0.33754,0 0.20252,0 0.27002,0 0.20252,0 1.35013,0 0,0.20252 c 0.19125,0.40507 0.32626,0.7651 0.40503,1.0801 l 0.13502,0.47255 0.0675,0.27002 c 0.045,0.0675 0.0675,0.13504 0.0675,0.20252 0.045,0.0675 0.0675,0.13504 0.0675,0.20252 0.045,0.0675 0.0675,0.13504 0.0675,0.20252 0.1125,0.18004 0.18,0.36006 0.20252,0.54005 l 0.40504,1.0801 0,0.20252 c 0.21375,0.41631 0.34876,0.79885 0.40504,1.14761 0.21375,0.49507 0.34876,0.92261 0.40504,1.28262 0.0675,0.13503 0.11249,0.27004 0.13501,0.40503 l 0.13501,0.27003 c 0.0675,0.22504 0.13499,0.40506 0.20252,0.54005 l 0,0.20252 c 0.045,0.0675 0.0675,0.13503 0.0675,0.20252 0.11249,0.18004 0.17999,0.36005 0.20252,0.54005 l 0.40503,1.0801 0.0675,0.27003 0.0675,0.13501 0.13501,0.60756 0.13501,0.27002 0.13501,0.33753 0.0675,0.20252 0.0675,0.27003 0.13501,0.40504 c 0.0675,0.22503 0.13499,0.40505 0.20252,0.54005 l 0,0.20251 c 0.045,0.0675 0.0675,0.13503 0.0675,0.20252 0.11249,0.18004 0.18,0.36005 0.20252,0.54005 l 0.40504,1.08011 0.0675,0.40503 0.20252,0.40504 0.13501,0.40504 0,0.20252 0.13501,0.20252 0.0675,0.27002 0.0675,0.33753 c 0.34876,0.79884 0.57378,1.4739 0.67506,2.0252 0.045,0.0675 0.0675,0.13502 0.0675,0.20251 0.34876,0.79884 0.57379,1.4739 0.67507,2.02519 l 0.13501,0.20252 0.0675,0.27003 0.0675,0.27002 0.0675,0.20252 0.0675,0.27003 c 0.045,0.0675 0.0675,0.13502 0.0675,0.20252 0.045,0.0675 0.0675,0.13502 0.0675,0.20252 0.045,0.0675 0.0675,0.13501 0.0675,0.20252 l 0.13501,0.20251 0,0.20252 c 0.045,0.0675 0.0675,0.13502 0.0675,0.20252 0.11249,0.18002 0.18,0.36004 0.20252,0.54005 0.14624,0.33754 0.23625,0.60756 0.27003,0.81008 l 0.13501,0.40504 -0.40504,0 -0.27002,0 -1.21512,0 -0.74257,0 -0.27002,0 -0.27003,0 -0.27002,0 -0.27003,0 -1.1476,0 -0.20252,0 -0.81008,0 -0.13501,-0.40504 0,-0.27003 -0.13502,-0.20252 0,-0.20251 c -0.13503,-0.24752 -0.20253,-0.47254 -0.20251,-0.67507 l -0.13502,-0.20252 0,-0.20252 -0.0675,-0.27002 -0.20252,-0.47255 -0.47255,-1.68765 -1.21511,0 -1.35013,0 -0.47254,0 -0.40504,0 -0.33753,0 -0.40504,0 -0.27002,0 -1.21512,0 -0.74257,0 -0.27002,0 -0.27003,0 -0.27002,0 -0.27003,0 -1.14761,0 -0.20252,0 -0.81007,0 -0.0675,0.33753 -0.0675,0.33753 -0.13501,0.27002 c -0.0563,0.24754 -0.12377,0.47256 -0.20252,0.67507 l -0.0675,0.33753 -0.0675,0.13501 -0.20252,0.67507 -0.0675,0.27002 -0.0675,0.20252 c -0.0788,0.23628 -0.14627,0.41629 -0.20252,0.54005 l -0.20252,0.81008 -0.27002,0 -0.27003,0 -0.20252,0 -1.35013,0 -0.20251,0 -1.21512,0 -0.20252,0 -2.09269,0 0.13501,-0.54005 0.20252,-0.67507 0.0675,-0.20252 0.0675,-0.20252 0.0675,-0.20251 0.0675,-0.13502 0.33753,-1.0801 0.0675,-0.20252 0.0675,-0.20252 0.0675,-0.27002 0.13502,-0.27003 0.20252,-0.74257 0.0675,-0.20252 0.0675,-0.20251 0.0675,-0.20252 0.0675,-0.13502 c 0.13501,-0.51754 0.27002,-0.92257 0.40504,-1.21511 l 0.13501,-0.47254 0.0675,-0.13502 c 0.13501,-0.51753 0.27002,-0.92257 0.40504,-1.21511 0.0563,-0.22501 0.12375,-0.40503 0.20251,-0.54005 l 0.13502,-0.54005 0.20252,-0.47255 0.13501,-0.54005 0.0675,-0.13501 c 0.135,-0.51753 0.27002,-0.92257 0.40503,-1.21511 l 0.13502,-0.54006 0.54005,-1.48513 0.13501,-0.47255 0.0675,-0.20252 0.0675,-0.20252 c 0.13501,-0.42752 0.27002,-0.78755 0.40504,-1.0801 l 0.13501,-0.40504 0.0675,-0.20252 0,-0.20251 0.0675,-0.20252 0.47254,-1.21512 0.0675,-0.40504 0.13501,-0.33753 0.13501,-0.27002 c 0.09,-0.42752 0.20251,-0.78755 0.33753,-1.0801 l 0.0675,-0.33754 0.0675,-0.20251 0.0675,-0.13502 c 0.13501,-0.51752 0.27002,-0.92256 0.40504,-1.21511 l 0.0675,-0.27003 0.0675,-0.27002 c 0.12376,-0.25875 0.21376,-0.50627 0.27003,-0.74257 l 0.20252,-0.67506 0.0675,-0.20252 0.54005,-1.55265 z m 2.90277,5.94056 -0.20252,0.74257 -0.0675,0.13501 -0.33754,1.21511 -0.40503,1.14761 -0.0675,0.13501 -0.40504,1.48514 -0.0675,0.27003 -0.40504,1.14761 -0.13502,0.33753 c -0.045,0.36005 -0.13502,0.67508 -0.27002,0.94509 -0.0338,0.25879 -0.10127,0.50631 -0.20252,0.74257 l -0.0675,0.27002 c -0.09,0.27004 -0.18002,0.49506 -0.27002,0.67507 l -0.40504,1.48514 0.20252,0 0.27002,0 0.27003,0 0.27003,0 0.27002,0 1.14761,0 0.20252,0 0.81007,0 0.27003,0 0.74257,0 0.33753,0 0.20252,0 0.27002,0 0.20252,0 1.35013,0 -0.13501,-0.54006 -0.40504,-1.28262 -0.33753,-1.1476 c -0.16878,-0.42753 -0.28129,-0.78756 -0.33753,-1.0801 l -0.0675,-0.13502 c -0.09,-0.32626 -0.18003,-0.59629 -0.27003,-0.81007 l -0.0675,-0.27003 -0.0675,-0.27002 -0.13501,-0.33754 -0.0675,-0.40503 -0.0675,-0.27003 -0.13502,-0.20252 -0.0675,-0.40504 -0.0675,-0.27002 c -0.0675,-0.13499 -0.11252,-0.27001 -0.13501,-0.40504 l -0.0675,-0.27003 c -0.16878,-0.33751 -0.28129,-0.65253 -0.33753,-0.94508 l -0.0675,-0.20252 -0.0675,-0.13502 -0.13501,-0.60755 -0.0675,-0.20252 -0.33753,-0.87758 z"
         id="path3747" />
      <path
         d="m 234.80546,294.89674 1.21511,0 0.87758,0 0.27003,0 1.14761,0 0.20252,0 0.81007,0 0,25.78742 -0.87758,0 -0.27002,0 -1.21512,0 -0.27002,0 -0.27003,0 -0.27002,0 -1.14761,0 -0.20252,0 -0.81008,0 0,-0.47255 0,-0.20252 0,-0.20252 0,-0.87758 0,-0.20252 0,-0.33753 0,-0.20252 0,-0.27002 0,-0.20252 0,-1.35013 0,-0.54005 0,-0.94509 0,-0.20252 0,-0.33753 0,-0.20252 0,-0.27002 0,-0.20252 0,-1.35013 0,-1.14761 0,-0.20252 0,-0.81007 0,-0.27003 0,-0.20252 0,-1.35012 0,-0.27003 0,-0.20252 0,-1.21511 0,-0.87758 0,-0.27003 0,-1.14761 0,-0.20252 0,-0.81007 -1.14761,0 -0.74257,0 -0.27002,0 -1.14761,0 -0.20252,0 -0.81007,0 0,-0.27003 0,-0.33753 0,-0.27002 0,-0.33754 0,-0.87758 0,-0.27002 0,-1.14761 0,-0.20252 0,-0.81008 c 1.46263,0.0338 2.72275,-0.28125 3.78035,-0.94508 l 0.0675,-0.13502 c 0.27002,-0.36 0.47254,-0.67503 0.60756,-0.94509 l 0,-0.20251 0.13501,-0.47255 0.33753,-1.21511 z"
         id="path3749" />
    </g>
    <path
       style="color:#000000;fill:#08842c;fill-opacity:1;fill-rule:evenodd;stroke:#ffffff;stroke-width:2.80112171;stroke-linecap:round;stroke-linejoin:round;stroke-miterlimit:4;stroke-opacity:1;stroke-dashoffset:0;marker:none;visibility:visible;display:inline;overflow:visible"
       d="m 316.31578,552.42795 27.07708,-4.16571 27.07708,4.16571 4.16571,27.07708 -4.16571,27.07708 -27.07708,4.16571 -27.07708,-4.16571 -4.16571,-27.07708 4.16571,-27.07708 z"
       id="pathOttagono-1" />
    <g
       transform="scale(0.8444228,1.1842409)"
       style="font-size:32.07413864px;font-style:normal;font-weight:normal;fill:#ffffff;fill-opacity:1;stroke:none;font-family:Transport Heavy;-inkscape-font-specification:Transport Heavy"
       id="text3676">
      <path
         d="m 385.04727,476.6517 0.81438,0 1.94199,0 0.87703,0 0.18793,0 0.31323,0 0.18793,0 0.25058,0 0.18794,0 1.25289,0 0,0.18793 c 0.17748,0.3759 0.30277,0.71 0.37587,1.00232 l 0.12529,0.43851 0.0627,0.25058 c 0.0417,0.0627 0.0626,0.12532 0.0626,0.18794 0.0418,0.0627 0.0626,0.12531 0.0627,0.18793 0.0417,0.0627 0.0626,0.12532 0.0626,0.18794 0.10439,0.16707 0.16704,0.33413 0.18793,0.50115 l 0.37587,1.00232 0,0.18794 c 0.19836,0.38633 0.32365,0.74131 0.37587,1.06496 0.19836,0.45941 0.32365,0.85616 0.37587,1.19025 0.0626,0.12531 0.10439,0.2506 0.12529,0.37587 l 0.12529,0.25058 c 0.0626,0.20883 0.12527,0.37589 0.18793,0.50115 l 0,0.18794 c 0.0417,0.0627 0.0626,0.12531 0.0627,0.18793 0.10439,0.16708 0.16703,0.33413 0.18793,0.50116 l 0.37587,1.00232 0.0627,0.25058 0.0626,0.12529 0.12529,0.5638 0.12529,0.25058 0.12529,0.31322 0.0627,0.18794 0.0626,0.25058 0.12529,0.37587 c 0.0626,0.20883 0.12527,0.37588 0.18793,0.50116 l 0,0.18793 c 0.0417,0.0627 0.0626,0.1253 0.0627,0.18793 0.10439,0.16707 0.16703,0.33412 0.18793,0.50116 l 0.37587,1.00232 0.0627,0.37587 0.18793,0.37587 0.12529,0.37587 0,0.18793 0.12529,0.18793 0.0626,0.25058 0.0626,0.31323 c 0.32364,0.7413 0.53246,1.36775 0.62645,1.87934 0.0417,0.0627 0.0626,0.1253 0.0626,0.18794 0.32365,0.7413 0.53246,1.36775 0.62645,1.87934 l 0.12529,0.18793 0.0626,0.25058 0.0626,0.25058 0.0627,0.18794 0.0626,0.25058 c 0.0417,0.0627 0.0626,0.12529 0.0626,0.18793 0.0417,0.0627 0.0626,0.1253 0.0626,0.18794 0.0417,0.0627 0.0626,0.12529 0.0626,0.18793 l 0.12529,0.18793 0,0.18794 c 0.0417,0.0626 0.0626,0.12529 0.0627,0.18793 0.10438,0.16706 0.16703,0.33411 0.18793,0.50116 0.13571,0.31323 0.21924,0.56381 0.25058,0.75174 l 0.12529,0.37587 -0.37587,0 -0.25058,0 -1.1276,0 -0.6891,0 -0.25057,0 -0.25058,0 -0.25058,0 -0.25058,0 -1.06496,0 -0.18794,0 -0.75174,0 -0.12529,-0.37587 0,-0.25058 -0.12528,-0.18793 0,-0.18794 c -0.12531,-0.22969 -0.18796,-0.43851 -0.18794,-0.62645 l -0.12529,-0.18793 0,-0.18794 -0.0626,-0.25057 -0.18794,-0.43852 -0.43851,-1.56612 -1.12761,0 -1.25289,0 -0.43852,0 -0.37587,0 -0.31322,0 -0.37587,0 -0.25058,0 -1.12761,0 -0.68909,0 -0.25058,0 -0.25058,0 -0.25058,0 -0.25057,0 -1.06497,0 -0.18793,0 -0.75174,0 -0.0626,0.31323 -0.0627,0.31322 -0.12529,0.25058 c -0.0522,0.2297 -0.11485,0.43852 -0.18793,0.62645 l -0.0627,0.31322 -0.0626,0.12529 -0.18794,0.62645 -0.0626,0.25058 -0.0626,0.18793 c -0.0731,0.21926 -0.13573,0.38632 -0.18793,0.50116 l -0.18793,0.75174 -0.25058,0 -0.25058,0 -0.18794,0 -1.25289,0 -0.18794,0 -1.1276,0 -0.18794,0 -1.94199,0 0.12529,-0.50116 0.18794,-0.62645 0.0626,-0.18793 0.0626,-0.18794 0.0626,-0.18793 0.0626,-0.12529 0.31322,-1.00232 0.0626,-0.18793 0.0627,-0.18794 0.0626,-0.25058 0.12529,-0.25058 0.18794,-0.68909 0.0626,-0.18793 0.0627,-0.18794 0.0626,-0.18793 0.0627,-0.12529 c 0.12528,-0.48027 0.25057,-0.85614 0.37587,-1.12761 l 0.12529,-0.43851 0.0626,-0.12529 c 0.12529,-0.48027 0.25058,-0.85614 0.37587,-1.12761 0.0522,-0.2088 0.11484,-0.37585 0.18793,-0.50116 l 0.12529,-0.50115 0.18794,-0.43852 0.12529,-0.50116 0.0626,-0.12529 c 0.12529,-0.48026 0.25058,-0.85613 0.37587,-1.1276 l 0.12529,-0.50116 0.50116,-1.37819 0.12529,-0.43851 0.0626,-0.18793 0.0626,-0.18794 c 0.12528,-0.39673 0.25057,-0.73084 0.37587,-1.00232 l 0.12529,-0.37586 0.0626,-0.18794 0,-0.18793 0.0627,-0.18794 0.43851,-1.1276 0.0626,-0.37587 0.12529,-0.31323 0.12529,-0.25058 c 0.0835,-0.39672 0.18793,-0.73083 0.31323,-1.00231 l 0.0626,-0.31323 0.0627,-0.18793 0.0626,-0.12529 c 0.12528,-0.48025 0.25057,-0.85612 0.37587,-1.12761 l 0.0626,-0.25058 0.0626,-0.25058 c 0.11484,-0.24011 0.19837,-0.46981 0.25058,-0.68909 l 0.18793,-0.62645 0.0627,-0.18793 0.50116,-1.44083 z m 2.69373,5.51274 -0.18794,0.68909 -0.0626,0.12529 -0.31323,1.12761 -0.37586,1.06496 -0.0627,0.12529 -0.37587,1.37819 -0.0626,0.25058 -0.37587,1.06496 -0.12529,0.31322 c -0.0418,0.33412 -0.1253,0.62646 -0.25058,0.87703 -0.0313,0.24015 -0.094,0.46985 -0.18793,0.68909 l -0.0627,0.25058 c -0.0835,0.25059 -0.16706,0.45941 -0.25058,0.62645 l -0.37587,1.37818 0.18794,0 0.25058,0 0.25058,0 0.25057,0 0.25058,0 1.06497,0 0.18793,0 0.75174,0 0.25058,0 0.68909,0 0.31322,0 0.18794,0 0.25058,0 0.18793,0 1.2529,0 -0.12529,-0.50115 -0.37587,-1.19025 -0.31322,-1.06497 c -0.15663,-0.39673 -0.26104,-0.73084 -0.31323,-1.00231 l -0.0626,-0.12529 c -0.0835,-0.30277 -0.16707,-0.55335 -0.25058,-0.75174 l -0.0627,-0.25058 -0.0626,-0.25058 -0.12529,-0.31322 -0.0627,-0.37587 -0.0626,-0.25058 -0.12529,-0.18794 -0.0626,-0.37586 -0.0626,-0.25058 c -0.0627,-0.12527 -0.10442,-0.25056 -0.12529,-0.37587 l -0.0627,-0.25058 c -0.15662,-0.31321 -0.26103,-0.60555 -0.31322,-0.87703 l -0.0626,-0.18793 -0.0627,-0.12529 -0.12529,-0.56381 -0.0626,-0.18793 -0.31323,-0.81438 z"
         id="path3727" />
      <path
         d="m 406.09592,476.71434 1.12761,0 0.81438,0 0.25058,0 1.06496,0 0.18794,0 0.75174,0 0,23.93032 -0.81439,0 -0.25058,0 -1.1276,0 -0.25058,0 -0.25058,0 -0.25058,0 -1.06496,0 -0.18794,0 -0.75173,0 0,-0.43852 0,-0.18793 0,-0.18793 0,-0.81439 0,-0.18793 0,-0.31323 0,-0.18793 0,-0.25058 0,-0.18793 0,-1.2529 0,-0.50116 0,-0.87703 0,-0.18793 0,-0.31322 0,-0.18794 0,-0.25058 0,-0.18793 0,-1.2529 0,-1.06496 0,-0.18793 0,-0.75174 0,-0.25058 0,-0.18793 0,-1.2529 0,-0.25058 0,-0.18793 0,-1.12761 0,-0.81438 0,-0.25058 0,-1.06496 0,-0.18794 0,-0.75174 -1.06497,0 -0.68909,0 -0.25058,0 -1.06496,0 -0.18793,0 -0.75174,0 0,-0.25058 0,-0.31322 0,-0.25058 0,-0.31322 0,-0.81439 0,-0.25057 0,-1.06497 0,-0.18793 0,-0.75174 c 1.3573,0.0314 2.52667,-0.26099 3.50811,-0.87703 l 0.0626,-0.12528 c 0.25058,-0.33409 0.43851,-0.62643 0.56381,-0.87703 l 0,-0.18794 0.12529,-0.43851 0.31322,-1.12761 z"
         id="path3729" />
      <path
         d="m 426.39284,476.6517 0.18794,0 1.25289,0 0.25058,0 0.18794,0 1.1276,0 0.81438,0 0.25058,0 1.06496,0 0.18794,0 0.75174,0 0,15.34798 0.81438,0 0.25058,0 1.06496,0 0.18793,0 0.75174,0 0,4.38513 c -0.0418,0.0731 -0.10443,0.11486 -0.18793,0.12529 l -0.6891,0 -0.31322,0 -0.18793,0 -0.25058,0 -0.18794,0 -1.25289,0 0,4.07191 -0.81439,0 -0.25057,0 -1.12761,0 -0.25058,0 -0.25058,0 -0.25058,0 -1.06496,0 -0.18793,0 -0.75174,0 0,-0.68909 0,-0.31322 0,-0.81439 0,-0.25058 0,-1.06496 0,-0.18793 0,-0.75174 -0.50116,0 -0.87703,0 -0.18793,0 -0.31323,0 -0.18793,0 -0.25058,0 -0.18793,0 -1.2529,0 -1.06496,0 -0.18794,0 -0.75173,0 -0.81439,0 -0.25058,0 -1.06496,0 -0.18793,0 -0.75174,0 -0.68909,0 -0.31323,0 -0.81438,0 -0.25058,0 -0.18793,0 -0.25058,0 -0.18794,0 -0.25058,0 -1.1276,0 0,-0.12529 0,-0.12529 0,-0.12529 0,-0.12529 0,-0.12529 0,-0.12529 0,-0.12529 0,-0.12529 0,-0.12529 0,-0.12529 0,-0.12528 0,-0.12529 0,-0.12529 0,-0.18794 0,0.0627 0,-0.12529 0,0.0626 0,-0.12529 0,0.0627 0,-0.12529 0,0.0626 0,-0.12529 0,0.0627 0,-0.12529 0,0.0626 0,-0.12529 0,0.0627 0,-0.12529 0,0.0626 0,-0.12529 0,0.0626 0,-0.12529 0,0.0626 0,-0.12529 0,0.0626 0,-0.12529 0,0.0626 0,-0.12529 0,0.0626 0,-0.12529 0,0.0626 0,-0.12529 0,0.0627 0,-0.12529 0,0.0626 0,-0.12529 0,0.0627 0,-0.12529 0,0.0626 0,-0.12528 0,0.0626 0,-0.12529 0,0.0627 0,-0.12529 0,0.0626 0,-0.12529 0,0.0627 0,-0.12529 0,0.0626 0,-0.12529 0,0.0627 0,-0.12529 0,0.0626 0,-0.12529 0,0.0627 0,-0.12529 0,0.0626 0,-0.12529 0,0.0627 0,-0.12529 0,0.0626 0,-0.12529 0,0.0626 0,-0.12529 0,0.0626 0,-0.12529 0,0.0626 0,-0.12529 0,0.0626 0,-0.12529 0,0.0626 0,-0.12529 0,0.0626 0,-0.12529 0,0.0627 0,-0.12529 0,0.0626 0,-0.12529 0,0.0627 0,-0.12529 0,0.0626 0,-0.12529 0,0.0627 0,-0.12529 0,0.0626 0,-0.12529 0,0.0627 0,-0.12529 0,0.0626 0,-0.12528 0,0.0626 0,-0.12529 0,0.0627 0,-0.0627 0.25058,-0.31322 0.87702,-1.12761 0.25058,-0.37587 0.12529,-0.18793 0.18794,-0.25058 0.18793,-0.12529 0.12529,-0.25058 0.12529,-0.18794 0.18794,-0.18793 c 0.0418,-0.0731 0.0835,-0.11483 0.12529,-0.12529 l 0.12529,-0.18793 0.0626,-0.18794 0.18793,-0.12529 c 0.37587,-0.65775 0.75174,-1.15891 1.12761,-1.50347 l 0.25058,-0.43852 0.31322,-0.31322 0.0627,-0.18794 0.12529,-0.12529 0.62645,-0.87702 0.18793,-0.12529 c 0.37586,-0.65775 0.75173,-1.15891 1.12761,-1.50348 0.25057,-0.44893 0.50115,-0.80392 0.75173,-1.06496 l 0.18794,-0.25058 0.12529,-0.18793 0.0626,-0.12529 c 0.22969,-0.24012 0.39675,-0.44893 0.50116,-0.62645 l 0.56381,-0.68909 0.12528,-0.18794 0.56381,-0.81438 0.12529,-0.18793 c 0.27145,-0.29232 0.48026,-0.5429 0.62645,-0.75174 0.0418,-0.0731 0.0835,-0.11482 0.12529,-0.12529 l 0.0626,-0.18794 0.18793,-0.12529 0.25058,-0.43851 0.62645,-0.81438 z m 1.06496,5.57539 -0.25058,0.43851 -0.37587,0.37587 -0.25057,0.43851 c -0.14619,0.13575 -0.2506,0.26104 -0.31323,0.37587 l -0.25058,0.37587 c -0.14618,0.13575 -0.25059,0.26104 -0.31322,0.37587 l -0.25058,0.31322 c -0.13574,0.1984 -0.26103,0.36545 -0.37587,0.50116 -0.0418,0.0731 -0.0835,0.11487 -0.12529,0.12529 l -0.0626,0.12529 -0.12529,0.18793 -0.0626,0.12529 -0.12529,0.0627 -0.0626,0.12529 c -0.0418,0.0731 -0.0835,0.11487 -0.12529,0.12529 l -0.0627,0.12529 -0.0626,0.12529 -0.12529,0.0626 -0.43852,0.6891 -0.12529,0.12528 -0.43851,0.56381 -0.18793,0.18793 -0.18794,0.31323 -0.18793,0.18793 c -0.20883,0.36544 -0.39676,0.65779 -0.56381,0.87703 l -0.37586,0.37587 -0.0627,0.18793 -0.18793,0.18794 c -0.0418,0.0731 -0.0835,0.11486 -0.12529,0.12529 l -0.0626,0.18793 -0.18793,0.12529 -0.25058,0.43851 -0.62645,0.81439 0.43851,0 0.37587,0 0.43852,0 0.37587,0 0.31322,0 0.37587,0 0.25058,0 1.1276,0 0.6891,0 0.25058,0 0.25058,0 0.25057,0 0.25058,0 1.06497,0 0.18793,0 0.75174,0 0,-0.43852 0,-1.25289 0,-0.37587 0,-0.18794 0,-0.25058 0,-0.18793 0,-0.31323 0,-0.18793 0,-0.25058 0,-0.18793 0,-1.2529 0,-0.25058 0,-0.25058 0,-0.18793 0,-1.12761 0,-0.81438 0,-0.25058 0,-1.06496 0,-0.18794 0,-0.75173 -0.0626,0 0.0626,0 z"
         id="path3731" />
    </g>
    <g
       transform="scale(1.034623,0.96653567)"
       style="font-size:58.0051918px;font-style:normal;font-weight:normal;fill:#ffffff;fill-opacity:1;stroke:none;font-family:Transport Heavy;-inkscape-font-specification:Transport Heavy"
       id="text3680">
      <path
         d="m 238.27385,360.21111 1.58608,0 0.56646,0 0.45316,0 2.03925,0 0.45317,0 0.45316,0 0.45317,0 1.92595,0 0.33987,0 1.3595,0 0.45317,0.79304 0.45316,0.67975 0.45317,0.67975 0.45316,0.67974 0.45317,0.67975 0.33987,0.33988 0.11329,0.33987 c 0.0944,0.0756 0.13216,0.1511 0.1133,0.22658 0.54755,0.58539 0.92519,1.15184 1.13291,1.69937 0.54755,0.58539 0.92519,1.15184 1.13291,1.69938 l 0.45317,0.56645 0.45316,0.67975 c 0.20768,0.33991 0.3965,0.60426 0.56646,0.79304 l 0.11329,0.33987 c 0.28321,0.30215 0.47203,0.60426 0.56646,0.90634 0.75525,0.84972 1.28394,1.64276 1.58608,2.37911 l 0.45316,0.67975 c 0.0944,0.0756 0.13215,0.15109 0.1133,0.22659 0.56643,0.64201 0.98183,1.20847 1.2462,1.69937 l 0.45317,0.67975 0.33987,0.67974 0.45317,0.67975 0.45316,0.45317 0.33988,0.56645 0.22658,0.56646 c 0.4909,0.49096 0.83077,0.98189 1.01962,1.47279 l 0.33988,0.45316 0.22658,0.45317 0.33987,0.33987 c 0.35873,0.52872 0.62307,0.98189 0.79304,1.3595 l 0.33988,0.33988 0.22658,0.33987 0.11329,0.33987 0.22658,0.1133 c 0.24543,0.54759 0.50978,0.963 0.79304,1.2462 l 0.11329,0.33987 c 0.0944,0.0756 0.13214,0.15108 0.1133,0.22659 0.69859,0.77418 1.18952,1.49169 1.47278,2.15253 l 0.1133,-0.79304 0,-0.79304 0,-0.90633 0,-0.45316 0,-2.03925 0,-1.2462 0,-0.45317 0,-0.45316 0,-0.45317 0,-0.45316 0,-1.92596 0,-0.33987 0,-1.3595 0,-0.67975 0,-1.92595 0,-0.33988 0,-1.35949 0,-1.47279 0,-0.45317 0,-1.92595 0,-0.33987 0,-1.3595 0,-1.24621 0,-0.56645 0,-1.47279 0,-0.45317 0,-1.92595 0,-0.33987 0,-1.3595 1.47278,0 0.45317,0 2.03924,0 0.45317,0 0.45317,0 0.45316,0 1.92595,0 0.33988,0 1.3595,0 0,43.27731 -0.33988,0 -1.3595,0 -1.13291,0 -0.79304,0 -0.67975,0 -0.56645,0 -0.45317,0 -0.45317,0 -0.45316,0 -0.33988,0 -0.33987,0 -0.33987,0 -0.22659,0 0.22659,0 -0.22659,0 -0.90633,0 -0.33987,0 -1.47279,0 -0.11329,-0.22658 c -0.26438,-0.33987 -0.4532,-0.64198 -0.56646,-0.90633 -0.0944,-0.0755 -0.13221,-0.15105 -0.11329,-0.22659 -0.69866,-0.77415 -1.18959,-1.49166 -1.47279,-2.15253 -0.0944,-0.0755 -0.1322,-0.15105 -0.11329,-0.22659 l -0.45316,-0.67974 c -0.39656,-0.45316 -0.69867,-0.90632 -0.90634,-1.3595 l -0.56645,-0.67975 -0.45317,-0.79304 -0.45316,-0.79304 c -0.50984,-0.56644 -0.88748,-1.09513 -1.13292,-1.58608 l -0.22658,-0.22658 c -0.30214,-0.66085 -0.64201,-1.18954 -1.01962,-1.58608 l -0.11329,-0.22658 -0.22659,-0.33988 -1.01962,-1.58608 c -0.26437,-0.33985 -0.45319,-0.64196 -0.56646,-0.90633 -0.0944,-0.0755 -0.1322,-0.15103 -0.11329,-0.22658 l -0.22658,-0.11329 -0.45317,-0.79304 -0.11329,-0.22658 c -0.26437,-0.33986 -0.45319,-0.64197 -0.56645,-0.90634 -0.16997,-0.18879 -0.28326,-0.37761 -0.33988,-0.56645 l -0.45316,-0.45317 -0.45317,-0.67975 -0.22658,-0.56645 -0.22659,-0.11329 -0.45316,-0.79304 -1.01962,-1.47279 -0.22659,-0.45317 -0.22658,-0.45316 -0.33987,-0.33988 -0.22659,-0.33987 -0.11329,-0.33988 c -0.37765,-0.41537 -0.67976,-0.79301 -0.90633,-1.13291 l -0.22658,-0.45317 c -0.32101,-0.43425 -0.54759,-0.81189 -0.67975,-1.13291 -0.13219,-0.0755 -0.20772,-0.15102 -0.22658,-0.22658 l -0.22659,-0.22658 -0.11329,-0.22659 -0.45316,-0.79304 -1.01962,-1.47279 0,29.0026 -1.47279,0 -0.45317,0 -2.03924,0 -0.45317,0 -0.45316,0 -0.45317,0 -1.92595,0 -0.33988,0 -1.35949,0 0,-0.33987 0,-0.45317 0,-0.33987 0,-0.45317 0,-2.03924 0,-0.90634 0,-0.90633 0,-0.33987 0,-2.26583 0,-0.45316 0,-0.56646 0,-0.45317 0,-0.56645 0,-1.47279 0,-0.45317 0,-1.92595 0,-0.33987 0,-1.3595 0,-0.45317 0,-0.56645 0,-1.47279 0,-0.45317 0,-1.92595 0,-0.33988 0,-1.35949 0,-0.79304 0,-0.90633 0,-0.90633 0,-0.90634 0,-0.33987 0,-0.33987 0,-3.51204 0,-0.79304 0,-0.67974 0,-0.79304 0,-0.67975 0,-0.56646 0,-0.67975 0,-0.45316 0,-2.03925 0,-1.2462 0,-0.45317 0,-0.45317 0,-0.45316 0,-0.45317 0,-1.92595 0,-0.33987 0,-1.3595 z"
         id="path3734" />
      <path
         d="m 299.4512,360.3244 1.47279,0 3.51203,0 1.58608,0 0.33988,0 0.56645,0 0.33988,0 0.45316,0 0.33988,0 2.26583,0 0,0.33987 c 0.32096,0.6798 0.54754,1.28402 0.67974,1.81267 l 0.22659,0.79304 0.11329,0.45316 c 0.0755,0.11334 0.11326,0.22663 0.11329,0.33988 0.0755,0.11333 0.11326,0.22662 0.11329,0.33987 0.0755,0.11334 0.11326,0.22663 0.11329,0.33987 0.18879,0.30216 0.30208,0.60427 0.33988,0.90634 l 0.67975,1.81266 0,0.33987 c 0.35872,0.69867 0.5853,1.34066 0.67974,1.92596 0.35873,0.83084 0.58531,1.54835 0.67975,2.15253 0.11326,0.22662 0.18879,0.45321 0.22658,0.67975 l 0.22659,0.45317 c 0.11326,0.37767 0.22655,0.67978 0.33987,0.90633 l 0,0.33987 c 0.0755,0.11333 0.11326,0.22662 0.11329,0.33988 0.18879,0.30214 0.30208,0.60425 0.33988,0.90633 l 0.67975,1.81266 0.11329,0.45316 0.11329,0.22659 0.22658,1.01962 0.22658,0.45317 0.22659,0.56645 0.11329,0.33988 0.11329,0.45316 0.22658,0.67975 c 0.11326,0.37767 0.22655,0.67978 0.33988,0.90633 l 0,0.33988 c 0.0755,0.11331 0.11325,0.22661 0.11329,0.33987 0.18878,0.30214 0.30207,0.60425 0.33987,0.90633 l 0.67975,1.81266 0.11329,0.67975 0.33988,0.67975 0.22658,0.67975 0,0.33987 0.22658,0.33988 0.11329,0.45316 0.11329,0.56646 c 0.58531,1.34063 0.96294,2.47355 1.13292,3.39874 0.0755,0.11331 0.11325,0.2266 0.11329,0.33988 0.5853,1.34063 0.96294,2.47354 1.13291,3.39874 l 0.22659,0.33987 0.11329,0.45317 0.11329,0.45316 0.11329,0.33988 0.11329,0.45316 c 0.0755,0.1133 0.11325,0.2266 0.11329,0.33988 0.0755,0.1133 0.11325,0.22659 0.11329,0.33987 0.0755,0.1133 0.11326,0.22659 0.1133,0.33987 l 0.22658,0.33988 0,0.33987 c 0.0755,0.1133 0.11325,0.22659 0.11329,0.33988 0.18878,0.30212 0.30207,0.60423 0.33987,0.90633 0.24543,0.56646 0.39648,1.01963 0.45317,1.35949 l 0.22658,0.67975 -0.67975,0 -0.45316,0 -2.03925,0 -1.2462,0 -0.45317,0 -0.45316,0 -0.45317,0 -0.45316,0 -1.92596,0 -0.33987,0 -1.3595,0 -0.22658,-0.67975 0,-0.45316 -0.22658,-0.33987 0,-0.33988 c -0.22662,-0.41539 -0.33991,-0.79303 -0.33988,-1.13291 l -0.22658,-0.33988 0,-0.33987 -0.11329,-0.45317 -0.33988,-0.79304 -0.79304,-2.83228 -2.03924,0 -2.26583,0 -0.79304,0 -0.67975,0 -0.56645,0 -0.67975,0 -0.45317,0 -2.03924,0 -1.24621,0 -0.45316,0 -0.45317,0 -0.45316,0 -0.45317,0 -1.92595,0 -0.33988,0 -1.35949,0 -0.1133,0.56646 -0.11329,0.56645 -0.22658,0.45317 c -0.0944,0.41541 -0.20771,0.79305 -0.33987,1.13291 l -0.1133,0.56646 -0.11329,0.22658 -0.33987,1.13292 -0.11329,0.45316 -0.11329,0.33988 c -0.13219,0.39652 -0.24548,0.69863 -0.33988,0.90633 l -0.33987,1.35949 -0.45317,0 -0.45316,0 -0.33988,0 -2.26583,0 -0.33987,0 -2.03924,0 -0.33988,0 -3.51203,0 0.22658,-0.90633 0.33987,-1.13291 0.1133,-0.33988 0.11329,-0.33987 0.11329,-0.33987 0.11329,-0.22659 0.56646,-1.81266 0.11329,-0.33987 0.11329,-0.33988 0.11329,-0.45316 0.22658,-0.45317 0.33988,-1.2462 0.11329,-0.33988 0.11329,-0.33987 0.11329,-0.33988 0.11329,-0.22658 c 0.22658,-0.86855 0.45316,-1.5483 0.67975,-2.03924 l 0.22659,-0.79304 0.11329,-0.22659 c 0.22657,-0.86855 0.45316,-1.54829 0.67974,-2.03924 0.0944,-0.37762 0.2077,-0.67973 0.33988,-0.90633 l 0.22658,-0.90633 0.33988,-0.79304 0.22658,-0.90634 0.11329,-0.22658 c 0.22657,-0.86854 0.45316,-1.54829 0.67975,-2.03924 l 0.22658,-0.90633 0.90633,-2.49241 0.22659,-0.79304 0.11329,-0.33988 0.11329,-0.33987 c 0.22657,-0.71748 0.45315,-1.3217 0.67975,-1.81266 l 0.22658,-0.67975 0.11329,-0.33988 0,-0.33987 0.11329,-0.33988 0.79304,-2.03924 0.11329,-0.67975 0.22659,-0.56646 0.22658,-0.45316 c 0.15104,-0.71747 0.33986,-1.3217 0.56646,-1.81266 l 0.11329,-0.56646 0.11329,-0.33988 0.11329,-0.22658 c 0.22657,-0.86852 0.45315,-1.54827 0.67975,-2.03924 l 0.11329,-0.45317 0.11329,-0.45316 c 0.20769,-0.43424 0.35874,-0.84964 0.45317,-1.24621 l 0.33987,-1.13291 0.11329,-0.33988 0.90633,-2.6057 z m 4.87153,9.96964 -0.33987,1.24621 -0.11329,0.22658 -0.56646,2.03925 -0.67975,1.92595 -0.11329,0.22658 -0.67975,2.49241 -0.11329,0.45317 -0.67975,1.92595 -0.22658,0.56646 c -0.0756,0.60425 -0.2266,1.13294 -0.45317,1.58608 -0.0567,0.43431 -0.16995,0.84971 -0.33987,1.2462 l -0.11329,0.45317 c -0.15107,0.45319 -0.30213,0.83083 -0.45317,1.13291 l -0.67975,2.49241 0.33988,0 0.45316,0 0.45317,0 0.45317,0 0.45316,0 1.92595,0 0.33988,0 1.3595,0 0.45316,0 1.24621,0 0.56645,0 0.33988,0 0.45316,0 0.33988,0 2.26582,0 -0.22658,-0.90633 -0.67975,-2.15253 -0.56645,-1.92596 c -0.28326,-0.71748 -0.47208,-1.3217 -0.56646,-1.81266 l -0.11329,-0.22658 c -0.15108,-0.54755 -0.30214,-1.00071 -0.45317,-1.3595 l -0.11329,-0.45316 -0.11329,-0.45317 -0.22658,-0.56646 -0.11329,-0.67975 -0.1133,-0.45316 -0.22658,-0.33987 -0.11329,-0.67975 -0.11329,-0.45317 c -0.11332,-0.22655 -0.18884,-0.45313 -0.22658,-0.67975 l -0.1133,-0.45316 c -0.28325,-0.56642 -0.47207,-1.09512 -0.56645,-1.58608 l -0.11329,-0.33988 -0.1133,-0.22658 -0.22658,-1.01962 -0.11329,-0.33988 -0.56646,-1.47278 z"
         id="path3736" />
      <path
         d="m 334.11837,360.21111 0.90633,0 0.33988,0 0.33987,0 3.51203,0 0.79304,0 0.67975,0 0.79304,0 0.67975,0 0.56646,0 0.67974,0 0.45317,0 2.03924,0 1.24621,0 0.45317,0 0.45316,0 0.45317,0 0.45316,0 1.92596,0 0.33987,0 1.3595,0 0.33987,0 0.22658,0.11329 0.33988,0 0.79304,0.11329 0.33987,0.11329 1.58608,0.33988 c 7.08068,3.39878 10.06401,8.76124 8.95002,16.08738 -2.53021,8.66681 -8.30806,12.44319 -17.33358,11.32913 l -0.45317,0 -1.2462,0 -0.56646,0 -0.33987,0 -0.45317,0 -0.33987,0 -2.26583,0 0,15.18105 -1.47279,0 -0.45316,0 -2.03925,0 -0.45317,0 -0.45316,0 -0.45317,0 -1.92595,0 -0.33987,0 -1.3595,0 0,-0.33987 0,-0.45317 0,-0.33987 0,-0.45317 0,-2.03924 0,-0.90634 0,-0.90633 0,-0.33987 0,-2.26583 0,-0.45316 0,-0.56646 0,-0.45317 0,-0.56645 0,-1.47279 0,-0.45317 0,-1.92595 0,-0.33987 0,-1.3595 0,-0.45317 0,-0.56645 0,-1.47279 0,-0.45317 0,-1.92595 0,-0.33988 0,-1.35949 0,-0.79304 0,-0.90633 0,-0.90633 0,-0.90634 0,-0.33987 0,-0.33987 0,-3.51204 0,-0.79304 0,-0.67974 0,-0.79304 0,-0.67975 0,-0.56646 0,-0.67975 0,-0.45316 0,-2.03925 0,-1.2462 0,-0.45317 0,-0.45317 0,-0.45316 0,-0.45317 0,-1.92595 0,-0.33987 0,-1.3595 z m 8.04369,19.93928 0.45316,0 0.45317,0 0.45317,0 1.2462,0 1.24621,0 2.03924,0 0.33988,0 0.33987,0 0.45317,0 2.03924,0 0.45317,0 c 0.47202,-0.18879 0.88742,-0.30208 1.2462,-0.33987 3.15325,-1.86928 4.21063,-4.43721 3.17216,-7.70381 -0.69866,-1.62381 -1.79381,-2.75672 -3.28545,-3.39875 l -0.33987,0 c -1.17071,-0.33983 -2.22809,-0.45312 -3.17216,-0.33987 l -0.56646,0 -0.45317,0 -0.56645,0 -1.47279,0 -0.45317,0 -1.92595,0 -0.33987,0 -1.3595,0 z"
         id="path3738" />
      <path
         d="m 390.42419,359.19149 c 12.82078,0.0945 20.14695,6.66535 21.97853,19.7127 0.81188,11.70679 -3.30437,19.71271 -12.34876,24.01777 -8.74234,3.17217 -16.1818,1.92596 -22.3184,-3.73861 -6.53314,-7.36392 -8.3458,-15.82301 -5.43799,-25.37727 3.17215,-9.08215 9.21435,-13.95368 18.12662,-14.61459 z m 0.22659,8.61014 c -7.25067,1.37842 -10.57388,6.66535 -9.96965,15.8608 0.28322,5.438 2.51128,9.28991 6.6842,11.55572 l 0.33987,0 c 0.35873,0.20771 0.69861,0.32101 1.01962,0.33987 l 0.22658,0.11329 1.3595,0.33988 c 7.96813,-0.0755 12.12215,-4.154 12.46205,-12.23547 0.6986,-10.38501 -3.34212,-15.7097 -12.12217,-15.97409 z"
         id="path3740" />
      <path
         d="m 424.29831,360.3244 0.45317,0 2.03924,0 0.45317,0 0.45316,0 0.45317,0 1.92595,0 0.33988,0 1.35949,0 0,34.66717 0.33988,0 0.33987,0 0.33988,0 1.47278,0 1.92596,0 0.33987,0 1.3595,0 1.47279,0 0.45316,0 1.92596,0 0.33987,0 1.3595,0 1.2462,0 0.56646,0 1.47279,0 0.45316,0 1.92596,0 0.33987,0 1.3595,0 0,8.61014 -0.79304,0 -0.67975,0 -0.79304,0 -2.26583,0 -0.90633,0 -0.90633,0 -0.90633,0 -0.90633,0 -2.26583,0 -0.33987,0 -0.33988,0 -3.51203,0 -0.79304,0 -0.67975,0 -0.79304,0 -0.67975,0 -0.56646,0 -0.67974,0 -0.45317,0 -2.03924,0 -1.24621,0 -0.45316,0 -0.45317,0 -0.45317,0 -0.45316,0 -1.92596,0 -0.33987,0 -1.3595,0 0,-0.33987 0,-0.45317 0,-0.33987 0,-0.45317 0,-2.03924 0,-0.90633 0,-0.90633 0,-0.33988 0,-2.26583 0,-0.45316 0,-0.56646 0,-0.45317 0,-0.56645 0,-1.47279 0,-0.45317 0,-1.92595 0,-0.33987 0,-1.3595 0,-0.45317 0,-0.56645 0,-1.47279 0,-0.45317 0,-1.92595 0,-0.33987 0,-1.3595 0,-0.79304 0,-0.90633 0,-0.90633 0,-0.90633 0,-0.33988 0,-0.33987 0,-3.51204 0,-0.79303 0,-0.67975 0,-0.79304 0,-0.67975 0,-0.56646 0,-0.67975 0,-0.45316 0,-2.03925 0,-1.2462 0,-0.45317 0,-0.45316 0,-0.45317 0,-0.45316 0,-1.92596 0,-0.33987 0,-1.3595 z"
         id="path3742" />
      <path
         d="m 460.43827,360.43769 0.45317,0 2.03924,0 0.45317,0 0.45316,0 0.45317,0 1.92595,0 0.33988,0 1.35949,0 0,43.27731 -1.47279,0 -0.45316,0 -2.03925,0 -0.45316,0 -0.45317,0 -0.45316,0 -1.92596,0 -0.33987,0 -1.3595,0 0,-0.33987 0,-0.45317 0,-0.33987 0,-0.45317 0,-2.03924 0,-0.90633 0,-0.90633 0,-0.33988 0,-2.26583 0,-0.45316 0,-0.56646 0,-0.45316 0,-0.56646 0,-1.47279 0,-0.45316 0,-1.92596 0,-0.33987 0,-1.3595 0,-0.45316 0,-0.56646 0,-1.47279 0,-0.45316 0,-1.92596 0,-0.33987 0,-1.3595 0,-0.79304 0,-0.90633 0,-0.90633 0,-0.90633 0,-0.33988 0,-0.33987 0,-3.51203 0,-0.79304 0,-0.67975 0,-0.79304 0,-0.67975 0,-0.56646 0,-0.67975 0,-0.45316 0,-2.03925 0,-1.2462 0,-0.45317 0,-0.45316 0,-0.45317 0,-0.45316 0,-1.92596 0,-0.33987 0,-1.3595 z"
         id="path3744" />
    </g>
    <text
       xml:space="preserve"
       style="font-size:8px;font-style:normal;font-weight:normal;fill:#000000;fill-opacity:1;stroke:none;font-family:Transport Heavy;-inkscape-font-specification:Transport Heavy"
       x="403.75"
       y="574.86218"
       id="text3684"><tspan
         sodipodi:role="line"
         id="tspan3686"
         x="403.75"
         y="574.86218" /></text>
    <g
       transform="scale(1.0099805,0.99011817)"
       style="font-size:58.33839417px;font-style:normal;font-weight:normal;fill:#ffffff;fill-opacity:1;stroke:none;font-family:Transport Heavy;-inkscape-font-specification:Transport Heavy"
       id="text3713">
      <path
         d="m 405.83528,562.80782 0.34182,0 0.56971,0 0.34183,0 0.45577,0 0.34182,0 2.27885,0 0.79759,0 2.27885,0 0.79759,0 0.68365,0 0.56972,0 0.68365,0 0.45577,0 2.05096,0 1.25336,0 0.45577,0 0.45577,0 0.45577,0 0.45577,0 1.93701,0 0.91154,0 0.79759,0 0.34183,0.11394 0.34183,0 0.91154,0.11394 1.82307,0.45577 c 3.24732,1.42433 5.56414,3.55125 6.95047,6.38076 2.27881,5.3933 1.17737,9.68512 -3.30432,12.87547 3.22832,1.51926 5.20332,3.83608 5.92499,6.95047 1.29131,7.63414 -1.32936,12.87548 -7.86201,15.72402 l -0.34182,0 c -0.89258,0.4178 -1.72816,0.64568 -2.50673,0.68366 l -0.7976,0.22788 -0.34182,0 -2.84856,0.11394 -0.79759,0 -0.7976,0 -0.34182,0 -0.34183,0 -3.53221,0 -0.79759,0 -0.68366,0 -0.79759,0 -0.68366,0 -0.56971,0 -0.68365,0 -0.45577,0 -2.05096,0 -1.25336,0 -0.45577,0 -0.45577,0 -0.45577,0 -0.45577,0 -1.93701,0 -0.34183,0 -1.36731,0 0,-0.45577 0,-2.05096 0,-0.91153 0,-0.91154 0,-0.34183 0,-0.45577 0,-2.05095 0,-0.34183 0,-2.27884 0,-0.91154 0,-0.45577 0,-2.05096 0,-0.34183 0,-0.34182 0,-3.53221 0,-0.7976 0,-0.34182 0,-0.45577 0,-2.05096 0,-1.59519 0,-0.34183 0,-0.56971 0,-0.34182 0,-0.45577 0,-0.34183 0,-2.27884 0,-1.93702 0,-0.34183 0,-1.3673 0,-1.48125 0,-0.45577 0,-1.93702 0,-0.34182 0,-1.36731 0,-1.25336 0,-0.56971 0,-1.48125 0,-0.45577 0,-1.93702 0,-0.34182 0,-1.36731 z m 7.29229,17.54709 0.68366,0 0.56971,0 1.48125,0 0.45577,0 2.05095,0 1.59519,0 0.91154,0 0.34183,0 0.34183,0 0.34182,0 0.34183,0 1.3673,0 0.68366,-0.11394 c 2.5067,-1.27232 3.49419,-3.17135 2.96249,-5.69711 -0.4368,-1.1014 -1.08248,-1.97495 -1.93701,-2.62067 -0.39883,-0.1139 -0.74065,-0.26582 -1.02548,-0.45577 l -0.45577,-0.11394 -0.34183,0 -0.34182,0 c -0.36085,-0.0759 -0.66469,-0.1139 -0.91154,-0.11394 l -0.56971,0 -1.93702,0 -0.45577,0 -0.56971,0 -1.48125,0 -0.45577,0 -1.93701,0 -0.34183,0 -1.36731,0 z m 0,17.5471 1.93702,0 0.56971,0 0.34183,0 0.34183,0 1.48124,0 1.13943,0 0.34182,0 0.34183,0 1.13942,0 1.93702,0 c 1.00646,10e-6 1.84204,-0.076 2.50672,-0.22788 2.63963,-1.38629 3.77906,-3.43724 3.41827,-6.15288 -0.56974,-1.86104 -1.6332,-3.19036 -3.19038,-3.98798 -0.58873,-0.0949 -1.08248,-0.20887 -1.48125,-0.34183 l -1.93702,0 -0.45576,0 -0.45577,0 -0.34183,0 -2.05096,0 -1.48125,0 -0.45577,0 -1.93701,0 -0.34183,0 -1.36731,0 z"
         id="path3718" />
      <path
         d="m 459.3881,562.80782 1.48125,0 3.5322,0 1.59519,0 0.34183,0 0.56971,0 0.34183,0 0.45577,0 0.34182,0 2.27885,0 0,0.34183 c 0.3228,0.6837 0.55069,1.29139 0.68365,1.82307 l 0.22788,0.7976 0.11395,0.45576 c 0.0759,0.11399 0.11391,0.22793 0.11394,0.34183 0.0759,0.11399 0.11391,0.22793 0.11394,0.34183 0.0759,0.11399 0.11391,0.22793 0.11394,0.34182 0.18988,0.30389 0.30382,0.60774 0.34183,0.91154 l 0.68365,1.82308 0,0.34182 c 0.36079,0.70269 0.58867,1.34836 0.68366,1.93702 0.36078,0.83562 0.58866,1.55725 0.68365,2.1649 0.11391,0.22792 0.18987,0.45581 0.22788,0.68365 l 0.22789,0.45577 c 0.11391,0.37985 0.22785,0.68369 0.34182,0.91154 l 0,0.34183 c 0.0759,0.11397 0.11391,0.22792 0.11395,0.34182 0.18987,0.30388 0.30381,0.60773 0.34182,0.91154 l 0.68366,1.82308 0.11394,0.45576 0.11394,0.22789 0.22788,1.02548 0.22789,0.45577 0.22788,0.56971 0.11394,0.34182 0.11395,0.45577 0.22788,0.68366 c 0.11391,0.37983 0.22785,0.68368 0.34183,0.91153 l 0,0.34183 c 0.0759,0.11397 0.1139,0.22791 0.11394,0.34183 0.18987,0.30387 0.30381,0.60771 0.34183,0.91153 l 0.68365,1.82308 0.11394,0.68365 0.34183,0.68365 0.22788,0.68366 0,0.34182 0.22789,0.34183 0.11394,0.45577 0.11394,0.56971 c 0.58866,1.34834 0.96847,2.48776 1.13942,3.41827 0.0759,0.11395 0.11391,0.2279 0.11395,0.34182 0.58866,1.34833 0.96846,2.48775 1.13942,3.41827 l 0.22788,0.34182 0.11394,0.45577 0.11395,0.45577 0.11394,0.34183 0.11394,0.45577 c 0.0759,0.11395 0.1139,0.22789 0.11394,0.34182 0.0759,0.11396 0.1139,0.2279 0.11394,0.34183 0.0759,0.11395 0.11391,0.22789 0.11395,0.34183 l 0.22788,0.34182 0,0.34183 c 0.0759,0.11395 0.1139,0.22789 0.11394,0.34183 0.18987,0.30385 0.30381,0.6077 0.34183,0.91153 0.24683,0.56972 0.39876,1.02549 0.45577,1.36731 l 0.22788,0.68365 -0.68365,0 -0.45577,0 -2.05096,0 -1.25336,0 -0.45577,0 -0.45577,0 -0.45577,0 -0.45577,0 -1.93701,0 -0.34183,0 -1.36731,0 -0.22788,-0.68365 0,-0.45577 -0.22789,-0.34183 0,-0.34182 c -0.22791,-0.41778 -0.34185,-0.79759 -0.34182,-1.13942 l -0.22789,-0.34183 0,-0.34183 -0.11394,-0.45577 -0.34182,-0.79759 -0.7976,-2.84856 -2.05096,0 -2.27884,0 -0.7976,0 -0.68365,0 -0.56971,0 -0.68366,0 -0.45576,0 -2.05096,0 -1.25337,0 -0.45577,0 -0.45576,0 -0.45577,0 -0.45577,0 -1.93702,0 -0.34183,0 -1.3673,0 -0.11394,0.56972 -0.11395,0.56971 -0.22788,0.45577 c -0.095,0.41779 -0.20891,0.7976 -0.34183,1.13942 l -0.11394,0.56971 -0.11394,0.22788 -0.34183,1.13942 -0.11394,0.45577 -0.11394,0.34183 c -0.13295,0.3988 -0.24689,0.70265 -0.34183,0.91154 l -0.34182,1.3673 -0.45577,0 -0.45577,0 -0.34183,0 -2.27884,0 -0.34183,0 -2.05096,0 -0.34182,0 -3.53221,0 0.22788,-0.91153 0.34183,-1.13943 0.11394,-0.34182 0.11394,-0.34183 0.11395,-0.34183 0.11394,-0.22788 0.56971,-1.82308 0.11394,-0.34182 0.11394,-0.34183 0.11395,-0.45577 0.22788,-0.45577 0.34183,-1.25336 0.11394,-0.34183 0.11394,-0.34182 0.11394,-0.34183 0.11394,-0.22788 c 0.22788,-0.87354 0.45577,-1.5572 0.68366,-2.05096 l 0.22788,-0.7976 0.11394,-0.22788 c 0.22788,-0.87354 0.45577,-1.55719 0.68366,-2.05096 0.0949,-0.37979 0.20888,-0.68363 0.34182,-0.91154 l 0.22789,-0.91154 0.34182,-0.79759 0.22789,-0.91154 0.11394,-0.22788 c 0.22788,-0.87353 0.45576,-1.55719 0.68365,-2.05096 l 0.22789,-0.91154 0.91154,-2.50673 0.22788,-0.79759 0.11394,-0.34183 0.11394,-0.34183 c 0.22788,-0.7216 0.45576,-1.32929 0.68366,-1.82307 l 0.22788,-0.68365 0.11394,-0.34183 0,-0.34183 0.11395,-0.34182 0.79759,-2.05096 0.11394,-0.68366 0.22789,-0.56971 0.22788,-0.45577 c 0.15191,-0.72159 0.34182,-1.32928 0.56971,-1.82307 l 0.11395,-0.56971 0.11394,-0.34183 0.11394,-0.22788 c 0.22787,-0.87352 0.45575,-1.55717 0.68365,-2.05096 l 0.11395,-0.45577 0.11394,-0.45577 c 0.20888,-0.43673 0.3608,-0.85452 0.45577,-1.25336 l 0.34182,-1.13942 0.11394,-0.34183 0.91154,-2.62067 z m 4.89951,10.02691 -0.34183,1.25336 -0.11394,0.22789 -0.56971,2.05096 -0.68365,1.93702 -0.11394,0.22788 -0.68366,2.50673 -0.11394,0.45577 -0.68365,1.93701 -0.22789,0.56971 c -0.076,0.60772 -0.2279,1.13945 -0.45577,1.59519 -0.057,0.43681 -0.17093,0.8546 -0.34182,1.25337 l -0.11394,0.45577 c -0.15194,0.45579 -0.30387,0.8356 -0.45577,1.13942 l -0.68366,2.50673 0.34183,0 0.45577,0 0.45577,0 0.45577,0 0.45577,0 1.93701,0 0.34183,0 1.36731,0 0.45576,0 1.25337,0 0.56971,0 0.34183,0 0.45576,0 0.34183,0 2.27884,0 -0.22788,-0.91154 -0.68365,-2.1649 -0.56971,-1.93702 c -0.28489,-0.72161 -0.47479,-1.3293 -0.56972,-1.82307 l -0.11394,-0.22789 c -0.15195,-0.55069 -0.30387,-1.00646 -0.45577,-1.3673 l -0.11394,-0.45577 -0.11394,-0.45577 -0.22788,-0.56971 -0.11395,-0.68366 -0.11394,-0.45576 -0.22788,-0.34183 -0.11395,-0.68365 -0.11394,-0.45577 c -0.11396,-0.22785 -0.18993,-0.45574 -0.22788,-0.68366 l -0.11394,-0.45576 c -0.28488,-0.56968 -0.47479,-1.10141 -0.56972,-1.59519 l -0.11394,-0.34183 -0.11394,-0.22789 -0.22788,-1.02548 -0.11395,-0.34182 -0.56971,-1.48125 z"
         id="path3720" />
      <path
         d="m 494.02652,562.69388 0.91154,0 2.27884,0 0.34183,0 0.34182,0 3.53221,0 0.79759,0 0.34183,0 1.48125,0 1.93702,0 0.45577,0 0.45576,0 2.05096,0 1.59519,0 0.34183,0 0.34183,0 0.34182,0 0.7976,0 0.45577,0 0.34182,0 0.34183,0 c 0.55069,0.095 1.00646,0.13298 1.36731,0.11394 l 1.3673,0.22788 0.22789,0.11395 0.34182,0 0.22789,0.11394 1.70913,0.56971 c 3.49419,1.84211 5.81101,4.38682 6.95047,7.63412 2.24082,8.01397 -0.37984,13.74905 -7.86201,17.20527 l 0.22789,0.11395 c 0.36078,0.74064 0.70261,1.34833 1.02548,1.82307 l 0.34182,0.68365 c 0.15189,0.2469 0.26583,0.47478 0.34183,0.68366 l 0.45577,0.68365 c 0.45573,0.68367 0.79756,1.29136 1.02548,1.82307 0.45573,0.56973 0.75958,1.10146 0.91154,1.59519 0.47472,0.60771 0.81654,1.13944 1.02548,1.5952 0.26582,0.43679 0.45573,0.81659 0.56971,1.13942 l 0.22788,0.34182 0.22788,0.45577 0.34183,0.34183 0.7976,1.48125 c 0.24683,0.39881 0.43674,0.74063 0.56971,1.02548 l 0.22788,0.34182 0.11394,0.22789 0.22789,0.22788 0.11394,0.34183 c 0.7026,1.04448 1.19635,1.95601 1.48125,2.73461 l -0.7976,0 -1.59519,0 -0.34182,0 -2.05096,0 -1.48125,0 -0.45577,0 -1.93702,0 -0.34182,0 -1.36731,0 -0.11394,-0.22788 -0.22789,-0.22789 -0.11394,-0.22788 -0.79759,-1.36731 -0.11395,-0.34183 c -0.36084,-0.43676 -0.58873,-0.85455 -0.68365,-1.25336 -0.4558,-0.47475 -0.75964,-0.9685 -0.91154,-1.48125 -0.45579,-0.5697 -0.75964,-1.10143 -0.91153,-1.59519 l -0.34183,-0.45577 -0.34183,-0.68365 -0.22788,-0.45577 c -0.47479,-0.56969 -0.81661,-1.06344 -1.02548,-1.48125 -0.26589,-0.58868 -0.53176,-1.08243 -0.7976,-1.48124 l -0.11394,-0.34183 c -0.4368,-0.47474 -0.74065,-0.96849 -0.91154,-1.48125 l -0.22788,-0.34183 -0.11394,-0.34182 -0.22789,-0.11394 -0.34182,-0.7976 c -0.095,-0.0759 -0.13296,-0.1519 -0.11394,-0.22788 -0.56974,-0.74061 -0.98753,-1.42426 -1.25337,-2.05096 l -0.45577,0 -1.25336,0 -0.56971,0 -0.34183,0 -0.45577,0 -0.34182,0 -2.27885,0 0,16.97738 -1.48125,0 -0.45576,0 -2.05096,0 -0.45577,0 -0.45577,0 -0.45577,0 -1.93702,0 -0.34182,0 -1.36731,0 0,-0.45577 0,-2.05096 0,-0.91153 0,-0.91154 0,-0.34183 0,-0.45577 0,-2.05096 0,-0.34182 0,-2.27885 0,-0.91153 0,-0.45577 0,-2.05096 0,-0.34183 0,-0.34182 0,-3.53221 0,-0.7976 0,-0.34182 0,-0.45577 0,-2.05096 0,-1.59519 0,-0.34183 0,-0.56971 0,-0.34183 0,-0.45577 0,-0.34182 0,-2.27885 0,-1.93701 0,-0.34183 0,-1.3673 0,-1.48125 0,-0.45577 0,-1.93702 0,-0.34183 0,-1.3673 0,-1.25337 0,-0.56971 0,-1.48124 0,-0.45577 0,-1.93702 0,-0.34183 0,-1.3673 z m 8.08989,18.45863 0.56971,0 0.7976,0 1.59519,0 0.34183,0 2.05095,0 1.48125,0 0.45577,0 1.93702,0 0.34183,0 1.3673,0 1.36731,-0.34183 c 2.25982,-1.40525 3.24732,-3.30429 2.96249,-5.69711 -0.55075,-1.70909 -1.53824,-2.96245 -2.96249,-3.76009 l -0.34183,0 -0.22788,-0.11394 -1.48125,-0.34183 -0.56971,0 -1.59519,0 -0.56971,0 -0.45577,0 -2.05096,0 -0.45577,0 -0.45577,0 -0.45577,0 -1.93701,0 -0.34183,0 -1.36731,0 z"
         id="path3722" />
      <path
         d="m 540.28705,562.92176 0.45577,0 2.05096,0 0.45576,0 0.45577,0 0.45577,0 1.93702,0 0.34183,0 1.3673,0 0,43.52591 -1.48125,0 -0.45577,0 -2.05095,0 -0.45577,0 -0.45577,0 -0.45577,0 -1.93702,0 -0.34182,0 -1.36731,0 0,-0.34182 0,-0.45577 0,-0.34183 0,-0.45577 0,-2.05096 0,-0.91153 0,-0.91154 0,-0.34183 0,-2.27884 0,-0.45577 0,-0.56971 0,-0.45577 0,-0.56971 0,-1.48125 0,-0.45577 0,-1.93701 0,-0.34183 0,-1.36731 0,-0.45577 0,-0.56971 0,-1.48125 0,-0.45576 0,-1.93702 0,-0.34183 0,-1.3673 0,-0.7976 0,-0.91154 0,-0.91153 0,-0.91154 0,-0.34183 0,-0.34182 0,-3.53221 0,-0.7976 0,-0.68365 0,-0.7976 0,-0.68365 0,-0.56971 0,-0.68365 0,-0.45577 0,-2.05096 0,-1.25336 0,-0.45577 0,-0.45577 0,-0.45577 0,-0.45577 0,-1.93702 0,-0.34182 0,-1.36731 z"
         id="path3724" />
    </g>
  </g>
</svg>
