<?xml version="1.0" encoding="UTF-8" standalone="no"?>
<!-- Created with Inkscape (http://www.inkscape.org/) -->

<svg
   xmlns:dc="http://purl.org/dc/elements/1.1/"
   xmlns:cc="http://creativecommons.org/ns#"
   xmlns:rdf="http://www.w3.org/1999/02/22-rdf-syntax-ns#"
   xmlns:svg="http://www.w3.org/2000/svg"
   xmlns="http://www.w3.org/2000/svg"
   xmlns:sodipodi="http://sodipodi.sourceforge.net/DTD/sodipodi-0.dtd"
   xmlns:inkscape="http://www.inkscape.org/namespaces/inkscape"
   width="385.78549"
   height="388.77475"
   id="svg4906"
   version="1.1"
   inkscape:version="0.48.2 r9819"
   sodipodi:docname="AJAX.svg">
  <defs
     id="defs4908">
    <inkscape:perspective
       sodipodi:type="inkscape:persp3d"
       inkscape:vp_x="0 : 526.18109 : 1"
       inkscape:vp_y="0 : 1000 : 0"
       inkscape:vp_z="744.09448 : 526.18109 : 1"
       inkscape:persp3d-origin="372.04724 : 350.78739 : 1"
       id="perspective4914" />
    <inkscape:perspective
       id="perspective4842"
       inkscape:persp3d-origin="0.5 : 0.33333333 : 1"
       inkscape:vp_z="1 : 0.5 : 1"
       inkscape:vp_y="0 : 1000 : 0"
       inkscape:vp_x="0 : 0.5 : 1"
       sodipodi:type="inkscape:persp3d" />
  </defs>
  <sodipodi:namedview
     id="base"
     pagecolor="#ffffff"
     bordercolor="#666666"
     borderopacity="1.0"
     inkscape:pageopacity="0.0"
     inkscape:pageshadow="2"
     inkscape:zoom="1.4097936"
     inkscape:cx="107.4682"
     inkscape:cy="185.90327"
     inkscape:document-units="px"
     inkscape:current-layer="layer1"
     showgrid="false"
     inkscape:window-width="1280"
     inkscape:window-height="1004"
     inkscape:window-x="-8"
     inkscape:window-y="-8"
     inkscape:window-maximized="1"
     fit-margin-top="0"
     fit-margin-left="0"
     fit-margin-right="0"
     fit-margin-bottom="0" />
  <metadata
     id="metadata4911">
    <rdf:RDF>
      <cc:Work
         rdf:about="">
        <dc:format>image/svg+xml</dc:format>
        <dc:type
           rdf:resource="http://purl.org/dc/dcmitype/StillImage" />
      </cc:Work>
    </rdf:RDF>
  </metadata>
  <g
     inkscape:label="Livello 1"
     inkscape:groupmode="layer"
     id="layer1"
     transform="translate(-6.9541929,-176.88636)">
    <rect
       style="fill:#ffffff;fill-opacity:1;stroke:none"
       id="rect6967"
       width="493.20551"
       height="448.91278"
       x="-38.307224"
       y="-20.081053"
       transform="translate(0.09934208,174.15394)" />
    <path
       d="m 0.44208503,174.15394 398.98083497,0 0,0.45698 -398.98083497,0 0,-0.45698 z m 398.98083497,0 0.34274,0 0,0.22926 -0.34274,0 0,-0.22926 z m -0.34274,0.22849 0.68548,0 0,393.65884 -0.68548,0 0,-393.65884 z m 0.68548,0 z m -0.34274,393.65884 0.34274,0 0,0.22849 -0.34274,0 0,-0.22849 z m 0.34274,0 z m -0.34274,0.22849 -398.98083497,0 0,-0.457 398.98083497,0 0,0.457 z m -398.98083497,0 -0.34274295,0 0,-0.22849 0.34274295,0 0,0.22849 z m 0.34274178,-0.22849 -0.68548473,0 0,-393.65884 0.68548473,0 0,393.65884 z m -0.68548473,0 z m 0,-393.65884 0,-0.22849 0.34274295,0 0,0.22849"
       style="fill:none;stroke:none"
       id="path4596"
       inkscape:connector-curvature="0" />
    <path
       d="m 28.499369,176.88636 342.752021,0 0,2.56112 -342.752021,0 0,-2.56112 z m 342.752021,0 c 5.96943,0 11.37715,1.91365 15.27109,4.98881 l -2.88475,1.6661 c -3.18942,-2.52296 -7.58794,-4.09386 -12.38634,-4.09386 l 0,-2.56105 z m 15.27109,4.98881 c 3.83681,3.02756 6.21697,7.19759 6.21697,11.75797 l -3.80826,0 c 0,-3.94154 -2.02789,-7.51178 -5.29346,-10.09187 l 2.88475,-1.6661 z m 2.40871,11.75797 3.80848,0 0,355.31927 -3.80848,0 0,-355.31927 z m 3.80826,0 z m 0,355.31927 c 0,4.56038 -2.38016,8.71137 -6.20746,11.7294 l -2.88474,-1.6661 c 3.25605,-2.57057 5.28394,-6.13128 5.28394,-10.0633 l 3.80826,0 z m -6.20746,11.7294 c -3.89392,3.07518 -9.31117,4.9793 -15.2806,4.9793 l 0,-2.56105 c 4.80792,0 9.19692,-1.56138 12.39586,-4.08435 l 2.88474,1.6661 z m -15.2806,4.9793 -342.752021,0 0,-2.56059 342.752021,0 0,2.56059 z m -342.752021,0 c -5.997994,0 -11.415231,-1.90412 -15.328208,-4.96977 l 2.884749,-1.66611 c 3.208451,2.51345 7.60698,4.07483 12.443459,4.07483 l 0,2.56105 z M 13.171161,560.69134 C 9.3343493,557.67331 6.9541929,553.51279 6.9541929,548.95241 l 3.8082501,0 c 0,3.93202 2.027893,7.50225 5.293467,10.07282 l -2.884749,1.66611 z m -2.408718,-11.73893 -3.8081593,0 0,-355.31927 3.8081593,0 0,355.31927 z m -3.8082501,0 z m 0,-355.31927 c 0,-4.56038 2.3801564,-8.73041 6.2264881,-11.75797 l 2.88475,1.6661 c -3.275095,2.57058 -5.302988,6.15033 -5.302988,10.09187 l -3.8082501,0 z m 6.2264881,-11.75797 c 3.903457,-3.07516 9.320694,-4.98881 15.318688,-4.98881 l 0,2.56105 c -4.826958,0 -9.235008,1.5709 -12.433938,4.09386"
       style="fill:#000000;fill-opacity:1;fill-rule:nonzero;stroke:none"
       id="path4598"
       inkscape:connector-curvature="0" />
    <g
       id="g4600"
       transform="matrix(9.5206257,0,0,-9.5206257,118.24079,204.24863)" />
    <g
       id="g4604"
       transform="matrix(9.5206257,0,0,-9.5206257,118.24079,204.15343)">
      <path
         d="M 0,0 C 2.262,0 4.318,-0.925 5.809,-2.415 L 5.794,-2.429 C 4.308,-0.943 2.257,-0.02 0,-0.02 L 0,0 z m 5.809,-2.415 c 1.49,-1.49 2.415,-3.546 2.415,-5.808 l -0.021,0 c 0,2.256 -0.923,4.308 -2.409,5.794 l 0.015,0.014 z m 2.415,-5.808 c 0,-2.262 -0.925,-4.319 -2.415,-5.808 l -0.015,0.014 c 1.486,1.486 2.409,3.537 2.409,5.794 l 0.021,0 z M 5.809,-14.031 C 4.318,-15.522 2.262,-16.447 0,-16.447 l 0,0.021 c 2.257,0 4.308,0.922 5.794,2.409 l 0.015,-0.014 z M 0,-16.447 c -2.262,0 -4.318,0.925 -5.808,2.416 l 0.014,0.014 c 1.486,-1.487 3.537,-2.409 5.794,-2.409 l 0,-0.021 z m -5.808,2.416 c -1.49,1.489 -2.415,3.546 -2.415,5.808 l 0.02,0 c 0,-2.257 0.923,-4.308 2.409,-5.794 l -0.014,-0.014 z m -2.415,5.808 c 0,2.262 0.925,4.318 2.415,5.808 l 0.014,-0.014 C -7.28,-3.915 -8.203,-5.967 -8.203,-8.223 l -0.02,0 z m 2.415,5.808 C -4.318,-0.925 -2.262,0 0,0 l 0,-0.02 c -2.257,0 -4.308,-0.923 -5.794,-2.409"
         style="fill:none;stroke:none"
         id="path4606"
         inkscape:connector-curvature="0" />
    </g>
    <g
       id="g4608"
       transform="matrix(9.5206257,0,0,-9.5206257,118.24079,206.85728)">
      <path
         d="m 0,0 c 4.371,0 7.94,-3.569 7.94,-7.94 0,-4.37 -3.569,-7.939 -7.94,-7.939 -4.371,0 -7.94,3.569 -7.94,7.939 C -7.94,-3.569 -4.371,0 0,0"
         style="fill:#d40000;fill-opacity:1;fill-rule:evenodd;stroke:none"
         id="path4610"
         inkscape:connector-curvature="0" />
    </g>
    <g
       id="g4612"
       transform="matrix(9.5206257,0,0,-9.5206257,118.24079,206.75256)">
      <path
         d="M 0,0 C 2.188,0 4.176,-0.893 5.616,-2.334 L 5.602,-2.348 C 4.165,-0.912 2.183,-0.02 0,-0.02 L 0,0 z M 5.616,-2.334 C 7.056,-3.774 7.95,-5.762 7.95,-7.95 l -0.02,0 c 0,2.183 -0.892,4.166 -2.328,5.602 l 0.014,0.014 z M 7.95,-7.95 c 0,-2.188 -0.894,-4.175 -2.334,-5.616 l -0.014,0.014 c 1.436,1.437 2.328,3.419 2.328,5.602 l 0.02,0 z M 5.616,-13.566 C 4.176,-15.006 2.188,-15.9 0,-15.9 l 0,0.021 c 2.183,0 4.165,0.891 5.602,2.327 l 0.014,-0.014 z M 0,-15.9 c -2.188,0 -4.176,0.894 -5.616,2.334 l 0.014,0.014 c 1.437,-1.436 3.42,-2.327 5.602,-2.327 L 0,-15.9 z m -5.616,2.334 c -1.44,1.441 -2.334,3.428 -2.334,5.616 l 0.021,0 c 0,-2.183 0.891,-4.165 2.327,-5.602 l -0.014,-0.014 z M -7.95,-7.95 c 0,2.188 0.894,4.176 2.334,5.616 l 0.014,-0.014 C -7.038,-3.784 -7.929,-5.767 -7.929,-7.95 l -0.021,0 z m 2.334,5.616 C -4.176,-0.894 -2.188,0 0,0 l 0,-0.02 c -2.182,0 -4.165,-0.892 -5.602,-2.328"
         style="fill:none;stroke:none"
         id="path4614"
         inkscape:connector-curvature="0" />
    </g>
    <g
       id="g4616"
       transform="matrix(9.5206257,0,0,-9.5206257,82.814536,238.93228)">
      <path
         d="M 0,0 8.292,-8.273 C 10.405,-5.4 9.733,-2.234 7.87,-0.375 6.007,1.479 2.623,2.077 0,0"
         style="fill:#ffffff;fill-opacity:1;fill-rule:evenodd;stroke:none"
         id="path4618"
         inkscape:connector-curvature="0" />
    </g>
    <g
       id="g4620"
       transform="matrix(9.5206257,0,0,-9.5206257,82.881177,238.86564)" />
    <g
       id="g4624"
       transform="matrix(9.5206257,0,0,-9.5206257,89.736036,239.28453)">
      <path
         d="m 0,0 7.522,-7.541 c 1.516,2.433 1.071,5.159 -0.63,6.855 C 5.196,1.01 2.248,1.576 0,0"
         style="fill:#00408b;fill-opacity:1;fill-rule:evenodd;stroke:none"
         id="path4626"
         inkscape:connector-curvature="0" />
    </g>
    <g
       id="g4628"
       transform="matrix(9.5206257,0,0,-9.5206257,89.802677,239.21789)" />
    <g
       id="g4632"
       transform="matrix(9.5206257,0,0,-9.5206257,74.693442,247.13905)">
      <path
         d="M 0,0 8.278,-8.292 C 5.404,-10.405 2.238,-9.733 0.38,-7.87 -1.479,-6.007 -2.076,-2.624 0,0"
         style="fill:#ffffff;fill-opacity:1;fill-rule:evenodd;stroke:none"
         id="path4634"
         inkscape:connector-curvature="0" />
    </g>
    <g
       id="g4636"
       transform="matrix(9.5206257,0,0,-9.5206257,74.760094,247.07241)" />
    <g
       id="g4640"
       transform="matrix(9.5206257,0,0,-9.5206257,74.998101,254.07007)">
      <path
         d="M 0,0 7.541,-7.523 C 5.108,-9.038 2.383,-8.593 0.686,-6.892 -1.01,-5.196 -1.576,-2.248 0,0"
         style="fill:#00408b;fill-opacity:1;fill-rule:evenodd;stroke:none"
         id="path4642"
         inkscape:connector-curvature="0" />
    </g>
    <g
       id="g4644"
       transform="matrix(9.5206257,0,0,-9.5206257,75.064753,254.00343)" />
    <g
       id="g4648"
       transform="matrix(9.5206257,0,0,-9.5206257,189.78827,397.28885)"
       style="stroke:none">
      <path
         d="m 0,0 0,-14.138 c 0,-0.38 -0.31,-0.689 -0.689,-0.689 l -14.139,0 c -0.379,0 -0.689,0.309 -0.689,0.689 l 0,14.138 c 0,0.379 0.31,0.689 0.689,0.689 l 14.139,0 C -0.31,0.689 0,0.379 0,0 z m -9.507,-13.234 -2.223,0 0,12.33 5.051,0 c 1.44,0 2.507,-0.364 3.203,-1.088 0.694,-0.725 1.043,-1.582 1.043,-2.569 0,-1.128 -0.377,-2.041 -1.129,-2.738 -0.752,-0.7 -1.708,-1.048 -2.865,-1.048 l -3.08,0 0,-4.887 z m 0,6.792 2.63,0 c 0.685,0 1.209,0.17 1.57,0.506 0.364,0.339 0.543,0.786 0.543,1.347 0,0.506 -0.167,0.938 -0.5,1.302 -0.336,0.361 -0.94,0.539 -1.813,0.539 l -2.43,0"
         style="fill:#00408b;fill-opacity:1;fill-rule:evenodd;stroke:none"
         id="path4650"
         inkscape:connector-curvature="0" />
    </g>
    <g
       transform="scale(0.92343777,1.08291)"
       style="font-size:105.50046539px;fill:#000000;fill-opacity:1;stroke:none"
       id="text4652">
      <path
         d="m 271.02442,225.29516 0,-4.60686 16.96243,0 0,3.60076 c -1.40032,1.37679 -2.82415,3.35367 -4.2715,5.93067 -1.44738,2.57703 -2.55055,5.31585 -3.30953,8.21645 -0.75899,2.90063 -1.1326,5.49235 -1.12082,7.77518 l -4.78337,0 c 0.0824,-3.57722 0.82076,-7.22505 2.21518,-10.9435 1.3944,-3.71842 3.25656,-7.04265 5.58648,-9.9727 z"
         style="font-size:36.1488533px;font-variant:normal;font-weight:bold;writing-mode:lr-tb;fill:#000000;fill-opacity:1;fill-rule:nonzero;stroke:none;font-family:Arial;-inkscape-font-specification:Arial-BoldMT"
         id="path15296"
         inkscape:connector-curvature="0" />
    </g>
    <g
       transform="scale(0.92344408,1.0829026)"
       style="font-size:105.50118256px;fill:#000000;fill-opacity:1;stroke:none"
       id="text4656">
      <path
         d="m 291.46617,242.44801 3.76508,0 0,2.69317 c 0,1.08977 -0.0938,1.94953 -0.28138,2.57928 -0.18758,0.62974 -0.54265,1.19473 -1.0652,1.69496 -0.52256,0.50022 -1.18581,0.89325 -1.98973,1.1791 l -0.73694,-1.55427 c 0.75926,-0.25012 1.29968,-0.59402 1.62126,-1.03171 0.32157,-0.4377 0.49129,-1.03618 0.50916,-1.79545 l -1.82225,0 z"
         style="font-size:27.44085884px;font-variant:normal;font-weight:bold;writing-mode:lr-tb;fill:#000000;fill-opacity:1;fill-rule:nonzero;stroke:none;font-family:Arial;-inkscape-font-specification:Arial-BoldMT"
         id="path15289"
         inkscape:connector-curvature="0" />
      <path
         d="m 304.749,226.48997 c 1.90263,2e-5 3.3899,0.6789 4.46182,2.03663 1.27734,1.60788 1.91602,4.27425 1.91603,7.99912 -10e-6,3.71595 -0.64315,6.38679 -1.92943,8.01251 -1.06299,1.33989 -2.54579,2.00983 -4.44842,2.00983 -1.91158,0 -3.45244,-0.7347 -4.62261,-2.20411 -1.17017,-1.46941 -1.75525,-4.08888 -1.75525,-7.85843 0,-3.69807 0.64315,-6.35998 1.92944,-7.98572 1.06297,-1.33987 2.54578,-2.00981 4.44842,-2.00983 z m 0,3.12194 c -0.45557,1e-5 -0.862,0.14517 -1.2193,0.43546 -0.35731,0.29032 -0.63422,0.81064 -0.83073,1.56097 -0.25905,0.97366 -0.38857,2.61278 -0.38856,4.91738 -10e-6,2.30461 0.11612,3.8879 0.34837,4.74989 0.23224,0.862 0.52478,1.43591 0.87762,1.72175 0.35283,0.28585 0.75703,0.42877 1.2126,0.42877 0.45555,0 0.86198,-0.14515 1.2193,-0.43547 0.35729,-0.2903 0.6342,-0.81062 0.83072,-1.56096 0.25904,-0.96471 0.38856,-2.59937 0.38857,-4.90398 -10e-6,-2.3046 -0.11613,-3.88789 -0.34837,-4.7499 -0.23226,-0.86198 -0.5248,-1.43813 -0.87762,-1.72845 -0.35285,-0.29029 -0.75705,-0.43545 -1.2126,-0.43546 z"
         style="font-size:27.44085884px;font-variant:normal;font-weight:bold;writing-mode:lr-tb;fill:#000000;fill-opacity:1;fill-rule:nonzero;stroke:none;font-family:Arial;-inkscape-font-specification:Arial-BoldMT"
         id="path15291"
         inkscape:connector-curvature="0" />
      <path
         d="m 320.00608,226.48997 c 1.90263,2e-5 3.3899,0.6789 4.46182,2.03663 1.27734,1.60788 1.91602,4.27425 1.91604,7.99912 -2e-5,3.71595 -0.64316,6.38679 -1.92944,8.01251 -1.06299,1.33989 -2.54579,2.00983 -4.44842,2.00983 -1.91158,0 -3.45244,-0.7347 -4.62261,-2.20411 -1.17017,-1.46941 -1.75525,-4.08888 -1.75525,-7.85843 0,-3.69807 0.64315,-6.35998 1.92944,-7.98572 1.06297,-1.33987 2.54578,-2.00981 4.44842,-2.00983 z m 0,3.12194 c -0.45557,1e-5 -0.862,0.14517 -1.2193,0.43546 -0.35731,0.29032 -0.63422,0.81064 -0.83073,1.56097 -0.25905,0.97366 -0.38857,2.61278 -0.38856,4.91738 -1e-5,2.30461 0.11612,3.8879 0.34837,4.74989 0.23224,0.862 0.52478,1.43591 0.87762,1.72175 0.35283,0.28585 0.75703,0.42877 1.2126,0.42877 0.45555,0 0.86198,-0.14515 1.2193,-0.43547 0.35729,-0.2903 0.6342,-0.81062 0.83072,-1.56096 0.25904,-0.96471 0.38856,-2.59937 0.38857,-4.90398 -10e-6,-2.3046 -0.11613,-3.88789 -0.34837,-4.7499 -0.23226,-0.86198 -0.5248,-1.43813 -0.87762,-1.72845 -0.35285,-0.29029 -0.75705,-0.43545 -1.2126,-0.43546 z"
         style="font-size:27.44085884px;font-variant:normal;font-weight:bold;writing-mode:lr-tb;fill:#000000;fill-opacity:1;fill-rule:nonzero;stroke:none;font-family:Arial;-inkscape-font-specification:Arial-BoldMT"
         id="path15293"
         inkscape:connector-curvature="0" />
    </g>
    <g
       transform="scale(0.92343777,1.08291)"
       style="font-size:105.50046539px;fill:#000000;fill-opacity:1;stroke:none"
       id="text4660">
      <path
         d="m 329.75863,239.3099 0,-4.95988 9.74325,0 0,4.95988 z"
         style="font-size:36.1488533px;font-variant:normal;font-weight:bold;writing-mode:lr-tb;fill:#000000;fill-opacity:1;fill-rule:nonzero;stroke:none;font-family:Arial;-inkscape-font-specification:Arial-BoldMT"
         id="path15284"
         inkscape:connector-curvature="0" />
      <path
         d="m 341.40791,240.22774 4.80102,-0.52952 c 0.11767,0.97668 0.42362,1.70036 0.91784,2.17105 0.49422,0.47069 1.1473,0.70603 1.95924,0.70603 1.02374,0 1.89451,-0.47069 2.61232,-1.41207 0.71779,-0.94137 1.17671,-2.89472 1.37677,-5.86006 -1.24734,1.44737 -2.80649,2.17105 -4.67747,2.17105 -2.03573,0 -3.79198,-0.78546 -5.26876,-2.35639 -1.47679,-1.57091 -2.21518,-3.61546 -2.21518,-6.13365 0,-2.62407 0.77958,-4.73922 2.33873,-6.34547 1.55915,-1.6062 3.54487,-2.40931 5.95715,-2.40933 2.62407,2e-5 4.77747,1.01494 6.4602,3.04476 1.68269,2.02986 2.52404,5.36881 2.52406,10.01683 -2e-5,4.73043 -0.87667,8.14291 -2.62997,10.23747 -1.75333,2.09457 -4.03616,3.14185 -6.84851,3.14185 -2.02397,0 -3.65961,-0.53835 -4.90693,-1.61505 -1.24732,-1.0767 -2.04749,-2.68586 -2.40051,-4.8275 z m 11.22592,-10.83759 c -2e-5,-1.60033 -0.36774,-2.84176 -1.10318,-3.72432 -0.73546,-0.88252 -1.58564,-1.32379 -2.55054,-1.32382 -0.91785,3e-5 -1.67978,0.36187 -2.28578,1.08553 -0.60602,0.7237 -0.90902,1.90925 -0.90902,3.55664 0,1.67096 0.32948,2.89769 0.98845,3.68019 0.65895,0.78253 1.48266,1.17379 2.47111,1.17378 0.95313,10e-6 1.75625,-0.37654 2.40934,-1.12965 0.65306,-0.75309 0.9796,-1.85921 0.97962,-3.31835 z"
         style="font-size:36.1488533px;font-variant:normal;font-weight:bold;writing-mode:lr-tb;fill:#000000;fill-opacity:1;fill-rule:nonzero;stroke:none;font-family:Arial;-inkscape-font-specification:Arial-BoldMT"
         id="path15286"
         inkscape:connector-curvature="0" />
    </g>
    <g
       transform="scale(0.92344408,1.0829026)"
       style="font-size:105.50118256px;fill:#000000;fill-opacity:1;stroke:none"
       id="text4664">
      <path
         d="m 361.73946,242.44801 3.76508,0 0,2.69317 c -1e-5,1.08977 -0.0938,1.94953 -0.28138,2.57928 -0.18759,0.62974 -0.54266,1.19473 -1.06521,1.69496 -0.52256,0.50022 -1.1858,0.89325 -1.98973,1.1791 l -0.73694,-1.55427 c 0.75927,-0.25012 1.29969,-0.59402 1.62126,-1.03171 0.32157,-0.4377 0.49129,-1.03618 0.50916,-1.79545 l -1.82224,0 z"
         style="font-size:27.44085884px;font-variant:normal;font-weight:bold;writing-mode:lr-tb;fill:#000000;fill-opacity:1;fill-rule:nonzero;stroke:none;font-family:Arial;-inkscape-font-specification:Arial-BoldMT"
         id="path15277"
         inkscape:connector-curvature="0" />
      <path
         d="m 375.02235,226.48997 c 1.90262,2e-5 3.38989,0.6789 4.46181,2.03663 1.27735,1.60788 1.91603,4.27425 1.91604,7.99912 -10e-6,3.71595 -0.64316,6.38679 -1.92943,8.01251 -1.06299,1.33989 -2.5458,2.00983 -4.44842,2.00983 -1.91158,0 -3.45245,-0.7347 -4.62261,-2.20411 -1.17017,-1.46941 -1.75525,-4.08888 -1.75525,-7.85843 0,-3.69807 0.64314,-6.35998 1.92943,-7.98572 1.06298,-1.33987 2.54578,-2.00981 4.44843,-2.00983 z m 0,3.12194 c -0.45557,1e-5 -0.862,0.14517 -1.2193,0.43546 -0.35731,0.29032 -0.63422,0.81064 -0.83073,1.56097 -0.25905,0.97366 -0.38857,2.61278 -0.38857,4.91738 0,2.30461 0.11612,3.8879 0.34837,4.74989 0.23224,0.862 0.52479,1.43591 0.87763,1.72175 0.35283,0.28585 0.75703,0.42877 1.2126,0.42877 0.45555,0 0.86198,-0.14515 1.21929,-0.43547 0.35729,-0.2903 0.6342,-0.81062 0.83073,-1.56096 0.25903,-0.96471 0.38856,-2.59937 0.38857,-4.90398 -10e-6,-2.3046 -0.11614,-3.88789 -0.34837,-4.7499 -0.23226,-0.86198 -0.5248,-1.43813 -0.87763,-1.72845 -0.35284,-0.29029 -0.75704,-0.43545 -1.21259,-0.43546 z"
         style="font-size:27.44085884px;font-variant:normal;font-weight:bold;writing-mode:lr-tb;fill:#000000;fill-opacity:1;fill-rule:nonzero;stroke:none;font-family:Arial;-inkscape-font-specification:Arial-BoldMT"
         id="path15279"
         inkscape:connector-curvature="0" />
      <path
         d="m 390.27939,226.48997 c 1.90263,2e-5 3.3899,0.6789 4.46182,2.03663 1.27735,1.60788 1.91603,4.27425 1.91604,7.99912 -10e-6,3.71595 -0.64316,6.38679 -1.92943,8.01251 -1.06299,1.33989 -2.5458,2.00983 -4.44843,2.00983 -1.91157,0 -3.45244,-0.7347 -4.6226,-2.20411 -1.17017,-1.46941 -1.75525,-4.08888 -1.75525,-7.85843 0,-3.69807 0.64314,-6.35998 1.92943,-7.98572 1.06298,-1.33987 2.54578,-2.00981 4.44842,-2.00983 z m 0,3.12194 c -0.45556,1e-5 -0.862,0.14517 -1.21929,0.43546 -0.35731,0.29032 -0.63422,0.81064 -0.83073,1.56097 -0.25905,0.97366 -0.38857,2.61278 -0.38857,4.91738 0,2.30461 0.11612,3.8879 0.34837,4.74989 0.23224,0.862 0.52479,1.43591 0.87763,1.72175 0.35283,0.28585 0.75703,0.42877 1.21259,0.42877 0.45556,0 0.86199,-0.14515 1.2193,-0.43547 0.35729,-0.2903 0.6342,-0.81062 0.83073,-1.56096 0.25903,-0.96471 0.38856,-2.59937 0.38857,-4.90398 -10e-6,-2.3046 -0.11614,-3.88789 -0.34837,-4.7499 -0.23226,-0.86198 -0.5248,-1.43813 -0.87763,-1.72845 -0.35284,-0.29029 -0.75704,-0.43545 -1.2126,-0.43546 z"
         style="font-size:27.44085884px;font-variant:normal;font-weight:bold;writing-mode:lr-tb;fill:#000000;fill-opacity:1;fill-rule:nonzero;stroke:none;font-family:Arial;-inkscape-font-specification:Arial-BoldMT"
         id="path15281"
         inkscape:connector-curvature="0" />
    </g>
    <g
       transform="scale(0.92343777,1.08291)"
       style="font-size:105.50046539px;fill:#000000;fill-opacity:1;stroke:none"
       id="text4668">
      <path
         d="m 243.24765,303.11221 -4.95987,0 0,-18.6922 c -1.81216,1.69449 -3.94791,2.9477 -6.40725,3.75962 l 0,-4.50096 c 1.29439,-0.4236 2.70057,-1.22671 4.21855,-2.40933 1.51796,-1.18258 2.55935,-2.56229 3.12419,-4.13912 l 4.02438,0 z"
         style="font-size:36.1488533px;font-variant:normal;font-weight:bold;writing-mode:lr-tb;fill:#000000;fill-opacity:1;fill-rule:nonzero;stroke:none;font-family:Arial;-inkscape-font-specification:Arial-BoldMT"
         id="path15272"
         inkscape:connector-curvature="0" />
      <path
         d="m 250.65545,282.19601 0,-4.60686 16.96242,0 0,3.60076 c -1.40031,1.37678 -2.82414,3.35367 -4.27149,5.93067 -1.44738,2.57703 -2.55056,5.31585 -3.30953,8.21645 -0.75899,2.90062 -1.1326,5.49235 -1.12082,7.77518 l -4.78337,0 c 0.0824,-3.57722 0.82075,-7.22505 2.21517,-10.9435 1.39441,-3.71842 3.25657,-7.04265 5.58648,-9.9727 z"
         style="font-size:36.1488533px;font-variant:normal;font-weight:bold;writing-mode:lr-tb;fill:#000000;fill-opacity:1;fill-rule:nonzero;stroke:none;font-family:Arial;-inkscape-font-specification:Arial-BoldMT"
         id="path15274"
         inkscape:connector-curvature="0" />
    </g>
    <g
       transform="scale(0.92344408,1.0829026)"
       style="font-size:105.50118256px;fill:#000000;fill-opacity:1;stroke:none"
       id="text4672">
      <path
         d="m 271.09468,299.3493 3.76508,0 0,2.69317 c -10e-6,1.08978 -0.0938,1.94953 -0.28138,2.57928 -0.18758,0.62975 -0.54265,1.19473 -1.0652,1.69496 -0.52256,0.50022 -1.18581,0.89325 -1.98974,1.1791 l -0.73693,-1.55427 c 0.75926,-0.25012 1.29968,-0.59402 1.62126,-1.03171 0.32157,-0.4377 0.49129,-1.03618 0.50916,-1.79545 l -1.82225,0 z"
         style="font-size:27.44085884px;font-variant:normal;font-weight:bold;writing-mode:lr-tb;fill:#000000;fill-opacity:1;fill-rule:nonzero;stroke:none;font-family:Arial;-inkscape-font-specification:Arial-BoldMT"
         id="path15265"
         inkscape:connector-curvature="0" />
      <path
         d="m 284.37763,283.39126 c 1.90263,2e-5 3.3899,0.6789 4.46182,2.03663 1.27734,1.60788 1.91602,4.27425 1.91604,7.99912 -2e-5,3.71595 -0.64316,6.38679 -1.92944,8.01251 -1.06299,1.33989 -2.54579,2.00983 -4.44842,2.00983 -1.91158,0 -3.45244,-0.7347 -4.6226,-2.20411 -1.17017,-1.46941 -1.75526,-4.08888 -1.75526,-7.85843 0,-3.69807 0.64315,-6.35997 1.92944,-7.98572 1.06297,-1.33987 2.54578,-2.00981 4.44842,-2.00983 z m 0,3.12194 c -0.45557,1e-5 -0.862,0.14517 -1.2193,0.43546 -0.3573,0.29032 -0.63421,0.81065 -0.83072,1.56097 -0.25905,0.97366 -0.38858,2.61278 -0.38857,4.91738 -10e-6,2.30461 0.11612,3.8879 0.34837,4.74989 0.23224,0.862 0.52478,1.43592 0.87762,1.72175 0.35283,0.28585 0.75703,0.42877 1.2126,0.42877 0.45555,0 0.86199,-0.14515 1.2193,-0.43547 0.35729,-0.2903 0.6342,-0.81062 0.83073,-1.56096 0.25903,-0.96471 0.38855,-2.59937 0.38856,-4.90398 -10e-6,-2.3046 -0.11613,-3.88789 -0.34837,-4.7499 -0.23225,-0.86198 -0.5248,-1.43813 -0.87762,-1.72845 -0.35285,-0.29029 -0.75705,-0.43545 -1.2126,-0.43546 z"
         style="font-size:27.44085884px;font-variant:normal;font-weight:bold;writing-mode:lr-tb;fill:#000000;fill-opacity:1;fill-rule:nonzero;stroke:none;font-family:Arial;-inkscape-font-specification:Arial-BoldMT"
         id="path15267"
         inkscape:connector-curvature="0" />
      <path
         d="m 299.63477,283.39126 c 1.90263,2e-5 3.3899,0.6789 4.46182,2.03663 1.27735,1.60788 1.91602,4.27425 1.91604,7.99912 -2e-5,3.71595 -0.64316,6.38679 -1.92944,8.01251 -1.06298,1.33989 -2.54579,2.00983 -4.44842,2.00983 -1.91157,0 -3.45244,-0.7347 -4.6226,-2.20411 -1.17017,-1.46941 -1.75526,-4.08888 -1.75525,-7.85843 -10e-6,-3.69807 0.64314,-6.35997 1.92943,-7.98572 1.06297,-1.33987 2.54578,-2.00981 4.44842,-2.00983 z m 0,3.12194 c -0.45557,1e-5 -0.862,0.14517 -1.21929,0.43546 -0.35731,0.29032 -0.63422,0.81065 -0.83073,1.56097 -0.25905,0.97366 -0.38858,2.61278 -0.38857,4.91738 -1e-5,2.30461 0.11612,3.8879 0.34837,4.74989 0.23224,0.862 0.52478,1.43592 0.87763,1.72175 0.35283,0.28585 0.75702,0.42877 1.21259,0.42877 0.45555,0 0.86199,-0.14515 1.2193,-0.43547 0.35729,-0.2903 0.6342,-0.81062 0.83073,-1.56096 0.25903,-0.96471 0.38855,-2.59937 0.38856,-4.90398 -10e-6,-2.3046 -0.11613,-3.88789 -0.34837,-4.7499 -0.23225,-0.86198 -0.52479,-1.43813 -0.87762,-1.72845 -0.35285,-0.29029 -0.75705,-0.43545 -1.2126,-0.43546 z"
         style="font-size:27.44085884px;font-variant:normal;font-weight:bold;writing-mode:lr-tb;fill:#000000;fill-opacity:1;fill-rule:nonzero;stroke:none;font-family:Arial;-inkscape-font-specification:Arial-BoldMT"
         id="path15269"
         inkscape:connector-curvature="0" />
    </g>
    <g
       transform="scale(0.92343777,1.08291)"
       style="font-size:105.50046539px;fill:#000000;fill-opacity:1;stroke:none"
       id="text4676">
      <path
         d="m 309.39645,296.21075 0,-4.95988 9.74325,0 0,4.95988 z"
         style="font-size:36.1488533px;font-variant:normal;font-weight:bold;writing-mode:lr-tb;fill:#000000;fill-opacity:1;fill-rule:nonzero;stroke:none;font-family:Arial;-inkscape-font-specification:Arial-BoldMT"
         id="path15258"
         inkscape:connector-curvature="0" />
      <path
         d="m 337.69041,298.50535 0,4.60686 -17.38604,0 c 0.18827,-1.74154 0.7531,-3.39189 1.69447,-4.95105 0.94138,-1.55915 2.80059,-3.62723 5.57766,-6.20426 2.23576,-2.08278 3.60664,-3.49484 4.11264,-4.23619 0.68248,-1.02373 1.02373,-2.03571 1.02374,-3.03594 -10e-6,-1.1061 -0.29713,-1.95628 -0.89136,-2.55054 -0.59426,-0.59422 -1.41502,-0.89135 -2.46229,-0.89137 -1.03552,2e-5 -1.85923,0.31186 -2.47111,0.9355 -0.6119,0.62368 -0.96492,1.65919 -1.05905,3.10654 l -4.94223,-0.49422 c 0.29418,-2.72998 1.21791,-4.68921 2.77118,-5.87772 1.55326,-1.18847 3.49485,-1.78271 5.82477,-1.78274 2.55347,3e-5 4.55977,0.68841 6.01892,2.06515 1.45912,1.37678 2.18868,3.08891 2.1887,5.13638 -2e-5,1.16498 -0.20888,2.27403 -0.6266,3.32718 -0.41776,1.05318 -1.07966,2.15635 -1.98572,3.30953 -0.60014,0.76488 -1.68272,1.86511 -3.24775,3.3007 -1.56505,1.43561 -2.55643,2.38875 -2.97416,2.85943 -0.41774,0.47069 -0.75605,0.92961 -1.01492,1.37676 z"
         style="font-size:36.1488533px;font-variant:normal;font-weight:bold;writing-mode:lr-tb;fill:#000000;fill-opacity:1;fill-rule:nonzero;stroke:none;font-family:Arial;-inkscape-font-specification:Arial-BoldMT"
         id="path15260"
         inkscape:connector-curvature="0" />
      <path
         d="m 349.42265,277.13022 c 2.50641,3e-5 4.46564,0.89434 5.87772,2.68293 1.68269,2.11812 2.52405,5.63062 2.52407,10.53753 -2e-5,4.89516 -0.84726,8.41356 -2.54172,10.55518 -1.40031,1.76508 -3.35366,2.64762 -5.86007,2.64762 -2.51819,0 -4.54803,-0.96785 -6.08953,-2.90355 -1.5415,-1.93571 -2.31225,-5.38643 -2.31225,-10.3522 0,-4.87161 0.84723,-8.37823 2.54171,-10.51988 1.4003,-1.76506 3.35365,-2.6476 5.86007,-2.64763 z m 0,4.11264 c -0.60013,2e-5 -1.13554,0.19124 -1.60622,0.57365 -0.4707,0.38246 -0.83548,1.0679 -1.09435,2.05632 -0.34126,1.28265 -0.51188,3.44193 -0.51187,6.47785 -1e-5,3.03595 0.15296,5.12168 0.45892,6.25721 0.30594,1.13554 0.69131,1.89158 1.15612,2.26813 0.4648,0.37655 0.99727,0.56483 1.5974,0.56483 0.60012,0 1.13553,-0.19122 1.60623,-0.57366 0.47067,-0.38243 0.83546,-1.06786 1.09435,-2.05632 0.34123,-1.27085 0.51186,-3.42424 0.51187,-6.46019 -1e-5,-3.03592 -0.15299,-5.12166 -0.45892,-6.25721 -0.30596,-1.13552 -0.69134,-1.8945 -1.15613,-2.27696 -0.46481,-0.38241 -0.99728,-0.57363 -1.5974,-0.57365 z"
         style="font-size:36.1488533px;font-variant:normal;font-weight:bold;writing-mode:lr-tb;fill:#000000;fill-opacity:1;fill-rule:nonzero;stroke:none;font-family:Arial;-inkscape-font-specification:Arial-BoldMT"
         id="path15262"
         inkscape:connector-curvature="0" />
    </g>
    <g
       transform="scale(0.92344408,1.0829026)"
       style="font-size:105.50118256px;fill:#000000;fill-opacity:1;stroke:none"
       id="text4680">
      <path
         d="m 361.47148,299.3493 3.76508,0 0,2.69317 c 0,1.08978 -0.0938,1.94953 -0.28138,2.57928 -0.18758,0.62975 -0.54265,1.19473 -1.0652,1.69496 -0.52256,0.50022 -1.18581,0.89325 -1.98973,1.1791 l -0.73694,-1.55427 c 0.75926,-0.25012 1.29968,-0.59402 1.62126,-1.03171 0.32157,-0.4377 0.49129,-1.03618 0.50916,-1.79545 l -1.82225,0 z"
         style="font-size:27.44085884px;font-variant:normal;font-weight:bold;writing-mode:lr-tb;fill:#000000;fill-opacity:1;fill-rule:nonzero;stroke:none;font-family:Arial;-inkscape-font-specification:Arial-BoldMT"
         id="path15251"
         inkscape:connector-curvature="0" />
      <path
         d="m 374.75425,283.39126 c 1.90263,2e-5 3.3899,0.6789 4.46182,2.03663 1.27734,1.60788 1.91602,4.27425 1.91603,7.99912 -10e-6,3.71595 -0.64315,6.38679 -1.92943,8.01251 -1.06299,1.33989 -2.54579,2.00983 -4.44842,2.00983 -1.91158,0 -3.45244,-0.7347 -4.62261,-2.20411 -1.17017,-1.46941 -1.75525,-4.08888 -1.75525,-7.85843 0,-3.69807 0.64315,-6.35997 1.92944,-7.98572 1.06297,-1.33987 2.54577,-2.00981 4.44842,-2.00983 z m 0,3.12194 c -0.45557,1e-5 -0.862,0.14517 -1.2193,0.43546 -0.35731,0.29032 -0.63422,0.81065 -0.83073,1.56097 -0.25905,0.97366 -0.38857,2.61278 -0.38856,4.91738 -10e-6,2.30461 0.11611,3.8879 0.34837,4.74989 0.23224,0.862 0.52478,1.43592 0.87762,1.72175 0.35283,0.28585 0.75703,0.42877 1.2126,0.42877 0.45555,0 0.86198,-0.14515 1.21929,-0.43547 0.3573,-0.2903 0.63421,-0.81062 0.83073,-1.56096 0.25904,-0.96471 0.38856,-2.59937 0.38857,-4.90398 -10e-6,-2.3046 -0.11613,-3.88789 -0.34837,-4.7499 -0.23226,-0.86198 -0.5248,-1.43813 -0.87763,-1.72845 -0.35284,-0.29029 -0.75704,-0.43545 -1.21259,-0.43546 z"
         style="font-size:27.44085884px;font-variant:normal;font-weight:bold;writing-mode:lr-tb;fill:#000000;fill-opacity:1;fill-rule:nonzero;stroke:none;font-family:Arial;-inkscape-font-specification:Arial-BoldMT"
         id="path15253"
         inkscape:connector-curvature="0" />
      <path
         d="m 390.01142,283.39126 c 1.90263,2e-5 3.3899,0.6789 4.46182,2.03663 1.27734,1.60788 1.91602,4.27425 1.91604,7.99912 -2e-5,3.71595 -0.64316,6.38679 -1.92944,8.01251 -1.06299,1.33989 -2.54579,2.00983 -4.44842,2.00983 -1.91158,0 -3.45244,-0.7347 -4.62261,-2.20411 -1.17016,-1.46941 -1.75525,-4.08888 -1.75525,-7.85843 0,-3.69807 0.64315,-6.35997 1.92944,-7.98572 1.06297,-1.33987 2.54578,-2.00981 4.44842,-2.00983 z m 0,3.12194 c -0.45557,1e-5 -0.862,0.14517 -1.2193,0.43546 -0.35731,0.29032 -0.63421,0.81065 -0.83073,1.56097 -0.25905,0.97366 -0.38857,2.61278 -0.38856,4.91738 -1e-5,2.30461 0.11612,3.8879 0.34837,4.74989 0.23224,0.862 0.52478,1.43592 0.87762,1.72175 0.35283,0.28585 0.75703,0.42877 1.2126,0.42877 0.45555,0 0.86198,-0.14515 1.2193,-0.43547 0.35729,-0.2903 0.6342,-0.81062 0.83072,-1.56096 0.25904,-0.96471 0.38856,-2.59937 0.38857,-4.90398 -1e-5,-2.3046 -0.11613,-3.88789 -0.34837,-4.7499 -0.23225,-0.86198 -0.5248,-1.43813 -0.87762,-1.72845 -0.35285,-0.29029 -0.75705,-0.43545 -1.2126,-0.43546 z"
         style="font-size:27.44085884px;font-variant:normal;font-weight:bold;writing-mode:lr-tb;fill:#000000;fill-opacity:1;fill-rule:nonzero;stroke:none;font-family:Arial;-inkscape-font-specification:Arial-BoldMT"
         id="path15255"
         inkscape:connector-curvature="0" />
    </g>
    <g
       transform="scale(0.92343777,1.08291)"
       style="font-size:105.50046539px;fill:#000000;fill-opacity:1;stroke:none"
       id="text4684">
      <path
         d="m 249.50934,411.61412 4.80102,-0.52952 c 0.11766,0.97668 0.42361,1.70037 0.91784,2.17105 0.49421,0.47069 1.14729,0.70604 1.95924,0.70603 1.02374,10e-6 1.89451,-0.47068 2.61232,-1.41206 0.71779,-0.94137 1.17671,-2.89473 1.37676,-5.86007 -1.24733,1.44737 -2.80649,2.17106 -4.67746,2.17105 -2.03574,1e-5 -3.79199,-0.78545 -5.26877,-2.35638 -1.47678,-1.57091 -2.21518,-3.61546 -2.21517,-6.13366 -1e-5,-2.62407 0.77957,-4.73922 2.33873,-6.34547 1.55915,-1.60619 3.54486,-2.4093 5.95715,-2.40933 2.62407,3e-5 4.77747,1.01495 6.46019,3.04476 1.68269,2.02987 2.52405,5.36881 2.52407,10.01684 -2e-5,4.73042 -0.87668,8.14291 -2.62997,10.23747 -1.75333,2.09456 -4.03617,3.14184 -6.84852,3.14184 -2.02396,0 -3.6596,-0.53835 -4.90692,-1.61505 -1.24733,-1.0767 -2.0475,-2.68586 -2.40051,-4.8275 z m 11.22591,-10.83759 c -1e-5,-1.60032 -0.36774,-2.84176 -1.10317,-3.72432 -0.73547,-0.88252 -1.58564,-1.32379 -2.55055,-1.32381 -0.91785,2e-5 -1.67977,0.36186 -2.28578,1.08552 -0.60601,0.72371 -0.90902,1.90925 -0.90901,3.55664 -1e-5,1.67096 0.32947,2.89769 0.98844,3.68019 0.65896,0.78254 1.48266,1.17379 2.47112,1.17378 0.95313,10e-6 1.75624,-0.37654 2.40933,-1.12965 0.65307,-0.75309 0.97961,-1.8592 0.97962,-3.31835 z"
         style="font-size:36.1488533px;font-variant:normal;font-weight:bold;writing-mode:lr-tb;fill:#000000;fill-opacity:1;fill-rule:nonzero;stroke:none;font-family:Arial;-inkscape-font-specification:Arial-BoldMT"
         id="path15248"
         inkscape:connector-curvature="0" />
    </g>
    <g
       transform="scale(0.92344408,1.0829026)"
       style="font-size:105.50118256px;fill:#000000;fill-opacity:1;stroke:none"
       id="text4688">
      <path
         d="m 269.84724,413.83554 3.76508,0 0,2.69317 c 0,1.08977 -0.0938,1.94953 -0.28137,2.57928 -0.18759,0.62974 -0.54266,1.19473 -1.06521,1.69495 -0.52256,0.50022 -1.1858,0.89326 -1.98973,1.1791 l -0.73694,-1.55426 c 0.75927,-0.25012 1.29969,-0.59402 1.62126,-1.03172 0.32157,-0.43769 0.49129,-1.03618 0.50916,-1.79544 l -1.82225,0 z"
         style="font-size:27.44085884px;font-variant:normal;font-weight:bold;writing-mode:lr-tb;fill:#000000;fill-opacity:1;fill-rule:nonzero;stroke:none;font-family:Arial;-inkscape-font-specification:Arial-BoldMT"
         id="path15241"
         inkscape:connector-curvature="0" />
      <path
         d="m 283.13016,397.8775 c 1.90263,2e-5 3.3899,0.67889 4.46182,2.03663 1.27735,1.60787 1.91603,4.27424 1.91604,7.99911 -10e-6,3.71596 -0.64316,6.38679 -1.92944,8.01252 -1.06298,1.33989 -2.54579,2.00983 -4.44842,2.00983 -1.91157,0 -3.45244,-0.73471 -4.6226,-2.20411 -1.17017,-1.46941 -1.75525,-4.08888 -1.75525,-7.85843 0,-3.69807 0.64314,-6.35998 1.92943,-7.98572 1.06298,-1.33987 2.54578,-2.00981 4.44842,-2.00983 z m 0,3.12193 c -0.45556,2e-5 -0.862,0.14517 -1.21929,0.43547 -0.35731,0.29032 -0.63422,0.81064 -0.83073,1.56096 -0.25905,0.97367 -0.38857,2.61279 -0.38857,4.91738 0,2.30461 0.11612,3.88791 0.34837,4.7499 0.23224,0.86199 0.52478,1.43591 0.87763,1.72175 0.35283,0.28585 0.75703,0.42877 1.21259,0.42876 0.45556,1e-5 0.86199,-0.14515 1.2193,-0.43546 0.35729,-0.2903 0.6342,-0.81063 0.83073,-1.56097 0.25903,-0.96471 0.38856,-2.59937 0.38857,-4.90398 -10e-6,-2.30459 -0.11614,-3.88789 -0.34837,-4.74989 -0.23226,-0.86198 -0.5248,-1.43813 -0.87763,-1.72845 -0.35284,-0.2903 -0.75704,-0.43545 -1.2126,-0.43547 z"
         style="font-size:27.44085884px;font-variant:normal;font-weight:bold;writing-mode:lr-tb;fill:#000000;fill-opacity:1;fill-rule:nonzero;stroke:none;font-family:Arial;-inkscape-font-specification:Arial-BoldMT"
         id="path15243"
         inkscape:connector-curvature="0" />
      <path
         d="m 298.38727,397.8775 c 1.90263,2e-5 3.3899,0.67889 4.46182,2.03663 1.27735,1.60787 1.91603,4.27424 1.91604,7.99911 -10e-6,3.71596 -0.64316,6.38679 -1.92944,8.01252 -1.06298,1.33989 -2.54579,2.00983 -4.44842,2.00983 -1.91157,0 -3.45244,-0.73471 -4.6226,-2.20411 -1.17017,-1.46941 -1.75525,-4.08888 -1.75525,-7.85843 0,-3.69807 0.64314,-6.35998 1.92943,-7.98572 1.06298,-1.33987 2.54578,-2.00981 4.44842,-2.00983 z m 0,3.12193 c -0.45556,2e-5 -0.862,0.14517 -1.21929,0.43547 -0.35731,0.29032 -0.63422,0.81064 -0.83073,1.56096 -0.25905,0.97367 -0.38857,2.61279 -0.38857,4.91738 0,2.30461 0.11612,3.88791 0.34837,4.7499 0.23224,0.86199 0.52479,1.43591 0.87763,1.72175 0.35283,0.28585 0.75703,0.42877 1.21259,0.42876 0.45556,1e-5 0.86199,-0.14515 1.2193,-0.43546 0.35729,-0.2903 0.6342,-0.81063 0.83073,-1.56097 0.25903,-0.96471 0.38856,-2.59937 0.38857,-4.90398 -1e-5,-2.30459 -0.11614,-3.88789 -0.34837,-4.74989 -0.23226,-0.86198 -0.5248,-1.43813 -0.87763,-1.72845 -0.35284,-0.2903 -0.75704,-0.43545 -1.2126,-0.43547 z"
         style="font-size:27.44085884px;font-variant:normal;font-weight:bold;writing-mode:lr-tb;fill:#000000;fill-opacity:1;fill-rule:nonzero;stroke:none;font-family:Arial;-inkscape-font-specification:Arial-BoldMT"
         id="path15245"
         inkscape:connector-curvature="0" />
    </g>
    <g
       transform="scale(0.92343777,1.08291)"
       style="font-size:105.50046539px;fill:#000000;fill-opacity:1;stroke:none"
       id="text4692">
      <path
         d="m 308.13971,410.69628 0,-4.95987 9.74324,0 0,4.95987 z"
         style="font-size:36.1488533px;font-variant:normal;font-weight:bold;writing-mode:lr-tb;fill:#000000;fill-opacity:1;fill-rule:nonzero;stroke:none;font-family:Arial;-inkscape-font-specification:Arial-BoldMT"
         id="path15234"
         inkscape:connector-curvature="0" />
      <path
         d="m 332.37398,417.59775 -4.95988,0 0,-18.69221 c -1.81215,1.6945 -3.9479,2.9477 -6.40724,3.75962 l 0,-4.50095 c 1.29439,-0.4236 2.70057,-1.22671 4.21854,-2.40934 1.51796,-1.18258 2.55936,-2.56228 3.1242,-4.13911 l 4.02438,0 z"
         style="font-size:36.1488533px;font-variant:normal;font-weight:bold;writing-mode:lr-tb;fill:#000000;fill-opacity:1;fill-rule:nonzero;stroke:none;font-family:Arial;-inkscape-font-specification:Arial-BoldMT"
         id="path15236"
         inkscape:connector-curvature="0" />
      <path
         d="m 339.78187,396.68154 0,-4.60686 16.96242,0 0,3.60077 c -1.40031,1.37678 -2.82414,3.35367 -4.27149,5.93067 -1.44738,2.57703 -2.55056,5.31584 -3.30953,8.21645 -0.75899,2.90062 -1.1326,5.49234 -1.12083,7.77518 l -4.78336,0 c 0.0824,-3.57723 0.82075,-7.22506 2.21517,-10.9435 1.39441,-3.71842 3.25657,-7.04266 5.58648,-9.97271 z"
         style="font-size:36.1488533px;font-variant:normal;font-weight:bold;writing-mode:lr-tb;fill:#000000;fill-opacity:1;fill-rule:nonzero;stroke:none;font-family:Arial;-inkscape-font-specification:Arial-BoldMT"
         id="path15238"
         inkscape:connector-curvature="0" />
    </g>
    <g
       transform="scale(0.92344408,1.0829026)"
       style="font-size:105.50118256px;fill:#000000;fill-opacity:1;stroke:none"
       id="text4696">
      <path
         d="m 360.22282,413.83554 3.76508,0 0,2.69317 c 0,1.08977 -0.0938,1.94953 -0.28137,2.57928 -0.18759,0.62974 -0.54266,1.19473 -1.06521,1.69495 -0.52256,0.50022 -1.1858,0.89326 -1.98973,1.1791 l -0.73694,-1.55426 c 0.75927,-0.25012 1.29969,-0.59402 1.62126,-1.03172 0.32157,-0.43769 0.49129,-1.03618 0.50916,-1.79544 l -1.82225,0 z"
         style="font-size:27.44085884px;font-variant:normal;font-weight:bold;writing-mode:lr-tb;fill:#000000;fill-opacity:1;fill-rule:nonzero;stroke:none;font-family:Arial;-inkscape-font-specification:Arial-BoldMT"
         id="path15227"
         inkscape:connector-curvature="0" />
      <path
         d="m 373.50571,397.8775 c 1.90263,2e-5 3.3899,0.67889 4.46182,2.03663 1.27735,1.60787 1.91602,4.27424 1.91604,7.99911 -2e-5,3.71596 -0.64316,6.38679 -1.92944,8.01252 -1.06298,1.33989 -2.54579,2.00983 -4.44842,2.00983 -1.91157,0 -3.45244,-0.73471 -4.6226,-2.20411 -1.17017,-1.46941 -1.75525,-4.08888 -1.75525,-7.85843 0,-3.69807 0.64314,-6.35998 1.92943,-7.98572 1.06297,-1.33987 2.54578,-2.00981 4.44842,-2.00983 z m 0,3.12193 c -0.45557,2e-5 -0.862,0.14517 -1.21929,0.43547 -0.35731,0.29032 -0.63422,0.81064 -0.83073,1.56096 -0.25905,0.97367 -0.38857,2.61279 -0.38857,4.91738 0,2.30461 0.11612,3.88791 0.34837,4.7499 0.23224,0.86199 0.52478,1.43591 0.87763,1.72175 0.35283,0.28585 0.75702,0.42877 1.21259,0.42876 0.45556,1e-5 0.86199,-0.14515 1.2193,-0.43546 0.35729,-0.2903 0.6342,-0.81063 0.83073,-1.56097 0.25903,-0.96471 0.38855,-2.59937 0.38856,-4.90398 -10e-6,-2.30459 -0.11613,-3.88789 -0.34837,-4.74989 -0.23225,-0.86198 -0.52479,-1.43813 -0.87762,-1.72845 -0.35285,-0.2903 -0.75704,-0.43545 -1.2126,-0.43547 z"
         style="font-size:27.44085884px;font-variant:normal;font-weight:bold;writing-mode:lr-tb;fill:#000000;fill-opacity:1;fill-rule:nonzero;stroke:none;font-family:Arial;-inkscape-font-specification:Arial-BoldMT"
         id="path15229"
         inkscape:connector-curvature="0" />
      <path
         d="m 388.76288,397.8775 c 1.90263,2e-5 3.3899,0.67889 4.46182,2.03663 1.27735,1.60787 1.91603,4.27424 1.91604,7.99911 -10e-6,3.71596 -0.64316,6.38679 -1.92943,8.01252 -1.06299,1.33989 -2.5458,2.00983 -4.44843,2.00983 -1.91157,0 -3.45244,-0.73471 -4.6226,-2.20411 -1.17017,-1.46941 -1.75525,-4.08888 -1.75525,-7.85843 0,-3.69807 0.64314,-6.35998 1.92943,-7.98572 1.06298,-1.33987 2.54578,-2.00981 4.44842,-2.00983 z m 0,3.12193 c -0.45556,2e-5 -0.862,0.14517 -1.21929,0.43547 -0.35731,0.29032 -0.63422,0.81064 -0.83073,1.56096 -0.25905,0.97367 -0.38857,2.61279 -0.38857,4.91738 0,2.30461 0.11612,3.88791 0.34837,4.7499 0.23224,0.86199 0.52479,1.43591 0.87763,1.72175 0.35283,0.28585 0.75703,0.42877 1.21259,0.42876 0.45556,1e-5 0.86199,-0.14515 1.2193,-0.43546 0.35729,-0.2903 0.6342,-0.81063 0.83073,-1.56097 0.25903,-0.96471 0.38856,-2.59937 0.38857,-4.90398 -1e-5,-2.30459 -0.11614,-3.88789 -0.34837,-4.74989 -0.23226,-0.86198 -0.5248,-1.43813 -0.87763,-1.72845 -0.35284,-0.2903 -0.75704,-0.43545 -1.2126,-0.43547 z"
         style="font-size:27.44085884px;font-variant:normal;font-weight:bold;writing-mode:lr-tb;fill:#000000;fill-opacity:1;fill-rule:nonzero;stroke:none;font-family:Arial;-inkscape-font-specification:Arial-BoldMT"
         id="path15231"
         inkscape:connector-curvature="0" />
    </g>
    <g
       transform="scale(0.93388723,1.0707931)"
       style="font-size:106.69429016px;fill:#000000;fill-opacity:1;stroke:none"
       id="text4700">
      <path
         d="m 261.5791,475.20801 0,4.65899 -17.58278,0 c 0.1904,-1.76125 0.76162,-3.43027 1.71365,-5.00707 0.95202,-1.57679 2.83228,-3.66828 5.64077,-6.27447 2.26106,-2.10635 3.64745,-3.53439 4.15918,-4.28413 0.6902,-1.03531 1.03531,-2.05874 1.03533,-3.07029 -2e-5,-1.11862 -0.3005,-1.97842 -0.90146,-2.57941 -0.60098,-0.60094 -1.43103,-0.90143 -2.49015,-0.90145 -1.04724,2e-5 -1.88026,0.31538 -2.49907,0.94608 -0.61883,0.63074 -0.97584,1.67797 -1.07104,3.1417 l -4.99815,-0.49982 c 0.29751,-2.76086 1.23169,-4.74227 2.80254,-5.94423 1.57084,-1.20191 3.5344,-1.80288 5.89068,-1.8029 2.58236,2e-5 4.61137,0.69619 6.08703,2.08851 1.47563,1.39236 2.21345,3.12387 2.21347,5.19451 -2e-5,1.17815 -0.21125,2.29976 -0.63369,3.36482 -0.42249,1.0651 -1.09188,2.18076 -2.00819,3.34698 -0.60693,0.77354 -1.70177,1.88622 -3.2845,3.33805 -1.58276,1.45185 -2.58536,2.41578 -3.00782,2.89179 -0.42247,0.47602 -0.7646,0.94013 -1.0264,1.39234 z"
         style="font-size:36.55791092px;font-variant:normal;font-weight:bold;writing-mode:lr-tb;fill:#000000;fill-opacity:1;fill-rule:nonzero;stroke:none;font-family:Arial;-inkscape-font-specification:Arial-BoldMT"
         id="path15222"
         inkscape:connector-curvature="0" />
      <path
         d="m 273.44414,453.59101 c 2.53477,2e-5 4.51618,0.90445 5.94424,2.71328 1.70173,2.14208 2.5526,5.69434 2.55262,10.65677 -2e-5,4.95056 -0.85684,8.50877 -2.57048,10.67463 -1.41615,1.78505 -3.39161,2.67758 -5.92638,2.67758 -2.54668,0 -4.59949,-0.97881 -6.15843,-2.93642 -1.55895,-1.9576 -2.33842,-5.44738 -2.33842,-10.46934 0,-4.92673 0.85682,-8.47304 2.57047,-10.63892 1.41614,-1.78503 3.3916,-2.67756 5.92638,-2.67758 z m 0,4.15917 c -0.60692,2e-5 -1.14839,0.19341 -1.62439,0.58014 -0.47603,0.38679 -0.84494,1.07998 -1.10674,2.07959 -0.34512,1.29716 -0.51767,3.48087 -0.51766,6.55115 -1e-5,3.07031 0.15469,5.17964 0.46411,6.32802 0.3094,1.14839 0.69914,1.91299 1.16921,2.29379 0.47006,0.38082 1.00855,0.57123 1.61547,0.57122 0.60691,1e-5 1.14838,-0.19338 1.6244,-0.58014 0.47601,-0.38676 0.84492,-1.07995 1.10674,-2.07959 0.3451,-1.28523 0.51765,-3.46299 0.51766,-6.5333 -1e-5,-3.07028 -0.15471,-5.17961 -0.46411,-6.32802 -0.30942,-1.14836 -0.69916,-1.91593 -1.16921,-2.30272 -0.47008,-0.38673 -1.00857,-0.58012 -1.61548,-0.58014 z"
         style="font-size:36.55791092px;font-variant:normal;font-weight:bold;writing-mode:lr-tb;fill:#000000;fill-opacity:1;fill-rule:nonzero;stroke:none;font-family:Arial;-inkscape-font-specification:Arial-BoldMT"
         id="path15224"
         inkscape:connector-curvature="0" />
    </g>
    <g
       transform="scale(0.93389751,1.0707813)"
       style="font-size:106.69547272px;fill:#000000;fill-opacity:1;stroke:none"
       id="text4704">
      <path
         d="m 285.637,476.0648 3.8077,0 0,2.72365 c 0,1.10211 -0.0949,1.97161 -0.28456,2.60848 -0.18971,0.63688 -0.5488,1.20826 -1.07726,1.71414 -0.52848,0.50589 -1.19923,0.90337 -2.01226,1.19245 l -0.74528,-1.57186 c 0.76786,-0.25295 1.3144,-0.60074 1.63962,-1.04339 0.32521,-0.44265 0.49685,-1.04791 0.51492,-1.81577 l -1.84288,0 z"
         style="font-size:27.75149155px;font-variant:normal;font-weight:bold;writing-mode:lr-tb;fill:#000000;fill-opacity:1;fill-rule:nonzero;stroke:none;font-family:Arial;-inkscape-font-specification:Arial-BoldMT"
         id="path15215"
         inkscape:connector-curvature="0" />
      <path
         d="m 299.07033,459.92611 c 1.92416,2e-5 3.42827,0.68658 4.51232,2.05968 1.29181,1.62608 1.93771,4.32264 1.93773,8.08967 -2e-5,3.75802 -0.65044,6.45909 -1.95128,8.10322 -1.07502,1.35505 -2.57461,2.03258 -4.49877,2.03258 -1.93322,0 -3.49153,-0.74302 -4.67494,-2.22906 -1.18341,-1.48604 -1.77512,-4.13517 -1.77512,-7.94739 0,-3.73993 0.65043,-6.43197 1.95128,-8.07612 1.075,-1.35503 2.57459,-2.03256 4.49878,-2.03258 z m 0,3.15728 c -0.46073,10e-6 -0.87176,0.14681 -1.2331,0.44039 -0.36136,0.29361 -0.6414,0.81982 -0.84014,1.57864 -0.26198,0.98468 -0.39297,2.64236 -0.39296,4.97304 -10e-6,2.3307 0.11743,3.93192 0.35231,4.80367 0.23487,0.87175 0.53073,1.45217 0.88756,1.74124 0.35683,0.28908 0.7656,0.43362 1.22633,0.43362 0.46071,0 0.87174,-0.1468 1.23309,-0.4404 0.36134,-0.29359 0.64139,-0.8198 0.84014,-1.57863 0.26196,-0.97564 0.39295,-2.6288 0.39296,-4.9595 -10e-6,-2.33068 -0.11745,-3.9319 -0.35231,-4.80366 -0.23489,-0.87174 -0.53074,-1.45441 -0.88756,-1.74802 -0.35684,-0.29358 -0.76561,-0.44038 -1.22632,-0.44039 z"
         style="font-size:27.75149155px;font-variant:normal;font-weight:bold;writing-mode:lr-tb;fill:#000000;fill-opacity:1;fill-rule:nonzero;stroke:none;font-family:Arial;-inkscape-font-specification:Arial-BoldMT"
         id="path15217"
         inkscape:connector-curvature="0" />
      <path
         d="m 314.50017,459.92611 c 1.92416,2e-5 3.42827,0.68658 4.51232,2.05968 1.29181,1.62608 1.93771,4.32264 1.93773,8.08967 -2e-5,3.75802 -0.65044,6.45909 -1.95128,8.10322 -1.07502,1.35505 -2.57461,2.03258 -4.49877,2.03258 -1.93322,0 -3.49153,-0.74302 -4.67494,-2.22906 -1.18341,-1.48604 -1.77512,-4.13517 -1.77512,-7.94739 0,-3.73993 0.65043,-6.43197 1.95128,-8.07612 1.075,-1.35503 2.57459,-2.03256 4.49878,-2.03258 z m 0,3.15728 c -0.46073,10e-6 -0.87176,0.14681 -1.2331,0.44039 -0.36136,0.29361 -0.6414,0.81982 -0.84014,1.57864 -0.26198,0.98468 -0.39297,2.64236 -0.39296,4.97304 -1e-5,2.3307 0.11743,3.93192 0.35231,4.80367 0.23487,0.87175 0.53073,1.45217 0.88756,1.74124 0.35683,0.28908 0.7656,0.43362 1.22633,0.43362 0.46071,0 0.87174,-0.1468 1.23309,-0.4404 0.36134,-0.29359 0.64139,-0.8198 0.84014,-1.57863 0.26196,-0.97564 0.39295,-2.6288 0.39296,-4.9595 -1e-5,-2.33068 -0.11745,-3.9319 -0.35231,-4.80366 -0.23489,-0.87174 -0.53074,-1.45441 -0.88756,-1.74802 -0.35684,-0.29358 -0.76561,-0.44038 -1.22632,-0.44039 z"
         style="font-size:27.75149155px;font-variant:normal;font-weight:bold;writing-mode:lr-tb;fill:#000000;fill-opacity:1;fill-rule:nonzero;stroke:none;font-family:Arial;-inkscape-font-specification:Arial-BoldMT"
         id="path15219"
         inkscape:connector-curvature="0" />
    </g>
    <g
       transform="scale(0.93388723,1.0707931)"
       style="font-size:106.69429016px;fill:#000000;fill-opacity:1;stroke:none"
       id="text4708">
      <path
         d="m 324.37236,472.88744 0,-5.016 9.8535,0 0,5.016 z"
         style="font-size:36.55791092px;font-variant:normal;font-weight:bold;writing-mode:lr-tb;fill:#000000;fill-opacity:1;fill-rule:nonzero;stroke:none;font-family:Arial;-inkscape-font-specification:Arial-BoldMT"
         id="path15210"
         inkscape:connector-curvature="0" />
      <path
         d="m 336.04641,458.71411 0,-4.65899 17.15437,0 0,3.64151 c -1.41616,1.39236 -2.85611,3.39162 -4.31983,5.99778 -1.46376,2.6062 -2.57942,5.376 -3.34698,8.30943 -0.76758,2.93344 -1.14542,5.5545 -1.13351,7.86316 l -4.8375,0 c 0.0833,-3.6177 0.83005,-7.30681 2.24025,-11.06733 1.41018,-3.7605 3.29341,-7.12235 5.64969,-10.08556 z"
         style="font-size:36.55791092px;font-variant:normal;font-weight:bold;writing-mode:lr-tb;fill:#000000;fill-opacity:1;fill-rule:nonzero;stroke:none;font-family:Arial;-inkscape-font-specification:Arial-BoldMT"
         id="path15212"
         inkscape:connector-curvature="0" />
    </g>
    <g
       transform="scale(0.93389751,1.0707813)"
       style="font-size:106.69547272px;fill:#000000;fill-opacity:1;stroke:none"
       id="text4712">
      <path
         d="m 356.71214,476.0648 3.8077,0 0,2.72365 c -10e-6,1.10211 -0.0949,1.97161 -0.28456,2.60848 -0.18972,0.63688 -0.5488,1.20826 -1.07727,1.71414 -0.52848,0.50589 -1.19923,0.90337 -2.01225,1.19245 l -0.74528,-1.57186 c 0.76786,-0.25295 1.31439,-0.60074 1.63961,-1.04339 0.32521,-0.44265 0.49685,-1.04791 0.51492,-1.81577 l -1.84287,0 z"
         style="font-size:27.75149155px;font-variant:normal;font-weight:bold;writing-mode:lr-tb;fill:#000000;fill-opacity:1;fill-rule:nonzero;stroke:none;font-family:Arial;-inkscape-font-specification:Arial-BoldMT"
         id="path15203"
         inkscape:connector-curvature="0" />
      <path
         d="m 370.1454,459.92611 c 1.92416,2e-5 3.42827,0.68658 4.51233,2.05968 1.2918,1.62608 1.93771,4.32264 1.93772,8.08967 -1e-5,3.75802 -0.65044,6.45909 -1.95127,8.10322 -1.07502,1.35505 -2.57462,2.03258 -4.49878,2.03258 -1.93322,0 -3.49153,-0.74302 -4.67494,-2.22906 -1.18341,-1.48604 -1.77512,-4.13517 -1.77512,-7.94739 0,-3.73993 0.65043,-6.43197 1.95128,-8.07612 1.07501,-1.35503 2.5746,-2.03256 4.49878,-2.03258 z m 0,3.15728 c -0.46073,10e-6 -0.87176,0.14681 -1.2331,0.44039 -0.36135,0.29361 -0.6414,0.81982 -0.84013,1.57864 -0.26199,0.98468 -0.39297,2.64236 -0.39297,4.97304 0,2.3307 0.11743,3.93192 0.35232,4.80367 0.23487,0.87175 0.53072,1.45217 0.88756,1.74124 0.35682,0.28908 0.76559,0.43362 1.22632,0.43362 0.46071,0 0.87174,-0.1468 1.2331,-0.4404 0.36134,-0.29359 0.64138,-0.8198 0.84013,-1.57863 0.26197,-0.97564 0.39296,-2.6288 0.39297,-4.9595 -1e-5,-2.33068 -0.11745,-3.9319 -0.35232,-4.80366 -0.23488,-0.87174 -0.53074,-1.45441 -0.88756,-1.74802 -0.35684,-0.29358 -0.76561,-0.44038 -1.22632,-0.44039 z"
         style="font-size:27.75149155px;font-variant:normal;font-weight:bold;writing-mode:lr-tb;fill:#000000;fill-opacity:1;fill-rule:nonzero;stroke:none;font-family:Arial;-inkscape-font-specification:Arial-BoldMT"
         id="path15205"
         inkscape:connector-curvature="0" />
      <path
         d="m 385.57527,459.92611 c 1.92417,2e-5 3.42827,0.68658 4.51233,2.05968 1.2918,1.62608 1.93771,4.32264 1.93772,8.08967 -1e-5,3.75802 -0.65044,6.45909 -1.95127,8.10322 -1.07502,1.35505 -2.57461,2.03258 -4.49878,2.03258 -1.93322,0 -3.49153,-0.74302 -4.67493,-2.22906 -1.18342,-1.48604 -1.77513,-4.13517 -1.77512,-7.94739 -1e-5,-3.73993 0.65042,-6.43197 1.95127,-8.07612 1.07501,-1.35503 2.5746,-2.03256 4.49878,-2.03258 z m 0,3.15728 c -0.46073,10e-6 -0.87176,0.14681 -1.2331,0.44039 -0.36135,0.29361 -0.6414,0.81982 -0.84013,1.57864 -0.26198,0.98468 -0.39297,2.64236 -0.39297,4.97304 0,2.3307 0.11743,3.93192 0.35232,4.80367 0.23487,0.87175 0.53072,1.45217 0.88756,1.74124 0.35682,0.28908 0.76559,0.43362 1.22632,0.43362 0.46071,0 0.87174,-0.1468 1.2331,-0.4404 0.36134,-0.29359 0.64138,-0.8198 0.84013,-1.57863 0.26197,-0.97564 0.39296,-2.6288 0.39297,-4.9595 -1e-5,-2.33068 -0.11745,-3.9319 -0.35232,-4.80366 -0.23488,-0.87174 -0.53074,-1.45441 -0.88756,-1.74802 -0.35684,-0.29358 -0.76561,-0.44038 -1.22632,-0.44039 z"
         style="font-size:27.75149155px;font-variant:normal;font-weight:bold;writing-mode:lr-tb;fill:#000000;fill-opacity:1;fill-rule:nonzero;stroke:none;font-family:Arial;-inkscape-font-specification:Arial-BoldMT"
         id="path15207"
         inkscape:connector-curvature="0" />
    </g>
  </g>
</svg>
