<?xml version="1.0" encoding="UTF-8" standalone="no"?>
<!-- Created with Inkscape (http://www.inkscape.org/) -->

<svg
   xmlns:dc="http://purl.org/dc/elements/1.1/"
   xmlns:cc="http://creativecommons.org/ns#"
   xmlns:rdf="http://www.w3.org/1999/02/22-rdf-syntax-ns#"
   xmlns:svg="http://www.w3.org/2000/svg"
   xmlns="http://www.w3.org/2000/svg"
   xmlns:sodipodi="http://sodipodi.sourceforge.net/DTD/sodipodi-0.dtd"
   xmlns:inkscape="http://www.inkscape.org/namespaces/inkscape"
   version="1.0"
   width="600"
   height="600"
   id="svg2"
   sodipodi:version="0.32"
   inkscape:version="0.47 r22583"
   sodipodi:docname="20100715203626!Italian_traffic_signs_-_rotatoria.svg"
   inkscape:output_extension="org.inkscape.output.svg.inkscape">
  <metadata
     id="metadata12">
    <rdf:RDF>
      <cc:Work
         rdf:about="">
        <dc:format>image/svg+xml</dc:format>
        <dc:type
           rdf:resource="http://purl.org/dc/dcmitype/StillImage" />
        <dc:title></dc:title>
      </cc:Work>
    </rdf:RDF>
  </metadata>
  <sodipodi:namedview
     inkscape:window-height="1003"
     inkscape:window-width="1280"
     inkscape:pageshadow="2"
     inkscape:pageopacity="0.0"
     guidetolerance="10.0"
     gridtolerance="10.0"
     objecttolerance="10.0"
     borderopacity="1.0"
     bordercolor="#666666"
     pagecolor="#ffffff"
     id="base"
     inkscape:zoom="0.42111111"
     inkscape:cx="11.737264"
     inkscape:cy="224.53081"
     inkscape:window-x="98"
     inkscape:window-y="18"
     inkscape:current-layer="svg2"
     width="200px"
     height="200px"
     showgrid="false"
     inkscape:showpageshadow="false"
     inkscape:window-maximized="0" />
  <defs
     id="defs4" />
  <g
     id="g1882"
     transform="matrix(3,0,0,3,-776.09399,52.48778)" />
  <g
     id="g2461"
     transform="matrix(3,0,0,3,-471.70599,24.49078)" />
  <path
     d="m 600.00001,300 c 0.0277,165.67729 -134.29498,300 -300,300 C 134.29497,600 -0.02772571,465.67729 4.2927282e-6,300 -0.02769571,134.3227 134.29497,0 300.00001,0 c 165.70502,0 300.02773,134.3227 300,300 l 0,0 z"
     style="fill:#000000;fill-opacity:1;fill-rule:evenodd;stroke:none"
     id="path2683" />
  <path
     d="m 596.99995,299.94978 c 0,164.02853 -132.97139,296.99993 -296.99993,296.99993 -164.02854,0 -296.9999357,-132.9714 -296.9999357,-296.99993 0,-164.02854 132.9713957,-296.99994 296.9999357,-296.99994 164.02854,0 296.99993,132.9714 296.99993,296.99994 l 0,0 z"
     style="fill:#ffffff;fill-opacity:1;fill-rule:evenodd;stroke:none"
     id="path2685" />
  <path
     style="fill:#00408b;fill-opacity:1;fill-rule:evenodd;stroke:none"
     d="m 300.00001,8.94985 c 160.71485,0 290.99992,130.28507 290.99992,290.99992 0,160.71485 -130.28508,290.99989 -290.99992,290.99992 C 139.28516,590.94969 9.0001243,460.66462 9.0000943,299.94977 9.0000943,139.23491 139.28516,8.94985 300.00001,8.94985 z"
     id="path1877"
     sodipodi:nodetypes="cssss" />
  <path
     style="fill:#ffffff;fill-opacity:1;fill-rule:evenodd;stroke:none"
     d="m 265.402,39.05971 c -2.48763,-0.18029 -5.51601,1.128 -8.88771,4.44384 -9.27087,9.11718 -110.20744,114.65131 -110.20744,114.65131 -9.41982,9.50514 -7.63419,15.01842 5.5548,17.77539 -6e-5,0 142.53265,31.37619 155.31253,33.77325 12.39441,2.32473 14.51082,-6.47736 10.44303,-13.33155 -8.01957,-14.2029 -14.6637,-29.13408 -21.33048,-43.9941 1.26504,-0.033 2.50392,0 3.77727,0 53.36826,0 100.20495,28.35795 126.42745,70.65717 l 44.66067,-35.55078 C 434.36417,132.18122 371.46691,95.7188 300.064,95.7188 c -6.98124,0 -13.8594,0.42816 -20.66388,1.11096 -3.15456,-15.88095 -5.3406,-32.06955 -6.88797,-48.21577 -0.279,-4.97373 -2.96409,-9.25356 -7.11015,-9.55428 z M 116.97744,208.14815 c -14.15646,27.84418 -22.219226,59.27563 -22.219226,92.65423 0,45.44229 14.935016,87.34512 39.994616,121.31703 -12.05754,11.12086 -24.57831,21.736 -37.550516,31.77355 -6.48738,4.63062 -8.05731,13.34682 4.221656,16.22004 12.66069,2.96238 155.9791,31.99572 155.9791,31.99572 13.06833,2.88117 16.71762,-1.59981 11.99838,-14.22033 0,0 -49.6324,-137.2309 -54.43714,-149.31331 -4.65993,-11.71803 -13.26786,-8.65683 -16.88664,-1.55535 -6.38223,12.52428 -24.6246,39.71379 -25.10775,40.43901 -13.54185,-22.35105 -21.33045,-48.64692 -21.33045,-76.65636 0,-23.40378 5.67561,-45.41067 15.33126,-65.10237 l -49.99329,-27.55186 z m 375.28295,23.5524 c -2.50965,0.53004 -5.48622,2.70721 -8.88771,6.44359 0,0 -99.21037,106.85718 -107.76331,116.65101 -8.29494,9.49848 -1.74903,15.80082 6.22137,15.77565 13.90833,-0.0438 45.58201,3.60456 47.10484,3.77727 -23.39065,40.78947 -65.36779,69.69745 -114.42907,74.43445 l -1.11096,56.88126 c 76.48461,-4.89576 141.64252,-51.75486 172.64344,-117.76198 15.66846,5.19894 31.0188,11.87637 45.99384,18.88635 7.083,3.65538 15.49647,1.12572 12.44277,-11.10963 -3.14859,-12.61569 -42.88314,-153.31272 -42.88314,-153.31272 -2.12946,-8.08818 -5.14929,-11.54863 -9.33207,-10.66525 z"
     id="path1895"
     sodipodi:nodetypes="cscssccsccsccccsccsccsscsccccsscccccscc" />
</svg>
