<?xml version="1.0" encoding="UTF-8" standalone="no"?>
<!-- Created with Inkscape (http://www.inkscape.org/) -->

<svg
   xmlns:dc="http://purl.org/dc/elements/1.1/"
   xmlns:cc="http://creativecommons.org/ns#"
   xmlns:rdf="http://www.w3.org/1999/02/22-rdf-syntax-ns#"
   xmlns:svg="http://www.w3.org/2000/svg"
   xmlns="http://www.w3.org/2000/svg"
   xmlns:sodipodi="http://sodipodi.sourceforge.net/DTD/sodipodi-0.dtd"
   xmlns:inkscape="http://www.inkscape.org/namespaces/inkscape"
   version="1.0"
   width="834.08563"
   height="734.98938"
   id="svg2"
   sodipodi:version="0.32"
   inkscape:version="0.47 r22583"
   sodipodi:docname="ZZ.svg"
   inkscape:output_extension="org.inkscape.output.svg.inkscape">
  <metadata
     id="metadata12">
    <rdf:RDF>
      <cc:Work
         rdf:about="">
        <dc:format>image/svg+xml</dc:format>
        <dc:type
           rdf:resource="http://purl.org/dc/dcmitype/StillImage" />
      </cc:Work>
    </rdf:RDF>
  </metadata>
  <sodipodi:namedview
     inkscape:window-height="1003"
     inkscape:window-width="1280"
     inkscape:pageshadow="2"
     inkscape:pageopacity="0.0"
     guidetolerance="10.0"
     gridtolerance="10.0"
     objecttolerance="10.0"
     borderopacity="1.0"
     bordercolor="#666666"
     pagecolor="#ffffff"
     id="base"
     inkscape:zoom="0.31112698"
     inkscape:cx="323.13259"
     inkscape:cy="398.32298"
     inkscape:window-x="-4"
     inkscape:window-y="-4"
     inkscape:current-layer="svg2"
     width="200px"
     height="200px"
     showgrid="false"
     inkscape:showpageshadow="false"
     inkscape:window-maximized="0" />
  <defs
     id="defs4">
    <inkscape:perspective
       sodipodi:type="inkscape:persp3d"
       inkscape:vp_x="0 : 450 : 1"
       inkscape:vp_y="0 : 1000 : 0"
       inkscape:vp_z="900 : 450 : 1"
       inkscape:persp3d-origin="450 : 300 : 1"
       id="perspective19" />
  </defs>
  <path
     sodipodi:nodetypes="cscssssssc"
     id="path3084"
     d="M 454.97828,22.43 C 447.54398,9.5545 432.99948,1.5 417.04268,1.5 c -16.2469,0 -30.7968,8.495 -38.3717,21.6152 L 8.0043801,665.1866 c -7.9552,13.7802 -9.1331,31.1377 -0.6229,45.8778 8.1234999,14.0703 22.7545999,22.425 37.9044999,22.425 l 743.51342,0 c 15.1499,0 29.781,-8.3548 37.9045,-22.425 8.5102,-14.74 7.333,-32.098 -0.623,-45.8778 L 454.97828,22.43 z"
     style="fill:#ffffff;fill-opacity:1;fill-rule:nonzero;stroke:#000000;stroke-width:3;stroke-linecap:round;stroke-linejoin:round;stroke-miterlimit:2;stroke-opacity:1;stroke-dasharray:none;stroke-dashoffset:0" />
  <path
     style="fill:#d40000;fill-opacity:1;fill-rule:nonzero;stroke:none"
     d="m 417.05288,16.5053 c 10.9092,0 20.385,5.5528 24.9376,13.4375 l 371.09372,642.75 c 5.549,9.6109 6.2861,21.0698 0.625,30.875 -5.5096,9.5428 -15.2711,14.9062 -24.9063,14.9063 l -743.53122,0 c -9.6352,0 -19.3966,-5.3633 -24.9062,-14.9063 -5.6611,-9.8052 -4.924,-21.2631 0.625,-30.875 L 391.64668,30.6303 c 4.8181,-8.3452 14.3881,-14.125 25.4062,-14.125 z"
     id="path3092" />
  <path
     style="fill:#ffffff;fill-opacity:1;fill-rule:nonzero;stroke:none"
     d="m 417.02168,146.6928 283.93752,491.7813 -567.84372,0 283.9062,-491.7813 z"
     id="path3102" />
  <g
     id="g5634"
     transform="matrix(4.17043,0,0,4.17043,-913.98876,-48.694607)" />
  <g
     id="g2402"
     transform="translate(890.11158,-82.5053)">
    <path
       sodipodi:nodetypes="ccccccccccccccccccccccscccscsscssccsccscccsscssccssssccscccccssssc"
       id="path2590"
       d="m -374.30982,517.34459 c -10e-6,0 32.53767,54.51006 34.37245,57.57946 l -11.12231,-4.22462 -25.98401,-46.08949 -39.66814,-15.03496 -13.54347,31.18507 -5.70382,-2.19104 13.82881,-31.02759 -46.93347,-17.76902 -30.20664,24.85959 -34.27209,-12.96073 55.67846,-23.50977 103.55423,39.1831 z m 104.92444,96.62737 -4.10657,19.48316 -333.31918,-126.11942 17.93022,-21.21251 243.84315,92.2607 75.65238,35.58807 z m -9.21046,26.61047 -17.1266,15.80645 -25.57111,-4.54205 c 0.2969,-0.64595 0.5758,-1.31259 0.83111,-1.98745 3.34357,-8.83864 2.35376,-18.21291 -1.94789,-25.8562 l 43.81449,16.57925 z m -58.96783,-23.13516 c 2.23539,1.19589 4.21388,2.71266 5.90441,4.4289 0.0146,0.0149 0.0261,0.008 0.0408,0.0225 8.69057,6.33279 12.49996,17.87337 8.5119,28.4157 -4.78407,12.64647 -18.94147,19.04314 -31.58791,14.2591 -3.40417,-1.28778 -6.34289,-3.29883 -8.74788,-5.73239 -9.80585,-7.06407 -13.16228,-20.42545 -7.30814,-31.36738 5.97982,-11.17697 19.43606,-15.83949 30.91823,-11.11898 0.76552,0.31464 1.52348,0.69386 2.26861,1.09256 z m -21.6221,-7.36111 c -8.2845,2.88216 -15.27318,9.28189 -18.61707,18.12137 -0.35177,0.92982 -0.68993,1.83465 -0.9465,2.77462 l -135.13754,-51.1382 c 0.42987,-0.87447 0.82111,-1.77315 1.17285,-2.70295 3.34387,-8.8395 2.31399,-18.23503 -1.98865,-25.87871 l 155.51691,58.82387 z m 19.37194,21.16864 c -0.61425,-0.36864 -1.22644,-0.69106 -1.91996,-0.95337 -6.27341,-2.37322 -13.27174,0.77878 -15.6449,7.0522 -1.60168,4.23399 -0.6874,8.80827 2.00936,12.06381 0.1788,0.10768 0.32126,0.23365 0.50735,0.33328 5.9141,3.16411 13.29159,0.95769 16.45564,-4.95628 2.40717,-4.49932 1.67692,-9.84855 -1.40749,-13.53964 z m -189.97898,-86.56661 c 11.92209,6.37844 16.40492,21.26467 10.02638,33.18678 -6.37849,11.92198 -21.22396,16.42725 -33.14599,10.0488 -11.9221,-6.37847 -16.50892,-21.26898 -10.13043,-33.19095 5.97984,-11.177 19.47682,-15.817 30.95901,-11.09647 0.76549,0.31463 1.54593,0.65316 2.29103,1.05184 z m -21.64455,-7.32043 c -8.28453,2.88214 -15.29141,9.21859 -18.63536,18.05821 -0.34605,0.91476 -0.62929,1.8315 -0.8832,2.75629 l -41.57646,-18.32178 1.27379,-25.14153 59.82123,22.64881 z m 15.82316,18.25268 c -0.36955,-0.19786 -0.74342,-0.41068 -1.123,-0.56674 -5.69421,-2.34027 -12.36624,-0.0215 -15.33263,5.52301 -3.16407,5.91396 -0.95774,13.29142 4.95627,16.45563 5.91412,3.16411 13.29158,0.95769 16.45564,-4.95627 3.16403,-5.91414 0.95781,-13.29156 -4.95628,-16.45563 z"
       style="fill:#000000;fill-opacity:1;fill-rule:nonzero;stroke:none" />
    <path
       sodipodi:nodetypes="ccccc"
       id="rect4738"
       d="m -640.2112,561.96179 51.6782,0 0,144.13198 -136.43043,0 84.75223,-144.13198 z"
       style="fill:#000000;fill-opacity:1;fill-rule:evenodd;stroke:none" />
    <path
       sodipodi:nodetypes="cszzzzzzzzzsc"
       id="path5665"
       d="m -576.38864,684.9559 c 0,0 5.03732,-4.39263 11.36921,-4.39263 10.5609,0 17.95745,10.07722 30.95525,10.07722 13.25613,0 16.46786,-10.07722 30.95524,-10.07722 14.48737,0 16.30882,10.07722 30.95524,10.07722 14.9048,0 16.5743,-10.07722 30.95524,-10.07722 14.63925,0 17.74067,10.07722 30.95526,10.07722 13.47241,0 17.61815,-10.07722 30.95523,-10.07722 13.30701,0 17.62912,10.07722 30.95522,10.07722 13.32611,0 16.90639,-10.07722 30.95527,-10.07722 14.04889,0 17.77617,10.07722 30.95518,10.07722 13.17902,0 19.64452,-10.07722 30.95523,-10.07722 8.72679,0 15.76185,4.39263 15.76185,4.39263"
       style="fill:none;stroke:#000000;stroke-width:10.42607498;stroke-linecap:butt;stroke-linejoin:miter;stroke-miterlimit:4;stroke-opacity:1;stroke-dasharray:none" />
    <path
       sodipodi:nodetypes="cszzzzzzzzzsc"
       id="path5667"
       d="m -577.55139,701.36375 c 0,0 5.03731,-4.39263 11.36921,-4.39263 10.56089,0 17.95744,10.07722 30.95524,10.07722 13.25614,0 16.46787,-10.07722 30.95524,-10.07722 14.48737,0 16.30883,10.07722 30.95524,10.07722 14.9048,0 16.5743,-10.07722 30.95524,-10.07722 14.63925,0 17.74068,10.07722 30.95527,10.07722 13.4724,0 19.72538,-10.07722 30.95522,-10.07722 11.22984,0 17.62912,10.07722 30.95523,10.07722 13.32611,0 16.90638,-10.07722 30.95526,-10.07722 14.04889,0 17.77617,10.07722 30.95519,10.07722 13.17901,0 19.64452,-10.07722 30.95522,-10.07722 14.93711,0 21.44644,7.4933 30.23174,8.0101"
       style="fill:none;stroke:#000000;stroke-width:10.42607498;stroke-linecap:butt;stroke-linejoin:miter;stroke-miterlimit:4;stroke-opacity:1;stroke-dasharray:none" />
  </g>
  <path
     style="fill:#000000"
     d="m -1607.7539,1565.0109 c 0,0 0,0 0,0 z"
     id="path2835" />
  <path
     style="fill:#000000"
     d="m -1610.7227,1565.0734 0,0 z"
     id="path2833" />
  <path
     style="fill:#000000"
     d="m -2816.5588,889.49385 c 0,0 0,0 0,0 z"
     id="path2427" />
  <path
     style="fill:#000000"
     d="m -2819.5276,889.55635 0,0 z"
     id="path2429" />
</svg>
