<?xml version="1.0" encoding="UTF-8" standalone="no"?>
<svg
   xmlns:dc="http://purl.org/dc/elements/1.1/"
   xmlns:cc="http://creativecommons.org/ns#"
   xmlns:rdf="http://www.w3.org/1999/02/22-rdf-syntax-ns#"
   xmlns:svg="http://www.w3.org/2000/svg"
   xmlns="http://www.w3.org/2000/svg"
   xmlns:sodipodi="http://sodipodi.sourceforge.net/DTD/sodipodi-0.dtd"
   xmlns:inkscape="http://www.inkscape.org/namespaces/inkscape"
   width="917.6944"
   height="495.34784"
   id="svg28436"
   version="1.1"
   inkscape:version="1.0.1 (3bc2e813f5, 2020-09-07)"
   sodipodi:docname="Italian_traffic_signs_-_segnali_di_territorio.svg">
  <defs
     id="defs28438">
    <inkscape:perspective
       sodipodi:type="inkscape:persp3d"
       inkscape:vp_x="0 : 526.18109 : 1"
       inkscape:vp_y="0 : 1000 : 0"
       inkscape:vp_z="744.09448 : 526.18109 : 1"
       inkscape:persp3d-origin="372.04724 : 350.78739 : 1"
       id="perspective28444" />
    <inkscape:perspective
       id="perspective28364"
       inkscape:persp3d-origin="0.5 : 0.33333333 : 1"
       inkscape:vp_z="1 : 0.5 : 1"
       inkscape:vp_y="0 : 1000 : 0"
       inkscape:vp_x="0 : 0.5 : 1"
       sodipodi:type="inkscape:persp3d" />
    <inkscape:perspective
       id="perspective31562"
       inkscape:persp3d-origin="0.5 : 0.33333333 : 1"
       inkscape:vp_z="1 : 0.5 : 1"
       inkscape:vp_y="0 : 1000 : 0"
       inkscape:vp_x="0 : 0.5 : 1"
       sodipodi:type="inkscape:persp3d" />
    <inkscape:perspective
       id="perspective35225"
       inkscape:persp3d-origin="0.5 : 0.33333333 : 1"
       inkscape:vp_z="1 : 0.5 : 1"
       inkscape:vp_y="0 : 1000 : 0"
       inkscape:vp_x="0 : 0.5 : 1"
       sodipodi:type="inkscape:persp3d" />
    <inkscape:perspective
       id="perspective35370"
       inkscape:persp3d-origin="0.5 : 0.33333333 : 1"
       inkscape:vp_z="1 : 0.5 : 1"
       inkscape:vp_y="0 : 1000 : 0"
       inkscape:vp_x="0 : 0.5 : 1"
       sodipodi:type="inkscape:persp3d" />
    <inkscape:perspective
       id="perspective35527"
       inkscape:persp3d-origin="0.5 : 0.33333333 : 1"
       inkscape:vp_z="1 : 0.5 : 1"
       inkscape:vp_y="0 : 1000 : 0"
       inkscape:vp_x="0 : 0.5 : 1"
       sodipodi:type="inkscape:persp3d" />
    <inkscape:perspective
       id="perspective36724"
       inkscape:persp3d-origin="0.5 : 0.33333333 : 1"
       inkscape:vp_z="1 : 0.5 : 1"
       inkscape:vp_y="0 : 1000 : 0"
       inkscape:vp_x="0 : 0.5 : 1"
       sodipodi:type="inkscape:persp3d" />
    <inkscape:path-effect
       effect="spiro"
       is_visible="true"
       id="path-effect3618" />
    <inkscape:path-effect
       effect="spiro"
       is_visible="true"
       id="path-effect3757" />
    <inkscape:path-effect
       effect="spiro"
       is_visible="true"
       id="path-effect3761" />
    <inkscape:path-effect
       effect="spiro"
       is_visible="true"
       id="path-effect3761-4" />
    <inkscape:path-effect
       effect="spiro"
       is_visible="true"
       id="path-effect3757-9" />
    <inkscape:path-effect
       effect="spiro"
       is_visible="true"
       id="path-effect3852" />
    <inkscape:perspective
       id="perspective36824"
       inkscape:persp3d-origin="0.5 : 0.33333333 : 1"
       inkscape:vp_z="1 : 0.5 : 1"
       inkscape:vp_y="0 : 1000 : 0"
       inkscape:vp_x="0 : 0.5 : 1"
       sodipodi:type="inkscape:persp3d" />
    <inkscape:perspective
       id="perspective39169"
       inkscape:persp3d-origin="0.5 : 0.33333333 : 1"
       inkscape:vp_z="1 : 0.5 : 1"
       inkscape:vp_y="0 : 1000 : 0"
       inkscape:vp_x="0 : 0.5 : 1"
       sodipodi:type="inkscape:persp3d" />
  </defs>
  <sodipodi:namedview
     id="base"
     pagecolor="#ffffff"
     bordercolor="#666666"
     borderopacity="1.0"
     inkscape:pageopacity="0.0"
     inkscape:pageshadow="2"
     inkscape:zoom="0.70710678"
     inkscape:cx="132.24146"
     inkscape:cy="130.8808"
     inkscape:document-units="px"
     inkscape:current-layer="text28723"
     showgrid="false"
     inkscape:window-width="1920"
     inkscape:window-height="1017"
     inkscape:window-x="-8"
     inkscape:window-y="-8"
     inkscape:window-maximized="1"
     inkscape:document-rotation="0"
     showguides="true"
     inkscape:guide-bbox="true">
    <sodipodi:guide
       position="68.986122,81.821749"
       orientation="1,0"
       id="guide924" />
    <sodipodi:guide
       position="216.87313,140.29545"
       orientation="1,0"
       id="guide926" />
  </sodipodi:namedview>
  <metadata
     id="metadata28441">
    <rdf:RDF>
      <cc:Work
         rdf:about="">
        <dc:format>image/svg+xml</dc:format>
        <dc:type
           rdf:resource="http://purl.org/dc/dcmitype/StillImage" />
        <dc:title />
      </cc:Work>
    </rdf:RDF>
  </metadata>
  <g
     inkscape:label="Livello 1"
     inkscape:groupmode="layer"
     id="layer1"
     transform="translate(848.25374,-415.92861)">
    <g
       style="font-size:45.64504242px;font-style:normal;font-variant:normal;font-weight:normal;font-stretch:normal;text-align:start;line-height:100%;writing-mode:lr-tb;text-anchor:start;fill:#000000;fill-opacity:1;stroke:none;font-family:Transport Heavy;-inkscape-font-specification:'Transport Heavy,'"
       id="text28723"
       transform="translate(3.5913023,0)">
      <rect
         style="fill:#ffffff;fill-opacity:1;stroke:#ffffff;stroke-width:0;stroke-linecap:butt;stroke-linejoin:round;stroke-miterlimit:4;stroke-opacity:1;stroke-dasharray:none;stroke-dashoffset:0"
         id="rect35215"
         width="1080.0236"
         height="529.90436"
         x="-907.64069"
         y="393.01505"
         rx="0"
         ry="0" />
      <g
         id="g23513"
         transform="matrix(7.2049019,0,0,-7.2049019,-115.9868,649.30979)"
         style="fill:#8f5545;fill-opacity:1">
        <path
           d="m 0,0 c -1.803,-0.976 -3.833,-1.503 -5.862,-1.503 l -96.271,0 0,33.895 96.271,0 c 2.029,0 4.059,-0.526 5.862,-1.504 L 24.425,16.909 c 0.751,-0.45 1.052,-1.503 0.601,-2.329 -0.151,-0.226 -0.376,-0.451 -0.601,-0.601 L 0,0 z"
           style="fill:#8f5545;fill-opacity:1;fill-rule:nonzero;stroke:none"
           id="path23515" />
      </g>
      <g
         id="g23517"
         transform="matrix(7.2049019,0,0,-7.2049019,-432.20787,644.97607)">
        <path
           d="m 0,0 0,-1.278 38.028,0 c 1.879,0 3.757,0.526 5.411,1.428 l 24.426,13.98 c 0.45,0.224 0.524,0.75 0.299,1.126 -0.075,0.15 -0.15,0.225 -0.299,0.301 L 43.439,29.536 c -1.654,0.902 -3.532,1.428 -5.411,1.428 l -38.028,0 0,-1.277 37.426,0 c 2.706,0 5.261,-1.053 7.065,-2.931 L 55.989,14.88 44.491,2.931 C 42.687,1.052 40.132,0 37.426,0 L 0,0 z"
           style="fill:#ffffff;fill-opacity:1;fill-rule:nonzero;stroke:none"
           id="path23519" />
      </g>
      <g
         id="g23521"
         transform="matrix(7.2049019,0,0,-7.2049019,-432.20787,431.0834)">
        <path
           d="m 0,0 0,1.276 -50.578,0 c -3.758,0 -6.839,-3.006 -6.839,-6.764 l 0,-18.713 c 0,-3.757 3.081,-6.764 6.839,-6.764 l 50.578,0 0,1.278 -50.578,0 c -3.081,0 -5.562,2.48 -5.562,5.486 l 0,18.713 c 0,3.007 2.481,5.488 5.562,5.488 L 0,0 z"
           style="fill:#ffffff;fill-opacity:1;fill-rule:nonzero;stroke:none"
           id="path23523" />
      </g>
      <g
         id="g23525"
         transform="matrix(7.2049019,0,0,-7.2049019,-206.15044,531.66815)">
        <path
           d="m 0,0 c -0.693,0 -1.051,0.531 -1.051,1.017 0,0.6 0.381,1.016 1.109,1.016 0.52,0 0.948,-0.393 0.948,-1.016 C 1.006,0.427 0.636,0 0,0 m 2.831,-2.438 c 0,1.063 -0.439,1.583 -1.225,1.976 0.659,0.346 0.948,0.948 0.948,1.652 0,1.132 -0.902,2.138 -2.6,2.138 -1.433,0 -2.554,-0.844 -2.554,-2.242 0,-0.763 0.347,-1.283 0.994,-1.606 -1.247,-0.578 -1.247,-1.664 -1.247,-2.08 0,-1.12 0.727,-2.495 2.842,-2.495 2.172,0 2.842,1.617 2.842,2.657 M 1.167,-2.507 c 0,-0.566 -0.323,-1.295 -1.167,-1.295 -0.739,0 -1.19,0.521 -1.19,1.306 0,0.89 0.567,1.271 1.156,1.271 0.901,0 1.201,-0.705 1.201,-1.282"
           style="fill:#ffffff;fill-opacity:1;fill-rule:evenodd;stroke:none"
           id="path23527" />
      </g>
      <g
         id="g23529"
         transform="matrix(7.2049019,0,0,-7.2049019,-660.92316,593.43577)">
        <path
           d="m 0,0 0,15.448 c 0,0.827 -0.69,1.516 -1.586,1.516 l -15.379,0 c -0.897,0 -1.517,-0.689 -1.517,-1.516 l 0,-15.448 c 0,-0.828 0.62,-1.586 1.517,-1.586 l 15.379,0 C -0.69,-1.586 0,-0.828 0,0"
           style="fill:#ffffff;fill-opacity:1;fill-rule:nonzero;stroke:none"
           id="path23531" />
      </g>
      <g
         id="g23533"
         transform="matrix(7.2049019,0,0,-7.2049019,-704.64827,583.00025)">
        <path
           d="m 0,0 0,0.069 0,0.069 -0.069,0.068 0,0.07 0,0.069 -0.069,0 0,0.068 -0.069,0.07 0,0.069 -0.069,0.068 -0.069,0 0,0.069 -0.069,0.069 -0.069,0 -0.069,0.07 -0.069,0.068 -0.069,0.069 -0.069,0 -0.068,0 -0.07,0.07 -0.068,0 -0.07,0 -0.068,0 0,0.068 -0.07,0 -0.068,0 -0.069,0 -0.069,0 -0.069,0 0,-0.068 -0.069,0 -0.069,0 -0.069,0 -0.069,-0.07 -0.069,0 -0.069,0 L -1.931,0.896 -2,0.828 l -0.069,0 0,-0.07 -0.069,0 -0.069,-0.069 -0.069,-0.069 -0.069,-0.068 0,-0.069 -0.069,0 0,-0.07 0,-0.068 -0.069,0 0,-0.069 0,-0.07 -0.069,-0.068 0,-0.069 0,-0.069 -6.275,0 0,0.206 1.655,0 -0.276,1.932 1.586,0 0,-1.932 1.931,0 0,1.932 6.345,0 L 2.138,0 0,0 z"
           style="fill:#000000;fill-opacity:1;fill-rule:nonzero;stroke:none"
           id="path23535" />
      </g>
      <g
         id="g23537"
         transform="matrix(7.2049019,0,0,-7.2049019,-702.16546,562.13336)">
        <path
           d="m 0,0 0,-0.276 2.069,0 -0.138,2.414 -1.931,0 0,-0.207 1.724,0 L 1.793,0 0,0 z"
           style="fill:#000000;fill-opacity:1;fill-rule:nonzero;stroke:none"
           id="path23539" />
      </g>
      <g
         id="g23541"
         transform="matrix(7.2049019,0,0,-7.2049019,-702.16546,548.22213)">
        <path
           d="m 0,0 0,0.207 -7.172,0 -0.552,-2.414 1.517,0 0,2.207 2,0 0,-2.207 4.207,0 0,0.276 -1.793,0 0,1.931 L 0,0 z"
           style="fill:#000000;fill-opacity:1;fill-rule:nonzero;stroke:none"
           id="path23543" />
      </g>
      <g
         id="g23545"
         transform="matrix(7.2049019,0,0,-7.2049019,-739.92779,532.8188)">
        <path
           d="M 0,0 -1.931,0 2.483,5.172 6.897,0 4.965,0 2.483,2.896 0,0 z"
           style="fill:#000000;fill-opacity:1;fill-rule:nonzero;stroke:none"
           id="path23547" />
      </g>
      <g
         id="g23549"
         transform="matrix(7.2049019,0,0,-7.2049019,-726.50869,485.61442)">
        <path
           d="M 0,0 0.62,-0.69 1.241,0 1.517,0 0.62,-1.035 -0.276,0 0,0 z"
           style="fill:#000000;fill-opacity:1;fill-rule:nonzero;stroke:none"
           id="path23551" />
      </g>
      <g
         id="g23605"
         transform="matrix(7.2049019,0,0,-7.2049019,-115.9868,900.44748)"
         style="fill:#8f5545;fill-opacity:1">
        <path
           d="m 0,0 c -1.803,-0.976 -3.833,-1.503 -5.862,-1.503 l -96.271,0 0,33.895 96.271,0 c 2.029,0 4.059,-0.526 5.862,-1.503 L 24.425,16.91 c 0.751,-0.451 1.052,-1.503 0.601,-2.33 -0.151,-0.225 -0.376,-0.45 -0.601,-0.601 L 0,0 z"
           style="fill:#8f5545;fill-opacity:1;fill-rule:nonzero;stroke:none"
           id="path23607" />
      </g>
      <g
         id="g23609"
         transform="matrix(7.2049019,0,0,-7.2049019,-432.20787,896.11371)">
        <path
           d="m 0,0 0,-1.277 38.028,0 c 1.879,0 3.757,0.525 5.411,1.427 l 24.426,13.98 c 0.45,0.225 0.524,0.75 0.299,1.127 -0.075,0.149 -0.15,0.225 -0.299,0.3 L 43.439,29.536 c -1.654,0.901 -3.532,1.427 -5.411,1.427 l -38.028,0 0,-1.276 37.426,0 c 2.706,0 5.261,-1.053 7.065,-2.931 L 55.989,14.88 44.491,2.931 C 42.687,1.052 40.132,0 37.426,0 L 0,0 z"
           style="fill:#ffffff;fill-opacity:1;fill-rule:nonzero;stroke:none"
           id="path23611" />
      </g>
      <g
         id="g23613"
         transform="matrix(7.2049019,0,0,-7.2049019,-432.20787,682.22109)">
        <path
           d="m 0,0 0,1.276 -50.578,0 c -3.758,0 -6.839,-3.005 -6.839,-6.764 l 0,-18.713 c 0,-3.757 3.081,-6.763 6.839,-6.763 l 50.578,0 0,1.277 -50.578,0 c -3.081,0 -5.562,2.48 -5.562,5.486 l 0,18.713 c 0,3.007 2.481,5.488 5.562,5.488 L 0,0 z"
           style="fill:#ffffff;fill-opacity:1;fill-rule:nonzero;stroke:none"
           id="path23615" />
      </g>
      <g
         id="g23617"
         transform="matrix(7.2049019,0,0,-7.2049019,-660.87273,845.32278)">
        <path
           d="m 0,0 0,15.417 c 0,0.825 -0.688,1.514 -1.583,1.514 l -15.348,0 c -0.895,0 -1.514,-0.689 -1.514,-1.514 l 0,-15.417 c 0,-0.826 0.619,-1.583 1.514,-1.583 l 15.348,0 C -0.688,-1.583 0,-0.826 0,0"
           style="fill:#ffffff;fill-opacity:1;fill-rule:nonzero;stroke:none"
           id="path23619" />
      </g>
      <path
         d="m -782.85892,841.3572 34.21608,0 0,1.49141 -34.21608,0 0,-1.49141 z"
         style="fill:#0060a8;fill-opacity:1;fill-rule:nonzero;stroke:none"
         id="path23621" />
      <path
         d="m -782.85892,837.3873 34.21608,0 0,1.49141 -34.21608,0 0,-1.49141 z"
         style="fill:#0060a8;fill-opacity:1;fill-rule:nonzero;stroke:none"
         id="path23623" />
      <path
         d="m -782.85892,833.4246 34.71322,0 0,1.48421 -34.71322,0 0,-1.48421 z"
         style="fill:#0060a8;fill-opacity:1;fill-rule:nonzero;stroke:none"
         id="path23625" />
      <path
         d="m -782.85892,829.4547 34.71322,0 0,0.98707 -34.71322,0 0,-0.98707 z"
         style="fill:#0060a8;fill-opacity:1;fill-rule:nonzero;stroke:none"
         id="path23627" />
      <g
         id="g23629"
         transform="matrix(7.2049019,0,0,-7.2049019,-747.6522,813.09024)">
        <path
           d="m 0,0 -0.069,-1.859 -4.818,0 0,0.964 0,0.895 2.753,0 L 0,0 z"
           style="fill:#0060a8;fill-opacity:1;fill-rule:nonzero;stroke:none"
           id="path23631" />
      </g>
      <path
         d="m -737.73462,841.3572 25.28921,0 0,1.49141 -25.28921,0 0,-1.49141 z"
         style="fill:#0060a8;fill-opacity:1;fill-rule:nonzero;stroke:none"
         id="path23633" />
      <path
         d="m -737.23748,837.3873 24.79207,0 0,1.49141 -24.79207,0 0,-1.49141 z"
         style="fill:#0060a8;fill-opacity:1;fill-rule:nonzero;stroke:none"
         id="path23635" />
      <path
         d="m -737.23748,833.4246 24.30213,0 0,1.48421 -24.30213,0 0,-1.48421 z"
         style="fill:#0060a8;fill-opacity:1;fill-rule:nonzero;stroke:none"
         id="path23637" />
      <path
         d="m -737.23748,829.4547 24.30213,0 0,0.98707 -24.30213,0 0,-0.98707 z"
         style="fill:#0060a8;fill-opacity:1;fill-rule:nonzero;stroke:none"
         id="path23639" />
      <g
         id="g23641"
         transform="matrix(7.2049019,0,0,-7.2049019,-736.74397,813.09024)">
        <path
           d="m 0,0 3.235,0 0.069,-1.859 -3.373,0 L 0,0 z"
           style="fill:#0060a8;fill-opacity:1;fill-rule:nonzero;stroke:none"
           id="path23643" />
      </g>
      <g
         id="g23645"
         transform="matrix(7.2049019,0,0,-7.2049019,-701.0415,813.09024)">
        <path
           d="m 0,0 1.17,0 2.822,0 0,-0.757 0,-1.102 -4.267,0 L -0.344,-1.17 0,0 z"
           style="fill:#0060a8;fill-opacity:1;fill-rule:nonzero;stroke:none"
           id="path23647" />
      </g>
      <path
         d="m -703.0214,829.4547 30.74331,0 0,0.98707 -30.74331,0 0,-0.98707 z"
         style="fill:#0060a8;fill-opacity:1;fill-rule:nonzero;stroke:none"
         id="path23649" />
      <path
         d="m -702.52426,833.4246 30.24617,0 0,1.48421 -30.24617,0 0,-1.48421 z"
         style="fill:#0060a8;fill-opacity:1;fill-rule:nonzero;stroke:none"
         id="path23651" />
      <path
         d="m -702.52426,837.3873 30.24617,0 0,1.49141 -30.24617,0 0,-1.49141 z"
         style="fill:#0060a8;fill-opacity:1;fill-rule:nonzero;stroke:none"
         id="path23653" />
      <path
         d="m -702.03433,841.3572 29.75624,0 0,1.49141 -29.75624,0 0,-1.49141 z"
         style="fill:#0060a8;fill-opacity:1;fill-rule:nonzero;stroke:none"
         id="path23655" />
      <g
         id="g23657"
         transform="matrix(7.2049019,0,0,-7.2049019,-732.77551,768.46377)">
        <path
           d="m 0,0 -0.207,-0.068 -0.068,-0.07 -0.138,0 -0.069,0 -0.069,-0.068 -0.137,0 -0.069,-0.069 -0.069,0 -0.138,0 -0.137,0 -0.069,0 -0.138,0 -0.069,0 -0.137,0 -0.069,0 -0.138,0.069 -0.138,0 -0.068,0 -0.138,0.068 -0.068,0 -0.069,0.07 L -2.34,0 l -0.069,0.069 -0.138,0 -0.069,0.068 -0.068,0.07 -0.069,0.068 -0.069,0.069 -0.069,0.069 -0.069,0.069 -0.068,0.069 -0.138,0.137 -0.069,-0.068 -0.069,0 -0.069,-0.069 -0.068,0 -0.069,0 -0.069,0 -0.069,-0.069 -0.069,0 -0.068,0 -0.069,0 -0.069,0 -0.069,0 -0.069,0 -0.069,0.069 -0.069,0 -0.068,0 -0.069,0.069 -0.069,0 -0.069,0 -0.138,0.068 -0.206,0 -0.138,0 -0.068,0 -0.069,0 -0.069,0 -0.069,0.069 -0.069,0 -0.069,0 -0.068,0 -0.069,0.069 -0.069,0 -0.069,0 -0.069,0.069 -0.068,0.069 -0.069,0 -0.069,0.069 -0.069,0.069 -0.069,0.068 -0.069,0.069 0,0.069 -0.068,0.068 0,0.069 -0.07,0.069 0,0.069 0,0.069 -0.068,0.069 0,0.068 0,0.07 0,0.068 0,0.069 0,0.069 0,0.069 0,0.069 0,0.068 0.068,0.069 0,0.069 0,0.069 0,0.068 0.07,0 0,0.07 0.068,0.069 0.069,0.068 0,0.069 0.069,0 0.069,0.068 0,0.07 0.069,0 0.069,0.068 0.068,0 0.069,0 0,0.069 0.069,0 0.069,0.069 0.069,0 0.068,0 0.207,0.069 0.206,0 0.207,0.069 0.275,0 0.275,0 0.276,0 0.688,0 0.069,0.137 0,0.069 0,0.069 0.069,0 0,0.069 0.069,0.069 0.068,0 0.069,0.069 0.069,0.068 0.069,0 0.069,0.069 0.068,0 0.207,0.069 0.138,0 0.138,0.069 0.137,0.069 0.137,0 0.207,0 0.138,0 0.206,0.068 0.207,0 0.206,0 0.207,-0.068 0.206,0 0.138,0 0.137,0 0.138,-0.069 0.138,0 0.068,-0.069 0.138,0 0.069,-0.069 0.069,0 0.069,-0.069 0,-0.068 0.069,0 0.069,-0.069 0,-0.069 0.137,0.069 0.069,0 0.068,0 0.07,0 0.068,0 0.069,0 0.069,0 0.069,0 0.069,0 0.068,-0.069 0.069,0 0.069,-0.069 0.069,0 0,-0.069 0.069,0 0,-0.069 0.069,0 0,-0.069 0.068,-0.068 0,-0.069 0.069,0 0,-0.069 0,-0.069 0.069,-0.069 0,-0.068 0,-0.07 0,-0.068 0,-0.069 0,-0.068 0,-0.069 -0.069,-0.07 0.207,0 0.068,0 0.069,0 0.069,0 0.138,0 0.137,0 0.138,0 0.138,-0.068 0.138,0 0.206,-0.069 0.275,-0.069 0.069,0 0.069,0 0.069,-0.069 0.068,0 0,-0.068 0.069,0 0.069,-0.069 0.069,-0.069 0.069,-0.069 0,-0.069 0.069,-0.068 0,-0.07 0,-0.068 0.069,-0.069 0,-0.069 0,-0.069 0,-0.069 0,-0.069 0,-0.068 -0.069,0 0,-0.069 0,-0.069 -0.069,-0.068 0,-0.069 0,-0.069 -0.069,0 -0.069,-0.069 0,-0.069 -0.069,0 0,-0.069 -0.069,0 -0.068,0 0,-0.069 -0.069,0 -0.069,-0.068 -0.069,0 -0.068,0 -0.07,-0.069 -0.206,0 -0.137,-0.069 -0.138,0 -0.207,-0.069 0,-0.138 0,-0.068 0,-0.07 -0.069,-0.068 0,-0.069 0,-0.068 -0.068,0 0,-0.07 -0.069,0 0,-0.068 -0.069,0 0,-0.069 -0.069,0 0,-0.069 -0.069,0 -0.069,0 -0.137,-0.069 -0.069,0 -0.138,0 -0.137,0 -0.069,0 -0.138,0 -0.688,0 -0.069,0 -0.068,0.069 -0.069,0 -0.069,0 -0.069,0.069 -0.069,0 -0.069,0.069 -0.069,0 0,0.068 -0.069,0 L 0,0 z"
           style="fill:#418857;fill-opacity:1;fill-rule:nonzero;stroke:none"
           id="path23659" />
      </g>
      <g
         id="g23661"
         transform="matrix(7.2049019,0,0,-7.2049019,-719.38806,797.71855)">
        <path
           d="m 0,0 -0.137,0 -0.138,0 -0.138,0 -0.069,0 -0.068,0 -0.069,0 -0.069,0 -0.069,0 -0.069,0.069 -0.068,0 -0.07,0 -0.068,0.068 -0.069,0.069 -0.069,0 -0.069,0.069 -0.068,0.069 -0.07,0.069 0,0.069 -0.068,0 0,0.068 0,0.07 -0.069,0 0,0.068 0,0.069 0,0.069 0,0.069 -0.069,0.069 -0.138,0.068 -0.137,0.069 -0.069,0.069 -0.069,0 -0.069,0.069 0,0.068 -0.068,0 0,0.069 -0.069,0 0,0.069 0,0.069 0,0.069 0,0.068 0,0.07 0,0.068 0,0.069 0.069,0.069 0,0.069 0,0.069 0.068,0 0,0.068 0.069,0.069 0.069,0 0,0.069 0.069,0 0.069,0.069 0.137,0.069 0.069,0.069 0.138,0.206 0.068,0.069 0.07,0.068 0.068,0 0,0.07 0.069,0.068 0.069,0 0.069,0.069 0.068,0.069 0.07,0.069 0.137,0 0.069,0.069 0.069,0 0.069,0.068 0.137,0 0.069,0.069 0.069,0 0.069,0 0.069,0 0.068,0 0.069,0 0.069,0 0.069,0 0.069,0 0.068,0 0.757,-0.206 0.07,0 0.206,0 0.206,-0.069 0.138,0 0.206,0 0.138,0 0.069,0 0.275,0.069 0.206,0 0.207,0.069 0.207,0 0.206,0 0.138,0 0.137,0 0.069,0 0.069,0 0.206,0 0.207,-0.069 0.069,0 0.137,-0.069 0.138,-0.069 0.138,0 0.069,-0.069 0.137,-0.068 0.069,0 0.069,-0.07 0.069,0 0,-0.068 0.069,0 0,-0.069 0.068,0 0.069,-0.069 0,-0.068 0.069,-0.069 0.069,-0.069 0,-0.069 0,-0.069 0.069,0 0,-0.069 0,-0.069 0,-0.068 0,-0.069 0,-0.069 -0.069,0 0,-0.138 0,-0.068 -0.069,-0.138 0.275,0 0.069,0 0.069,0 0.069,0 0.069,-0.069 0.068,0 0.069,0 0.069,-0.069 0.069,0 0.069,0 0.069,-0.069 0.068,0 0,-0.069 0.069,-0.068 0.069,0 0.069,-0.069 0,-0.069 0.069,0 0,-0.069 0,-0.068 0.068,0 0,-0.069 0,-0.069 0,-0.069 0,-0.069 0,-0.068 -0.068,0 0,-0.07 0,-0.068 -0.069,-0.069 0,-0.069 L 6.332,0.275 6.263,0.206 6.194,0.137 6.126,0.069 6.057,0.069 5.988,0 5.919,-0.069 l -0.069,0 -0.069,0 -0.068,-0.069 -0.069,0 -0.138,0 -0.069,-0.068 -0.137,0 -0.207,0 -0.206,0 -0.207,-0.069 -0.137,0 -0.069,-0.069 -0.069,0 -0.069,0 -0.138,-0.069 -0.137,0 -0.069,0 -0.137,0 -0.07,0 -0.068,-0.069 -0.138,0 -0.138,0.069 -0.137,0 -0.069,0 -0.138,0 -0.069,0 -0.068,0.069 -0.069,0 -0.207,0.069 -0.206,0 -0.275,0 -0.413,0 L 1.239,0 1.102,-0.069 l -0.07,0 0,-0.069 -0.068,0 -0.069,0 -0.069,0 -0.069,-0.068 -0.069,0 -0.068,0 -0.069,0 -0.069,0 -0.069,0.068 -0.069,0 -0.069,0 -0.068,0 L 0.138,-0.069 0,0 z"
           style="fill:#418857;fill-opacity:1;fill-rule:nonzero;stroke:none"
           id="path23663" />
      </g>
      <g
         id="g23665"
         transform="matrix(7.2049019,0,0,-7.2049019,-761.53818,764.991)">
        <path
           d="m 0,0 0,0 0.069,0 0.069,0 0.069,0 0.068,0 0,-0.069 0.069,0 0,-0.069 0.069,0 0,-0.069 0.069,0 0,-0.068 0.069,0 0,-0.07 0.069,0 0.068,0 0,-0.068 0.069,0 0.069,0 0.069,0 0.069,0 0.068,-0.069 0.07,0 0.068,0 0.069,0 0,0.069 0.069,0 0.069,0 0.137,0 0.138,-0.069 1.239,-1.032 0.344,-0.069 0.138,0.069 0.825,0.894 0,-0.068 0.069,0 0.069,-0.069 -0.963,-1.033 0,-0.069 -0.069,-0.068 -0.069,-0.069 0,-0.069 0,-0.068 -0.069,0 0,-0.069 0,-0.069 0,-0.069 0,-0.069 0,-0.069 -0.206,-8.327 -0.757,0.068 0.344,6.332 -0.276,0.826 0.069,0 0.207,-0.138 0.137,2.134 -1.17,0.895 -0.137,0 -0.069,0 -0.069,0 -0.069,0 -0.068,0 -0.07,0 -0.068,0 -0.069,0 -0.069,0 0,0.068 -0.069,0 -0.069,0 -0.068,0 -0.069,0.07 -0.069,0 0,0.068 -0.069,0 -0.069,0.069 -0.069,0 0,0.068 -0.068,0.07 -0.069,0.068 0,0.069 -0.069,0 0,0.069 L 0,0 z"
           style="fill:#000000;fill-opacity:1;fill-rule:nonzero;stroke:none"
           id="path23667" />
      </g>
      <g
         id="g23669"
         transform="matrix(7.2049019,0,0,-7.2049019,-716.90813,798.71208)">
        <path
           d="m 0,0 0,0 0.069,0 0.068,-0.068 0.07,0 0.481,-0.62 0.069,0 0,-0.069 0.069,0 0.069,0 0.069,0 0.068,0 0.069,0 0.069,0.069 0.689,0.551 0.274,0 -0.687,-0.689 0,-1.583 0.206,0.207 0.069,-0.069 -0.207,-0.757 0.138,-3.028 -0.62,0 -0.068,4.542 0,0.069 0,0.069 0,0.069 -0.069,0 0,0.068 -0.069,0.138 0,0.069 -0.069,0.068 -0.069,0.07 0,0.068 L 0,0 z"
           style="fill:#000000;fill-opacity:1;fill-rule:nonzero;stroke:none"
           id="path23671" />
      </g>
      <g
         id="g23749"
         transform="matrix(7.2049019,0,0,-7.2049019,-183.12139,781.81157)">
        <path
           d="m 0,0 c 0.009,0.511 0.039,1.307 1.002,1.307 0.668,0 0.963,-0.531 0.963,-0.993 0,-0.785 -0.501,-1.139 -1.759,-2.053 -1.513,-1.101 -1.572,-1.956 -1.621,-2.771 h 4.766 v 1.218 H 0.324 c 0.157,0.324 0.639,0.639 1.562,1.288 0.678,0.461 1.454,1.071 1.454,2.269 0,1.415 -1.061,2.202 -2.397,2.202 -0.619,0 -2.28,-0.197 -2.28,-2.467 z"
           style="fill:#ffffff;fill-opacity:1;fill-rule:nonzero;stroke:none"
           id="path23751" />
      </g>
      <g
         style="font-size:80.6216px;line-height:100%;font-family:'Transport Heavy';-inkscape-font-specification:'Transport Heavy,';fill:#ffffff"
         id="text39540"
         transform="translate(1.954248,4.9299818)">
        <path
           d="m -618.1552,511.54907 c 10.86498,-0.10492 18.05583,4.61899 21.57257,14.17176 l -0.62986,0.31493 c -0.68238,0.1575 -1.25975,0.36746 -1.7321,0.62986 l -0.62986,0.15746 -0.62985,0.15746 c -0.57741,0.31497 -1.15478,0.52492 -1.73211,0.62986 -0.1575,0.10501 -0.31496,0.1575 -0.47239,0.15747 -0.41994,0.26247 -0.83984,0.41994 -1.25971,0.47239 l -1.10225,0.47239 c -1.15477,0.49867 -2.15204,0.8136 -2.99182,0.94478 -1.60091,-5.01256 -4.80268,-7.53198 -9.6053,-7.55827 -5.17009,2.17829 -7.68951,5.90494 -7.55828,11.17995 -0.55113,4.64521 0.55111,8.52932 3.30675,11.65234 2.67687,2.49319 5.51122,3.07056 8.50306,1.7321 2.86056,-1.60086 4.64515,-3.85785 5.35377,-6.77095 h 0.4724 l 0.62985,0.31492 1.10225,0.31493 0.31493,0.31493 c 1.07597,0.23622 1.96826,0.55115 2.67689,0.94478 l 0.47239,0.15747 0.62986,0.15746 0.47239,0.15747 c 0.39362,0.23622 0.81352,0.39368 1.25971,0.47239 l 0.47239,0.15746 0.31493,0.31493 c 0.94474,0.20997 1.73206,0.47241 2.36196,0.78732 -4.35654,10.20893 -11.70486,14.82787 -22.04496,13.85684 -11.23245,-2.07327 -17.32105,-8.84422 -18.26583,-20.31286 -0.68235,-14.82783 5.56372,-23.48834 18.73822,-25.98157 z"
           style="fill:#ffffff"
           id="path39576" />
        <path
           d="m -574.06527,511.54907 c 7.19083,-0.47234 13.17446,1.31225 17.9509,5.35378 l 0.15747,0.31492 c 0.41986,0.52493 0.73479,1.04981 0.94478,1.57464 0.55108,0.81361 0.9185,1.54845 1.10225,2.2045 v 0.62986 c 0.31489,1.02356 0.47235,1.91585 0.47239,2.67689 v 15.43147 c -0.10502,2.59818 -4e-5,4.75019 0.31493,6.45603 1.28591,1.33846 2.75558,2.17827 4.40899,2.51942 l -0.31493,0.47239 -0.31492,0.78732 -0.31493,0.62986 -0.15747,0.47239 -0.15746,0.4724 -0.31493,0.47239 -0.62986,1.57464 -0.31492,0.47239 -0.15747,0.47239 -0.15746,0.47239 -0.15747,0.31493 -1.10224,2.36196 c -4.67147,0.0263 -8.18817,-1.44341 -10.55009,-4.40899 -4.48776,4.46149 -10.05148,5.56374 -16.69119,3.30674 -6.11486,-1.6796 -9.68405,-5.40625 -10.70756,-11.17994 0.0525,-8.47679 4.04157,-13.41066 11.96727,-14.80162 0.41989,-0.26241 0.83979,-0.41987 1.25971,-0.47239 h 0.47239 c 0.15745,-0.10495 0.31491,-0.15743 0.4724,-0.15747 l 0.47239,-0.15746 2.83435,-0.47239 1.25971,-0.15747 0.4724,-0.15746 2.67688,-0.15747 c 1.41715,-0.20991 2.57189,-0.2624 3.46421,-0.15746 0.39363,-5.85237 -2.80813,-7.84691 -9.6053,-5.98363 l -0.4724,0.15746 -1.25971,0.15746 -1.10225,0.4724 -0.47239,0.15746 -1.57464,0.47239 c -0.81358,0.55117 -1.54841,0.91858 -2.2045,1.10225 -0.8923,0.68238 -1.7846,1.15478 -2.67688,1.41718 l -1.10225,-2.04704 -0.31493,-0.15746 -0.15746,-0.47239 -0.31493,-0.31493 -0.15747,-0.47239 c -0.68235,-0.78728 -1.15474,-1.52211 -1.41717,-2.2045 -0.41991,-0.39361 -0.68235,-0.81352 -0.78732,-1.25971 -0.68235,-0.65606 -1.10226,-1.3384 -1.25972,-2.04703 l 0.31493,-0.15747 0.47239,-0.31493 0.31493,-0.15746 c 0.70859,-0.47234 1.33844,-0.83976 1.88957,-1.10225 0.4199,-0.28863 0.8398,-0.4461 1.25971,-0.47239 l 0.31493,-0.31493 c 0.97102,-0.4461 1.81083,-0.76102 2.51943,-0.94478 l 0.31492,-0.31493 h 0.4724 c 0.49862,-0.31488 0.91852,-0.52483 1.25971,-0.62986 h 0.47239 c 0.70857,-0.36736 1.39092,-0.57731 2.04703,-0.62985 1.44341,-0.60356 2.80809,-0.91849 4.09407,-0.94479 z m 7.55827,25.98157 h -0.47239 c -0.62988,0.18373 -1.15476,0.28871 -1.57464,0.31492 h -0.47239 c -0.15749,0.10501 -0.31495,0.15749 -0.47239,0.15747 l -0.62986,0.15746 h -0.47239 l -0.62986,0.15747 -0.94478,0.15746 c -0.15749,0.105 -0.31495,0.15749 -0.47239,0.15746 l -0.62986,0.15747 -0.47239,0.15746 c -1.46968,0.36744 -2.62442,0.73486 -3.46421,1.10225 -1.10226,1.46969 -1.41719,2.99184 -0.94478,4.56646 2.62438,3.67418 6.40351,4.30403 11.33741,1.88957 l 1.25971,-1.88957 0.15746,-0.62986 v -0.62985 -0.4724 -0.78732 -0.47239 -0.62986 -0.47239 -3.14928 h -0.47239 z"
           style="fill:#ffffff"
           id="path39578" />
        <path
           d="m -520.68496,512.17892 c 5.72116,-0.49858 9.9202,1.39099 12.59712,5.66871 5.40622,-5.72114 11.49483,-7.13832 18.26583,-4.25153 4.14649,1.86338 7.1908,4.64524 9.13292,8.3456 v 0.47239 c 0.13115,0.10502 0.18364,0.20999 0.15746,0.31493 0.13115,0.10501 0.18364,0.20999 0.15746,0.31492 l 0.94479,2.99182 v 0.47239 c 0.20988,1.20726 0.31486,2.25702 0.31493,3.14928 v 26.61143 h -2.67689 -0.62986 -0.78732 -2.04703 -0.62986 -2.67689 -0.47239 -1.88957 v -0.78732 -2.04704 -0.62985 -0.62986 -0.62985 -2.67689 -0.4724 -1.88956 -2.2045 -1.10225 -2.2045 -0.47239 -2.83435 -2.04703 -0.62986 -2.67689 -0.47239 -1.88957 c -0.21,-0.76104 -0.31498,-1.39089 -0.31492,-1.88957 -0.15752,-0.31489 -0.2625,-0.62982 -0.31493,-0.94478 -0.39372,-0.47236 -0.65616,-0.94475 -0.78732,-1.41718 l -0.31493,-0.15746 -0.15747,-0.31493 c -0.76112,-0.76104 -1.44347,-1.3384 -2.04703,-1.7321 -4.27782,-0.57733 -7.32212,1.10228 -9.13291,5.03885 l -0.15747,1.10224 -0.15746,1.10225 v 25.50918 h -0.62986 -0.47239 -2.83435 -2.04703 -0.62986 -2.67689 -0.47239 -1.88957 v -0.78732 -0.4724 -2.04703 -0.62985 -0.62986 -0.62986 -0.47239 -0.62986 -2.83435 -0.62985 -0.62986 -0.47239 -0.62986 -2.83435 -0.62986 -0.62985 -0.62986 -0.62986 -0.47239 -2.04703 -1.57464 -2.04703 -1.57464 -0.4724 l -0.15746,-1.10224 -0.4724,-2.83436 c -1.12852,-2.02075 -2.65067,-3.38543 -4.56645,-4.09406 -3.49048,0.28872 -6.06239,1.86336 -7.71574,4.72392 -0.31495,1.15477 -0.47241,2.15204 -0.47239,2.99182 v 25.35171 h -2.67689 -0.62986 -0.78732 -2.04703 -0.62986 -2.67689 -0.47239 -1.88957 v -0.4724 -0.78732 -0.47239 -0.62985 -0.4724 -3.14928 -1.10225 -0.62985 -0.78732 -0.62986 -0.78732 -2.04703 -0.62986 -2.67689 -0.47239 -1.88957 -1.10224 -1.10225 -0.94479 -1.10225 -0.94478 -1.10225 -0.94478 -2.67689 -0.94478 -0.78733 -0.94478 -0.62986 -2.83435 -1.7321 -0.62986 -0.62986 -0.62985 -0.62986 -2.67689 -0.47239 -1.88957 h 2.67689 0.62986 0.78732 2.04703 0.62986 2.67689 1.25971 1.10225 v 2.83436 c 2.70311,-2.15196 5.58995,-3.46416 8.66052,-3.93661 z"
           style="fill:#ffffff"
           id="path39580" />
        <path
           d="m -446.83431,511.54907 c 15.19524,0.13127 22.3336,8.89676 21.41511,26.29649 -0.8661,9.21167 -5.06514,15.35276 -12.59713,18.4233 -6.9022,2.15201 -12.93831,1.25972 -18.10836,-2.67689 v 15.58894 h -2.67689 -0.62986 -0.78732 -2.04703 -0.62986 -2.67688 -0.4724 -1.88957 v -1.25971 -1.25972 -1.25971 -1.25971 -1.10225 -1.25971 -1.10225 -0.47239 -0.78732 -0.47239 -0.62986 -0.47239 -3.14928 -0.62986 -2.83435 -0.94479 -1.10225 -3.14928 -1.25971 -1.25971 -1.25971 -1.25972 -3.14928 -0.47239 -0.47239 -4.88139 -1.10224 -0.94479 -1.10225 -0.94478 -0.78732 -0.94479 -0.62985 -2.83435 -1.73211 -0.62985 -0.62986 -0.62986 -0.62985 -2.67689 -0.47239 -1.88957 h 2.67689 0.62986 0.78732 2.04703 0.62986 2.67689 1.25971 1.10225 v 1.7321 c 3.04428,-2.02074 6.14107,-3.22796 9.29038,-3.62167 z m -1.73211,10.55009 c -3.20179,0.97107 -5.56375,2.75566 -7.08588,5.35378 v 0.47239 l -0.31493,1.25971 -0.31493,1.10225 v 8.97545 c 1.28594,4.4615 4.0678,6.98092 8.3456,7.55827 4.82887,0.34119 7.97814,-1.54837 9.44784,-5.6687 1.46963,-4.43521 1.52212,-8.63425 0.15746,-12.59712 -1.39096,-4.77637 -4.80268,-6.92838 -10.23516,-6.45603 z"
           style="fill:#ffffff"
           id="path39582" />
        <path
           d="m -411.87731,495.80266 c 4.33025,-0.0787 7.00714,1.81091 8.03067,5.66871 0.0787,2.96563 -0.91856,5.2751 -2.99182,6.92842 -4.75017,1.88962 -8.1094,0.73489 -10.07769,-3.46421 -1.04977,-4.72386 0.62985,-7.76816 5.03884,-9.13292 z m -1.88956,17.63598 h 0.62985 0.78732 2.04704 0.62985 2.67689 1.25971 1.10225 v 42.98768 h -2.2045 -1.7321 -0.78732 -0.47239 -0.62986 -0.47239 -3.14928 -0.47239 -1.88957 v -0.47239 -0.78732 -0.47239 -0.62986 -0.47239 -3.14928 -1.10225 -0.62986 -0.78732 -0.62985 -0.78732 -2.04704 -0.62985 -2.67689 -0.47239 -1.88957 -1.10225 -1.10225 -0.94478 -1.10225 -0.94479 -1.10224 -0.94479 -2.67689 -0.94478 -0.78732 -0.94479 -0.62985 -2.83435 -1.73211 -0.62985 -0.62986 -0.62986 -0.62985 -2.67689 -0.47239 -1.88957 z"
           style="fill:#ffffff"
           id="path39584" />
        <path
           d="m -372.35383,512.17892 c 7.19083,-0.23614 12.80704,2.70319 16.84865,8.81799 l 0.15747,0.47239 0.15746,0.4724 0.15746,0.47239 c 0.2624,0.44619 0.41987,0.86609 0.4724,1.25971 l 0.62985,1.88957 v 0.47239 c 0.36737,1.88961 0.52484,3.41176 0.4724,4.56646 v 25.66664 h -3.14929 -0.78732 -0.47239 -0.62985 -0.62986 -0.62986 -0.62985 -2.67689 -0.47239 -1.88957 v -0.4724 -0.78732 -0.47239 -0.62985 -0.4724 -3.14928 -2.20449 -1.73211 -0.78732 -0.47239 -0.62986 -0.47239 -3.14928 -0.62986 -1.7321 -1.57464 -2.83435 -0.4724 -0.47239 -0.62985 -2.83436 -0.62985 c -0.26247,-0.65607 -0.41994,-1.23343 -0.47239,-1.73211 -1.25975,-2.20445 -2.93936,-3.62163 -5.03885,-4.25153 -4.35653,-0.10493 -7.5583,1.57468 -9.60531,5.03885 l -0.31493,1.10225 v 27.08382 h -3.14928 -0.78732 -0.47239 -0.62986 -0.62985 -0.62986 -0.62986 -2.67688 -0.4724 -1.88957 v -0.4724 -0.78732 -0.47239 -0.62985 -0.4724 -3.14928 -1.10225 -0.62985 -0.78732 -0.62986 -0.78732 -2.04703 -0.62986 -2.67689 -0.47239 -1.88957 -1.10224 -1.10225 -0.94479 -1.10225 -0.94478 -1.10225 -0.94478 -2.67689 -0.94478 -0.78733 -0.94478 -0.62986 -2.83435 -1.7321 -0.62986 -0.62986 -0.62985 -0.62986 -2.67689 -0.47239 -1.88957 h 3.14929 0.78732 0.47239 0.62985 0.62986 0.62986 0.62985 2.67689 0.47239 1.88957 c -0.0525,1.07606 -2e-5,1.96835 0.15747,2.67689 2.62438,-2.07322 5.40624,-3.33293 8.34559,-3.77914 z"
           style="fill:#ffffff"
           id="path39586" />
        <path
           d="m -327.00419,512.65132 c 4.35648,-0.26239 8.13562,0.6299 11.33742,2.67689 0.18367,-0.78727 0.23616,-1.46962 0.15746,-2.04704 h 2.67689 0.62985 0.78732 2.04704 0.62985 2.67689 0.47239 1.88957 v 41.41305 l -0.15746,0.47239 c -0.0263,1.33845 -0.23624,2.49319 -0.62986,3.46421 -0.1575,0.73483 -0.31497,1.3122 -0.47239,1.7321 l -0.31493,0.31493 c -0.94482,2.2045 -2.20453,3.98909 -3.77913,5.35378 l -0.4724,0.31493 -0.47239,0.15746 c -0.26248,0.34117 -0.5774,0.60361 -0.94478,0.78732 l -0.4724,0.15746 c -0.10501,0.13122 -0.20998,0.18371 -0.31492,0.15747 l -0.31493,0.31493 -0.47239,0.15746 -1.88957,0.94478 c -10.91753,2.67689 -20.78527,1.46966 -29.60324,-3.62167 l 0.15746,-0.62986 1.41718,-2.20449 0.15746,-0.47239 0.15747,-0.31493 0.15746,-0.31493 0.31493,-0.62986 0.31493,-0.47239 c 0.57736,-0.86605 0.99726,-1.60088 1.25971,-2.20449 l 0.15746,-0.31493 0.31493,-0.31493 c 0.34116,-0.73483 0.65609,-1.31219 0.94479,-1.73211 0.97101,0.34119 1.75833,0.76109 2.36196,1.25972 5.7999,2.57191 11.52109,3.30675 17.16358,2.20449 0.47236,-0.39365 0.94475,-0.65609 1.41717,-0.78732 0.34114,-0.49863 0.70856,-0.86604 1.10225,-1.10225 l 0.15747,-0.31492 0.62985,-1.10225 0.31493,-1.10225 v -2.83435 c -7.37459,3.14929 -14.09305,2.88685 -20.1554,-0.78732 -5.58998,-3.62166 -8.5293,-8.60801 -8.81798,-14.95909 -0.57737,-14.09299 5.24879,-21.96618 17.4785,-23.6196 z m 1.41718,10.55009 c -4.33028,1.20726 -6.63975,3.98912 -6.92842,8.34559 -0.81358,4.35654 0.23618,7.82074 3.14928,10.39263 2.78185,1.65339 5.6162,2.0733 8.50306,1.25971 4.40896,-0.99725 6.19356,-5.51121 5.35378,-13.54191 -1.41721,-4.77637 -4.77644,-6.92837 -10.0777,-6.45602 z"
           style="fill:#ffffff"
           id="path39588" />
      </g>
      <g
         transform="matrix(0.95933733,0,0,1.0423862,0,2.8480433)"
         style="font-size:73.2403px;line-height:100%;font-family:'Transport Heavy';-inkscape-font-specification:'Transport Heavy,';fill:#ffffff"
         id="text39544">
        <path
           d="m -643.2898,735.89729 c 5.19736,-0.45294 9.01196,1.26363 11.44379,5.1497 4.91126,-5.19734 10.44242,-6.48476 16.5935,-3.86228 3.76686,1.69277 6.53244,4.21994 8.29675,7.58151 v 0.42915 c 0.11915,0.0954 0.16683,0.19077 0.14305,0.28609 0.11915,0.0954 0.16683,0.19077 0.14305,0.2861 l 0.85828,2.7179 v 0.42914 c 0.19067,1.09673 0.28604,2.05038 0.2861,2.86095 v 24.17501 h -2.43181 -0.57219 -0.71524 -1.85961 -0.57219 -2.43181 -0.42914 -1.71657 v -0.71524 -1.85961 -0.57219 -0.57219 -0.57219 -2.43181 -0.42914 -1.71657 -2.00266 -1.00134 -2.00266 -0.42914 -2.57485 -1.85962 -0.57219 -2.43181 -0.42914 -1.71657 c -0.19078,-0.69136 -0.28614,-1.26355 -0.28609,-1.71657 -0.1431,-0.28606 -0.23847,-0.57215 -0.2861,-0.85828 -0.35767,-0.42911 -0.59608,-0.85825 -0.71523,-1.28743 l -0.2861,-0.14305 -0.14305,-0.28609 c -0.69144,-0.69136 -1.31131,-1.21587 -1.85961,-1.57352 -3.88617,-0.52447 -6.65175,1.00137 -8.29675,4.57752 l -0.14305,1.00133 -0.14305,1.00133 v 23.17368 h -0.57219 -0.42914 -2.57485 -1.85962 -0.57219 -2.4318 -0.42915 -1.71657 v -0.71524 -0.42914 -1.85962 -0.57219 -0.57219 -0.57219 -0.42914 -0.57219 -2.57485 -0.57219 -0.57219 -0.42914 -0.57219 -2.57485 -0.57219 -0.57219 -0.57219 -0.57219 -0.42915 -1.85961 -1.43048 -1.85961 -1.43048 -0.42914 l -0.14304,-1.00133 -0.42915,-2.57485 c -1.02519,-1.83574 -2.40798,-3.07549 -4.14837,-3.71924 -3.1709,0.26229 -5.50734,1.69277 -7.00932,4.29143 -0.28611,1.04904 -0.42916,1.95501 -0.42915,2.7179 v 23.03063 h -2.4318 -0.57219 -0.71524 -1.85961 -0.57219 -2.43181 -0.42914 -1.71657 v -0.42914 -0.71524 -0.42914 -0.57219 -0.42914 -2.86095 -1.00133 -0.57219 -0.71524 -0.57219 -0.71524 -1.85961 -0.57219 -2.43181 -0.42914 -1.71657 -1.00133 -1.00133 -0.85829 -1.00133 -0.85828 -1.00134 -0.85828 -2.43181 -0.85828 -0.71524 -0.85828 -0.57219 -2.57486 -1.57352 -0.57219 -0.57219 -0.57219 -0.57219 -2.4318 -0.42914 -1.71657 h 2.43181 0.57218 0.71524 1.85962 0.57219 2.4318 1.14438 1.00133 v 2.57485 c 2.45563,-1.95493 5.07817,-3.147 7.86761,-3.57618 z"
           style="fill:#ffffff"
           id="path39555" />
        <path
           d="m -581.63637,735.3251 c 6.53248,-0.4291 11.96827,1.1921 16.30741,4.86361 l 0.14305,0.28609 c 0.38142,0.47687 0.66752,0.95369 0.85828,1.43048 0.50063,0.73912 0.83441,1.40667 1.00133,2.00266 v 0.57219 c 0.28606,0.92985 0.42911,1.74045 0.42914,2.43181 v 14.01864 c -0.0954,2.3603 -3e-5,4.31528 0.2861,5.86495 1.16818,1.21591 2.50329,1.97883 4.00533,2.28875 l -0.2861,0.42915 -0.28609,0.71523 -0.2861,0.57219 -0.14305,0.42914 -0.14304,0.42915 -0.2861,0.42914 -0.57219,1.43047 -0.28609,0.42915 -0.14305,0.42914 -0.14305,0.42914 -0.14304,0.28609 -1.00134,2.14572 c -4.24377,0.0238 -7.43849,-1.31126 -9.58417,-4.00533 -4.07688,4.05301 -9.13121,5.05435 -15.16303,3.00399 -5.55501,-1.52583 -8.79742,-4.91128 -9.72722,-10.15636 0.0477,-7.7007 3.67154,-12.18284 10.8716,-13.44646 0.38145,-0.23838 0.76291,-0.38143 1.14438,-0.42914 h 0.42914 c 0.14304,-0.0953 0.28608,-0.14302 0.42915,-0.14305 l 0.42914,-0.14305 2.57485,-0.42914 1.14438,-0.14304 0.42914,-0.14305 2.43181,-0.14305 c 1.2874,-0.1907 2.33641,-0.23838 3.14704,-0.14305 0.35759,-5.31655 -2.55103,-7.12849 -8.72589,-5.4358 l -0.42914,0.14305 -1.14438,0.14305 -1.00133,0.42914 -0.42915,0.14305 -1.43047,0.42914 c -0.73909,0.5007 -1.40664,0.83448 -2.00266,1.00133 -0.81062,0.61991 -1.62122,1.04905 -2.43181,1.28743 l -1.00133,-1.85962 -0.2861,-0.14305 -0.14304,-0.42914 -0.2861,-0.28609 -0.14305,-0.42915 c -0.61987,-0.71519 -1.04902,-1.38275 -1.28742,-2.00266 -0.38147,-0.35758 -0.61988,-0.73904 -0.71524,-1.14438 -0.61988,-0.59599 -1.00134,-1.21586 -1.14438,-1.85962 l 0.2861,-0.14304 0.42914,-0.2861 0.28609,-0.14305 c 0.64371,-0.42909 1.2159,-0.76287 1.71657,-1.00133 0.38146,-0.26221 0.76291,-0.40525 1.14438,-0.42914 l 0.2861,-0.28609 c 0.88211,-0.40526 1.64503,-0.69135 2.28875,-0.85829 l 0.2861,-0.28609 h 0.42914 c 0.45297,-0.28605 0.83443,-0.47678 1.14438,-0.57219 h 0.42914 c 0.6437,-0.33373 1.26358,-0.52446 1.85962,-0.57219 1.31125,-0.5483 2.55099,-0.8344 3.71923,-0.85829 z m 6.86628,23.60282 h -0.42914 c -0.57222,0.16691 -1.04904,0.26228 -1.43048,0.28609 h -0.42914 c -0.14307,0.0954 -0.28612,0.14307 -0.42914,0.14305 l -0.57219,0.14305 h -0.42914 l -0.57219,0.14304 -0.85829,0.14305 c -0.14306,0.0954 -0.28611,0.14307 -0.42914,0.14305 l -0.57219,0.14305 -0.42914,0.14304 c -1.33513,0.33381 -2.38414,0.66758 -3.14704,1.00134 -1.00135,1.33513 -1.28744,2.71792 -0.85829,4.14837 2.38411,3.33779 5.81724,3.90998 10.29941,1.71657 l 1.14438,-1.71657 0.14305,-0.57219 v -0.57219 -0.42914 -0.71524 -0.42914 -0.57219 -0.42914 -2.86095 h -0.42914 z"
           style="fill:#ffffff"
           id="path39557" />
        <path
           d="m -531.71282,736.32643 h 0.42914 2.86095 v 10.29941 c -5.50735,-0.7152 -9.46499,1.04905 -11.87294,5.29275 v 0.42915 c -0.42916,1.12057 -0.61989,2.21726 -0.57219,3.29009 v 20.31273 h -2.4318 -0.57219 -0.71524 -1.85962 -0.57219 -2.4318 -0.42914 -1.71657 v -0.42914 -0.71524 -0.42914 -0.57219 -0.42914 -2.86095 -1.00133 -2.86095 -1.14438 -1.14438 -1.14438 -1.14438 -2.86095 -0.42914 -0.42914 -4.43447 -1.00133 -0.85829 -1.00133 -0.85828 -0.71524 -0.85829 -0.57219 -2.57485 -1.57352 -0.57219 -0.57219 -0.57219 -0.57219 -2.4318 -0.42915 -1.71657 h 2.4318 0.57219 0.71524 1.85962 0.57218 2.43181 0.42914 1.71657 v 3.71924 c 2.52715,-2.55097 5.3881,-4.02912 8.58285,-4.43447 z"
           style="fill:#ffffff"
           id="path39559" />
        <path
           d="m -505.106,736.04033 c 11.65833,-0.16684 18.28619,5.50737 19.88359,17.02264 l 0.42914,1.85962 v 1.00133 c 0.19069,1.69276 0.23837,3.07555 0.14305,4.14838 l -0.42914,-0.14305 h -0.42915 -2.86094 -0.42915 -0.42914 -4.43447 -1.00133 -0.85828 -1.00134 -0.85828 -0.71524 -0.85828 -0.57219 -2.57486 -1.57352 -0.57219 -0.57219 -0.57219 -0.57219 -2.4318 -0.42914 -1.71657 c 0.52449,4.14839 2.6702,6.62788 6.43713,7.43846 4.6967,0.71526 8.60666,-0.4768 11.72989,-3.57618 l 1.14438,1.28743 c 0.45295,0.30995 0.78673,0.64373 1.00133,1.00133 l 0.28609,0.14305 0.14305,0.28609 c 0.47679,0.35764 0.85825,0.69141 1.14438,1.00133 l 0.2861,0.42914 c 0.16685,0.0954 0.26221,0.19075 0.28609,0.2861 l 0.2861,0.14305 0.28609,0.28609 0.14305,0.2861 0.28609,0.14304 0.14305,0.2861 c 0.47679,0.35763 0.85825,0.69141 1.14438,1.00133 -4.50603,5.7219 -10.70474,7.86761 -18.59616,6.43713 -9.65571,-1.64503 -15.13919,-7.50997 -16.45046,-17.59483 -0.85828,-12.77886 4.38678,-20.50341 15.73522,-23.17368 z m 2.43181,8.86894 c -4.38681,0.69144 -6.96166,3.02787 -7.72456,7.00932 h 0.85828 1.00133 1.85962 4.43447 2.00266 0.42914 0.71524 0.42914 0.57219 0.42914 2.86095 c -1.07288,-4.29138 -3.69541,-6.62782 -7.8676,-7.00932 z"
           style="fill:#ffffff"
           id="path39561" />
        <path
           d="m -436.15715,735.3251 c 13.80403,0.11925 20.28884,8.08221 19.45444,23.88891 -0.7868,8.36829 -4.60139,13.94714 -11.44379,16.73655 -6.27027,1.95499 -11.75375,1.14439 -16.45045,-2.43181 v 14.1617 h -2.43181 -0.57219 -0.71523 -1.85962 -0.57219 -2.4318 -0.42915 -1.71657 v -1.14438 -1.14438 -1.14438 -1.14438 -1.00133 -1.14438 -1.00133 -0.42915 -0.71523 -0.42914 -0.57219 -0.42915 -2.86094 -0.57219 -2.57486 -0.85828 -1.00133 -2.86095 -1.14438 -1.14438 -1.14438 -1.14438 -2.86095 -0.42914 -0.42914 -4.43447 -1.00133 -0.85829 -1.00133 -0.85828 -0.71524 -0.85829 -0.57219 -2.57485 -1.57352 -0.57219 -0.57219 -0.57219 -0.57219 -2.4318 -0.42915 -1.71657 h 2.43181 0.57219 0.71524 1.85961 0.57219 2.43181 1.14438 1.00133 v 1.57353 c 2.76557,-1.83573 5.57883,-2.93243 8.4398,-3.29009 z m -1.57352,9.58417 c -2.90865,0.88217 -5.05436,2.50337 -6.43714,4.86361 v 0.42915 l -0.28609,1.14438 -0.2861,1.00133 v 8.1537 c 1.16821,4.05303 3.69538,6.34178 7.58151,6.86627 4.38677,0.30996 7.24771,-1.40661 8.58285,-5.1497 1.33508,-4.02914 1.38276,-7.84374 0.14305,-11.44379 -1.26362,-4.33907 -4.36298,-6.29405 -9.29808,-5.86495 z"
           style="fill:#ffffff"
           id="path39563" />
        <path
           d="m -404.40062,721.02035 c 3.93379,-0.0715 6.36559,1.64511 7.29542,5.14971 0.0715,2.69412 -0.83446,4.79214 -2.71791,6.29409 -4.31527,1.71662 -7.36694,0.6676 -9.15503,-3.14705 -0.95365,-4.29136 0.57219,-7.05694 4.57752,-8.29675 z m -1.71657,16.02131 h 0.57219 0.71524 1.85961 0.57219 2.43181 1.14438 1.00133 v 39.05195 h -2.00267 -1.57352 -0.71523 -0.42915 -0.57219 -0.42914 -2.86095 -0.42914 -1.71657 v -0.42915 -0.71523 -0.42914 -0.57219 -0.42915 -2.86094 -1.00134 -0.57219 -0.71523 -0.57219 -0.71524 -1.85962 -0.57219 -2.4318 -0.42914 -1.71657 -1.00133 -1.00134 -0.85828 -1.00133 -0.85829 -1.00133 -0.85828 -2.43181 -0.85828 -0.71524 -0.85829 -0.57219 -2.57485 -1.57352 -0.57219 -0.57219 -0.57219 -0.57219 -2.4318 -0.42915 -1.71657 z"
           style="fill:#ffffff"
           id="path39565" />
        <path
           d="m -368.49573,735.89729 c 6.53247,-0.21453 11.63449,2.45569 15.30607,8.01065 l 0.14305,0.42914 0.14305,0.42914 0.14304,0.42915 c 0.23838,0.40534 0.38142,0.7868 0.42915,1.14438 l 0.57219,1.71656 v 0.42915 c 0.33373,1.7166 0.47678,3.09939 0.42914,4.14837 v 23.31673 h -2.86095 -0.71524 -0.42914 -0.57219 -0.57219 -0.57219 -0.57219 -2.4318 -0.42915 -1.71656 v -0.42914 -0.71524 -0.42914 -0.57219 -0.42914 -2.86095 -2.00267 -1.57352 -0.71523 -0.42915 -0.57219 -0.42914 -2.86095 -0.57219 -1.57352 -1.43047 -2.57486 -0.42914 -0.42914 -0.57219 -2.57485 -0.57219 c -0.23845,-0.596 -0.38149,-1.12051 -0.42915,-1.57352 -1.1444,-2.00263 -2.67024,-3.29006 -4.57751,-3.86228 -3.95767,-0.0953 -6.8663,1.43051 -8.7259,4.57751 l -0.28609,1.00134 v 24.60415 h -2.86095 -0.71524 -0.42914 -0.57219 -0.57219 -0.57219 -0.57219 -2.4318 -0.42914 -1.71657 v -0.42914 -0.71524 -0.42914 -0.57219 -0.42914 -2.86095 -1.00133 -0.57219 -0.71524 -0.57219 -0.71524 -1.85961 -0.57219 -2.43181 -0.42914 -1.71657 -1.00133 -1.00133 -0.85829 -1.00133 -0.85828 -1.00134 -0.85828 -2.43181 -0.85828 -0.71524 -0.85828 -0.57219 -2.57486 -1.57352 -0.57219 -0.57219 -0.57219 -0.57219 -2.4318 -0.42914 -1.71657 h 2.86094 0.71524 0.42914 0.57219 0.57219 0.57219 0.57219 2.43181 0.42914 1.71657 c -0.0477,0.97753 -2e-5,1.78813 0.14305,2.4318 2.3841,-1.88341 4.91127,-3.02779 7.58151,-3.43313 z"
           style="fill:#ffffff"
           id="path39567" />
        <path
           d="m -327.15503,736.04033 c 11.65834,-0.16684 18.28619,5.50737 19.88359,17.02264 l 0.42914,1.85962 v 1.00133 c 0.1907,1.69276 0.23838,3.07555 0.14305,4.14838 l -0.42914,-0.14305 h -0.42914 -2.86095 -0.42914 -0.42915 -4.43446 -1.00134 -0.85828 -1.00133 -0.85829 -0.71523 -0.85829 -0.57219 -2.57485 -1.57352 -0.57219 -0.57219 -0.57219 -0.57219 -2.43181 -0.42914 -1.71657 c 0.52449,4.14839 2.6702,6.62788 6.43713,7.43846 4.6967,0.71526 8.60666,-0.4768 11.72989,-3.57618 l 1.14438,1.28743 c 0.45295,0.30995 0.78673,0.64373 1.00133,1.00133 l 0.2861,0.14305 0.14305,0.28609 c 0.47679,0.35764 0.85825,0.69141 1.14437,1.00133 l 0.2861,0.42914 c 0.16685,0.0954 0.26222,0.19075 0.28609,0.2861 l 0.2861,0.14305 0.28609,0.28609 0.14305,0.2861 0.2861,0.14304 0.14304,0.2861 c 0.47679,0.35763 0.85825,0.69141 1.14438,1.00133 -4.50602,5.7219 -10.70474,7.86761 -18.59616,6.43713 -9.65571,-1.64503 -15.13919,-7.50997 -16.45045,-17.59483 -0.85829,-12.77886 4.38678,-20.50341 15.73521,-23.17368 z m 2.43181,8.86894 c -4.38681,0.69144 -6.96166,3.02787 -7.72456,7.00932 h 0.85828 1.00133 1.85962 4.43447 2.00266 0.42915 0.71523 0.42915 0.57219 0.42914 2.86095 c -1.07289,-4.29138 -3.69542,-6.62782 -7.86761,-7.00932 z"
           style="fill:#ffffff"
           id="path39569" />
        <path
           d="m -284.09777,721.30645 c 0.19071,0.21463 0.28607,0.45305 0.28609,0.71524 v 14.59083 h 0.57219 1.57352 0.71524 1.85962 0.57219 2.4318 1.14438 1.00133 v 9.01199 h -0.57219 -1.57352 -0.71523 -1.85962 -0.57219 -2.43181 -0.42914 -1.71657 v 19.45445 l 0.2861,0.85828 c 1.83575,1.85963 4.74438,2.05036 8.72589,0.57219 l 0.14305,0.57219 0.71523,2.28876 0.14305,0.42914 0.14305,1.14438 0.42914,1.00133 v 0.42914 c 0.21454,0.59605 0.35759,1.12055 0.42914,1.57353 l 0.42915,1.43047 c -5.9365,1.85962 -11.56302,2.24108 -16.8796,1.14438 -1.62122,-0.81059 -2.90864,-1.76424 -3.86228,-2.86095 -0.6914,-1.23973 -1.16823,-2.28875 -1.43047,-3.14704 v -1.00133 c -0.1669,-0.5245 -0.21458,-1.00132 -0.14305,-1.43048 v -0.57219 -0.57219 -0.42914 -2.57485 -1.85962 -0.57219 -2.4318 -0.42915 -1.71657 -1.85961 -0.57219 -2.57486 -0.57218 -0.57219 -0.57219 -2.43181 -0.42914 -1.71657 h -0.57219 -0.57219 -0.57219 -2.43181 -0.42914 -1.71657 v -0.71524 -0.57219 -0.71523 -1.85962 -0.57219 -2.43181 -0.42914 -1.71657 h 0.57219 0.57219 0.57219 2.43181 1.14438 1.00133 v -2.4318 -0.57219 -2.43181 -1.57352 -0.57219 -2.43181 -0.42914 -1.71657 l 0.57219,-0.14304 0.28609,-0.14305 1.28743,-0.2861 c 0.54834,-0.23835 1.02516,-0.3814 1.43047,-0.42914 l 1.85962,-0.57219 0.71524,-0.14305 1.43047,-0.57219 c 1.21589,-0.23835 2.21722,-0.52444 3.004,-0.85828 z"
           style="fill:#ffffff"
           id="path39571" />
        <path
           d="m -252.4843,735.3251 c 6.53248,-0.4291 11.96827,1.1921 16.30741,4.86361 l 0.14304,0.28609 c 0.38143,0.47687 0.66752,0.95369 0.85829,1.43048 0.50063,0.73912 0.83441,1.40667 1.00133,2.00266 v 0.57219 c 0.28606,0.92985 0.42911,1.74045 0.42914,2.43181 v 14.01864 c -0.0954,2.3603 -3e-5,4.31528 0.2861,5.86495 1.16818,1.21591 2.50329,1.97883 4.00533,2.28875 l -0.2861,0.42915 -0.28609,0.71523 -0.2861,0.57219 -0.14305,0.42914 -0.14304,0.42915 -0.2861,0.42914 -0.57219,1.43047 -0.28609,0.42915 -0.14305,0.42914 -0.14305,0.42914 -0.14305,0.28609 -1.00133,2.14572 c -4.24377,0.0238 -7.43849,-1.31126 -9.58417,-4.00533 -4.07688,4.05301 -9.13121,5.05435 -15.16303,3.00399 -5.55501,-1.52583 -8.79742,-4.91128 -9.72722,-10.15636 0.0477,-7.7007 3.67154,-12.18284 10.8716,-13.44646 0.38145,-0.23838 0.76291,-0.38143 1.14438,-0.42914 h 0.42914 c 0.14303,-0.0953 0.28608,-0.14302 0.42914,-0.14305 l 0.42915,-0.14305 2.57485,-0.42914 1.14438,-0.14304 0.42914,-0.14305 2.43181,-0.14305 c 1.2874,-0.1907 2.33641,-0.23838 3.14704,-0.14305 0.35759,-5.31655 -2.55103,-7.12849 -8.72589,-5.4358 l -0.42914,0.14305 -1.14438,0.14305 -1.00133,0.42914 -0.42915,0.14305 -1.43047,0.42914 c -0.73909,0.5007 -1.40665,0.83448 -2.00266,1.00133 -0.81062,0.61991 -1.62122,1.04905 -2.43181,1.28743 l -1.00133,-1.85962 -0.2861,-0.14305 -0.14304,-0.42914 -0.2861,-0.28609 -0.14305,-0.42915 c -0.61987,-0.71519 -1.04902,-1.38275 -1.28742,-2.00266 -0.38147,-0.35758 -0.61988,-0.73904 -0.71524,-1.14438 -0.61988,-0.59599 -1.00134,-1.21586 -1.14438,-1.85962 l 0.28609,-0.14304 0.42915,-0.2861 0.28609,-0.14305 c 0.64371,-0.42909 1.2159,-0.76287 1.71657,-1.00133 0.38145,-0.26221 0.76291,-0.40525 1.14438,-0.42914 l 0.28609,-0.28609 c 0.88212,-0.40526 1.64504,-0.69135 2.28876,-0.85829 l 0.2861,-0.28609 h 0.42914 c 0.45297,-0.28605 0.83443,-0.47678 1.14438,-0.57219 h 0.42914 c 0.6437,-0.33373 1.26357,-0.52446 1.85962,-0.57219 1.31125,-0.5483 2.55099,-0.8344 3.71923,-0.85829 z m 6.86628,23.60282 h -0.42914 c -0.57222,0.16691 -1.04904,0.26228 -1.43048,0.28609 h -0.42914 c -0.14307,0.0954 -0.28612,0.14307 -0.42914,0.14305 l -0.57219,0.14305 h -0.42914 l -0.57219,0.14304 -0.85829,0.14305 c -0.14307,0.0954 -0.28611,0.14307 -0.42914,0.14305 l -0.57219,0.14305 -0.42914,0.14304 c -1.33513,0.33381 -2.38414,0.66758 -3.14705,1.00134 -1.00134,1.33513 -1.28744,2.71792 -0.85828,4.14837 2.38411,3.33779 5.81724,3.90998 10.29941,1.71657 l 1.14438,-1.71657 0.14305,-0.57219 v -0.57219 -0.42914 -0.71524 -0.42914 -0.57219 -0.42914 -2.86095 h -0.42914 z"
           style="fill:#ffffff"
           id="path39573" />
      </g>
      <path
         transform="matrix(0.7747311,0,0,0.83154469,-821.24433,0.7247593)"
         style="fill:#000000;stroke:#ffffff;stroke-width:0;stroke-linecap:butt;stroke-linejoin:round;stroke-miterlimit:4;stroke-opacity:1;stroke-dashoffset:0"
         d="m 147.07557,701.88501 c 0,4.38278 -3.88456,7.93573 -8.6764,7.93573 -4.79184,0 -8.6764,-3.55295 -8.6764,-7.93573 0,-4.38278 3.88456,-7.93573 8.6764,-7.93573 4.79184,0 8.6764,3.55295 8.6764,7.93573 z"
         id="path39548" />
      <path
         transform="matrix(0.31741402,0,0,0.34069104,-757.89896,345.21578)"
         style="stroke:#ffffff;stroke-width:0;stroke-linecap:butt;stroke-linejoin:round;stroke-miterlimit:4;stroke-opacity:1;stroke-dashoffset:0;fill:#ffffff;fill-opacity:1"
         d="m 147.07557,701.88501 c 0,4.38278 -3.88456,7.93573 -8.6764,7.93573 -4.79184,0 -8.6764,-3.55295 -8.6764,-7.93573 0,-4.38278 3.88456,-7.93573 8.6764,-7.93573 4.79184,0 8.6764,3.55295 8.6764,7.93573 z"
         id="path39550" />
    </g>
  </g>
</svg>
