<?xml version="1.0" encoding="UTF-8" standalone="no"?>
<svg xmlns="http://www.w3.org/2000/svg" height="734.98938" width="834.08563" version="1.0">
 <path stroke-linejoin="round" d="M454.97828,22.43c-7.4343-12.8755-21.9788-20.93-37.9356-20.93-16.2469,0-30.7968,8.495-38.3717,21.6152l-370.6666,642.0714c-7.9552,13.7802-9.1331,31.1377-0.6229,45.8778,8.1234999,14.0703,22.7546,22.425,37.9045,22.425h743.51342c15.1499,0,29.781-8.3548,37.9045-22.425,8.5102-14.74,7.333-32.098-0.623-45.8778l-371.10262-642.7566z" fill-rule="nonzero" stroke-dashoffset="0" stroke="#000" stroke-linecap="round" stroke-miterlimit="2" stroke-dasharray="none" stroke-width="3" fill="#FFF"/>
 <path fill-rule="nonzero" fill="#d40000" d="m417.05288,16.5053c10.9092,0,20.385,5.5528,24.9376,13.4375l371.09372,642.75c5.549,9.6109,6.2861,21.0698,0.625,30.875-5.5096,9.5428-15.2711,14.9062-24.9063,14.9063h-743.53122c-9.6352,0-19.3966-5.3633-24.9062-14.9063-5.6611-9.8052-4.924-21.2631,0.625-30.875l370.6562-642.0625c4.8181-8.3452,14.3881-14.125,25.4062-14.125z"/>
 <path fill-rule="nonzero" fill="#FFF" d="m417.02168,146.6928,283.93752,491.7813-567.84372,0,283.9062-491.7813z"/>
 <path fill-rule="evenodd" fill="#000" d="m241.22642,538.90403c17.45146,0,26.45448-52.30306,73.27612-52.30306s59.19353,52.30306,102.53479,52.30306c43.34125,0,60.92837-52.30306,102.61007-52.30306,41.68174,0,56.93526,52.30306,73.20087,52.30306l-0.00004,45.05317h-351.62181v-45.05317z"/>
</svg>
