<?xml version="1.0" encoding="UTF-8" standalone="no"?>
<!-- Created with Inkscape (http://www.inkscape.org/) -->

<svg
   xmlns:dc="http://purl.org/dc/elements/1.1/"
   xmlns:cc="http://creativecommons.org/ns#"
   xmlns:rdf="http://www.w3.org/1999/02/22-rdf-syntax-ns#"
   xmlns:svg="http://www.w3.org/2000/svg"
   xmlns="http://www.w3.org/2000/svg"
   xmlns:sodipodi="http://sodipodi.sourceforge.net/DTD/sodipodi-0.dtd"
   xmlns:inkscape="http://www.inkscape.org/namespaces/inkscape"
   width="700"
   height="300"
   id="svgSimboloStradaStatale"
   sodipodi:version="0.32"
   inkscape:version="0.48.2 r9819"
   version="1.0"
   sodipodi:docname="SS 9.svg"
   preserveAspectRatio="xMidYMid meet"
   zoomAndPan="magnify">
  <defs
     id="defsSimboloStradaStatale" />
  <sodipodi:namedview
     id="base"
     pagecolor="#ffffff"
     bordercolor="#666666"
     borderopacity="1.0"
     inkscape:pageopacity="0.0"
     inkscape:pageshadow="2"
     inkscape:zoom="1"
     inkscape:cx="361.46937"
     inkscape:cy="79.81658"
     inkscape:document-units="px"
     width="700px"
     height="300px"
     inkscape:window-width="1280"
     inkscape:window-height="908"
     inkscape:window-x="-8"
     inkscape:window-y="-8"
     inkscape:current-layer="svgSimboloStradaStatale"
     showborder="true"
     inkscape:showpageshadow="true"
     showgrid="false"
     inkscape:window-maximized="1" />
  <metadata
     id="metadataSimboloStradaStatale">
    <rdf:RDF>
      <cc:Work
         rdf:about="">
        <dc:format>image/svg+xml</dc:format>
        <dc:type
           rdf:resource="http://purl.org/dc/dcmitype/StillImage" />
        <cc:license
           rdf:resource="http://web.resource.org/cc/PublicDomain" />
        <dc:title></dc:title>
      </cc:Work>
      <cc:License
         rdf:about="http://web.resource.org/cc/PublicDomain">
        <cc:permits
           rdf:resource="http://web.resource.org/cc/Reproduction" />
        <cc:permits
           rdf:resource="http://web.resource.org/cc/Distribution" />
        <cc:permits
           rdf:resource="http://web.resource.org/cc/DerivativeWorks" />
      </cc:License>
    </rdf:RDF>
  </metadata>
  <rect
     style="fill:#00408b;fill-opacity:1"
     id="rectSfondo"
     width="700"
     height="300"
     x="0.80210114"
     y="0.18342018"
     rx="40"
     ry="40" />
  <rect
     ry="25"
     rx="25"
     y="22.68342"
     x="23.302101"
     height="255"
     width="655"
     id="rectBordinoBianco"
     style="fill:none;stroke:#ffffff;stroke-width:15;stroke-linecap:butt;stroke-linejoin:miter;stroke-miterlimit:4;stroke-opacity:1" />
  <g
     style="font-size:820.59832764px;font-style:normal;font-weight:bold;text-align:center;text-anchor:middle;fill:#ffffff;fill-opacity:1;font-family:Arial"
     id="textSS"
     transform="translate(-10.667279,-44.805065)">
    <path
       d="m 161.57676,195.11671 31.79818,29.49025 c 1.795,1.53871 2.69253,3.46199 2.69259,5.76983 -6e-5,5.89813 -2.90635,8.84716 -8.71886,8.84707 -2.47894,9e-5 -4.4877,-0.8547 -6.02627,-2.56436 -3.33372,-3.50456 -6.06905,-7.00919 -8.20598,-10.51392 l -24.36151,14.74513 c 3.84653,6.24003 7.52213,11.28329 11.02679,15.12978 7.35116,7.69316 16.45466,11.53971 27.31054,11.53966 10.85576,5e-5 20.04474,-3.76102 27.56697,-11.28323 7.52206,-7.52208 11.28313,-16.71106 11.28323,-27.56697 -1e-4,-10.85573 -3.59021,-19.95923 -10.77036,-27.31054 l -6.79558,-6.79558 -31.79818,-29.36203 c -1.7951,-1.45299 -2.69263,-3.39763 -2.69259,-5.83394 -4e-5,-2.43599 0.89749,-4.55159 2.69259,-6.34682 1.53858,-1.53845 3.54733,-2.30776 6.02627,-2.30793 2.47884,1.7e-4 4.48759,0.8977 6.02627,2.69259 4.01745,4.01767 6.75277,7.47957 8.20598,10.38569 l 24.61795,-14.87334 c -4.18856,-6.66718 -7.86415,-11.6677 -11.02679,-15.00156 -7.35126,-7.69292 -16.62573,-11.53947 -27.82341,-11.53967 -10.343,2e-4 -19.36102,3.67579 -27.0541,11.02679 -7.69313,7.69329 -11.53968,16.88227 -11.53967,27.56698 -1e-5,10.51406 3.67559,19.61757 11.02679,27.31054 z"
       style="font-size:262.59146118px;font-variant:normal;font-weight:normal;font-stretch:normal;font-family:'Transport Narrow (Alfabeto Stre';-inkscape-font-specification:'Transport Narrow (Alfabeto Stre'"
       id="path4044"
       inkscape:connector-curvature="0" />
    <path
       d="m 264.15155,195.11671 31.79818,29.49025 c 1.795,1.53871 2.69253,3.46199 2.69259,5.76983 -6e-5,5.89813 -2.90635,8.84716 -8.71886,8.84707 -2.47894,9e-5 -4.48769,-0.8547 -6.02627,-2.56436 -3.33372,-3.50456 -6.06905,-7.00919 -8.20598,-10.51392 l -24.36151,14.74513 c 3.84653,6.24003 7.52213,11.28329 11.02679,15.12978 7.35116,7.69316 16.45466,11.53971 27.31054,11.53966 10.85576,5e-5 20.04475,-3.76102 27.56697,-11.28323 7.52206,-7.52208 11.28313,-16.71106 11.28323,-27.56697 -10e-5,-10.85573 -3.59021,-19.95923 -10.77036,-27.31054 l -6.79557,-6.79558 -31.79819,-29.36203 c -1.7951,-1.45299 -2.69263,-3.39763 -2.69259,-5.83394 -4e-5,-2.43599 0.89749,-4.55159 2.69259,-6.34682 1.53858,-1.53845 3.54733,-2.30776 6.02627,-2.30793 2.47884,1.7e-4 4.48759,0.8977 6.02627,2.69259 4.01745,4.01767 6.75278,7.47957 8.20598,10.38569 l 24.61795,-14.87334 c -4.18855,-6.66718 -7.86415,-11.6677 -11.02679,-15.00156 -7.35126,-7.69292 -16.62572,-11.53947 -27.82341,-11.53967 -10.343,2e-4 -19.36102,3.67579 -27.0541,11.02679 -7.69313,7.69329 -11.53968,16.88227 -11.53967,27.56698 -1e-5,10.51406 3.67559,19.61757 11.02679,27.31054 z"
       style="font-size:262.59146118px;font-variant:normal;font-weight:normal;font-stretch:normal;font-family:'Transport Narrow (Alfabeto Stre';-inkscape-font-specification:'Transport Narrow (Alfabeto Stre'"
       id="path4046"
       inkscape:connector-curvature="0" />
    <path
       d="m 423.78356,269.73986 0,-93.72771 -16.28375,0.25644 0,-25.25904 c 13.16375,-0.68367 19.8311,-10.04361 20.00209,-28.07985 l 29.61847,0 0,146.81016 z"
       style="font-size:262.59146118px;font-variant:normal;font-weight:normal;font-stretch:normal;font-family:'Transport Narrow (Alfabeto Stre';-inkscape-font-specification:'Transport Narrow (Alfabeto Stre'"
       id="path4048"
       inkscape:connector-curvature="0" />
    <path
       d="m 523.02468,163.06208 c 2.39337,-8.71869 5.42787,-13.07811 9.10352,-13.07828 3.67553,1.7e-4 6.75278,4.35959 9.23173,13.07828 2.30786,8.46257 3.46183,18.891 3.4619,31.28531 -7e-5,12.22361 -1.15404,22.56656 -3.4619,31.02888 -2.47895,8.71894 -5.5562,13.07837 -9.23173,13.07828 -3.84661,9e-5 -6.88111,-4.27386 -9.10352,-12.82184 -2.47893,-8.80424 -3.71837,-19.06171 -3.71833,-30.77244 -4e-5,-11.88144 1.2394,-22.48083 3.71833,-31.79819 z m -23.20754,-18.33524 c -9.06079,16.41213 -13.59117,32.78134 -13.59116,49.10768 -10e-6,16.41208 4.53037,32.69581 13.59116,48.85124 8.97526,16.24107 19.93793,24.36157 32.88804,24.36152 12.95,5e-5 24.08363,-8.12045 33.40092,-24.36152 8.5478,-15.38612 12.82174,-31.41342 12.82184,-48.08193 -1e-4,-16.66826 -4.27404,-33.29391 -12.82184,-49.87699 -8.63346,-16.3263 -19.59613,-24.48953 -32.88805,-24.48973 -13.29202,2e-4 -24.42565,8.16343 -33.40091,24.48973 z"
       style="font-size:262.59146118px;font-variant:normal;font-weight:normal;font-stretch:normal;font-family:'Transport Narrow (Alfabeto Stre';-inkscape-font-specification:'Transport Narrow (Alfabeto Stre'"
       id="path4050"
       inkscape:connector-curvature="0" />
  </g>
</svg>
