<?xml version="1.0" encoding="UTF-8" standalone="no"?>
<!-- Created with Inkscape (http://www.inkscape.org/) -->

<svg
   xmlns:dc="http://purl.org/dc/elements/1.1/"
   xmlns:cc="http://creativecommons.org/ns#"
   xmlns:rdf="http://www.w3.org/1999/02/22-rdf-syntax-ns#"
   xmlns:svg="http://www.w3.org/2000/svg"
   xmlns="http://www.w3.org/2000/svg"
   xmlns:sodipodi="http://sodipodi.sourceforge.net/DTD/sodipodi-0.dtd"
   xmlns:inkscape="http://www.inkscape.org/namespaces/inkscape"
   version="1.0"
   width="834.08563"
   height="734.98938"
   id="svg2"
   sodipodi:version="0.32"
   inkscape:version="0.47 r22583"
   sodipodi:docname="ZZ.svg"
   inkscape:output_extension="org.inkscape.output.svg.inkscape">
  <metadata
     id="metadata12">
    <rdf:RDF>
      <cc:Work
         rdf:about="">
        <dc:format>image/svg+xml</dc:format>
        <dc:type
           rdf:resource="http://purl.org/dc/dcmitype/StillImage" />
      </cc:Work>
    </rdf:RDF>
  </metadata>
  <sodipodi:namedview
     inkscape:window-height="1004"
     inkscape:window-width="1280"
     inkscape:pageshadow="2"
     inkscape:pageopacity="0.0"
     guidetolerance="10.0"
     gridtolerance="10.0"
     objecttolerance="10.0"
     borderopacity="1.0"
     bordercolor="#666666"
     pagecolor="#ffffff"
     id="base"
     inkscape:zoom="0.31112698"
     inkscape:cx="136.98263"
     inkscape:cy="318.76585"
     inkscape:window-x="-8"
     inkscape:window-y="-8"
     inkscape:current-layer="svg2"
     width="200px"
     height="200px"
     showgrid="false"
     inkscape:showpageshadow="false"
     inkscape:window-maximized="1" />
  <defs
     id="defs4">
    <inkscape:perspective
       sodipodi:type="inkscape:persp3d"
       inkscape:vp_x="0 : 450 : 1"
       inkscape:vp_y="0 : 1000 : 0"
       inkscape:vp_z="900 : 450 : 1"
       inkscape:persp3d-origin="450 : 300 : 1"
       id="perspective10" />
  </defs>
  <path
     sodipodi:nodetypes="cscssssssc"
     id="path3084"
     d="M 454.97828,22.43 C 447.54398,9.5545 432.99948,1.5 417.04268,1.5 c -16.2469,0 -30.7968,8.495 -38.3717,21.6152 L 8.0043801,665.1866 c -7.9552,13.7802 -9.1331,31.1377 -0.6229,45.8778 8.1234999,14.0703 22.7545999,22.425 37.9044999,22.425 l 743.51342,0 c 15.1499,0 29.781,-8.3548 37.9045,-22.425 8.5102,-14.74 7.333,-32.098 -0.623,-45.8778 L 454.97828,22.43 z"
     style="fill:#ffffff;fill-opacity:1;fill-rule:nonzero;stroke:#000000;stroke-width:3;stroke-linecap:round;stroke-linejoin:round;stroke-miterlimit:2;stroke-opacity:1;stroke-dasharray:none;stroke-dashoffset:0" />
  <path
     style="fill:#d40000;fill-opacity:1;fill-rule:nonzero;stroke:none"
     d="m 417.05288,16.5053 c 10.9092,0 20.385,5.5528 24.9376,13.4375 l 371.09372,642.75 c 5.549,9.6109 6.2861,21.0698 0.625,30.875 -5.5096,9.5428 -15.2711,14.9062 -24.9063,14.9063 l -743.53122,0 c -9.6352,0 -19.3966,-5.3633 -24.9062,-14.9063 -5.6611,-9.8052 -4.924,-21.2631 0.625,-30.875 L 391.64668,30.6303 c 4.8181,-8.3452 14.3881,-14.125 25.4062,-14.125 z"
     id="path3092" />
  <path
     style="fill:#ffffff;fill-opacity:1;fill-rule:nonzero;stroke:none"
     d="m 417.02168,146.6928 283.93752,491.7813 -567.84372,0 283.9062,-491.7813 z"
     id="path3102" />
  <path
     style="fill:#000000;fill-opacity:1;fill-rule:evenodd;stroke:none"
     d="m 373.24783,293.57787 c -6.626,0.43401 -13.56143,3.57176 -16.29074,6.90727 l -27.49877,43.78952 18.24563,0.5213 16.68172,-28.28073 c 3.62797,-6.43186 10.45941,-8.1093 17.46368,-7.42857 33.68886,3.76933 66.89774,10.27967 99.56901,19.28823 6.74984,1.99065 12.33659,6.10128 13.29325,13.42358 l 4.95238,32.58148 17.0727,6.38597 -9.12281,-51.08777 c -1.46549,-4.70245 -7.9737,-11.04182 -14.98749,-13.42357 -20.39248,-6.08152 -40.28122,-10.86829 -59.68928,-14.5965 -19.40803,-3.72822 -38.41597,-6.43576 -56.95243,-8.08021 -0.92442,-0.0521 -1.79027,-0.062 -2.73685,0 z m -27.23812,57.21309 c -8.6066,0.11979 -17.27593,0.59286 -25.93486,1.30325 -1.91522,-0.37196 -4.36701,3.44424 -5.34336,8.47119 l -0.5213,2.60652 40.40104,7.81956 c 1.28343,0.2493 2.07717,1.56653 1.82456,2.86717 l -0.78196,3.77945 c -0.25262,1.30063 -1.45333,2.20411 -2.73684,1.95489 l -40.27072,-7.81956 -1.56391,8.08021 39.87974,7.81956 c 1.27493,0.24768 2.2601,1.18477 2.08521,2.08521 l -0.5213,2.60652 c -0.1748,0.90048 -1.46189,1.42057 -2.73684,1.17293 l -39.87974,-7.81955 0,0.13032 c -0.97636,5.02704 -0.22093,9.40253 1.69424,9.77445 l 203.56911,39.61908 c 1.91531,0.37196 4.23662,-3.44423 5.21304,-8.47118 l 0.13032,-0.13033 -39.09778,-7.5589 c -1.27506,-0.2476 -1.99943,-1.18482 -1.82456,-2.08522 l 0.5213,-2.60652 c 0.17491,-0.90039 1.20125,-1.42053 2.4762,-1.17293 l 38.96745,7.5589 1.69424,-8.21053 -38.96746,-7.5589 c -1.28345,-0.24927 -2.07712,-1.43622 -1.82456,-2.73685 l 0.65163,-3.90978 c 0.2526,-1.30067 1.58368,-2.07383 2.86717,-1.82456 l 38.83713,7.5589 0.5213,-2.73684 c 0.97634,-5.027 0.22108,-9.40249 -1.69423,-9.77445 -33.25714,-15.92115 -66.93169,-27.26603 -100.87228,-33.88474 -25.45549,-4.96404 -50.94216,-7.26666 -76.76198,-6.90727 z m 43.13789,25.54388 c 0.47072,-0.10255 0.927,-0.0984 1.43358,0 l 56.17048,10.94738 c 2.02633,0.39352 3.40383,2.3389 2.9975,4.43108 l -2.9975,15.37846 c -0.40632,2.09218 -2.40479,3.39102 -4.43108,2.9975 L 386.1501,399.2722 c -2.02633,-0.39356 -3.27352,-2.46922 -2.86717,-4.5614 l 2.9975,-15.37846 c 0.30477,-1.56913 1.455,-2.68985 2.86717,-2.9975 z m -84.45121,21.6341 c -1.38912,0.21203 -2.4946,1.09854 -2.73684,2.34587 l -1.56391,8.47119 c -0.32302,1.66304 1.00171,3.1312 2.99749,3.5188 l 212.17063,41.31332 c 1.99567,0.3876 3.8473,-0.55258 4.17043,-2.21554 l 1.69424,-8.47119 c 0.32304,-1.66304 -1.00187,-3.39189 -2.9975,-3.77945 l -212.30095,-41.183 c -0.49892,-0.0969 -0.97055,-0.0707 -1.43359,0 z m 2.86717,19.28824 -4.0401,20.98248 c -0.78423,4.03814 1.69609,7.81718 5.73434,8.60151 l 24.76193,4.82206 c 4.03823,0.78438 7.94757,-1.82656 8.73184,-5.86467 l 4.0401,-20.85215 -39.22811,-7.68923 z m 162.12547,31.53888 -4.17043,20.85215 c -0.78429,4.03814 1.82644,7.81714 5.86467,8.60151 l 24.76192,4.82206 c 4.03811,0.78429 7.94755,-1.6962 8.73184,-5.73434 l 4.04011,-20.98248 -39.22811,-7.5589 z m -168.90242,11.98999 c -11.25107,47.43042 56.08451,55.71131 42.74691,98.39608 -8.71246,27.88287 -98.30231,64.57877 -122.76703,74.15546 l 114.03519,0 c 2.421,-2.12938 44.67745,-39.56099 48.61158,-71.28829 7.67664,-62.26631 -57.9961,-53.27662 -61.64417,-97.4838 l -20.98248,-3.77945 z m 167.72949,33.88474 c -7.24563,61.80173 58.78162,62.38071 54.60656,95.39859 -2.06194,16.30638 -41.97379,35.17069 -60.86221,43.26821 l 75.32839,0 c 8.64747,-8.47323 22.93737,-22.88223 22.93737,-46.94449 0,-44.60291 -76.372,-35.82574 -69.3334,-87.81253 l -22.67671,-3.90978 z"
     id="path1915"
     sodipodi:nodetypes="ccccccccccccscccccccccccccccccccccccccccccccccccsccccccccccccccccccccccccccccccccccccsccccccsccscc" />
</svg>
