<?xml version="1.0" encoding="UTF-8" standalone="no"?>
<!-- Created with Inkscape (http://www.inkscape.org/) -->

<svg
   xmlns:dc="http://purl.org/dc/elements/1.1/"
   xmlns:cc="http://creativecommons.org/ns#"
   xmlns:rdf="http://www.w3.org/1999/02/22-rdf-syntax-ns#"
   xmlns:svg="http://www.w3.org/2000/svg"
   xmlns="http://www.w3.org/2000/svg"
   xmlns:sodipodi="http://sodipodi.sourceforge.net/DTD/sodipodi-0.dtd"
   xmlns:inkscape="http://www.inkscape.org/namespaces/inkscape"
   width="700"
   height="300"
   id="svgSimboloStradaStatale"
   sodipodi:version="0.32"
   inkscape:version="0.48.4 r9939"
   version="1.0"
   sodipodi:docname="SS11.svg"
   preserveAspectRatio="xMidYMid meet"
   zoomAndPan="magnify">
  <defs
     id="defsSimboloStradaStatale" />
  <sodipodi:namedview
     id="base"
     pagecolor="#ffffff"
     bordercolor="#666666"
     borderopacity="1.0"
     inkscape:pageopacity="0.0"
     inkscape:pageshadow="2"
     inkscape:zoom="1.23"
     inkscape:cx="346.33758"
     inkscape:cy="133.32595"
     inkscape:document-units="px"
     width="700px"
     height="300px"
     inkscape:window-width="1366"
     inkscape:window-height="706"
     inkscape:window-x="-8"
     inkscape:window-y="-8"
     inkscape:current-layer="svgSimboloStradaStatale"
     showborder="true"
     inkscape:showpageshadow="true"
     showgrid="false"
     inkscape:window-maximized="1" />
  <metadata
     id="metadataSimboloStradaStatale">
    <rdf:RDF>
      <cc:Work
         rdf:about="">
        <dc:format>image/svg+xml</dc:format>
        <dc:type
           rdf:resource="http://purl.org/dc/dcmitype/StillImage" />
        <cc:license
           rdf:resource="http://web.resource.org/cc/PublicDomain" />
        <dc:title></dc:title>
      </cc:Work>
      <cc:License
         rdf:about="http://web.resource.org/cc/PublicDomain">
        <cc:permits
           rdf:resource="http://web.resource.org/cc/Reproduction" />
        <cc:permits
           rdf:resource="http://web.resource.org/cc/Distribution" />
        <cc:permits
           rdf:resource="http://web.resource.org/cc/DerivativeWorks" />
      </cc:License>
    </rdf:RDF>
  </metadata>
  <rect
     style="fill: rgb(0, 64, 139); fill-opacity: 1;"
     id="rectSfondo"
     width="700"
     height="300"
     x="0"
     y="0"
     rx="40"
     ry="40" />
  <rect
     ry="25"
     rx="25"
     y="22.5"
     x="22.5"
     height="255"
     width="655"
     id="rectBordinoBianco"
     style="fill: none; stroke: white; stroke-width: 15; stroke-linecap: butt; stroke-linejoin: miter; stroke-miterlimit: 4; stroke-opacity: 1;" />
  <g
     style="font-size:820.59832764px;font-style:normal;font-weight:bold;text-align:center;text-anchor:middle;fill:#ffffff;fill-opacity:1;font-family:Arial"
     id="textSS"
     transform="translate(5.331435,8.456771)">
    <path
       d="m 163.8805,140.6457 31.79819,29.49025 c 1.79499,1.53872 2.69252,3.46199 2.69259,5.76983 -7e-5,5.89814 -2.90635,8.84716 -8.71886,8.84708 -2.47894,8e-5 -4.4877,-0.85471 -6.02627,-2.56437 -3.33373,-3.50455 -6.06905,-7.00919 -8.20598,-10.51392 l -24.36152,14.74513 c 3.84654,6.24004 7.52213,11.28329 11.02679,15.12978 7.35116,7.69316 16.45467,11.53971 27.31054,11.53966 10.85577,5e-5 20.04475,-3.76102 27.56698,-11.28322 7.52206,-7.52208 11.28313,-16.71107 11.28322,-27.56698 -9e-5,-10.85573 -3.5902,-19.95923 -10.77035,-27.31054 l -6.79558,-6.79558 -31.79818,-29.36203 c -1.7951,-1.45299 -2.69263,-3.39763 -2.69259,-5.83394 -4e-5,-2.43599 0.89749,-4.55159 2.69259,-6.346817 1.53857,-1.538453 3.54733,-2.307763 6.02627,-2.307932 2.47883,1.69e-4 4.48759,0.897698 6.02626,2.692588 4.01746,4.017671 6.75278,7.479571 8.20599,10.385701 l 24.61795,-14.873348 c -4.18856,-6.667184 -7.86415,-11.6677 -11.02679,-15.001563 -7.35127,-7.692915 -16.62573,-11.539466 -27.82341,-11.539664 -10.343,1.98e-4 -19.36103,3.675791 -27.05411,11.02679 -7.69312,7.693288 -11.53967,16.882271 -11.53966,27.566975 -1e-5,10.51406 3.67558,19.61757 11.02679,27.31054 z"
       style="font-size:262.59146118px;font-variant:normal;font-weight:normal;font-stretch:normal;font-family:'Transport Narrow (Alfabeto Stre';-inkscape-font-specification:'Transport Narrow (Alfabeto Stre'"
       id="path3045"
       inkscape:connector-curvature="0" />
    <path
       d="m 248.63292,67.689378 37.05515,0 c 9.65907,0.854987 17.28806,3.034699 22.887,6.539143 5.59879,3.504827 10.12918,8.056578 13.59116,13.655269 3.46181,5.599046 5.49193,12.45873 6.09038,20.57907 0.59826,8.12065 0.36319,14.44609 -0.70521,18.97633 -1.06857,4.53052 -2.92774,8.95406 -5.5775,13.27062 -2.64993,4.31681 -6.75292,7.75733 -12.30898,10.32158 l -0.76931,0.12822 28.84916,63.98103 -32.43927,0 -24.87439,-57.05723 0,57.18545 -31.79819,0.12822 z m 31.79819,28.592723 0,35.644739 c 2.05145,0.17109 4.4876,-0.064 7.30845,-0.7052 2.82076,-0.64096 4.91499,-2.62834 6.28271,-5.96216 1.36761,-3.33354 2.05144,-7.20146 2.0515,-11.60377 -6e-5,-4.40202 -0.76937,-8.20583 -2.30794,-11.41145 -1.53867,-3.205295 -4.74413,-5.19268 -9.61638,-5.962159 z"
       style="font-size:262.59146118px;font-variant:normal;font-weight:normal;font-stretch:normal;font-family:'Transport Narrow (Alfabeto Stre';-inkscape-font-specification:'Transport Narrow (Alfabeto Stre'"
       id="path3047"
       inkscape:connector-curvature="0" />
    <path
       d="m 434.2933,215.26886 0,-93.72772 -16.28375,0.25644 0,-25.259042 c 13.16375,-0.683662 19.8311,-10.043603 20.00209,-28.079849 l 29.61847,0 0,146.810171 z"
       style="font-size:262.59146118px;font-variant:normal;font-weight:normal;font-stretch:normal;font-family:'Transport Narrow (Alfabeto Stre';-inkscape-font-specification:'Transport Narrow (Alfabeto Stre'"
       id="path3049"
       inkscape:connector-curvature="0" />
    <path
       d="m 509.68576,215.26886 0,-93.72772 -16.28375,0.25644 0,-25.259042 c 13.16374,-0.683662 19.8311,-10.043603 20.00208,-28.079849 l 29.61847,0 0,146.810171 z"
       style="font-size:262.59146118px;font-variant:normal;font-weight:normal;font-stretch:normal;font-family:'Transport Narrow (Alfabeto Stre';-inkscape-font-specification:'Transport Narrow (Alfabeto Stre'"
       id="path3051"
       inkscape:connector-curvature="0" />
  </g>
</svg>
