<?xml version="1.0" encoding="UTF-8" standalone="no"?>
<!-- Created with Inkscape (http://www.inkscape.org/) -->

<svg
   xmlns:dc="http://purl.org/dc/elements/1.1/"
   xmlns:cc="http://creativecommons.org/ns#"
   xmlns:rdf="http://www.w3.org/1999/02/22-rdf-syntax-ns#"
   xmlns:svg="http://www.w3.org/2000/svg"
   xmlns="http://www.w3.org/2000/svg"
   xmlns:sodipodi="http://sodipodi.sourceforge.net/DTD/sodipodi-0.dtd"
   xmlns:inkscape="http://www.inkscape.org/namespaces/inkscape"
   width="741.94727"
   height="998.47577"
   id="svg15642"
   version="1.1"
   inkscape:version="0.47 r22583"
   sodipodi:docname="Italian traffic signs - transitabilità 1.svg">
  <defs
     id="defs15644">
    <inkscape:perspective
       sodipodi:type="inkscape:persp3d"
       inkscape:vp_x="0 : 526.18109 : 1"
       inkscape:vp_y="0 : 1000 : 0"
       inkscape:vp_z="744.09448 : 526.18109 : 1"
       inkscape:persp3d-origin="372.04724 : 350.78739 : 1"
       id="perspective15650" />
    <inkscape:perspective
       id="perspective15531"
       inkscape:persp3d-origin="0.5 : 0.33333333 : 1"
       inkscape:vp_z="1 : 0.5 : 1"
       inkscape:vp_y="0 : 1000 : 0"
       inkscape:vp_x="0 : 0.5 : 1"
       sodipodi:type="inkscape:persp3d" />
  </defs>
  <sodipodi:namedview
     id="base"
     pagecolor="#ffffff"
     bordercolor="#666666"
     borderopacity="1.0"
     inkscape:pageopacity="0.0"
     inkscape:pageshadow="2"
     inkscape:zoom="0.49843731"
     inkscape:cx="328.79817"
     inkscape:cy="868.20357"
     inkscape:document-units="px"
     inkscape:current-layer="layer1"
     showgrid="false"
     inkscape:window-width="1600"
     inkscape:window-height="838"
     inkscape:window-x="-8"
     inkscape:window-y="-8"
     inkscape:window-maximized="1" />
  <metadata
     id="metadata15647">
    <rdf:RDF>
      <cc:Work
         rdf:about="">
        <dc:format>image/svg+xml</dc:format>
        <dc:type
           rdf:resource="http://purl.org/dc/dcmitype/StillImage" />
        <dc:title />
      </cc:Work>
    </rdf:RDF>
  </metadata>
  <g
     inkscape:label="Livello 1"
     inkscape:groupmode="layer"
     id="layer1"
     transform="translate(-2.0579052,0.86452185)">
    <path
       d="m 2.0579052,-0.86452185 741.9472648,0 0,998.47575185 -741.9472648,0 0,-998.47575185 z"
       style="fill:#00408b;fill-opacity:1;fill-rule:nonzero;stroke:none"
       id="path5880" />
    <path
       d="m 83.319222,741.09024 579.958178,0 0,175.26713 -579.958178,0 0,-175.26713 z"
       style="fill:#ffffff;fill-opacity:1;fill-rule:nonzero;stroke:none"
       id="path5882" />
    <path
       d="m 83.319222,485.09523 579.958178,0 0,175.26719 -579.958178,0 0,-175.26719 z"
       style="fill:#ffffff;fill-opacity:1;fill-rule:nonzero;stroke:none"
       id="path5884" />
    <g
       id="g5888"
       transform="matrix(7.5144552,0,0,-7.5144552,373.30655,977.42731)">
      <path
         d="m 0,0 0,-1.767 40.356,0 c 4.452,0 8.128,3.604 8.128,8.057 l 0,114.922 c 0,4.453 -3.676,8.058 -8.128,8.058 l -40.356,0 0,-1.767 40.356,0 c 3.463,0 6.29,-2.827 6.29,-6.291 l 0,-114.922 C 46.646,2.827 43.819,0 40.356,0 L 0,0 z"
         style="fill:#ffffff;fill-opacity:1;fill-rule:nonzero;stroke:none"
         id="path5890" />
    </g>
    <g
       id="g5892"
       transform="matrix(7.5144552,0,0,-7.5144552,373.30655,19.313229)">
      <path
         d="m 0,0 0,1.767 -40.428,0 c -4.453,0 -8.057,-3.605 -8.057,-8.058 l 0,-114.921 c 0,-4.453 3.604,-8.058 8.057,-8.058 l 40.428,0 0,1.767 -40.428,0 c -3.463,0 -6.291,2.827 -6.291,6.291 l 0,114.921 c 0,3.464 2.828,6.291 6.291,6.291 L 0,0 z"
         style="fill:#ffffff;fill-opacity:1;fill-rule:nonzero;stroke:none"
         id="path5894" />
    </g>
    <g
       id="g14607"
       transform="matrix(6.3983038,0,0,-6.3983038,-1145.0934,3721.3866)">
      <path
         id="path8170"
         style="fill:#00914a;fill-opacity:1;fill-rule:nonzero;stroke:none"
         d="m 191.565,546.179 91.071,0 0,-27.522 -91.071,0 0,27.522 z" />
      <g
         transform="translate(198.3199,536.2543)"
         id="g8178">
        <path
           id="path8180"
           style="fill:#ffffff;fill-opacity:1;fill-rule:nonzero;stroke:none"
           d="m 0,0 0,-0.834 c 0.333,0.167 0.501,0.333 0.75,0.584 0,-0.251 0.084,-0.333 0.167,-0.5 l 1.168,0 0,0.167 c -0.25,0.082 -0.25,0.416 -0.25,0.666 l 0,2.336 C 1.835,2.753 1.751,3.67 0,3.586 L 0.083,2.753 C 0.333,2.753 0.75,2.669 0.75,2.252 0.75,2.085 0.667,2.002 0.333,1.919 L 0,1.835 0,1.085 c 0.25,0.084 0.501,0.084 0.75,0.25 l 0,-0.5 C 0.75,0.334 0.333,0.083 0,0" />
      </g>
      <g
         transform="translate(198.3199,538.9232)"
         id="g8182">
        <path
           id="path8184"
           style="fill:#ffffff;fill-opacity:1;fill-rule:nonzero;stroke:none"
           d="m 0,0 0.083,1.001 c -1.167,0 -1.751,-0.417 -1.834,-1.501 l 1.084,0 c 0,0.5 0.333,0.584 0.75,0.584 L 0,0 z" />
      </g>
      <g
         transform="translate(198.3199,537.3396)"
         id="g8186">
        <path
           id="path8188"
           style="fill:#ffffff;fill-opacity:1;fill-rule:nonzero;stroke:none"
           d="M 0,0 0,0.75 -0.667,0.666 c -0.668,-0.083 -1.251,-0.417 -1.251,-1.417 0,-0.918 0.75,-1.335 1.334,-1.251 0.25,0 0.417,0 0.584,0.083 l 0,0.834 c -0.083,-0.084 -0.167,-0.084 -0.251,-0.084 -0.333,0 -0.583,0.167 -0.583,0.501 0,0.5 0.417,0.584 0.834,0.668" />
      </g>
      <g
         transform="translate(203.3236,536.3376)"
         id="g8190">
        <path
           id="path8192"
           style="fill:#ffffff;fill-opacity:1;fill-rule:nonzero;stroke:none"
           d="m 0,0 0,-1 0.167,0 C 1.501,-1 2.002,0.251 2.002,1.335 2.002,2.836 1.168,3.587 0.25,3.587 0.167,3.587 0.083,3.503 0,3.503 L 0,2.502 C 0.584,2.419 0.834,1.835 0.834,1.251 0.834,0.751 0.667,0.084 0,0" />
      </g>
      <g
         transform="translate(203.3236,538.84)"
         id="g8194">
        <path
           id="path8196"
           style="fill:#ffffff;fill-opacity:1;fill-rule:nonzero;stroke:none"
           d="M 0,0 0,1.001 C -0.584,0.917 -0.667,0.333 -1.084,0.333 l 0,0.668 -1.084,0 0,-1.835 0,-4.253 1.167,0 0,2.335 C -0.917,-3.086 -0.667,-3.503 0,-3.503 l 0,1.001 -0.083,0 c -0.751,0 -1.001,0.583 -1.001,1.251 0,0.667 0.167,1.334 0.917,1.334 C -0.083,0.083 0,0 0,0" />
      </g>
      <g
         transform="translate(207.8272,536.3376)"
         id="g8198">
        <path
           id="path8200"
           style="fill:#ffffff;fill-opacity:1;fill-rule:nonzero;stroke:none"
           d="m 0,0 0.083,-1 c 0.918,0 1.668,0.584 1.919,1.417 l -1.168,0 C 0.75,0.167 0.417,0 0.083,0 L 0,0 z" />
      </g>
      <g
         transform="translate(207.8272,538.0891)"
         id="g8202">
        <path
           id="path8204"
           style="fill:#ffffff;fill-opacity:1;fill-rule:nonzero;stroke:none"
           d="m 0,0 0,-0.75 2.002,0 0,0.25 C 2.002,0.584 1.585,1.751 0,1.751 L 0,0.834 C 0.417,0.834 0.834,0.5 0.834,0 L 0,0 z" />
      </g>
      <g
         transform="translate(207.8272,538.9232)"
         id="g8206">
        <path
           id="path8208"
           style="fill:#ffffff;fill-opacity:1;fill-rule:nonzero;stroke:none"
           d="m 0,0 0,0.917 0,0.084 c -1.501,0 -2.085,-1.084 -2.085,-2.169 0,-1.834 1.001,-2.418 2.085,-2.418 l 0.083,1 c -0.5,0 -1,0.168 -1,1.002 l 0.917,0 0,0.75 -0.917,0 c 0.083,0.5 0.333,0.918 0.917,0.918 L 0,0 z" />
      </g>
      <g
         transform="translate(210.5794,535.5039)"
         id="g8210">
        <path
           id="path8212"
           style="fill:#ffffff;fill-opacity:1;fill-rule:nonzero;stroke:none"
           d="m 0,0 1.168,0 0,2.252 c 0,0.75 0.416,1.001 1,1.001 l 0.334,0 0,1.167 -0.167,0 C 1.584,4.42 1.334,3.92 1.084,3.586 l 0,0.751 L 0,4.337 0,0 z" />
      </g>
      <g
         transform="translate(213.9153,536.4214)"
         id="g8214">
        <path
           id="path8216"
           style="fill:#ffffff;fill-opacity:1;fill-rule:nonzero;stroke:none"
           d="m 0,0 c 0,-0.584 0.167,-1.084 1.168,-1.084 l 0.166,0 c 0.167,0 0.417,0.083 0.501,0.083 l 0,0.917 -0.251,0 C 1.168,-0.084 1.168,0 1.168,0.25 l 0,2.336 0.667,0 0,0.833 -0.667,0 0,1.168 -1.168,0 0,-1.168 -0.584,0 0,-0.833 L 0,2.586 0,0 z" />
      </g>
      <g
         transform="translate(218.5023,536.3376)"
         id="g8218">
        <path
           id="path8220"
           style="fill:#ffffff;fill-opacity:1;fill-rule:nonzero;stroke:none"
           d="M 0,0 0,-1 C 1.334,-0.917 2.085,0.084 2.085,1.335 2.085,2.586 1.251,3.503 0,3.503 L 0,2.586 C 0.75,2.502 0.919,1.751 0.919,1.335 0.919,0.751 0.75,0.084 0,0" />
      </g>
      <g
         transform="translate(218.5023,538.9232)"
         id="g8222">
        <path
           id="path8224"
           style="fill:#ffffff;fill-opacity:1;fill-rule:nonzero;stroke:none"
           d="m 0,0 0,0.917 -0.083,0.084 c -1.502,0 -2.252,-1.084 -2.252,-2.252 0,-1.084 0.584,-2.335 2.252,-2.335 l 0.083,0 0,1 -0.083,0 c -0.918,0 -1.085,0.752 -1.085,1.335 0,0.501 0.167,1.335 1.085,1.335 L 0,0 z" />
      </g>
      <g
         transform="translate(256.0316,536.3376)"
         id="g8226">
        <path
           id="path8228"
           style="fill:#ffffff;fill-opacity:1;fill-rule:nonzero;stroke:none"
           d="M 0,0 0,-1 C 1.418,-1 2.168,0.084 2.168,1.335 2.168,2.586 1.334,3.503 0,3.503 L 0,2.586 C 0.834,2.586 1.001,1.751 1.001,1.335 1.001,0.751 0.834,0 0,0" />
      </g>
      <g
         transform="translate(256.0316,538.9232)"
         id="g8230">
        <path
           id="path8232"
           style="fill:#ffffff;fill-opacity:1;fill-rule:nonzero;stroke:none"
           d="m 0,0 0,0.917 0,0.084 c -1.501,0 -2.252,-1.084 -2.252,-2.252 0,-1.084 0.584,-2.335 2.252,-2.335 l 0,1 c -0.917,0 -1.084,0.752 -1.084,1.335 0,0.501 0.167,1.335 1.084,1.335 L 0,0 z" />
      </g>
      <g
         transform="translate(262.8714,539.8406)"
         id="g8234">
        <path
           id="path8236"
           style="fill:#ffffff;fill-opacity:1;fill-rule:nonzero;stroke:none"
           d="m 0,0 -1.169,0 0,-2.501 c 0,-0.751 -0.5,-1.002 -0.834,-1.002 -0.333,0 -0.75,0.167 -0.75,0.834 l 0,2.669 -1.168,0 0,-2.835 c 0,-1.084 0.667,-1.668 1.501,-1.668 0.586,0 1.084,0.333 1.335,0.75 l 0,-0.584 1.085,0 L 0,0 z" />
      </g>
      <g
         transform="translate(265.0388,535.5039)"
         id="g8238">
        <path
           id="path8240"
           style="fill:#ffffff;fill-opacity:1;fill-rule:nonzero;stroke:none"
           d="m 0,0 1.168,0 0.084,0.167 1.5,4.17 -1.251,0 -0.917,-3.169 -0.918,3.169 -1.251,0 L -1.501,4.17 0,0 z" />
      </g>
      <g
         transform="translate(270.0426,536.3376)"
         id="g8242">
        <path
           id="path8244"
           style="fill:#ffffff;fill-opacity:1;fill-rule:nonzero;stroke:none"
           d="m 0,0 0,-1 0.167,0 c 0.917,0 1.668,0.584 1.918,1.417 l -1.168,0 C 0.834,0.167 0.501,0 0.167,0 L 0,0 z" />
      </g>
      <g
         transform="translate(270.0426,538.0891)"
         id="g8246">
        <path
           id="path8248"
           style="fill:#ffffff;fill-opacity:1;fill-rule:nonzero;stroke:none"
           d="m 0,0 0,-0.75 2.085,0 0,0.25 C 2.085,0.668 1.668,1.835 0,1.751 L 0.084,0.918 C 0.501,0.918 0.917,0.584 0.917,0 L 0,0 z" />
      </g>
      <g
         transform="translate(270.0426,538.9232)"
         id="g8250">
        <path
           id="path8252"
           style="fill:#ffffff;fill-opacity:1;fill-rule:nonzero;stroke:none"
           d="M 0,0 0.084,1.001 C -1.418,1.001 -2,-0.083 -2,-1.168 c 0,-1.834 0.916,-2.418 2,-2.418 l 0,1 c -0.417,0 -0.834,0.168 -0.834,1.002 l 0.834,0 0,0.75 -0.834,0 c 0.084,0.5 0.334,0.918 0.918,0.918 L 0,0 z" />
      </g>
      <g
         transform="translate(272.8784,535.5039)"
         id="g8254">
        <path
           id="path8256"
           style="fill:#ffffff;fill-opacity:1;fill-rule:nonzero;stroke:none"
           d="m 0,0 1.168,0 0,2.252 c 0,0.75 0.416,1.001 1.002,1.001 l 0.332,0 0,1.167 -0.167,0 C 1.584,4.42 1.334,3.92 1.084,3.586 l 0,0.751 L 0,4.337 0,0 z" />
      </g>
      <g
         transform="translate(276.214,536.4214)"
         id="g8258">
        <path
           id="path8260"
           style="fill:#ffffff;fill-opacity:1;fill-rule:nonzero;stroke:none"
           d="m 0,0 c 0,-0.584 0.167,-1.084 1.168,-1.084 l 0.167,0 c 0.167,0 0.416,0.083 0.5,0.083 l 0,0.917 -0.25,0 C 1.168,-0.084 1.168,0 1.168,0.25 l 0,2.336 0.667,0 0,0.833 -0.667,0 0,1.168 -1.168,0 0,-1.168 -0.584,0 0,-0.833 L 0,2.586 0,0 z" />
      </g>
      <g
         transform="translate(248.8604,524.6619)"
         id="g8262">
        <path
           id="path8264"
           style="fill:#ffffff;fill-opacity:1;fill-rule:nonzero;stroke:none"
           d="m 0,0 0,-0.834 c 1.584,0 2.084,0.751 2.084,2.085 l 0,4.087 L 1,5.338 1,4.67 C 0.749,5.004 0.416,5.254 0,5.338 L 0,4.337 C 0.582,4.337 0.916,3.753 0.916,3.169 0.916,2.586 0.749,1.919 0,1.919 L 0,0.918 c 0.332,0.083 0.666,0.25 0.916,0.75 l 0,-0.084 0,-0.5 C 0.916,0.584 0.833,0 0,0" />
      </g>
      <g
         transform="translate(248.8604,528.9985)"
         id="g8266">
        <path
           id="path8268"
           style="fill:#ffffff;fill-opacity:1;fill-rule:nonzero;stroke:none"
           d="m 0,0 0,1.001 c -0.084,0 -0.252,0.084 -0.334,0.084 -1.251,0 -1.752,-1.168 -1.752,-2.252 0,-1.668 1.001,-2.252 1.834,-2.252 l 0.252,0 0,1.001 c -0.668,0 -0.918,0.667 -0.918,1.251 0,1 0.417,1.251 0.918,1.251 L 0,0 z" />
      </g>
      <g
         transform="translate(248.8604,523.8282)"
         id="g8270">
        <path
           id="path8272"
           style="fill:#ffffff;fill-opacity:1;fill-rule:nonzero;stroke:none"
           d="m 0,0 0,0.834 c -0.585,0 -0.752,0.167 -0.752,0.416 l -1.251,0 C -1.919,0.25 -0.752,0 -0.168,0 L 0,0 z" />
      </g>
      <g
         transform="translate(253.6963,526.4967)"
         id="g8274">
        <path
           id="path8276"
           style="fill:#ffffff;fill-opacity:1;fill-rule:nonzero;stroke:none"
           d="m 0,0 0,-1.001 c 0.918,0 1.668,0.584 1.918,1.419 l -1.167,0 C 0.668,0.167 0.334,0 0,0" />
      </g>
      <g
         transform="translate(253.6963,528.2482)"
         id="g8278">
        <path
           id="path8280"
           style="fill:#ffffff;fill-opacity:1;fill-rule:nonzero;stroke:none"
           d="m 0,0 0,-0.75 1.918,0 0,0.25 C 1.918,0.584 1.502,1.668 0,1.751 L 0,0.834 C 0.418,0.75 0.751,0.5 0.751,0 L 0,0 z" />
      </g>
      <g
         transform="translate(253.6963,529.0823)"
         id="g8282">
        <path
           id="path8284"
           style="fill:#ffffff;fill-opacity:1;fill-rule:nonzero;stroke:none"
           d="m 0,0 0,0.917 -0.083,0.084 c -1.502,0 -2.085,-1.085 -2.085,-2.169 0,-1.834 1,-2.418 2.168,-2.418 l 0,1 c -0.5,0 -1.001,0.167 -1.001,1.002 l 1.001,0 0,0.75 -1.001,0 c 0.084,0.5 0.334,0.917 0.918,0.917 L 0,0 z" />
      </g>
      <g
         transform="translate(258.3669,526.4967)"
         id="g8286">
        <path
           id="path8288"
           style="fill:#ffffff;fill-opacity:1;fill-rule:nonzero;stroke:none"
           d="m 0,0 0,-1.001 c 1.417,0 2.168,1.085 2.168,2.336 C 2.168,2.586 1.334,3.503 0,3.503 L 0,2.586 C 0.834,2.586 1.002,1.751 1.002,1.335 1.002,0.751 0.834,0 0,0" />
      </g>
      <path
         id="path8290"
         style="fill:#ffffff;fill-opacity:1;fill-rule:nonzero;stroke:none"
         d="m 258.7,531.667 1.001,0 0,-0.917 -1.001,0 0,0.917 z" />
      <g
         transform="translate(258.3669,529.0823)"
         id="g8292">
        <path
           id="path8294"
           style="fill:#ffffff;fill-opacity:1;fill-rule:nonzero;stroke:none"
           d="m 0,0 0,0.917 0,0.084 c -1.501,0 -2.252,-1.085 -2.252,-2.252 0,-1.084 0.584,-2.335 2.252,-2.335 l 0,1 c -0.917,0 -1.084,0.751 -1.084,1.335 0,0.501 0.167,1.334 1.084,1.334 L 0,0 z" />
      </g>
      <path
         id="path8296"
         style="fill:#ffffff;fill-opacity:1;fill-rule:nonzero;stroke:none"
         d="m 257.116,531.667 1.001,0 0,-0.917 -1.001,0 0,0.917 z" />
      <g
         transform="translate(261.5359,525.6626)"
         id="g8298">
        <path
           id="path8300"
           style="fill:#ffffff;fill-opacity:1;fill-rule:nonzero;stroke:none"
           d="m 0,0 1.084,0 0,3.503 0.751,0 0,0.834 -0.751,0 0,0.167 c 0,0.418 0,0.418 0.417,0.418 l 0.25,0 0,1 -0.499,0 C 0.5,5.922 0,5.588 0,4.672 l 0,-0.335 -0.667,0 0,-0.834 L 0,3.503 0,0 z" />
      </g>
      <g
         transform="translate(264.2047,525.6626)"
         id="g8302">
        <path
           id="path8304"
           style="fill:#ffffff;fill-opacity:1;fill-rule:nonzero;stroke:none"
           d="m 0,0 1.084,0 0,3.503 0.751,0 0,0.834 -0.751,0 0,0.167 c 0,0.418 0,0.418 0.417,0.418 l 0.25,0 0,1 -0.5,0 C 0.501,5.922 0,5.588 0,4.672 l 0,-0.335 -0.667,0 0,-0.834 L 0,3.503 0,0 z" />
      </g>
      <g
         transform="translate(266.6234,525.6626)"
         id="g8306">
        <path
           id="path8308"
           style="fill:#ffffff;fill-opacity:1;fill-rule:nonzero;stroke:none"
           d="m 0,0 1.168,0 0,2.502 c 0,0.501 0.251,1.001 0.833,1.001 0.751,0 0.751,-0.5 0.751,-0.917 l 0,-2.586 1.168,0 0,3.003 c 0,0.917 -0.584,1.418 -1.501,1.418 -0.584,0 -1,-0.251 -1.335,-0.752 l 0,0.668 L 0,4.337 0,0 z" />
      </g>
      <g
         transform="translate(273.2129,526.4967)"
         id="g8310">
        <path
           id="path8312"
           style="fill:#ffffff;fill-opacity:1;fill-rule:nonzero;stroke:none"
           d="m 0,0 0,-1.001 0.166,0 c 0.917,0 1.669,0.584 1.918,1.419 l -1.168,0 C 0.833,0.167 0.499,0 0.166,0 L 0,0 z" />
      </g>
      <g
         transform="translate(273.2129,528.2482)"
         id="g8314">
        <path
           id="path8316"
           style="fill:#ffffff;fill-opacity:1;fill-rule:nonzero;stroke:none"
           d="m 0,0 0,-0.75 2.084,0 0,0.25 C 2.084,0.668 1.667,1.835 0,1.751 L 0.084,0.917 C 0.499,0.917 0.916,0.584 0.916,0 L 0,0 z" />
      </g>
      <g
         transform="translate(273.2129,529.0823)"
         id="g8318">
        <path
           id="path8320"
           style="fill:#ffffff;fill-opacity:1;fill-rule:nonzero;stroke:none"
           d="m 0,0 0.084,1.001 c -1.503,0 -2.087,-1.085 -2.087,-2.169 0,-1.834 0.918,-2.418 2.003,-2.418 l 0,1 c -0.418,0 -0.835,0.167 -0.835,1.002 l 0.835,0 0,0.75 -0.835,0 c 0.083,0.5 0.333,0.917 0.919,0.917 L 0,0 z" />
      </g>
      <g
         transform="translate(276.214,526.5804)"
         id="g8322">
        <path
           id="path8324"
           style="fill:#ffffff;fill-opacity:1;fill-rule:nonzero;stroke:none"
           d="m 0,0 c 0,-0.584 0.167,-1.084 1.168,-1.084 l 0.167,0 c 0.167,0 0.416,0.083 0.5,0.083 l 0,0.917 -0.25,0 C 1.168,-0.084 1.168,0 1.168,0.25 l 0,2.335 0.667,0 0,0.834 -0.667,0 0,1.168 -1.168,0 0,-1.168 -0.584,0 0,-0.834 L 0,2.585 0,0 z" />
      </g>
      <g
         transform="translate(198.653,526.4967)"
         id="g8326">
        <path
           id="path8328"
           style="fill:#ffffff;fill-opacity:1;fill-rule:nonzero;stroke:none"
           d="m 0,0 0,-1.001 c 1.418,0 2.169,1.085 2.169,2.336 C 2.169,2.586 1.335,3.503 0,3.503 L 0,2.586 C 0.834,2.586 1.001,1.751 1.001,1.335 1.001,0.751 0.834,0 0,0" />
      </g>
      <g
         transform="translate(198.653,529.0823)"
         id="g8330">
        <path
           id="path8332"
           style="fill:#ffffff;fill-opacity:1;fill-rule:nonzero;stroke:none"
           d="m 0,0 0,0.917 0,0.084 c -1.501,0 -2.252,-1.085 -2.252,-2.252 0,-1.084 0.584,-2.335 2.252,-2.335 l 0,1 c -0.917,0 -1.084,0.751 -1.084,1.335 0,0.501 0.167,1.334 1.084,1.334 L 0,0 z" />
      </g>
      <g
         transform="translate(203.6576,526.4967)"
         id="g8334">
        <path
           id="path8336"
           style="fill:#ffffff;fill-opacity:1;fill-rule:nonzero;stroke:none"
           d="m 0,0 0,-1.001 0.25,0 c 1.334,0 1.835,1.251 1.835,2.336 0,1.5 -0.835,2.252 -1.752,2.252 C 0.167,3.587 0.083,3.503 0,3.503 L 0,2.502 C 0.667,2.419 0.917,1.918 0.917,1.251 0.917,0.751 0.75,0 0,0" />
      </g>
      <g
         transform="translate(203.6576,528.9985)"
         id="g8338">
        <path
           id="path8340"
           style="fill:#ffffff;fill-opacity:1;fill-rule:nonzero;stroke:none"
           d="M 0,0 0,1.001 C -0.501,0.834 -0.584,0.334 -1.001,0.334 l 0,0.667 -1.084,0 0,-1.835 0,-4.253 1.167,0 0,2.335 C -0.834,-3.086 -0.584,-3.503 0,-3.503 l 0,1.001 c -0.751,0 -1.001,0.585 -1.001,1.252 0,0.666 0.167,1.334 0.917,1.334 L 0,0 z" />
      </g>
      <g
         transform="translate(208.3278,526.4967)"
         id="g8342">
        <path
           id="path8344"
           style="fill:#ffffff;fill-opacity:1;fill-rule:nonzero;stroke:none"
           d="m 0,0 0,-1.001 c 0.917,0 1.668,0.584 1.918,1.419 l -1.168,0 C 0.667,0.167 0.334,0 0,0" />
      </g>
      <g
         transform="translate(208.3278,528.2482)"
         id="g8346">
        <path
           id="path8348"
           style="fill:#ffffff;fill-opacity:1;fill-rule:nonzero;stroke:none"
           d="m 0,0 0,-0.75 1.918,0 0,0.25 C 1.918,0.584 1.501,1.668 0,1.751 L 0,0.834 C 0.416,0.75 0.75,0.5 0.75,0 L 0,0 z" />
      </g>
      <g
         transform="translate(208.3278,529.0823)"
         id="g8350">
        <path
           id="path8352"
           style="fill:#ffffff;fill-opacity:1;fill-rule:nonzero;stroke:none"
           d="m 0,0 0,0.917 -0.084,0.084 c -1.5,0 -2.084,-1.085 -2.084,-2.169 0,-1.834 1,-2.418 2.168,-2.418 l 0,1 c -0.501,0 -1.001,0.167 -1.001,1.002 l 1.001,0 0,0.75 -1.001,0 c 0.083,0.5 0.333,0.917 0.917,0.917 L 0,0 z" />
      </g>
      <g
         transform="translate(210.9962,525.6626)"
         id="g8354">
        <path
           id="path8356"
           style="fill:#ffffff;fill-opacity:1;fill-rule:nonzero;stroke:none"
           d="m 0,0 1.168,0 0,2.502 c 0,0.501 0.251,1.001 0.834,1.001 0.751,0 0.751,-0.5 0.751,-0.917 l 0,-2.586 1.167,0 0,3.003 c 0,0.917 -0.583,1.418 -1.501,1.418 -0.584,0 -1,-0.251 -1.335,-0.752 l 0,0.668 L 0,4.337 0,0 z" />
      </g>
    </g>
    <g
       id="g16392"
       transform="translate(6,0)">
      <path
         style="fill:none;stroke:#ffffff;stroke-width:2.29999995;stroke-linecap:butt;stroke-linejoin:miter;stroke-miterlimit:4;stroke-opacity:1"
         d="m 272.39062,34.535156 189.74371,0 c 6.01917,0 10.86492,4.420931 10.86492,9.912401 l 0,49.914227 c 0,5.49147 -4.84575,9.912406 -10.86492,9.912406 l -189.74371,0 c -6.01917,0 -10.86492,-4.420936 -10.86492,-9.912406 l 0,-49.914227 c 0,-5.49147 4.84575,-9.912401 10.86492,-9.912401 z"
         id="rectBordinoBianco" />
      <g
         transform="scale(0.99821718,1.001786)"
         style="font-size:44.26691437px;font-style:normal;font-variant:normal;font-weight:normal;font-stretch:normal;text-align:start;line-height:100%;writing-mode:lr-tb;text-anchor:start;fill:#ffffff;fill-opacity:1;stroke:none;font-family:Transport Heavy;-inkscape-font-specification:'Transport Heavy,'"
         id="text15485">
        <path
           d="m 309.27316,52.120862 c 5.95123,-0.144059 10.79292,1.671574 14.52508,5.446905 l -0.17291,0.172918 -0.86459,0.691671 -0.17292,0.259376 -0.25938,0.259377 -0.34583,0.172917 -0.25938,0.259377 -0.25937,0.259376 -0.17292,0.259377 -0.34584,0.172917 c -0.20176,0.273817 -0.37468,0.475554 -0.51875,0.605212 l -0.51875,0.345835 -0.0865,0.172918 -0.17292,0.08646 c -0.30263,0.374684 -0.59083,0.662879 -0.86459,0.864588 -3.63129,-2.968388 -7.37783,-3.919434 -11.23964,-2.853141 -0.21617,0.201768 -0.44672,0.345866 -0.69167,0.432294 -0.31703,0.331456 -0.60523,0.590832 -0.86459,0.778129 l -0.0865,0.172918 -0.43229,1.037506 c 0.0288,1.152812 0.40346,2.075038 1.12396,2.766682 l 1.4698,0.518753 1.38334,0.259376 c 0.43228,0.144124 0.80693,0.230582 1.12397,0.259377 l 0.34583,0.08646 0.34584,0.08646 0.34583,0.08646 0.34584,0.08646 0.43229,0.172918 0.25938,0 0.34583,0.08646 0.4323,0.172918 0.34583,0.08646 0.25938,0 c 0.3314,0.129712 0.6196,0.216171 0.86459,0.259376 l 0.69167,0.172918 c 0.27376,0.129712 0.50432,0.216171 0.69167,0.259376 l 0.25937,0.08646 1.12397,0.432294 0.17292,0.172918 c 0.56195,0.259399 1.02307,0.547595 1.38334,0.864588 0.10084,0.05766 0.15848,0.1153 0.17291,0.172918 l 0.17292,0.08646 c 0.25935,0.18735 0.46109,0.360267 0.60521,0.518753 0.36022,0.273808 0.64842,0.533184 0.86459,0.77813 2.1038,2.925207 2.62256,5.951263 1.55626,9.078176 -1.1384,3.198984 -3.15577,5.302813 -6.05212,6.311493 -9.00614,2.766685 -16.35513,1.008691 -22.04699,-5.273988 l 0.25937,-0.345835 0.34584,-0.172918 c 0.10086,-0.129677 0.21614,-0.216135 0.34583,-0.259376 0.23056,-0.302594 0.48993,-0.504331 0.77813,-0.605212 0.10087,-0.129676 0.21614,-0.216135 0.34584,-0.259376 0.10086,-0.129676 0.21614,-0.216135 0.34583,-0.259377 l 0.17292,-0.259376 0.25938,-0.172918 0.17291,-0.172917 0.25938,-0.172918 0.25938,-0.08646 0.17291,-0.259376 0.17292,-0.08646 0.17292,-0.172918 0.17292,-0.08646 0.17292,-0.08646 1.21042,-1.037506 c 3.81858,3.74656 8.08388,5.10108 12.7959,4.063564 l 0.25938,-0.172917 0.25938,-0.08646 0.0865,-0.172918 1.29688,-0.864588 c 0.20171,-0.489921 0.40345,-0.893395 0.60521,-1.210423 0.17289,-1.570654 -0.31704,-2.809896 -1.4698,-3.71773 l -0.34584,-0.08646 -0.25937,-0.172918 -0.34584,-0.08646 -0.69167,-0.172917 -0.25937,0 -0.34584,-0.08646 -0.17292,-0.08646 c -0.53318,-0.08644 -0.99429,-0.201719 -1.38334,-0.345835 l -0.25938,0 -0.25937,-0.08646 -0.69167,-0.172918 c -0.72051,-0.08644 -1.32572,-0.230538 -1.81564,-0.432294 -5.63424,-0.73488 -8.74675,-3.674477 -9.33755,-8.818799 0.12968,-6.498787 3.96269,-10.158873 11.49902,-10.98027 z"
           id="path16424" />
        <path
           d="m 343.59731,52.120862 c 5.95123,-0.144059 10.79292,1.671574 14.52508,5.446905 l -0.17291,0.172918 -0.86459,0.691671 -0.17292,0.259376 -0.25938,0.259377 -0.34583,0.172917 -0.25938,0.259377 -0.25937,0.259376 -0.17292,0.259377 -0.34584,0.172917 c -0.20176,0.273817 -0.37468,0.475554 -0.51875,0.605212 l -0.51875,0.345835 -0.0865,0.172918 -0.17292,0.08646 c -0.30263,0.374684 -0.59083,0.662879 -0.86459,0.864588 -3.63129,-2.968388 -7.37783,-3.919434 -11.23964,-2.853141 -0.21617,0.201768 -0.44672,0.345866 -0.69167,0.432294 -0.31703,0.331456 -0.60523,0.590832 -0.86459,0.778129 l -0.0865,0.172918 -0.43229,1.037506 c 0.0288,1.152812 0.40346,2.075038 1.12396,2.766682 l 1.4698,0.518753 1.38334,0.259376 c 0.43228,0.144124 0.80693,0.230582 1.12397,0.259377 l 0.34583,0.08646 0.34584,0.08646 0.34583,0.08646 0.34584,0.08646 0.43229,0.172918 0.25938,0 0.34583,0.08646 0.4323,0.172918 0.34583,0.08646 0.25938,0 c 0.3314,0.129712 0.6196,0.216171 0.86459,0.259376 l 0.69167,0.172918 c 0.27376,0.129712 0.50432,0.216171 0.69167,0.259376 l 0.25937,0.08646 1.12397,0.432294 0.17292,0.172918 c 0.56195,0.259399 1.02307,0.547595 1.38334,0.864588 0.10084,0.05766 0.15848,0.1153 0.17291,0.172918 l 0.17292,0.08646 c 0.25935,0.18735 0.46109,0.360267 0.60521,0.518753 0.36022,0.273808 0.64842,0.533184 0.86459,0.77813 2.1038,2.925207 2.62256,5.951263 1.55626,9.078176 -1.1384,3.198984 -3.15577,5.302813 -6.05212,6.311493 -9.00614,2.766685 -16.35513,1.008691 -22.04699,-5.273988 l 0.25937,-0.345835 0.34584,-0.172918 c 0.10086,-0.129677 0.21614,-0.216135 0.34583,-0.259376 0.23056,-0.302594 0.48993,-0.504331 0.77813,-0.605212 0.10087,-0.129676 0.21614,-0.216135 0.34584,-0.259376 0.10086,-0.129676 0.21614,-0.216135 0.34583,-0.259377 l 0.17292,-0.259376 0.25938,-0.172918 0.17291,-0.172917 0.25938,-0.172918 0.25938,-0.08646 0.17291,-0.259376 0.17292,-0.08646 0.17292,-0.172918 0.17292,-0.08646 0.17292,-0.08646 1.21042,-1.037506 c 3.81858,3.74656 8.08388,5.10108 12.7959,4.063564 l 0.25938,-0.172917 0.25938,-0.08646 0.0865,-0.172918 1.29688,-0.864588 c 0.20171,-0.489921 0.40345,-0.893395 0.60521,-1.210423 0.17289,-1.570654 -0.31704,-2.809896 -1.4698,-3.71773 l -0.34584,-0.08646 -0.25937,-0.172918 -0.34584,-0.08646 -0.69167,-0.172917 -0.25937,0 -0.34584,-0.08646 -0.17292,-0.08646 c -0.53318,-0.08644 -0.99429,-0.201719 -1.38334,-0.345835 l -0.25938,0 -0.25937,-0.08646 -0.69167,-0.172918 c -0.72051,-0.08644 -1.32572,-0.230538 -1.81564,-0.432294 -5.63424,-0.73488 -8.74675,-3.674477 -9.33755,-8.818799 0.12968,-6.498787 3.96269,-10.158873 11.49902,-10.98027 z"
           id="path16426" />
        <path
           d="m 388.81528,52.207321 c 6.15296,-0.201699 10.24534,2.161507 12.27715,7.089623 0.634,1.930943 0.72046,3.746576 0.25938,5.446905 -0.4035,2.118265 -1.52747,3.530424 -3.3719,4.236482 3.18454,1.49864 4.48142,4.178861 3.89065,8.04067 -0.14413,3.991525 -1.78684,6.844664 -4.92815,8.559423 -0.60524,0.38907 -1.15281,0.648446 -1.64272,0.77813 -10.7209,2.103833 -17.00357,-1.239238 -18.84802,-10.029223 0.0288,-0.158494 0.11527,-0.244952 0.25937,-0.259377 l 0.51876,-0.08646 0.34583,0 c 0.18733,-0.05762 0.36024,-0.08644 0.51875,-0.08646 0.0865,-0.05763 0.17292,-0.08644 0.25938,-0.08646 l 0.25938,0 c 0.56197,-0.158493 1.05191,-0.244952 1.4698,-0.259377 l 0.25937,-0.08646 0.4323,0 c 1.0375,-0.273771 1.90208,-0.417869 2.59376,-0.432294 0.66284,3.256627 2.5073,5.1299 5.53337,5.619823 4.02031,0.244976 6.09532,-1.340101 6.22503,-4.755235 -0.15853,-1.469784 -0.82138,-2.536108 -1.98855,-3.198977 l -0.25938,0 -0.17292,-0.08646 -0.77812,-0.172918 -0.34584,0 -0.43229,-0.08646 -0.34584,0 -0.25938,0 -0.34583,0 -0.17292,-0.08646 -0.34583,0 -0.25938,0 -0.60521,0 -0.34584,0 -1.55626,-0.172917 0,-0.259377 0,-1.556258 0,-1.123965 0,-0.345835 0,-1.4698 0,-0.259377 0,-1.037505 c 2.62257,0.04325 4.8705,-0.41786 6.74379,-1.383342 0.27377,-0.331399 0.53314,-0.590775 0.77813,-0.778129 0.96544,-3.198946 -0.38908,-5.014579 -4.06356,-5.446905 -4.16445,-0.158476 -6.49883,1.455421 -7.00317,4.841693 -0.53317,-0.02879 -0.99428,-0.08643 -1.38334,-0.172917 l -0.51875,0 c -0.77814,-0.15848 -1.41217,-0.244939 -1.9021,-0.259377 l -0.34583,-0.08646 -0.34584,0 -0.25937,-0.08646 -0.25938,0 -1.90209,-0.259377 c 1.65712,-6.426737 5.77832,-9.827447 12.36361,-10.20214 z"
           id="path16428" />
        <path
           d="m 421.84255,52.380238 c 6.15296,-0.259337 10.27416,2.017409 12.36361,6.830247 1.39772,4.351788 0.30257,7.550761 -3.28544,9.596929 2.99721,1.613918 4.46701,3.977123 4.4094,7.089623 0.10084,3.386315 -1.02312,6.066535 -3.37189,8.04067 -4.17887,2.824325 -8.6459,3.544814 -13.40112,2.16147 -4.6976,-1.210418 -7.349,-4.063556 -7.95421,-8.559423 -0.41789,-4.193235 1.05191,-7.046373 4.4094,-8.559423 -3.42954,-2.291134 -4.61114,-5.28837 -3.54481,-8.991717 1.6283,-4.68315 5.08665,-7.219273 10.37506,-7.608376 z m 0.43229,6.225035 c -1.7436,0.244999 -3.04048,1.023127 -3.89065,2.334388 -0.64845,3.328691 0.70607,5.115505 4.06357,5.360447 3.51597,0.201761 5.30278,-1.296857 5.36044,-4.495859 -0.96547,-2.420815 -2.80993,-3.487139 -5.53336,-3.198976 z m -0.17292,13.487576 c -3.12694,0.331443 -4.65438,1.887701 -4.58232,4.668776 0.50434,2.507317 2.06059,3.746559 4.66878,3.717729 4.38056,0.389075 6.45557,-1.36892 6.22504,-5.273988 -1.00871,-2.34878 -3.11254,-3.386285 -6.3115,-3.112517 z"
           id="path16430" />
      </g>
    </g>
    <g
       style="font-size:87.57784271px;font-style:normal;font-variant:normal;font-weight:normal;font-stretch:normal;text-align:start;line-height:100%;writing-mode:lr-tb;text-anchor:start;fill:#ffffff;fill-opacity:1;stroke:none;font-family:Transport Heavy;-inkscape-font-specification:'Transport Heavy,'"
       id="text15519">
      <path
         d="m 133.58123,130.44992 0.6842,0 0.85525,0 2.22366,0 0.6842,0 2.90786,0 0.51315,0 2.0526,0 0,65.17023 -2.90785,0 -0.68421,0 -0.85525,0 -2.22366,0 -0.6842,0 -2.90785,0 -0.51316,0 -2.0526,0 0,-2.90786 c -3.24999,2.50875 -6.671,3.87715 -10.26303,4.10521 -7.69729,0.62719 -13.68405,-1.76751 -17.9603,-7.18412 -5.045992,-7.38366 -6.642462,-15.53705 -4.789414,-24.46022 1.681992,-8.69501 6.243334,-14.33967 13.684034,-16.93399 7.32664,-2.16658 13.76954,-1.25432 19.32871,2.7368 l 0,-1.0263 0,-2.22366 0,-0.6842 0,-2.90786 0,-0.51315 0,-2.0526 0,-1.88156 0,-0.85525 0,-2.22366 0,-0.6842 0,-2.90786 0,-0.51315 0,-2.0526 z m -14.71034,28.05227 c -4.84645,1.31144 -7.58326,4.21929 -8.21043,8.72358 -1.08333,4.61839 -0.79825,8.83764 0.85525,12.65773 1.62497,3.24998 4.07669,5.07452 7.35518,5.47362 4.61833,0.2851 8.15337,-1.36838 10.60512,-4.96046 0.28505,-0.88374 0.57014,-1.62496 0.85526,-2.22366 l 0,-0.51315 0.17105,-0.85525 0,-0.68421 0,-0.85525 0,-2.22366 0,-0.6842 0,-2.90786 0,-0.51315 0,-2.0526 c -1.76756,-6.01523 -5.6447,-8.80905 -11.63143,-8.38148 z"
         id="path16398" />
      <path
         d="m 172.06758,147.89706 c 13.94058,-0.1995 21.86591,6.5855 23.77602,20.35501 l 0.51315,2.22366 0,1.19735 c 0.22802,2.02413 0.28504,3.67762 0.17105,4.96046 l -0.51315,-0.17105 -0.51315,0 -3.42101,0 -0.51315,0 -0.51316,0 -5.30256,0 -1.19735,0 -1.02631,0 -1.19735,0 -1.0263,0 -0.85525,0 -1.02631,0 -0.6842,0 -3.07891,0 -1.88155,0 -0.68421,0 -0.6842,0 -0.6842,0 -0.6842,0 -2.90786,0 -0.51315,0 -2.05261,0 c 0.62717,4.96049 3.19293,7.92536 7.69728,8.89463 5.61612,0.85527 10.2915,-0.57015 14.02613,-4.27626 l 1.36841,1.53945 c 0.54162,0.37063 0.94074,0.76975 1.19735,1.19735 l 0.3421,0.17106 0.17105,0.3421 c 0.57013,0.42764 1.02626,0.82676 1.36841,1.19735 l 0.3421,0.51315 c 0.19951,0.11405 0.31355,0.22809 0.3421,0.3421 l 0.3421,0.17105 0.3421,0.3421 0.17105,0.3421 0.3421,0.17105 0.17105,0.34211 c 0.57013,0.42764 1.02626,0.82676 1.36841,1.19735 -5.38813,6.84203 -12.80031,9.40778 -22.23657,7.69727 -11.54591,-1.96707 -18.10284,-8.98013 -19.6708,-21.03921 -1.02631,-15.28046 5.24554,-24.51718 18.81555,-27.71018 z m 2.90786,10.60513 c -5.24557,0.82679 -8.32447,3.62062 -9.23673,8.38148 l 1.02631,0 1.19735,0 2.22366,0 5.30256,0 2.39471,0 0.51315,0 0.85525,0 0.51315,0 0.68421,0 0.51315,0 3.42101,0 c -1.28292,-5.13147 -4.41884,-7.9253 -9.40778,-8.38148 z"
         id="path16400" />
      <path
         d="m 206.96188,130.44992 0.85525,0 0.6842,0 0.85526,0 0.6842,0 0.85525,0 2.22366,0 0.6842,0 2.90786,0 1.3684,0 1.19735,0 0,51.99934 c 1.7675,2.08114 4.27624,2.53727 7.52622,1.3684 l 0.17105,0.68421 0,0.85525 c 0.14252,0.6272 0.19954,1.25439 0.17105,1.88155 0.19954,0.71273 0.31357,1.33992 0.34211,1.88156 l 0.17105,1.53945 0,0.68421 c 0.114,0.17106 0.17102,0.34211 0.17105,0.51315 l 0.3421,3.42101 -0.6842,0 -0.51316,0.17105 -0.6842,0.17105 -1.19735,0.17105 -0.51315,0 c -1.2829,0.3136 -2.36622,0.48465 -3.24996,0.51315 -7.61176,1.53946 -12.57222,-0.91226 -14.88139,-7.35517 -0.0285,-0.57015 -0.0855,-1.02629 -0.17105,-1.36841 l 0,-0.51315 0,-3.42101 0,-0.6842 0,-0.85525 0,-0.6842 0,-0.85525 0,-2.22366 0,-0.6842 0,-2.90786 0,-0.51315 0,-2.05261 0,-0.6842 0,-0.85525 0,-2.22366 0,-0.6842 0,-2.90786 0,-0.51315 0,-2.05261 0,-1.19735 0,-1.3684 0,-1.36841 0,-1.3684 0,-0.51315 0,-0.51315 0,-5.30257 0,-1.19735 0,-1.0263 0,-1.19736 0,-1.0263 0,-0.85525 0,-1.0263 0,-0.68421 0,-3.07891 0,-1.88155 0,-0.6842 0,-0.6842 0,-0.68421 0,-0.6842 0,-2.90786 0,-0.51315 0,-2.0526 z"
         id="path16402" />
      <path
         d="m 236.04045,130.44992 0.85526,0 0.6842,0 0.85525,0 0.6842,0 0.85525,0 2.22366,0 0.6842,0 2.90786,0 1.3684,0 1.19736,0 0,51.99934 c 1.7675,2.08114 4.27624,2.53727 7.52622,1.3684 l 0.17105,0.68421 0,0.85525 c 0.14252,0.6272 0.19953,1.25439 0.17105,1.88155 0.19953,0.71273 0.31357,1.33992 0.3421,1.88156 l 0.17105,1.53945 0,0.68421 c 0.11401,0.17106 0.17102,0.34211 0.17105,0.51315 l 0.3421,3.42101 -0.6842,0 -0.51315,0.17105 -0.6842,0.17105 -1.19736,0.17105 -0.51315,0 c -1.2829,0.3136 -2.36622,0.48465 -3.24996,0.51315 -7.61176,1.53946 -12.57221,-0.91226 -14.88139,-7.35517 -0.0285,-0.57015 -0.0855,-1.02629 -0.17105,-1.36841 l 0,-0.51315 0,-3.42101 0,-0.6842 0,-0.85525 0,-0.6842 0,-0.85525 0,-2.22366 0,-0.6842 0,-2.90786 0,-0.51315 0,-2.05261 0,-0.6842 0,-0.85525 0,-2.22366 0,-0.6842 0,-2.90786 0,-0.51315 0,-2.05261 0,-1.19735 0,-1.3684 0,-1.36841 0,-1.3684 0,-0.51315 0,-0.51315 0,-5.30257 0,-1.19735 0,-1.0263 0,-1.19736 0,-1.0263 0,-0.85525 0,-1.0263 0,-0.68421 0,-3.07891 0,-1.88155 0,-0.6842 0,-0.6842 0,-0.68421 0,-0.6842 0,-2.90786 0,-0.51315 0,-2.0526 z"
         id="path16404" />
      <path
         d="m 282.39513,147.04181 c 11.23228,-0.0855 18.7585,4.58991 22.57867,14.02614 0.39907,0.5132 0.68415,1.02635 0.85525,1.53946 2.45167,9.92096 1.25432,18.64452 -3.59206,26.17072 -6.81355,7.83982 -14.90993,10.40557 -24.28917,7.69727 -9.86392,-3.36398 -15.22349,-10.37704 -16.07874,-21.03921 -0.85526,-16.30676 5.98676,-25.77155 20.52605,-28.39438 z m 0.68421,11.46038 c -6.21486,2.67984 -8.95166,7.46925 -8.21043,14.36824 -0.17106,7.32669 2.85083,11.65997 9.06568,12.99984 7.46917,-0.51313 10.83316,-5.98674 10.09198,-16.42085 -0.8838,-7.21258 -4.53287,-10.86165 -10.94723,-10.94723 z"
         id="path16406" />
      <path
         d="m 371.17034,128.56836 c 11.77393,-0.28501 21.35275,3.30705 28.73648,10.77618 l -0.3421,0.3421 -1.7105,1.36841 -0.34211,0.51315 -0.51315,0.51315 -0.6842,0.3421 -0.51315,0.51315 -0.51315,0.51315 -0.3421,0.51315 -0.6842,0.34211 c -0.39918,0.54171 -0.74128,0.94083 -1.02631,1.19735 l -1.0263,0.6842 -0.17105,0.3421 -0.3421,0.17105 c -0.59873,0.74128 -1.1689,1.31145 -1.71051,1.71051 -7.18416,-5.87267 -14.59634,-7.75423 -22.23656,-5.64467 -0.42765,0.39918 -0.88379,0.68426 -1.3684,0.85525 -0.62721,0.65576 -1.19738,1.16891 -1.71051,1.53946 l -0.17105,0.3421 -0.85525,2.0526 c 0.057,2.28073 0.79821,4.10527 2.22366,5.47362 l 2.90785,1.0263 2.73681,0.51315 c 0.85522,0.28514 1.59644,0.45619 2.22366,0.51315 l 0.6842,0.17106 0.6842,0.17105 0.6842,0.17105 0.68421,0.17105 0.85525,0.3421 0.51315,0 0.6842,0.17105 0.85525,0.3421 0.68421,0.17105 0.51315,0 c 0.65565,0.25662 1.22582,0.42767 1.7105,0.51315 l 1.36841,0.3421 c 0.54161,0.25662 0.99774,0.42768 1.3684,0.51315 l 0.51315,0.17105 2.22366,0.85526 0.3421,0.3421 c 1.11178,0.51319 2.02404,1.08336 2.73681,1.7105 0.1995,0.11408 0.31354,0.22811 0.3421,0.3421 l 0.3421,0.17105 c 0.5131,0.37066 0.91221,0.71276 1.19735,1.02631 0.71266,0.5417 1.28282,1.05485 1.71051,1.53945 4.16216,5.78724 5.18847,11.774 3.0789,17.9603 -2.25222,6.32888 -6.24339,10.49111 -11.97353,12.48668 -17.81779,5.47362 -32.35706,1.9956 -43.61787,-10.43407 l 0.51315,-0.68421 0.6842,-0.3421 c 0.19956,-0.25655 0.42762,-0.4276 0.68421,-0.51315 0.45612,-0.59865 0.96927,-0.99777 1.53945,-1.19735 0.19955,-0.25655 0.42762,-0.4276 0.6842,-0.51315 0.19955,-0.25655 0.42762,-0.4276 0.6842,-0.51315 l 0.3421,-0.51316 0.51316,-0.3421 0.3421,-0.3421 0.51315,-0.3421 0.51315,-0.17105 0.3421,-0.51315 0.3421,-0.17105 0.3421,-0.3421 0.3421,-0.17105 0.3421,-0.17105 2.39471,-2.05261 c 7.55471,7.41221 15.99319,10.092 25.31547,8.03937 l 0.51315,-0.3421 0.51315,-0.17105 0.17105,-0.3421 2.56576,-1.7105 c 0.39907,-0.96926 0.79819,-1.7675 1.19736,-2.39471 0.34205,-3.10739 -0.62723,-5.55911 -2.90786,-7.35517 l -0.6842,-0.17105 -0.51316,-0.3421 -0.6842,-0.17105 -1.3684,-0.3421 -0.51315,0 -0.68421,-0.17105 -0.3421,-0.17105 c -1.05484,-0.17102 -1.96711,-0.39909 -2.7368,-0.68421 l -0.51316,0 -0.51315,-0.17105 -1.3684,-0.3421 c -1.42545,-0.17101 -2.6228,-0.4561 -3.59206,-0.85525 -11.14681,-1.45389 -17.30462,-7.2696 -18.47345,-17.44715 0.25656,-12.85722 7.83979,-20.09835 22.74971,-21.72341 z"
         id="path16408" />
      <path
         d="m 428.64329,130.27887 c 0.22804,0.25665 0.34208,0.54173 0.3421,0.85525 l 0,17.44715 0.6842,0 1.88156,0 0.85525,0 2.22366,0 0.6842,0 2.90786,0 1.3684,0 1.19735,0 0,10.77618 -0.6842,0 -1.88155,0 -0.85526,0 -2.22365,0 -0.6842,0 -2.90786,0 -0.51315,0 -2.05261,0 0,23.26286 0.3421,1.0263 c 2.19512,2.22368 5.67315,2.45175 10.43408,0.68421 l 0.17105,0.6842 0.85525,2.73681 0.17105,0.51315 0.17106,1.3684 0.51315,1.19735 0,0.51316 c 0.25654,0.71272 0.42759,1.3399 0.51315,1.88155 l 0.51315,1.71051 c -7.09862,2.22366 -13.8266,2.67979 -20.18396,1.3684 -1.93858,-0.96928 -3.47804,-2.10961 -4.61836,-3.42101 -0.82675,-1.48242 -1.39692,-2.73679 -1.7105,-3.76311 l 0,-1.19735 c -0.19957,-0.62717 -0.25659,-1.19734 -0.17105,-1.71051 l 0,-0.6842 0,-0.6842 0,-0.51315 0,-3.07891 0,-2.22366 0,-0.6842 0,-2.90786 0,-0.51315 0,-2.05261 0,-2.22365 0,-0.6842 0,-3.07891 0,-0.6842 0,-0.68421 0,-0.6842 0,-2.90786 0,-0.51315 0,-2.0526 -0.68421,0 -0.6842,0 -0.6842,0 -2.90786,0 -0.51315,0 -2.05261,0 0,-0.85526 0,-0.6842 0,-0.85525 0,-2.22366 0,-0.6842 0,-2.90786 0,-0.51315 0,-2.0526 0.68421,0 0.6842,0 0.6842,0 2.90786,0 1.3684,0 1.19736,0 0,-2.90786 0,-0.6842 0,-2.90786 0,-1.88156 0,-0.6842 0,-2.90786 0,-0.51315 0,-2.0526 0.6842,-0.17105 0.3421,-0.17105 1.53945,-0.34211 c 0.65568,-0.28501 1.22585,-0.45606 1.71051,-0.51315 l 2.22365,-0.6842 0.85526,-0.17105 1.7105,-0.6842 c 1.45391,-0.28501 2.65126,-0.62711 3.59206,-1.0263 z"
         id="path16410" />
      <path
         d="m 467.12965,147.89706 c 13.94058,-0.1995 21.86591,6.5855 23.77602,20.35501 l 0.51315,2.22366 0,1.19735 c 0.22802,2.02413 0.28504,3.67762 0.17105,4.96046 l -0.51315,-0.17105 -0.51315,0 -3.42101,0 -0.51316,0 -0.51315,0 -5.30256,0 -1.19735,0 -1.02631,0 -1.19735,0 -1.0263,0 -0.85526,0 -1.0263,0 -0.6842,0 -3.07891,0 -1.88155,0 -0.68421,0 -0.6842,0 -0.6842,0 -0.6842,0 -2.90786,0 -0.51315,0 -2.05261,0 c 0.62717,4.96049 3.19293,7.92536 7.69727,8.89463 5.61613,0.85527 10.29151,-0.57015 14.02614,-4.27626 l 1.36841,1.53945 c 0.54162,0.37063 0.94073,0.76975 1.19735,1.19735 l 0.3421,0.17106 0.17105,0.3421 c 0.57013,0.42764 1.02626,0.82676 1.36841,1.19735 l 0.3421,0.51315 c 0.19951,0.11405 0.31355,0.22809 0.3421,0.3421 l 0.3421,0.17105 0.3421,0.3421 0.17105,0.3421 0.3421,0.17105 0.17105,0.34211 c 0.57012,0.42764 1.02626,0.82676 1.3684,1.19735 -5.38812,6.84203 -12.8003,9.40778 -22.23656,7.69727 -11.54592,-1.96707 -18.10284,-8.98013 -19.6708,-21.03921 -1.02631,-15.28046 5.24554,-24.51718 18.81555,-27.71018 z m 2.90786,10.60513 c -5.24557,0.82679 -8.32447,3.62062 -9.23673,8.38148 l 1.02631,0 1.19735,0 2.22366,0 5.30256,0 2.39471,0 0.51315,0 0.85525,0 0.51315,0 0.6842,0 0.51316,0 3.42101,0 c -1.28292,-5.13147 -4.41884,-7.9253 -9.40778,-8.38148 z"
         id="path16412" />
      <path
         d="m 502.02396,130.44992 0.85525,0 0.6842,0 0.85526,0 0.6842,0 0.85525,0 2.22366,0 0.6842,0 2.90786,0 1.3684,0 1.19735,0 0,51.99934 c 1.7675,2.08114 4.27624,2.53727 7.52622,1.3684 l 0.17105,0.68421 0,0.85525 c 0.14252,0.6272 0.19954,1.25439 0.17106,1.88155 0.19953,0.71273 0.31356,1.33992 0.3421,1.88156 l 0.17105,1.53945 0,0.68421 c 0.114,0.17106 0.17102,0.34211 0.17105,0.51315 l 0.3421,3.42101 -0.6842,0 -0.51316,0.17105 -0.6842,0.17105 -1.19735,0.17105 -0.51315,0 c -1.2829,0.3136 -2.36622,0.48465 -3.24996,0.51315 -7.61176,1.53946 -12.57222,-0.91226 -14.88139,-7.35517 -0.0285,-0.57015 -0.0855,-1.02629 -0.17105,-1.36841 l 0,-0.51315 0,-3.42101 0,-0.6842 0,-0.85525 0,-0.6842 0,-0.85525 0,-2.22366 0,-0.6842 0,-2.90786 0,-0.51315 0,-2.05261 0,-0.6842 0,-0.85525 0,-2.22366 0,-0.6842 0,-2.90786 0,-0.51315 0,-2.05261 0,-1.19735 0,-1.3684 0,-1.36841 0,-1.3684 0,-0.51315 0,-0.51315 0,-5.30257 0,-1.19735 0,-1.0263 0,-1.19736 0,-1.0263 0,-0.85525 0,-1.0263 0,-0.68421 0,-3.07891 0,-1.88155 0,-0.6842 0,-0.6842 0,-0.68421 0,-0.6842 0,-2.90786 0,-0.51315 0,-2.0526 z"
         id="path16414" />
      <path
         d="m 527.16838,149.09442 0.6842,0 0.51315,0 3.07891,0 2.22366,0 0.6842,0 2.90786,0 1.3684,0 1.19736,0 c 0.17103,0.57022 0.34208,1.02636 0.51315,1.3684 l 0.17105,1.0263 c 0.11402,0.17111 0.17103,0.34216 0.17105,0.51316 0.14252,0.11408 0.19954,0.22812 0.17105,0.3421 0.28507,0.48469 0.45612,0.94083 0.51315,1.3684 l 0.51315,1.19735 0.3421,1.02631 0.3421,1.0263 0.17105,0.85525 c 0.11402,0.1711 0.17104,0.34215 0.17105,0.51315 0.59866,1.28293 0.99778,2.36625 1.19736,3.24996 l 1.0263,2.90786 c 0.34208,0.8838 0.57015,1.62502 0.6842,2.22366 0.54164,1.08335 0.88374,2.10966 1.02631,3.07891 0.19953,0.28511 0.31357,0.5702 0.3421,0.85525 0.11401,0.17108 0.17102,0.34213 0.17105,0.51315 0.11401,0.17108 0.17103,0.34213 0.17105,0.51315 0.11401,0.17108 0.17103,0.34213 0.17105,0.51315 l 0.3421,0.51315 0,0.51316 c 0.11401,0.17108 0.17103,0.34213 0.17105,0.51315 l 0.3421,0.51315 0.17105,0.3421 c 0.28506,1.28291 0.68418,2.36623 1.19735,3.24996 0.0855,-0.62716 0.25655,-1.19733 0.51316,-1.71051 l 0.17105,-0.51315 0.17105,-0.51315 0.17105,-0.51315 0.17105,-0.3421 0.85525,-2.73681 0.3421,-1.0263 0.3421,-1.02631 0.51315,-1.19735 c 0.17103,-0.74118 0.39909,-1.31135 0.68421,-1.7105 l 0,-0.51315 c 0.31356,-0.65566 0.54163,-1.28284 0.6842,-1.88156 l 0.3421,-1.19735 0.85525,-2.22366 0.3421,-0.6842 0.17105,-1.0263 0.3421,-0.68421 0.17105,-0.6842 0.3421,-0.51315 c 0.0285,-0.28504 0.0855,-0.5131 0.17105,-0.6842 l 0.17106,-0.85525 c 0.25654,-0.54161 0.42759,-0.99775 0.51315,-1.36841 l 0.17105,-0.3421 0.3421,-1.3684 c 0.62715,-1.28283 1.02627,-2.42316 1.19735,-3.42101 l 2.22366,0 0.6842,0 3.07891,0 0.6842,0 0.6842,0 0.6842,0 2.90786,0 0.51315,0 2.05261,0 -0.51315,1.19735 -0.17105,1.0263 -0.3421,0.68421 -0.17105,0.51315 -0.17106,0.51315 -0.17105,0.6842 -0.17105,0.51315 -0.17105,0.51315 -0.17105,0.51316 c -0.25662,0.5417 -0.42767,0.99784 -0.51315,1.3684 l -0.17105,0.6842 c -0.5417,1.08337 -0.8838,2.05265 -1.0263,2.90786 -0.31364,0.65574 -0.54171,1.28292 -0.6842,1.88155 l -0.17105,0.34211 -0.17105,0.6842 -0.51316,1.19735 c -0.1996,0.71275 -0.42766,1.28292 -0.6842,1.71051 l -0.3421,1.19735 -0.3421,1.19735 -0.51315,1.19736 c -0.39916,1.5965 -0.85529,2.85087 -1.3684,3.76311 -0.31364,1.31141 -0.65574,2.39473 -1.02631,3.24995 l -0.3421,1.02631 -0.17105,0.51315 -0.85525,2.73681 -0.3421,0.6842 -0.17105,0.51315 -0.85526,2.73681 -0.3421,0.85525 -0.3421,0.6842 -0.6842,2.22366 -0.17105,0.51315 -0.17105,0.51315 -0.3421,0.51315 0,0.51315 -0.3421,0.68421 -0.17105,0.51315 -1.36841,3.93416 -2.3947,0 -0.51315,0 -3.07891,0 -2.22366,0 -0.6842,0 -2.90786,0 -0.51315,0 -2.05261,0 -0.3421,-1.19736 -1.3684,-3.76311 -1.0263,-2.90785 -0.17105,-0.34211 -0.34211,-1.53945 c -0.11404,-0.17103 -0.17106,-0.34208 -0.17105,-0.51315 -0.14255,-0.11401 -0.19957,-0.22805 -0.17105,-0.3421 -0.48465,-1.11181 -0.82675,-2.08109 -1.0263,-2.90786 l -0.3421,-1.0263 -0.51315,-1.36841 c -0.37062,-0.85522 -0.59869,-1.53942 -0.6842,-2.0526 l -0.3421,-1.19736 c -0.74123,-1.45389 -1.19737,-2.76528 -1.36841,-3.93416 l -0.51315,-1.0263 -0.3421,-1.0263 -0.3421,-1.0263 -0.17105,-0.51316 -0.17105,-0.85525 c -0.28509,-0.4561 -0.45614,-0.91223 -0.51315,-1.3684 l -0.17105,-0.51315 c -0.14255,-0.114 -0.19957,-0.22803 -0.17105,-0.3421 l -1.02631,-2.73681 -0.17105,-1.02631 c -0.48465,-0.8552 -0.76973,-1.65344 -0.85525,-2.3947 l -0.3421,-0.51315 0,-0.51315 c -0.11404,-0.17101 -0.17106,-0.34206 -0.17105,-0.51316 -0.14255,-0.11398 -0.19957,-0.22802 -0.17105,-0.3421 l -0.17105,-0.51315 c -0.39912,-0.79819 -0.68421,-1.48239 -0.85526,-2.0526 l 0,-0.51316 -0.51315,-1.19735 -0.17105,-0.3421 0,-0.51315 -0.3421,-0.3421 0,-0.51315 c -0.54166,-1.05476 -0.88376,-2.02405 -1.0263,-2.90786 z"
         id="path16416" />
      <path
         d="m 585.15447,129.93677 c 4.70387,-0.0855 7.61173,1.96715 8.72357,6.15781 0.0855,3.22152 -0.99781,5.73026 -3.24996,7.52622 -5.16003,2.05267 -8.8091,0.7983 -10.94723,-3.76311 -1.14034,-5.13144 0.6842,-8.43841 5.47362,-9.92092 z m -2.05261,19.15765 0.6842,0 0.85526,0 2.22365,0 0.68421,0 2.90785,0 1.36841,0 1.19735,0 0,46.69678 -2.39471,0 -1.88155,0 -0.85525,0 -0.51316,0 -0.6842,0 -0.51315,0 -3.42101,0 -0.51315,0 -2.05261,0 0,-0.51315 0,-0.85526 0,-0.51315 0,-0.6842 0,-0.51315 0,-3.42101 0,-1.19735 0,-0.68421 0,-0.85525 0,-0.6842 0,-0.85525 0,-2.22366 0,-0.6842 0,-2.90786 0,-0.51315 0,-2.05261 0,-1.19735 0,-1.19735 0,-1.0263 0,-1.19736 0,-1.0263 0,-1.19735 0,-1.02631 0,-2.90786 0,-1.0263 0,-0.85525 0,-1.0263 0,-0.68421 0,-3.0789 0,-1.88156 0,-0.6842 0,-0.6842 0,-0.6842 0,-0.68421 0,-2.90785 0,-0.51316 0,-2.0526 z"
         id="path16418" />
      <path
         d="m 623.4698,147.04181 c 11.23228,-0.0855 18.75849,4.58991 22.57866,14.02614 0.39907,0.5132 0.68415,1.02635 0.85525,1.53946 2.45168,9.92096 1.25432,18.64452 -3.59206,26.17072 -6.81355,7.83982 -14.90993,10.40557 -24.28917,7.69727 -9.86392,-3.36398 -15.22349,-10.37704 -16.07874,-21.03921 -0.85526,-16.30676 5.98676,-25.77155 20.52606,-28.39438 z m 0.6842,11.46038 c -6.21485,2.67984 -8.95166,7.46925 -8.21042,14.36824 -0.17107,7.32669 2.85082,11.65997 9.06567,12.99984 7.46917,-0.51313 10.83316,-5.98674 10.09198,-16.42085 -0.8838,-7.21258 -4.53287,-10.86165 -10.94723,-10.94723 z"
         id="path16420" />
    </g>
  </g>
</svg>
