<?xml version="1.0" encoding="UTF-8" standalone="no"?>
<svg
   xmlns:dc="http://purl.org/dc/elements/1.1/"
   xmlns:cc="http://creativecommons.org/ns#"
   xmlns:rdf="http://www.w3.org/1999/02/22-rdf-syntax-ns#"
   xmlns:svg="http://www.w3.org/2000/svg"
   xmlns="http://www.w3.org/2000/svg"
   version="1.0"
   width="600"
   height="600"
   id="svg2">
  <metadata
     id="metadata12">
    <rdf:RDF>
      <cc:Work
         rdf:about="">
        <dc:format>image/svg+xml</dc:format>
        <dc:type
           rdf:resource="http://purl.org/dc/dcmitype/StillImage" />
        <dc:title></dc:title>
      </cc:Work>
    </rdf:RDF>
  </metadata>
  <defs
     id="defs4" />
  <path
     style="fill:#ffffff;fill-opacity:1;fill-rule:nonzero;stroke:#000000;stroke-width:2.60216475;stroke-linecap:round;stroke-linejoin:round;stroke-miterlimit:2;stroke-opacity:1;stroke-dasharray:none;stroke-dashoffset:0"
     id="path2367"
     d="m -60.711182,-458.85416 a 258.91537,258.91537 0 1 1 -517.830748,0 258.91537,258.91537 0 1 1 517.830748,0 z"
     transform="matrix(1.1528863,0,0,1.1528863,668.49307,829.00666)" />
  <path
     transform="matrix(1.1200571,0,0,1.1200571,657.99998,813.94285)"
     d="m -60.711182,-458.85416 a 258.91537,258.91537 0 1 1 -517.830748,0 258.91537,258.91537 0 1 1 517.830748,0 z"
     id="path2954"
     style="fill:#d40000;fill-opacity:1;fill-rule:nonzero;stroke:none" />
  <circle
     style="fill:#ffffff;fill-opacity:1;fill-rule:nonzero;stroke:none;stroke-width:0.830387"
     id="path2956"
     cx="300"
     cy="300"
     r="214.99998" />
  <g
     id="g1639"
     transform="matrix(3.8390249,0,0,3.8390249,-624.85597,-1255.2415)"
     style="stroke-width:0.260483;fill:#000000;fill-opacity:1">
    <path
       id="path13005-2"
       style="fill:#000000;fill-opacity:1;fill-rule:evenodd;stroke:none;stroke-width:0.260483;stroke-linejoin:round;stroke-miterlimit:4;stroke-dasharray:none;stroke-opacity:1;paint-order:markers fill stroke"
       d="m 220.34707,435.60729 16.46671,-33.60791 -1.61644,-5.64009 -9.14622,10.40217 c -2.89564,2.5584 -7.26234,-1.83157 -4.39578,-4.69812 l 16.22831,-18.63554 c 1.79669,-1.2501 2.58746,-1.70364 4.38995,-2.65141 2.0409,-0.94196 2.47118,-0.79077 4.38997,0.94777 l 14.51885,14.63513 c 0.51749,0.55239 0.69773,0.43028 0.91288,1.6804 v 7.28558 c 0,3.16892 -6.00641,3.13985 -6.04128,-0.0639 l 0.093,-5.12258 -5.3668,-5.18074 -2.13392,6.1285 c 4.54114,12.07675 8.23335,23.01967 12.74542,35.10224 2.0467,5.69823 -4.93653,8.47756 -7.74494,2.95377 l -11.31504,-30.06687 c -5.05863,10.33822 -9.5707,20.12405 -14.66422,30.43318 -2.89562,5.33773 -10.09399,1.22105 -7.32047,-3.90153" />
    <path
       id="path13013-1"
       style="fill:#000000;fill-opacity:1;fill-rule:evenodd;stroke:none;stroke-width:0.260483;stroke-linejoin:round;stroke-miterlimit:4;stroke-dasharray:none;stroke-opacity:1;paint-order:markers fill stroke"
       d="m 238.40114,368.08911 c 3.01773,0 5.45983,2.47117 5.45983,5.48891 0,3.01773 -2.4421,5.4889 -5.45983,5.4889 -3.01773,0 -5.48891,-2.47117 -5.48891,-5.4889 0,-3.01774 2.47118,-5.48891 5.48891,-5.48891" />
  </g>
</svg>
