<?xml version="1.0" encoding="UTF-8" standalone="no"?>
<!-- Created with Inkscape (http://www.inkscape.org/) -->

<svg
   xmlns:dc="http://purl.org/dc/elements/1.1/"
   xmlns:cc="http://creativecommons.org/ns#"
   xmlns:rdf="http://www.w3.org/1999/02/22-rdf-syntax-ns#"
   xmlns:svg="http://www.w3.org/2000/svg"
   xmlns="http://www.w3.org/2000/svg"
   xmlns:sodipodi="http://sodipodi.sourceforge.net/DTD/sodipodi-0.dtd"
   xmlns:inkscape="http://www.inkscape.org/namespaces/inkscape"
   width="355.0686"
   height="354.56354"
   id="svg2875"
   version="1.1"
   inkscape:version="0.47 r22583"
   sodipodi:docname="Italian traffic signs - aumento corsie disponibili.svg">
  <defs
     id="defs2877">
    <inkscape:path-effect
       effect="spiro"
       id="path-effect3690"
       is_visible="true" />
    <inkscape:path-effect
       effect="spiro"
       id="path-effect3686"
       is_visible="true" />
    <inkscape:path-effect
       effect="spiro"
       id="path-effect2905"
       is_visible="true" />
    <inkscape:perspective
       sodipodi:type="inkscape:persp3d"
       inkscape:vp_x="0 : 526.18109 : 1"
       inkscape:vp_y="0 : 1000 : 0"
       inkscape:vp_z="744.09448 : 526.18109 : 1"
       inkscape:persp3d-origin="372.04724 : 350.78739 : 1"
       id="perspective2883" />
    <inkscape:perspective
       id="perspective2893"
       inkscape:persp3d-origin="0.5 : 0.33333333 : 1"
       inkscape:vp_z="1 : 0.5 : 1"
       inkscape:vp_y="0 : 1000 : 0"
       inkscape:vp_x="0 : 0.5 : 1"
       sodipodi:type="inkscape:persp3d" />
  </defs>
  <sodipodi:namedview
     id="base"
     pagecolor="#ffffff"
     bordercolor="#666666"
     borderopacity="1.0"
     inkscape:pageopacity="0.0"
     inkscape:pageshadow="2"
     inkscape:zoom="1.979899"
     inkscape:cx="140.64461"
     inkscape:cy="206.20594"
     inkscape:document-units="px"
     inkscape:current-layer="layer2"
     showgrid="false"
     inkscape:window-width="1920"
     inkscape:window-height="1138"
     inkscape:window-x="-8"
     inkscape:window-y="-8"
     inkscape:window-maximized="1" />
  <metadata
     id="metadata2880">
    <rdf:RDF>
      <cc:Work
         rdf:about="">
        <dc:format>image/svg+xml</dc:format>
        <dc:type
           rdf:resource="http://purl.org/dc/dcmitype/StillImage" />
        <dc:title></dc:title>
      </cc:Work>
    </rdf:RDF>
  </metadata>
  <g
     inkscape:label="Livello 1"
     inkscape:groupmode="layer"
     id="layer1"
     transform="translate(-147.48227,-393.74274)" />
  <g
     inkscape:groupmode="layer"
     id="layer2"
     inkscape:label="Tracciato"
     transform="translate(-147.48227,-393.74274)">
    <rect
       style="fill:#2f4a97;fill-opacity:1;stroke:none"
       id="rect2908"
       width="355.0686"
       height="354.56354"
       x="147.48227"
       y="393.74274"
       rx="13.079589"
       ry="0" />
    <rect
       style="fill:none;stroke:#ffffff;stroke-width:5.96990538;stroke-opacity:1"
       id="rect3682"
       width="342.05072"
       height="343.06094"
       x="153.99118"
       y="399.76685"
       rx="26.203354" />
    <path
       style="fill:#ffffff;fill-opacity:1;stroke:none"
       d="m 301.02546,676.58544 13.13198,24.24366 75.76144,-41.41626 c 8.7071,-6.78862 16.11806,-15.23368 21.71828,-24.74874 8.30978,-14.11876 12.5618,-30.59533 12.12183,-46.97209 l 0.50508,-65.65992 27.77919,6.566 c 0.8452,0.048 1.70362,-0.17211 2.4215,-0.62079 0.71788,-0.44868 1.29185,-1.12386 1.61911,-1.90461 0.28475,-0.67933 0.38309,-1.42948 0.33357,-2.16441 -0.0495,-0.73493 -0.24373,-1.45559 -0.52318,-2.13712 -0.55891,-1.36304 -1.44717,-2.56012 -2.28608,-3.77111 -1.47026,-2.12236 -2.81305,-4.33074 -4.0903,-6.57456 -1.55249,-2.72736 -3.00913,-5.50844 -4.56386,-8.23452 -2.96662,-5.2017 -6.13457,-10.2865 -9.0732,-15.50406 l -24.74873,-43.94163 -2.52539,-2.52539 c -7.29543,13.19494 -14.70358,26.32756 -22.22335,39.39595 -6.24973,10.86122 -12.57657,21.67808 -18.97988,32.44948 -0.8987,1.51176 -1.89752,2.96147 -2.97236,4.35351 -1.07484,1.39205 -2.19453,2.82445 -2.63516,4.52707 -0.22031,0.85131 -0.25479,1.75902 -0.0288,2.60883 0.22602,0.84982 0.71758,1.62923 1.3982,2.18603 0.68062,0.5568 1.53577,0.88059 2.40905,0.98379 0.87328,0.1032 1.75619,-0.009 2.62619,-0.13662 8.65992,-1.27378 17.25917,-2.95991 25.75888,-5.05076 0.67407,-0.16581 1.34751,-0.33417 2.02031,-0.50507 l -1.01015,74.24621 c -1.29412,10.11609 -5.2564,19.8788 -11.37843,28.03544 -6.45913,8.60577 -15.14657,15.29638 -24.26391,21.01072 -8.01199,5.02156 -16.42425,9.36728 -24.81491,13.72673 -11.18091,5.80915 -22.3433,11.65393 -33.48694,17.53424"
       id="path3684"
       inkscape:path-effect="#path-effect3686"
       inkscape:original-d="m 301.02546,676.58544 13.13198,24.24366 75.76144,-41.41626 c 0,0 15.32064,-18.35111 21.71828,-24.74874 16.83587,-16.83588 12.12183,-46.97209 12.12183,-46.97209 l 0.50508,-65.65992 27.77919,6.566 c 19.84273,11.57638 3.45498,9.95989 4.04061,-2.5254 0.18515,-3.94731 -1.06048,-6.24244 -2.47569,-8.07264 -1.87457,-2.42425 -4.55175,-3.0226 -4.0903,-6.57456 0.50414,-3.88057 -2.6977,-5.02314 -4.56386,-8.23452 -4.12598,-7.10019 -9.0732,-15.50406 -9.0732,-15.50406 l -24.74873,-43.94163 -2.52539,-2.52539 -22.22335,39.39595 c 0,0 -12.65326,21.63298 -18.97988,32.44948 -4.11162,7.02953 -4.68251,15.59705 0.79714,14.52261 l 25.75888,-5.05076 2.02031,-0.50507 -1.01015,74.24621 c 0,0 -2.03485,19.64042 -11.37843,28.03544 -7.29934,6.55831 -13.31997,11.94702 -24.26391,21.01072 -7.12866,5.90391 -16.87276,9.20353 -24.81491,13.72673 -17.4343,9.92915 -33.48694,17.53424 -33.48694,17.53424 z"
       sodipodi:nodetypes="cccscccssssccccsscccsssc" />
    <path
       style="fill:#ffffff;fill-opacity:1;stroke:none"
       d="m 256.07367,701.33417 0,-180.31223 c 2.70017,0.64734 5.39408,1.32082 8.08122,2.02031 5.41636,1.40993 10.8052,2.92554 16.16244,4.54568 1.30132,0.39355 2.65182,0.75814 4.0022,0.60074 1.35039,-0.1574 2.64218,-0.85843 3.44789,-1.95349 0.80571,-1.09505 1.09934,-2.5159 0.9591,-3.86817 -0.14023,-1.35228 -0.67555,-2.63117 -1.28175,-3.84807 -1.94508,-3.9046 -4.61778,-7.3903 -7.09896,-10.97819 -4.41663,-6.38664 -8.25744,-13.14954 -12.06949,-19.91445 -1.88431,-3.34392 -3.7632,-6.6909 -5.63666,-10.04092 l -20.70813,-35.35534 -46.46701,79.80205 c -0.31148,0.69069 -0.40907,1.47608 -0.27608,2.222 0.13299,0.74591 0.49599,1.44918 1.02698,1.98967 0.81645,0.83104 1.98483,1.24673 3.14528,1.34957 1.16045,0.10285 2.32842,-0.0778 3.46455,-0.33553 2.27226,-0.51549 4.50403,-1.19778 6.7814,-1.69018 l 18.68783,-4.0406 0,180.31223 27.77919,-0.50508"
       id="path3688"
       inkscape:path-effect="#path-effect3690"
       inkscape:original-d="m 256.07367,701.33417 0,-180.31223 8.08122,2.02031 16.16244,4.54568 c 4.58023,1.28818 6.43911,-7.3344 7.12744,-9.06899 0.32235,-0.81234 -3.2375,-5.24289 -7.09896,-10.97819 -5.66959,-8.42085 -11.05787,-18.56562 -12.06949,-19.91445 -10.46519,-13.95357 -5.63666,-10.04092 -5.63666,-10.04092 l -20.70813,-35.35534 -46.46701,79.80205 c 0,0 6.89823,-0.55939 0.7509,4.21167 -5.13271,3.98359 13.39123,-0.67614 13.39123,-0.67614 l 18.68783,-4.0406 0,180.31223 27.77919,-0.50508 z"
       sodipodi:nodetypes="cccsssscccscc" />
  </g>
</svg>
